<svg width="24" height="24" viewBox="0 0 24 24" fill="none" xmlns="http://www.w3.org/2000/svg">
<path d="M22.0899 11.7306V13.0392C22.0899 13.513 21.7403 13.9477 21.0388 14.3479C20.1418 14.8171 19.1735 15.1414 18.1754 15.307C16.8759 15.5485 15.5557 15.6658 14.2333 15.6566C12.9131 15.6635 11.5952 15.5462 10.2958 15.307C9.30218 15.1391 8.3408 14.8171 7.45072 14.3479C6.75154 13.9477 6.39505 13.5107 6.39505 13.0392V11.7306C6.39505 11.2752 6.74924 10.8221 7.45072 10.4219C8.35 9.955 9.31598 9.63301 10.3142 9.46742C11.6113 9.22362 12.9292 9.10403 14.2517 9.11322C15.5741 9.10403 16.8943 9.22362 18.1938 9.46742C19.1919 9.63301 20.1579 9.955 21.0572 10.4219C21.7449 10.8267 22.0899 11.2637 22.0899 11.7306ZM14.231 20.9004C12.7038 20.905 11.1812 20.7532 9.68397 20.4451C8.4995 20.2381 7.36792 19.7965 6.35595 19.1456V20.882C6.35595 21.3374 6.71014 21.7905 7.41162 22.1907C8.3086 22.6599 9.27688 22.9842 10.2751 23.1498C11.5722 23.3913 12.8924 23.5086 14.2126 23.4994C15.535 23.5063 16.8552 23.3913 18.1547 23.1498C19.1551 22.9842 20.1211 22.6599 21.0181 22.1907C21.7173 21.7905 22.0692 21.3535 22.0692 20.882V19.164C21.0595 19.8172 19.9302 20.2588 18.7457 20.4634C17.2623 20.7624 15.7466 20.9096 14.231 20.9004ZM14.231 16.9744C12.7038 16.979 11.1812 16.8272 9.68397 16.519C8.4995 16.312 7.36792 15.8705 6.35595 15.2196V16.956C6.35595 17.4114 6.71014 17.8645 7.41162 18.2647C8.3086 18.7339 9.27688 19.0582 10.2751 19.2238C11.5722 19.4653 12.8924 19.5826 14.2126 19.5734C15.535 19.5803 16.8552 19.4653 18.1547 19.2238C19.1551 19.0582 20.1211 18.7339 21.0181 18.2647C21.7173 17.8645 22.0692 17.4275 22.0692 16.956V15.238C21.0664 15.8935 19.944 16.3419 18.7641 16.5558C17.2738 16.8479 15.7535 16.9882 14.231 16.9744ZM9.11818 3.11497C9.77596 3.11267 10.4291 3.23457 11.0409 3.47836C11.6481 3.71526 12.2047 4.06715 12.6785 4.51564L11.2778 5.9255C11.0731 6.1003 11.0156 6.39469 11.1375 6.63389C11.2249 6.88918 11.4687 7.05477 11.7378 7.04327H16.3193C16.4918 7.04098 16.6551 6.96968 16.7747 6.84778C16.8966 6.72818 16.9656 6.56489 16.9656 6.39239V1.8063C16.9794 1.53721 16.8115 1.29111 16.5562 1.20142C16.317 1.07952 16.0249 1.13932 15.8524 1.34171L14.5253 2.66418C13.7986 1.9765 12.9499 1.43371 12.0207 1.06342C10.1118 0.292938 7.97741 0.313638 6.08455 1.11862C5.60847 1.32101 5.15308 1.56251 4.72069 1.8454C4.52519 1.9811 4.3343 2.12369 4.1526 2.27319L3.97091 2.42729C3.09463 3.17247 2.39774 4.10395 1.93086 5.15502C1.90326 5.23322 1.90326 5.31832 1.93086 5.39651C1.95156 5.47241 2.00215 5.53681 2.07115 5.57361L3.81221 6.55109C3.89731 6.59249 3.99391 6.60169 4.0859 6.57409C4.1733 6.54189 4.2423 6.47749 4.2768 6.39239C4.4125 6.0566 4.58269 5.73461 4.78509 5.43331L4.96218 5.18722L5.07028 5.05152C5.15308 4.95263 5.23818 4.85143 5.33017 4.75713L5.35777 4.73413L5.56247 4.53404L5.60387 4.49264C5.67746 4.42364 5.75336 4.36154 5.83156 4.29714L5.95346 4.20514L6.05006 4.13155C6.37435 3.89925 6.72394 3.70376 7.09193 3.54966C7.72901 3.26677 8.419 3.11957 9.11818 3.11497Z" fill="black"/>
</svg>
