<svg width="24" height="24" viewBox="0 0 24 24" fill="none" xmlns="http://www.w3.org/2000/svg">
<path d="M20.8871 0.499878H11.478C10.328 0.499878 9.38707 1.44079 9.38707 2.59079V5.72715H3.11435C1.96435 5.72715 1.02344 6.66806 1.02344 7.81806V21.409C1.02344 22.559 1.96435 23.4999 3.11435 23.4999H11.478C12.628 23.4999 13.5689 22.559 13.5689 21.409V18.2726H20.8871C22.0371 18.2726 22.978 17.3317 22.978 16.1817V2.59079C22.978 1.44079 22.0371 0.499878 20.8871 0.499878ZM11.478 13.8817H7.71435L8.7598 12.8362C8.86435 12.7317 8.86435 12.6272 8.86435 12.5226C8.86435 12.4181 8.86435 12.3135 8.7598 12.209L8.44616 11.8953C8.34162 11.7908 8.23707 11.7908 8.13253 11.7908C8.02798 11.7908 7.92344 11.7908 7.81889 11.8953L5.41435 14.2999C5.3098 14.4044 5.3098 14.509 5.3098 14.6135C5.3098 14.7181 5.3098 14.8226 5.41435 14.9272L7.81889 17.3317C7.92344 17.4362 8.02798 17.4362 8.13253 17.4362C8.23707 17.4362 8.34162 17.4362 8.44616 17.3317L8.7598 17.0181C8.86435 16.9135 8.86435 16.809 8.86435 16.7044C8.86435 16.5999 8.86435 16.4953 8.7598 16.3908L7.71435 15.3453H11.478V21.409H3.11435V7.81806H11.478V13.8817ZM20.8871 8.65442H17.1234L18.1689 7.60897C18.2734 7.50442 18.2734 7.39988 18.2734 7.29533C18.2734 7.19079 18.2734 7.08624 18.1689 6.9817L17.8553 6.66806C17.7507 6.56351 17.6462 6.56351 17.5416 6.56351C17.4371 6.56351 17.3325 6.56351 17.228 6.66806L14.8234 9.0726C14.7189 9.17715 14.7189 9.2817 14.7189 9.38624C14.7189 9.49079 14.7189 9.59533 14.8234 9.69988L17.228 12.1044C17.3325 12.209 17.4371 12.209 17.5416 12.209C17.6462 12.209 17.7507 12.209 17.8553 12.1044L18.1689 11.7908C18.2734 11.6862 18.2734 11.5817 18.2734 11.4772C18.2734 11.3726 18.2734 11.2681 18.1689 11.1635L17.1234 10.1181H20.8871V16.1817H13.5689V7.81806C13.5689 6.66806 12.628 5.72715 11.478 5.72715V2.59079H20.8871V8.65442Z" fill="#222222"/>
</svg>
