<svg width="24" height="24" viewBox="0 0 24 24" fill="none" xmlns="http://www.w3.org/2000/svg">
<path d="M23.4082 2.44341C23.5306 2.32099 23.5306 2.19635 23.4082 2.07393C23.0387 1.82687 22.5446 1.33498 22.1751 0.963273C22.0527 0.840856 21.9281 0.840856 21.8056 0.963273C20.942 1.82687 20.0784 2.69047 19.2171 3.55184L18.97 3.30478C17.3652 1.45739 14.652 1.08792 12.4329 2.32099C11.694 2.81511 10.9528 3.43165 10.3362 4.17061L9.59728 4.78715C9.47486 4.54009 9.2278 4.29303 8.98074 4.17061C8.73368 3.92355 8.85833 4.04819 8.73368 4.17061C8.3642 4.54009 7.99473 4.90956 7.50061 5.40369C7.37819 5.5261 7.37819 5.65075 7.50061 5.77316C8.3642 6.63676 9.2278 7.50036 10.0892 8.23932C10.2116 8.36174 10.2116 8.48638 10.0892 8.6088L8.23956 10.336C6.75942 8.9805 5.65099 7.74742 5.15687 7.37572C5.03445 7.12866 4.90981 7.12866 4.78739 7.2533C4.41791 7.74742 4.04844 8.1169 3.67673 8.48638C3.55431 8.6088 3.55431 8.73344 3.67673 8.85586C3.79915 8.97827 4.04621 9.22533 4.41569 9.59481C3.79915 10.2114 3.18261 10.7055 2.68849 11.1974C1.33299 12.4304 0.838874 14.4025 1.33299 16.1297C1.58006 17.2403 2.19659 18.1017 2.93555 18.8429C3.05797 18.9653 3.05797 19.09 2.93555 19.2124C2.19659 19.9513 1.33299 20.8149 0.591813 21.5561C0.469396 21.6785 0.469396 21.8032 0.591813 21.9256C0.961291 22.2951 1.33077 22.6645 1.70247 23.0362C1.82489 23.1587 1.94953 23.1587 2.07195 23.0362C2.68849 22.4197 3.42745 21.6807 4.04398 21.0642C4.1664 20.9418 4.41346 20.5701 4.66052 20.5701C4.90758 20.5701 5.03 20.8171 5.27706 21.0642C7.24909 23.0362 10.4564 23.0362 12.4285 21.0642C13.045 20.4477 13.5391 19.8311 14.1557 19.2146C14.4027 19.5841 14.6498 19.7087 14.8946 19.9535C15.1417 20.2006 15.017 20.076 15.1417 19.9535C15.5112 19.5841 15.8806 19.2146 16.2523 18.8429C16.3748 18.7205 16.4994 18.5958 16.2523 18.4734C15.6358 17.8569 14.7722 17.1179 13.9086 16.1297C14.5251 15.5131 15.1417 14.8966 15.6358 14.2801C15.7582 14.1576 15.8829 14.1576 16.0053 14.2801L18.5983 16.8709C18.7207 16.9933 18.8454 16.9933 18.8454 16.8709C19.2148 16.5014 19.709 16.0073 20.0784 15.6378C20.2009 15.5154 20.2009 15.5154 20.0784 15.3907L19.4619 14.5271C20.0784 14.033 20.695 13.4165 21.1891 12.9246C22.4222 11.8139 22.9163 10.0889 22.6692 8.36174C22.5468 7.12866 21.9303 6.018 20.942 5.27904C20.8196 5.15663 20.8196 5.03198 20.942 4.90956C21.8056 4.17061 22.5446 3.30701 23.4082 2.44341ZM12.5576 17.9815C12.0634 18.4756 11.5715 19.0922 10.955 19.5841C9.72192 20.8171 7.74989 20.8171 6.51682 19.5841C5.77786 18.9653 5.43509 18.5847 4.29772 17.365C3.02458 16.1742 2.81758 14.1599 3.92824 12.9268C4.05066 12.8044 4.1753 12.6797 4.29772 12.5573C4.79184 12.0632 5.28374 11.5713 5.77786 10.9548L12.5598 17.7367C12.68 17.8591 12.68 17.8591 12.5576 17.9815ZM14.1601 12.6797L12.4329 14.5293C11.5693 13.6657 10.5833 12.6797 9.7197 11.8161L11.4469 9.96652C11.5693 9.8441 11.694 9.71946 11.8164 9.96652C12.5553 10.7055 13.2965 11.4467 14.1601 12.3103C14.4072 12.5551 14.4072 12.5551 14.1601 12.6797ZM19.8314 11.4467L19.709 11.5691C19.2148 12.0632 18.7229 12.5551 18.2288 13.0492L11.1998 6.14264L12.927 4.54009C14.1601 3.42943 16.0097 3.30701 17.2428 4.41767C18.1064 5.28127 18.97 6.26728 19.8314 7.13088C21.0645 8.36396 21.0645 10.336 19.8314 11.4467Z" fill="black"/>
</svg>
