<svg width="24" height="24" viewBox="0 0 24 24" fill="none" xmlns="http://www.w3.org/2000/svg">
<path d="M23.3632 1.88728C23.4713 1.77919 23.4713 1.66879 23.3632 1.5607C23.0366 1.23412 22.7101 0.907533 22.3835 0.580949C22.2754 0.472854 22.165 0.472854 22.0569 0.580949C21.2956 1.34221 20.5344 2.10347 19.7731 2.86473L19.5546 2.64625C18.1448 1.01793 15.7529 0.691343 13.9038 1.77919C13.2506 2.21387 12.5975 2.75664 12.0547 3.29941L11.4015 3.84219C11.2934 3.73409 11.0749 3.5156 10.8587 3.29941C10.6403 3.08092 10.7507 3.19132 10.6403 3.29941C10.3137 3.626 9.98709 3.95258 9.55241 4.27916C9.44432 4.38726 9.44432 4.49765 9.55241 4.60575C10.3137 5.36701 10.9668 6.02018 11.7281 6.78144C11.8362 6.88953 11.8362 6.99993 11.7281 7.10802L9.55241 9.28371C9.44432 9.39181 9.44432 9.5022 9.55241 9.6103C9.879 9.93688 10.2056 10.2635 10.5322 10.59C10.6403 10.6981 10.7507 10.6981 10.8587 10.59L13.0344 8.41436C13.1425 8.30626 13.2529 8.19587 13.361 8.41436C14.0142 9.06752 14.6651 9.71839 15.3182 10.3716C15.4263 10.4797 15.4263 10.59 15.3182 10.6981L13.1425 12.8738C13.0344 12.9819 13.0344 13.0923 13.1425 13.2004C13.4691 13.527 13.7957 13.8536 14.1223 14.1802C14.2304 14.2883 14.3408 14.2883 14.4489 14.1802C15.2101 13.4189 15.8633 12.7657 16.6246 12.0045C16.7327 11.8964 16.843 11.8964 16.9511 12.0045L19.1268 14.1802C19.2349 14.2883 19.2349 14.2883 19.3453 14.1802C19.6719 13.8536 19.9985 13.4189 20.4332 13.0923C20.5413 12.9842 20.5413 12.9842 20.4332 12.8738L19.78 12.2207C20.3228 11.786 20.8678 11.3513 21.3025 10.8062C22.3904 9.82649 22.825 8.30626 22.6066 6.89183C22.3881 5.80399 21.8453 4.82654 21.084 4.17337C20.9759 4.06527 20.9759 3.95488 21.084 3.84679C21.9511 3.29941 22.602 2.64855 23.3632 1.88728ZM20.2101 9.71609C20.102 9.82419 20.102 9.82419 20.2101 9.71609C19.6673 10.2589 19.2303 10.6958 18.906 11.1305L12.8159 5.15082L14.3385 3.73639C15.3182 2.75664 16.9488 2.64855 18.0367 3.6283C18.7979 4.38956 19.5592 5.15082 20.3205 5.91208C21.2979 6.99763 21.2979 8.73864 20.2101 9.71609ZM4.55246 9.71609C4.44437 9.608 4.44437 9.608 4.33397 9.71609C4.00739 10.0427 3.68081 10.3693 3.35422 10.6958C3.24613 10.8039 3.24613 10.9143 3.35422 11.0224C3.46232 11.1305 3.68081 11.349 4.00739 11.6756C3.46462 12.2184 2.91954 12.6553 2.48487 13.09C1.39702 14.1779 0.854247 15.8085 1.28893 17.331C1.50741 18.2004 2.05019 19.072 2.70336 19.7229C2.81145 19.831 2.81145 19.9414 2.70336 20.0495C2.05019 20.7003 1.28893 21.4593 0.635758 22.1125C0.527664 22.2206 0.527664 22.331 0.635758 22.4391C0.962342 22.7656 1.28893 23.0922 1.61551 23.4188C1.7236 23.5269 1.834 23.5269 1.94209 23.4188C2.48487 22.876 3.13803 22.2229 3.68311 21.6778C3.90159 21.4593 4.00969 21.2431 4.22588 21.2431C4.44437 21.2431 4.55246 21.4616 4.76865 21.6778C6.50966 23.3084 9.22813 23.3084 10.9668 21.6778C11.5096 21.135 11.9466 20.59 12.4894 20.0472C12.7079 20.3738 12.924 20.4819 13.1425 20.7003C13.361 20.9188 13.2506 20.8084 13.361 20.7003C13.6876 20.3738 14.0142 20.0472 14.3408 19.7206C14.4489 19.6125 14.5593 19.5021 14.3408 19.394C12.1628 17.2206 5.7484 10.8039 4.55246 9.71609ZM10.9668 18.9593C10.5322 19.394 10.0975 19.9391 9.55241 20.3738C8.46457 21.4616 6.83395 21.4616 5.7461 20.3738C5.63801 20.2657 5.63801 20.2657 5.52761 20.1553C4.98484 19.5021 4.33167 18.9593 3.7866 18.4143C2.59066 17.4345 2.48257 15.6958 3.46002 14.4999C3.56811 14.3918 3.67851 14.2814 3.7866 14.1733C4.22128 13.7386 4.65596 13.3039 5.09064 12.8692L10.9622 18.7408C11.0749 18.7408 11.0749 18.8512 10.9668 18.9593Z" fill="black"/>
</svg>
