<svg width="24" height="24" viewBox="0 0 24 24" fill="none" xmlns="http://www.w3.org/2000/svg">
<path d="M22.3323 13.6802L20.2871 15.7253V6.22998H18.5341V15.7253L16.489 13.6802L15.3203 14.8488L19.4106 18.9392L23.5009 14.8488L22.3323 13.6802Z" fill="black"/>
<path d="M14.7349 6.66818H11.5211L10.9368 4.91519C10.7907 4.62303 10.6446 4.47694 10.3525 4.33086C10.0603 4.18478 9.76812 4.0387 9.47596 4.0387H6.11606C5.8239 4.0387 5.53173 4.18478 5.38565 4.33086C5.09348 4.47694 4.9474 4.76911 4.80132 5.06127L4.07091 6.81426H0.857091C0.711008 6.81426 0.711008 6.81426 0.564926 6.96035C0.418843 7.10643 0.564926 7.10643 0.564926 7.10643V7.69076C0.564926 7.83684 0.564926 7.83684 0.711008 7.98292C0.857091 8.12901 0.857091 8.12901 1.00317 8.12901H1.87967V17.9165C1.87967 18.5009 2.02575 18.9391 2.464 19.3774C2.75616 19.6695 3.19441 19.9617 3.63266 19.9617H12.1054C12.5437 19.9617 12.9819 19.8156 13.2741 19.3774C13.5663 18.9391 13.8584 18.5009 13.8584 17.9165V7.98292H14.881C15.0271 7.98292 15.0271 7.98292 15.1732 7.83684C15.0271 7.83684 15.0271 7.69076 15.0271 7.69076V7.10643C15.1732 6.96035 15.0271 6.96035 15.0271 6.81426C14.881 6.66818 14.881 6.66818 14.7349 6.66818ZM5.96998 5.49952C6.11606 5.35344 6.11606 5.35344 6.26214 5.35344H9.47596C9.62204 5.35344 9.62204 5.49952 9.62204 5.49952L10.2064 6.66818H5.53173L5.96998 5.49952ZM12.3976 18.2087C12.2515 18.3548 12.2515 18.5009 12.2515 18.5009C12.1054 18.5009 12.1054 18.5009 12.1054 18.5009H3.48658C3.48658 18.5009 3.34049 18.5009 3.34049 18.3548C3.34049 18.3548 3.34049 18.3548 3.19441 18.2087C3.04833 18.0626 3.04833 17.9165 3.04833 17.7704V7.98292H12.2515V17.7704H12.3976C12.3976 17.9165 12.3976 18.0626 12.3976 18.2087Z" fill="black"/>
<path d="M10.6445 9.88184H10.0602C9.91413 9.88184 9.91413 9.88184 9.76805 10.0279C9.62197 10.174 9.76805 10.174 9.76805 10.3201V16.1634C9.76805 16.3095 9.76805 16.3095 9.91413 16.4555C10.0602 16.6016 10.0602 16.6016 10.0602 16.6016H10.6445C10.7906 16.6016 10.7906 16.6016 10.9367 16.4555C11.0828 16.3095 11.0828 16.3095 11.0828 16.1634V10.3201C11.0828 10.174 11.0828 10.174 10.9367 10.0279C10.9367 9.88184 10.7906 9.88184 10.6445 9.88184Z" fill="black"/>
<path d="M5.38626 9.88184H4.80193C4.65585 9.88184 4.65585 9.88184 4.50977 10.0279C4.50977 10.174 4.50977 10.174 4.50977 10.3201V16.1634C4.50977 16.3095 4.50977 16.3095 4.65585 16.4555C4.65585 16.6016 4.65585 16.6016 4.80193 16.6016H5.38626C5.53234 16.6016 5.53234 16.6016 5.67843 16.4555C5.82451 16.3095 5.82451 16.3095 5.82451 16.1634V10.3201C5.82451 10.174 5.82451 10.174 5.67843 10.0279C5.53234 9.88184 5.53234 9.88184 5.38626 9.88184Z" fill="black"/>
<path d="M8.01564 9.88184H7.43131C7.28523 9.88184 7.28523 9.88184 7.13914 10.0279C6.99306 10.174 7.13914 10.174 7.13914 10.3201V16.1634C7.13914 16.3095 7.13914 16.3095 7.28523 16.4555C7.43131 16.6016 7.43131 16.6016 7.43131 16.6016H8.01564C8.16172 16.6016 8.16172 16.6016 8.30781 16.4555C8.45389 16.3095 8.45389 16.3095 8.45389 16.1634V10.3201C8.45389 10.174 8.45389 10.174 8.30781 10.0279C8.30781 9.88184 8.16172 9.88184 8.01564 9.88184Z" fill="black"/>
</svg>
