<svg width="24" height="24" viewBox="0 0 24 24" fill="none" xmlns="http://www.w3.org/2000/svg">
<path d="M19.6267 13.7764C20.2234 13.3289 20.5217 12.8814 20.5217 12.4339V7.95862C18.8808 9.00284 16.1957 9.74872 13.3613 9.89789L19.6267 13.7764Z" fill="black"/>
<path d="M10.8253 8.70452C16.1956 8.70452 20.5217 7.21276 20.5217 5.57184V3.63256C20.5217 1.84246 16.1956 0.499878 10.8253 0.499878C5.45499 0.499878 1.12891 1.99163 1.12891 3.63256V5.57184C1.12891 7.36194 5.45499 8.70452 10.8253 8.70452Z" fill="black"/>
<path d="M1.12891 14.9702V19.4455C1.12891 21.2356 5.45499 22.5782 10.8253 22.5782C10.9745 22.5782 11.1236 22.5782 11.1236 22.5782V17.0587C10.9745 17.0587 10.8253 17.0587 10.8253 17.0587C6.94674 17.0587 3.21736 16.462 1.12891 14.9702Z" fill="black"/>
<path d="M1.12891 8.10718V12.5824C1.12891 14.3725 5.45499 15.7151 10.8253 15.7151C10.9745 15.7151 11.1236 15.7151 11.1236 15.7151V11.2399C11.1236 10.7923 11.2728 10.3448 11.5712 10.1956C11.2728 10.1956 10.9745 10.1956 10.6761 10.1956C6.94674 10.1956 3.21736 9.44976 1.12891 8.10718Z" fill="black"/>
<path d="M22.3124 16.7606L14.1077 11.987C13.511 11.5395 12.4668 11.8379 12.4668 12.8821V22.4293C12.4668 23.3244 13.3618 23.7719 14.1077 23.3244L22.3124 18.5507C23.0582 18.2524 23.0582 17.2082 22.3124 16.7606Z" fill="black"/>
</svg>
