<svg width="24" height="24" viewBox="0 0 24 24" fill="none" xmlns="http://www.w3.org/2000/svg">
<path d="M23.0024 11.7317V13.0405C23.0024 13.5143 22.6528 13.9491 21.9512 14.3493C21.0542 14.8185 20.0858 15.1428 19.0875 15.3085C17.7879 15.55 16.4676 15.6673 15.145 15.6581C13.8247 15.665 12.5067 15.5477 11.2071 15.3085C10.2135 15.1405 9.25198 14.8185 8.36182 14.3493C7.66256 13.9491 7.30603 13.512 7.30603 13.0405V11.7317C7.30603 11.2762 7.66026 10.8231 8.36182 10.4229C9.26118 9.95595 10.2273 9.63392 11.2255 9.46831C12.5228 9.22449 13.8408 9.10488 15.1634 9.11408C16.486 9.10488 17.8063 9.22449 19.1059 9.46831C20.1042 9.63392 21.0703 9.95595 21.9696 10.4229C22.6574 10.8277 23.0024 11.2647 23.0024 11.7317ZM15.145 20.9002C13.6177 20.9048 12.095 20.753 10.5976 20.4447C9.41299 20.2377 8.28131 19.7961 7.26923 19.1451V20.8818C7.26923 21.3372 7.62346 21.7903 8.32501 22.1906C9.22208 22.6598 10.1905 22.9841 11.1887 23.1498C12.486 23.3913 13.8063 23.5086 15.1266 23.4994C16.4492 23.5063 17.7695 23.3913 19.0691 23.1498C20.0697 22.9841 21.0358 22.6598 21.9328 22.1906C22.6321 21.7903 22.984 21.3533 22.984 20.8818V19.1635C21.9742 19.8168 20.8449 20.2584 19.6603 20.4631C18.1744 20.7622 16.6608 20.9094 15.145 20.9002ZM15.145 16.9738C13.6177 16.9784 12.095 16.8266 10.5976 16.5183C9.41299 16.3113 8.28131 15.8697 7.26923 15.2187V16.9554C7.26923 17.4108 7.62346 17.8639 8.32501 18.2642C9.22208 18.7334 10.1905 19.0577 11.1887 19.2234C12.486 19.4649 13.8063 19.5822 15.1266 19.573C16.4492 19.5799 17.7695 19.4649 19.0691 19.2234C20.0697 19.0577 21.0358 18.7334 21.9328 18.2642C22.6321 17.8639 22.984 17.4269 22.984 16.9554V15.2371C21.9811 15.8927 20.8587 16.3412 19.6787 16.5551C18.1859 16.8473 16.6677 16.9876 15.145 16.9738ZM10.8805 3.52926C11.2485 3.68337 11.5982 3.87889 11.9225 4.1112L12.0191 4.18481L12.141 4.27682C12.2192 4.34122 12.2951 4.40333 12.3687 4.47233L12.4101 4.51373L12.6148 4.71385L12.6654 4.76905C12.7574 4.86566 12.8426 4.96457 12.9254 5.06348L13.0335 5.19919C13.091 5.27739 13.1508 5.3602 13.2106 5.4453C13.413 5.74663 13.5832 6.06865 13.7189 6.40448C13.7534 6.48958 13.8224 6.55629 13.9098 6.58619C13.9995 6.61379 14.0984 6.60459 14.1836 6.56319L15.911 5.58101C15.98 5.54191 16.0306 5.47981 16.0513 5.4039C16.0789 5.3257 16.0789 5.24059 16.0513 5.16238C15.5844 4.1112 14.8851 3.17963 14.011 2.43438L13.8293 2.28026C13.6476 2.13075 13.4567 1.99044 13.2612 1.85243C12.8288 1.56951 12.3733 1.32569 11.8972 1.12558C9.99724 0.311315 7.85118 0.290613 5.93973 1.07037C5.01046 1.4384 4.1594 1.98354 3.43484 2.66899L2.11224 1.34179C1.93743 1.13708 1.64761 1.07957 1.40839 1.20148C1.15077 1.28889 0.985156 1.53731 0.996657 1.80643V6.38838C0.996657 6.55859 1.06566 6.7242 1.18757 6.84381C1.30718 6.96572 1.47049 7.03703 1.64301 7.03933H6.23415C6.50327 7.05083 6.74709 6.88521 6.8345 6.62989C6.95641 6.38838 6.8989 6.09625 6.69419 5.92144L5.29338 4.51143C5.76722 4.0629 6.32386 3.71097 6.93111 3.47406C7.54295 3.23024 8.1962 3.10603 8.85405 3.11063C9.55101 3.10833 10.2411 3.25094 10.8805 3.52926Z" fill="black"/>
</svg>
