<svg width="24" height="24" viewBox="0 0 24 24" fill="none" xmlns="http://www.w3.org/2000/svg">
<path d="M18.4641 4.94797C19.0397 4.37245 18.608 3.50916 17.8886 3.50916H1.34222C0.622815 3.50916 0.19117 4.37245 0.766697 4.94797L7.38526 11.5665V18.9045C7.38526 19.1923 7.52914 19.48 7.8169 19.6239C7.8169 19.6239 9.97513 20.9188 9.97513 20.3433V9.83995C9.97513 9.12054 10.5507 8.40113 11.4139 8.40113H15.1549L18.4641 4.94797Z" fill="black"/>
<path d="M22.3484 9.84058H12.4206C11.8451 9.84058 11.2695 10.4161 11.2695 10.9916V19.3368C11.2695 19.9123 11.8451 20.4878 12.4206 20.4878H22.3484C22.9239 20.4878 23.4995 19.9123 23.4995 19.3368V10.9916C23.4995 10.2722 22.9239 9.84058 22.3484 9.84058ZM16.5932 18.9051H12.8522V16.603H16.5932V18.9051ZM16.5932 15.1642H12.8522V12.8621H16.5932V15.1642ZM21.9168 18.9051H18.1759V16.603H21.9168V18.9051ZM21.9168 15.1642H18.1759V12.8621H21.9168V15.1642Z" fill="black"/>
</svg>
