<svg width="24" height="24" viewBox="0 0 24 24" fill="none" xmlns="http://www.w3.org/2000/svg">
<path d="M17.4279 12.2081C17.6692 12.463 17.7977 12.7783 17.7977 13.1208C17.7977 13.4731 17.6673 13.7903 17.4201 14.0355L12.9205 18.5429C12.9186 18.5449 12.9147 18.5487 12.9128 18.5507C12.6598 18.792 12.3425 18.9205 12 18.9205C11.6477 18.9205 11.3305 18.7901 11.0853 18.5429L6.58961 14.0433C6.33466 13.802 6.20037 13.4828 6.20037 13.1247C6.20037 12.7686 6.32882 12.4591 6.58377 12.2042L7.09367 11.6865C7.09562 11.6846 7.10146 11.6787 7.1034 11.6768C7.35835 11.4354 7.67363 11.307 8.01616 11.307C8.36842 11.307 8.68565 11.4374 8.93087 11.6846L10.2543 13.008V9.1409C10.2543 8.79448 10.3866 8.47725 10.6377 8.22619C10.8887 7.97513 11.206 7.84279 11.5524 7.84279H12.4379C12.7843 7.84279 13.1015 7.97513 13.3526 8.22619C13.6037 8.47725 13.736 8.79448 13.736 9.1409V13.006L15.0594 11.6826C15.3066 11.4354 15.6218 11.3051 15.9741 11.3051C16.3166 11.3051 16.6339 11.4316 16.8869 11.6748C16.8888 11.6768 16.8927 11.6807 16.8947 11.6826L17.4123 12.2003C17.4221 12.2022 17.426 12.2061 17.4279 12.2081ZM23.5 4.47979V19.5179C23.5 20.1252 23.282 20.6467 22.85 21.0807C22.4179 21.5128 21.8963 21.7308 21.2872 21.7308H2.71086C2.10366 21.7308 1.58208 21.5128 1.14808 21.0807C0.71408 20.6487 0.5 20.1271 0.5 19.5199V4.47979C0.5 3.87258 0.717973 3.351 1.15003 2.917C1.58208 2.483 2.10366 2.26892 2.71086 2.26892H21.2872C21.8944 2.26892 22.416 2.48689 22.85 2.91895C23.284 3.351 23.5 3.87258 23.5 4.47979ZM2.26908 8.90346C2.26908 9.03191 2.30995 9.13895 2.39364 9.22069C2.47732 9.30438 2.58242 9.34525 2.71086 9.34525H7.13454C7.26299 9.34525 7.37003 9.30438 7.45177 9.22069C7.53545 9.137 7.57632 9.03191 7.57632 8.90346V6.24887C7.57632 6.12042 7.53545 6.01338 7.45177 5.93164C7.36808 5.84795 7.26299 5.80708 7.13454 5.80708H2.71086C2.58242 5.80708 2.47538 5.84795 2.39364 5.93164C2.30995 6.01532 2.26908 6.12042 2.26908 6.24887V8.90346V8.90346ZM7.57632 16.8653C7.57632 16.7369 7.53545 16.6298 7.45177 16.5481C7.36808 16.4644 7.26299 16.4235 7.13454 16.4235H2.71086C2.58242 16.4235 2.47538 16.4644 2.39364 16.5481C2.30995 16.6318 2.26908 16.7369 2.26908 16.8653V19.5199C2.26908 19.6483 2.30995 19.7554 2.39364 19.8371C2.47732 19.9208 2.58242 19.9617 2.71086 19.9617H7.13454C7.26299 19.9617 7.37003 19.9208 7.45177 19.8371C7.53545 19.7534 7.57632 19.6483 7.57632 19.5199V16.8653V16.8653ZM21.7309 16.8653C21.7309 16.7369 21.69 16.6298 21.6064 16.5481C21.5227 16.4644 21.4176 16.4235 21.2891 16.4235H16.8655C16.737 16.4235 16.63 16.4644 16.5482 16.5481C16.4645 16.6318 16.4237 16.7369 16.4237 16.8653V19.5199C16.4237 19.6483 16.4645 19.7554 16.5482 19.8371C16.6319 19.9189 16.737 19.9617 16.8655 19.9617H21.2891C21.4176 19.9617 21.5246 19.9208 21.6064 19.8371C21.6881 19.7534 21.7309 19.6483 21.7309 19.5199V16.8653ZM21.7309 11.5581C21.7309 11.4296 21.69 11.3226 21.6064 11.2408C21.5227 11.1591 21.4176 11.1163 21.2891 11.1163H16.8655C16.8557 11.1163 16.8479 11.1163 16.8382 11.1182C16.5774 10.9684 16.2874 10.8905 15.9819 10.8905C15.5168 10.8905 15.1003 11.0637 14.7733 11.3887L14.6526 11.5094C14.6429 11.4024 14.602 11.3128 14.53 11.2408C14.4464 11.1571 14.3413 11.1163 14.2128 11.1163H14.1583V9.34719H14.2128C14.3413 9.34719 14.4483 9.30632 14.53 9.22264C14.6137 9.13895 14.6546 9.03386 14.6546 8.90541V6.24887C14.6546 6.12042 14.6137 6.01338 14.53 5.93164C14.4464 5.84795 14.3413 5.80708 14.2128 5.80708H9.78914C9.66069 5.80708 9.55365 5.84795 9.47191 5.93164C9.38822 6.01532 9.34735 6.12042 9.34735 6.24887V8.90346C9.34735 9.03191 9.38822 9.13895 9.47191 9.22069C9.55559 9.30438 9.66069 9.34525 9.78914 9.34525H9.84363V11.1143H9.78914C9.66069 11.1143 9.55365 11.1552 9.47191 11.2389C9.3999 11.3109 9.35903 11.4004 9.35124 11.5075L9.23058 11.3868C8.90362 11.0598 8.48714 10.8886 8.022 10.8886C7.7145 10.8886 7.42258 10.9664 7.16568 11.1163C7.15789 11.1163 7.14816 11.1143 7.13843 11.1143H2.71086C2.58242 11.1143 2.47538 11.1552 2.39364 11.2389C2.30995 11.3226 2.26908 11.4277 2.26908 11.5561V14.2107C2.26908 14.3392 2.30995 14.4462 2.39364 14.5279C2.47732 14.6116 2.58242 14.6525 2.71086 14.6525H6.61686L9.34541 17.3849V19.5179C9.34541 19.6464 9.38628 19.7534 9.46996 19.8352C9.55365 19.9169 9.65874 19.9597 9.78719 19.9597H14.2109C14.3393 19.9597 14.4464 19.9189 14.5281 19.8352C14.6118 19.7515 14.6526 19.6464 14.6526 19.5179V17.3947L17.389 14.6544H21.2872C21.4156 14.6544 21.5227 14.6136 21.6044 14.5299C21.6881 14.4462 21.729 14.3411 21.729 14.2127V11.5581H21.7309ZM21.7309 6.24887C21.7309 6.12042 21.69 6.01338 21.6064 5.93164C21.5227 5.84795 21.4176 5.80708 21.2891 5.80708H16.8655C16.737 5.80708 16.63 5.84795 16.5482 5.93164C16.4645 6.01532 16.4237 6.12042 16.4237 6.24887V8.90346C16.4237 9.03191 16.4645 9.13895 16.5482 9.22069C16.6319 9.30438 16.737 9.34525 16.8655 9.34525H21.2891C21.4176 9.34525 21.5246 9.30438 21.6064 9.22069C21.69 9.137 21.7309 9.03191 21.7309 8.90346V6.24887Z" fill="#222222"/>
</svg>
