<svg width="24" height="24" viewBox="0 0 24 24" fill="none" xmlns="http://www.w3.org/2000/svg">
<path d="M18.9 16.5998V5.55984C18.9 3.76584 17.474 2.33984 15.68 2.33984H3.72C1.926 2.33984 0.5 3.76584 0.5 5.55984C0.5 6.98584 1.466 8.22784 2.8 8.64184V18.4398C2.8 20.2338 4.226 21.6598 6.02 21.6598H20.28C22.074 21.6598 23.5 20.2338 23.5 18.4398V16.5998H18.9ZM20.28 19.8198C19.912 19.8198 19.452 19.1758 19.13 18.4398H21.43C21.154 19.1298 20.648 19.8198 20.28 19.8198ZM3.72 4.17984H12.736C12.552 4.59384 12.46 5.05384 12.46 5.55984C12.46 6.01984 12.552 6.47984 12.782 6.93984H3.72C2.938 6.93984 2.34 6.34184 2.34 5.55984C2.34 4.77784 2.938 4.17984 3.72 4.17984ZM17.382 19.8198H6.02C5.238 19.8198 4.64 19.2218 4.64 18.4398V8.77984H16.14V6.93984H15.68C14.898 6.93984 14.3 6.34184 14.3 5.55984C14.3 4.77784 14.898 4.17984 15.68 4.17984C16.462 4.17984 17.06 4.77784 17.06 5.55984V18.4398C17.06 18.8998 17.152 19.3598 17.382 19.8198Z" fill="#222222"/>
<path d="M8.32047 10.1595H6.48047V11.9995H8.32047V10.1595Z" fill="#222222"/>
<path d="M15.2202 10.1595H9.24023V11.9995H15.2202V10.1595Z" fill="#222222"/>
<path d="M8.32047 13.38H6.48047V15.22H8.32047V13.38Z" fill="#222222"/>
<path d="M15.2202 13.38H9.24023V15.22H15.2202V13.38Z" fill="#222222"/>
<path d="M8.32047 16.5996H6.48047V18.4396H8.32047V16.5996Z" fill="#222222"/>
<path d="M15.2202 16.5996H9.24023V18.4396H15.2202V16.5996Z" fill="#222222"/>
</svg>
