<svg width="24" height="24" viewBox="0 0 24 24" fill="none" xmlns="http://www.w3.org/2000/svg">
<path d="M19.5144 3.58459H14.4294C13.9075 3.58459 13.4844 4.00769 13.4844 4.52959V9.61459C13.4844 10.1365 13.9075 10.5596 14.4294 10.5596H19.5144C20.0363 10.5596 20.4594 10.1365 20.4594 9.61459V4.52959C20.4594 4.00769 20.0363 3.58459 19.5144 3.58459Z" fill="#E6E6FF"/>
<path d="M19.4997 4.155C19.5991 4.155 19.6945 4.19451 19.7649 4.26484C19.8352 4.33516 19.8747 4.43054 19.8747 4.53V9.63C19.8747 9.72946 19.8352 9.82484 19.7649 9.89516C19.6945 9.96549 19.5991 10.005 19.4997 10.005H14.4297C14.3302 10.005 14.2348 9.96549 14.1645 9.89516C14.0942 9.82484 14.0547 9.72946 14.0547 9.63V4.5C14.0547 4.40054 14.0942 4.30516 14.1645 4.23484C14.2348 4.16451 14.3302 4.125 14.4297 4.125H19.4997V4.155ZM19.4997 3H14.4297C14.0319 3 13.6503 3.15804 13.369 3.43934C13.0877 3.72064 12.9297 4.10218 12.9297 4.5V9.6C12.9297 9.99782 13.0877 10.3794 13.369 10.6607C13.6503 10.942 14.0319 11.1 14.4297 11.1H19.4997C19.8975 11.1 20.279 10.942 20.5603 10.6607C20.8417 10.3794 20.9997 9.99782 20.9997 9.6V4.5C20.9997 4.10218 20.8417 3.72064 20.5603 3.43934C20.279 3.15804 19.8975 3 19.4997 3Z" fill="#594FBA"/>
<path d="M9.57102 13.4398H4.48602C3.96411 13.4398 3.54102 13.8629 3.54102 14.3848V19.4698C3.54102 19.9917 3.96411 20.4148 4.48602 20.4148H9.57102C10.0929 20.4148 10.516 19.9917 10.516 19.4698V14.3848C10.516 13.8629 10.0929 13.4398 9.57102 13.4398Z" fill="#E6E6FF"/>
<path d="M9.57 13.995C9.66946 13.995 9.76484 14.0345 9.83517 14.1048C9.90549 14.1752 9.945 14.2705 9.945 14.37V19.5C9.945 19.5995 9.90549 19.6948 9.83517 19.7652C9.76484 19.8355 9.66946 19.875 9.57 19.875H4.5C4.44829 19.8791 4.39628 19.8725 4.34727 19.8555C4.29825 19.8386 4.25328 19.8116 4.21522 19.7764C4.17716 19.7411 4.14682 19.6984 4.12613 19.6508C4.10543 19.6032 4.09483 19.5519 4.095 19.5V14.37C4.09483 14.3181 4.10543 14.2668 4.12613 14.2192C4.14682 14.1716 4.17716 14.1289 4.21522 14.0936C4.25328 14.0584 4.29825 14.0314 4.34727 14.0144C4.39628 13.9975 4.44829 13.9908 4.5 13.995H9.6H9.57ZM9.6 12.87H4.5C4.10218 12.87 3.72064 13.028 3.43934 13.3093C3.15804 13.5906 3 13.9722 3 14.37V19.5C3 19.8978 3.15804 20.2793 3.43934 20.5607C3.72064 20.842 4.10218 21 4.5 21H9.6C9.99782 21 10.3794 20.842 10.6607 20.5607C10.942 20.2793 11.1 19.8978 11.1 19.5V14.37C11.1 13.9722 10.942 13.5906 10.6607 13.3093C10.3794 13.028 9.99782 12.87 9.6 12.87Z" fill="#594FBA"/>
<path d="M7.00516 11.745L5.53516 10.23L8.52016 10.275L7.00516 11.745Z" fill="#2980B9"/>
<path fill-rule="evenodd" clip-rule="evenodd" d="M5.01879 10.0069C5.10902 9.79806 5.31617 9.66412 5.54365 9.66754L8.52865 9.71254C8.75613 9.71597 8.95915 9.8561 9.04304 10.0676C9.12692 10.2791 9.07516 10.5202 8.91188 10.6787L7.39688 12.1487C7.17392 12.365 6.81781 12.3596 6.60147 12.1367L5.13147 10.6217C4.97304 10.4584 4.92857 10.2158 5.01879 10.0069ZM6.88453 10.8129L7.01716 10.9496L7.15385 10.8169L6.88453 10.8129Z" fill="#594FBA"/>
<path fill-rule="evenodd" clip-rule="evenodd" d="M8.26927 7.70042C7.61888 8.26827 7.25201 9.33133 7.69459 10.8361C7.78225 11.1341 7.6117 11.4468 7.31366 11.5345C7.01563 11.6221 6.70296 11.4516 6.6153 11.1535C6.08288 9.3433 6.46602 7.78137 7.52937 6.85297C8.58444 5.9318 10.1632 5.7639 11.7513 6.42559C12.0381 6.54507 12.1737 6.8744 12.0542 7.16116C11.9347 7.44793 11.6054 7.58353 11.3186 7.46405C10.0266 6.92573 8.92795 7.12534 8.26927 7.70042Z" fill="#594FBA"/>
<path d="M16.8757 12.3451L18.3457 13.8751L15.3457 13.8151L16.8757 12.3451Z" fill="#2980B9"/>
<path fill-rule="evenodd" clip-rule="evenodd" d="M16.887 11.7827C17.0361 11.7857 17.178 11.8478 17.2813 11.9554L18.7513 13.4854C18.909 13.6494 18.9522 13.8923 18.861 14.1007C18.7697 14.3091 18.5619 14.442 18.3345 14.4375L15.3345 14.3775C15.107 14.3729 14.9047 14.2318 14.8218 14.0199C14.739 13.808 14.7919 13.5671 14.956 13.4095L16.486 11.9395C16.5936 11.8361 16.7378 11.7797 16.887 11.7827ZM16.7147 13.2799L16.9992 13.2856L16.8598 13.1404L16.7147 13.2799Z" fill="#594FBA"/>
<path fill-rule="evenodd" clip-rule="evenodd" d="M16.5515 12.5704C16.8495 12.4827 17.1622 12.6533 17.2499 12.9513C17.7823 14.7615 17.3992 16.3235 16.3358 17.2519C15.2807 18.173 13.7019 18.3409 12.1139 17.6792C11.8271 17.5598 11.6915 17.2304 11.811 16.9437C11.9305 16.6569 12.2598 16.5213 12.5466 16.6408C13.8385 17.1791 14.9372 16.9795 15.5959 16.4044C16.2463 15.8366 16.6132 14.7735 16.1706 13.2687C16.0829 12.9707 16.2535 12.658 16.5515 12.5704Z" fill="#594FBA"/>
</svg>
