<svg width="24" height="24" viewBox="0 0 24 24" fill="none" xmlns="http://www.w3.org/2000/svg">
<path d="M18.75 4.5H5.25C4.42157 4.5 3.75 5.17157 3.75 6V18C3.75 18.8284 4.42157 19.5 5.25 19.5H18.75C19.5784 19.5 20.25 18.8284 20.25 18V6C20.25 5.17157 19.5784 4.5 18.75 4.5Z" fill="#F2F2F2"/>
<path fill-rule="evenodd" clip-rule="evenodd" d="M11.4375 19.5V9H12.5625V19.5H11.4375Z" fill="#C1CBD5"/>
<path fill-rule="evenodd" clip-rule="evenodd" d="M19.5 14.8125H4.5V13.6875H19.5V14.8125Z" fill="#C1CBD5"/>
<path fill-rule="evenodd" clip-rule="evenodd" d="M11.4375 9.75V4.5H12.5625V9.75H11.4375Z" fill="#2195E7"/>
<path d="M18.75 5.625C18.8495 5.625 18.9448 5.66451 19.0152 5.73484C19.0855 5.80516 19.125 5.90054 19.125 6V18C19.125 18.0995 19.0855 18.1948 19.0152 18.2652C18.9448 18.3355 18.8495 18.375 18.75 18.375H5.25C5.15054 18.375 5.05516 18.3355 4.98484 18.2652C4.91451 18.1948 4.875 18.0995 4.875 18V6C4.875 5.90054 4.91451 5.80516 4.98484 5.73484C5.05516 5.66451 5.15054 5.625 5.25 5.625H18.75ZM18.75 4.5H5.25C4.85218 4.5 4.47064 4.65804 4.18934 4.93934C3.90804 5.22064 3.75 5.60218 3.75 6V18C3.75 18.3978 3.90804 18.7794 4.18934 19.0607C4.47064 19.342 4.85218 19.5 5.25 19.5H18.75C19.1478 19.5 19.5294 19.342 19.8107 19.0607C20.092 18.7794 20.25 18.3978 20.25 18V6C20.25 5.60218 20.092 5.22064 19.8107 4.93934C19.5294 4.65804 19.1478 4.5 18.75 4.5Z" fill="#2195E7"/>
<path fill-rule="evenodd" clip-rule="evenodd" d="M4.5 9.1875H19.5V10.3125H4.5V9.1875Z" fill="#2195E7"/>
</svg>
