<svg width="24" height="24" viewBox="0 0 24 24" fill="none" xmlns="http://www.w3.org/2000/svg">
<path d="M14.5492 3.22522H9.44922C8.62079 3.22522 7.94922 3.89679 7.94922 4.72522V19.2752C7.94922 20.1036 8.62079 20.7752 9.44922 20.7752H14.5492C15.3776 20.7752 16.0492 20.1036 16.0492 19.2752V4.72522C16.0492 3.89679 15.3776 3.22522 14.5492 3.22522Z" fill="#E1FFF9"/>
<path fill-rule="evenodd" clip-rule="evenodd" d="M15.375 12.5625H8.625V11.4375H15.375V12.5625Z" fill="#AECEC8"/>
<path fill-rule="evenodd" clip-rule="evenodd" d="M15.375 16.6123H8.625V15.4873H15.375V16.6123Z" fill="#AECEC8"/>
<path d="M8.99922 8.74499H14.8492V19.5C14.8492 19.5597 14.8255 19.6169 14.7833 19.6591C14.7411 19.7013 14.6839 19.725 14.6242 19.725H9.29922C9.26423 19.7374 9.22672 19.741 9.19001 19.7354C9.1533 19.7298 9.11855 19.7153 9.08884 19.693C9.05914 19.6707 9.03541 19.6414 9.01977 19.6078C9.00413 19.5741 8.99707 19.5371 8.99922 19.5V8.74499ZM7.94922 7.62V19.5C7.94922 19.858 8.09145 20.2014 8.34462 20.4546C8.5978 20.7078 8.94118 20.85 9.29922 20.85H14.6992C15.0573 20.85 15.4006 20.7078 15.6538 20.4546C15.907 20.2014 16.0492 19.858 16.0492 19.5V7.65H7.94922V7.62Z" fill="#16A085"/>
<path d="M14.6992 4.3499C14.7286 4.33824 14.7602 4.33291 14.7918 4.33428C14.8235 4.33564 14.8544 4.34366 14.8828 4.35782C14.9111 4.37198 14.9361 4.39195 14.9561 4.41643C14.9762 4.44092 14.9909 4.46936 14.9992 4.4999V7.4999H8.99922V4.4999C9.00754 4.46936 9.02222 4.44092 9.04229 4.41643C9.06235 4.39195 9.08736 4.37198 9.11568 4.35782C9.14399 4.34366 9.17498 4.33564 9.2066 4.33428C9.23823 4.33291 9.26979 4.33824 9.29922 4.3499H14.6992ZM14.6992 3.2249H9.29922C8.94118 3.2249 8.5978 3.36713 8.34462 3.62031C8.09145 3.87348 7.94922 4.21686 7.94922 4.5749V8.6249H16.0492V4.4999C16.0492 4.32262 16.0143 4.14707 15.9465 3.98328C15.8786 3.81949 15.7792 3.67067 15.6538 3.54531C15.5285 3.41995 15.3796 3.32051 15.2158 3.25267C15.0521 3.18482 14.8765 3.1499 14.6992 3.1499V3.2249Z" fill="#16A085"/>
</svg>
