<svg width="24" height="24" viewBox="0 0 24 24" fill="none" xmlns="http://www.w3.org/2000/svg">
<path fill-rule="evenodd" clip-rule="evenodd" d="M18.512 5.16549C19.1801 5.6554 19.3245 6.5941 18.8346 7.26215L10.5846 18.5121C10.3258 18.8651 9.92575 19.0874 9.48938 19.1207C9.053 19.1541 8.62381 18.9952 8.31434 18.6858L4.56434 14.9358C3.97855 14.35 3.97855 13.4002 4.56434 12.8144C5.15013 12.2287 6.09987 12.2287 6.68566 12.8144L9.19934 15.3281L16.4154 5.48806C16.9053 4.82001 17.844 4.67559 18.512 5.16549Z" fill="#717F8E"/>
<path fill-rule="evenodd" clip-rule="evenodd" d="M19.1705 9.3295C19.6098 9.76884 19.6098 10.4812 19.1705 10.9205L14.6705 15.4205C14.2312 15.8598 13.5188 15.8598 13.0795 15.4205C12.6402 14.9812 12.6402 14.2688 13.0795 13.8295L17.5795 9.3295C18.0188 8.89017 18.7312 8.89017 19.1705 9.3295Z" fill="#D0021B"/>
<path fill-rule="evenodd" clip-rule="evenodd" d="M13.0795 9.3295C13.5188 8.89017 14.2312 8.89017 14.6705 9.3295L19.1705 13.8295C19.6098 14.2688 19.6098 14.9812 19.1705 15.4205C18.7312 15.8598 18.0188 15.8598 17.5795 15.4205L13.0795 10.9205C12.6402 10.4812 12.6402 9.76884 13.0795 9.3295Z" fill="#D0021B"/>
</svg>
