<svg width="24" height="24" viewBox="0 0 24 24" fill="none" xmlns="http://www.w3.org/2000/svg">
<path d="M7.67879 17.4448C7.55666 17.4429 7.43611 17.4169 7.32402 17.3683C7.21193 17.3198 7.11051 17.2496 7.02554 17.1619C6.94057 17.0741 6.87372 16.9705 6.82881 16.8569C6.7839 16.7433 6.76181 16.622 6.76379 16.4998V4.49982C6.76379 4.25317 6.86178 4.01662 7.03618 3.84221C7.21059 3.66781 7.44714 3.56982 7.69379 3.56982H16.1088C16.3554 3.56982 16.592 3.66781 16.7664 3.84221C16.9408 4.01662 17.0388 4.25317 17.0388 4.49982V12.9748L12.5388 17.4748L7.67879 17.4448Z" fill="#C9EDD2"/>
<path d="M16.0947 4.125C16.1469 4.11836 16.1999 4.12324 16.25 4.1393C16.3001 4.15536 16.3461 4.18222 16.3847 4.21797C16.4233 4.25372 16.4536 4.2975 16.4735 4.34623C16.4934 4.39495 16.5023 4.44744 16.4997 4.5V12.75L12.3297 16.875H7.67969C7.63112 16.875 7.58305 16.8653 7.53837 16.8462C7.49368 16.8272 7.45331 16.7993 7.41968 16.7643C7.38604 16.7293 7.35985 16.6878 7.34266 16.6424C7.32548 16.597 7.31766 16.5485 7.31969 16.5V4.5C7.31969 4.40452 7.35762 4.31295 7.42513 4.24544C7.49264 4.17793 7.58421 4.14 7.67969 4.14H16.0947V4.125ZM16.0947 3.015H7.67969C7.28186 3.015 6.90033 3.17304 6.61903 3.45434C6.33772 3.73564 6.17969 4.11718 6.17969 4.515V16.515C6.17969 16.9128 6.33772 17.2944 6.61903 17.5757C6.90033 17.857 7.28186 18.015 7.67969 18.015H12.7947L17.5797 13.23V4.5C17.5797 4.10218 17.4217 3.72064 17.1403 3.43934C16.859 3.15804 16.4775 3 16.0797 3L16.0947 3.015Z" fill="#1A6016"/>
<path d="M17.2494 12.03L11.9844 12.06V18" stroke="#1A6016" stroke-width="0.75" stroke-linejoin="round"/>
<path d="M12.4349 6.94482H3.41992V9.95982H12.4349V6.94482Z" fill="#C9EDD2"/>
<path fill-rule="evenodd" clip-rule="evenodd" d="M2.85742 6.94482C2.85742 6.63416 3.10926 6.38232 3.41992 6.38232H12.4349C12.7456 6.38232 12.9974 6.63416 12.9974 6.94482V9.95982C12.9974 10.2705 12.7456 10.5223 12.4349 10.5223H3.41992C3.10926 10.5223 2.85742 10.2705 2.85742 9.95982V6.94482ZM3.98242 7.50732V9.39732H11.8724V7.50732H3.98242Z" fill="#1A6016"/>
<path d="M10.6788 20.4448C10.5567 20.4429 10.4361 20.4169 10.324 20.3683C10.2119 20.3198 10.1105 20.2496 10.0255 20.1619C9.94057 20.0741 9.87372 19.9705 9.82881 19.8569C9.7839 19.7433 9.76181 19.622 9.76379 19.4998V7.49982C9.76379 7.25317 9.86178 7.01662 10.0362 6.84222C10.2106 6.66781 10.4471 6.56982 10.6938 6.56982H19.1088C19.3554 6.56982 19.592 6.66781 19.7664 6.84222C19.9408 7.01662 20.0388 7.25317 20.0388 7.49982V15.9898L15.5388 20.4898L10.6788 20.4448Z" fill="#C9EDD2"/>
<path d="M19.0947 7.125C19.1469 7.11836 19.1999 7.12324 19.25 7.1393C19.3001 7.15536 19.3461 7.18221 19.3847 7.21797C19.4233 7.25372 19.4536 7.2975 19.4735 7.34623C19.4934 7.39495 19.5023 7.44744 19.4997 7.5V15.75L15.3747 19.875H10.6797C10.6311 19.875 10.5831 19.8653 10.5384 19.8462C10.4937 19.8272 10.4533 19.7993 10.4197 19.7643C10.386 19.7293 10.3598 19.6878 10.3427 19.6424C10.3255 19.597 10.3177 19.5485 10.3197 19.5V7.5C10.3197 7.40452 10.3576 7.31295 10.4251 7.24544C10.4926 7.17793 10.5842 7.14 10.6797 7.14H19.0947V7.125ZM19.0947 6.015H10.6797C10.2819 6.015 9.90033 6.17304 9.61903 6.45434C9.33772 6.73564 9.17969 7.11718 9.17969 7.515V19.515C9.17969 19.9128 9.33772 20.2944 9.61903 20.5757C9.90033 20.857 10.2819 21.015 10.6797 21.015H15.7947L20.5797 16.23V7.5C20.5797 7.10218 20.4217 6.72064 20.1403 6.43934C19.859 6.15804 19.4775 6 19.0797 6L19.0947 6.015Z" fill="#1A6016"/>
<path fill-rule="evenodd" clip-rule="evenodd" d="M14.9801 14.31L20.2451 14.28L20.2536 15.78L15.7344 15.8058V21H14.2344V15.06C14.2344 14.6475 14.5676 14.3124 14.9801 14.31Z" fill="#1A6016"/>
<path d="M15.4349 9.94482H6.41992V12.9598H15.4349V9.94482Z" fill="#C9EDD2"/>
<path fill-rule="evenodd" clip-rule="evenodd" d="M5.85742 9.94482C5.85742 9.63416 6.10926 9.38232 6.41992 9.38232H15.4349C15.7456 9.38232 15.9974 9.63416 15.9974 9.94482V12.9598C15.9974 13.2705 15.7456 13.5223 15.4349 13.5223H6.41992C6.10926 13.5223 5.85742 13.2705 5.85742 12.9598V9.94482ZM6.98242 10.5073V12.3973H14.8724V10.5073H6.98242Z" fill="#1A6016"/>
</svg>
