<svg width="24" height="24" viewBox="0 0 24 24" fill="none" xmlns="http://www.w3.org/2000/svg">
<path d="M9.75 6.75H3.75V3.75H8.445L9.75 4.68V6.75Z" fill="#F5F47E"/>
<path fill-rule="evenodd" clip-rule="evenodd" d="M3.1875 3.75C3.1875 3.43934 3.43934 3.1875 3.75 3.1875H8.445C8.56203 3.1875 8.67614 3.224 8.77145 3.29192L10.0764 4.22192C10.2246 4.32747 10.3125 4.49812 10.3125 4.68V6.75C10.3125 7.06066 10.0607 7.3125 9.75 7.3125H3.75C3.43934 7.3125 3.1875 7.06066 3.1875 6.75V3.75ZM4.3125 4.3125V6.1875H9.1875V4.96986L8.26508 4.3125H4.3125Z" fill="#CAA524"/>
<path d="M17.25 6.75H3.75V14.25H17.25V6.75Z" fill="#F5F47E"/>
<path fill-rule="evenodd" clip-rule="evenodd" d="M3.1875 6.75C3.1875 6.43934 3.43934 6.1875 3.75 6.1875H17.25C17.5607 6.1875 17.8125 6.43934 17.8125 6.75V14.25C17.8125 14.5607 17.5607 14.8125 17.25 14.8125H3.75C3.43934 14.8125 3.1875 14.5607 3.1875 14.25V6.75ZM4.3125 7.3125V13.6875H16.6875V7.3125H4.3125Z" fill="#CAA524"/>
<path d="M20.25 12.75H6.75V20.25H20.25V12.75Z" fill="#F5F47E"/>
<path fill-rule="evenodd" clip-rule="evenodd" d="M6.1875 12.75C6.1875 12.4393 6.43934 12.1875 6.75 12.1875H20.25C20.5607 12.1875 20.8125 12.4393 20.8125 12.75V20.25C20.8125 20.5607 20.5607 20.8125 20.25 20.8125H6.75C6.43934 20.8125 6.1875 20.5607 6.1875 20.25V12.75ZM7.3125 13.3125V19.6875H19.6875V13.3125H7.3125Z" fill="#CAA524"/>
<path d="M12.75 12.75H6.75V9.75H11.445L12.75 10.68V12.75Z" fill="#F5F47E"/>
<path fill-rule="evenodd" clip-rule="evenodd" d="M6.1875 9.75C6.1875 9.43934 6.43934 9.1875 6.75 9.1875H11.445C11.562 9.1875 11.6761 9.224 11.7714 9.29192L13.0764 10.2219C13.2246 10.3275 13.3125 10.4981 13.3125 10.68V12.75C13.3125 13.0607 13.0607 13.3125 12.75 13.3125H6.75C6.43934 13.3125 6.1875 13.0607 6.1875 12.75V9.75ZM7.3125 10.3125V12.1875H12.1875V10.9699L11.2651 10.3125H7.3125Z" fill="#CAA524"/>
</svg>
