<svg width="24" height="24" viewBox="0 0 24 24" fill="none" xmlns="http://www.w3.org/2000/svg">
<path d="M8.26563 11.3401H4.51562C3.6872 11.3401 3.01562 12.0117 3.01562 12.8401V17.0251C3.01562 17.8535 3.6872 18.5251 4.51562 18.5251H8.26563C9.09405 18.5251 9.76562 17.8535 9.76562 17.0251V12.8401C9.76562 12.0117 9.09405 11.3401 8.26563 11.3401Z" fill="#5997AB"/>
<path fill-rule="evenodd" clip-rule="evenodd" d="M7.7826 13.5713C8.00009 13.7931 7.99656 14.1493 7.77473 14.3668L5.47973 16.6168C5.25789 16.8342 4.90176 16.8307 4.68427 16.6089C4.46679 16.387 4.47031 16.0309 4.69215 15.8134L6.98715 13.5634C7.20898 13.3459 7.56512 13.3495 7.7826 13.5713Z" fill="#C8FAFF"/>
<path fill-rule="evenodd" clip-rule="evenodd" d="M7.38086 13.4026C7.69152 13.4026 7.94336 13.6544 7.94336 13.9651V16.1701C7.94336 16.4807 7.69152 16.7326 7.38086 16.7326C7.0702 16.7326 6.81836 16.4807 6.81836 16.1701V13.9651C6.81836 13.6544 7.0702 13.4026 7.38086 13.4026Z" fill="#C8FAFF"/>
<path fill-rule="evenodd" clip-rule="evenodd" d="M4.56856 13.89C4.57684 13.5795 4.83531 13.3345 5.14586 13.3427L7.39586 13.4027C7.70641 13.411 7.95145 13.6695 7.94317 13.98C7.93488 14.2906 7.67642 14.5356 7.36587 14.5273L5.11587 14.4673C4.80532 14.4591 4.56028 14.2006 4.56856 13.89Z" fill="#C8FAFF"/>
<path d="M17.0262 3.55518H9.60125C9.07934 3.55518 8.65625 3.97827 8.65625 4.50018V11.0252C8.65625 11.5471 9.07934 11.9702 9.60125 11.9702H17.0262C17.5482 11.9702 17.9712 11.5471 17.9712 11.0252V4.50018C17.9712 3.97827 17.5482 3.55518 17.0262 3.55518Z" fill="#C8FAFF"/>
<path d="M17.0254 4.125C17.1248 4.125 17.2202 4.16451 17.2906 4.23483C17.3609 4.30516 17.4004 4.40054 17.4004 4.5V11.04C17.4004 11.1395 17.3609 11.2348 17.2906 11.3052C17.2202 11.3755 17.1248 11.415 17.0254 11.415H9.52539C9.42593 11.415 9.33055 11.3755 9.26023 11.3052C9.1899 11.2348 9.15039 11.1395 9.15039 11.04V4.5C9.15039 4.40054 9.1899 4.30516 9.26023 4.23483C9.33055 4.16451 9.42593 4.125 9.52539 4.125H17.0254ZM17.0254 3H9.52539C9.12757 3 8.74604 3.15804 8.46473 3.43934C8.18343 3.72064 8.02539 4.10218 8.02539 4.5V11.04C8.02539 11.4378 8.18343 11.8194 8.46473 12.1007C8.74604 12.382 9.12757 12.54 9.52539 12.54H17.0254C17.4232 12.54 17.8047 12.382 18.086 12.1007C18.3674 11.8194 18.5254 11.4378 18.5254 11.04V4.5C18.5254 4.10218 18.3674 3.72064 18.086 3.43934C17.8047 3.15804 17.4232 3 17.0254 3Z" fill="#5997AB"/>
<path d="M10.7246 13.8147H6.97461C6.14618 13.8147 5.47461 14.4863 5.47461 15.3147V19.4997C5.47461 20.3281 6.14618 20.9997 6.97461 20.9997H10.7246C11.553 20.9997 12.2246 20.3281 12.2246 19.4997V15.3147C12.2246 14.4863 11.553 13.8147 10.7246 13.8147Z" fill="#5997AB"/>
<path fill-rule="evenodd" clip-rule="evenodd" d="M10.2279 16.0459C10.4454 16.2677 10.4419 16.6239 10.22 16.8414L7.92504 19.0914C7.70321 19.3088 7.34707 19.3053 7.12958 19.0835C6.9121 18.8617 6.91563 18.5055 7.13746 18.288L9.43246 16.038C9.65429 15.8205 10.0104 15.8241 10.2279 16.0459Z" fill="#C8FAFF"/>
<path fill-rule="evenodd" clip-rule="evenodd" d="M9.82617 15.8772C10.1368 15.8772 10.3887 16.129 10.3887 16.4397V18.6447C10.3887 18.9554 10.1368 19.2072 9.82617 19.2072C9.51551 19.2072 9.26367 18.9554 9.26367 18.6447V16.4397C9.26367 16.129 9.51551 15.8772 9.82617 15.8772Z" fill="#C8FAFF"/>
<path fill-rule="evenodd" clip-rule="evenodd" d="M7.01399 16.3465C7.02434 16.036 7.28443 15.7927 7.59492 15.8031L9.84492 15.8781C10.1554 15.8884 10.3987 16.1485 10.3884 16.459C10.378 16.7695 10.1179 17.0128 9.80744 17.0024L7.55744 16.9274C7.24695 16.9171 7.00364 16.657 7.01399 16.3465Z" fill="#C8FAFF"/>
<path d="M19.4696 6.03003H12.0446C11.5227 6.03003 11.0996 6.45312 11.0996 6.97503V13.5C11.0996 14.0219 11.5227 14.445 12.0446 14.445H19.4696C19.9915 14.445 20.4146 14.0219 20.4146 13.5V6.97503C20.4146 6.45312 19.9915 6.03003 19.4696 6.03003Z" fill="#C8FAFF"/>
<path d="M19.5 6.58472C19.5995 6.58472 19.6948 6.62423 19.7652 6.69455C19.8355 6.76488 19.875 6.86026 19.875 6.95972V13.4997C19.875 13.5992 19.8355 13.6946 19.7652 13.7649C19.6948 13.8352 19.5995 13.8747 19.5 13.8747H12C11.9085 13.8637 11.8243 13.8193 11.7635 13.7502C11.7026 13.681 11.6693 13.5918 11.67 13.4997V6.95972C11.6693 6.86759 11.7026 6.77844 11.7635 6.70927C11.8243 6.64011 11.9085 6.59577 12 6.58472H19.5ZM19.5 5.45972H12C11.6022 5.45972 11.2206 5.61775 10.9393 5.89906C10.658 6.18036 10.5 6.56189 10.5 6.95972V13.4997C10.5 13.8975 10.658 14.2791 10.9393 14.5604C11.2206 14.8417 11.6022 14.9997 12 14.9997H19.5C19.8978 14.9997 20.2794 14.8417 20.5607 14.5604C20.842 14.2791 21 13.8975 21 13.4997V6.95972C21 6.56189 20.842 6.18036 20.5607 5.89906C20.2794 5.61775 19.8978 5.45972 19.5 5.45972Z" fill="#5997AB"/>
<path fill-rule="evenodd" clip-rule="evenodd" d="M15.2031 13.8752V9.93018H16.3281V13.8752H15.2031Z" fill="#9EC3CC"/>
<path fill-rule="evenodd" clip-rule="evenodd" d="M15.2031 8.95472V6.58472H16.3281V8.95472H15.2031Z" fill="#5997AB"/>
<path fill-rule="evenodd" clip-rule="evenodd" d="M11.0996 8.90259H20.4296V10.0276H11.0996V8.90259Z" fill="#5997AB"/>
</svg>
