<svg width="24" height="24" viewBox="0 0 24 24" fill="none" xmlns="http://www.w3.org/2000/svg">
<path d="M2.93164 8.82593V7.68921C3.45898 7.66577 3.82812 7.63062 4.03906 7.58374C4.375 7.50952 4.64844 7.36108 4.85938 7.13843C5.00391 6.98608 5.11328 6.78296 5.1875 6.52905C5.23047 6.37671 5.25195 6.26343 5.25195 6.18921H6.64062V14.6853H4.92969V8.82593H2.93164Z" fill="#7749BD"/>
<path d="M16.7617 12.0779C16.7617 12.4177 16.8164 12.699 16.9258 12.9216C17.1289 13.3318 17.498 13.5369 18.0332 13.5369C18.3613 13.5369 18.6465 13.4255 18.8887 13.2029C19.1348 12.9763 19.2578 12.6521 19.2578 12.2302C19.2578 11.6716 19.0312 11.2986 18.5781 11.1111C18.3203 11.0056 17.9141 10.9529 17.3594 10.9529V9.75757C17.9023 9.74976 18.2812 9.69702 18.4961 9.59937C18.8672 9.4353 19.0527 9.10327 19.0527 8.60327C19.0527 8.27905 18.957 8.01538 18.7656 7.81226C18.5781 7.60913 18.3125 7.50757 17.9688 7.50757C17.5742 7.50757 17.2832 7.63257 17.0957 7.88257C16.9121 8.13257 16.8242 8.46655 16.832 8.88452H15.2734C15.2891 8.46265 15.3613 8.06226 15.4902 7.68335C15.627 7.35132 15.8418 7.04468 16.1348 6.76343C16.3535 6.56421 16.6133 6.41187 16.9141 6.3064C17.2148 6.20093 17.584 6.14819 18.0215 6.14819C18.834 6.14819 19.4883 6.35913 19.9844 6.78101C20.4844 7.19897 20.7344 7.76147 20.7344 8.46851C20.7344 8.96851 20.5859 9.39038 20.2891 9.73413C20.1016 9.94897 19.9062 10.0955 19.7031 10.1736C19.8555 10.1736 20.0742 10.3044 20.3594 10.5662C20.7852 10.9607 20.998 11.4998 20.998 12.1833C20.998 12.9021 20.748 13.5349 20.248 14.0818C19.752 14.6248 19.0156 14.8962 18.0391 14.8962C16.8359 14.8962 16 14.5037 15.5312 13.7185C15.2852 13.3005 15.1484 12.7537 15.1211 12.0779H16.7617Z" fill="#7749BD"/>
<path d="M8.59375 12.9392H10.3691V14.6853H8.59375V12.9392Z" fill="#7749BD"/>
<path d="M11.9336 12.9392H13.709V14.6853H11.9336V12.9392Z" fill="#7749BD"/>
</svg>
