<svg width="24" height="24" viewBox="0 0 24 24" fill="none" xmlns="http://www.w3.org/2000/svg">
<path d="M13.0815 14.9397H5.52148V8.32468L9.30148 4.54468L13.0815 8.32468V14.9397Z" fill="#CBDFF1"/>
<path fill-rule="evenodd" clip-rule="evenodd" d="M5.05664 8.22729C5.3673 8.22729 5.61914 8.47913 5.61914 8.78979V15.4048C5.61914 15.7155 5.3673 15.9673 5.05664 15.9673C4.74598 15.9673 4.49414 15.7155 4.49414 15.4048V8.78979C4.49414 8.47913 4.74598 8.22729 5.05664 8.22729Z" fill="#6F6F6F"/>
<path fill-rule="evenodd" clip-rule="evenodd" d="M4.49414 15.4048C4.49414 15.0941 4.74598 14.8423 5.05664 14.8423H13.5616C13.8723 14.8423 14.1241 15.0941 14.1241 15.4048C14.1241 15.7154 13.8723 15.9673 13.5616 15.9673H5.05664C4.74598 15.9673 4.49414 15.7154 4.49414 15.4048Z" fill="#6F6F6F"/>
<path fill-rule="evenodd" clip-rule="evenodd" d="M13.5605 8.22729C13.8712 8.22729 14.123 8.47913 14.123 8.78979V15.4048C14.123 15.7155 13.8712 15.9673 13.5605 15.9673C13.2499 15.9673 12.998 15.7155 12.998 15.4048V8.78979C12.998 8.47913 13.2499 8.22729 13.5605 8.22729Z" fill="#6F6F6F"/>
<path d="M11.1902 10.2144H7.41016V14.9394H11.1902V10.2144Z" fill="#81602B"/>
<path fill-rule="evenodd" clip-rule="evenodd" d="M9.69861 4.14693C9.91828 4.3666 9.91828 4.72276 9.69861 4.94243L4.02861 10.6124C3.80894 10.8321 3.45278 10.8321 3.23311 10.6124C3.01344 10.3928 3.01344 10.0366 3.23311 9.81693L8.90311 4.14693C9.12278 3.92726 9.47894 3.92726 9.69861 4.14693Z" fill="#C42E2E"/>
<path fill-rule="evenodd" clip-rule="evenodd" d="M8.90303 4.14693C9.1227 3.92726 9.47886 3.92726 9.69853 4.14693L15.3685 9.81693C15.5882 10.0366 15.5882 10.3928 15.3685 10.6124C15.1489 10.8321 14.7927 10.8321 14.573 10.6124L8.90303 4.94243C8.68336 4.72276 8.68336 4.3666 8.90303 4.14693Z" fill="#C42E2E"/>
<path d="M18.4819 18.9895H10.9219V12.3745L14.7019 8.59448L18.4819 12.3745V18.9895Z" fill="#CBDFF1"/>
<path fill-rule="evenodd" clip-rule="evenodd" d="M10.4551 12.2769C10.7657 12.2769 11.0176 12.5287 11.0176 12.8394V19.4544C11.0176 19.765 10.7657 20.0169 10.4551 20.0169C10.1444 20.0169 9.89258 19.765 9.89258 19.4544V12.8394C9.89258 12.5287 10.1444 12.2769 10.4551 12.2769Z" fill="#6F6F6F"/>
<path fill-rule="evenodd" clip-rule="evenodd" d="M9.89258 19.4546C9.89258 19.1439 10.1444 18.8921 10.4551 18.8921H18.9601C19.2707 18.8921 19.5226 19.1439 19.5226 19.4546C19.5226 19.7653 19.2707 20.0171 18.9601 20.0171H10.4551C10.1444 20.0171 9.89258 19.7653 9.89258 19.4546Z" fill="#6F6F6F"/>
<path fill-rule="evenodd" clip-rule="evenodd" d="M18.9609 12.2769C19.2716 12.2769 19.5234 12.5287 19.5234 12.8394V19.4544C19.5234 19.765 19.2716 20.0169 18.9609 20.0169C18.6503 20.0169 18.3984 19.765 18.3984 19.4544V12.8394C18.3984 12.5287 18.6503 12.2769 18.9609 12.2769Z" fill="#6F6F6F"/>
<path d="M16.5905 14.2646H12.8105V18.9896H16.5905V14.2646Z" fill="#81602B"/>
<path fill-rule="evenodd" clip-rule="evenodd" d="M15.099 8.19673C15.3187 8.4164 15.3187 8.77256 15.099 8.99223L9.429 14.6622C9.20933 14.8819 8.85317 14.8819 8.6335 14.6622C8.41383 14.4426 8.41383 14.0864 8.6335 13.8667L14.3035 8.19673C14.5232 7.97706 14.8793 7.97706 15.099 8.19673Z" fill="#C42E2E"/>
<path fill-rule="evenodd" clip-rule="evenodd" d="M14.3034 8.19673C14.5231 7.97706 14.8792 7.97706 15.0989 8.19673L20.7689 13.8667C20.9886 14.0864 20.9886 14.4426 20.7689 14.6622C20.5492 14.8819 20.1931 14.8819 19.9734 14.6622L14.3034 8.99223C14.0838 8.77256 14.0838 8.4164 14.3034 8.19673Z" fill="#C42E2E"/>
</svg>
