<svg width="24" height="24" viewBox="0 0 24 24" fill="none" xmlns="http://www.w3.org/2000/svg">
<path d="M6.69 18.1952C6.40754 18.1952 6.13666 18.083 5.93693 17.8832C5.7372 17.6835 5.625 17.4126 5.625 17.1302V3.87018C5.625 3.58772 5.7372 3.31683 5.93693 3.11711C6.13666 2.91738 6.40754 2.80518 6.69 2.80518H12L16.89 7.69518V17.1152C16.89 17.395 16.7799 17.6637 16.5834 17.863C16.3869 18.0623 16.1198 18.1762 15.84 18.1802L6.69 18.1952Z" fill="#F2F2F2"/>
<path d="M11.8053 3.375L16.3053 7.875V17.07C16.3053 17.135 16.2925 17.1994 16.2676 17.2594C16.2428 17.3195 16.2063 17.3741 16.1603 17.42C16.1144 17.466 16.0598 17.5024 15.9997 17.5273C15.9397 17.5522 15.8753 17.565 15.8103 17.565H6.69031C6.55903 17.565 6.43312 17.5128 6.34029 17.42C6.24746 17.3272 6.19531 17.2013 6.19531 17.07V3.87C6.19531 3.73872 6.24746 3.61281 6.34029 3.51998C6.43312 3.42715 6.55903 3.375 6.69031 3.375H11.8053ZM12.2703 2.25H6.69031C6.26066 2.25 5.84861 2.42068 5.5448 2.72449C5.24099 3.0283 5.07031 3.44035 5.07031 3.87V17.13C5.07031 17.5597 5.24099 17.9717 5.5448 18.2755C5.84861 18.5793 6.26066 18.75 6.69031 18.75H15.8703C16.3 18.75 16.712 18.5793 17.0158 18.2755C17.3196 17.9717 17.4903 17.5597 17.4903 17.13V7.5L12.2703 2.25Z" fill="#737373"/>
<path fill-rule="evenodd" clip-rule="evenodd" d="M11.9473 8.1675V2.25H10.8223V8.73C10.8223 9.04066 11.0741 9.2925 11.3848 9.2925H16.8748V8.1675H11.9473Z" fill="#737373"/>
<path d="M9.69 21.1952C9.40754 21.1952 9.13666 21.083 8.93693 20.8832C8.73721 20.6835 8.625 20.4126 8.625 20.1302V6.87018C8.625 6.58772 8.73721 6.31683 8.93693 6.11711C9.13666 5.91738 9.40754 5.80518 9.69 5.80518H15L19.89 10.6952V20.1152C19.89 20.395 19.7799 20.6637 19.5834 20.863C19.3869 21.0623 19.1198 21.1762 18.84 21.1802L9.69 21.1952Z" fill="#F2F2F2"/>
<path d="M14.8053 6.375L19.3053 10.875V20.07C19.3053 20.2013 19.2532 20.3272 19.1603 20.42C19.0675 20.5128 18.9416 20.565 18.8103 20.565H9.69031C9.55903 20.565 9.43312 20.5128 9.34029 20.42C9.24746 20.3272 9.19531 20.2013 9.19531 20.07V6.87C9.19531 6.73872 9.24746 6.61281 9.34029 6.51998C9.43312 6.42715 9.55903 6.375 9.69031 6.375H14.8053ZM15.2703 5.25H9.69031C9.26066 5.25 8.84861 5.42068 8.5448 5.72449C8.24099 6.0283 8.07031 6.44035 8.07031 6.87V20.13C8.07031 20.5597 8.24099 20.9717 8.5448 21.2755C8.84861 21.5793 9.26066 21.75 9.69031 21.75H18.8703C19.3 21.75 19.712 21.5793 20.0158 21.2755C20.3196 20.9717 20.4903 20.5597 20.4903 20.13V10.5L15.2703 5.25Z" fill="#737373"/>
<path fill-rule="evenodd" clip-rule="evenodd" d="M14.9473 11.1675V5.25H13.8223V11.73C13.8223 12.0407 14.0741 12.2925 14.3848 12.2925H19.8748V11.1675H14.9473Z" fill="#737373"/>
<path fill-rule="evenodd" clip-rule="evenodd" d="M14.82 16.5003C14.823 16.3834 14.7908 16.2683 14.7277 16.1698C14.6646 16.0713 14.5734 15.994 14.4659 15.9479C14.3584 15.9018 14.2396 15.8889 14.1247 15.911C14.0099 15.9331 13.9043 15.9891 13.8216 16.0719C13.7388 16.1546 13.6828 16.2602 13.6607 16.375C13.6386 16.4899 13.6515 16.6087 13.6976 16.7162C13.7437 16.8237 13.821 16.9149 13.9195 16.978C14.018 17.0411 14.1331 17.0733 14.25 17.0703C14.3988 17.063 14.5396 17.0007 14.645 16.8953C14.7504 16.7899 14.8127 16.6491 14.82 16.5003ZM17.49 15.9153L16.68 15.7653C16.6338 15.5912 16.5631 15.4246 16.47 15.2703L16.95 14.5653C16.9744 14.5358 16.9877 14.4986 16.9877 14.4603C16.9877 14.422 16.9744 14.3849 16.95 14.3553L16.38 13.7853C16.3505 13.7609 16.3133 13.7476 16.275 13.7476C16.2367 13.7476 16.1996 13.7609 16.17 13.7853L15.48 14.2653C15.3298 14.1671 15.1687 14.0865 15 14.0253L14.85 13.2153C14.8376 13.177 14.8137 13.1434 14.7815 13.1192C14.7492 13.0951 14.7103 13.0815 14.67 13.0803H13.815C13.7767 13.0823 13.7401 13.0965 13.7104 13.1208C13.6807 13.1451 13.6596 13.1782 13.65 13.2153L13.5 14.0553C13.3319 14.0983 13.1705 14.1639 13.02 14.2503L12.33 13.7853C12.302 13.7578 12.2643 13.7424 12.225 13.7424C12.1858 13.7424 12.1481 13.7578 12.12 13.7853L11.55 14.3553C11.5256 14.3849 11.5123 14.422 11.5123 14.4603C11.5123 14.4986 11.5256 14.5358 11.55 14.5653L12.015 15.2403C11.935 15.399 11.8697 15.5647 11.82 15.7353L11.01 15.8853C10.9716 15.8924 10.937 15.9129 10.9123 15.9431C10.8876 15.9733 10.8744 16.0113 10.875 16.0503V16.8903C10.8748 16.9276 10.8886 16.9637 10.9135 16.9914C10.9385 17.0192 10.9729 17.0366 11.01 17.0403L11.82 17.2053C11.8613 17.3764 11.9324 17.5389 12.03 17.6853L11.565 18.3603C11.5375 18.3884 11.5221 18.4261 11.5221 18.4653C11.5221 18.5046 11.5375 18.5423 11.565 18.5703L12.135 19.1553C12.1646 19.1797 12.2017 19.193 12.24 19.193C12.2783 19.193 12.3155 19.1797 12.345 19.1553L13.02 18.6903C13.1689 18.7834 13.3306 18.8541 13.5 18.9003L13.65 19.7403C13.6571 19.7787 13.6776 19.8133 13.7078 19.838C13.738 19.8628 13.776 19.876 13.815 19.8753H14.64C14.6809 19.8766 14.721 19.8639 14.7537 19.8394C14.7864 19.8149 14.8098 19.7799 14.82 19.7403L14.97 18.9303L15.465 18.7503L16.14 19.2003C16.1696 19.2247 16.2067 19.238 16.245 19.238C16.2833 19.238 16.3205 19.2247 16.35 19.2003L16.92 18.6153C16.9475 18.5873 16.9629 18.5496 16.9629 18.5103C16.9629 18.4711 16.9475 18.4334 16.92 18.4053L16.5 17.6853C16.5976 17.5389 16.6687 17.3764 16.71 17.2053L17.52 17.0403C17.5571 17.0366 17.5916 17.0192 17.6165 16.9914C17.6415 16.9637 17.6552 16.9276 17.655 16.8903V16.0503C17.6557 16.0113 17.6425 15.9733 17.6177 15.9431C17.593 15.9129 17.5584 15.8924 17.52 15.8853L17.49 15.9153ZM14.25 17.8953C13.9669 17.8983 13.6894 17.8169 13.4527 17.6614C13.2161 17.506 13.0312 17.2836 12.9214 17.0226C12.8117 16.7616 12.7823 16.4739 12.8368 16.1961C12.8913 15.9182 13.0273 15.663 13.2275 15.4628C13.4277 15.2626 13.6829 15.1266 13.9608 15.0721C14.2386 15.0176 14.5263 15.047 14.7873 15.1567C15.0483 15.2665 15.2707 15.4514 15.4261 15.688C15.5816 15.9247 15.663 16.2022 15.66 16.4853C15.6561 16.8581 15.5063 17.2144 15.2427 17.478C14.9791 17.7416 14.6228 17.8914 14.25 17.8953Z" fill="#737373"/>
</svg>
