<svg width="24" height="24" viewBox="0 0 24 24" fill="none" xmlns="http://www.w3.org/2000/svg">
<path d="M12.9746 2.92542H7.72461C6.89618 2.92542 6.22461 3.59699 6.22461 4.42542V16.2754C6.22461 17.1038 6.89618 17.7754 7.72461 17.7754H12.9746C13.803 17.7754 14.4746 17.1038 14.4746 16.2754V4.42542C14.4746 3.59699 13.803 2.92542 12.9746 2.92542Z" fill="#E1FFF9"/>
<path fill-rule="evenodd" clip-rule="evenodd" d="M13.6488 10.9126H7.04883V9.7876H13.6488V10.9126Z" fill="#AECEC8"/>
<path fill-rule="evenodd" clip-rule="evenodd" d="M13.6488 14.2123H7.04883V13.0873H13.6488V14.2123Z" fill="#AECEC8"/>
<path d="M7.34961 7.7699H13.3496V16.0949C13.3496 16.2341 13.2943 16.3677 13.1958 16.4661C13.0974 16.5646 12.9639 16.6199 12.8246 16.6199H7.87461C7.73537 16.6199 7.60184 16.5646 7.50338 16.4661C7.40492 16.3677 7.34961 16.2341 7.34961 16.0949V7.7699ZM6.22461 6.6449V16.1249C6.22461 16.5625 6.39845 16.9822 6.70788 17.2916C7.01732 17.6011 7.437 17.7749 7.87461 17.7749H12.8246C13.2622 17.7749 13.6819 17.6011 13.9913 17.2916C14.3008 16.9822 14.4746 16.5625 14.4746 16.1249V6.6899H6.22461V6.6449Z" fill="#16A085"/>
<path d="M12.8246 4.0501C12.9518 4.04879 13.0751 4.0937 13.1717 4.17646C13.2682 4.25923 13.3315 4.37423 13.3496 4.5001V6.7501H7.34961V4.5001C7.34961 4.36086 7.40492 4.22732 7.50338 4.12887C7.60184 4.03041 7.73537 3.9751 7.87461 3.9751H12.8246V4.0501ZM12.8246 2.8501H7.87461C7.437 2.8501 7.01732 3.02394 6.70788 3.33337C6.39845 3.64281 6.22461 4.06249 6.22461 4.5001V7.8001H14.4746V4.5001C14.4371 4.08899 14.2468 3.70688 13.9414 3.42918C13.6359 3.15149 13.2374 2.99839 12.8246 3.0001V2.8501Z" fill="#16A085"/>
<path d="M16.2754 6.2251H11.0254C10.197 6.2251 9.52539 6.89667 9.52539 7.7251V19.5751C9.52539 20.4035 10.197 21.0751 11.0254 21.0751H16.2754C17.1038 21.0751 17.7754 20.4035 17.7754 19.5751V7.7251C17.7754 6.89667 17.1038 6.2251 16.2754 6.2251Z" fill="#E1FFF9"/>
<path fill-rule="evenodd" clip-rule="evenodd" d="M16.9496 14.2123H10.3496V13.0873H16.9496V14.2123Z" fill="#AECEC8"/>
<path fill-rule="evenodd" clip-rule="evenodd" d="M16.9496 17.5127H10.3496V16.3877H16.9496V17.5127Z" fill="#AECEC8"/>
<path d="M10.6504 11.0702H16.6504V19.5002C16.6504 19.6394 16.5951 19.773 16.4966 19.8714C16.3982 19.9699 16.2646 20.0252 16.1254 20.0252H11.1754C11.1064 20.0252 11.0382 20.0116 10.9745 19.9852C10.9108 19.9588 10.8529 19.9202 10.8042 19.8714C10.7554 19.8227 10.7167 19.7648 10.6904 19.7011C10.664 19.6374 10.6504 19.5691 10.6504 19.5002V11.0702ZM9.52539 9.94519V19.5002C9.56292 19.9113 9.75319 20.2934 10.0586 20.5711C10.3641 20.8488 10.7626 21.0019 11.1754 21.0002H16.1254C16.563 21.0002 16.9827 20.8264 17.2921 20.5169C17.6015 20.2075 17.7754 19.7878 17.7754 19.3502V9.99019H9.52539V9.94519Z" fill="#16A085"/>
<path d="M16.1254 7.3501C16.2646 7.3501 16.3982 7.40541 16.4966 7.50387C16.5951 7.60232 16.6504 7.73586 16.6504 7.8751V10.0501H10.6504V7.8751C10.6504 7.73586 10.7057 7.60232 10.8042 7.50387C10.9026 7.40541 11.0362 7.3501 11.1754 7.3501H16.1254ZM16.1254 6.2251H11.1754C10.7378 6.2251 10.3181 6.39894 10.0087 6.70837C9.69923 7.01781 9.52539 7.43749 9.52539 7.8751V11.1751H17.7754V7.8751C17.7754 7.43749 17.6015 7.01781 17.2921 6.70837C16.9827 6.39894 16.563 6.2251 16.1254 6.2251Z" fill="#16A085"/>
</svg>
