<svg width="24" height="24" viewBox="0 0 24 24" fill="none" xmlns="http://www.w3.org/2000/svg">
<path d="M15.4208 5.1748H5.58078C5.35711 5.1748 5.17578 5.35613 5.17578 5.5798V15.4198C5.17578 15.6435 5.35711 15.8248 5.58078 15.8248H15.4208C15.6445 15.8248 15.8258 15.6435 15.8258 15.4198V5.5798C15.8258 5.35613 15.6445 5.1748 15.4208 5.1748Z" fill="#D6FFEA"/>
<path d="M15.2555 5.74498V15.27H5.74547V5.74498H15.2705H15.2555ZM15.4205 4.61998H5.58047C5.32188 4.61998 5.07389 4.7227 4.89104 4.90555C4.70819 5.0884 4.60547 5.33639 4.60547 5.59498V15.42C4.60547 15.6786 4.70819 15.9266 4.89104 16.1094C5.07389 16.2923 5.32188 16.395 5.58047 16.395H15.4055C15.6641 16.395 15.912 16.2923 16.0949 16.1094C16.2777 15.9266 16.3805 15.6786 16.3805 15.42V5.57998C16.3805 5.32139 16.2777 5.0734 16.0949 4.89055C15.912 4.7077 15.6641 4.60498 15.4055 4.60498L15.4205 4.61998Z" fill="#5ACB9A"/>
<path d="M18.4208 8.1748H8.58078C8.35711 8.1748 8.17578 8.35613 8.17578 8.5798V18.4198C8.17578 18.6435 8.35711 18.8248 8.58078 18.8248H18.4208C18.6445 18.8248 18.8258 18.6435 18.8258 18.4198V8.5798C18.8258 8.35613 18.6445 8.1748 18.4208 8.1748Z" fill="#D6FFEA"/>
<path d="M18.2555 8.74498V18.27H8.74547V8.74498H18.2705H18.2555ZM18.4205 7.61998H8.58047C8.32188 7.61998 8.07389 7.7227 7.89104 7.90555C7.70819 8.0884 7.60547 8.33639 7.60547 8.59498V18.42C7.60547 18.6786 7.70819 18.9266 7.89104 19.1094C8.07389 19.2923 8.32188 19.395 8.58047 19.395H18.4055C18.6641 19.395 18.9121 19.2923 19.0949 19.1094C19.2777 18.9266 19.3805 18.6786 19.3805 18.42V8.57998C19.3805 8.32139 19.2777 8.0734 19.0949 7.89055C18.9121 7.7077 18.6641 7.60498 18.4055 7.60498L18.4205 7.61998Z" fill="#5ACB9A"/>
</svg>
