<svg width="24" height="24" viewBox="0 0 24 24" fill="none" xmlns="http://www.w3.org/2000/svg">
<path d="M18.0606 3.375H4.51562C3.8943 3.375 3.39062 3.87868 3.39062 4.5V18.045C3.39062 18.6663 3.8943 19.17 4.51562 19.17H18.0606C18.6819 19.17 19.1856 18.6663 19.1856 18.045V4.5C19.1856 3.87868 18.6819 3.375 18.0606 3.375Z" fill="#E6E6FF"/>
<path d="M18 3.75C18.1989 3.75 18.3897 3.82902 18.5303 3.96967C18.671 4.11032 18.75 4.30109 18.75 4.5V18C18.75 18.1989 18.671 18.3897 18.5303 18.5303C18.3897 18.671 18.1989 18.75 18 18.75H4.5C4.30109 18.75 4.11032 18.671 3.96967 18.5303C3.82902 18.3897 3.75 18.1989 3.75 18V4.5C3.75 4.30109 3.82902 4.11032 3.96967 3.96967C4.11032 3.82902 4.30109 3.75 4.5 3.75H18ZM18 3H4.5C4.10218 3 3.72064 3.15804 3.43934 3.43934C3.15804 3.72064 3 4.10218 3 4.5V18C3 18.3978 3.15804 18.7794 3.43934 19.0607C3.72064 19.342 4.10218 19.5 4.5 19.5H18C18.3978 19.5 18.7794 19.342 19.0607 19.0607C19.342 18.7794 19.5 18.3978 19.5 18V4.5C19.5 4.10218 19.342 3.72064 19.0607 3.43934C18.7794 3.15804 18.3978 3 18 3Z" fill="#594FBA"/>
<path d="M19.4845 4.81482H5.93945C5.31813 4.81482 4.81445 5.3185 4.81445 5.93982V19.4848C4.81445 20.1061 5.31813 20.6098 5.93945 20.6098H19.4845C20.1058 20.6098 20.6095 20.1061 20.6095 19.4848V5.93982C20.6095 5.3185 20.1058 4.81482 19.4845 4.81482Z" fill="#E6E6FF"/>
<path d="M19.5 5.19C19.6989 5.19 19.8897 5.26902 20.0303 5.40967C20.171 5.55032 20.25 5.74109 20.25 5.94V19.44C20.25 19.6389 20.171 19.8297 20.0303 19.9703C19.8897 20.111 19.6989 20.19 19.5 20.19H6C5.80109 20.19 5.61032 20.111 5.46967 19.9703C5.32902 19.8297 5.25 19.6389 5.25 19.44V6C5.25 5.80109 5.32902 5.61032 5.46967 5.46967C5.61032 5.32902 5.80109 5.25 6 5.25H19.5V5.19ZM19.5 4.5H6C5.60218 4.5 5.22064 4.65804 4.93934 4.93934C4.65804 5.22064 4.5 5.60218 4.5 6V19.5C4.5 19.8978 4.65804 20.2794 4.93934 20.5607C5.22064 20.842 5.60218 21 6 21H19.5C19.8978 21 20.2794 20.842 20.5607 20.5607C20.842 20.2794 21 19.8978 21 19.5V6C21 5.60218 20.842 5.22064 20.5607 4.93934C20.2794 4.65804 19.8978 4.5 19.5 4.5Z" fill="#594FBA"/>
<path d="M17.5199 7.005H14.8649C14.343 7.005 13.9199 7.4281 13.9199 7.95001V10.605C13.9199 11.1269 14.343 11.55 14.8649 11.55H17.5199C18.0418 11.55 18.4649 11.1269 18.4649 10.605V7.95001C18.4649 7.4281 18.0418 7.005 17.5199 7.005Z" fill="#E6E6FF"/>
<path d="M17.5352 7.5C17.6347 7.5 17.7301 7.53951 17.8004 7.60983C17.8707 7.68016 17.9102 7.77554 17.9102 7.875V10.605C17.9102 10.7045 17.8707 10.7998 17.8004 10.8702C17.7301 10.9405 17.6347 10.98 17.5352 10.98H14.8652C14.7658 10.98 14.6704 10.9405 14.6001 10.8702C14.5297 10.7998 14.4902 10.7045 14.4902 10.605V7.935C14.4815 7.88097 14.4846 7.82569 14.4995 7.77302C14.5144 7.72035 14.5406 7.67157 14.5764 7.63012C14.6121 7.58866 14.6565 7.55553 14.7064 7.53305C14.7563 7.51058 14.8105 7.49929 14.8652 7.5H17.5352ZM17.5352 6.375H14.8652C14.4674 6.375 14.0859 6.53304 13.8046 6.81434C13.5233 7.09564 13.3652 7.47718 13.3652 7.875V10.605C13.3652 11.0028 13.5233 11.3844 13.8046 11.6657C14.0859 11.947 14.4674 12.105 14.8652 12.105H17.5352C17.9331 12.105 18.3146 11.947 18.5959 11.6657C18.8772 11.3844 19.0352 11.0028 19.0352 10.605V7.935C19.0352 7.53718 18.8772 7.15564 18.5959 6.87434C18.3146 6.59304 17.9331 6.435 17.5352 6.435V6.375Z" fill="#594FBA"/>
<path d="M10.559 13.8899H7.90398C7.38208 13.8899 6.95898 14.313 6.95898 14.8349V17.4899C6.95898 18.0118 7.38208 18.4349 7.90398 18.4349H10.559C11.0809 18.4349 11.504 18.0118 11.504 17.4899V14.8349C11.504 14.313 11.0809 13.8899 10.559 13.8899Z" fill="#E6E6FF"/>
<path d="M10.5006 14.4596C10.6001 14.4596 10.6955 14.4991 10.7658 14.5694C10.8361 14.6398 10.8756 14.7351 10.8756 14.8346V17.5046C10.8756 17.6041 10.8361 17.6994 10.7658 17.7698C10.6955 17.8401 10.6001 17.8796 10.5006 17.8796H7.89063C7.84013 17.8816 7.78975 17.8734 7.74251 17.8555C7.69527 17.8375 7.65214 17.8102 7.61571 17.7752C7.57928 17.7402 7.55031 17.6982 7.53053 17.6517C7.51076 17.6052 7.50058 17.5551 7.50062 17.5046V14.8346C7.50062 14.7351 7.54013 14.6398 7.61046 14.5694C7.68079 14.4991 7.77617 14.4596 7.87563 14.4596H10.5006ZM10.5006 13.3346H7.89063C7.4928 13.3346 7.11127 13.4926 6.82996 13.7739C6.54866 14.0552 6.39062 14.4368 6.39062 14.8346V17.5046C6.39062 17.9024 6.54866 18.284 6.82996 18.5653C7.11127 18.8466 7.4928 19.0046 7.89063 19.0046H10.5006C10.8985 19.0046 11.28 18.8466 11.5613 18.5653C11.8426 18.284 12.0006 17.9024 12.0006 17.5046V14.8346C12.0006 14.4368 11.8426 14.0552 11.5613 13.7739C11.28 13.4926 10.8985 13.3346 10.5006 13.3346Z" fill="#594FBA"/>
<path d="M9.20945 12.5401L8.18945 11.4901L10.2745 11.5201L9.20945 12.5401Z" fill="#2980B9"/>
<path fill-rule="evenodd" clip-rule="evenodd" d="M7.67295 11.2674C7.76303 11.0585 7.97008 10.9244 8.19756 10.9277L10.2826 10.9577C10.5108 10.961 10.7144 11.1018 10.7979 11.3142C10.8815 11.5266 10.8284 11.7685 10.6635 11.9264L9.59854 12.9464C9.3753 13.1602 9.02138 13.1538 8.806 12.9321L7.786 11.8821C7.62748 11.7189 7.58286 11.4763 7.67295 11.2674Z" fill="#594FBA"/>
<path fill-rule="evenodd" clip-rule="evenodd" d="M10.2091 9.81734C9.81937 10.1614 9.56271 10.8338 9.85575 11.8432C9.94237 12.1416 9.77073 12.4536 9.47239 12.5402C9.17404 12.6269 8.86198 12.4552 8.77536 12.1569C8.39341 10.8413 8.66924 9.67616 9.46451 8.97401C10.2538 8.27717 11.4158 8.16124 12.5395 8.64907C12.8245 8.77278 12.9552 9.10407 12.8315 9.38904C12.7078 9.67401 12.3765 9.80474 12.0916 9.68103C11.2803 9.32886 10.6049 9.46793 10.2091 9.81734Z" fill="#594FBA"/>
<path d="M16.1255 12.9751L17.1455 14.0401L15.0605 13.9951L16.1255 12.9751Z" fill="#2980B9"/>
<path fill-rule="evenodd" clip-rule="evenodd" d="M15.7365 12.5689C15.9609 12.354 16.3169 12.3617 16.5318 12.586L17.5518 13.651C17.7092 13.8153 17.7521 14.0583 17.6605 14.2665C17.5689 14.4748 17.3609 14.6074 17.1334 14.6025L15.0484 14.5575C14.821 14.5526 14.6189 14.4111 14.5364 14.1991C14.4539 13.9871 14.5072 13.7462 14.6715 13.5889L15.7365 12.5689Z" fill="#594FBA"/>
<path fill-rule="evenodd" clip-rule="evenodd" d="M15.8472 12.9598C16.1456 12.8732 16.4576 13.0449 16.5442 13.3432C16.9262 14.6588 16.6504 15.8239 15.8551 16.5261C15.0658 17.2229 13.9038 17.3388 12.7801 16.851C12.4951 16.7273 12.3644 16.396 12.4881 16.111C12.6118 15.8261 12.9431 15.6953 13.228 15.819C14.0393 16.1712 14.7148 16.0321 15.1105 15.6827C15.5002 15.3386 15.7569 14.6662 15.4639 13.6569C15.3772 13.3585 15.5489 13.0464 15.8472 12.9598Z" fill="#594FBA"/>
</svg>
