<svg width="24" height="24" viewBox="0 0 24 24" fill="none" xmlns="http://www.w3.org/2000/svg">
<path d="M2.44531 14.4445C2.44531 14.4445 2.44531 14.3245 2.44531 14.2645C2.49631 12.5749 3.21475 10.9743 4.44332 9.81318C5.67189 8.65209 7.31048 8.02511 9.00031 8.06953C10.6902 8.02102 12.3304 8.64414 13.5618 9.80245C14.7932 10.9608 15.5154 12.5598 15.5703 14.2495C15.5703 14.2495 15.5703 14.3695 15.5703 14.4445H2.44531Z" fill="#FFEEEE"/>
<path d="M9 8.62496C10.4777 8.58285 11.9167 9.10028 13.0292 10.0737C14.1417 11.0472 14.8456 12.4048 15 13.875H3C3.15441 12.4048 3.85829 11.0472 4.97079 10.0737C6.08329 9.10028 7.52235 8.58285 9 8.62496ZM9 7.49996C7.16043 7.45156 5.37685 8.13523 4.04094 9.40082C2.70504 10.6664 1.92603 12.4105 1.875 14.25C1.88501 14.5012 1.91005 14.7517 1.95 15H16.05C16.0899 14.7517 16.115 14.5012 16.125 14.25C16.074 12.4105 15.295 10.6664 13.9591 9.40082C12.6232 8.13523 10.8396 7.45156 9 7.49996Z" fill="#BD4949"/>
<path d="M8.99969 9.94518C10.7642 9.94518 12.1947 8.51473 12.1947 6.75018C12.1947 4.98563 10.7642 3.55518 8.99969 3.55518C7.23514 3.55518 5.80469 4.98563 5.80469 6.75018C5.80469 8.51473 7.23514 9.94518 8.99969 9.94518Z" fill="#FFEEEE"/>
<path d="M9 4.125C9.51918 4.125 10.0267 4.27895 10.4584 4.56739C10.8901 4.85583 11.2265 5.2658 11.4252 5.74546C11.6239 6.22511 11.6758 6.75291 11.5746 7.26211C11.4733 7.77131 11.2233 8.23904 10.8562 8.60616C10.489 8.97327 10.0213 9.22328 9.51211 9.32456C9.00291 9.42585 8.47511 9.37386 7.99546 9.17518C7.5158 8.9765 7.10583 8.64005 6.81739 8.20837C6.52896 7.77669 6.375 7.26918 6.375 6.75C6.375 6.05381 6.65156 5.38613 7.14385 4.89384C7.63613 4.40156 8.30381 4.125 9 4.125ZM9 3C8.25832 3 7.5333 3.21993 6.91661 3.63199C6.29993 4.04404 5.81928 4.62971 5.53545 5.31494C5.25162 6.00016 5.17736 6.75416 5.32206 7.48159C5.46675 8.20902 5.8239 8.8772 6.34835 9.40165C6.8728 9.9261 7.54098 10.2833 8.26841 10.4279C8.99584 10.5726 9.74984 10.4984 10.4351 10.2145C11.1203 9.93072 11.706 9.45007 12.118 8.83339C12.5301 8.2167 12.75 7.49168 12.75 6.75C12.75 5.75544 12.3549 4.80161 11.6517 4.09835C10.9484 3.39509 9.99456 3 9 3Z" fill="#BD4949"/>
<path d="M8.44531 20.4445C8.44531 20.4445 8.44531 20.3245 8.44531 20.2645C8.49631 18.5749 9.21475 16.9743 10.4433 15.8132C11.6719 14.6521 13.3105 14.0251 15.0003 14.0695C16.6927 14.0211 18.3352 14.6462 19.567 15.8078C20.7988 16.9693 21.5193 18.5722 21.5703 20.2645C21.5703 20.2645 21.5703 20.3845 21.5703 20.4595L8.44531 20.4445Z" fill="#BFE1F1"/>
<path d="M15 14.625C16.4777 14.5829 17.9167 15.1003 19.0292 16.0737C20.1417 17.0472 20.8456 18.4048 21 19.875H9C9.15441 18.4048 9.85829 17.0472 10.9708 16.0737C12.0833 15.1003 13.5223 14.5829 15 14.625ZM15 13.5C13.1604 13.4516 11.3768 14.1352 10.0409 15.4008C8.70504 16.6664 7.92603 18.4105 7.875 20.25C7.88501 20.5012 7.91005 20.7517 7.95 21H22.05C22.0899 20.7517 22.115 20.5012 22.125 20.25C22.074 18.4105 21.295 16.6664 19.9591 15.4008C18.6232 14.1352 16.8396 13.4516 15 13.5Z" fill="#2C66BD"/>
<path d="M14.9997 15.9452C16.7642 15.9452 18.1947 14.5147 18.1947 12.7502C18.1947 10.9856 16.7642 9.55518 14.9997 9.55518C13.2351 9.55518 11.8047 10.9856 11.8047 12.7502C11.8047 14.5147 13.2351 15.9452 14.9997 15.9452Z" fill="#BFE1F1"/>
<path d="M15 10.125C15.5192 10.125 16.0267 10.279 16.4584 10.5674C16.8901 10.8558 17.2265 11.2658 17.4252 11.7455C17.6239 12.2251 17.6758 12.7529 17.5746 13.2621C17.4733 13.7713 17.2233 14.239 16.8562 14.6062C16.489 14.9733 16.0213 15.2233 15.5121 15.3246C15.0029 15.4258 14.4751 15.3739 13.9955 15.1752C13.5158 14.9765 13.1058 14.6401 12.8174 14.2084C12.529 13.7767 12.375 13.2692 12.375 12.75C12.375 12.0538 12.6516 11.3861 13.1438 10.8938C13.6361 10.4016 14.3038 10.125 15 10.125ZM15 9C14.2583 9 13.5333 9.21993 12.9166 9.63199C12.2999 10.044 11.8193 10.6297 11.5355 11.3149C11.2516 12.0002 11.1774 12.7542 11.3221 13.4816C11.4668 14.209 11.8239 14.8772 12.3484 15.4017C12.8728 15.9261 13.541 16.2833 14.2684 16.4279C14.9958 16.5726 15.7498 16.4984 16.4351 16.2146C17.1203 15.9307 17.706 15.4501 18.118 14.8334C18.5301 14.2167 18.75 13.4917 18.75 12.75C18.75 11.7554 18.3549 10.8016 17.6517 10.0983C16.9484 9.39509 15.9946 9 15 9Z" fill="#2C66BD"/>
</svg>
