<svg width="24" height="24" viewBox="0 0 24 24" fill="none" xmlns="http://www.w3.org/2000/svg">
<path d="M9.29898 3.73511H4.33398V20.2501H9.29898V3.73511Z" fill="#DEF4FD"/>
<path fill-rule="evenodd" clip-rule="evenodd" d="M3.77148 3.73511C3.77148 3.42445 4.02332 3.17261 4.33398 3.17261H9.29899C9.60964 3.17261 9.86148 3.42445 9.86148 3.73511V20.2501C9.86148 20.5608 9.60964 20.8126 9.29899 20.8126H4.33398C4.02332 20.8126 3.77148 20.5608 3.77148 20.2501V3.73511ZM4.89648 4.29761V19.6876H8.73648V4.29761H4.89648Z" fill="#34495E"/>
<path fill-rule="evenodd" clip-rule="evenodd" d="M3.97461 16.7551C3.97461 16.548 4.1425 16.3801 4.34961 16.3801H9.29961C9.50672 16.3801 9.67461 16.548 9.67461 16.7551C9.67461 16.9622 9.50672 17.1301 9.29961 17.1301H4.34961C4.1425 17.1301 3.97461 16.9622 3.97461 16.7551Z" fill="#34495E"/>
<path fill-rule="evenodd" clip-rule="evenodd" d="M3.97461 6.85522C3.97461 6.64812 4.1425 6.48022 4.34961 6.48022H9.29961C9.50672 6.48022 9.67461 6.64812 9.67461 6.85522C9.67461 7.06233 9.50672 7.23022 9.29961 7.23022H4.34961C4.1425 7.23022 3.97461 7.06233 3.97461 6.85522Z" fill="#34495E"/>
<path d="M15.0043 20.2597L19.6699 18.5615L15.1501 6.14349L10.4846 7.84162L15.0043 20.2597Z" fill="#DEF4FD"/>
<path fill-rule="evenodd" clip-rule="evenodd" d="M20.2002 18.3689C20.3064 18.6608 20.1559 18.9836 19.864 19.0898L15.1984 20.788C14.9065 20.8942 14.5837 20.7437 14.4775 20.4518L9.95767 8.03375C9.85141 7.74182 10.0019 7.41904 10.2939 7.31278L14.9594 5.61465C15.2514 5.5084 15.5741 5.65892 15.6804 5.95084L20.2002 18.3689ZM18.9507 18.2251L14.8156 6.86419L11.2072 8.17755L15.3422 19.5384L18.9507 18.2251Z" fill="#2980B9"/>
<path fill-rule="evenodd" clip-rule="evenodd" d="M16.686 9.30698C16.7569 9.50156 16.6567 9.7168 16.4621 9.78773L11.8121 11.4827C11.6175 11.5537 11.4023 11.4534 11.3314 11.2588C11.2604 11.0642 11.3607 10.849 11.5553 10.7781L16.2053 9.08308C16.3999 9.01215 16.6151 9.11239 16.686 9.30698Z" fill="#2980B9"/>
<path fill-rule="evenodd" clip-rule="evenodd" d="M18.9512 15.5171C19.0219 15.7117 18.9214 15.9269 18.7268 15.9976L14.0618 17.6926C13.8671 17.7633 13.652 17.6628 13.5812 17.4682C13.5105 17.2735 13.611 17.0584 13.8056 16.9877L18.4706 15.2927C18.6653 15.2219 18.8804 15.3224 18.9512 15.5171Z" fill="#2980B9"/>
</svg>
