<svg width="24" height="24" viewBox="0 0 24 24" fill="none" xmlns="http://www.w3.org/2000/svg">
<path d="M17.1154 3.8999H3.90039V17.1149H17.1154V3.8999Z" fill="#E3FF8D"/>
<path fill-rule="evenodd" clip-rule="evenodd" d="M3.33789 3.8999C3.33789 3.58924 3.58973 3.3374 3.90039 3.3374H17.1154C17.4261 3.3374 17.6779 3.58924 17.6779 3.8999V17.1149C17.6779 17.4256 17.4261 17.6774 17.1154 17.6774H3.90039C3.58973 17.6774 3.33789 17.4256 3.33789 17.1149V3.8999ZM4.46289 4.4624V16.5524H16.5529V4.4624H4.46289Z" fill="#9CC71C"/>
<path d="M20.1154 6.8999H6.90039V20.1149H20.1154V6.8999Z" fill="#E3FF8D"/>
<path fill-rule="evenodd" clip-rule="evenodd" d="M6.33789 6.8999C6.33789 6.58924 6.58973 6.3374 6.90039 6.3374H20.1154C20.4261 6.3374 20.6779 6.58924 20.6779 6.8999V20.1149C20.6779 20.4256 20.4261 20.6774 20.1154 20.6774H6.90039C6.58973 20.6774 6.33789 20.4256 6.33789 20.1149V6.8999ZM7.46289 7.4624V19.5524H19.5529V7.4624H7.46289Z" fill="#9CC71C"/>
<path d="M17.7314 9.2998H9.31641V17.7148H17.7314V9.2998Z" fill="#E3FF8D"/>
<path fill-rule="evenodd" clip-rule="evenodd" d="M8.75391 9.2998C8.75391 8.98914 9.00575 8.7373 9.31641 8.7373H17.7314C18.0421 8.7373 18.2939 8.98914 18.2939 9.2998V17.7148C18.2939 18.0255 18.0421 18.2773 17.7314 18.2773H9.31641C9.00575 18.2773 8.75391 18.0255 8.75391 17.7148V9.2998ZM9.87891 9.8623V17.1523H17.1689V9.8623H9.87891Z" fill="#9CC71C"/>
<path d="M15.3298 11.6997H11.7148V15.3147H15.3298V11.6997Z" fill="#E3FF8D"/>
<path fill-rule="evenodd" clip-rule="evenodd" d="M11.1523 11.6997C11.1523 11.389 11.4042 11.1372 11.7148 11.1372H15.3298C15.6405 11.1372 15.8923 11.389 15.8923 11.6997V15.3147C15.8923 15.6254 15.6405 15.8772 15.3298 15.8772H11.7148C11.4042 15.8772 11.1523 15.6254 11.1523 15.3147V11.6997ZM12.2773 12.2622V14.7522H14.7673V12.2622H12.2773Z" fill="#9CC71C"/>
</svg>
