<svg width="24" height="24" viewBox="0 0 24 24" fill="none" xmlns="http://www.w3.org/2000/svg">
<path d="M15.7948 18.1199L4.96484 18.2249V9.92989L10.4248 4.25989L15.8998 9.71989L15.7948 18.1199Z" fill="#CBDFF1"/>
<path fill-rule="evenodd" clip-rule="evenodd" d="M4.96484 9.15698C5.2755 9.15698 5.52734 9.40882 5.52734 9.71948V18.2245C5.52734 18.5351 5.2755 18.787 4.96484 18.787C4.65418 18.787 4.40234 18.5351 4.40234 18.2245V9.71948C4.40234 9.40882 4.65418 9.15698 4.96484 9.15698Z" fill="#717F8E"/>
<path fill-rule="evenodd" clip-rule="evenodd" d="M4.40234 18.225C4.40234 17.9143 4.65418 17.6625 4.96484 17.6625H15.8998C16.2105 17.6625 16.4623 17.9143 16.4623 18.225C16.4623 18.5356 16.2105 18.7875 15.8998 18.7875H4.96484C4.65418 18.7875 4.40234 18.5356 4.40234 18.225Z" fill="#717F8E"/>
<path fill-rule="evenodd" clip-rule="evenodd" d="M15.9004 9.15698C16.2111 9.15698 16.4629 9.40882 16.4629 9.71948V18.2245C16.4629 18.5351 16.2111 18.787 15.9004 18.787C15.5897 18.787 15.3379 18.5351 15.3379 18.2245V9.71948C15.3379 9.40882 15.5897 9.15698 15.9004 9.15698Z" fill="#717F8E"/>
<path fill-rule="evenodd" clip-rule="evenodd" d="M10.8225 3.86214C11.0422 4.08181 11.0422 4.43797 10.8225 4.65764L3.53251 11.9476C3.31284 12.1673 2.95669 12.1673 2.73702 11.9476C2.51735 11.728 2.51735 11.3718 2.73702 11.1521L10.027 3.86214C10.2467 3.64247 10.6028 3.64247 10.8225 3.86214Z" fill="#C42E2E"/>
<path fill-rule="evenodd" clip-rule="evenodd" d="M10.028 3.86214C10.2477 3.64247 10.6039 3.64247 10.8235 3.86214L18.1135 11.1521C18.3332 11.3718 18.3332 11.728 18.1135 11.9476C17.8939 12.1673 17.5377 12.1673 17.318 11.9476L10.028 4.65764C9.80836 4.43797 9.80836 4.08181 10.028 3.86214Z" fill="#C42E2E"/>
<path d="M18.9446 19.6348L8.09961 19.7398V11.4448L13.5746 5.77478L19.0346 11.2348L18.9446 19.6348Z" fill="#CBDFF1"/>
<path fill-rule="evenodd" clip-rule="evenodd" d="M8.09961 10.6725C8.41027 10.6725 8.66211 10.9243 8.66211 11.235V19.74C8.66211 20.0506 8.41027 20.3025 8.09961 20.3025C7.78895 20.3025 7.53711 20.0506 7.53711 19.74V11.235C7.53711 10.9243 7.78895 10.6725 8.09961 10.6725Z" fill="#6F6F6F"/>
<path fill-rule="evenodd" clip-rule="evenodd" d="M7.53711 19.7399C7.53711 19.4292 7.78895 19.1774 8.09961 19.1774H19.0346C19.3453 19.1774 19.5971 19.4292 19.5971 19.7399C19.5971 20.0505 19.3453 20.3024 19.0346 20.3024H8.09961C7.78895 20.3024 7.53711 20.0505 7.53711 19.7399Z" fill="#6F6F6F"/>
<path fill-rule="evenodd" clip-rule="evenodd" d="M19.0352 10.6725C19.3458 10.6725 19.5977 10.9243 19.5977 11.235V19.74C19.5977 20.0506 19.3458 20.3025 19.0352 20.3025C18.7245 20.3025 18.4727 20.0506 18.4727 19.74V11.235C18.4727 10.9243 18.7245 10.6725 19.0352 10.6725Z" fill="#6F6F6F"/>
<path fill-rule="evenodd" clip-rule="evenodd" d="M13.9729 5.37703C14.1926 5.5967 14.1926 5.95286 13.9729 6.17253L6.6829 13.4625C6.46323 13.6822 6.10708 13.6822 5.88741 13.4625C5.66774 13.2429 5.66774 12.8867 5.88741 12.667L13.1774 5.37703C13.3971 5.15736 13.7532 5.15736 13.9729 5.37703Z" fill="#C42E2E"/>
<path fill-rule="evenodd" clip-rule="evenodd" d="M13.1765 5.37703C13.3961 5.15736 13.7523 5.15736 13.972 5.37703L21.262 12.667C21.4816 12.8867 21.4816 13.2429 21.262 13.4625C21.0423 13.6822 20.6861 13.6822 20.4665 13.4625L13.1765 6.17253C12.9568 5.95286 12.9568 5.5967 13.1765 5.37703Z" fill="#C42E2E"/>
<path d="M13.5755 18.1948C15.6549 18.1948 17.3405 16.5091 17.3405 14.4298C17.3405 12.3504 15.6549 10.6648 13.5755 10.6648C11.4962 10.6648 9.81055 12.3504 9.81055 14.4298C9.81055 16.5091 11.4962 18.1948 13.5755 18.1948Z" fill="#81602B"/>
<path fill-rule="evenodd" clip-rule="evenodd" d="M15.8266 12.5363C16.0771 12.72 16.1312 13.072 15.9475 13.3225L13.4725 16.6975C13.3801 16.8236 13.2394 16.9055 13.0842 16.9236C12.929 16.9417 12.7732 16.8945 12.6542 16.7932L11.1392 15.5032C10.9027 15.3018 10.8742 14.9468 11.0756 14.7102C11.277 14.4737 11.6321 14.4452 11.8686 14.6466L12.923 15.5445L15.0403 12.6573C15.224 12.4067 15.576 12.3526 15.8266 12.5363Z" fill="#DEF4FD"/>
</svg>
