<svg width="24" height="24" viewBox="0 0 24 24" fill="none" xmlns="http://www.w3.org/2000/svg">
<path d="M6.60001 4.05029H13.185C13.36 4.05029 13.5279 4.11983 13.6517 4.2436C13.7755 4.36738 13.845 4.53525 13.845 4.71029V7.23029C13.845 7.40534 13.7755 7.57321 13.6517 7.69699C13.5279 7.82076 13.36 7.8903 13.185 7.8903H6.60001C6.43686 7.87889 6.28414 7.80592 6.17274 7.68618C6.06135 7.56643 5.99961 7.40884 6.00001 7.24529V4.71029C5.99932 4.54517 6.06056 4.38578 6.17164 4.2636C6.28272 4.14141 6.43556 4.0653 6.60001 4.05029Z" fill="#DEF4FD"/>
<path d="M13.1848 4.62012C13.2086 4.62012 13.2315 4.6296 13.2484 4.64648C13.2653 4.66336 13.2748 4.68625 13.2748 4.71012V7.24512C13.2748 7.26899 13.2653 7.29188 13.2484 7.30876C13.2315 7.32564 13.2086 7.33512 13.1848 7.33512H6.59977C6.5759 7.33512 6.553 7.32564 6.53613 7.30876C6.51925 7.29188 6.50977 7.26899 6.50977 7.24512V4.71012C6.50977 4.68625 6.51925 4.66336 6.53613 4.64648C6.553 4.6296 6.5759 4.62012 6.59977 4.62012H13.1848ZM13.1848 3.49512H6.59977C6.27753 3.49512 5.96849 3.62313 5.74063 3.85098C5.51277 4.07884 5.38477 4.38788 5.38477 4.71012V7.24512C5.38477 7.40467 5.41619 7.56267 5.47725 7.71008C5.53831 7.85749 5.62781 7.99143 5.74063 8.10425C5.85345 8.21708 5.98739 8.30657 6.13481 8.36763C6.28222 8.42869 6.44021 8.46012 6.59977 8.46012H13.1848C13.3443 8.46012 13.5023 8.42869 13.6497 8.36763C13.7971 8.30657 13.9311 8.21708 14.0439 8.10425C14.1567 7.99143 14.2462 7.85749 14.3073 7.71008C14.3683 7.56267 14.3998 7.40467 14.3998 7.24512V4.71012C14.3998 4.55056 14.3683 4.39257 14.3073 4.24516C14.2462 4.09775 14.1567 3.96381 14.0439 3.85098C13.9311 3.73816 13.7971 3.64866 13.6497 3.5876C13.5023 3.52654 13.3443 3.49512 13.1848 3.49512Z" fill="#357FD3"/>
<path d="M8.71547 6.00001H15.3005C15.4755 6.00001 15.6434 6.06954 15.7672 6.19331C15.8909 6.31709 15.9605 6.48496 15.9605 6.66001V9.24001C15.9605 9.41505 15.8909 9.58292 15.7672 9.7067C15.6434 9.83047 15.4755 9.90001 15.3005 9.90001H8.70047C8.5294 9.90001 8.36534 9.83205 8.24438 9.71109C8.12342 9.59013 8.05547 9.42607 8.05547 9.25501V6.72001C8.04711 6.62842 8.05798 6.53611 8.08738 6.44897C8.11678 6.36184 8.16407 6.28181 8.22621 6.21402C8.28835 6.14623 8.36397 6.09218 8.44823 6.05532C8.53248 6.01847 8.62351 5.99962 8.71547 6.00001Z" fill="#DEF4FD"/>
<path d="M15.2989 6.62988C15.3228 6.62988 15.3456 6.63936 15.3625 6.65624C15.3794 6.67312 15.3889 6.69601 15.3889 6.71988V9.23988C15.3889 9.26375 15.3794 9.28664 15.3625 9.30352C15.3456 9.3204 15.3228 9.32988 15.2989 9.32988H8.69888C8.67501 9.32988 8.65212 9.3204 8.63524 9.30352C8.61837 9.28664 8.60888 9.26375 8.60888 9.23988V6.71988C8.60888 6.69601 8.61837 6.67312 8.63524 6.65624C8.65212 6.63936 8.67501 6.62988 8.69888 6.62988H15.2989ZM15.2989 5.50488H8.69888C8.37925 5.50883 8.07405 5.63858 7.84943 5.86601C7.62481 6.09344 7.49886 6.40023 7.49888 6.71988V9.23988C7.49287 9.40193 7.51935 9.56354 7.57677 9.71519C7.63419 9.86685 7.72139 10.0055 7.83322 10.1229C7.94505 10.2403 8.07926 10.3342 8.22793 10.3989C8.37661 10.4637 8.53674 10.498 8.69888 10.4999H15.2989C15.461 10.498 15.6212 10.4637 15.7698 10.3989C15.9185 10.3342 16.0527 10.2403 16.1645 10.1229C16.2764 10.0055 16.3636 9.86685 16.421 9.71519C16.4784 9.56354 16.5049 9.40193 16.4989 9.23988V6.71988C16.4989 6.56033 16.4675 6.40233 16.4064 6.25492C16.3453 6.10751 16.2558 5.97357 16.143 5.86075C16.0302 5.74792 15.8963 5.65843 15.7488 5.59737C15.6014 5.53631 15.4434 5.50488 15.2839 5.50488H15.2989Z" fill="#357FD3"/>
<path d="M19.7703 16.8604H17.7303C17.3658 16.8604 17.0703 17.1558 17.0703 17.5204V19.2904C17.0703 19.6549 17.3658 19.9504 17.7303 19.9504H19.7703C20.1348 19.9504 20.4303 19.6549 20.4303 19.2904V17.5204C20.4303 17.1558 20.1348 16.8604 19.7703 16.8604Z" fill="#DEF4FD"/>
<path d="M19.785 17.4148C19.8089 17.4148 19.8318 17.4243 19.8486 17.4412C19.8655 17.458 19.875 17.4809 19.875 17.5048V19.2898C19.875 19.3137 19.8655 19.3366 19.8486 19.3534C19.8318 19.3703 19.8089 19.3798 19.785 19.3798H17.715C17.6911 19.3798 17.6682 19.3703 17.6514 19.3534C17.6345 19.3366 17.625 19.3137 17.625 19.2898V17.5048C17.625 17.4809 17.6345 17.458 17.6514 17.4412C17.6682 17.4243 17.6911 17.4148 17.715 17.4148H19.77H19.785ZM19.77 16.2898H17.715C17.3928 16.2898 17.0837 16.4178 16.8559 16.6457C16.628 16.8735 16.5 17.1826 16.5 17.5048V19.2898C16.5 19.612 16.628 19.9211 16.8559 20.1489C17.0837 20.3768 17.3928 20.5048 17.715 20.5048H19.77C20.0922 20.5048 20.4013 20.3768 20.6291 20.1489C20.857 19.9211 20.985 19.612 20.985 19.2898V17.5048C20.985 17.1826 20.857 16.8735 20.6291 16.6457C20.4013 16.4178 20.0922 16.2898 19.77 16.2898Z" fill="#357FD3"/>
<path d="M6.27031 16.8604H4.23031C3.8658 16.8604 3.57031 17.1558 3.57031 17.5204V19.2904C3.57031 19.6549 3.8658 19.9504 4.23031 19.9504H6.27031C6.63482 19.9504 6.93031 19.6549 6.93031 19.2904V17.5204C6.93031 17.1558 6.63482 16.8604 6.27031 16.8604Z" fill="#DEF4FD"/>
<path d="M6.285 17.4148C6.30887 17.4148 6.33176 17.4243 6.34864 17.4412C6.36552 17.458 6.375 17.4809 6.375 17.5048V19.2898C6.375 19.3137 6.36552 19.3366 6.34864 19.3534C6.33176 19.3703 6.30887 19.3798 6.285 19.3798H4.215C4.19113 19.3798 4.16824 19.3703 4.15136 19.3534C4.13448 19.3366 4.125 19.3137 4.125 19.2898V17.5048C4.125 17.4809 4.13448 17.458 4.15136 17.4412C4.16824 17.4243 4.19113 17.4148 4.215 17.4148H6.285ZM6.285 16.2898H4.215C3.89276 16.2898 3.58372 16.4178 3.35587 16.6457C3.12801 16.8735 3 17.1826 3 17.5048V19.2898C3 19.612 3.12801 19.9211 3.35587 20.1489C3.58372 20.3768 3.89276 20.5048 4.215 20.5048H6.285C6.60724 20.5048 6.91628 20.3768 7.14413 20.1489C7.37199 19.9211 7.5 19.612 7.5 19.2898V17.5048C7.5 17.1826 7.37199 16.8735 7.14413 16.6457C6.91628 16.4178 6.60724 16.2898 6.285 16.2898Z" fill="#357FD3"/>
<path d="M13.0203 16.8604H10.9803C10.6158 16.8604 10.3203 17.1558 10.3203 17.5204V19.2904C10.3203 19.6549 10.6158 19.9504 10.9803 19.9504H13.0203C13.3848 19.9504 13.6803 19.6549 13.6803 19.2904V17.5204C13.6803 17.1558 13.3848 16.8604 13.0203 16.8604Z" fill="#DEF4FD"/>
<path d="M13.0356 17.4148C13.0595 17.4148 13.0824 17.4243 13.0993 17.4412C13.1161 17.458 13.1256 17.4809 13.1256 17.5048V19.2898C13.1256 19.3137 13.1161 19.3366 13.0993 19.3534C13.0824 19.3703 13.0595 19.3798 13.0356 19.3798H10.9806C10.9568 19.3798 10.9339 19.3703 10.917 19.3534C10.9001 19.3366 10.8906 19.3137 10.8906 19.2898V17.5048C10.8906 17.4809 10.9001 17.458 10.917 17.4412C10.9339 17.4243 10.9568 17.4148 10.9806 17.4148H13.0356ZM13.0356 16.2898H10.9806C10.6584 16.2898 10.3493 16.4178 10.1215 16.6457C9.89363 16.8735 9.76563 17.1826 9.76562 17.5048V19.2898C9.76563 19.612 9.89363 19.9211 10.1215 20.1489C10.3493 20.3768 10.6584 20.5048 10.9806 20.5048H13.0356C13.3579 20.5048 13.6669 20.3768 13.8948 20.1489C14.1226 19.9211 14.2506 19.612 14.2506 19.2898V17.5048C14.2506 17.1826 14.1226 16.8735 13.8948 16.6457C13.6669 16.4178 13.3579 16.2898 13.0356 16.2898Z" fill="#357FD3"/>
<path fill-rule="evenodd" clip-rule="evenodd" d="M11.4082 13.8148V10.4548H12.5332V13.8148H11.4082Z" fill="#357FD3"/>
<path fill-rule="evenodd" clip-rule="evenodd" d="M11.4082 16.2899V13.8149H12.5332V16.2899H11.4082Z" fill="#357FD3"/>
<path fill-rule="evenodd" clip-rule="evenodd" d="M4.6875 13.26C4.6875 12.9493 4.93934 12.6975 5.25 12.6975H18.75C19.0607 12.6975 19.3125 12.9493 19.3125 13.26V16.29H18.1875V13.8225H5.8125V16.29H4.6875V13.26Z" fill="#357FD3"/>
</svg>
