<svg width="24" height="24" viewBox="0 0 24 24" fill="none" xmlns="http://www.w3.org/2000/svg">
<path d="M7.49218 3.7898L2.98438 8.29761L7.49218 12.8054L12 8.29761L7.49218 3.7898Z" fill="#EDE3FF"/>
<path d="M7.49945 4.59L11.2045 8.295L7.49945 12L3.77945 8.295L7.49945 4.59ZM7.49945 3L2.18945 8.295L7.49945 13.605L12.7945 8.295L7.49945 3Z" fill="#7749BD"/>
<path d="M7.51073 10.2223L9.41992 8.31311L7.51073 6.40392L5.60155 8.31311L7.51073 10.2223Z" fill="#7749BD"/>
<path d="M16.5078 3.79065L12 8.29846L16.5078 12.8063L21.0156 8.29846L16.5078 3.79065Z" fill="#EDE3FF"/>
<path d="M16.5001 4.59L20.2051 8.295L16.5001 12L12.7951 8.295L16.5001 4.59ZM16.5001 3L11.2051 8.295L16.5001 13.605L21.8101 8.295L16.5001 3Z" fill="#7749BD"/>
<path d="M16.5264 10.2221L18.4355 8.31287L16.5264 6.40368L14.6172 8.31287L16.5264 10.2221Z" fill="#7749BD"/>
<path d="M11.9902 11.1921L7.48242 15.7L11.9902 20.2078L16.498 15.7L11.9902 11.1921Z" fill="#EDE3FF"/>
<path d="M11.9995 12L15.7045 15.705L11.9995 19.41L8.27945 15.705L11.9995 12ZM11.9995 10.395L6.68945 15.705L11.9995 21L17.3095 15.69L11.9995 10.395Z" fill="#7749BD"/>
<path d="M12.0185 17.6L13.9277 15.6908L12.0185 13.7816L10.1094 15.6908L12.0185 17.6Z" fill="#7749BD"/>
</svg>
