<svg width="24" height="24" viewBox="0 0 24 24" fill="none" xmlns="http://www.w3.org/2000/svg">
<path d="M7.90625 6.83374H4.33203L3.5293 9.0603H2.36914L5.62695 0.529053H6.61133L9.875 9.0603H8.7207L7.90625 6.83374ZM4.67188 5.90796H7.57227L6.11914 1.91772L4.67188 5.90796Z" fill="#E87373"/>
<path d="M5.02148 12.3484V14.2527H7.14258C7.52148 14.2527 7.82812 14.1824 8.0625 14.0417C8.30078 13.8972 8.41992 13.6433 8.41992 13.28C8.41992 12.8777 8.26367 12.6121 7.95117 12.4832C7.68164 12.3933 7.33789 12.3484 6.91992 12.3484H5.02148ZM5.02148 15.6824V17.9851H7.14258C7.52148 17.9851 7.81641 17.9343 8.02734 17.8328C8.41016 17.6453 8.60156 17.2859 8.60156 16.7546C8.60156 16.3054 8.41602 15.9968 8.04492 15.8289C7.83789 15.7351 7.54688 15.6863 7.17188 15.6824H5.02148ZM7.49414 10.8484C8.55273 10.864 9.30273 11.1707 9.74414 11.7683C10.0098 12.1355 10.1426 12.575 10.1426 13.0867C10.1426 13.614 10.0098 14.0378 9.74414 14.3582C9.5957 14.5378 9.37695 14.7019 9.08789 14.8503C9.5293 15.0105 9.86133 15.2644 10.084 15.6121C10.3105 15.9597 10.4238 16.3816 10.4238 16.8777C10.4238 17.3894 10.2949 17.8484 10.0371 18.2546C9.87305 18.5242 9.66797 18.7507 9.42188 18.9343C9.14453 19.1453 8.81641 19.2898 8.4375 19.3679C8.0625 19.446 7.6543 19.4851 7.21289 19.4851H3.29883V10.8484H7.49414Z" fill="#E87373"/>
<path fill-rule="evenodd" clip-rule="evenodd" d="M16.4395 4.2605C16.8537 4.2605 17.1895 4.59628 17.1895 5.0105V18.5105C17.1895 18.9247 16.8537 19.2605 16.4395 19.2605C16.0252 19.2605 15.6895 18.9247 15.6895 18.5105V5.0105C15.6895 4.59628 16.0252 4.2605 16.4395 4.2605Z" fill="#E87373"/>
<path fill-rule="evenodd" clip-rule="evenodd" d="M20.7198 14.2302C21.0127 14.5231 21.0127 14.9979 20.7198 15.2908L16.9698 19.0408C16.6769 19.3337 16.202 19.3337 15.9091 19.0408C15.6162 18.7479 15.6162 18.2731 15.9091 17.9802L19.6591 14.2302C19.952 13.9373 20.4269 13.9373 20.7198 14.2302Z" fill="#E87373"/>
<path fill-rule="evenodd" clip-rule="evenodd" d="M12.1591 14.2302C12.452 13.9373 12.9269 13.9373 13.2198 14.2302L16.9698 17.9802C17.2627 18.2731 17.2627 18.7479 16.9698 19.0408C16.6769 19.3337 16.202 19.3337 15.9091 19.0408L12.1591 15.2908C11.8662 14.9979 11.8662 14.5231 12.1591 14.2302Z" fill="#E87373"/>
</svg>
