<svg width="24" height="24" viewBox="0 0 24 24" fill="none" xmlns="http://www.w3.org/2000/svg">
<path d="M4.50085 4.42542H16.6508C16.8617 4.42542 17.0639 4.50917 17.213 4.65827C17.3621 4.80736 17.4458 5.00957 17.4458 5.22041V16.0204C17.4458 16.2273 17.3637 16.4257 17.2174 16.572C17.0711 16.7182 16.8727 16.8004 16.6658 16.8004H4.50085C4.29398 16.8004 4.09558 16.7182 3.9493 16.572C3.80303 16.4257 3.72085 16.2273 3.72085 16.0204V5.22041C3.71885 5.11673 3.73756 5.01369 3.77586 4.91731C3.81416 4.82094 3.8713 4.73318 3.94393 4.65915C4.01656 4.58512 4.10322 4.52632 4.19885 4.48619C4.29447 4.44606 4.39714 4.4254 4.50085 4.42542Z" fill="#F2F2F2"/>
<path d="M16.6504 4.95032C16.7101 4.95032 16.7673 4.97402 16.8095 5.01622C16.8517 5.05841 16.8754 5.11564 16.8754 5.17532V15.9753C16.8754 16.035 16.8517 16.0922 16.8095 16.1344C16.7673 16.1766 16.7101 16.2003 16.6504 16.2003H4.50039C4.44072 16.2003 4.38349 16.1766 4.34129 16.1344C4.2991 16.0922 4.27539 16.035 4.27539 15.9753V5.17532C4.27539 5.14577 4.28121 5.11651 4.29252 5.08921C4.30383 5.06192 4.3204 5.03711 4.34129 5.01622C4.36218 4.99533 4.38699 4.97875 4.41429 4.96744C4.44159 4.95614 4.47084 4.95032 4.50039 4.95032H16.6504ZM16.6504 3.82532H4.50039C4.14235 3.82532 3.79897 3.96755 3.5458 4.22072C3.29262 4.4739 3.15039 4.81728 3.15039 5.17532V15.9753C3.15039 16.3334 3.29262 16.6767 3.5458 16.9299C3.79897 17.1831 4.14235 17.3253 4.50039 17.3253H16.6504C17.0084 17.3253 17.3518 17.1831 17.605 16.9299C17.8582 16.6767 18.0004 16.3334 18.0004 15.9753V5.17532C18.0004 4.81728 17.8582 4.4739 17.605 4.22072C17.3518 3.96755 17.0084 3.82532 16.6504 3.82532Z" fill="#2195E7"/>
<path d="M19.35 6.67542H7.5C6.67157 6.67542 6 7.34699 6 8.17542V18.6754C6 19.5038 6.67157 20.1754 7.5 20.1754H19.35C20.1784 20.1754 20.85 19.5038 20.85 18.6754V8.17542C20.85 7.34699 20.1784 6.67542 19.35 6.67542Z" fill="#F2F2F2"/>
<path fill-rule="evenodd" clip-rule="evenodd" d="M12.8633 20.1752V10.7252H13.9883V20.1752H12.8633Z" fill="#C1CBD5"/>
<path fill-rule="evenodd" clip-rule="evenodd" d="M20.1758 16.0128H6.67578V14.8878H20.1758V16.0128Z" fill="#C1CBD5"/>
<path fill-rule="evenodd" clip-rule="evenodd" d="M12.8633 11.4004V6.67542H13.9883V11.4004H12.8633Z" fill="#2195E7"/>
<path d="M19.5 7.80042C19.5597 7.80042 19.6169 7.82412 19.6591 7.86632C19.7013 7.90851 19.725 7.96574 19.725 8.02542V18.8254C19.725 18.8851 19.7013 18.9423 19.6591 18.9845C19.6169 19.0267 19.5597 19.0504 19.5 19.0504H7.35C7.29033 19.0504 7.2331 19.0267 7.1909 18.9845C7.14871 18.9423 7.125 18.8851 7.125 18.8254V8.02542C7.125 7.96574 7.14871 7.90851 7.1909 7.86632C7.2331 7.82412 7.29033 7.80042 7.35 7.80042H19.5ZM19.5 6.67542H7.35C7.17272 6.67542 6.99717 6.71033 6.83338 6.77818C6.66959 6.84602 6.52076 6.94546 6.39541 7.07082C6.27005 7.19618 6.17061 7.345 6.10276 7.50879C6.03492 7.67258 6 7.84813 6 8.02542V18.8254C6 19.1835 6.14223 19.5268 6.39541 19.78C6.64858 20.0332 6.99196 20.1754 7.35 20.1754H19.5C19.858 20.1754 20.2014 20.0332 20.4546 19.78C20.7078 19.5268 20.85 19.1835 20.85 18.8254V8.02542C20.85 7.66737 20.7078 7.324 20.4546 7.07082C20.2014 6.81765 19.858 6.67542 19.5 6.67542Z" fill="#2195E7"/>
<path fill-rule="evenodd" clip-rule="evenodd" d="M6.67578 10.8381H20.1758V11.9631H6.67578V10.8381Z" fill="#2195E7"/>
</svg>
