<svg width="24" height="24" viewBox="0 0 24 24" fill="none" xmlns="http://www.w3.org/2000/svg">
<path d="M17.9704 6.28491H3.52539V15.2999H17.9704V6.28491Z" fill="#FEE07B"/>
<path fill-rule="evenodd" clip-rule="evenodd" d="M2.96289 6.28491C2.96289 5.97425 3.21473 5.72241 3.52539 5.72241H17.9704C18.2811 5.72241 18.5329 5.97425 18.5329 6.28491V15.2999C18.5329 15.6106 18.2811 15.8624 17.9704 15.8624H3.52539C3.21473 15.8624 2.96289 15.6106 2.96289 15.2999V6.28491ZM4.08789 6.84741V14.7374H17.4079V6.84741H4.08789Z" fill="#DDA91D"/>
<path d="M20.4762 8.7002H6.03125V17.7152H20.4762V8.7002Z" fill="#FEE07B"/>
<path fill-rule="evenodd" clip-rule="evenodd" d="M5.46875 8.7002C5.46875 8.38954 5.72059 8.1377 6.03125 8.1377H20.4762C20.7869 8.1377 21.0387 8.38954 21.0387 8.7002V17.7152C21.0387 18.0259 20.7869 18.2777 20.4762 18.2777H6.03125C5.72059 18.2777 5.46875 18.0259 5.46875 17.7152V8.7002ZM6.59375 9.2627V17.1527H19.9137V9.2627H6.59375Z" fill="#DDA91D"/>
<path fill-rule="evenodd" clip-rule="evenodd" d="M17.6855 8.69238C17.9962 8.69238 18.248 8.94422 18.248 9.25488V14.5199C18.248 14.8305 17.9962 15.0824 17.6855 15.0824C17.3749 15.0824 17.123 14.8305 17.123 14.5199V9.25488C17.123 8.94422 17.3749 8.69238 17.6855 8.69238Z" fill="#DDA91D"/>
<path fill-rule="evenodd" clip-rule="evenodd" d="M11.6855 8.69238C11.9962 8.69238 12.248 8.94422 12.248 9.25488V14.5199C12.248 14.8305 11.9962 15.0824 11.6855 15.0824C11.3749 15.0824 11.123 14.8305 11.123 14.5199V9.25488C11.123 8.94422 11.3749 8.69238 11.6855 8.69238Z" fill="#DDA91D"/>
<path fill-rule="evenodd" clip-rule="evenodd" d="M14.6855 8.69238C14.9962 8.69238 15.248 8.94422 15.248 9.25488V13.0199C15.248 13.3305 14.9962 13.5824 14.6855 13.5824C14.3749 13.5824 14.123 13.3305 14.123 13.0199V9.25488C14.123 8.94422 14.3749 8.69238 14.6855 8.69238Z" fill="#DDA91D"/>
<path fill-rule="evenodd" clip-rule="evenodd" d="M8.68555 8.69238C8.99621 8.69238 9.24805 8.94422 9.24805 9.25488V13.0199C9.24805 13.3305 8.99621 13.5824 8.68555 13.5824C8.37489 13.5824 8.12305 13.3305 8.12305 13.0199V9.25488C8.12305 8.94422 8.37489 8.69238 8.68555 8.69238Z" fill="#DDA91D"/>
</svg>
