<svg width="24" height="24" viewBox="0 0 24 24" fill="none" xmlns="http://www.w3.org/2000/svg">
<path d="M17.2796 17.0252V3.8252H3.59961V17.0252" fill="#E3FF8D"/>
<path fill-rule="evenodd" clip-rule="evenodd" d="M3.03711 3.8252C3.03711 3.51454 3.28895 3.2627 3.59961 3.2627H17.2796C17.5903 3.2627 17.8421 3.51454 17.8421 3.8252V17.0252C17.8421 17.3359 17.5903 17.5877 17.2796 17.5877C16.9689 17.5877 16.7171 17.3359 16.7171 17.0252V4.3877H4.16211V17.0252C4.16211 17.3359 3.91027 17.5877 3.59961 17.5877C3.28895 17.5877 3.03711 17.3359 3.03711 17.0252V3.8252Z" fill="#9CC71C"/>
<path d="M3.59961 17.0254H17.2796" stroke="#9CC71C" stroke-width="0.75" stroke-linecap="round" stroke-linejoin="round"/>
<path d="M20.4002 6.61548H6.61523V20.1755H20.4002V6.61548Z" fill="#E3FF8D"/>
<path d="M20.4002 13.4255V6.61548H6.61523V20.1755" fill="#E3FF8D"/>
<path fill-rule="evenodd" clip-rule="evenodd" d="M6.05273 6.61548C6.05273 6.30482 6.30457 6.05298 6.61523 6.05298H20.4002C20.7109 6.05298 20.9627 6.30482 20.9627 6.61548V13.4255C20.9627 13.7361 20.7109 13.988 20.4002 13.988C20.0896 13.988 19.8377 13.7361 19.8377 13.4255V7.17798H7.17773V20.1755C7.17773 20.4861 6.92589 20.738 6.61523 20.738C6.30457 20.738 6.05273 20.4861 6.05273 20.1755V6.61548Z" fill="#9CC71C"/>
<path d="M17.6995 13.4254V9.31543H9.31445V17.4754H12.0145" fill="#E3FF8D"/>
<path fill-rule="evenodd" clip-rule="evenodd" d="M8.75195 9.31543C8.75195 9.00477 9.00379 8.75293 9.31445 8.75293H17.6995C18.0101 8.75293 18.262 9.00477 18.262 9.31543V13.4254C18.262 13.7361 18.0101 13.9879 17.6995 13.9879C17.3888 13.9879 17.137 13.7361 17.137 13.4254V9.87793H9.87695V16.9129H12.0145C12.3251 16.9129 12.577 17.1648 12.577 17.4754C12.577 17.7861 12.3251 18.0379 12.0145 18.0379H9.31445C9.00379 18.0379 8.75195 17.7861 8.75195 17.4754V9.31543Z" fill="#9CC71C"/>
<path d="M15.0006 12.0149H12.0156V14.7749H15.0006V12.0149Z" fill="#E3FF8D"/>
<path fill-rule="evenodd" clip-rule="evenodd" d="M11.4531 12.0149C11.4531 11.7042 11.705 11.4524 12.0156 11.4524H15.0006C15.3113 11.4524 15.5631 11.7042 15.5631 12.0149V14.7749C15.5631 15.0856 15.3113 15.3374 15.0006 15.3374H12.0156C11.705 15.3374 11.4531 15.0856 11.4531 14.7749V12.0149ZM12.5781 12.5774V14.2124H14.4381V12.5774H12.5781Z" fill="#9CC71C"/>
<path d="M6.61523 20.175H15.0002V16.125L17.7002 17.475L20.4002 16.125V20.175" fill="#E3FF8D"/>
<path fill-rule="evenodd" clip-rule="evenodd" d="M14.7045 15.6465C14.8703 15.544 15.0774 15.5347 15.2518 15.6219L17.7002 16.8461L20.1487 15.6219C20.323 15.5347 20.5301 15.544 20.696 15.6465C20.8618 15.749 20.9627 15.9301 20.9627 16.125V20.175C20.9627 20.4857 20.7109 20.7375 20.4002 20.7375C20.0896 20.7375 19.8377 20.4857 19.8377 20.175V17.0351L17.9518 17.9781C17.7934 18.0573 17.607 18.0573 17.4487 17.9781L15.5627 17.0351V20.175C15.5627 20.4857 15.3109 20.7375 15.0002 20.7375H6.61523C6.30457 20.7375 6.05273 20.4857 6.05273 20.175C6.05273 19.8643 6.30457 19.6125 6.61523 19.6125H14.4377V16.125C14.4377 15.9301 14.5387 15.749 14.7045 15.6465Z" fill="#9CC71C"/>
</svg>
