<svg width="24" height="24" viewBox="0 0 24 24" fill="none" xmlns="http://www.w3.org/2000/svg">
<path d="M6.38501 11.2683H8.85034L7.63745 7.44507L6.38501 11.2683ZM6.51025 5.22363H8.8042L12.2451 14.9399H10.0435L9.41724 12.9426H5.83789L5.16553 14.9399H3.04297L6.51025 5.22363Z" fill="#609404"/>
<path d="M17.2944 11.4463C17.1758 11.521 17.0549 11.5825 16.9319 11.6309C16.8132 11.6748 16.6484 11.7166 16.4375 11.7561L16.0156 11.8352C15.6201 11.9055 15.3367 11.9912 15.1653 12.0923C14.8752 12.2637 14.7302 12.5295 14.7302 12.8899C14.7302 13.2107 14.8181 13.4436 14.9939 13.5886C15.1741 13.7292 15.3916 13.7996 15.6465 13.7996C16.0508 13.7996 16.4221 13.6809 16.7605 13.4436C17.1033 13.2063 17.2812 12.7734 17.2944 12.145V11.4463ZM16.1541 10.5696C16.5012 10.5256 16.7495 10.4707 16.8989 10.4048C17.167 10.2905 17.301 10.1125 17.301 9.87085C17.301 9.57642 17.1978 9.37427 16.9912 9.2644C16.7891 9.15015 16.4902 9.09302 16.0947 9.09302C15.6509 9.09302 15.3367 9.20288 15.1521 9.42261C15.0203 9.58521 14.9324 9.80493 14.8884 10.0818H13.0757C13.1152 9.45337 13.291 8.93701 13.603 8.53271C14.0996 7.8999 14.9521 7.5835 16.1606 7.5835C16.9473 7.5835 17.646 7.7395 18.2568 8.05151C18.8677 8.36353 19.1731 8.95239 19.1731 9.81812V13.114C19.1731 13.3425 19.1775 13.6194 19.1863 13.9446C19.1995 14.1907 19.2368 14.3577 19.2983 14.4456C19.3599 14.5334 19.4521 14.606 19.5752 14.6631V14.9399H17.5317C17.4746 14.7949 17.4351 14.6587 17.4131 14.5312C17.3911 14.4038 17.3735 14.2588 17.3604 14.0962C17.1011 14.3774 16.8022 14.6169 16.4639 14.8147C16.0596 15.0476 15.6025 15.1641 15.0928 15.1641C14.4424 15.1641 13.9041 14.9795 13.4778 14.6104C13.0559 14.2368 12.845 13.7095 12.845 13.0283C12.845 12.145 13.1855 11.5056 13.8667 11.1101C14.2402 10.8948 14.7896 10.741 15.5146 10.6487L16.1541 10.5696Z" fill="#609404"/>
</svg>
