<svg width="24" height="24" viewBox="0 0 24 24" fill="none" xmlns="http://www.w3.org/2000/svg">
<path fill-rule="evenodd" clip-rule="evenodd" d="M2.95508 6.89917C2.95508 6.27785 3.45876 5.77417 4.08008 5.77417H7.96508C8.5864 5.77417 9.09008 6.27785 9.09008 6.89917C9.09008 7.52049 8.5864 8.02417 7.96508 8.02417H4.08008C3.45876 8.02417 2.95508 7.52049 2.95508 6.89917Z" fill="#2F91A3"/>
<path d="M11.6693 6.95947L7.9043 10.5895L8.0393 3.20947L11.6693 6.95947Z" fill="#2F91A3"/>
<path fill-rule="evenodd" clip-rule="evenodd" d="M7.7643 2.51173C8.04626 2.40061 8.36739 2.4701 8.57818 2.68786L12.2082 6.43786C12.3467 6.58097 12.4226 6.7733 12.4192 6.97244C12.4157 7.17158 12.3332 7.36118 12.1899 7.49942L8.42486 11.1294C8.20648 11.34 7.88277 11.3982 7.60467 11.277C7.32658 11.1559 7.14887 10.8791 7.15442 10.5758L7.28942 3.19578C7.29497 2.89276 7.48234 2.62286 7.7643 2.51173ZM8.75615 5.02838L8.68729 8.79276L10.6077 6.94118L8.75615 5.02838Z" fill="#2F91A3"/>
<path fill-rule="evenodd" clip-rule="evenodd" d="M11.5352 12C11.5352 11.3787 12.0388 10.875 12.6602 10.875H16.5452C17.1665 10.875 17.6702 11.3787 17.6702 12C17.6702 12.6213 17.1665 13.125 16.5452 13.125H12.6602C12.0388 13.125 11.5352 12.6213 11.5352 12Z" fill="#2F91A3"/>
<path d="M20.2344 12.0596L16.4844 15.6896L16.6044 8.30957L20.2344 12.0596Z" fill="#2F91A3"/>
<path fill-rule="evenodd" clip-rule="evenodd" d="M16.3287 7.61211C16.6108 7.5006 16.9323 7.57 17.1433 7.78796L20.7733 11.538C21.0614 11.8356 21.0536 12.3104 20.756 12.5985L17.006 16.2285C16.7881 16.4395 16.4645 16.4984 16.1861 16.3777C15.9078 16.2571 15.7295 15.9807 15.7345 15.6774L15.8545 8.2974C15.8594 7.99409 16.0466 7.72362 16.3287 7.61211ZM17.3248 10.1322L17.2637 13.8914L19.1739 12.0423L17.3248 10.1322Z" fill="#2F91A3"/>
<path fill-rule="evenodd" clip-rule="evenodd" d="M2.95508 17.0994C2.95508 16.478 3.45876 15.9744 4.08008 15.9744H7.96508C8.5864 15.9744 9.09008 16.478 9.09008 17.0994C9.09008 17.7207 8.5864 18.2244 7.96508 18.2244H4.08008C3.45876 18.2244 2.95508 17.7207 2.95508 17.0994Z" fill="#2F91A3"/>
<path d="M11.6693 17.1597L7.9043 20.7897L8.0393 13.4097L11.6693 17.1597Z" fill="#2F91A3"/>
<path fill-rule="evenodd" clip-rule="evenodd" d="M7.7643 12.7119C8.04626 12.6008 8.36739 12.6703 8.57818 12.8881L12.2082 16.6381C12.3467 16.7812 12.4226 16.9735 12.4192 17.1726C12.4157 17.3718 12.3332 17.5614 12.1899 17.6996L8.42486 21.3296C8.20648 21.5402 7.88277 21.5984 7.60467 21.4772C7.32658 21.3561 7.14887 21.0793 7.15442 20.776L7.28942 13.396C7.29497 13.093 7.48234 12.8231 7.7643 12.7119ZM8.75615 15.2286L8.68729 18.993L10.6077 17.1414L8.75615 15.2286Z" fill="#2F91A3"/>
</svg>
