<svg width="24" height="24" viewBox="0 0 24 24" fill="none" xmlns="http://www.w3.org/2000/svg">
<path fill-rule="evenodd" clip-rule="evenodd" d="M20.7803 2.84467C21.0732 3.13756 21.0732 3.61244 20.7803 3.90533L17.7803 6.90533C17.4874 7.19822 17.0126 7.19822 16.7197 6.90533C16.4268 6.61244 16.4268 6.13756 16.7197 5.84467L19.7197 2.84467C20.0126 2.55178 20.4874 2.55178 20.7803 2.84467Z" fill="#AC9230"/>
<path fill-rule="evenodd" clip-rule="evenodd" d="M16.5 3.375C16.5 2.96079 16.8358 2.625 17.25 2.625H20.25C20.6642 2.625 21 2.96079 21 3.375C21 3.78921 20.6642 4.125 20.25 4.125H17.25C16.8358 4.125 16.5 3.78921 16.5 3.375Z" fill="#AC9230"/>
<path fill-rule="evenodd" clip-rule="evenodd" d="M20.25 2.625C20.6642 2.625 21 2.96079 21 3.375V6.375C21 6.78921 20.6642 7.125 20.25 7.125C19.8358 7.125 19.5 6.78921 19.5 6.375V3.375C19.5 2.96079 19.8358 2.625 20.25 2.625Z" fill="#AC9230"/>
<path d="M19.23 9.375C19.3961 9.15928 19.4905 8.89704 19.5 8.625C19.5 6.975 15.81 5.625 11.25 5.625C6.69005 5.625 3.00005 6.975 3.00005 8.625C3.00963 8.89704 3.10403 9.15928 3.27005 9.375C3.09431 9.58541 2.99805 9.85085 2.99805 10.125C2.99805 10.3991 3.09431 10.6646 3.27005 10.875C3.09431 11.0854 2.99805 11.3509 2.99805 11.625C2.99805 11.8991 3.09431 12.1646 3.27005 12.375C3.09431 12.5854 2.99805 12.8509 2.99805 13.125C2.99805 13.3991 3.09431 13.6646 3.27005 13.875C3.09431 14.0854 2.99805 14.3509 2.99805 14.625C2.99805 14.8991 3.09431 15.1646 3.27005 15.375C3.09431 15.5854 2.99805 15.8509 2.99805 16.125C2.99805 16.3991 3.09431 16.6646 3.27005 16.875C3.10403 17.0907 3.00963 17.353 3.00005 17.625C3.00005 19.275 6.69005 20.625 11.25 20.625C15.81 20.625 19.5 19.275 19.5 17.625C19.4905 17.353 19.3961 17.0907 19.23 16.875C19.4058 16.6646 19.5021 16.3991 19.5021 16.125C19.5021 15.8509 19.4058 15.5854 19.23 15.375C19.4058 15.1646 19.5021 14.8991 19.5021 14.625C19.5021 14.3509 19.4058 14.0854 19.23 13.875C19.4058 13.6646 19.5021 13.3991 19.5021 13.125C19.5021 12.8509 19.4058 12.5854 19.23 12.375C19.4058 12.1646 19.5021 11.8991 19.5021 11.625C19.5021 11.3509 19.4058 11.0854 19.23 10.875C19.4058 10.6646 19.5021 10.3991 19.5021 10.125C19.5021 9.85085 19.4058 9.58541 19.23 9.375Z" fill="#F2F2F2"/>
<path d="M11.25 11.625C15.8063 11.625 19.5 10.2819 19.5 8.625C19.5 6.96815 15.8063 5.625 11.25 5.625C6.69365 5.625 3 6.96815 3 8.625C3 10.2819 6.69365 11.625 11.25 11.625Z" fill="#AC9230"/>
<path d="M11.25 19.125C7.41 19.125 4.185 18.165 3.27 16.875C3.10398 17.0907 3.00958 17.353 3 17.625C3 19.275 6.69 20.625 11.25 20.625C15.81 20.625 19.5 19.275 19.5 17.625C19.4904 17.353 19.396 17.0907 19.23 16.875C18.315 18.165 15.105 19.125 11.25 19.125Z" fill="#AC9230"/>
<path d="M11.25 13.125C7.41 13.125 4.185 12.165 3.27 10.875C3.10398 11.0907 3.00958 11.353 3 11.625C3 13.275 6.69 14.625 11.25 14.625C15.81 14.625 19.5 13.275 19.5 11.625C19.4904 11.353 19.396 11.0907 19.23 10.875C18.315 12.165 15.105 13.125 11.25 13.125Z" fill="#AC9230"/>
<path d="M11.25 16.125C7.41 16.125 4.185 15.165 3.27 13.875C3.10398 14.0907 3.00958 14.353 3 14.625C3 16.275 6.69 17.625 11.25 17.625C15.81 17.625 19.5 16.275 19.5 14.625C19.4904 14.353 19.396 14.0907 19.23 13.875C18.315 15.165 15.105 16.125 11.25 16.125Z" fill="#AC9230"/>
</svg>
