<svg width="24" height="24" viewBox="0 0 24 24" fill="none" xmlns="http://www.w3.org/2000/svg">
<path d="M13.5441 4.97974H5.39914C4.96836 4.97974 4.61914 5.32895 4.61914 5.75974V15.5397C4.61914 15.9705 4.96836 16.3197 5.39914 16.3197H13.5441C13.9749 16.3197 14.3241 15.9705 14.3241 15.5397V5.75974C14.3241 5.32895 13.9749 4.97974 13.5441 4.97974Z" fill="#F2F2F2"/>
<path d="M13.4995 5.53491C13.5591 5.53491 13.6164 5.55862 13.6586 5.60081C13.7007 5.64301 13.7245 5.70024 13.7245 5.75991V15.5249C13.7245 15.5846 13.7007 15.6418 13.6586 15.684C13.6164 15.7262 13.5591 15.7499 13.4995 15.7499H5.41445C5.35478 15.7499 5.29755 15.7262 5.25535 15.684C5.21316 15.6418 5.18945 15.5846 5.18945 15.5249V5.75991C5.18945 5.70024 5.21316 5.64301 5.25535 5.60081C5.29755 5.55862 5.35478 5.53491 5.41445 5.53491H13.4995ZM13.4995 4.40991H5.41445C5.05641 4.40991 4.71303 4.55214 4.45986 4.80532C4.20668 5.05849 4.06445 5.40187 4.06445 5.75991V15.5249C4.06445 15.883 4.20668 16.2263 4.45986 16.4795C4.71303 16.7327 5.05641 16.8749 5.41445 16.8749H13.4995C13.8575 16.8749 14.2009 16.7327 14.454 16.4795C14.7072 16.2263 14.8495 15.883 14.8495 15.5249V5.75991C14.8495 5.40187 14.7072 5.05849 14.454 4.80532C14.2009 4.55214 13.8575 4.40991 13.4995 4.40991Z" fill="#2195E7"/>
<path fill-rule="evenodd" clip-rule="evenodd" d="M20.3322 4.92745C20.5519 5.14712 20.5519 5.50327 20.3322 5.72294L17.9622 8.09294C17.7425 8.31261 17.3864 8.31261 17.1667 8.09294C16.947 7.87327 16.947 7.51712 17.1667 7.29745L19.5367 4.92745C19.7564 4.70778 20.1125 4.70778 20.3322 4.92745Z" fill="#2195E7"/>
<path fill-rule="evenodd" clip-rule="evenodd" d="M16.3711 5.3252C16.3711 5.01454 16.6229 4.7627 16.9336 4.7627H19.9336C20.2443 4.7627 20.4961 5.01454 20.4961 5.3252C20.4961 5.63586 20.2443 5.8877 19.9336 5.8877H16.9336C16.6229 5.8877 16.3711 5.63586 16.3711 5.3252Z" fill="#2195E7"/>
<path fill-rule="evenodd" clip-rule="evenodd" d="M19.9336 4.7627C20.2443 4.7627 20.4961 5.01454 20.4961 5.3252V8.3252C20.4961 8.63586 20.2443 8.8877 19.9336 8.8877C19.6229 8.8877 19.3711 8.63586 19.3711 8.3252V5.3252C19.3711 5.01454 19.6229 4.7627 19.9336 4.7627Z" fill="#2195E7"/>
<path d="M8.655 19.0198C8.44933 19.0159 8.25316 18.9325 8.10771 18.7871C7.96226 18.6416 7.87885 18.4455 7.875 18.2398V11.7898H17.58V18.2398C17.5762 18.4455 17.4927 18.6416 17.3473 18.7871C17.2018 18.9325 17.0057 19.0159 16.8 19.0198H8.655Z" fill="#F2F2F2"/>
<path d="M17.0097 12.3452V18.2252C17.0097 18.2849 16.986 18.3421 16.9438 18.3843C16.9016 18.4265 16.8444 18.4502 16.7847 18.4502H8.65469C8.59501 18.4502 8.53778 18.4265 8.49559 18.3843C8.45339 18.3421 8.42969 18.2849 8.42969 18.2252V12.3452H17.0097ZM18.1347 11.2202H7.30469V18.2252C7.30469 18.4025 7.33961 18.578 7.40745 18.7418C7.47529 18.9056 7.57473 19.0544 7.70009 19.1798C7.82545 19.3052 7.97428 19.4046 8.13806 19.4725C8.30185 19.5403 8.4774 19.5752 8.65469 19.5752H16.7847C17.1427 19.5752 17.4861 19.433 17.7393 19.1798C17.9925 18.9266 18.1347 18.5833 18.1347 18.2252V11.2202Z" fill="#2195E7"/>
<path d="M7.875 11.7748V8.47482C7.87885 8.26916 7.96226 8.07299 8.10771 7.92754C8.25316 7.78208 8.44933 7.69867 8.655 7.69482H16.785C16.9907 7.69867 17.1868 7.78208 17.3323 7.92754C17.4777 8.07299 17.5612 8.26916 17.565 8.47482V11.7748H7.875Z" fill="#F2F2F2"/>
<path d="M16.7847 8.25C16.8444 8.25 16.9016 8.27371 16.9438 8.3159C16.986 8.3581 17.0097 8.41533 17.0097 8.475V11.22H8.42969V8.475C8.42969 8.41533 8.45339 8.3581 8.49559 8.3159C8.53778 8.27371 8.59501 8.25 8.65469 8.25H16.7847ZM16.7847 7.125H8.65469C8.29665 7.125 7.95327 7.26723 7.70009 7.52041C7.44692 7.77358 7.30469 8.11696 7.30469 8.475V12.345H18.1347V8.475C18.1347 8.11696 17.9925 7.77358 17.7393 7.52041C17.4861 7.26723 17.1427 7.125 16.7847 7.125Z" fill="#2195E7"/>
<path fill-rule="evenodd" clip-rule="evenodd" d="M16.994 15.8921H8.45898V14.7671H16.994V15.8921Z" fill="#C1CBD5"/>
<path fill-rule="evenodd" clip-rule="evenodd" d="M12.2617 18.4485L12.2767 12.3735L13.4017 12.3763L13.3867 18.4513L12.2617 18.4485Z" fill="#C1CBD5"/>
<path fill-rule="evenodd" clip-rule="evenodd" d="M12.2617 11.2172L12.2767 8.1272L13.4017 8.13266L13.3867 11.2227L12.2617 11.2172Z" fill="#2195E7"/>
</svg>
