<svg width="24" height="24" viewBox="0 0 24 24" fill="none" xmlns="http://www.w3.org/2000/svg">
<path d="M13.8152 4.86011H5.31023C4.78833 4.86011 4.36523 5.2832 4.36523 5.80511V16.9051C4.36523 17.427 4.78833 17.8501 5.31023 17.8501H13.8152C14.3371 17.8501 14.7602 17.427 14.7602 16.9051V5.80511C14.7602 5.2832 14.3371 4.86011 13.8152 4.86011Z" fill="#DEF4FD"/>
<path d="M13.8149 5.43018C13.9144 5.43018 14.0098 5.46968 14.0801 5.54001C14.1504 5.61034 14.1899 5.70572 14.1899 5.80518V16.9202C14.1899 17.0196 14.1504 17.115 14.0801 17.1853C14.0098 17.2557 13.9144 17.2952 13.8149 17.2952H5.29492C5.19547 17.2952 5.10008 17.2557 5.02976 17.1853C4.95943 17.115 4.91992 17.0196 4.91992 16.9202V5.80518C4.91992 5.70572 4.95943 5.61034 5.02976 5.54001C5.10008 5.46968 5.19547 5.43018 5.29492 5.43018H13.8149ZM13.8149 4.30518H5.29492C4.8971 4.30518 4.51557 4.46321 4.23426 4.74452C3.95296 5.02582 3.79492 5.40735 3.79492 5.80518V16.9202C3.79492 17.318 3.95296 17.6995 4.23426 17.9808C4.51557 18.2621 4.8971 18.4202 5.29492 18.4202H13.8149C14.2127 18.4202 14.5943 18.2621 14.8756 17.9808C15.1569 17.6995 15.3149 17.318 15.3149 16.9202V5.80518C15.3149 5.40735 15.1569 5.02582 14.8756 4.74452C14.5943 4.46321 14.2127 4.30518 13.8149 4.30518Z" fill="#34495E"/>
<path d="M7.5 5.02472V4.30472C7.5 4.11376 7.57586 3.93063 7.71088 3.7956C7.84591 3.66057 8.02904 3.58472 8.22 3.58472H10.83C11.021 3.58472 11.2041 3.66057 11.3391 3.7956C11.4741 3.93063 11.55 4.11376 11.55 4.30472V5.02472H7.5Z" fill="#DEF4FD"/>
<path d="M10.8296 4.14C10.8683 4.14338 10.9045 4.16027 10.9319 4.1877C10.9593 4.21513 10.9762 4.25135 10.9796 4.29V4.5H8.11461V4.305C8.11836 4.26389 8.13739 4.22568 8.16793 4.19791C8.19848 4.17014 8.23833 4.15483 8.27961 4.155H10.8296V4.14ZM10.8296 3.03H8.26461C7.92506 3.02998 7.5992 3.16383 7.3577 3.40251C7.11621 3.6412 6.97856 3.96548 6.97461 4.305V5.595H12.1196V4.305C12.1216 4.13434 12.0897 3.96498 12.0258 3.80673C11.9618 3.64849 11.8671 3.5045 11.7471 3.38312C11.6271 3.26174 11.4843 3.16538 11.3268 3.09961C11.1693 3.03385 11.0003 2.99999 10.8296 3V3.03Z" fill="#34495E"/>
<path d="M8.84961 9.00018V8.05518H12.9596V9.00018H8.84961Z" fill="#2195E7"/>
<path d="M6.28516 9.09012V7.99512H7.38016V9.09012H6.28516Z" fill="#2195E7"/>
<path d="M8.84961 11.9998V11.0698H12.9596V11.9998H8.84961Z" fill="#2195E7"/>
<path d="M6.28516 12.1198V11.0098H7.38016V12.1048L6.28516 12.1198Z" fill="#2195E7"/>
<path d="M8.84961 14.9998V14.0698H12.9596V14.9998H8.84961Z" fill="#2195E7"/>
<path d="M6.28516 15.0001V13.9651H7.38016V15.0001H6.28516Z" fill="#2195E7"/>
<path d="M18.7039 7.4397H10.1989C9.677 7.4397 9.25391 7.86279 9.25391 8.3847V19.4847C9.25391 20.0066 9.677 20.4297 10.1989 20.4297H18.7039C19.2258 20.4297 19.6489 20.0066 19.6489 19.4847V8.3847C19.6489 7.86279 19.2258 7.4397 18.7039 7.4397Z" fill="#DEF4FD"/>
<path d="M18.7055 8.00977C18.805 8.00977 18.9004 8.04927 18.9707 8.1196C19.041 8.18993 19.0805 8.28531 19.0805 8.38477V19.4998C19.0805 19.5992 19.041 19.6946 18.9707 19.7649C18.9004 19.8353 18.805 19.8748 18.7055 19.8748H10.1855C10.0861 19.8748 9.99071 19.8353 9.92038 19.7649C9.85006 19.6946 9.81055 19.5992 9.81055 19.4998V8.38477C9.81055 8.28531 9.85006 8.18993 9.92038 8.1196C9.99071 8.04927 10.0861 8.00977 10.1855 8.00977H18.7055ZM18.7055 6.88477H10.1855C9.78772 6.88477 9.40619 7.0428 9.12489 7.32411C8.84358 7.60541 8.68555 7.98694 8.68555 8.38477V19.4998C8.68555 19.8976 8.84358 20.2791 9.12489 20.5604C9.40619 20.8417 9.78772 20.9998 10.1855 20.9998H18.7055C19.1034 20.9998 19.4849 20.8417 19.7662 20.5604C20.0475 20.2791 20.2055 19.8976 20.2055 19.4998V8.38477C20.2055 7.98694 20.0475 7.60541 19.7662 7.32411C19.4849 7.0428 19.1034 6.88477 18.7055 6.88477Z" fill="#34495E"/>
<path d="M12.4492 7.60528V6.88528C12.4492 6.69433 12.5251 6.51119 12.6601 6.37617C12.7951 6.24114 12.9783 6.16528 13.1692 6.16528H15.7342C15.9252 6.16528 16.1083 6.24114 16.2433 6.37617C16.3784 6.51119 16.4542 6.69433 16.4542 6.88528V7.60528H12.4492Z" fill="#DEF4FD"/>
<path d="M15.7345 6.72011C15.7758 6.71994 15.8157 6.73525 15.8462 6.76302C15.8768 6.79079 15.8958 6.829 15.8995 6.87011V7.03511H13.0045V6.88511C13.0079 6.84646 13.0248 6.81024 13.0522 6.78281C13.0797 6.75538 13.1159 6.73849 13.1545 6.73511H15.7195L15.7345 6.72011ZM15.7195 5.61011H13.1695C12.8326 5.614 12.5105 5.74958 12.2723 5.98785C12.034 6.22612 11.8984 6.54817 11.8945 6.88511V8.17511H17.0245V6.88511C17.0206 6.54558 16.8829 6.22131 16.6414 5.98262C16.3999 5.74393 16.0741 5.61008 15.7345 5.61011H15.7195Z" fill="#34495E"/>
<path d="M13.7539 11.5198V10.6348H17.8489V11.5198H13.7539Z" fill="#2195E7"/>
<path d="M11.1758 11.6851V10.5901H12.2708V11.6851H11.1758Z" fill="#2195E7"/>
<path d="M13.7539 14.5349V13.6499H17.8489V14.5349H13.7539Z" fill="#2195E7"/>
<path d="M11.1758 14.7V13.605H12.2708V14.7H11.1758Z" fill="#2195E7"/>
<path d="M13.7539 17.5349V16.6499H17.8489V17.5349H13.7539Z" fill="#2195E7"/>
<path d="M11.1758 17.64V16.5H12.2708V17.595L11.1758 17.64Z" fill="#2195E7"/>
</svg>
