<svg width="24" height="24" viewBox="0 0 24 24" fill="none" xmlns="http://www.w3.org/2000/svg">
<path d="M12.0007 12C16.7807 12 20.6557 10.3815 20.6557 8.38502C20.6557 6.38851 16.7807 4.77002 12.0007 4.77002C7.22068 4.77002 3.3457 6.38851 3.3457 8.38502C3.3457 10.3815 7.22068 12 12.0007 12Z" fill="#FBFB6E"/>
<path fill-rule="evenodd" clip-rule="evenodd" d="M4.42109 7.37814C4.05317 7.74147 3.9082 8.08134 3.9082 8.38502C3.9082 8.6887 4.05317 9.02857 4.42109 9.3919C4.79104 9.75722 5.35513 10.1121 6.09749 10.4222C7.57978 11.0413 9.66655 11.4375 12.0007 11.4375C14.3349 11.4375 16.4216 11.0413 17.9039 10.4222C18.6463 10.1121 19.2104 9.75722 19.5803 9.3919C19.9482 9.02857 20.0932 8.6887 20.0932 8.38502C20.0932 8.08134 19.9482 7.74147 19.5803 7.37814C19.2104 7.01282 18.6463 6.65794 17.9039 6.34787C16.4216 5.72875 14.3349 5.33252 12.0007 5.33252C9.66655 5.33252 7.57978 5.72875 6.09749 6.34787C5.35513 6.65794 4.79104 7.01282 4.42109 7.37814ZM5.6639 5.30978C7.31411 4.62053 9.55484 4.20752 12.0007 4.20752C14.4466 4.20752 16.6873 4.62053 18.3375 5.30978C19.1614 5.65391 19.8648 6.07799 20.3708 6.57766C20.8788 7.07932 21.2182 7.69044 21.2182 8.38502C21.2182 9.0796 20.8788 9.69072 20.3708 10.1924C19.8648 10.692 19.1614 11.1161 18.3375 11.4603C16.6873 12.1495 14.4466 12.5625 12.0007 12.5625C9.55484 12.5625 7.31411 12.1495 5.6639 11.4603C4.84001 11.1161 4.13661 10.692 3.63062 10.1924C3.12261 9.69072 2.7832 9.0796 2.7832 8.38502C2.7832 7.69044 3.12261 7.07932 3.63062 6.57766C4.13661 6.07799 4.84001 5.65391 5.6639 5.30978Z" fill="#D4AA16"/>
<path d="M20.6713 12.7197C20.6713 13.6497 19.8163 14.5047 18.4363 15.1347C17.8513 15.4047 18.5413 19.0197 17.7913 19.2147C17.0413 19.4097 14.7913 16.2147 13.9963 16.2147C13.3663 16.2147 12.7063 16.3047 12.0163 16.3047C7.23133 16.3047 3.36133 14.6847 3.36133 12.6897C3.36133 10.6947 7.21633 9.10474 12.0013 9.10474C16.7863 9.10474 20.6713 10.7247 20.6713 12.7197Z" fill="#FBFB6E"/>
<path fill-rule="evenodd" clip-rule="evenodd" d="M4.43316 11.6887C4.06791 12.0484 3.92383 12.3861 3.92383 12.6897C3.92383 12.9932 4.06861 13.3329 4.43616 13.6961C4.80574 14.0613 5.36937 14.4162 6.11137 14.7264C7.59297 15.3456 9.67969 15.7422 12.0163 15.7422C12.3394 15.7422 12.6586 15.7212 12.9906 15.6985L13.0207 15.6965C13.3371 15.6749 13.669 15.6522 13.9963 15.6522C14.2602 15.6522 14.4953 15.7748 14.6552 15.8747C14.8326 15.9857 15.0153 16.133 15.1924 16.29C15.5151 16.5761 15.8738 16.9441 16.2158 17.2951C16.2485 17.3286 16.281 17.3619 16.3133 17.395C16.6955 17.7867 17.0508 18.1453 17.3524 18.3949C17.4288 18.4581 17.4962 18.5096 17.5546 18.5504C17.5595 18.5224 17.5642 18.4916 17.5688 18.4578C17.6126 18.133 17.6161 17.6942 17.6132 17.2062C17.6129 17.1482 17.6124 17.0895 17.612 17.0303C17.6089 16.6137 17.6057 16.1742 17.6334 15.8155C17.6491 15.6116 17.6769 15.3985 17.7339 15.2138C17.7818 15.0587 17.8969 14.7642 18.2006 14.624L18.2027 14.623C18.8507 14.3272 19.3414 13.9932 19.6625 13.6534C19.9815 13.3158 20.1088 13.001 20.1088 12.7197C20.1088 12.4171 19.9638 12.0775 19.5948 11.714C19.2238 11.3486 18.6583 10.9935 17.9142 10.6833C16.4286 10.0638 14.338 9.66724 12.0013 9.66724C9.6634 9.66724 7.58002 10.0567 6.10219 10.6688C5.36207 10.9753 4.80082 11.3266 4.43316 11.6887ZM17.7579 18.6647C17.758 18.6649 17.7564 18.6645 17.753 18.6635C17.7562 18.6641 17.7579 18.6646 17.7579 18.6647ZM5.67172 9.62942C7.31764 8.94774 9.55426 8.54224 12.0013 8.54224C14.4497 8.54224 16.694 8.95563 18.3472 9.64494C19.1725 9.98908 19.8773 10.4131 20.3843 10.9125C20.8932 11.4138 21.2338 12.0249 21.2338 12.7197C21.2338 13.3684 20.9337 13.9462 20.4802 14.4261C20.0553 14.8757 19.475 15.264 18.7978 15.5868C18.7815 15.6554 18.7661 15.7585 18.7551 15.902C18.7313 16.2095 18.734 16.5952 18.737 17.0205C18.7374 17.0794 18.7378 17.1392 18.7382 17.1996C18.741 17.6734 18.7398 18.1918 18.6837 18.608C18.6559 18.8142 18.6099 19.0363 18.5218 19.2287C18.4358 19.4166 18.2625 19.6734 17.9329 19.7591C17.6345 19.8367 17.3601 19.7296 17.1902 19.643C17.0017 19.547 16.8125 19.4084 16.6351 19.2616C16.2791 18.967 15.8815 18.5634 15.5081 18.1807C15.4774 18.1492 15.4468 18.1179 15.4164 18.0867C15.0658 17.7271 14.7363 17.3891 14.4461 17.1318C14.2887 16.9923 14.1594 16.8916 14.0586 16.8285C14.008 16.7969 13.9774 16.7829 13.964 16.7773C13.6856 16.7788 13.3972 16.7984 13.08 16.8201L13.0671 16.8209C12.7391 16.8433 12.3832 16.8672 12.0163 16.8672C9.56797 16.8672 7.32718 16.4538 5.67753 15.7644C4.85391 15.4201 4.15098 14.9959 3.6454 14.4963C3.1378 13.9947 2.79883 13.3838 2.79883 12.6897C2.79883 11.9959 3.13662 11.3867 3.64372 10.8872C4.1484 10.3901 4.84996 9.96976 5.67172 9.62942ZM18.8222 15.5107C18.8223 15.5111 18.8207 15.5153 18.8168 15.5223C18.8201 15.5138 18.822 15.5103 18.8222 15.5107Z" fill="#D4AA16"/>
</svg>
