<svg width="24" height="24" viewBox="0 0 24 24" fill="none" xmlns="http://www.w3.org/2000/svg">
<path d="M4.34922 4.05029H13.6492C14.0992 4.05029 14.5492 4.50029 14.5492 4.95029V16.9503C14.5492 17.4003 14.0992 17.8503 13.6492 17.8503H4.34922C3.89922 17.8503 3.44922 17.4003 3.44922 16.9503V4.95029C3.59922 4.50029 3.89922 4.05029 4.34922 4.05029Z" fill="#DEF4FD"/>
<path d="M13.65 4.6501C13.8 4.6501 13.95 4.8001 13.95 4.9501V16.9501C13.95 17.1001 13.8 17.2501 13.65 17.2501H4.35C4.2 17.2501 4.05 17.1001 4.05 16.9501V4.9501C4.05 4.8001 4.2 4.6501 4.35 4.6501H13.65ZM13.8 3.6001H4.35C3.6 3.6001 3 4.2001 3 4.9501V16.9501C3 17.7001 3.6 18.3001 4.35 18.3001H13.65C14.4 18.3001 15 17.7001 15 16.9501V4.9501C15 4.2001 14.4 3.6001 13.8 3.6001Z" fill="#34495E"/>
<path d="M6.90039 4.5002V3.6002C6.90039 3.1502 7.20039 2.8502 7.80039 2.7002H10.5004C10.9504 2.7002 11.4004 3.0002 11.4004 3.6002V4.5002H6.90039Z" fill="#DEF4FD"/>
<path d="M10.3508 3.0002C10.5008 3.0002 10.6508 3.1502 10.6508 3.3002V3.6002H7.35078V3.3002C7.35078 3.1502 7.50078 3.0002 7.65078 3.0002H10.3508ZM10.3508 1.9502H7.65078C6.90078 1.9502 6.30078 2.5502 6.30078 3.3002V4.6502H11.7008V3.3002C11.7008 2.5502 11.1008 1.9502 10.3508 1.9502Z" fill="#34495E"/>
<path d="M12.9 7.5H9V8.4H12.9V7.5Z" fill="#2195E7"/>
<path d="M12.9 10.9502H9V11.8502H12.9V10.9502Z" fill="#2195E7"/>
<path d="M12.9 14.7002H9V15.6002H12.9V14.7002Z" fill="#2195E7"/>
<path fill-rule="evenodd" clip-rule="evenodd" d="M8.2216 6.32972C8.4539 6.47905 8.52115 6.78843 8.37182 7.02072L7.02182 9.12072C6.94431 9.2413 6.81878 9.32281 6.6771 9.34456C6.53542 9.36632 6.39122 9.32622 6.2811 9.23446L5.3811 8.48446C5.16895 8.30767 5.14029 7.99237 5.31708 7.78022C5.49387 7.56807 5.80917 7.53941 6.02132 7.7162L6.4866 8.10394L7.5306 6.47994C7.67993 6.24764 7.98931 6.18039 8.2216 6.32972Z" fill="#2195E7"/>
<path fill-rule="evenodd" clip-rule="evenodd" d="M8.23583 10.0892C8.46288 10.2464 8.51952 10.5579 8.36233 10.7849L7.01233 12.7349C6.93243 12.8503 6.80771 12.9268 6.66863 12.9458C6.52956 12.9647 6.38893 12.9243 6.2811 12.8344L5.3811 12.0844C5.16895 11.9077 5.14029 11.5924 5.31708 11.3802C5.49387 11.1681 5.80917 11.1394 6.02132 11.3162L6.5013 11.7162L7.54009 10.2157C7.69728 9.98864 8.00877 9.93201 8.23583 10.0892Z" fill="#2195E7"/>
<path fill-rule="evenodd" clip-rule="evenodd" d="M8.2216 13.2296C8.4539 13.379 8.52115 13.6883 8.37182 13.9206L7.02182 16.0206C6.94431 16.1412 6.81878 16.2227 6.6771 16.2445C6.53542 16.2662 6.39122 16.2261 6.2811 16.1344L5.3811 15.3844C5.16895 15.2076 5.14029 14.8923 5.31708 14.6801C5.49387 14.468 5.80917 14.4393 6.02132 14.6161L6.4866 15.0038L7.5306 13.3798C7.67993 13.1475 7.98931 13.0803 8.2216 13.2296Z" fill="#2195E7"/>
<path d="M10.3492 7.9502H19.6492C20.0992 7.9502 20.5492 8.4002 20.5492 8.8502V20.8502C20.5492 21.3002 20.0992 21.7502 19.6492 21.7502H10.3492C9.89922 21.7502 9.44922 21.3002 9.44922 20.8502V8.8502C9.44922 8.2502 9.74922 7.9502 10.3492 7.9502Z" fill="#DEF4FD"/>
<path d="M19.65 8.4001C19.8 8.4001 19.95 8.5501 19.95 8.7001V20.7001C19.95 20.8501 19.8 21.0001 19.65 21.0001H10.2C10.05 21.0001 9.9 20.8501 9.9 20.7001V8.7001C9.9 8.5501 10.05 8.4001 10.2 8.4001H19.65ZM19.65 7.3501H10.2C9.6 7.3501 9 7.9501 9 8.7001V20.7001C9 21.4501 9.6 22.0501 10.35 22.0501H19.65C20.4 22.0501 21 21.4501 21 20.7001V8.7001C21 7.9501 20.4 7.3501 19.65 7.3501Z" fill="#34495E"/>
<path d="M12.75 8.25019V7.35019C12.75 6.9002 13.05 6.6002 13.65 6.4502H16.35C16.8 6.4502 17.25 6.7502 17.25 7.35019V8.25019H12.75Z" fill="#DEF4FD"/>
<path d="M16.2008 6.75019C16.3508 6.75019 16.5008 6.90019 16.5008 7.05019V7.35019H13.2008V7.05019C13.2008 6.90019 13.3508 6.75019 13.5008 6.75019H16.2008ZM16.2008 5.7002H13.6508C12.9008 5.7002 12.3008 6.30019 12.3008 7.05019V8.40019H17.7008V7.05019C17.5508 6.30019 16.9508 5.7002 16.2008 5.7002Z" fill="#34495E"/>
<path d="M18.8996 11.4004H14.8496V12.3004H18.8996V11.4004Z" fill="#2195E7"/>
<path d="M18.8996 14.8501H14.8496V15.7501H18.8996V14.8501Z" fill="#2195E7"/>
<path d="M18.8996 18.4502H14.8496V19.3502H18.8996V18.4502Z" fill="#2195E7"/>
<path fill-rule="evenodd" clip-rule="evenodd" d="M14.2537 10.2541C14.4726 10.4225 14.5136 10.7364 14.3452 10.9553L12.8452 12.9053C12.7623 13.0131 12.639 13.0825 12.5038 13.0974C12.3687 13.1124 12.2332 13.0716 12.1288 12.9846L11.2288 12.2346C11.0166 12.0578 10.9879 11.7425 11.1647 11.5303C11.3415 11.3182 11.6568 11.2895 11.869 11.4663L12.3695 11.8835L13.5525 10.3456C13.7209 10.1267 14.0348 10.0857 14.2537 10.2541Z" fill="#2195E7"/>
<path fill-rule="evenodd" clip-rule="evenodd" d="M14.2537 13.854C14.4726 14.0223 14.5136 14.3363 14.3452 14.5552L12.8452 16.5052C12.7623 16.613 12.639 16.6823 12.5038 16.6973C12.3687 16.7122 12.2332 16.6715 12.1288 16.5844L11.2288 15.8344C11.0166 15.6576 10.9879 15.3423 11.1647 15.1302C11.3415 14.918 11.6568 14.8894 11.869 15.0662L12.3695 15.4833L13.5525 13.9454C13.7209 13.7265 14.0348 13.6856 14.2537 13.854Z" fill="#2195E7"/>
<path fill-rule="evenodd" clip-rule="evenodd" d="M14.2537 17.1538C14.4726 17.3221 14.5136 17.6361 14.3452 17.855L12.8452 19.805C12.7623 19.9128 12.639 19.9821 12.5038 19.9971C12.3687 20.012 12.2332 19.9713 12.1288 19.8842L11.2288 19.1342C11.0166 18.9574 10.9879 18.6421 11.1647 18.43C11.3415 18.2178 11.6568 18.1892 11.869 18.366L12.3695 18.7831L13.5525 17.2452C13.7209 17.0263 14.0348 16.9854 14.2537 17.1538Z" fill="#2195E7"/>
</svg>
