<svg width="24" height="24" viewBox="0 0 24 24" fill="none" xmlns="http://www.w3.org/2000/svg">
<path d="M3.4187 15.4799C3.41512 15.41 3.41512 15.3399 3.4187 15.27C3.47361 13.5193 4.21904 11.8615 5.49219 10.6586C6.76533 9.45572 8.46274 8.8055 10.2137 8.84995C11.9672 8.80146 13.6685 9.44988 14.9449 10.6532C16.2213 11.8565 16.9688 13.5166 17.0237 15.27C17.0273 15.3399 17.0273 15.41 17.0237 15.4799H3.4187Z" fill="#FFEEEE"/>
<path d="M10.2146 9.40458C11.769 9.34805 13.2861 9.8884 14.4548 10.9148C15.6234 11.9412 16.3551 13.3759 16.4996 14.9246H3.98961C4.13365 13.3866 4.85677 11.9608 6.01256 10.9359C7.16834 9.91099 8.67041 9.36361 10.2146 9.40458ZM10.2146 8.27958C8.31139 8.2312 6.46678 8.94016 5.08587 10.2508C3.70496 11.5614 2.90066 13.3664 2.84961 15.2696C2.88369 15.5324 2.93378 15.7929 2.99961 16.0496H17.5796C17.6252 15.7916 17.6553 15.5312 17.6696 15.2696C17.6445 14.3194 17.4311 13.3837 17.0418 12.5165C16.6525 11.6494 16.095 10.8682 15.4016 10.218C14.7082 9.56788 13.8927 9.06178 13.0023 8.72904C12.112 8.3963 11.1644 8.24353 10.2146 8.27958Z" fill="#BD4949"/>
<path d="M10.2154 10.0499C12.0462 10.0499 13.5304 8.56575 13.5304 6.73492C13.5304 4.9041 12.0462 3.41992 10.2154 3.41992C8.38457 3.41992 6.90039 4.9041 6.90039 6.73492C6.90039 8.56575 8.38457 10.0499 10.2154 10.0499Z" fill="#FFEEEE"/>
<path d="M10.2151 3.9751C10.7628 3.96617 11.3008 4.12041 11.7605 4.41821C12.2203 4.716 12.581 5.14387 12.7968 5.64734C13.0127 6.15081 13.0738 6.70711 12.9724 7.24543C12.8711 7.78375 12.6118 8.27973 12.2277 8.67024C11.8435 9.06075 11.3519 9.32812 10.8153 9.43831C10.2787 9.5485 9.72148 9.49654 9.21453 9.28903C8.70758 9.08152 8.27384 8.72785 7.96853 8.27305C7.66322 7.81824 7.50015 7.28287 7.50008 6.7351C7.49998 6.01083 7.78458 5.31555 8.29249 4.79922C8.8004 4.2829 9.49091 3.98691 10.2151 3.9751ZM10.2151 2.8501C9.4467 2.8501 8.69557 3.07795 8.05669 3.50484C7.4178 3.93173 6.91985 4.53848 6.62581 5.24837C6.33176 5.95826 6.25483 6.73941 6.40473 7.49302C6.55463 8.24664 6.92464 8.93888 7.46797 9.48221C8.0113 10.0255 8.70354 10.3955 9.45715 10.5454C10.2108 10.6954 10.9919 10.6184 11.7018 10.3244C12.4117 10.0303 13.0185 9.53237 13.4453 8.89349C13.8722 8.2546 14.1001 7.50348 14.1001 6.7351C14.1001 5.70473 13.6908 4.71657 12.9622 3.98799C12.2336 3.25941 11.2454 2.8501 10.2151 2.8501Z" fill="#BD4949"/>
<path d="M6.98901 17.1456C6.98543 17.0756 6.98543 17.0055 6.98901 16.9356C7.04004 15.1823 7.78377 13.5207 9.05734 12.3146C10.3309 11.1085 12.0305 10.4562 13.784 10.5006C15.5375 10.4521 17.2388 11.1005 18.5152 12.3038C19.7916 13.5071 20.5391 15.1673 20.594 16.9206C20.5976 16.9905 20.5976 17.0606 20.594 17.1306L6.98901 17.1456Z" fill="#BFE1F1"/>
<path d="M13.7849 11.0702C15.3293 11.0251 16.8331 11.5686 17.9917 12.5908C19.1504 13.6129 19.8772 15.0372 20.0249 16.5752H7.49992C7.64807 15.0292 8.38126 13.5982 9.54954 12.575C10.7178 11.5517 12.2329 11.0134 13.7849 11.0702ZM13.7849 9.94519C11.8817 9.89681 10.0371 10.6058 8.65618 11.9164C7.27528 13.227 6.47098 15.0321 6.41992 16.9352C6.43427 17.1968 6.46433 17.4572 6.50992 17.7152H20.9999C21.0456 17.4572 21.0756 17.1968 21.0899 16.9352C21.0388 15.0427 20.2428 13.2468 18.8749 11.9379C17.5071 10.629 15.6779 9.91288 13.7849 9.94519Z" fill="#2C66BD"/>
<path d="M13.7838 11.7152C15.6146 11.7152 17.0988 10.231 17.0988 8.4002C17.0988 6.56938 15.6146 5.08521 13.7838 5.08521C11.9529 5.08521 10.4688 6.56938 10.4688 8.4002C10.4688 10.231 11.9529 11.7152 13.7838 11.7152Z" fill="#BFE1F1"/>
<path d="M13.7848 5.64C14.3306 5.64 14.8643 5.80187 15.3181 6.10514C15.772 6.40842 16.1258 6.83947 16.3347 7.34379C16.5436 7.84812 16.5982 8.40306 16.4917 8.93845C16.3852 9.47384 16.1224 9.96562 15.7364 10.3516C15.3504 10.7376 14.8586 11.0005 14.3232 11.107C13.7878 11.2135 13.2329 11.1588 12.7286 10.9499C12.2242 10.741 11.7932 10.3873 11.4899 9.93337C11.1866 9.47949 11.0248 8.94588 11.0248 8.4C11.0248 7.668 11.3156 6.96599 11.8332 6.44839C12.3508 5.93078 13.0528 5.64 13.7848 5.64ZM13.7848 4.515C13.0158 4.51203 12.2632 4.73736 11.6223 5.16244C10.9815 5.58752 10.4812 6.19323 10.1848 6.90285C9.88847 7.61248 9.80939 8.39409 9.9576 9.14869C10.1058 9.90329 10.4746 10.5969 11.0174 11.1418C11.5601 11.6866 12.2523 12.0581 13.0063 12.2092C13.7603 12.3603 14.5422 12.2843 15.253 11.9907C15.9638 11.6971 16.5714 11.1991 16.999 10.5599C17.4265 9.92074 17.6548 9.16902 17.6548 8.4C17.6567 7.88981 17.5582 7.38423 17.3648 6.91213C17.1714 6.44002 16.8869 6.01064 16.5275 5.64849C16.1681 5.28634 15.741 4.99852 15.2704 4.80146C14.7998 4.6044 14.295 4.50197 13.7848 4.5V4.515Z" fill="#2C66BD"/>
<path d="M13.6949 21.1501C16.0559 21.1501 17.9699 19.2361 17.9699 16.8751C17.9699 14.5141 16.0559 12.6001 13.6949 12.6001C11.3339 12.6001 9.41992 14.5141 9.41992 16.8751C9.41992 19.2361 11.3339 21.1501 13.6949 21.1501Z" fill="#BFE1F1"/>
<path fill-rule="evenodd" clip-rule="evenodd" d="M14.3092 16.8901C14.3121 16.7702 14.2791 16.6522 14.2143 16.5512C14.1495 16.4503 14.056 16.3711 13.9458 16.3238C13.8356 16.2766 13.7137 16.2634 13.5959 16.2861C13.4782 16.3088 13.3699 16.3662 13.2851 16.451C13.2003 16.5358 13.1428 16.6441 13.1202 16.7618C13.0975 16.8796 13.1106 17.0015 13.1579 17.1117C13.2052 17.2219 13.2844 17.3155 13.3853 17.3802C13.4862 17.445 13.6043 17.478 13.7242 17.4751C13.877 17.4678 14.0216 17.4038 14.1297 17.2956C14.2379 17.1875 14.3019 17.0429 14.3092 16.8901ZM17.0542 16.2901L16.2142 16.1401C16.164 15.9602 16.0882 15.7884 15.9892 15.6301L16.4992 14.9101C16.5236 14.8805 16.5369 14.8434 16.5369 14.8051C16.5369 14.7668 16.5236 14.7296 16.4992 14.7001L15.9142 14.1151C15.8822 14.0895 15.8426 14.0756 15.8017 14.0756C15.7608 14.0756 15.7211 14.0895 15.6892 14.1151L14.9992 14.5801C14.8385 14.4854 14.6674 14.4099 14.4892 14.3551L14.2942 13.5001C14.2801 13.4628 14.2556 13.4303 14.2238 13.4064C14.1919 13.3825 14.1539 13.3682 14.1142 13.3651H13.2742C13.2333 13.3638 13.1932 13.3765 13.1605 13.401C13.1278 13.4255 13.1044 13.4605 13.0942 13.5001L12.9292 14.3551C12.7613 14.3986 12.5999 14.4642 12.4492 14.5501L11.7442 14.0701C11.7301 14.0541 11.7128 14.0413 11.6934 14.0326C11.674 14.0238 11.6529 14.0193 11.6317 14.0193C11.6104 14.0193 11.5893 14.0238 11.5699 14.0326C11.5506 14.0413 11.5332 14.0541 11.5192 14.0701L10.9342 14.6551C10.9098 14.6846 10.8964 14.7218 10.8964 14.7601C10.8964 14.7984 10.9098 14.8355 10.9342 14.8651L11.4142 15.5551C11.3338 15.7188 11.2685 15.8895 11.2192 16.0651L10.3792 16.2151C10.3408 16.2222 10.3062 16.2426 10.2814 16.2729C10.2567 16.3031 10.2435 16.3411 10.2442 16.3801V17.2351C10.244 17.2724 10.2577 17.3084 10.2827 17.3362C10.3076 17.3639 10.342 17.3813 10.3792 17.3851L11.2192 17.5501C11.2651 17.7222 11.3413 17.8847 11.4442 18.0301L10.9642 18.7201C10.9482 18.7342 10.9354 18.7515 10.9267 18.7709C10.9179 18.7903 10.9134 18.8113 10.9134 18.8326C10.9134 18.8539 10.9179 18.8749 10.9267 18.8943C10.9354 18.9137 10.9482 18.931 10.9642 18.9451L11.5492 19.5451C11.5811 19.5706 11.6208 19.5846 11.6617 19.5846C11.7026 19.5846 11.7422 19.5706 11.7742 19.5451L12.4642 19.0651C12.6142 19.1523 12.7758 19.218 12.9442 19.2601L13.1092 20.1151C13.1163 20.1535 13.1367 20.1881 13.1669 20.2128C13.1971 20.2375 13.2351 20.2507 13.2742 20.2501H14.1142C14.1544 20.2489 14.1934 20.2353 14.2256 20.2112C14.2578 20.187 14.2818 20.1534 14.2942 20.1151L14.4442 19.2751L14.9992 19.2001L15.6892 19.6651C15.7198 19.6871 15.7565 19.6989 15.7942 19.6989C15.8318 19.6989 15.8686 19.6871 15.8992 19.6651L16.4842 19.0651C16.5001 19.051 16.5129 19.0337 16.5217 19.0143C16.5304 18.9949 16.5349 18.9739 16.5349 18.9526C16.5349 18.9313 16.5304 18.9103 16.5217 18.8909C16.5129 18.8715 16.5001 18.8542 16.4842 18.8401L16.0042 18.1201C16.1071 17.9747 16.1833 17.8122 16.2292 17.6401L17.0692 17.4751C17.1063 17.4713 17.1407 17.4539 17.1657 17.4262C17.1906 17.3984 17.2044 17.3624 17.2042 17.3251V16.5001C17.2048 16.4611 17.1916 16.4231 17.1669 16.3929C17.1422 16.3626 17.1075 16.3422 17.0692 16.3351L17.0542 16.2901ZM13.7092 18.3301C13.4125 18.3301 13.1225 18.2421 12.8758 18.0773C12.6291 17.9125 12.4369 17.6782 12.3233 17.4041C12.2098 17.13 12.1801 16.8284 12.238 16.5374C12.2959 16.2465 12.4387 15.9792 12.6485 15.7694C12.8583 15.5596 13.1256 15.4168 13.4165 15.3589C13.7075 15.301 14.0091 15.3307 14.2832 15.4443C14.5573 15.5578 14.7915 15.7501 14.9564 15.9967C15.1212 16.2434 15.2092 16.5334 15.2092 16.8301C15.2092 17.2279 15.0511 17.6094 14.7698 17.8907C14.4885 18.172 14.107 18.3301 13.7092 18.3301Z" fill="#34495E"/>
</svg>
