<svg width="24" height="24" viewBox="0 0 24 24" fill="none" xmlns="http://www.w3.org/2000/svg">
<path d="M13.5609 17.22L15.0759 16.41L15.4959 14.61V13.785L15.7209 11.985L16.2609 11.31L17.6109 10.62H16.2609L17.1909 10.455L15.7809 9.42002L15.6909 8.71502V7.42502L15.4959 5.64002L14.9409 4.98002L14.0409 4.59002L13.5609 4.54502L6.28586 4.39502L5.23586 5.13002L4.59086 5.65502V6.39002L4.69586 6.18002L4.47086 8.61002L4.59086 9.45002L2.76086 10.62L2.50586 10.86L2.76086 10.62L3.94586 11.49L4.11086 11.985L4.81586 13.8L4.77086 14.595L4.74086 15.15L4.77086 14.19V14.655L5.02586 15.81L5.46086 16.38L6.21086 16.83L6.81086 17.22H13.5609Z" fill="#EDFFFD"/>
<path d="M16.8158 10.6052C16.6653 10.5594 16.5196 10.4991 16.3808 10.4252C16.2262 10.3474 16.0845 10.2462 15.9608 10.1252C15.8467 10.0103 15.7506 9.87883 15.6758 9.7352C15.5919 9.56003 15.5362 9.37273 15.5108 9.1802C15.4938 8.91547 15.4938 8.64992 15.5108 8.3852C15.5108 8.0752 15.5108 7.6902 15.5108 7.2302V7.5002C15.5108 7.1852 15.5108 6.8702 15.5108 6.5252C15.4853 6.19999 15.3934 5.88347 15.2408 5.5952C15.0759 5.29536 14.8321 5.04637 14.5358 4.8752C14.0816 4.62381 13.5699 4.4946 13.0508 4.5002V4.2002H13.4108H13.8608L14.3408 4.3502C14.5077 4.41794 14.6642 4.50883 14.8058 4.6202C15.0263 4.78412 15.2145 4.98757 15.3608 5.2202C15.4934 5.44353 15.5896 5.68658 15.6458 5.9402C15.7072 6.22133 15.7423 6.50756 15.7508 6.7952C15.7508 7.1102 15.7508 8.0552 15.7508 8.0552C15.7445 8.38682 15.7697 8.7183 15.8258 9.0452C15.8707 9.30269 15.9789 9.54497 16.1408 9.7502C16.3204 9.95942 16.5464 10.1238 16.8008 10.2302C17.1008 10.5002 16.9658 10.6352 16.8158 10.6052Z" fill="#34495E" stroke="#2F91A3" stroke-width="0.8" stroke-miterlimit="10"/>
<path d="M7.15516 4.5001C6.67923 4.50519 6.21135 4.62345 5.79016 4.8451C5.49386 5.01627 5.25005 5.26526 5.08516 5.5651C4.9329 5.85353 4.84103 6.16997 4.81516 6.4951C4.81516 6.8251 4.81516 7.1501 4.81516 7.4701V7.2151C4.81516 7.6651 4.81516 8.0551 4.81516 8.3701C4.83222 8.63482 4.83222 8.90037 4.81516 9.1651C4.74347 9.36712 4.63685 9.55498 4.50016 9.7201C4.42578 9.86398 4.32964 9.99553 4.21516 10.1101C4.09253 10.2365 3.9508 10.3428 3.79516 10.4251L3.36016 10.6051L3.00016 10.6951C2.88016 10.6951 2.88016 10.6951 3.00016 10.7701L3.39016 10.8601C3.54064 10.9059 3.68632 10.9662 3.82516 11.0401C3.97977 11.1179 4.12145 11.2191 4.24516 11.3401C4.34992 11.4616 4.43588 11.5981 4.50016 11.7451C4.58402 11.9203 4.63971 12.1076 4.66516 12.3001C4.68214 12.5648 4.68214 12.8304 4.66516 13.0951C4.66516 13.4051 4.66516 13.7901 4.66516 14.2501V14.0101C4.66516 14.3251 4.66516 14.6401 4.66516 14.9851C4.69061 15.3103 4.78251 15.6268 4.93516 15.9151C5.10005 16.2149 5.34386 16.4639 5.64016 16.6351C6.06135 16.8568 6.52923 16.975 7.00516 16.9801V17.2651H6.64516H6.19516L5.71516 17.1151C5.54826 17.0474 5.39172 16.9565 5.25016 16.8451C5.02962 16.6812 4.84143 16.4777 4.69516 16.2451C4.58261 15.9836 4.51662 15.7044 4.50016 15.4201C4.4739 15.1357 4.4739 14.8495 4.50016 14.5651C4.50016 14.2501 4.50016 13.3051 4.50016 13.3051C4.5064 12.9735 4.48128 12.642 4.42516 12.3151C4.38028 12.0576 4.27203 11.8153 4.11016 11.6101C3.93055 11.4009 3.70454 11.2365 3.45016 11.1301C3.38515 11.0879 3.33173 11.0301 3.29474 10.962C3.25776 10.8939 3.23839 10.8176 3.23839 10.7401C3.23839 10.6626 3.25776 10.5863 3.29474 10.5182C3.33173 10.4501 3.38515 10.3923 3.45016 10.3501C3.70454 10.2437 3.93055 10.0793 4.11016 9.8701C4.27149 9.66455 4.37968 9.42241 4.42516 9.1651C4.48223 8.83327 4.50735 8.49673 4.50016 8.1601C4.50016 8.1601 4.50016 6.3001 4.50016 6.0001C4.55757 5.7516 4.65375 5.51369 4.78516 5.2951C4.93115 5.06226 5.11938 4.85876 5.34016 4.6951C5.50946 4.60361 5.69146 4.53788 5.88016 4.5001L6.36016 4.3501H6.81016H7.17016L7.15516 4.5001Z" fill="#34495E" stroke="#2F91A3" stroke-width="0.8" stroke-miterlimit="10"/>
<path d="M17.4456 19.7703L18.9606 18.9603L19.3956 17.1603V16.3203L19.6206 14.5203L20.1456 13.8453L21.4956 13.1703H20.1456L21.0756 13.0053L19.6656 11.9553L19.5906 11.2503V9.96031L19.3956 8.17531L18.8256 7.53031L17.9256 7.12531L17.4456 7.08031L10.1706 6.94531L9.12062 7.66531L8.47562 8.20531V8.92531L8.59562 8.73031L8.37062 11.1453L8.47562 11.9853L6.64562 13.1703L6.39062 13.3953L6.64562 13.1703L7.83062 14.0403L7.99562 14.5203L8.70062 16.3353L8.65562 17.1303L8.64062 17.6853L8.65562 16.7253V17.1903L8.92562 18.3453L9.34562 18.9303L10.0956 19.3653L10.6956 19.7703H17.4456Z" fill="#EDFFFD"/>
<path d="M16.9369 19.5001C17.4128 19.495 17.8807 19.3768 18.3019 19.1551C18.5982 18.9839 18.842 18.7349 19.0069 18.4351C19.1591 18.1467 19.251 17.8302 19.2769 17.5051C19.2769 17.1751 19.2769 16.8501 19.2769 16.5301V16.7701C19.2769 16.3201 19.2769 15.9301 19.2769 15.6151C19.2598 15.3504 19.2598 15.0848 19.2769 14.8201C19.3021 14.6275 19.3578 14.4402 19.4419 14.2651C19.5163 14.1212 19.6124 13.9897 19.7269 13.8751C19.8495 13.7487 19.9912 13.6424 20.1469 13.5601L20.5819 13.3801L20.9719 13.2901C21.0919 13.2901 21.0919 13.2901 20.9719 13.2151L20.5819 13.1251C20.4314 13.0793 20.2857 13.019 20.1469 12.9451C19.9923 12.8673 19.8506 12.7661 19.7269 12.6451C19.6127 12.5302 19.5167 12.3987 19.4419 12.2551C19.358 12.0799 19.3023 11.8926 19.2769 11.7001C19.2599 11.4354 19.2599 11.1698 19.2769 10.9051C19.2769 10.5951 19.2769 10.2101 19.2769 9.75011V9.99011C19.2769 9.67511 19.2769 9.36011 19.2769 9.01511C19.2514 8.68991 19.1595 8.37338 19.0069 8.08511C18.842 7.78527 18.5982 7.53628 18.3019 7.36511C17.8807 7.14346 17.4128 7.0252 16.9369 7.02011V6.73511H17.2969H17.7469L18.2269 6.88511C18.3938 6.95285 18.5503 7.04374 18.6919 7.15511C18.9124 7.31904 19.1006 7.52248 19.2469 7.75511C19.3795 7.97844 19.4757 8.22149 19.5319 8.47511C19.5933 8.75625 19.6284 9.04247 19.6369 9.33011C19.6369 9.64511 19.6369 10.5901 19.6369 10.5901C19.6306 10.9217 19.6557 11.2532 19.7119 11.5801C19.7568 11.8376 19.865 12.0799 20.0269 12.2851C20.2065 12.4943 20.4325 12.6587 20.6869 12.7651C20.7519 12.8073 20.8053 12.8651 20.8423 12.9332C20.8793 13.0013 20.8986 13.0776 20.8986 13.1551C20.8986 13.2326 20.8793 13.3089 20.8423 13.377C20.8053 13.4451 20.7519 13.5029 20.6869 13.5451C20.4325 13.6515 20.2065 13.8159 20.0269 14.0251C19.8655 14.2307 19.7574 14.4728 19.7119 14.7301C19.6557 15.057 19.6306 15.3885 19.6369 15.7201C19.6369 15.7201 19.6369 17.5801 19.5169 17.8351C19.4595 18.0836 19.3633 18.3215 19.2319 18.5401C19.0859 18.7729 18.8976 18.9764 18.6769 19.1401C18.5352 19.2513 18.3787 19.3422 18.2119 19.4101L17.7319 19.5601H17.2819H16.9219L16.9369 19.5001Z" fill="#34495E" stroke="#2F91A3" stroke-width="0.8" stroke-miterlimit="10"/>
<path d="M11.041 7.03528C10.5651 7.04038 10.0972 7.15863 9.67601 7.38028C9.39272 7.55157 9.15983 7.79481 9.00102 8.08528C8.84023 8.36688 8.73817 8.67815 8.70102 9.00028C8.70102 9.33028 8.70102 9.65528 8.70102 9.97528V9.75028C8.70102 10.2003 8.70102 10.5903 8.70102 10.9053C8.71808 11.17 8.71808 11.4356 8.70102 11.7003C8.67582 11.8929 8.62012 12.0802 8.53602 12.2553C8.46163 12.3992 8.3655 12.5307 8.25102 12.6453C8.12839 12.7716 7.98666 12.8779 7.83102 12.9603L7.39602 13.1403L7.00602 13.2303C6.88602 13.2303 6.88602 13.2303 7.00602 13.3053L7.39602 13.3953C7.5465 13.4411 7.69218 13.5013 7.83102 13.5753C7.98563 13.6531 8.1273 13.7542 8.25102 13.8753C8.36515 13.9902 8.46123 14.1217 8.53602 14.2653C8.61988 14.4404 8.67557 14.6278 8.70102 14.8203C8.718 15.085 8.718 15.3506 8.70102 15.6153C8.70102 15.9253 8.70102 16.3103 8.70102 16.7703V16.5003C8.70102 16.8153 8.70102 17.1303 8.70102 17.4753C8.72953 17.8181 8.83187 18.1507 9.00102 18.4503C9.16591 18.7501 9.40972 18.9991 9.70601 19.1703C10.1272 19.3919 10.5951 19.5102 11.071 19.5153V19.8003H10.711H10.261L9.76602 19.5003C9.59912 19.4325 9.44258 19.3416 9.30101 19.2303C9.08048 19.0664 8.89229 18.8629 8.74602 18.6303C8.62165 18.4348 8.52569 18.2227 8.46101 18.0003C8.39964 17.7191 8.36448 17.4329 8.35602 17.1453C8.35602 16.8303 8.35602 15.8853 8.35602 15.8853C8.36226 15.5537 8.33714 15.2222 8.28102 14.8953C8.23614 14.6378 8.12789 14.3955 7.96602 14.1903C7.78641 13.9811 7.5604 13.8167 7.30602 13.7103C7.24101 13.6681 7.18759 13.6103 7.1506 13.5422C7.11362 13.4741 7.09424 13.3978 7.09424 13.3203C7.09424 13.2428 7.11362 13.1665 7.1506 13.0984C7.18759 13.0303 7.24101 12.9725 7.30602 12.9303C7.5604 12.8239 7.78641 12.6595 7.96602 12.4503C8.12735 12.2447 8.23554 12.0026 8.28102 11.7453C8.33714 11.4184 8.36226 11.0869 8.35602 10.7553C8.35602 10.7553 8.35602 8.89528 8.47602 8.64028C8.53343 8.39178 8.62961 8.15387 8.76102 7.93528C8.90701 7.70244 9.09524 7.49895 9.31602 7.33528C9.45769 7.22408 9.6142 7.1332 9.78101 7.06528L10.261 6.91528H10.711H11.071L11.041 7.03528Z" fill="#34495E" stroke="#2F91A3" stroke-width="0.8" stroke-miterlimit="10"/>
</svg>
