<svg width="24" height="24" viewBox="0 0 24 24" fill="none" xmlns="http://www.w3.org/2000/svg">
<path d="M14.6992 4.0647H5.69922C4.87079 4.0647 4.19922 4.73627 4.19922 5.5647V14.5647C4.19922 15.3931 4.87079 16.0647 5.69922 16.0647H14.6992C15.5276 16.0647 16.1992 15.3931 16.1992 14.5647V5.5647C16.1992 4.73627 15.5276 4.0647 14.6992 4.0647Z" fill="#EDFFFD"/>
<path fill-rule="evenodd" clip-rule="evenodd" d="M5.69922 4.6272C5.45058 4.6272 5.21212 4.72597 5.03631 4.90178C4.86049 5.0776 4.76172 5.31606 4.76172 5.5647V14.5647C4.76172 14.8133 4.86049 15.0518 5.03631 15.2276C5.21212 15.4034 5.45058 15.5022 5.69922 15.5022H14.6992C15.0099 15.5022 15.2617 15.754 15.2617 16.0647C15.2617 16.3754 15.0099 16.6272 14.6992 16.6272H5.69922C5.15221 16.6272 4.6276 16.4099 4.24081 16.0231C3.85402 15.6363 3.63672 15.1117 3.63672 14.5647V5.5647C3.63672 5.01769 3.85402 4.49308 4.24081 4.10629C4.6276 3.7195 5.15221 3.5022 5.69922 3.5022H14.6992C15.2462 3.5022 15.7708 3.7195 16.1576 4.10629C16.5444 4.49308 16.7617 5.01769 16.7617 5.5647V8.5647C16.7617 8.87536 16.5099 9.1272 16.1992 9.1272C15.8886 9.1272 15.6367 8.87536 15.6367 8.5647V5.5647C15.6367 5.31606 15.5379 5.0776 15.3621 4.90178C15.1863 4.72597 14.9479 4.6272 14.6992 4.6272H5.69922Z" fill="#2F91A3"/>
<path d="M17.5488 6.6145H8.54883C7.7204 6.6145 7.04883 7.28607 7.04883 8.1145V17.1145C7.04883 17.9429 7.7204 18.6145 8.54883 18.6145H17.5488C18.3773 18.6145 19.0488 17.9429 19.0488 17.1145V8.1145C19.0488 7.28607 18.3773 6.6145 17.5488 6.6145Z" fill="#EDFFFD"/>
<path d="M19.7982 18.66L17.5332 20.835L17.6082 16.395L19.7982 18.66Z" fill="#2F91A3"/>
<path fill-rule="evenodd" clip-rule="evenodd" d="M17.4017 15.8718C17.6134 15.7883 17.8545 15.8405 18.0126 16.004L20.2026 18.269C20.3065 18.3765 20.3634 18.521 20.3606 18.6705C20.3578 18.82 20.2957 18.9622 20.1878 19.0658L17.9228 21.2408C17.759 21.3981 17.5165 21.4414 17.3083 21.3506C17.1001 21.2598 16.9669 21.0527 16.9708 20.8255L17.0458 16.3855C17.0496 16.1581 17.1901 15.9553 17.4017 15.8718ZM18.1477 17.7622L18.1184 19.4932L19.0015 18.6453L18.1477 17.7622Z" fill="#2F91A3"/>
<path fill-rule="evenodd" clip-rule="evenodd" d="M8.54883 7.177C8.30019 7.177 8.06173 7.27577 7.88592 7.45159C7.7101 7.62741 7.61133 7.86586 7.61133 8.1145V17.1145C7.61133 17.3631 7.7101 17.6016 7.88592 17.7774C8.06173 17.9532 8.30019 18.052 8.54883 18.052H17.5488C17.8595 18.052 18.1113 18.3038 18.1113 18.6145C18.1113 18.9252 17.8595 19.177 17.5488 19.177H8.54883C8.00182 19.177 7.47721 18.9597 7.09042 18.5729C6.70363 18.1861 6.48633 17.6615 6.48633 17.1145V8.1145C6.48633 7.56749 6.70363 7.04289 7.09042 6.65609C7.47721 6.2693 8.00182 6.052 8.54883 6.052H17.5488C18.0958 6.052 18.6204 6.2693 19.0072 6.65609C19.394 7.04289 19.6113 7.56749 19.6113 8.1145V11.1145C19.6113 11.4252 19.3595 11.677 19.0488 11.677C18.7382 11.677 18.4863 11.4252 18.4863 11.1145V8.1145C18.4863 7.86586 18.3876 7.62741 18.2117 7.45159C18.0359 7.27577 17.7975 7.177 17.5488 7.177H8.54883Z" fill="#2F91A3"/>
</svg>
