<svg width="24" height="24" viewBox="0 0 24 24" fill="none" xmlns="http://www.w3.org/2000/svg">
<path d="M15.3447 4.30518H5.80469C4.97626 4.30518 4.30469 4.97675 4.30469 5.80518V15.3452C4.30469 16.1736 4.97626 16.8452 5.80469 16.8452H15.3447C16.1731 16.8452 16.8447 16.1736 16.8447 15.3452V5.80518C16.8447 4.97675 16.1731 4.30518 15.3447 4.30518Z" fill="#FFFFD6"/>
<path fill-rule="evenodd" clip-rule="evenodd" d="M5.80469 4.86768C5.28692 4.86768 4.86719 5.28741 4.86719 5.80518V15.3452C4.86719 15.8629 5.28692 16.2827 5.80469 16.2827H15.3447C15.8625 16.2827 16.2822 15.8629 16.2822 15.3452V5.80518C16.2822 5.28741 15.8625 4.86768 15.3447 4.86768H5.80469ZM3.74219 5.80518C3.74219 4.66609 4.6656 3.74268 5.80469 3.74268H15.3447C16.4838 3.74268 17.4072 4.66609 17.4072 5.80518V15.3452C17.4072 16.4843 16.4838 17.4077 15.3447 17.4077H5.80469C4.6656 17.4077 3.74219 16.4843 3.74219 15.3452V5.80518Z" fill="#CEBD39"/>
<path d="M18.1943 7.15527H8.6543C7.82587 7.15527 7.1543 7.82685 7.1543 8.65527V18.1953C7.1543 19.0237 7.82587 19.6953 8.6543 19.6953H18.1943C19.0227 19.6953 19.6943 19.0237 19.6943 18.1953V8.65527C19.6943 7.82685 19.0227 7.15527 18.1943 7.15527Z" fill="#FFFFD6"/>
<path fill-rule="evenodd" clip-rule="evenodd" d="M8.6543 7.71777C8.13653 7.71777 7.7168 8.13751 7.7168 8.65527V18.1953C7.7168 18.713 8.13653 19.1328 8.6543 19.1328H18.1943C18.7121 19.1328 19.1318 18.713 19.1318 18.1953V8.65527C19.1318 8.13751 18.7121 7.71777 18.1943 7.71777H8.6543ZM6.5918 8.65527C6.5918 7.51619 7.51521 6.59277 8.6543 6.59277H18.1943C19.3334 6.59277 20.2568 7.51619 20.2568 8.65527V18.1953C20.2568 19.3344 19.3334 20.2578 18.1943 20.2578H8.6543C7.51521 20.2578 6.5918 19.3344 6.5918 18.1953V8.65527Z" fill="#CEBD39"/>
<path d="M12.9301 15.4051C14.297 15.4051 15.4051 14.297 15.4051 12.9301C15.4051 11.5632 14.297 10.4551 12.9301 10.4551C11.5632 10.4551 10.4551 11.5632 10.4551 12.9301C10.4551 14.297 11.5632 15.4051 12.9301 15.4051Z" fill="#FFFFD6"/>
<path fill-rule="evenodd" clip-rule="evenodd" d="M12.9301 11.0176C11.8738 11.0176 11.0176 11.8738 11.0176 12.9301C11.0176 13.9863 11.8738 14.8426 12.9301 14.8426C13.9863 14.8426 14.8426 13.9863 14.8426 12.9301C14.8426 11.8738 13.9863 11.0176 12.9301 11.0176ZM9.89258 12.9301C9.89258 11.2525 11.2525 9.89258 12.9301 9.89258C14.6076 9.89258 15.9676 11.2525 15.9676 12.9301C15.9676 14.6076 14.6076 15.9676 12.9301 15.9676C11.2525 15.9676 9.89258 14.6076 9.89258 12.9301Z" fill="#CEBD39"/>
<path fill-rule="evenodd" clip-rule="evenodd" d="M14.3776 14.3774C14.5973 14.1577 14.9535 14.1577 15.1731 14.3774L17.2731 16.4774C17.4928 16.6971 17.4928 17.0532 17.2731 17.2729C17.0535 17.4926 16.6973 17.4926 16.4776 17.2729L14.3776 15.1729C14.158 14.9532 14.158 14.5971 14.3776 14.3774Z" fill="#CEBD39"/>
</svg>
