<svg width="24" height="24" viewBox="0 0 24 24" fill="none" xmlns="http://www.w3.org/2000/svg">
<path d="M4.12541 18.7501H7.23041V21.3001C7.23016 21.4503 7.27412 21.5972 7.35681 21.7226C7.4395 21.848 7.55726 21.9462 7.69541 22.0051C7.7899 22.0191 7.88592 22.0191 7.98041 22.0051C8.17611 22.0063 8.36451 21.9309 8.50541 21.7951L12.2704 18.1651C12.4149 18.0165 12.4956 17.8174 12.4954 17.6101H3.00041C2.99635 17.7597 3.02256 17.9085 3.07747 18.0476C3.13238 18.1868 3.21485 18.3134 3.31993 18.4199C3.42501 18.5264 3.55053 18.6105 3.68895 18.6673C3.82736 18.724 3.97582 18.7522 4.12541 18.7501Z" fill="#EFA539"/>
<path d="M12.4507 17.2801C12.4521 17.0916 12.3825 16.9095 12.2557 16.7701L8.62573 13.0201C8.52106 12.9124 8.38702 12.8379 8.24031 12.8059C8.09361 12.7739 7.94073 12.7858 7.80073 12.8401C7.66614 12.891 7.5499 12.9811 7.46702 13.0987C7.38413 13.2164 7.3384 13.3562 7.33573 13.5001V16.0801H4.14073C3.99243 16.078 3.84524 16.1058 3.70783 16.1616C3.57043 16.2174 3.44561 16.3002 3.34074 16.4051C3.23587 16.5099 3.15307 16.6348 3.09725 16.7722C3.04143 16.9096 3.01371 17.0568 3.01573 17.2051L12.4507 17.2801Z" fill="#2F91A3"/>
<path d="M4.125 7.8903H7.23L7.185 10.5003C7.18574 10.6484 7.23029 10.7929 7.31304 10.9157C7.39579 11.0385 7.51304 11.134 7.65 11.1903C7.73832 11.236 7.83564 11.2616 7.935 11.2653C8.1307 11.2665 8.3191 11.1911 8.46 11.0553L12.225 7.3653C12.2979 7.29268 12.3554 7.2061 12.3941 7.11074C12.4327 7.01537 12.4518 6.91319 12.45 6.8103H3C3.00786 7.10208 3.13033 7.37901 3.34089 7.58115C3.55145 7.78329 3.83315 7.89435 4.125 7.8903Z" fill="#EFA539"/>
<path d="M12.4501 6.43516C12.4364 6.27223 12.3676 6.11881 12.2551 6.00016L8.62511 2.16016C8.51877 2.05504 8.38395 1.98339 8.23733 1.95407C8.0907 1.92474 7.9387 1.93903 7.80011 1.99516C7.66315 2.04703 7.54526 2.13943 7.46218 2.26004C7.3791 2.38064 7.33477 2.52371 7.33511 2.67016V5.26516H4.14011C3.99056 5.26111 3.84174 5.28732 3.70259 5.34223C3.56343 5.39714 3.43681 5.47961 3.33033 5.58469C3.22385 5.68977 3.13971 5.81528 3.08296 5.9537C3.02621 6.09212 2.99803 6.24058 3.00011 6.39016L12.4501 6.43516Z" fill="#2F91A3"/>
<path d="M12.6608 12.9601H15.7808V15.5251C15.774 15.6728 15.8138 15.8189 15.8945 15.9427C15.9753 16.0665 16.0929 16.1618 16.2308 16.2151C16.3296 16.2371 16.432 16.2371 16.5308 16.2151C16.7216 16.214 16.9045 16.1387 17.0408 16.0051L20.7608 12.4501C20.8383 12.3771 20.8996 12.2886 20.941 12.1905C20.9823 12.0923 21.0027 11.9866 21.0008 11.8801H11.5508C11.5623 12.1681 11.6838 12.4406 11.8904 12.6415C12.0969 12.8425 12.3726 12.9565 12.6608 12.9601Z" fill="#EFA539"/>
<path d="M21.0009 11.505C21.0023 11.3165 20.9327 11.1344 20.8059 10.995L17.1609 7.22999C17.0545 7.12487 16.9197 7.05321 16.7731 7.02389C16.6265 6.99456 16.4745 7.00885 16.3359 7.06499C16.2001 7.1186 16.0834 7.21143 16.0006 7.33165C15.9177 7.45186 15.8726 7.59402 15.8709 7.73999V10.335H12.6759C12.5276 10.333 12.3804 10.3607 12.243 10.4165C12.1056 10.4723 11.9808 10.5551 11.8759 10.66C11.771 10.7649 11.6882 10.8897 11.6324 11.0271C11.5766 11.1645 11.5489 11.3117 11.5509 11.46L21.0009 11.505Z" fill="#2F91A3"/>
</svg>
