<svg width="24" height="24" viewBox="0 0 24 24" fill="none" xmlns="http://www.w3.org/2000/svg">
<path d="M3.50977 5.87981V9.98981L7.07977 12.0598L10.6498 9.98981V5.87981L7.07977 3.80981L3.50977 5.87981Z" fill="#FEFABF"/>
<path d="M13.334 5.84968V9.97468L16.904 12.0297L20.474 9.97468V5.84968L16.904 3.79468L13.334 5.84968Z" fill="#FEFABF"/>
<path d="M8.44531 14.0544V18.1644L12.0153 20.2344L15.5853 18.1644V14.0544L12.0153 11.9844L8.44531 14.0544Z" fill="#FEFABF"/>
<path fill-rule="evenodd" clip-rule="evenodd" d="M12 15.532C12.3107 15.532 12.5625 15.7838 12.5625 16.0945V20.8045C12.5625 21.1151 12.3107 21.367 12 21.367C11.6893 21.367 11.4375 21.1151 11.4375 20.8045V16.0945C11.4375 15.7838 11.6893 15.532 12 15.532Z" fill="#B9871B"/>
<path fill-rule="evenodd" clip-rule="evenodd" d="M16.0957 13.1919C16.4064 13.1919 16.6582 13.4437 16.6582 13.7544V18.4494C16.6582 18.7601 16.4064 19.0119 16.0957 19.0119C15.785 19.0119 15.5332 18.7601 15.5332 18.4494V13.7544C15.5332 13.4437 15.785 13.1919 16.0957 13.1919Z" fill="#B9871B"/>
<path fill-rule="evenodd" clip-rule="evenodd" d="M7.9043 13.1919C8.21496 13.1919 8.4668 13.4437 8.4668 13.7544V18.4494C8.4668 18.7601 8.21496 19.0119 7.9043 19.0119C7.59364 19.0119 7.3418 18.7601 7.3418 18.4494V13.7544C7.3418 13.4437 7.59364 13.1919 7.9043 13.1919Z" fill="#B9871B"/>
<path fill-rule="evenodd" clip-rule="evenodd" d="M16.568 13.4751C16.7226 13.7446 16.6294 14.0884 16.3599 14.2429L12.2799 16.5829C12.0105 16.7375 11.6667 16.6443 11.5122 16.3748C11.3576 16.1053 11.4508 15.7616 11.7202 15.607L15.8002 13.267C16.0697 13.1125 16.4135 13.2056 16.568 13.4751Z" fill="#B9871B"/>
<path fill-rule="evenodd" clip-rule="evenodd" d="M12.4872 11.0883C12.6425 11.3573 12.5503 11.7013 12.2812 11.8566L8.20121 14.2116C7.93216 14.3669 7.58815 14.2747 7.43285 14.0057C7.27755 13.7366 7.36976 13.3926 7.63882 13.2373L11.7188 10.8823C11.9879 10.727 12.3319 10.8192 12.4872 11.0883Z" fill="#B9871B"/>
<path fill-rule="evenodd" clip-rule="evenodd" d="M16.5673 18.1684C16.7226 18.4374 16.6303 18.7814 16.3613 18.9367L12.2813 21.2917C12.0122 21.447 11.6682 21.3548 11.5129 21.0858C11.3576 20.8167 11.4498 20.4727 11.7189 20.3174L15.7989 17.9624C16.068 17.8071 16.412 17.8993 16.5673 18.1684Z" fill="#B9871B"/>
<path fill-rule="evenodd" clip-rule="evenodd" d="M7.43207 13.4751C7.58663 13.2056 7.93038 13.1125 8.19987 13.267L12.2799 15.607C12.5494 15.7616 12.6425 16.1053 12.488 16.3748C12.3334 16.6443 11.9897 16.7375 11.7202 16.5829L7.64017 14.2429C7.37068 14.0884 7.27752 13.7446 7.43207 13.4751Z" fill="#B9871B"/>
<path fill-rule="evenodd" clip-rule="evenodd" d="M11.5129 11.0883C11.6682 10.8192 12.0122 10.727 12.2813 10.8823L16.3613 13.2373C16.6303 13.3926 16.7226 13.7366 16.5673 14.0057C16.412 14.2747 16.068 14.3669 15.7989 14.2116L11.7189 11.8566C11.4498 11.7013 11.3576 11.3573 11.5129 11.0883Z" fill="#B9871B"/>
<path fill-rule="evenodd" clip-rule="evenodd" d="M7.43285 18.1684C7.58815 17.8993 7.93216 17.8071 8.20121 17.9624L12.2812 20.3174C12.5503 20.4727 12.6425 20.8167 12.4872 21.0858C12.3319 21.3548 11.9879 21.447 11.7188 21.2917L7.63882 18.9367C7.36976 18.7814 7.27755 18.4374 7.43285 18.1684Z" fill="#B9871B"/>
<path fill-rule="evenodd" clip-rule="evenodd" d="M16.9043 7.35718C17.215 7.35718 17.4668 7.60902 17.4668 7.91968V12.6297C17.4668 12.9403 17.215 13.1922 16.9043 13.1922C16.5936 13.1922 16.3418 12.9403 16.3418 12.6297V7.91968C16.3418 7.60902 16.5936 7.35718 16.9043 7.35718Z" fill="#B9871B"/>
<path fill-rule="evenodd" clip-rule="evenodd" d="M21 5.01709C21.3107 5.01709 21.5625 5.26893 21.5625 5.57959V10.2746C21.5625 10.5852 21.3107 10.8371 21 10.8371C20.6893 10.8371 20.4375 10.5852 20.4375 10.2746V5.57959C20.4375 5.26893 20.6893 5.01709 21 5.01709Z" fill="#B9871B"/>
<path fill-rule="evenodd" clip-rule="evenodd" d="M12.8105 5.01709C13.1212 5.01709 13.373 5.26893 13.373 5.57959V10.2746C13.373 10.5852 13.1212 10.8371 12.8105 10.8371C12.4999 10.8371 12.248 10.5852 12.248 10.2746V5.57959C12.248 5.26893 12.4999 5.01709 12.8105 5.01709Z" fill="#B9871B"/>
<path fill-rule="evenodd" clip-rule="evenodd" d="M21.4723 5.29959C21.6269 5.56907 21.5337 5.91283 21.2642 6.06739L17.1842 8.40739C16.9148 8.56194 16.571 8.46878 16.4164 8.19929C16.2619 7.92981 16.3551 7.58605 16.6245 7.4315L20.7045 5.0915C20.974 4.93694 21.3178 5.03011 21.4723 5.29959Z" fill="#B9871B"/>
<path fill-rule="evenodd" clip-rule="evenodd" d="M17.3915 2.91348C17.5468 3.18253 17.4546 3.52654 17.1855 3.68184L13.1055 6.03684C12.8365 6.19214 12.4924 6.09993 12.3371 5.83087C12.1818 5.56181 12.2741 5.2178 12.5431 5.0625L16.6231 2.7075C16.8922 2.5522 17.2362 2.64442 17.3915 2.91348Z" fill="#B9871B"/>
<path fill-rule="evenodd" clip-rule="evenodd" d="M21.4716 9.9938C21.6269 10.2629 21.5346 10.6069 21.2656 10.7622L17.1856 13.1172C16.9165 13.2725 16.5725 13.1803 16.4172 12.9112C16.2619 12.6421 16.3541 12.2981 16.6232 12.1428L20.7032 9.78783C20.9723 9.63253 21.3163 9.72474 21.4716 9.9938Z" fill="#B9871B"/>
<path fill-rule="evenodd" clip-rule="evenodd" d="M12.3364 5.29959C12.4909 5.03011 12.8347 4.93694 13.1042 5.0915L17.1842 7.4315C17.4537 7.58605 17.5468 7.92981 17.3923 8.19929C17.2377 8.46878 16.894 8.56194 16.6245 8.40739L12.5445 6.06739C12.275 5.91283 12.1818 5.56907 12.3364 5.29959Z" fill="#B9871B"/>
<path fill-rule="evenodd" clip-rule="evenodd" d="M16.4172 2.91348C16.5725 2.64442 16.9165 2.5522 17.1856 2.7075L21.2656 5.0625C21.5346 5.2178 21.6269 5.56181 21.4716 5.83087C21.3163 6.09993 20.9723 6.19214 20.7032 6.03684L16.6232 3.68184C16.3541 3.52654 16.2619 3.18253 16.4172 2.91348Z" fill="#B9871B"/>
<path fill-rule="evenodd" clip-rule="evenodd" d="M12.3371 9.9938C12.4924 9.72474 12.8365 9.63253 13.1055 9.78783L17.1855 12.1428C17.4546 12.2981 17.5468 12.6421 17.3915 12.9112C17.2362 13.1803 16.8922 13.2725 16.6231 13.1172L12.5431 10.7622C12.2741 10.6069 12.1818 10.2629 12.3371 9.9938Z" fill="#B9871B"/>
<path fill-rule="evenodd" clip-rule="evenodd" d="M7.0957 7.35718C7.40636 7.35718 7.6582 7.60902 7.6582 7.91968V12.6297C7.6582 12.9403 7.40636 13.1922 7.0957 13.1922C6.78504 13.1922 6.5332 12.9403 6.5332 12.6297V7.91968C6.5332 7.60902 6.78504 7.35718 7.0957 7.35718Z" fill="#B9871B"/>
<path fill-rule="evenodd" clip-rule="evenodd" d="M11.1895 5.01709C11.5001 5.01709 11.752 5.26893 11.752 5.57959V10.2746C11.752 10.5852 11.5001 10.8371 11.1895 10.8371C10.8788 10.8371 10.627 10.5852 10.627 10.2746V5.57959C10.627 5.26893 10.8788 5.01709 11.1895 5.01709Z" fill="#B9871B"/>
<path fill-rule="evenodd" clip-rule="evenodd" d="M3 5.01709C3.31066 5.01709 3.5625 5.26893 3.5625 5.57959V10.2746C3.5625 10.5852 3.31066 10.8371 3 10.8371C2.68934 10.8371 2.4375 10.5852 2.4375 10.2746V5.57959C2.4375 5.26893 2.68934 5.01709 3 5.01709Z" fill="#B9871B"/>
<path fill-rule="evenodd" clip-rule="evenodd" d="M11.6618 5.29959C11.8163 5.56907 11.7232 5.91283 11.4537 6.06739L7.3737 8.40739C7.10421 8.56194 6.76046 8.46878 6.6059 8.19929C6.45134 7.92981 6.54451 7.58605 6.81399 7.4315L10.894 5.0915C11.1635 4.93694 11.5072 5.03011 11.6618 5.29959Z" fill="#B9871B"/>
<path fill-rule="evenodd" clip-rule="evenodd" d="M7.58094 2.91348C7.73624 3.18253 7.64402 3.52654 7.37496 3.68184L3.29496 6.03684C3.02591 6.19214 2.6819 6.09993 2.5266 5.83087C2.3713 5.56181 2.46351 5.2178 2.73257 5.0625L6.81257 2.7075C7.08162 2.5522 7.42563 2.64442 7.58094 2.91348Z" fill="#B9871B"/>
<path fill-rule="evenodd" clip-rule="evenodd" d="M11.661 9.9938C11.8163 10.2629 11.7241 10.6069 11.455 10.7622L7.37504 13.1172C7.10598 13.2725 6.76198 13.1803 6.60667 12.9112C6.45137 12.6421 6.54359 12.2981 6.81265 12.1428L10.8926 9.78783C11.1617 9.63253 11.5057 9.72474 11.661 9.9938Z" fill="#B9871B"/>
<path fill-rule="evenodd" clip-rule="evenodd" d="M2.52582 5.29959C2.68038 5.03011 3.02413 4.93694 3.29362 5.0915L7.37362 7.4315C7.6431 7.58605 7.73627 7.92981 7.58171 8.19929C7.42715 8.46878 7.0834 8.56194 6.81392 8.40739L2.73392 6.06739C2.46443 5.91283 2.37127 5.56907 2.52582 5.29959Z" fill="#B9871B"/>
<path fill-rule="evenodd" clip-rule="evenodd" d="M6.60667 2.91348C6.76198 2.64442 7.10598 2.5522 7.37504 2.7075L11.455 5.0625C11.7241 5.2178 11.8163 5.56181 11.661 5.83087C11.5057 6.09993 11.1617 6.19214 10.8926 6.03684L6.81265 3.68184C6.54359 3.52654 6.45137 3.18253 6.60667 2.91348Z" fill="#B9871B"/>
<path fill-rule="evenodd" clip-rule="evenodd" d="M2.5266 9.9938C2.6819 9.72474 3.02591 9.63253 3.29496 9.78783L7.37496 12.1428C7.64402 12.2981 7.73624 12.6421 7.58094 12.9112C7.42563 13.1803 7.08162 13.2725 6.81257 13.1172L2.73257 10.7622C2.46351 10.6069 2.3713 10.2629 2.5266 9.9938Z" fill="#B9871B"/>
</svg>
