<svg width="24" height="24" viewBox="0 0 24 24" fill="none" xmlns="http://www.w3.org/2000/svg">
<path d="M13.8005 16.5147L15.3155 15.7047L15.7355 13.9047V13.0647L15.9605 11.2647L16.5005 10.5897L17.8505 9.9147H16.5005L17.4305 9.7497L16.0205 8.6997L15.9305 8.0097V6.7047L15.7355 4.9197L15.1805 4.2747L14.2805 3.8847L13.8005 3.8247L6.51047 3.6897L5.47547 4.4097L4.83047 4.9497V5.6847L4.93547 5.4747L4.71047 7.8897L4.83047 8.7297L3.00047 9.9147L2.73047 10.1397L3.00047 9.9147L4.17047 10.7847L4.35047 11.2647L5.04047 13.0797L4.99547 13.8897L4.98047 14.4297L4.99547 13.4697V13.9347L5.26547 15.0897L5.68547 15.6747L6.43547 16.1247L7.05047 16.5147H13.8005Z" fill="#E0FFFB"/>
<path d="M17.0552 9.88498C16.9047 9.8392 16.759 9.77892 16.6202 9.70498C16.4655 9.62721 16.3239 9.52602 16.2002 9.40498C16.0848 9.28554 15.9886 9.14891 15.9152 8.99998C15.8313 8.82482 15.7756 8.63751 15.7502 8.44498C15.7332 8.18025 15.7332 7.91471 15.7502 7.64998C15.7502 7.33998 15.7502 6.95498 15.7502 6.49498V6.73498C15.7502 6.41998 15.7502 6.10498 15.7502 5.75998C15.7247 5.43478 15.6328 5.11825 15.4802 4.82998C15.3153 4.53015 15.0715 4.28115 14.7752 4.10998C14.354 3.88833 13.8861 3.77007 13.4102 3.76498V3.47998H13.7702H14.2202L14.7002 3.62998C14.8671 3.69772 15.0236 3.78861 15.1652 3.89998C15.3857 4.06391 15.5739 4.26736 15.7202 4.49998C15.8528 4.72332 15.949 4.96637 16.0052 5.21998C16.0665 5.50112 16.1017 5.78735 16.1102 6.07498C16.1102 6.38998 16.1102 7.33498 16.1102 7.33498C16.1039 7.66661 16.129 7.99808 16.1852 8.32498C16.23 8.58248 16.3383 8.82476 16.5002 9.02998C16.6798 9.23921 16.9058 9.40357 17.1602 9.50998C17.3402 9.76498 17.1902 9.92998 17.0552 9.88498Z" fill="#2F91A3" stroke="#2F91A3" stroke-width="0.8" stroke-miterlimit="10"/>
<path d="M7.39602 3.78016C6.91118 3.77581 6.43252 3.88904 6.00102 4.11016C5.70472 4.28133 5.46091 4.53032 5.29602 4.83016C5.14376 5.11859 5.05189 5.43503 5.02602 5.76016C5.02602 6.09016 5.02602 6.41516 5.02602 6.73516V6.51016C5.02602 6.96016 5.02602 7.35016 5.02602 7.66516C5.04308 7.92988 5.04308 8.19543 5.02602 8.46016C4.96653 8.65386 4.87529 8.83635 4.75602 9.00016C4.69214 9.14736 4.60615 9.28393 4.50102 9.40516C4.37839 9.53152 4.23666 9.63781 4.08102 9.72016L3.64602 9.90016L3.25602 9.99016C3.13602 9.99016 3.13602 9.99016 3.25602 10.0652L3.64602 10.1552C3.7965 10.2009 3.94218 10.2612 4.08102 10.3352C4.23563 10.4129 4.3773 10.5141 4.50102 10.6352C4.61515 10.75 4.71123 10.8815 4.78602 11.0252C4.86988 11.2003 4.92557 11.3876 4.95102 11.5802C4.968 11.8449 4.968 12.1104 4.95102 12.3752C4.95102 12.6852 4.95102 13.0702 4.95102 13.5302V13.2902C4.95102 13.6052 4.95102 13.9202 4.95102 14.2652C4.97647 14.5904 5.06836 14.9069 5.22102 15.1952C5.38591 15.495 5.62972 15.744 5.92602 15.9152C6.34721 16.1368 6.81509 16.2551 7.29102 16.2602V16.5002H6.93102H6.48102L6.00102 16.3502C5.83412 16.2824 5.67758 16.1915 5.53602 16.0802C5.31548 15.9162 5.12729 15.7128 4.98102 15.4802C4.87857 15.2318 4.81776 14.9683 4.80102 14.7002C4.73964 14.419 4.70448 14.1328 4.69602 13.8452C4.69602 13.5302 4.69602 12.5852 4.69602 12.5852C4.70226 12.2535 4.67714 11.9221 4.62102 11.5952C4.57614 11.3377 4.46789 11.0954 4.30602 10.8902C4.12641 10.6809 3.9004 10.5166 3.64602 10.4102C3.58101 10.3679 3.52759 10.3102 3.4906 10.242C3.45362 10.1739 3.43424 10.0977 3.43424 10.0202C3.43424 9.94265 3.45362 9.86637 3.4906 9.79826C3.52759 9.73015 3.58101 9.67236 3.64602 9.63016C3.9004 9.52375 4.12641 9.35938 4.30602 9.15016C4.46735 8.94461 4.57554 8.70247 4.62102 8.44516C4.66936 8.1326 4.68944 7.81632 4.68102 7.50016C4.68102 7.50016 4.68102 5.64016 4.80102 5.38516C4.85843 5.13666 4.95461 4.89874 5.08602 4.68016C5.23201 4.44732 5.42024 4.24382 5.64102 4.08016C5.78269 3.96895 5.93921 3.87808 6.10602 3.81016L6.58602 3.66016H7.03602H7.39602V3.78016Z" fill="#2F91A3" stroke="#2F91A3" stroke-width="0.8" stroke-miterlimit="10"/>
<path d="M17.2204 18.825L18.7354 18.015L19.1554 16.215V15.375L19.3804 13.575L19.9204 12.9L21.2704 12.225H19.9204L20.8354 12.06L19.4404 11.025L19.3504 10.32V9.015L19.1554 7.245L18.5854 6.585L17.6854 6.195L17.2204 6.135L9.93039 6L8.89539 6.72L8.23539 7.26V7.995L8.35539 7.785L8.13039 10.2L8.23539 11.055L6.42039 12.225L6.15039 12.45L6.42039 12.225L7.59039 13.095L7.77039 13.575L8.46039 15.405L8.41539 16.2L8.40039 16.74L8.41539 15.78V16.245L8.68539 17.4L9.10539 17.985L9.85539 18.435L10.4704 18.825H17.2204Z" fill="#E0FFFB"/>
<path d="M19.6348 12.9453C19.7574 12.8189 19.8991 12.7126 20.0548 12.6303L20.4898 12.4503L20.8798 12.3603C20.9998 12.3603 20.9998 12.3603 20.8798 12.2853L20.4898 12.1953C20.3336 12.1456 20.1828 12.0803 20.0398 12.0003C19.8851 11.9225 19.7435 11.8213 19.6198 11.7003C19.5056 11.5854 19.4095 11.4539 19.3348 11.3103C19.2509 11.1351 19.1952 10.9478 19.1698 10.7553C19.1528 10.4906 19.1528 10.225 19.1698 9.96028C19.1698 9.65028 19.1698 9.26528 19.1698 8.80528V9.00028C19.1698 8.68528 19.1698 8.37028 19.1698 8.02528C19.1443 7.70008 19.0524 7.38356 18.8998 7.09528C18.6759 6.78347 18.3618 6.54786 17.9998 6.42028C17.5786 6.19863 17.1107 6.08038 16.6348 6.07528V5.79028H16.9948H17.4448L17.9998 6.00028C18.1667 6.06803 18.3232 6.15892 18.4648 6.27028C18.6853 6.43421 18.8735 6.63766 19.0198 6.87028C19.1524 7.09362 19.2486 7.33667 19.3048 7.59028C19.3661 7.87142 19.4013 8.15765 19.4098 8.44528C19.4098 8.76028 19.4098 9.70528 19.4098 9.70528C19.4035 10.0369 19.4286 10.3684 19.4848 10.6953C19.5296 10.9528 19.6379 11.1951 19.7998 11.4003C19.9794 11.6095 20.2054 11.7739 20.4598 11.8803C20.5248 11.9225 20.5782 11.9803 20.6152 12.0484C20.6522 12.1165 20.6715 12.1928 20.6715 12.2703C20.6715 12.3478 20.6522 12.4241 20.6152 12.4922C20.5782 12.5603 20.5248 12.6181 20.4598 12.6603C20.1748 12.8553 19.4998 13.0653 19.6348 12.9453Z" fill="#34495E" stroke="#2F91A3" stroke-width="0.8" stroke-miterlimit="10"/>
<path d="M10.8159 6.0901C10.34 6.09519 9.87213 6.21345 9.45094 6.4351C9.15464 6.60627 8.91084 6.85526 8.74594 7.1551C8.59368 7.44353 8.50181 7.75997 8.47594 8.0851C8.47594 8.4151 8.47594 8.7401 8.47594 9.0601V8.8201C8.47594 9.2701 8.47594 9.6601 8.47594 9.9751C8.493 10.2398 8.493 10.5054 8.47594 10.7701C8.45074 10.9627 8.39504 11.15 8.31094 11.3251C8.23656 11.469 8.14043 11.6005 8.02594 11.7151C7.86937 11.8407 7.69156 11.9372 7.50094 12.0001L7.06594 12.1801L6.67594 12.2701C6.55594 12.2701 6.55594 12.2701 6.67594 12.3451L7.06594 12.4351C7.21755 12.4905 7.36327 12.5608 7.50094 12.6451C7.65556 12.7229 7.79723 12.8241 7.92094 12.9451C8.03507 13.06 8.13116 13.1915 8.20594 13.3351C8.2898 13.5103 8.34549 13.6976 8.37094 13.8901C8.38792 14.1548 8.38792 14.4204 8.37094 14.6851C8.37094 14.9951 8.37094 15.3801 8.37094 15.8401V15.6001C8.37094 15.9151 8.37094 16.2301 8.37094 16.5751C8.39639 16.9003 8.48829 17.2168 8.64094 17.5051C8.80584 17.8049 9.04964 18.0539 9.34594 18.2251C9.76713 18.4467 10.235 18.565 10.7109 18.5701V18.8551H10.3509H9.90094L9.42094 18.7051C9.26327 18.6014 9.12175 18.4751 9.00094 18.3301C8.7804 18.1662 8.59221 17.9627 8.44594 17.7301C8.31329 17.5068 8.21709 17.2637 8.16094 17.0101C8.09956 16.729 8.06441 16.4427 8.05594 16.1551C8.05594 15.8401 8.05594 14.8951 8.05594 14.8951C8.06218 14.5635 8.03707 14.232 7.98094 13.9051C7.93606 13.6476 7.82781 13.4053 7.66594 13.2001C7.48633 12.9909 7.26032 12.8265 7.00594 12.7201C6.94093 12.6779 6.88751 12.6201 6.85053 12.552C6.81354 12.4839 6.79417 12.4076 6.79417 12.3301C6.79417 12.2526 6.81354 12.1763 6.85053 12.1082C6.88751 12.0401 6.94093 11.9823 7.00594 11.9401C7.26032 11.8337 7.48633 11.6693 7.66594 11.4601C7.82727 11.2546 7.93546 11.0124 7.98094 10.7551C8.05312 10.4247 8.09331 10.0882 8.10094 9.7501C8.10094 9.7501 8.10094 7.8901 8.22094 7.6351C8.27835 7.3866 8.37453 7.14868 8.50594 6.9301C8.63408 6.70234 8.80169 6.49918 9.00094 6.3301C9.15706 6.19259 9.33434 6.08116 9.52594 6.0001L10.0059 5.8501H10.4559H10.8159V6.0901Z" fill="#34495E" stroke="#2F91A3" stroke-width="0.8" stroke-miterlimit="10"/>
<path fill-rule="evenodd" clip-rule="evenodd" d="M11.0332 9.2251C11.0332 8.91444 11.285 8.6626 11.5957 8.6626H16.0957C16.4064 8.6626 16.6582 8.91444 16.6582 9.2251C16.6582 9.53576 16.4064 9.7876 16.0957 9.7876H11.5957C11.285 9.7876 11.0332 9.53576 11.0332 9.2251Z" fill="#2F91A3"/>
<path fill-rule="evenodd" clip-rule="evenodd" d="M11.0332 12.2251C11.0332 11.9144 11.285 11.6626 11.5957 11.6626H16.0957C16.4064 11.6626 16.6582 11.9144 16.6582 12.2251C16.6582 12.5358 16.4064 12.7876 16.0957 12.7876H11.5957C11.285 12.7876 11.0332 12.5358 11.0332 12.2251Z" fill="#2F91A3"/>
<path fill-rule="evenodd" clip-rule="evenodd" d="M11.0332 15.2251C11.0332 14.9144 11.285 14.6626 11.5957 14.6626H14.5957C14.9064 14.6626 15.1582 14.9144 15.1582 15.2251C15.1582 15.5358 14.9064 15.7876 14.5957 15.7876H11.5957C11.285 15.7876 11.0332 15.5358 11.0332 15.2251Z" fill="#2F91A3"/>
<path fill-rule="evenodd" clip-rule="evenodd" d="M15.5547 18.135C15.5547 17.7208 15.8905 17.385 16.3047 17.385H18.5547C18.9689 17.385 19.3047 17.7208 19.3047 18.135C19.3047 18.5492 18.9689 18.885 18.5547 18.885H16.3047C15.8905 18.885 15.5547 18.5492 15.5547 18.135Z" fill="#2F91A3"/>
<path d="M20.7004 18.1651L18.5254 20.2801L18.6004 15.9751L20.7004 18.1651Z" fill="#2980B9"/>
<path fill-rule="evenodd" clip-rule="evenodd" d="M18.3267 15.2768C18.6096 15.166 18.9314 15.2367 19.1417 15.456L21.2417 17.646C21.527 17.9435 21.5187 18.4155 21.2233 18.7028L19.0483 20.8178C18.8304 21.0296 18.5064 21.0891 18.2275 20.9684C17.9487 20.8478 17.7702 20.5708 17.7755 20.2671L17.8505 15.9621C17.8558 15.6583 18.0438 15.3877 18.3267 15.2768ZM19.3186 17.8077L19.307 18.474L19.6436 18.1466L19.3186 17.8077Z" fill="#2F91A3"/>
</svg>
