<svg width="24" height="24" viewBox="0 0 24 24" fill="none" xmlns="http://www.w3.org/2000/svg">
<path d="M10.6055 17.4902C14.3334 17.4902 17.3555 14.4682 17.3555 10.7402C17.3555 7.01231 14.3334 3.99023 10.6055 3.99023C6.87755 3.99023 3.85547 7.01231 3.85547 10.7402C3.85547 14.4682 6.87755 17.4902 10.6055 17.4902Z" fill="#E3F3F9"/>
<path fill-rule="evenodd" clip-rule="evenodd" d="M10.6055 4.55273C7.18821 4.55273 4.41797 7.32297 4.41797 10.7402C4.41797 14.1575 7.18821 16.9277 10.6055 16.9277C14.0227 16.9277 16.793 14.1575 16.793 10.7402C16.793 7.32297 14.0227 4.55273 10.6055 4.55273ZM3.29297 10.7402C3.29297 6.70165 6.56689 3.42773 10.6055 3.42773C14.6441 3.42773 17.918 6.70165 17.918 10.7402C17.918 14.7788 14.6441 18.0527 10.6055 18.0527C6.56689 18.0527 3.29297 14.7788 3.29297 10.7402Z" fill="#BD4949"/>
<path d="M13.3965 20.0103C17.1244 20.0103 20.1465 16.9882 20.1465 13.2603C20.1465 9.53233 17.1244 6.51025 13.3965 6.51025C9.66856 6.51025 6.64648 9.53233 6.64648 13.2603C6.64648 16.9882 9.66856 20.0103 13.3965 20.0103Z" fill="#E3F3F9"/>
<path fill-rule="evenodd" clip-rule="evenodd" d="M13.3965 7.07275C9.97922 7.07275 7.20898 9.84299 7.20898 13.2603C7.20898 16.6775 9.97922 19.4478 13.3965 19.4478C16.8137 19.4478 19.584 16.6775 19.584 13.2603C19.584 9.84299 16.8137 7.07275 13.3965 7.07275ZM6.08398 13.2603C6.08398 9.22167 9.3579 5.94775 13.3965 5.94775C17.4351 5.94775 20.709 9.22167 20.709 13.2603C20.709 17.2988 17.4351 20.5728 13.3965 20.5728C9.3579 20.5728 6.08398 17.2988 6.08398 13.2603Z" fill="#BD4949"/>
<path fill-rule="evenodd" clip-rule="evenodd" d="M13.3965 8.46021C13.8107 8.46021 14.1465 8.79599 14.1465 9.21021V13.2602C14.1465 13.6744 13.8107 14.0102 13.3965 14.0102C12.9823 14.0102 12.6465 13.6744 12.6465 13.2602V9.21021C12.6465 8.79599 12.9823 8.46021 13.3965 8.46021Z" fill="#1E50AD"/>
<path fill-rule="evenodd" clip-rule="evenodd" d="M12.6465 13.2603C12.6465 12.846 12.9823 12.5103 13.3965 12.5103H17.4465C17.8607 12.5103 18.1965 12.846 18.1965 13.2603C18.1965 13.6745 17.8607 14.0103 17.4465 14.0103H13.3965C12.9823 14.0103 12.6465 13.6745 12.6465 13.2603Z" fill="#1E50AD"/>
</svg>
