<svg width="24" height="24" viewBox="0 0 24 24" fill="none" xmlns="http://www.w3.org/2000/svg">
<path d="M16.8749 4.72485H5.48992C4.5538 4.72485 3.79492 5.48373 3.79492 6.41985V7.67985C3.79492 8.61598 4.5538 9.37485 5.48992 9.37485H16.8749C17.811 9.37485 18.5699 8.61598 18.5699 7.67985V6.41985C18.5699 5.48373 17.811 4.72485 16.8749 4.72485Z" fill="#F2F2F2"/>
<path d="M16.8902 5.29517C17.1886 5.29517 17.4747 5.41369 17.6857 5.62467C17.8967 5.83565 18.0152 6.1218 18.0152 6.42017V7.69517C18.0152 7.99354 17.8967 8.27968 17.6857 8.49066C17.4747 8.70164 17.1886 8.82017 16.8902 8.82017H5.49023C5.19187 8.82017 4.90572 8.70164 4.69474 8.49066C4.48376 8.27968 4.36523 7.99354 4.36523 7.69517V6.42017C4.36523 6.1218 4.48376 5.83565 4.69474 5.62467C4.90572 5.41369 5.19187 5.29517 5.49023 5.29517H16.8902ZM16.8902 4.17017H5.49023C4.8935 4.17017 4.3212 4.40722 3.89924 4.82918C3.47729 5.25113 3.24023 5.82343 3.24023 6.42017V7.69517C3.24023 8.2919 3.47729 8.8642 3.89924 9.28616C4.3212 9.70811 4.8935 9.94517 5.49023 9.94517H16.8902C17.487 9.94517 18.0593 9.70811 18.4812 9.28616C18.9032 8.8642 19.1402 8.2919 19.1402 7.69517V6.42017C19.1402 5.82343 18.9032 5.25113 18.4812 4.82918C18.0593 4.40722 17.487 4.17017 16.8902 4.17017Z" fill="#7B7B97"/>
<path fill-rule="evenodd" clip-rule="evenodd" d="M5.5957 6.48706H8.7457V7.61206H5.5957V6.48706Z" fill="#7B7B97"/>
<path d="M16.8749 10.5H5.48992C4.5538 10.5 3.79492 11.2589 3.79492 12.195V13.455C3.79492 14.3911 4.5538 15.15 5.48992 15.15H16.8749C17.811 15.15 18.5699 14.3911 18.5699 13.455V12.195C18.5699 11.2589 17.811 10.5 16.8749 10.5Z" fill="#F2F2F2"/>
<path d="M16.8902 11.0696C17.1886 11.0696 17.4747 11.1881 17.6857 11.3991C17.8967 11.6101 18.0152 11.8962 18.0152 12.1946V13.4996C18.0152 13.798 17.8967 14.0841 17.6857 14.2951C17.4747 14.5061 17.1886 14.6246 16.8902 14.6246H5.49023C5.19187 14.6246 4.90572 14.5061 4.69474 14.2951C4.48376 14.0841 4.36523 13.798 4.36523 13.4996V12.1946C4.36523 11.8962 4.48376 11.6101 4.69474 11.3991C4.90572 11.1881 5.19187 11.0696 5.49023 11.0696H16.8902ZM16.8902 9.94458H5.49023C4.8935 9.94458 4.3212 10.1816 3.89924 10.6036C3.47729 11.0255 3.24023 11.5978 3.24023 12.1946V13.4996C3.24023 14.0963 3.47729 14.6686 3.89924 15.0906C4.3212 15.5125 4.8935 15.7496 5.49023 15.7496H16.8902C17.487 15.7496 18.0593 15.5125 18.4812 15.0906C18.9032 14.6686 19.1402 14.0963 19.1402 13.4996V12.1946C19.1402 11.5978 18.9032 11.0255 18.4812 10.6036C18.0593 10.1816 17.487 9.94458 16.8902 9.94458Z" fill="#7B7B97"/>
<path fill-rule="evenodd" clip-rule="evenodd" d="M5.5957 12.2622H8.7457V13.3872H5.5957V12.2622Z" fill="#7B7B97"/>
<path d="M5.49081 16.2749H16.8908C17.1147 16.2768 17.336 16.3231 17.5418 16.4111C17.7477 16.499 17.9342 16.6268 18.0904 16.7872C18.2466 16.9476 18.3694 17.1374 18.4519 17.3455C18.5344 17.5536 18.5748 17.7761 18.5708 17.9999V19.2749C18.5768 19.4993 18.5378 19.7226 18.4561 19.9316C18.3743 20.1407 18.2516 20.3312 18.0949 20.492C17.9383 20.6528 17.7511 20.7806 17.5443 20.8679C17.3375 20.9551 17.1153 21 16.8908 20.9999H5.49081C5.27019 20.9999 5.05173 20.9564 4.84791 20.872C4.64408 20.7876 4.45888 20.6638 4.30287 20.5078C4.14687 20.3518 4.02312 20.1666 3.9387 19.9628C3.85427 19.759 3.81081 19.5405 3.81081 19.3199V17.9999C3.80684 17.7761 3.84726 17.5536 3.92972 17.3455C4.01218 17.1374 4.13507 16.9476 4.29127 16.7872C4.44747 16.6268 4.6339 16.499 4.83978 16.4111C5.04567 16.3231 5.26694 16.2768 5.49081 16.2749Z" fill="#F2F2F2"/>
<path d="M16.8902 16.845C17.0393 16.8469 17.1864 16.8785 17.3232 16.9377C17.4599 16.997 17.5835 17.0829 17.6868 17.1904C17.79 17.2978 17.8709 17.4247 17.9248 17.5637C17.9786 17.7027 18.0042 17.851 18.0002 18V19.275C18.0002 19.5734 17.8817 19.8595 17.6707 20.0705C17.4597 20.2815 17.1736 20.4 16.8752 20.4H5.49023C5.19187 20.4 4.90572 20.2815 4.69474 20.0705C4.48376 19.8595 4.36523 19.5734 4.36523 19.275V18C4.36523 17.7016 4.48376 17.4155 4.69474 17.2045C4.90572 16.9935 5.19187 16.875 5.49023 16.875H16.8902V16.845ZM16.8902 15.75H5.49023C4.8935 15.75 4.3212 15.9871 3.89924 16.409C3.47729 16.831 3.24023 17.4033 3.24023 18V19.275C3.24023 19.8717 3.47729 20.444 3.89924 20.866C4.3212 21.2879 4.8935 21.525 5.49023 21.525H16.8902C17.487 21.525 18.0593 21.2879 18.4812 20.866C18.9032 20.444 19.1402 19.8717 19.1402 19.275V18C19.1402 17.4033 18.9032 16.831 18.4812 16.409C18.0593 15.9871 17.487 15.75 16.8902 15.75Z" fill="#7B7B97"/>
<path fill-rule="evenodd" clip-rule="evenodd" d="M5.5957 18.0374H8.7457V19.1624H5.5957V18.0374Z" fill="#7B7B97"/>
<path fill-rule="evenodd" clip-rule="evenodd" d="M20.6924 2.57222C20.912 2.79189 20.912 3.14805 20.6924 3.36772L18.6224 5.43772C18.4027 5.65739 18.0465 5.65739 17.8269 5.43772C17.6072 5.21805 17.6072 4.86189 17.8269 4.64222L19.8969 2.57222C20.1165 2.35255 20.4727 2.35255 20.6924 2.57222Z" fill="#7B7B97"/>
<path fill-rule="evenodd" clip-rule="evenodd" d="M17.1973 2.50488C17.1973 2.19422 17.4491 1.94238 17.7598 1.94238H20.7598C21.0704 1.94238 21.3223 2.19422 21.3223 2.50488C21.3223 2.81554 21.0704 3.06738 20.7598 3.06738H17.7598C17.4491 3.06738 17.1973 2.81554 17.1973 2.50488Z" fill="#7B7B97"/>
<path d="M20.7598 5.50488V2.50488" stroke="#7B7B97" stroke-width="0.75" stroke-linecap="round" stroke-linejoin="round"/>
</svg>
