<svg width="24" height="24" viewBox="0 0 24 24" fill="none" xmlns="http://www.w3.org/2000/svg">
<path d="M4.50031 17.5199C4.25487 17.516 4.02056 17.4168 3.84698 17.2432C3.6734 17.0697 3.57418 16.8353 3.57031 16.5899V4.5899C3.57028 4.34185 3.66778 4.10373 3.84177 3.92693C4.01576 3.75014 4.25229 3.64884 4.50031 3.6449L16.5003 3.5249C16.6237 3.52489 16.7459 3.54943 16.8597 3.5971C16.9735 3.64477 17.0767 3.71462 17.1633 3.80257C17.2498 3.89053 17.318 3.99483 17.3639 4.1094C17.4097 4.22397 17.4323 4.34652 17.4303 4.4699V16.4699C17.4303 16.718 17.3328 16.9561 17.1589 17.1329C16.9849 17.3097 16.7483 17.411 16.5003 17.4149L4.50031 17.5199Z" fill="#FFEFD6"/>
<path d="M16.5 4.08C16.5995 4.08 16.6948 4.11951 16.7652 4.18984C16.8355 4.26016 16.875 4.35554 16.875 4.455V16.455C16.8711 16.5558 16.8283 16.6512 16.7556 16.7211C16.6829 16.7911 16.5859 16.8301 16.485 16.83L4.5 16.95C4.40054 16.95 4.30516 16.9105 4.23484 16.8402C4.16451 16.7698 4.125 16.6745 4.125 16.575V4.575C4.12871 4.47673 4.16941 4.38349 4.23895 4.31395C4.30849 4.24441 4.40173 4.20371 4.5 4.2L16.5 4.08ZM16.5 3L4.5 3.075C4.10218 3.075 3.72064 3.23304 3.43934 3.51434C3.15804 3.79564 3 4.17718 3 4.575V16.575C3 16.9728 3.15804 17.3544 3.43934 17.6357C3.72064 17.917 4.10218 18.075 4.5 18.075L16.5 18C16.8978 18 17.2794 17.842 17.5607 17.5607C17.842 17.2794 18 16.8978 18 16.5V4.5C18 4.10218 17.842 3.72064 17.5607 3.43934C17.2794 3.15804 16.8978 3 16.5 3Z" fill="#EFA539"/>
<path fill-rule="evenodd" clip-rule="evenodd" d="M17.6326 7.45014C17.6355 7.76079 17.386 8.01494 17.0753 8.0178L4.04033 8.1378C3.72969 8.14066 3.47554 7.89115 3.47268 7.5805C3.46982 7.26985 3.71933 7.01571 4.02998 7.01285L17.065 6.89285C17.3756 6.88999 17.6298 7.1395 17.6326 7.45014Z" fill="#EFA539"/>
<path d="M19.5153 6.13477H7.50031C6.98669 6.13477 6.57031 6.55114 6.57031 7.06477V19.5448C6.57031 20.0584 6.98669 20.4748 7.50031 20.4748H19.5153C20.0289 20.4748 20.4453 20.0584 20.4453 19.5448V7.06477C20.4453 6.55114 20.0289 6.13477 19.5153 6.13477Z" fill="#FFEFD6"/>
<path d="M19.5 6.70532C19.5995 6.70532 19.6948 6.74483 19.7652 6.81516C19.8355 6.88548 19.875 6.98087 19.875 7.08032V19.5003C19.875 19.5998 19.8355 19.6952 19.7652 19.7655C19.6948 19.8358 19.5995 19.8753 19.5 19.8753H7.5C7.40054 19.8753 7.30516 19.8358 7.23483 19.7655C7.16451 19.6952 7.125 19.5998 7.125 19.5003V7.08032C7.125 6.98087 7.16451 6.88548 7.23483 6.81516C7.30516 6.74483 7.40054 6.70532 7.5 6.70532H19.5ZM19.5 5.58032H7.5C7.10218 5.58032 6.72064 5.73836 6.43934 6.01966C6.15804 6.30097 6 6.6825 6 7.08032V19.5003C6 19.8981 6.15804 20.2797 6.43934 20.561C6.72064 20.8423 7.10218 21.0003 7.5 21.0003H19.5C19.8978 21.0003 20.2794 20.8423 20.5607 20.561C20.842 20.2797 21 19.8981 21 19.5003V7.08032C21 6.6825 20.842 6.30097 20.5607 6.01966C20.2794 5.73836 19.8978 5.58032 19.5 5.58032Z" fill="#EFA539"/>
<path d="M10.8606 18.81H10.1706C9.81988 18.2904 9.54229 17.7252 9.34556 17.13C9.16288 16.5833 9.06672 16.0114 9.06056 15.435C9.05893 14.7732 9.18103 14.1169 9.42056 13.5C9.61196 12.97 9.86895 12.4661 10.1856 12H10.8606C10.5836 12.5983 10.3627 13.221 10.2006 13.86C10.0122 14.7704 10.0122 15.7096 10.2006 16.62C10.2697 17.0124 10.37 17.3986 10.5006 17.775C10.5006 18.015 10.6206 18.36 10.8606 18.81Z" fill="#AB6A0C"/>
<path d="M11.0996 18L12.8546 15.315L11.2646 12.855H12.4796L13.4996 14.505L14.5046 12.855H15.7046L14.1296 15.345L15.8846 18H14.6396L13.4996 16.215L12.3446 18H11.0996Z" fill="#AB6A0C"/>
<path d="M16.1406 18.81C16.3306 18.39 16.4656 18.07 16.5456 17.85C16.6349 17.5994 16.71 17.344 16.7706 17.085C16.8349 16.8128 16.885 16.5374 16.9206 16.26C16.9376 15.9903 16.9376 15.7197 16.9206 15.45C16.9237 14.9147 16.8633 14.381 16.7406 13.86C16.5989 13.2227 16.398 12.6 16.1406 12H16.8156C17.1638 12.4941 17.4415 13.0343 17.6406 13.605C17.8365 14.1592 17.9379 14.7423 17.9406 15.33C17.9359 15.8627 17.8602 16.3923 17.7156 16.905C17.524 17.5664 17.2305 18.1939 16.8456 18.765L16.1406 18.81Z" fill="#AB6A0C"/>
<path fill-rule="evenodd" clip-rule="evenodd" d="M20.0252 10.4473H7.03516V9.32227H20.0252V10.4473Z" fill="#EFA539"/>
</svg>
