<svg width="24" height="24" viewBox="0 0 24 24" fill="none" xmlns="http://www.w3.org/2000/svg">
<path d="M14.4146 3.6001H5.09961C4.27118 3.6001 3.59961 4.27167 3.59961 5.1001V14.4151C3.59961 15.2435 4.27118 15.9151 5.09961 15.9151H14.4146C15.243 15.9151 15.9146 15.2435 15.9146 14.4151V5.1001C15.9146 4.27167 15.243 3.6001 14.4146 3.6001Z" fill="#DEF4FD"/>
<path d="M7.88969 10.6804H5.62469C5.10278 10.6804 4.67969 11.1035 4.67969 11.6254V13.8904C4.67969 14.4123 5.10278 14.8354 5.62469 14.8354H7.88969C8.4116 14.8354 8.83469 14.4123 8.83469 13.8904V11.6254C8.83469 11.1035 8.4116 10.6804 7.88969 10.6804Z" fill="#DEF4FD"/>
<path d="M7.88938 11.2349C7.98883 11.2349 8.08421 11.2744 8.15454 11.3447C8.22487 11.415 8.26438 11.5104 8.26438 11.6099V13.8899C8.26438 13.9893 8.22487 14.0847 8.15454 14.155C8.08421 14.2254 7.98883 14.2649 7.88938 14.2649H5.60938C5.50992 14.2649 5.41454 14.2254 5.34421 14.155C5.27388 14.0847 5.23438 13.9893 5.23438 13.8899V11.6099C5.23438 11.5104 5.27388 11.415 5.34421 11.3447C5.41454 11.2744 5.50992 11.2349 5.60938 11.2349H7.88938ZM7.88938 10.1099H5.60938C5.21155 10.1099 4.83002 10.2679 4.54871 10.5492C4.26741 10.8305 4.10938 11.212 4.10938 11.6099V13.8899C4.10938 14.2877 4.26741 14.6692 4.54871 14.9505C4.83002 15.2318 5.21155 15.3899 5.60938 15.3899H7.88938C8.2872 15.3899 8.66873 15.2318 8.95004 14.9505C9.23134 14.6692 9.38938 14.2877 9.38938 13.8899V11.6099C9.38938 11.212 9.23134 10.8305 8.95004 10.5492C8.66873 10.2679 8.2872 10.1099 7.88938 10.1099Z" fill="#2195E7"/>
<path d="M7.88969 4.68042H5.62469C5.10278 4.68042 4.67969 5.10351 4.67969 5.62542V7.89042C4.67969 8.41233 5.10278 8.83542 5.62469 8.83542H7.88969C8.4116 8.83542 8.83469 8.41233 8.83469 7.89042V5.62542C8.83469 5.10351 8.4116 4.68042 7.88969 4.68042Z" fill="#DEF4FD"/>
<path d="M7.88938 5.23486C7.98883 5.23486 8.08421 5.27437 8.15454 5.3447C8.22487 5.41502 8.26438 5.51041 8.26438 5.60986V7.88986C8.26438 7.98932 8.22487 8.0847 8.15454 8.15503C8.08421 8.22535 7.98883 8.26486 7.88938 8.26486H5.60938C5.50992 8.26486 5.41454 8.22535 5.34421 8.15503C5.27388 8.0847 5.23438 7.98932 5.23438 7.88986V5.60986C5.23438 5.51041 5.27388 5.41502 5.34421 5.3447C5.41454 5.27437 5.50992 5.23486 5.60938 5.23486H7.88938ZM7.88938 4.10986H5.60938C5.21155 4.10986 4.83002 4.2679 4.54871 4.5492C4.26741 4.83051 4.10938 5.21204 4.10938 5.60986V7.88986C4.10938 8.28769 4.26741 8.66922 4.54871 8.95052C4.83002 9.23183 5.21155 9.38986 5.60938 9.38986H7.88938C8.2872 9.38986 8.66873 9.23183 8.95004 8.95052C9.23134 8.66922 9.38938 8.28769 9.38938 7.88986V5.60986C9.38938 5.21204 9.23134 4.83051 8.95004 4.5492C8.66873 4.2679 8.2872 4.10986 7.88938 4.10986Z" fill="#2195E7"/>
<path d="M13.8897 10.6804H11.6247C11.1028 10.6804 10.6797 11.1035 10.6797 11.6254V13.8904C10.6797 14.4123 11.1028 14.8354 11.6247 14.8354H13.8897C14.4116 14.8354 14.8347 14.4123 14.8347 13.8904V11.6254C14.8347 11.1035 14.4116 10.6804 13.8897 10.6804Z" fill="#DEF4FD"/>
<path d="M13.8894 11.2349C13.9888 11.2349 14.0842 11.2744 14.1545 11.3447C14.2249 11.415 14.2644 11.5104 14.2644 11.6099V13.8899C14.2644 13.9893 14.2249 14.0847 14.1545 14.155C14.0842 14.2254 13.9888 14.2649 13.8894 14.2649H11.6094C11.5099 14.2649 11.4145 14.2254 11.3442 14.155C11.2739 14.0847 11.2344 13.9893 11.2344 13.8899V11.6099C11.2344 11.5104 11.2739 11.415 11.3442 11.3447C11.4145 11.2744 11.5099 11.2349 11.6094 11.2349H13.8894ZM13.8894 10.1099H11.6094C11.2115 10.1099 10.83 10.2679 10.5487 10.5492C10.2674 10.8305 10.1094 11.212 10.1094 11.6099V13.8899C10.1094 14.2877 10.2674 14.6692 10.5487 14.9505C10.83 15.2318 11.2115 15.3899 11.6094 15.3899H13.8894C14.2872 15.3899 14.6687 15.2318 14.95 14.9505C15.2313 14.6692 15.3894 14.2877 15.3894 13.8899V11.6099C15.3894 11.212 15.2313 10.8305 14.95 10.5492C14.6687 10.2679 14.2872 10.1099 13.8894 10.1099Z" fill="#2195E7"/>
<path d="M13.8897 4.68042H11.6247C11.1028 4.68042 10.6797 5.10351 10.6797 5.62542V7.89042C10.6797 8.41233 11.1028 8.83542 11.6247 8.83542H13.8897C14.4116 8.83542 14.8347 8.41233 14.8347 7.89042V5.62542C14.8347 5.10351 14.4116 4.68042 13.8897 4.68042Z" fill="#DEF4FD"/>
<path d="M13.8894 5.23486C13.9888 5.23486 14.0842 5.27437 14.1545 5.3447C14.2249 5.41502 14.2644 5.51041 14.2644 5.60986V7.88986C14.2644 7.98932 14.2249 8.0847 14.1545 8.15503C14.0842 8.22535 13.9888 8.26486 13.8894 8.26486H11.6094C11.5099 8.26486 11.4145 8.22535 11.3442 8.15503C11.2739 8.0847 11.2344 7.98932 11.2344 7.88986V5.60986C11.2344 5.51041 11.2739 5.41502 11.3442 5.3447C11.4145 5.27437 11.5099 5.23486 11.6094 5.23486H13.8894ZM13.8894 4.10986H11.6094C11.2115 4.10986 10.83 4.2679 10.5487 4.5492C10.2674 4.83051 10.1094 5.21204 10.1094 5.60986V7.88986C10.1094 8.28769 10.2674 8.66922 10.5487 8.95052C10.83 9.23183 11.2115 9.38986 11.6094 9.38986H13.8894C14.2872 9.38986 14.6687 9.23183 14.95 8.95052C15.2313 8.66922 15.3894 8.28769 15.3894 7.88986V5.60986C15.3894 5.21204 15.2313 4.83051 14.95 4.5492C14.6687 4.2679 14.2872 4.10986 13.8894 4.10986Z" fill="#2195E7"/>
<path d="M18.9146 8.1001H9.59961C8.77118 8.1001 8.09961 8.77167 8.09961 9.6001V18.9151C8.09961 19.7435 8.77118 20.4151 9.59961 20.4151H18.9146C19.743 20.4151 20.4146 19.7435 20.4146 18.9151V9.6001C20.4146 8.77167 19.743 8.1001 18.9146 8.1001Z" fill="#DEF4FD"/>
<path d="M12.3897 15.1804H10.1247C9.60278 15.1804 9.17969 15.6035 9.17969 16.1254V18.3904C9.17969 18.9123 9.60278 19.3354 10.1247 19.3354H12.3897C12.9116 19.3354 13.3347 18.9123 13.3347 18.3904V16.1254C13.3347 15.6035 12.9116 15.1804 12.3897 15.1804Z" fill="#DEF4FD"/>
<path d="M12.3894 15.7349C12.4888 15.7349 12.5842 15.7744 12.6545 15.8447C12.7249 15.915 12.7644 16.0104 12.7644 16.1099V18.3899C12.7644 18.4893 12.7249 18.5847 12.6545 18.655C12.5842 18.7254 12.4888 18.7649 12.3894 18.7649H10.1094C10.0099 18.7649 9.91454 18.7254 9.84421 18.655C9.77388 18.5847 9.73437 18.4893 9.73437 18.3899V16.1099C9.73437 16.0104 9.77388 15.915 9.84421 15.8447C9.91454 15.7744 10.0099 15.7349 10.1094 15.7349H12.3894ZM12.3894 14.6099H10.1094C9.71155 14.6099 9.33002 14.7679 9.04871 15.0492C8.76741 15.3305 8.60938 15.712 8.60938 16.1099V18.3899C8.60938 18.7877 8.76741 19.1692 9.04871 19.4505C9.33002 19.7318 9.71155 19.8899 10.1094 19.8899H12.3894C12.7872 19.8899 13.1687 19.7318 13.45 19.4505C13.7313 19.1692 13.8894 18.7877 13.8894 18.3899V16.1099C13.8894 15.712 13.7313 15.3305 13.45 15.0492C13.1687 14.7679 12.7872 14.6099 12.3894 14.6099Z" fill="#2195E7"/>
<path d="M12.3897 9.18042H10.1247C9.60278 9.18042 9.17969 9.60351 9.17969 10.1254V12.3904C9.17969 12.9123 9.60278 13.3354 10.1247 13.3354H12.3897C12.9116 13.3354 13.3347 12.9123 13.3347 12.3904V10.1254C13.3347 9.60351 12.9116 9.18042 12.3897 9.18042Z" fill="#DEF4FD"/>
<path d="M12.3894 9.73486C12.4888 9.73486 12.5842 9.77437 12.6545 9.8447C12.7249 9.91503 12.7644 10.0104 12.7644 10.1099V12.3899C12.7644 12.4893 12.7249 12.5847 12.6545 12.655C12.5842 12.7254 12.4888 12.7649 12.3894 12.7649H10.1094C10.0099 12.7649 9.91454 12.7254 9.84421 12.655C9.77388 12.5847 9.73437 12.4893 9.73437 12.3899V10.1099C9.73437 10.0104 9.77388 9.91503 9.84421 9.8447C9.91454 9.77437 10.0099 9.73486 10.1094 9.73486H12.3894ZM12.3894 8.60986H10.1094C9.71155 8.60986 9.33002 8.7679 9.04871 9.0492C8.76741 9.33051 8.60938 9.71204 8.60938 10.1099V12.3899C8.60938 12.7877 8.76741 13.1692 9.04871 13.4505C9.33002 13.7318 9.71155 13.8899 10.1094 13.8899H12.3894C12.7872 13.8899 13.1687 13.7318 13.45 13.4505C13.7313 13.1692 13.8894 12.7877 13.8894 12.3899V10.1099C13.8894 9.71204 13.7313 9.33051 13.45 9.0492C13.1687 8.7679 12.7872 8.60986 12.3894 8.60986Z" fill="#2195E7"/>
<path d="M18.3897 15.1804H16.1247C15.6028 15.1804 15.1797 15.6035 15.1797 16.1254V18.3904C15.1797 18.9123 15.6028 19.3354 16.1247 19.3354H18.3897C18.9116 19.3354 19.3347 18.9123 19.3347 18.3904V16.1254C19.3347 15.6035 18.9116 15.1804 18.3897 15.1804Z" fill="#DEF4FD"/>
<path d="M18.3894 15.7349C18.4888 15.7349 18.5842 15.7744 18.6545 15.8447C18.7249 15.915 18.7644 16.0104 18.7644 16.1099V18.3899C18.7644 18.4893 18.7249 18.5847 18.6545 18.655C18.5842 18.7254 18.4888 18.7649 18.3894 18.7649H16.1094C16.0099 18.7649 15.9145 18.7254 15.8442 18.655C15.7739 18.5847 15.7344 18.4893 15.7344 18.3899V16.1099C15.7344 16.0104 15.7739 15.915 15.8442 15.8447C15.9145 15.7744 16.0099 15.7349 16.1094 15.7349H18.3894ZM18.3894 14.6099H16.1094C15.7116 14.6099 15.33 14.7679 15.0487 15.0492C14.7674 15.3305 14.6094 15.712 14.6094 16.1099V18.3899C14.6094 18.7877 14.7674 19.1692 15.0487 19.4505C15.33 19.7318 15.7116 19.8899 16.1094 19.8899H18.3894C18.7872 19.8899 19.1687 19.7318 19.45 19.4505C19.7313 19.1692 19.8894 18.7877 19.8894 18.3899V16.1099C19.8894 15.712 19.7313 15.3305 19.45 15.0492C19.1687 14.7679 18.7872 14.6099 18.3894 14.6099Z" fill="#2195E7"/>
<path d="M18.3897 9.18042H16.1247C15.6028 9.18042 15.1797 9.60351 15.1797 10.1254V12.3904C15.1797 12.9123 15.6028 13.3354 16.1247 13.3354H18.3897C18.9116 13.3354 19.3347 12.9123 19.3347 12.3904V10.1254C19.3347 9.60351 18.9116 9.18042 18.3897 9.18042Z" fill="#DEF4FD"/>
<path d="M18.3894 9.73486C18.4888 9.73486 18.5842 9.77437 18.6545 9.8447C18.7249 9.91503 18.7644 10.0104 18.7644 10.1099V12.3899C18.7644 12.4893 18.7249 12.5847 18.6545 12.655C18.5842 12.7254 18.4888 12.7649 18.3894 12.7649H16.1094C16.0099 12.7649 15.9145 12.7254 15.8442 12.655C15.7739 12.5847 15.7344 12.4893 15.7344 12.3899V10.1099C15.7344 10.0104 15.7739 9.91503 15.8442 9.8447C15.9145 9.77437 16.0099 9.73486 16.1094 9.73486H18.3894ZM18.3894 8.60986H16.1094C15.7116 8.60986 15.33 8.7679 15.0487 9.0492C14.7674 9.33051 14.6094 9.71204 14.6094 10.1099V12.3899C14.6094 12.7877 14.7674 13.1692 15.0487 13.4505C15.33 13.7318 15.7116 13.8899 16.1094 13.8899H18.3894C18.7872 13.8899 19.1687 13.7318 19.45 13.4505C19.7313 13.1692 19.8894 12.7877 19.8894 12.3899V10.1099C19.8894 9.71204 19.7313 9.33051 19.45 9.0492C19.1687 8.7679 18.7872 8.60986 18.3894 8.60986Z" fill="#2195E7"/>
</svg>
