<svg width="24" height="24" viewBox="0 0 24 24" fill="none" xmlns="http://www.w3.org/2000/svg">
<path d="M3.53906 8.22001V13.92L8.45906 16.755L13.3941 13.92V8.22001L8.45906 5.38501L3.53906 8.22001Z" fill="#FEFABF"/>
<path fill-rule="evenodd" clip-rule="evenodd" d="M8.46094 10.5222C8.7716 10.5222 9.02344 10.7741 9.02344 11.0847V16.9797C9.02344 17.2904 8.7716 17.5422 8.46094 17.5422C8.15028 17.5422 7.89844 17.2904 7.89844 16.9797V11.0847C7.89844 10.7741 8.15028 10.5222 8.46094 10.5222Z" fill="#B9871B"/>
<path fill-rule="evenodd" clip-rule="evenodd" d="M13.5898 7.56763C13.9005 7.56763 14.1523 7.81947 14.1523 8.13013V14.0251C14.1523 14.3358 13.9005 14.5876 13.5898 14.5876C13.2792 14.5876 13.0273 14.3358 13.0273 14.0251V8.13013C13.0273 7.81947 13.2792 7.56763 13.5898 7.56763Z" fill="#B9871B"/>
<path fill-rule="evenodd" clip-rule="evenodd" d="M3.33008 7.56763C3.64074 7.56763 3.89258 7.81947 3.89258 8.13013V14.0251C3.89258 14.3358 3.64074 14.5876 3.33008 14.5876C3.01942 14.5876 2.76758 14.3358 2.76758 14.0251V8.13013C2.76758 7.81947 3.01942 7.56763 3.33008 7.56763Z" fill="#B9871B"/>
<path fill-rule="evenodd" clip-rule="evenodd" d="M14.0614 7.84797C14.2171 8.11677 14.1255 8.46093 13.8567 8.61668L8.7567 11.5717C8.4879 11.7274 8.14374 11.6358 7.988 11.367C7.83225 11.0982 7.9239 10.754 8.1927 10.5983L13.2927 7.64327C13.5615 7.48753 13.9057 7.57917 14.0614 7.84797Z" fill="#B9871B"/>
<path fill-rule="evenodd" clip-rule="evenodd" d="M8.94653 4.8797C9.10134 5.14904 9.00849 5.49288 8.73915 5.64769L3.62415 8.58769C3.35482 8.7425 3.01097 8.64966 2.85616 8.38032C2.70135 8.11098 2.7942 7.76714 3.06354 7.61233L8.17854 4.67233C8.44787 4.51752 8.79172 4.61036 8.94653 4.8797Z" fill="#B9871B"/>
<path fill-rule="evenodd" clip-rule="evenodd" d="M14.0614 13.7432C14.2172 14.012 14.1255 14.3562 13.8567 14.5119L8.7567 17.4669C8.48791 17.6227 8.14374 17.531 7.988 17.2622C7.83225 16.9934 7.9239 16.6493 8.1927 16.4935L13.2927 13.5385C13.5615 13.3828 13.9057 13.4744 14.0614 13.7432Z" fill="#B9871B"/>
<path fill-rule="evenodd" clip-rule="evenodd" d="M2.85678 7.84859C3.01218 7.5796 3.35623 7.48751 3.62523 7.64291L8.74023 10.5979C9.00922 10.7533 9.10131 11.0974 8.94591 11.3664C8.7905 11.6354 8.44646 11.7274 8.17746 11.572L3.06246 8.61704C2.79346 8.46164 2.70138 8.11759 2.85678 7.84859Z" fill="#B9871B"/>
<path fill-rule="evenodd" clip-rule="evenodd" d="M7.98738 4.87908C8.14253 4.60994 8.48649 4.51753 8.75563 4.67268L13.8556 7.61268C14.1248 7.76784 14.2172 8.11179 14.062 8.38094C13.9069 8.65008 13.5629 8.74249 13.2938 8.58733L8.19378 5.64733C7.92463 5.49218 7.83223 5.14822 7.98738 4.87908Z" fill="#B9871B"/>
<path fill-rule="evenodd" clip-rule="evenodd" d="M2.85678 13.7439C3.01218 13.4749 3.35623 13.3828 3.62523 13.5382L8.74023 16.4932C9.00922 16.6486 9.10131 16.9926 8.94591 17.2616C8.7905 17.5306 8.44646 17.6227 8.17746 17.4673L3.06246 14.5123C2.79346 14.3569 2.70138 14.0129 2.85678 13.7439Z" fill="#B9871B"/>
<path d="M5.6543 9.41972V15.1047L10.5743 17.9547L15.4943 15.1047V9.41972L10.5743 6.58472L5.6543 9.41972Z" fill="#FEFABF"/>
<path fill-rule="evenodd" clip-rule="evenodd" d="M10.5742 11.7224C10.8849 11.7224 11.1367 11.9743 11.1367 12.2849V18.1799C11.1367 18.4906 10.8849 18.7424 10.5742 18.7424C10.2636 18.7424 10.0117 18.4906 10.0117 18.1799V12.2849C10.0117 11.9743 10.2636 11.7224 10.5742 11.7224Z" fill="#B9871B"/>
<path fill-rule="evenodd" clip-rule="evenodd" d="M15.7051 8.76733C16.0157 8.76733 16.2676 9.01917 16.2676 9.32983V15.2248C16.2676 15.5355 16.0157 15.7873 15.7051 15.7873C15.3944 15.7873 15.1426 15.5355 15.1426 15.2248V9.32983C15.1426 9.01917 15.3944 8.76733 15.7051 8.76733Z" fill="#B9871B"/>
<path fill-rule="evenodd" clip-rule="evenodd" d="M5.44531 8.76733C5.75597 8.76733 6.00781 9.01917 6.00781 9.32983V15.2248C6.00781 15.5355 5.75597 15.7873 5.44531 15.7873C5.13465 15.7873 4.88281 15.5355 4.88281 15.2248V9.32983C4.88281 9.01917 5.13465 8.76733 5.44531 8.76733Z" fill="#B9871B"/>
<path fill-rule="evenodd" clip-rule="evenodd" d="M16.1766 9.04768C16.3324 9.31648 16.2407 9.66064 15.9719 9.81639L10.8719 12.7714C10.6031 12.9271 10.259 12.8355 10.1032 12.5667C9.94749 12.2979 10.0391 11.9537 10.3079 11.798L15.4079 8.84298C15.6767 8.68723 16.0209 8.77888 16.1766 9.04768Z" fill="#B9871B"/>
<path fill-rule="evenodd" clip-rule="evenodd" d="M11.0637 6.07989C11.2185 6.34923 11.1257 6.69307 10.8563 6.84788L5.74134 9.78788C5.472 9.94269 5.12816 9.84985 4.97335 9.58051C4.81854 9.31117 4.91138 8.96733 5.18072 8.81252L10.2957 5.87252C10.5651 5.71771 10.9089 5.81055 11.0637 6.07989Z" fill="#B9871B"/>
<path fill-rule="evenodd" clip-rule="evenodd" d="M16.1766 14.9427C16.3324 15.2115 16.2407 15.5557 15.9719 15.7114L10.8719 18.6664C10.6031 18.8222 10.259 18.7305 10.1032 18.4617C9.94749 18.1929 10.0391 17.8487 10.3079 17.693L15.4079 14.738C15.6767 14.5823 16.0209 14.6739 16.1766 14.9427Z" fill="#B9871B"/>
<path fill-rule="evenodd" clip-rule="evenodd" d="M4.97397 9.0483C5.12937 8.7793 5.47342 8.68722 5.74241 8.84262L10.8574 11.7976C11.1264 11.953 11.2185 12.2971 11.0631 12.5661C10.9077 12.8351 10.5636 12.9271 10.2946 12.7717L5.17965 9.81675C4.91065 9.66134 4.81857 9.3173 4.97397 9.0483Z" fill="#B9871B"/>
<path fill-rule="evenodd" clip-rule="evenodd" d="M10.1026 6.07927C10.2578 5.81013 10.6017 5.71772 10.8709 5.87288L15.9709 8.81288C16.24 8.96803 16.3324 9.31199 16.1773 9.58113C16.0221 9.85027 15.6782 9.94268 15.409 9.78753L10.309 6.84753C10.0399 6.69237 9.94746 6.34842 10.1026 6.07927Z" fill="#B9871B"/>
<path fill-rule="evenodd" clip-rule="evenodd" d="M4.97397 14.9433C5.12937 14.6743 5.47342 14.5822 5.74241 14.7376L10.8574 17.6926C11.1264 17.848 11.2185 18.1921 11.0631 18.4611C10.9077 18.7301 10.5636 18.8222 10.2946 18.6668L5.17965 15.7118C4.91065 15.5564 4.81857 15.2123 4.97397 14.9433Z" fill="#B9871B"/>
<path d="M18.4202 18.8247L19.2602 18.3747L19.5002 17.3697V16.9047L19.6202 15.9147L19.9202 15.5397L20.6702 15.1647H19.9202L20.4302 15.0597L19.6502 14.4897L19.6052 14.0997V13.3797L19.5002 12.3897L19.1852 12.0297L18.6902 11.8197L18.4202 11.7897L14.3852 11.6997L13.8002 12.1047L13.4402 12.4047V12.8097L13.5152 12.6897L13.3802 14.0397L13.4402 14.5047L12.4352 15.1647L12.2852 15.2847L12.4352 15.1647L13.0802 15.6447L13.1852 15.9147L13.5752 16.9197L13.5452 17.3547L13.5302 17.6697L13.5452 17.1297V17.3847L13.6952 18.0297L13.9352 18.3597L14.3402 18.5997L14.6852 18.8247H18.4202Z" fill="#FEFABF"/>
<path d="M18.1348 18.6747C18.4019 18.6732 18.6645 18.6062 18.8998 18.4797C19.0646 18.3833 19.1996 18.2431 19.2898 18.0747C19.3738 17.9167 19.4249 17.7431 19.4398 17.5647C19.4398 17.3747 19.4398 17.1947 19.4398 17.0247V17.1597C19.4398 16.9047 19.4398 16.6947 19.4398 16.5297C19.4299 16.3799 19.4299 16.2296 19.4398 16.0797C19.4541 15.9757 19.4845 15.8745 19.5298 15.7797C19.5723 15.6963 19.628 15.6204 19.6948 15.5547C19.761 15.4887 19.8369 15.4331 19.9198 15.3897L20.1598 15.2847H20.3848H20.1598L19.9948 14.9997C19.9119 14.9564 19.836 14.9007 19.7698 14.8347C19.7032 14.7689 19.6475 14.693 19.6048 14.6097C19.5595 14.515 19.5291 14.4138 19.5148 14.3097C19.5049 14.1599 19.5049 14.0096 19.5148 13.8597C19.5148 13.6897 19.5148 13.4747 19.5148 13.2147V13.3497C19.5148 13.1697 19.5148 12.9897 19.5148 12.8097C19.4999 12.6313 19.4488 12.4578 19.3648 12.2997C19.2394 12.1599 19.0788 12.0563 18.8998 11.9997C18.6643 11.8738 18.4018 11.8069 18.1348 11.8047V11.5947H18.3298H18.5698L18.8398 11.6847C18.9313 11.7226 19.0172 11.7731 19.0948 11.8347C19.214 11.9255 19.3157 12.0374 19.3948 12.1647C19.4647 12.2862 19.5153 12.4177 19.5448 12.5547C19.5597 12.7144 19.5597 12.8751 19.5448 13.0347C19.5448 13.2147 19.5448 13.7247 19.5448 13.7247C19.5276 13.9093 19.5276 14.0951 19.5448 14.2797C19.5712 14.4227 19.6331 14.5568 19.7248 14.6697C19.8263 14.7885 19.9549 14.8811 20.0998 14.9397C20.137 14.9625 20.1678 14.9945 20.1891 15.0326C20.2104 15.0706 20.2217 15.1136 20.2217 15.1572C20.2217 15.2009 20.2104 15.2438 20.1891 15.2819C20.1678 15.32 20.137 15.3519 20.0998 15.3747C19.9552 15.4339 19.8267 15.5264 19.7248 15.6447C19.6336 15.758 19.5718 15.8919 19.5448 16.0347C19.5276 16.2193 19.5276 16.4051 19.5448 16.5897C19.5448 16.5897 19.5448 17.6097 19.5448 17.7597C19.5153 17.8967 19.4647 18.0283 19.3948 18.1497C19.3157 18.2771 19.214 18.3889 19.0948 18.4797C19.0172 18.5413 18.9313 18.5918 18.8398 18.6297L18.5698 18.7197H18.3298H18.1348V18.6747Z" fill="#34495E" stroke="#B9871B" stroke-width="0.8" stroke-miterlimit="10"/>
<path d="M14.8647 11.7597C14.5989 11.7774 14.3414 11.8598 14.1147 11.9997C13.9498 12.0961 13.8148 12.2363 13.7247 12.4047C13.6406 12.5628 13.5896 12.7363 13.5747 12.9147C13.5747 13.1047 13.5747 13.2847 13.5747 13.4547V13.2747C13.4997 13.4997 13.4997 13.7397 13.4997 13.9047C13.5095 14.0545 13.5095 14.2049 13.4997 14.3547C13.4853 14.4587 13.455 14.5599 13.4097 14.6547C13.3671 14.7381 13.3114 14.8141 13.2447 14.8797C13.1784 14.9457 13.1026 15.0013 13.0197 15.0447L12.7797 15.1497H12.5547H12.7797L13.0197 15.2547C13.1026 15.2981 13.1784 15.3537 13.2447 15.4197C13.3112 15.4855 13.3669 15.5615 13.4097 15.6447C13.455 15.7395 13.4853 15.8407 13.4997 15.9447C13.5147 16.1294 13.5147 16.315 13.4997 16.4997C13.4997 16.6697 13.4997 16.8847 13.4997 17.1447V17.0097C13.4997 17.1897 13.4997 17.3697 13.4997 17.5497C13.5146 17.7281 13.5656 17.9016 13.6497 18.0597C13.7405 18.2276 13.8753 18.3677 14.0397 18.4647C14.2752 18.5907 14.5377 18.6576 14.8047 18.6597V18.8247H14.6697H14.4297L14.1597 18.7347C14.0681 18.6968 13.9823 18.6463 13.9047 18.5847C13.7854 18.4939 13.6837 18.3821 13.6047 18.2547C13.5347 18.1333 13.4841 18.0017 13.4547 17.8647C13.4398 17.7051 13.4398 17.5444 13.4547 17.3847C13.4547 17.2047 13.4547 16.6947 13.4547 16.6947C13.4718 16.5101 13.4718 16.3243 13.4547 16.1397C13.4282 15.9967 13.3663 15.8626 13.2747 15.7497C13.1731 15.631 13.0445 15.5384 12.8997 15.4797C12.8625 15.4569 12.8317 15.425 12.8103 15.3869C12.789 15.3488 12.7778 15.3059 12.7778 15.2622C12.7778 15.2186 12.789 15.1756 12.8103 15.1375C12.8317 15.0995 12.8625 15.0675 12.8997 15.0447C13.0442 14.9855 13.1727 14.893 13.2747 14.7747C13.3658 14.6615 13.4276 14.5275 13.4547 14.3847C13.4718 14.2001 13.4718 14.0143 13.4547 13.8297C13.4547 13.8297 13.4547 12.8097 13.4547 12.6597C13.4841 12.5227 13.5347 12.3911 13.6047 12.2697C13.6837 12.1423 13.7854 12.0305 13.9047 11.9397C13.9823 11.8781 14.0681 11.8276 14.1597 11.7897L14.4297 11.6997H14.6697H14.8647V11.7597Z" fill="#34495E" stroke="#B9871B" stroke-width="0.8" stroke-miterlimit="10"/>
</svg>
