<svg width="24" height="24" viewBox="0 0 24 24" fill="none" xmlns="http://www.w3.org/2000/svg">
<path d="M0.75 10.5V1.5C0.75 0.6 1.35 0 2.25 0H15.75C16.65 0 17.25 0.6 17.25 1.5V10.5H0.75Z" fill="#F2F2F2"/>
<path fill-rule="evenodd" clip-rule="evenodd" d="M8.4375 9.75V6H9.5625V9.75H8.4375Z" fill="#C1CBD5"/>
<path d="M15.75 0H9.6H8.4H2.25C1.35 0 0.75 0.6 0.75 1.5V4.8V6V10.5H17.25V6V4.95V1.5C17.25 0.6 16.65 0 15.75 0ZM15.75 1.2C15.9 1.2 16.05 1.35 16.05 1.5V4.8H9.6V1.2H15.75ZM1.8 1.5C1.8 1.35 1.95 1.2 2.1 1.2H8.25V4.95H1.8V1.5ZM16.2 9.3H1.8V6H8.4H9.6H16.2V9.3Z" fill="#2195E7"/>
<path d="M3.75 13.5V4.5C3.75 3.6 4.35 3 5.25 3H18.75C19.65 3 20.25 3.6 20.25 4.5V13.5H3.75Z" fill="#F2F2F2"/>
<path fill-rule="evenodd" clip-rule="evenodd" d="M11.4375 12.75V9H12.5625V12.75H11.4375Z" fill="#C1CBD5"/>
<path d="M18.75 21H5.25C4.35 21 3.75 20.4 3.75 19.5V16.5H20.25V19.5C20.25 20.4 19.65 21 18.75 21Z" fill="#F2F2F2"/>
<path fill-rule="evenodd" clip-rule="evenodd" d="M11.4375 20.25V15.75H12.5625V20.25H11.4375Z" fill="#C1CBD5"/>
<path d="M18.75 3H12.6H11.4H5.25C4.35 3 3.75 3.6 3.75 4.5V7.8V9V13.5H20.25V9V7.95V4.5C20.25 3.6 19.65 3 18.75 3ZM18.75 4.2C18.9 4.2 19.05 4.35 19.05 4.5V7.8H12.6V4.2H18.75ZM4.8 4.5C4.8 4.35 4.95 4.2 5.1 4.2H11.25V7.95H4.8V4.5ZM19.2 12.3H4.8V9H11.4H12.6H19.2V12.3Z" fill="#2195E7"/>
<path d="M3.75 19.5002C3.75 20.4002 4.35 21.0002 5.25 21.0002H18.75C19.65 21.0002 20.25 20.4002 20.25 19.5002V15.4502H3.75V19.5002ZM4.8 16.5002H19.05V19.5002C19.05 19.6502 18.9 19.8002 18.75 19.8002H5.25C5.1 19.8002 4.95 19.6502 4.95 19.5002L4.8 16.5002Z" fill="#2195E7"/>
</svg>
