<svg width="24" height="24" viewBox="0 0 24 24" fill="none" xmlns="http://www.w3.org/2000/svg">
<path d="M19.5002 11.6096C19.4725 11.4685 19.4048 11.3383 19.3052 11.2346L13.1852 4.82962C13.0805 4.72196 12.9464 4.64749 12.7997 4.61548C12.653 4.58348 12.5002 4.59535 12.3602 4.64962C12.222 4.70418 12.1036 4.79931 12.0206 4.92249C11.9376 5.04566 11.8939 5.19109 11.8952 5.33962L11.8052 10.1546H5.91016C5.51233 10.1546 5.1308 10.3127 4.8495 10.594C4.56819 10.8753 4.41016 11.2568 4.41016 11.6546L19.5002 11.6096Z" fill="#2F91A3"/>
<path d="M4.5 12.3597C4.5 12.7575 4.65804 13.1391 4.93934 13.4204C5.22064 13.7017 5.60218 13.8597 6 13.8597H11.76V18.6447C11.7532 18.7924 11.793 18.9384 11.8737 19.0623C11.9545 19.1861 12.0721 19.2814 12.21 19.3347C12.3087 19.3572 12.4113 19.3572 12.51 19.3347C12.605 19.3376 12.6995 19.3204 12.7874 19.2842C12.8753 19.248 12.9546 19.1936 13.02 19.1247L19.44 12.9447C19.4935 12.8497 19.5264 12.7446 19.5368 12.6361C19.5471 12.5275 19.5346 12.4181 19.5 12.3147H4.5V12.3597Z" fill="#EFA539"/>
<path fill-rule="evenodd" clip-rule="evenodd" d="M20.1607 2.8942C20.6001 3.33354 20.6001 4.04585 20.1607 4.48519L15.6607 8.98519C15.2214 9.42453 14.5091 9.42453 14.0697 8.98519C13.6304 8.54585 13.6304 7.83354 14.0697 7.3942L18.5697 2.8942C19.0091 2.45486 19.7214 2.45486 20.1607 2.8942Z" fill="#D0021B"/>
<path fill-rule="evenodd" clip-rule="evenodd" d="M14.0697 2.8942C14.5091 2.45486 15.2214 2.45486 15.6607 2.8942L20.1607 7.3942C20.6001 7.83354 20.6001 8.54585 20.1607 8.98519C19.7214 9.42453 19.0091 9.42453 18.5697 8.98519L14.0697 4.48519C13.6304 4.04585 13.6304 3.33354 14.0697 2.8942Z" fill="#D0021B"/>
</svg>
