<svg width="24" height="24" viewBox="0 0 24 24" fill="none" xmlns="http://www.w3.org/2000/svg">
<path d="M19.5002 11.6099C19.4725 11.4688 19.4048 11.3386 19.3052 11.2349L13.1852 4.82987C13.0805 4.72221 12.9464 4.64774 12.7997 4.61573C12.653 4.58372 12.5002 4.59559 12.3602 4.64987C12.222 4.70442 12.1036 4.79956 12.0206 4.92273C11.9376 5.04591 11.8939 5.19134 11.8952 5.33987L11.8052 10.1549H5.91016C5.51233 10.1549 5.1308 10.3129 4.8495 10.5942C4.56819 10.8755 4.41016 11.257 4.41016 11.6549L19.5002 11.6099Z" fill="#2F91A3"/>
<path d="M4.5 12.3599C4.5 12.7578 4.65804 13.1393 4.93934 13.4206C5.22064 13.7019 5.60218 13.8599 6 13.8599H11.76V18.6449C11.7532 18.7926 11.793 18.9387 11.8737 19.0625C11.9545 19.1863 12.0721 19.2816 12.21 19.3349C12.3087 19.3574 12.4113 19.3574 12.51 19.3349C12.605 19.3378 12.6995 19.3206 12.7874 19.2844C12.8753 19.2482 12.9546 19.1939 13.02 19.1249L19.44 12.9449C19.4935 12.85 19.5264 12.7448 19.5368 12.6363C19.5471 12.5278 19.5346 12.4183 19.5 12.3149H4.5V12.3599Z" fill="#EFA539"/>
</svg>
