<svg width="24" height="24" viewBox="0 0 24 24" fill="none" xmlns="http://www.w3.org/2000/svg">
<path d="M19.605 8.625C19.7711 8.40928 19.8655 8.14704 19.875 7.875C19.875 6.225 16.185 4.875 11.625 4.875C7.06505 4.875 3.37505 6.225 3.37505 7.875C3.38463 8.14704 3.47903 8.40928 3.64505 8.625C3.46931 8.83541 3.37305 9.10085 3.37305 9.375C3.37305 9.64915 3.46931 9.91459 3.64505 10.125C3.46931 10.3354 3.37305 10.6009 3.37305 10.875C3.37305 11.1491 3.46931 11.4146 3.64505 11.625C3.46931 11.8354 3.37305 12.1009 3.37305 12.375C3.37305 12.6491 3.46931 12.9146 3.64505 13.125C3.46931 13.3354 3.37305 13.6009 3.37305 13.875C3.37305 14.1491 3.46931 14.4146 3.64505 14.625C3.46931 14.8354 3.37305 15.1009 3.37305 15.375C3.37305 15.6491 3.46931 15.9146 3.64505 16.125C3.47903 16.3407 3.38463 16.603 3.37505 16.875C3.37505 18.525 7.06505 19.875 11.625 19.875C16.185 19.875 19.875 18.525 19.875 16.875C19.8655 16.603 19.7711 16.3407 19.605 16.125C19.7808 15.9146 19.8771 15.6491 19.8771 15.375C19.8771 15.1009 19.7808 14.8354 19.605 14.625C19.7808 14.4146 19.8771 14.1491 19.8771 13.875C19.8771 13.6009 19.7808 13.3354 19.605 13.125C19.7808 12.9146 19.8771 12.6491 19.8771 12.375C19.8771 12.1009 19.7808 11.8354 19.605 11.625C19.7808 11.4146 19.8771 11.1491 19.8771 10.875C19.8771 10.6009 19.7808 10.3354 19.605 10.125C19.7808 9.91459 19.8771 9.64915 19.8771 9.375C19.8771 9.10085 19.7808 8.83541 19.605 8.625Z" fill="#F2F2F2"/>
<path d="M11.625 10.875C16.1813 10.875 19.875 9.53185 19.875 7.875C19.875 6.21815 16.1813 4.875 11.625 4.875C7.06865 4.875 3.375 6.21815 3.375 7.875C3.375 9.53185 7.06865 10.875 11.625 10.875Z" fill="#717F8E"/>
<path d="M11.625 18.375C7.785 18.375 4.56 17.415 3.645 16.125C3.47898 16.3407 3.38458 16.603 3.375 16.875C3.375 18.525 7.065 19.875 11.625 19.875C16.185 19.875 19.875 18.525 19.875 16.875C19.8654 16.603 19.771 16.3407 19.605 16.125C18.69 17.415 15.465 18.375 11.625 18.375Z" fill="#717F8E"/>
<path d="M11.625 13.9353C7.785 13.9353 4.56 12.9753 3.645 11.6853C3.47898 11.901 3.38458 12.1633 3.375 12.4353C3.375 14.0853 7.065 15.4353 11.625 15.4353C16.185 15.4353 19.875 14.0853 19.875 12.4353C19.8654 12.1633 19.771 11.901 19.605 11.6853C18.69 12.9753 15.465 13.9353 11.625 13.9353Z" fill="#717F8E"/>
<path fill-rule="evenodd" clip-rule="evenodd" d="M21.4205 3.3295C21.8598 3.76884 21.8598 4.48116 21.4205 4.9205L16.9205 9.4205C16.4812 9.85984 15.7688 9.85984 15.3295 9.4205C14.8902 8.98116 14.8902 8.26884 15.3295 7.8295L19.8295 3.3295C20.2688 2.89017 20.9812 2.89017 21.4205 3.3295Z" fill="#D0021B"/>
<path fill-rule="evenodd" clip-rule="evenodd" d="M15.3295 3.3295C15.7688 2.89017 16.4812 2.89017 16.9205 3.3295L21.4205 7.8295C21.8598 8.26884 21.8598 8.98116 21.4205 9.4205C20.9812 9.85984 20.2688 9.85984 19.8295 9.4205L15.3295 4.9205C14.8902 4.48116 14.8902 3.76884 15.3295 3.3295Z" fill="#D0021B"/>
</svg>
