<svg width="24" height="24" viewBox="0 0 24 24" fill="none" xmlns="http://www.w3.org/2000/svg">
<path d="M19.98 8.25C20.1461 8.03428 20.2405 7.77204 20.25 7.5C20.25 5.85 16.5 4.5 12 4.5C7.50005 4.5 3.75005 5.85 3.75005 7.5C3.75963 7.77204 3.85403 8.03428 4.02005 8.25C3.84431 8.46041 3.74805 8.72585 3.74805 9C3.74805 9.27415 3.84431 9.53959 4.02005 9.75C3.84431 9.96041 3.74805 10.2259 3.74805 10.5C3.74805 10.7741 3.84431 11.0396 4.02005 11.25C3.84431 11.4604 3.74805 11.7259 3.74805 12C3.74805 12.2741 3.84431 12.5396 4.02005 12.75C3.84431 12.9604 3.74805 13.2259 3.74805 13.5C3.74805 13.7741 3.84431 14.0396 4.02005 14.25C3.84431 14.4604 3.74805 14.7259 3.74805 15C3.74805 15.2741 3.84431 15.5396 4.02005 15.75C3.85403 15.9657 3.75963 16.228 3.75005 16.5C3.75005 18.15 7.50005 19.5 12 19.5C16.5 19.5 20.25 18.15 20.25 16.5C20.2405 16.228 20.1461 15.9657 19.98 15.75C20.1558 15.5396 20.2521 15.2741 20.2521 15C20.2521 14.7259 20.1558 14.4604 19.98 14.25C20.1558 14.0396 20.2521 13.7741 20.2521 13.5C20.2521 13.2259 20.1558 12.9604 19.98 12.75C20.1558 12.5396 20.2521 12.2741 20.2521 12C20.2521 11.7259 20.1558 11.4604 19.98 11.25C20.1558 11.0396 20.2521 10.7741 20.2521 10.5C20.2521 10.2259 20.1558 9.96041 19.98 9.75C20.1558 9.53959 20.2521 9.27415 20.2521 9C20.2521 8.72585 20.1558 8.46041 19.98 8.25Z" fill="#F9F9D1"/>
<path d="M12 10.5C16.5563 10.5 20.25 9.15685 20.25 7.5C20.25 5.84315 16.5563 4.5 12 4.5C7.44365 4.5 3.75 5.84315 3.75 7.5C3.75 9.15685 7.44365 10.5 12 10.5Z" fill="#AC9230"/>
<path d="M12 18C8.16 18 4.935 17.04 4.02 15.75C3.85398 15.9657 3.75958 16.228 3.75 16.5C3.75 18.15 7.5 19.5 12 19.5C16.5 19.5 20.25 18.15 20.25 16.5C20.2404 16.228 20.146 15.9657 19.98 15.75C19.065 17.04 15.84 18 12 18Z" fill="#AC9230"/>
<path d="M12 13.5C8.16 13.5 4.935 12.54 4.02 11.25C3.85398 11.4657 3.75958 11.728 3.75 12C3.75 13.65 7.5 15 12 15C16.5 15 20.25 13.65 20.25 12C20.2404 11.728 20.146 11.4657 19.98 11.25C19.065 12.54 15.84 13.5 12 13.5Z" fill="#AC9230"/>
</svg>
