<svg width="24" height="24" viewBox="0 0 24 24" fill="none" xmlns="http://www.w3.org/2000/svg">
<path d="M17.9558 19.635L5.92578 19.77V10.545L12.0008 4.245L18.0758 10.32L17.9558 19.635Z" fill="#CBDFF1"/>
<path fill-rule="evenodd" clip-rule="evenodd" d="M5.92578 9.75781C6.23644 9.75781 6.48828 10.0097 6.48828 10.3203V19.7553C6.48828 20.066 6.23644 20.3178 5.92578 20.3178C5.61512 20.3178 5.36328 20.066 5.36328 19.7553V10.3203C5.36328 10.0097 5.61512 9.75781 5.92578 9.75781Z" fill="#6F6F6F"/>
<path fill-rule="evenodd" clip-rule="evenodd" d="M5.36328 19.7549C5.36328 19.4442 5.61512 19.1924 5.92578 19.1924H18.0758C18.3864 19.1924 18.6383 19.4442 18.6383 19.7549C18.6383 20.0655 18.3864 20.3174 18.0758 20.3174H5.92578C5.61512 20.3174 5.36328 20.0655 5.36328 19.7549Z" fill="#6F6F6F"/>
<path fill-rule="evenodd" clip-rule="evenodd" d="M18.0762 9.75781C18.3868 9.75781 18.6387 10.0097 18.6387 10.3203V19.7553C18.6387 20.066 18.3868 20.3178 18.0762 20.3178C17.7655 20.3178 17.5137 20.066 17.5137 19.7553V10.3203C17.5137 10.0097 17.7655 9.75781 18.0762 9.75781Z" fill="#6F6F6F"/>
<path fill-rule="evenodd" clip-rule="evenodd" d="M12.3981 3.84725C12.6178 4.06692 12.6178 4.42307 12.3981 4.64274L4.29814 12.7427C4.07847 12.9624 3.72231 12.9624 3.50264 12.7427C3.28297 12.5231 3.28297 12.1669 3.50264 11.9472L11.6026 3.84725C11.8223 3.62758 12.1785 3.62758 12.3981 3.84725Z" fill="#C42E2E"/>
<path fill-rule="evenodd" clip-rule="evenodd" d="M11.6023 3.84725C11.8219 3.62758 12.1781 3.62758 12.3977 3.84725L20.4977 11.9472C20.7174 12.1669 20.7174 12.5231 20.4977 12.7427C20.2781 12.9624 19.9219 12.9624 19.7023 12.7427L11.6023 4.64274C11.3826 4.42307 11.3826 4.06692 11.6023 3.84725Z" fill="#C42E2E"/>
<path d="M12.0001 18.0297C14.3031 18.0297 16.1701 16.1627 16.1701 13.8597C16.1701 11.5567 14.3031 9.6897 12.0001 9.6897C9.69705 9.6897 7.83008 11.5567 7.83008 13.8597C7.83008 16.1627 9.69705 18.0297 12.0001 18.0297Z" fill="#81602B"/>
<path fill-rule="evenodd" clip-rule="evenodd" d="M14.4145 11.8677C14.6284 12.0243 14.6749 12.3247 14.5183 12.5386L11.7733 16.2886C11.6945 16.3962 11.5746 16.4661 11.4421 16.4818C11.3097 16.4974 11.1768 16.4572 11.0752 16.3709L9.38017 14.9309C9.17814 14.7592 9.1535 14.4563 9.32514 14.2543C9.49677 14.0522 9.79969 14.0276 10.0017 14.1992L11.3034 15.3051L13.7436 11.9715C13.9002 11.7576 14.2006 11.7112 14.4145 11.8677Z" fill="#DEF4FD"/>
</svg>
