<svg width="24" height="24" viewBox="0 0 24 24" fill="none" xmlns="http://www.w3.org/2000/svg">
<path d="M18.255 20.025L5.625 20.145V10.47L12 3.85498L18.375 10.23L18.255 20.025Z" fill="#CBDFF1"/>
<path fill-rule="evenodd" clip-rule="evenodd" d="M12.3969 3.45723C12.6166 3.6769 12.6166 4.03306 12.3969 4.25273L3.89189 12.7577C3.67222 12.9774 3.31606 12.9774 3.09639 12.7577C2.87672 12.5381 2.87672 12.1819 3.09639 11.9622L11.6014 3.45723C11.8211 3.23756 12.1772 3.23756 12.3969 3.45723Z" fill="#717F8E"/>
<path fill-rule="evenodd" clip-rule="evenodd" d="M11.6023 3.45723C11.8219 3.23756 12.1781 3.23756 12.3977 3.45723L20.9027 11.9622C21.1224 12.1819 21.1224 12.5381 20.9027 12.7577C20.6831 12.9774 20.3269 12.9774 20.1073 12.7577L11.6023 4.25273C11.3826 4.03306 11.3826 3.6769 11.6023 3.45723Z" fill="#717F8E"/>
<path fill-rule="evenodd" clip-rule="evenodd" d="M5.625 9.66748C5.93566 9.66748 6.1875 9.91932 6.1875 10.23V20.145C6.1875 20.4556 5.93566 20.7075 5.625 20.7075C5.31434 20.7075 5.0625 20.4556 5.0625 20.145V10.23C5.0625 9.91932 5.31434 9.66748 5.625 9.66748Z" fill="#717F8E"/>
<path fill-rule="evenodd" clip-rule="evenodd" d="M5.0625 20.1453C5.0625 19.8346 5.31434 19.5828 5.625 19.5828H18.375C18.6857 19.5828 18.9375 19.8346 18.9375 20.1453C18.9375 20.4559 18.6857 20.7078 18.375 20.7078H5.625C5.31434 20.7078 5.0625 20.4559 5.0625 20.1453Z" fill="#717F8E"/>
<path fill-rule="evenodd" clip-rule="evenodd" d="M18.375 9.66748C18.6857 9.66748 18.9375 9.91932 18.9375 10.23V20.145C18.9375 20.4556 18.6857 20.7075 18.375 20.7075C18.0643 20.7075 17.8125 20.4556 17.8125 20.145V10.23C17.8125 9.91932 18.0643 9.66748 18.375 9.66748Z" fill="#717F8E"/>
<path d="M11.9991 18.3152C14.4181 18.3152 16.3791 16.3542 16.3791 13.9352C16.3791 11.5162 14.4181 9.55518 11.9991 9.55518C9.58013 9.55518 7.61914 11.5162 7.61914 13.9352C7.61914 16.3542 9.58013 18.3152 11.9991 18.3152Z" fill="#717F8E"/>
<path fill-rule="evenodd" clip-rule="evenodd" d="M14.5657 11.8006C14.8166 11.9838 14.8715 12.3357 14.6883 12.5866L11.8083 16.5316C11.7159 16.6582 11.5749 16.7405 11.4192 16.7586C11.2635 16.7768 11.1073 16.7292 10.9882 16.6273L9.21822 15.1123C8.98221 14.9102 8.95465 14.5552 9.15666 14.3191C9.35867 14.0831 9.71375 14.0556 9.94977 14.2576L11.258 15.3774L13.7797 11.9233C13.9629 11.6723 14.3148 11.6174 14.5657 11.8006Z" fill="#F2F2F2"/>
<path fill-rule="evenodd" clip-rule="evenodd" d="M21.1553 7.44965C21.4482 7.74254 21.4482 8.21742 21.1553 8.51031L16.6553 13.0103C16.3624 13.3032 15.8876 13.3032 15.5947 13.0103C15.3018 12.7174 15.3018 12.2425 15.5947 11.9497L20.0947 7.44965C20.3876 7.15676 20.8624 7.15676 21.1553 7.44965Z" fill="#D0021B"/>
<path fill-rule="evenodd" clip-rule="evenodd" d="M15.5947 7.44965C15.8876 7.15676 16.3624 7.15676 16.6553 7.44965L21.1553 11.9497C21.4482 12.2425 21.4482 12.7174 21.1553 13.0103C20.8624 13.3032 20.3876 13.3032 20.0947 13.0103L15.5947 8.51031C15.3018 8.21742 15.3018 7.74254 15.5947 7.44965Z" fill="#D0021B"/>
</svg>
