<svg width="24" height="24" viewBox="0 0 24 24" fill="none" xmlns="http://www.w3.org/2000/svg">
<path d="M18.0759 19.7701H5.92586L5.88086 10.5151L12.0009 4.24512L18.1209 10.5451L18.0759 19.7701Z" fill="#CBDFF1"/>
<path fill-rule="evenodd" clip-rule="evenodd" d="M5.92578 9.75781C6.23644 9.75781 6.48828 10.0097 6.48828 10.3203V19.7553C6.48828 20.066 6.23644 20.3178 5.92578 20.3178C5.61512 20.3178 5.36328 20.066 5.36328 19.7553V10.3203C5.36328 10.0097 5.61512 9.75781 5.92578 9.75781Z" fill="#6F6F6F"/>
<path fill-rule="evenodd" clip-rule="evenodd" d="M5.36328 19.7549C5.36328 19.4442 5.61512 19.1924 5.92578 19.1924H18.0758C18.3864 19.1924 18.6383 19.4442 18.6383 19.7549C18.6383 20.0655 18.3864 20.3174 18.0758 20.3174H5.92578C5.61512 20.3174 5.36328 20.0655 5.36328 19.7549Z" fill="#6F6F6F"/>
<path fill-rule="evenodd" clip-rule="evenodd" d="M18.0762 9.75781C18.3868 9.75781 18.6387 10.0097 18.6387 10.3203V19.7553C18.6387 20.066 18.3868 20.3178 18.0762 20.3178C17.7655 20.3178 17.5137 20.066 17.5137 19.7553V10.3203C17.5137 10.0097 17.7655 9.75781 18.0762 9.75781Z" fill="#6F6F6F"/>
<path d="M14.7008 12.3298H9.30078V19.1848H14.7008V12.3298Z" fill="#81602B"/>
<path fill-rule="evenodd" clip-rule="evenodd" d="M12.3985 3.84774C12.618 4.06761 12.6176 4.42377 12.3978 4.64323L4.29777 12.7282C4.0779 12.9477 3.72174 12.9474 3.50227 12.7275C3.28281 12.5076 3.28314 12.1515 3.50301 11.932L11.603 3.847C11.8229 3.62753 12.179 3.62787 12.3985 3.84774Z" fill="#C42E2E"/>
<path fill-rule="evenodd" clip-rule="evenodd" d="M11.6019 3.84774C11.8214 3.62787 12.1775 3.62753 12.3974 3.847L20.4974 11.932C20.7173 12.1515 20.7176 12.5076 20.4981 12.7275C20.2786 12.9474 19.9225 12.9477 19.7026 12.7282L11.6026 4.64323C11.3827 4.42377 11.3824 4.06761 11.6019 3.84774Z" fill="#C42E2E"/>
</svg>
