<svg width="24" height="24" viewBox="0 0 24 24" fill="none" xmlns="http://www.w3.org/2000/svg">
<path d="M3.88477 8.72975V15.1947L9.47976 18.4197L15.0748 15.1947V8.72975L9.47976 5.48975L3.88477 8.72975Z" fill="#FEFABF"/>
<path fill-rule="evenodd" clip-rule="evenodd" d="M9.48047 11.4075C9.79113 11.4075 10.043 11.6593 10.043 11.97V18.675C10.043 18.9856 9.79113 19.2375 9.48047 19.2375C9.16981 19.2375 8.91797 18.9856 8.91797 18.675V11.97C8.91797 11.6593 9.16981 11.4075 9.48047 11.4075Z" fill="#B9871B"/>
<path fill-rule="evenodd" clip-rule="evenodd" d="M15.3145 8.0625C15.6251 8.0625 15.877 8.31434 15.877 8.625V15.33C15.877 15.6407 15.6251 15.8925 15.3145 15.8925C15.0038 15.8925 14.752 15.6407 14.752 15.33V8.625C14.752 8.31434 15.0038 8.0625 15.3145 8.0625Z" fill="#B9871B"/>
<path fill-rule="evenodd" clip-rule="evenodd" d="M3.66016 8.0625C3.97082 8.0625 4.22266 8.31434 4.22266 8.625V15.33C4.22266 15.6407 3.97082 15.8925 3.66016 15.8925C3.3495 15.8925 3.09766 15.6407 3.09766 15.33V8.625C3.09766 8.31434 3.3495 8.0625 3.66016 8.0625Z" fill="#B9871B"/>
<path fill-rule="evenodd" clip-rule="evenodd" d="M15.7866 8.34401C15.9417 8.61318 15.8492 8.95712 15.5801 9.11223L9.77507 12.4572C9.5059 12.6123 9.16196 12.5199 9.00686 12.2507C8.85176 11.9815 8.94423 11.6376 9.2134 11.4825L15.0184 8.13747C15.2876 7.98237 15.6315 8.07484 15.7866 8.34401Z" fill="#B9871B"/>
<path fill-rule="evenodd" clip-rule="evenodd" d="M9.96575 4.95317C10.1214 5.22204 10.0296 5.56616 9.7607 5.72179L3.9557 9.08179C3.68684 9.23741 3.34272 9.14561 3.18709 8.87674C3.03147 8.60787 3.12327 8.26375 3.39214 8.10812L9.19714 4.74813C9.46601 4.5925 9.81013 4.6843 9.96575 4.95317Z" fill="#B9871B"/>
<path fill-rule="evenodd" clip-rule="evenodd" d="M15.7866 15.0491C15.9417 15.3183 15.8492 15.6622 15.5801 15.8173L9.77507 19.1623C9.5059 19.3174 9.16196 19.2249 9.00686 18.9558C8.85176 18.6866 8.94423 18.3427 9.2134 18.1876L15.0184 14.8426C15.2876 14.6874 15.6315 14.7799 15.7866 15.0491Z" fill="#B9871B"/>
<path fill-rule="evenodd" clip-rule="evenodd" d="M3.18655 8.34401C3.34165 8.07484 3.68559 7.98237 3.95476 8.13747L9.75976 11.4825C10.0289 11.6376 10.1214 11.9815 9.9663 12.2507C9.8112 12.5199 9.46725 12.6123 9.19808 12.4572L3.39308 9.11223C3.12391 8.95712 3.03144 8.61318 3.18655 8.34401Z" fill="#B9871B"/>
<path fill-rule="evenodd" clip-rule="evenodd" d="M9.0074 4.95317C9.16303 4.6843 9.50715 4.5925 9.77602 4.74813L15.581 8.10812C15.8499 8.26375 15.9417 8.60787 15.7861 8.87674C15.6304 9.14561 15.2863 9.23741 15.0175 9.08179L9.21245 5.72179C8.94358 5.56616 8.85178 5.22204 9.0074 4.95317Z" fill="#B9871B"/>
<path fill-rule="evenodd" clip-rule="evenodd" d="M3.18655 15.0491C3.34165 14.7799 3.68559 14.6874 3.95476 14.8426L9.75976 18.1876C10.0289 18.3427 10.1214 18.6866 9.9663 18.9558C9.8112 19.2249 9.46725 19.3174 9.19808 19.1623L3.39308 15.8173C3.12391 15.6622 3.03144 15.3183 3.18655 15.0491Z" fill="#B9871B"/>
<path d="M18.4653 18.735L19.3203 18.285L19.5603 17.25V16.785L19.6953 15.765L19.9953 15.375L20.7603 15H19.9953L20.5203 14.895L19.7253 14.31L19.6803 13.92V13.185L19.5603 12.165L19.2453 11.805L18.7353 11.58L18.4653 11.55L14.3403 11.46L13.7403 11.88L13.3803 12.18V12.6L13.4403 12.48L13.3203 13.845L13.3803 14.325L12.3453 15L12.1953 15.12L12.3453 15L13.0203 15.48L13.1103 15.765L13.5003 16.8L13.4853 17.25L13.4703 17.565L13.4853 17.01V17.28L13.6353 17.94L13.8753 18.27L14.2953 18.51L14.6403 18.735H18.4653Z" fill="#FEFABF"/>
<path d="M18.181 18.6C18.453 18.5997 18.7209 18.5327 18.961 18.405C19.1249 18.3074 19.2596 18.1675 19.351 18C19.4363 17.837 19.4873 17.6584 19.501 17.475C19.501 17.285 19.501 17.1 19.501 16.92V17.055C19.501 16.8 19.501 16.575 19.501 16.41C19.4914 16.2601 19.4914 16.1098 19.501 15.96C19.5141 15.8509 19.5445 15.7445 19.591 15.645C19.634 15.5619 19.6897 15.4859 19.756 15.42C19.8261 15.3478 19.9071 15.287 19.996 15.24L20.236 15.135H20.461H20.236L19.996 15.03C19.9069 14.9831 19.8259 14.9224 19.756 14.85C19.6898 14.7839 19.6342 14.708 19.591 14.625C19.5447 14.5253 19.5144 14.419 19.501 14.31C19.4914 14.1601 19.4914 14.0098 19.501 13.86C19.501 13.68 19.501 13.46 19.501 13.2C19.501 13.02 19.501 12.84 19.501 12.645C19.4873 12.4616 19.4363 12.2829 19.351 12.12C19.2555 11.9505 19.1155 11.8105 18.946 11.715C18.7054 11.5884 18.4379 11.5215 18.166 11.52V11.355H18.361H18.616L18.886 11.445C18.9827 11.482 19.0736 11.5325 19.156 11.595C19.2985 11.7039 19.4162 11.842 19.501 12C19.5772 12.1254 19.6329 12.2621 19.666 12.405C19.6806 12.5646 19.6806 12.7253 19.666 12.885C19.666 13.065 19.666 13.59 19.666 13.59C19.6479 13.7795 19.6479 13.9704 19.666 14.16C19.6913 14.3079 19.7532 14.4471 19.846 14.565C19.9483 14.6829 20.0767 14.7753 20.221 14.835C20.2583 14.8578 20.289 14.8897 20.3104 14.9278C20.3317 14.9659 20.3429 15.0088 20.3429 15.0525C20.3429 15.0961 20.3317 15.1391 20.3104 15.1771C20.289 15.2152 20.2583 15.2472 20.221 15.27C20.0767 15.3296 19.9483 15.4221 19.846 15.54C19.7532 15.6579 19.6913 15.7971 19.666 15.945C19.6479 16.1345 19.6479 16.3254 19.666 16.515C19.666 16.515 19.666 17.565 19.666 17.715C19.6329 17.8579 19.5772 17.9946 19.501 18.12C19.4187 18.2538 19.3118 18.3709 19.186 18.465C19.1036 18.5275 19.0127 18.578 18.916 18.615L18.646 18.705H18.391H18.196L18.181 18.6Z" fill="#34495E" stroke="#B9871B" stroke-width="0.5" stroke-miterlimit="10"/>
<path d="M14.8348 11.5203C14.5628 11.5206 14.295 11.5875 14.0548 11.7153C13.8854 11.8108 13.7453 11.9508 13.6498 12.1203C13.5646 12.2832 13.5136 12.4619 13.4998 12.6453C13.4998 12.8353 13.4998 13.0203 13.4998 13.2003V13.0653C13.4998 13.3203 13.4998 13.5003 13.4998 13.7103C13.5095 13.8601 13.5095 14.0104 13.4998 14.1603C13.4868 14.2694 13.4564 14.3757 13.4098 14.4753C13.3669 14.5584 13.3112 14.6343 13.2448 14.7003C13.1748 14.7725 13.0938 14.8332 13.0048 14.8803L12.6898 15.0003H12.4648H12.6898L12.9298 15.1053C13.0189 15.1521 13.0999 15.2129 13.1698 15.2853C13.236 15.3514 13.2917 15.4273 13.3348 15.5103C13.3811 15.6099 13.4115 15.7162 13.4248 15.8253C13.4344 15.9751 13.4344 16.1254 13.4248 16.2753C13.4248 16.4553 13.4248 16.6753 13.4248 16.9353V16.8003C13.4248 16.9803 13.4248 17.1603 13.4248 17.3553C13.4386 17.5387 13.4896 17.7173 13.5748 17.8803C13.6703 18.0497 13.8104 18.1898 13.9798 18.2853C14.2204 18.4119 14.488 18.4788 14.7598 18.4803V18.6453H14.6248H14.3698L14.0998 18.5553C14.0032 18.5183 13.9123 18.4678 13.8298 18.4053C13.7041 18.3302 13.5924 18.2337 13.4998 18.1203C13.4237 17.9949 13.368 17.8582 13.3348 17.7153C13.3203 17.5556 13.3203 17.3949 13.3348 17.2353C13.3348 17.0553 13.3348 16.5303 13.3348 16.5303C13.3529 16.3407 13.3529 16.1499 13.3348 15.9603C13.3095 15.8124 13.2477 15.6732 13.1548 15.5553C13.0525 15.4374 12.9241 15.3449 12.7798 15.2853C12.7426 15.2625 12.7118 15.2305 12.6905 15.1924C12.6692 15.1544 12.658 15.1114 12.658 15.0678C12.658 15.0241 12.6692 14.9812 12.6905 14.9431C12.7118 14.905 12.7426 14.8731 12.7798 14.8503C12.9241 14.7906 13.0525 14.6982 13.1548 14.5803C13.2477 14.4624 13.3095 14.3232 13.3348 14.1753C13.3529 13.9857 13.3529 13.7949 13.3348 13.6053C13.3348 13.6053 13.3348 12.5553 13.3348 12.4053C13.368 12.2624 13.4237 12.1257 13.4998 12.0003C13.5821 11.8664 13.689 11.7494 13.8148 11.6553C13.8973 11.5928 13.9882 11.5423 14.0848 11.5053L14.3548 11.4153H14.6098H14.8048L14.8348 11.5203Z" fill="#34495E" stroke="#B9871B" stroke-width="0.5" stroke-miterlimit="10"/>
<path fill-rule="evenodd" clip-rule="evenodd" d="M14.6328 13.9949C14.6328 13.6842 14.8847 13.4324 15.1953 13.4324H17.7753C18.086 13.4324 18.3378 13.6842 18.3378 13.9949C18.3378 14.3055 18.086 14.5574 17.7753 14.5574H15.1953C14.8847 14.5574 14.6328 14.3055 14.6328 13.9949Z" fill="#B9871B"/>
<path fill-rule="evenodd" clip-rule="evenodd" d="M14.6328 16.125C14.6328 15.8143 14.8847 15.5625 15.1953 15.5625H17.7753C18.086 15.5625 18.3378 15.8143 18.3378 16.125C18.3378 16.4357 18.086 16.6875 17.7753 16.6875H15.1953C14.8847 16.6875 14.6328 16.4357 14.6328 16.125Z" fill="#B9871B"/>
</svg>
