<svg width="24" height="24" viewBox="0 0 24 24" fill="none" xmlns="http://www.w3.org/2000/svg">
<path d="M3.86914 8.72975V15.1947L9.47914 18.4197L15.0741 15.1947V8.72975L9.47914 5.48975L3.86914 8.72975Z" fill="#FEFABF"/>
<path fill-rule="evenodd" clip-rule="evenodd" d="M9.47852 11.4075C9.78918 11.4075 10.041 11.6593 10.041 11.97V18.675C10.041 18.9856 9.78918 19.2375 9.47852 19.2375C9.16786 19.2375 8.91602 18.9856 8.91602 18.675V11.97C8.91602 11.6593 9.16786 11.4075 9.47852 11.4075Z" fill="#B9871B"/>
<path fill-rule="evenodd" clip-rule="evenodd" d="M15.2988 8.0625C15.6095 8.0625 15.8613 8.31434 15.8613 8.625V15.33C15.8613 15.6407 15.6095 15.8925 15.2988 15.8925C14.9882 15.8925 14.7363 15.6407 14.7363 15.33V8.625C14.7363 8.31434 14.9882 8.0625 15.2988 8.0625Z" fill="#B9871B"/>
<path fill-rule="evenodd" clip-rule="evenodd" d="M3.64453 8.0625C3.95519 8.0625 4.20703 8.31434 4.20703 8.625V15.33C4.20703 15.6407 3.95519 15.8925 3.64453 15.8925C3.33387 15.8925 3.08203 15.6407 3.08203 15.33V8.625C3.08203 8.31434 3.33387 8.0625 3.64453 8.0625Z" fill="#B9871B"/>
<path fill-rule="evenodd" clip-rule="evenodd" d="M15.771 8.34401C15.9261 8.61318 15.8336 8.95712 15.5644 9.11223L9.75945 12.4572C9.49028 12.6123 9.14634 12.5199 8.99123 12.2507C8.83613 11.9815 8.9286 11.6376 9.19777 11.4825L15.0028 8.13747C15.2719 7.98237 15.6159 8.07484 15.771 8.34401Z" fill="#B9871B"/>
<path fill-rule="evenodd" clip-rule="evenodd" d="M9.95013 4.95317C10.1058 5.22204 10.0139 5.56616 9.74508 5.72179L3.94008 9.08179C3.67121 9.23741 3.32709 9.14561 3.17147 8.87674C3.01584 8.60787 3.10764 8.26375 3.37651 8.10812L9.18151 4.74813C9.45038 4.5925 9.7945 4.6843 9.95013 4.95317Z" fill="#B9871B"/>
<path fill-rule="evenodd" clip-rule="evenodd" d="M15.771 15.0491C15.9261 15.3183 15.8336 15.6622 15.5644 15.8173L9.75945 19.1623C9.49028 19.3174 9.14634 19.2249 8.99123 18.9558C8.83613 18.6866 8.9286 18.3427 9.19777 18.1876L15.0028 14.8426C15.2719 14.6874 15.6159 14.7799 15.771 15.0491Z" fill="#B9871B"/>
<path fill-rule="evenodd" clip-rule="evenodd" d="M3.17092 8.34401C3.32602 8.07484 3.66997 7.98237 3.93914 8.13747L9.74414 11.4825C10.0133 11.6376 10.1058 11.9815 9.95067 12.2507C9.79557 12.5199 9.45163 12.6123 9.18246 12.4572L3.37746 9.11223C3.10829 8.95712 3.01582 8.61318 3.17092 8.34401Z" fill="#B9871B"/>
<path fill-rule="evenodd" clip-rule="evenodd" d="M8.99178 4.95317C9.1474 4.6843 9.49152 4.5925 9.76039 4.74813L15.5654 8.10812C15.8343 8.26375 15.9261 8.60787 15.7704 8.87674C15.6148 9.14561 15.2707 9.23741 15.0018 9.08179L9.19683 5.72179C8.92796 5.56616 8.83615 5.22204 8.99178 4.95317Z" fill="#B9871B"/>
<path fill-rule="evenodd" clip-rule="evenodd" d="M3.17092 15.0491C3.32602 14.7799 3.66997 14.6874 3.93914 14.8426L9.74414 18.1876C10.0133 18.3427 10.1058 18.6866 9.95067 18.9558C9.79557 19.2249 9.45163 19.3174 9.18246 19.1623L3.37746 15.8173C3.10829 15.6622 3.01582 15.3183 3.17092 15.0491Z" fill="#B9871B"/>
<path d="M18.4497 18.735L19.3197 18.285L19.5597 17.25V16.785L19.6797 15.765L19.9797 15.375L20.7447 15H19.9797L20.5047 14.895L19.7097 14.31L19.6647 13.92V13.185L19.5597 12.165L19.2297 11.805L18.7197 11.58L18.4497 11.55L14.3247 11.46L13.7397 11.88L13.3647 12.18V12.6L13.4247 12.48L13.3047 13.845L13.3647 14.325L12.3297 15L12.1797 15.12L12.3297 15L13.0047 15.48L13.0947 15.765L13.4847 16.8L13.4697 17.25L13.4547 17.565L13.4697 17.01V17.28L13.6197 17.94L13.8597 18.27L14.2797 18.51L14.6247 18.735H18.4497Z" fill="#FEFABF"/>
<path d="M18.1641 18.6C18.4361 18.5997 18.7039 18.5327 18.9441 18.405C19.1135 18.3095 19.2536 18.1694 19.3491 18C19.4343 17.837 19.4853 17.6584 19.4991 17.475C19.4991 17.285 19.4991 17.1 19.4991 16.92V17.055C19.4991 16.8 19.4991 16.575 19.4991 16.41C19.4894 16.2601 19.4894 16.1098 19.4991 15.96C19.5122 15.8509 19.5425 15.7445 19.5891 15.645C19.632 15.5619 19.6877 15.4859 19.7541 15.42C19.8241 15.3478 19.9051 15.287 19.9941 15.24L20.2341 15.135H20.4591H20.2341L19.9941 15.03C19.905 14.9831 19.824 14.9224 19.7541 14.85C19.6879 14.7839 19.6322 14.708 19.5891 14.625C19.5263 14.4835 19.4955 14.3298 19.4991 14.175C19.4895 14.0251 19.4895 13.8748 19.4991 13.725C19.4991 13.545 19.4991 13.325 19.4991 13.065V13.2C19.4991 13.02 19.4991 12.84 19.4991 12.645C19.4853 12.4616 19.4343 12.2829 19.3491 12.12C19.2536 11.9505 19.1135 11.8105 18.9441 11.715C18.7035 11.5884 18.4359 11.5215 18.1641 11.52V11.355H18.3591H18.6141L18.8841 11.445C18.9807 11.482 19.0716 11.5325 19.1541 11.595C19.2966 11.7039 19.4142 11.842 19.4991 12C19.5752 12.1254 19.6309 12.2621 19.6641 12.405C19.6786 12.5646 19.6786 12.7253 19.6641 12.885C19.6641 13.065 19.6641 13.59 19.6641 13.59C19.646 13.7795 19.646 13.9704 19.6641 14.16C19.6894 14.3079 19.7512 14.4471 19.8441 14.565C19.9464 14.6829 20.0748 14.7753 20.2191 14.835C20.2563 14.8578 20.2871 14.8897 20.3084 14.9278C20.3297 14.9659 20.341 15.0088 20.341 15.0525C20.341 15.0961 20.3297 15.1391 20.3084 15.1771C20.2871 15.2152 20.2563 15.2472 20.2191 15.27C20.0748 15.3296 19.9464 15.4221 19.8441 15.54C19.7512 15.6579 19.6894 15.7971 19.6641 15.945C19.646 16.1345 19.646 16.3254 19.6641 16.515C19.6641 16.515 19.6641 17.565 19.6641 17.715C19.6309 17.8579 19.5752 17.9946 19.4991 18.12C19.4168 18.2538 19.3099 18.3709 19.1841 18.465C19.1016 18.5275 19.0107 18.578 18.9141 18.615L18.6441 18.705H18.3891H18.1941L18.1641 18.6Z" fill="#34495E"/>
<path fill-rule="evenodd" clip-rule="evenodd" d="M17.79 10.98H18.6758L19.0192 11.0944C19.1489 11.1441 19.2708 11.2122 19.3815 11.2961C19.5638 11.4354 19.7158 11.6124 19.8256 11.8137C19.9198 11.9709 19.9889 12.1418 20.0303 12.3203L20.0361 12.3453L20.0384 12.3709C20.0545 12.5474 20.055 12.7249 20.04 12.9015V13.5898V13.6078L20.0383 13.6256C20.0229 13.7864 20.0224 13.9482 20.0369 14.1091C20.0523 14.1879 20.0856 14.2621 20.1342 14.326C20.1973 14.3967 20.2756 14.4522 20.3632 14.4884L20.3905 14.4997L20.4157 14.5151C20.5077 14.5714 20.5837 14.6504 20.6364 14.7445C20.6892 14.8386 20.7169 14.9446 20.7169 15.0525C20.7169 15.1603 20.6892 15.2664 20.6364 15.3605C20.5837 15.4546 20.5077 15.5335 20.4157 15.5898L20.3905 15.6052L20.3632 15.6165C20.2756 15.6528 20.1973 15.7083 20.1342 15.7789C20.0856 15.8429 20.0523 15.9171 20.0369 15.9959C20.0224 16.1567 20.0229 16.3186 20.0383 16.4794L20.04 16.4971V16.515V17.7579L20.0303 17.7997C19.9882 17.9814 19.9173 18.1553 19.8204 18.3147L19.8194 18.3164C19.7126 18.4902 19.5738 18.6423 19.4105 18.7646C19.3001 18.8481 19.1784 18.9157 19.049 18.9652L19.0337 18.9711L18.7058 19.08H17.9121L17.668 18.2255L18.1645 18.225C18.3737 18.2247 18.5797 18.1736 18.7647 18.0761C18.8711 18.0153 18.9594 17.9271 19.0204 17.8208C19.0784 17.7084 19.1139 17.5858 19.125 17.4598V16.4217C19.1151 16.2599 19.1153 16.0977 19.1257 15.9359L19.1271 15.9153C19.1449 15.7666 19.1868 15.6218 19.2502 15.4862L19.2566 15.4726C19.3169 15.3559 19.3952 15.2493 19.4882 15.1564C19.4952 15.1492 19.5023 15.1421 19.5095 15.135C19.5021 15.1277 19.4948 15.1203 19.4875 15.1129C19.3953 15.0202 19.3176 14.9141 19.2573 14.798L19.2519 14.7877L19.2472 14.7771C19.1643 14.5902 19.1225 14.3878 19.1248 14.1835C19.1154 14.0269 19.1154 13.8699 19.125 13.7133V12.6609C19.1139 12.535 19.0784 12.4116 19.0204 12.2991C18.9595 12.193 18.8715 12.1051 18.7653 12.0442C18.5793 11.9473 18.3727 11.8961 18.1629 11.895L17.79 11.8929V10.98Z" fill="#B9871B"/>
<path d="M14.8192 11.5203C14.5472 11.5206 14.2794 11.5875 14.0392 11.7153C13.8698 11.8108 13.7297 11.9508 13.6342 12.1203C13.549 12.2832 13.4979 12.4619 13.4842 12.6453C13.4842 12.8353 13.4842 13.0203 13.4842 13.2003V13.0653C13.4992 13.3203 13.4992 13.5003 13.4992 13.7103C13.5088 13.8601 13.5088 14.0104 13.4992 14.1603C13.4861 14.2694 13.4558 14.3757 13.4092 14.4753C13.3662 14.5584 13.3106 14.6343 13.2442 14.7003C13.1741 14.7725 13.0932 14.8332 13.0042 14.8803L12.6742 15.0003H12.4492H12.6742L12.9142 15.1053C13.0033 15.1521 13.0843 15.2129 13.1542 15.2853C13.2204 15.3514 13.276 15.4273 13.3192 15.5103C13.3655 15.6099 13.3959 15.7162 13.4092 15.8253C13.4188 15.9751 13.4188 16.1254 13.4092 16.2753C13.4092 16.4553 13.4092 16.6753 13.4092 16.9353V16.8003C13.4092 16.9803 13.4092 17.1603 13.4092 17.3553C13.4229 17.5387 13.474 17.7173 13.5592 17.8803C13.6547 18.0497 13.7948 18.1898 13.9642 18.2853C14.2048 18.4119 14.4723 18.4788 14.7442 18.4803V18.6453H14.6242H14.3692L14.0992 18.5553C14.0026 18.5183 13.9117 18.4678 13.8292 18.4053C13.7035 18.3302 13.5918 18.2337 13.4992 18.1203C13.423 17.9949 13.3673 17.8582 13.3342 17.7153C13.3196 17.5556 13.3196 17.3949 13.3342 17.2353C13.3342 17.0553 13.3342 16.5303 13.3342 16.5303C13.3523 16.3407 13.3523 16.1499 13.3342 15.9603C13.3089 15.8124 13.247 15.6732 13.1542 15.5553C13.0519 15.4374 12.9235 15.3449 12.7792 15.2853C12.742 15.2625 12.7112 15.2305 12.6899 15.1924C12.6685 15.1544 12.6573 15.1114 12.6573 15.0678C12.6573 15.0241 12.6685 14.9812 12.6899 14.9431C12.7112 14.905 12.742 14.8731 12.7792 14.8503C12.9235 14.7906 13.0519 14.6982 13.1542 14.5803C13.247 14.4624 13.3089 14.3232 13.3342 14.1753C13.3523 13.9857 13.3523 13.7949 13.3342 13.6053C13.3342 13.6053 13.3342 12.5553 13.3342 12.4053C13.3673 12.2624 13.423 12.1257 13.4992 12.0003C13.5815 11.8664 13.6884 11.7494 13.8142 11.6553C13.8967 11.5928 13.9876 11.5423 14.0842 11.5053L14.3542 11.4153H14.6092H14.8042L14.8192 11.5203Z" fill="#34495E"/>
<path fill-rule="evenodd" clip-rule="evenodd" d="M14.2942 11.0403H15.1303L15.2524 11.8948L14.8205 11.8953C14.6113 11.8955 14.4054 11.9466 14.2204 12.0441C14.114 12.105 14.0257 12.1931 13.9646 12.2994C13.9067 12.4119 13.8712 12.5345 13.8601 12.6604V13.0544C13.8749 13.3105 13.8751 13.4955 13.8751 13.6986C13.885 13.8603 13.8847 14.0226 13.8743 14.1843L13.873 14.205C13.8552 14.3537 13.8132 14.4984 13.7498 14.6341L13.7435 14.6476C13.6831 14.7644 13.6048 14.8709 13.5119 14.9638C13.4874 14.9889 13.4621 15.0129 13.4358 15.0359C13.5223 15.1253 13.5953 15.2268 13.6528 15.3372L13.6605 15.3521C13.7234 15.4873 13.7642 15.6318 13.7823 15.7798L13.7836 15.7905L13.7843 15.8013C13.7947 15.963 13.7949 16.1252 13.7851 16.287V17.3393C13.7962 17.4653 13.8317 17.5887 13.8896 17.7011C13.9505 17.8072 14.0386 17.8952 14.1447 17.956C14.3308 18.053 14.5373 18.1041 14.7472 18.1053L15.1201 18.1073V19.0203H14.3092L13.9659 18.9058C13.8427 18.8587 13.7265 18.7948 13.6203 18.7166C13.4643 18.6207 13.3254 18.4993 13.2096 18.3574L13.1931 18.3372L13.1796 18.315C13.0827 18.1556 13.0119 17.9817 12.9698 17.8L12.964 17.7749L12.9616 17.7494C12.9455 17.5729 12.945 17.3953 12.9601 17.2188V16.5304V16.5124L12.9618 16.4947C12.9771 16.3339 12.9776 16.172 12.9632 16.0112C12.9478 15.9324 12.9145 15.8582 12.8659 15.7942C12.8027 15.7236 12.7244 15.6681 12.6368 15.6318L12.6095 15.6205L12.5843 15.6051C12.4924 15.5488 12.4163 15.4699 12.3636 15.3758C12.3109 15.2817 12.2832 15.1756 12.2832 15.0678C12.2832 14.9599 12.3109 14.8539 12.3636 14.7598C12.3878 14.7167 12.4168 14.6767 12.4501 14.6407V14.6253H12.4648C12.5005 14.5891 12.5406 14.5572 12.5843 14.5304L12.6095 14.515L12.6368 14.5037C12.7244 14.4675 12.8027 14.412 12.8659 14.3413C12.9145 14.2774 12.9478 14.2032 12.9632 14.1244C12.9776 13.9635 12.9771 13.8017 12.9618 13.6409L12.9601 13.6231V13.6053H13.125C13.125 13.6053 13.125 13.6053 13.125 13.6053H12.9601V12.3624L12.9698 12.3206C13.0119 12.1389 13.0827 11.965 13.1796 11.8056L13.1806 11.8039C13.2875 11.6301 13.4262 11.478 13.5895 11.3557C13.7 11.2721 13.8217 11.2046 13.951 11.1551L13.9664 11.1492L14.2942 11.0403Z" fill="#B9871B"/>
</svg>
