<svg width="24" height="24" viewBox="0 0 24 24" fill="none" xmlns="http://www.w3.org/2000/svg">
<path d="M19.5003 3.56982H4.51531C3.9934 3.56982 3.57031 3.99291 3.57031 4.51482V19.4998C3.57031 20.0217 3.9934 20.4448 4.51531 20.4448H19.5003C20.0222 20.4448 20.4453 20.0217 20.4453 19.4998V4.51482C20.4453 3.99291 20.0222 3.56982 19.5003 3.56982Z" fill="#FFEFD6"/>
<path d="M19.5 4.125C19.5995 4.125 19.6948 4.16451 19.7652 4.23484C19.8355 4.30516 19.875 4.40054 19.875 4.5V19.5C19.875 19.5995 19.8355 19.6948 19.7652 19.7652C19.6948 19.8355 19.5995 19.875 19.5 19.875H4.5C4.40054 19.875 4.30516 19.8355 4.23484 19.7652C4.16451 19.6948 4.125 19.5995 4.125 19.5V4.5C4.125 4.40054 4.16451 4.30516 4.23484 4.23484C4.30516 4.16451 4.40054 4.125 4.5 4.125H19.5ZM19.5 3H4.5C4.10218 3 3.72064 3.15804 3.43934 3.43934C3.15804 3.72064 3 4.10218 3 4.5V19.5C3 19.8978 3.15804 20.2794 3.43934 20.5607C3.72064 20.842 4.10218 21 4.5 21H19.5C19.8978 21 20.2794 20.842 20.5607 20.5607C20.842 20.2794 21 19.8978 21 19.5V4.5C21 4.10218 20.842 3.72064 20.5607 3.43934C20.2794 3.15804 19.8978 3 19.5 3Z" fill="#EFA539"/>
<path d="M8.7148 18.0903H7.8898C7.46764 17.459 7.13451 16.7725 6.8998 16.0503C6.67817 15.3875 6.56176 14.6941 6.5548 13.9953C6.55011 13.201 6.69251 12.4127 6.9748 11.6703C7.21218 11.0496 7.5245 10.4602 7.9048 9.91528H8.7148C8.37923 10.6193 8.10812 11.3523 7.9048 12.1053C7.64619 13.2024 7.61556 14.3409 7.8148 15.4503C7.89795 15.924 8.01832 16.3905 8.1748 16.8453C8.2848 17.1353 8.4648 17.5503 8.7148 18.0903Z" fill="#AB6A0C"/>
<path d="M9 17.13L11.13 13.875L9.195 10.875H10.695L12 12.885L13.23 10.875H14.73L12.795 13.875L14.925 17.085H13.425L11.895 15L10.5 17.13H9Z" fill="#AB6A0C"/>
<path d="M15.1049 18.0903C15.3449 17.5903 15.5099 17.2053 15.5999 16.9353C15.7073 16.6306 15.7975 16.3201 15.8699 16.0053C15.9475 15.6737 16.0075 15.3382 16.0499 15.0003C16.0702 14.6756 16.0702 14.35 16.0499 14.0253C16.0559 13.3792 15.9854 12.7348 15.8399 12.1053C15.6423 11.3525 15.3762 10.6195 15.0449 9.91528H15.8549C16.278 10.5106 16.6163 11.1618 16.8599 11.8503C17.0958 12.5202 17.2175 13.225 17.2199 13.9353C17.2109 14.5802 17.115 15.221 16.9349 15.8403C16.7038 16.6402 16.3495 17.3993 15.8849 18.0903H15.1049Z" fill="#AB6A0C"/>
<path fill-rule="evenodd" clip-rule="evenodd" d="M3.47266 7.5C3.47266 7.18934 3.7245 6.9375 4.03516 6.9375H20.0252C20.3358 6.9375 20.5877 7.18934 20.5877 7.5C20.5877 7.81066 20.3358 8.0625 20.0252 8.0625H4.03516C3.7245 8.0625 3.47266 7.81066 3.47266 7.5Z" fill="#EFA539"/>
</svg>
