<svg width="24" height="24" viewBox="0 0 24 24" fill="none" xmlns="http://www.w3.org/2000/svg">
<path d="M16.8906 4.77002H6.39063C5.5622 4.77002 4.89062 5.44159 4.89062 6.27002V16.77C4.89062 17.5984 5.5622 18.27 6.39063 18.27H16.8906C17.7191 18.27 18.3906 17.5984 18.3906 16.77V6.27002C18.3906 5.44159 17.7191 4.77002 16.8906 4.77002Z" fill="#EDFFFD"/>
<path d="M19.1102 18.3153L16.4102 20.9253L16.5002 15.6003L19.1102 18.3153Z" fill="#2F91A3"/>
<path fill-rule="evenodd" clip-rule="evenodd" d="M16.2944 15.0768C16.5065 14.9935 16.7478 15.0463 16.9057 15.2105L19.5157 17.9255C19.7305 18.1491 19.724 18.5043 19.5011 18.7198L16.8011 21.3298C16.6375 21.4879 16.3948 21.5319 16.1861 21.4413C15.9774 21.3507 15.8439 21.1433 15.8477 20.9159L15.9377 15.5909C15.9416 15.3631 16.0824 15.1601 16.2944 15.0768ZM17.0395 16.9731L16.9955 19.5772L18.3159 18.3008L17.0395 16.9731Z" fill="#2F91A3"/>
<path fill-rule="evenodd" clip-rule="evenodd" d="M6.57065 4.20752H16.6956C16.6956 4.20752 16.6956 4.20752 16.6956 4.20752C17.2909 4.2075 17.8621 4.4426 18.2849 4.86165C18.7077 5.2807 18.9479 5.84978 18.9531 6.44504L18.9532 6.45002L18.9531 9.75002C18.9531 10.0607 18.7013 10.3125 18.3906 10.3125C18.08 10.3125 17.8281 10.0607 17.8281 9.75002V6.45281C17.8249 6.15499 17.7045 5.87038 17.4929 5.66067C17.2808 5.45045 16.9943 5.33251 16.6957 5.33252H6.57338C6.27729 5.33571 5.9942 5.45474 5.78478 5.66416C5.57537 5.87357 5.45634 6.15667 5.45315 6.45275V16.5873C5.45634 16.8834 5.57537 17.1665 5.78478 17.3759C5.99421 17.5853 6.27731 17.7043 6.57341 17.7075H16.6956C17.0063 17.7075 17.2581 17.9594 17.2581 18.27C17.2581 18.5807 17.0063 18.8325 16.6956 18.8325H6.56569C5.97388 18.8273 5.40778 18.5899 4.98929 18.1714C4.5708 17.7529 4.33338 17.1868 4.32817 16.595L4.32812 16.59L4.32815 6.44506C4.33336 5.85325 4.5708 5.28715 4.98929 4.86866C5.40778 4.45017 5.97388 4.21276 6.56569 4.20754L6.57065 4.20752Z" fill="#2F91A3"/>
</svg>
