<svg width="24" height="24" viewBox="0 0 24 24" fill="none" xmlns="http://www.w3.org/2000/svg">
<path d="M8.75234 4.95011C9.67255 4.39061 10.736 4.11172 11.8123 4.14761C13.2186 4.09003 14.6064 4.48428 15.7723 5.27261C16.8223 6.02261 17.3473 7.14761 17.3473 8.64761C17.3751 9.47108 17.1357 10.2814 16.6648 10.9576C16.2213 11.5093 15.7054 11.9987 15.1311 12.4126L14.3811 12.9939C13.9994 13.2743 13.716 13.668 13.5711 14.1189C13.4696 14.5296 13.4242 14.9522 13.4361 15.3751H10.5748C10.5628 14.5416 10.6766 13.711 10.9123 12.9114C11.2463 12.2809 11.7306 11.7425 12.3223 11.3439L13.0723 10.7439C13.3137 10.5734 13.5253 10.3644 13.6986 10.1251C13.9726 9.75661 14.12 9.30931 14.1186 8.85011C14.1219 8.32516 13.9577 7.81283 13.6498 7.38761C13.3373 6.94761 12.7673 6.72761 11.9398 6.72761C11.1123 6.72761 10.5348 6.99886 10.2073 7.54136C9.87905 8.04332 9.70202 8.62909 9.69735 9.22886H6.65234C6.73734 7.21386 7.43734 5.78761 8.75234 4.95011ZM10.4998 16.8039H13.6536V19.8526H10.4998V16.8039Z" fill="#1CAFE4"/>
</svg>
