<svg width="24" height="24" viewBox="0 0 24 24" fill="none" xmlns="http://www.w3.org/2000/svg">
<path d="M11.9997 20.4452C16.6637 20.4452 20.4447 16.6642 20.4447 12.0002C20.4447 7.33613 16.6637 3.55518 11.9997 3.55518C7.33564 3.55518 3.55469 7.33613 3.55469 12.0002C3.55469 16.6642 7.33564 20.4452 11.9997 20.4452Z" fill="#DEF4FD"/>
<path d="M12 4.125C13.5575 4.125 15.0801 4.58686 16.3751 5.45218C17.6702 6.31749 18.6795 7.5474 19.2756 8.98637C19.8716 10.4253 20.0275 12.0087 19.7237 13.5363C19.4198 15.0639 18.6698 16.4671 17.5685 17.5685C16.4671 18.6698 15.0639 19.4198 13.5363 19.7237C12.0087 20.0275 10.4253 19.8716 8.98637 19.2756C7.5474 18.6795 6.3175 17.6702 5.45218 16.3751C4.58686 15.0801 4.125 13.5575 4.125 12C4.12897 9.91264 4.95993 7.9119 6.43592 6.43591C7.91191 4.95992 9.91264 4.12896 12 4.125ZM12 3C10.22 3 8.47991 3.52784 6.99987 4.51677C5.51983 5.50571 4.36628 6.91131 3.68509 8.55585C3.0039 10.2004 2.82567 12.01 3.17294 13.7558C3.5202 15.5016 4.37737 17.1053 5.63604 18.364C6.89472 19.6226 8.49836 20.4798 10.2442 20.8271C11.99 21.1743 13.7996 20.9961 15.4442 20.3149C17.0887 19.6337 18.4943 18.4802 19.4832 17.0001C20.4722 15.5201 21 13.78 21 12C21 9.61305 20.0518 7.32387 18.364 5.63604C16.6761 3.94821 14.387 3 12 3Z" fill="#2C66BD"/>
<path d="M16.6209 9.34519V10.8452H13.2909L12.2709 13.1402H16.6359V14.6402H11.5809L10.6359 16.8002H9.13586L10.0959 14.6702H7.38086V13.1702H10.7109L11.7459 10.8602H7.38086V9.36019H12.4059L13.3659 7.2002H14.8659L13.9659 9.34519H16.6209Z" fill="#2C66BD"/>
</svg>
