<svg width="24" height="24" viewBox="0 0 24 24" fill="none" xmlns="http://www.w3.org/2000/svg">
<path d="M8.43 19.6952C8.18335 19.6952 7.9468 19.5972 7.77239 19.4228C7.59798 19.2484 7.5 19.0119 7.5 18.7652V5.2652C7.5 5.01855 7.59798 4.782 7.77239 4.6076C7.9468 4.43319 8.18335 4.33521 8.43 4.33521H18.345C18.5917 4.33521 18.8282 4.43319 19.0026 4.6076C19.177 4.782 19.275 5.01855 19.275 5.2652V15.2552L14.775 19.7552L8.43 19.6952Z" fill="#C9EDD2"/>
<path d="M18.3447 4.87511C18.392 4.87511 18.4388 4.88442 18.4825 4.90251C18.5261 4.9206 18.5658 4.94712 18.5992 4.98055C18.6327 5.01398 18.6592 5.05366 18.6773 5.09734C18.6954 5.14102 18.7047 5.18783 18.7047 5.23511V15.0001L14.5797 19.1251H8.42969C8.33421 19.1251 8.24264 19.0872 8.17513 19.0197C8.10762 18.9522 8.06969 18.8606 8.06969 18.7651V5.26511C8.06969 5.16963 8.10762 5.07806 8.17513 5.01055C8.24264 4.94304 8.33421 4.90511 8.42969 4.90511H18.3447V4.87511ZM18.3447 3.78011H8.42969C8.03186 3.78011 7.65033 3.93814 7.36903 4.21945C7.08772 4.50075 6.92969 4.88228 6.92969 5.28011V18.7801C6.92969 19.1779 7.08772 19.5595 7.36903 19.8408C7.65033 20.1221 8.03186 20.2801 8.42969 20.2801H14.9997L19.7847 15.4951V5.23511C19.7847 4.83728 19.6267 4.45575 19.3453 4.17445C19.064 3.89314 18.6825 3.73511 18.2847 3.73511L18.3447 3.78011Z" fill="#1A6016"/>
<path fill-rule="evenodd" clip-rule="evenodd" d="M14.2312 13.7473L19.4962 13.7173L19.5026 14.8423L14.7969 14.8691V20.2498H13.6719V14.3098C13.6719 14.0004 13.9218 13.749 14.2312 13.7473Z" fill="#1A6016"/>
<path d="M13.1849 7.69482H4.16992V10.7098H13.1849V7.69482Z" fill="#C9EDD2"/>
<path fill-rule="evenodd" clip-rule="evenodd" d="M3.60742 7.69482C3.60742 7.38416 3.85926 7.13232 4.16992 7.13232H13.1849C13.4956 7.13232 13.7474 7.38416 13.7474 7.69482V10.7098C13.7474 11.0205 13.4956 11.2723 13.1849 11.2723H4.16992C3.85926 11.2723 3.60742 11.0205 3.60742 10.7098V7.69482ZM4.73242 8.25732V10.1473H12.6224V8.25732H4.73242Z" fill="#1A6016"/>
</svg>
