<svg width="24" height="24" viewBox="0 0 24 24" fill="none" xmlns="http://www.w3.org/2000/svg">
<path d="M19.605 9.375C19.7711 9.15928 19.8655 8.89704 19.875 8.625C19.875 6.975 16.185 5.625 11.625 5.625C7.06505 5.625 3.37505 6.975 3.37505 8.625C3.38463 8.89704 3.47903 9.15928 3.64505 9.375C3.46931 9.58541 3.37305 9.85085 3.37305 10.125C3.37305 10.3991 3.46931 10.6646 3.64505 10.875C3.46931 11.0854 3.37305 11.3509 3.37305 11.625C3.37305 11.8991 3.46931 12.1646 3.64505 12.375C3.46931 12.5854 3.37305 12.8509 3.37305 13.125C3.37305 13.3991 3.46931 13.6646 3.64505 13.875C3.46931 14.0854 3.37305 14.3509 3.37305 14.625C3.37305 14.8991 3.46931 15.1646 3.64505 15.375C3.46931 15.5854 3.37305 15.8509 3.37305 16.125C3.37305 16.3991 3.46931 16.6646 3.64505 16.875C3.47903 17.0907 3.38463 17.353 3.37505 17.625C3.37505 19.275 7.06505 20.625 11.625 20.625C16.185 20.625 19.875 19.275 19.875 17.625C19.8655 17.353 19.7711 17.0907 19.605 16.875C19.7808 16.6646 19.8771 16.3991 19.8771 16.125C19.8771 15.8509 19.7808 15.5854 19.605 15.375C19.7808 15.1646 19.8771 14.8991 19.8771 14.625C19.8771 14.3509 19.7808 14.0854 19.605 13.875C19.7808 13.6646 19.8771 13.3991 19.8771 13.125C19.8771 12.8509 19.7808 12.5854 19.605 12.375C19.7808 12.1646 19.8771 11.8991 19.8771 11.625C19.8771 11.3509 19.7808 11.0854 19.605 10.875C19.7808 10.6646 19.8771 10.3991 19.8771 10.125C19.8771 9.85085 19.7808 9.58541 19.605 9.375Z" fill="#F9F9D1"/>
<path d="M11.625 11.625C16.1813 11.625 19.875 10.2819 19.875 8.625C19.875 6.96815 16.1813 5.625 11.625 5.625C7.06865 5.625 3.375 6.96815 3.375 8.625C3.375 10.2819 7.06865 11.625 11.625 11.625Z" fill="#AC9230"/>
<path d="M11.625 19.125C7.785 19.125 4.56 18.165 3.645 16.875C3.47898 17.0907 3.38458 17.353 3.375 17.625C3.375 19.275 7.065 20.625 11.625 20.625C16.185 20.625 19.875 19.275 19.875 17.625C19.8654 17.353 19.771 17.0907 19.605 16.875C18.69 18.165 15.465 19.125 11.625 19.125Z" fill="#AC9230"/>
<path d="M11.625 14.625C7.785 14.625 4.56 13.665 3.645 12.375C3.47898 12.5907 3.38458 12.853 3.375 13.125C3.375 14.775 7.065 16.125 11.625 16.125C16.185 16.125 19.875 14.775 19.875 13.125C19.8654 12.853 19.771 12.5907 19.605 12.375C18.69 13.665 15.465 14.625 11.625 14.625Z" fill="#AC9230"/>
<path fill-rule="evenodd" clip-rule="evenodd" d="M21.1553 2.84467C21.4482 3.13756 21.4482 3.61244 21.1553 3.90533L18.1553 6.90533C17.8624 7.19822 17.3876 7.19822 17.0947 6.90533C16.8018 6.61244 16.8018 6.13756 17.0947 5.84467L20.0947 2.84467C20.3876 2.55178 20.8624 2.55178 21.1553 2.84467Z" fill="#AC9230"/>
<path fill-rule="evenodd" clip-rule="evenodd" d="M16.875 3.375C16.875 2.96079 17.2108 2.625 17.625 2.625H20.625C21.0392 2.625 21.375 2.96079 21.375 3.375C21.375 3.78921 21.0392 4.125 20.625 4.125H17.625C17.2108 4.125 16.875 3.78921 16.875 3.375Z" fill="#AC9230"/>
<path fill-rule="evenodd" clip-rule="evenodd" d="M20.625 2.625C21.0392 2.625 21.375 2.96079 21.375 3.375V6.375C21.375 6.78921 21.0392 7.125 20.625 7.125C20.2108 7.125 19.875 6.78921 19.875 6.375V3.375C19.875 2.96079 20.2108 2.625 20.625 2.625Z" fill="#AC9230"/>
</svg>
