<svg width="24" height="24" viewBox="0 0 24 24" fill="none" xmlns="http://www.w3.org/2000/svg">
<path d="M18 4.5H6C5.17157 4.5 4.5 5.17157 4.5 6V18C4.5 18.8284 5.17157 19.5 6 19.5H18C18.8284 19.5 19.5 18.8284 19.5 18V6C19.5 5.17157 18.8284 4.5 18 4.5Z" fill="#FFFFD6"/>
<path fill-rule="evenodd" clip-rule="evenodd" d="M6 5.0625C5.48223 5.0625 5.0625 5.48223 5.0625 6V18C5.0625 18.5178 5.48223 18.9375 6 18.9375H18C18.5178 18.9375 18.9375 18.5178 18.9375 18V6C18.9375 5.48223 18.5178 5.0625 18 5.0625H6ZM3.9375 6C3.9375 4.86091 4.86091 3.9375 6 3.9375H18C19.1391 3.9375 20.0625 4.86091 20.0625 6V18C20.0625 19.1391 19.1391 20.0625 18 20.0625H6C4.86091 20.0625 3.9375 19.1391 3.9375 18V6Z" fill="#CEBD39"/>
<path d="M11.3242 14.7002C13.1882 14.7002 14.6992 13.1892 14.6992 11.3252C14.6992 9.46123 13.1882 7.9502 11.3242 7.9502C9.46026 7.9502 7.94922 9.46123 7.94922 11.3252C7.94922 13.1892 9.46026 14.7002 11.3242 14.7002Z" fill="#FFFFD6"/>
<path fill-rule="evenodd" clip-rule="evenodd" d="M11.3242 8.5127C9.77092 8.5127 8.51172 9.77189 8.51172 11.3252C8.51172 12.8785 9.77092 14.1377 11.3242 14.1377C12.8775 14.1377 14.1367 12.8785 14.1367 11.3252C14.1367 9.77189 12.8775 8.5127 11.3242 8.5127ZM7.38672 11.3252C7.38672 9.15057 9.1496 7.3877 11.3242 7.3877C13.4988 7.3877 15.2617 9.15057 15.2617 11.3252C15.2617 13.4998 13.4988 15.2627 11.3242 15.2627C9.1496 15.2627 7.38672 13.4998 7.38672 11.3252Z" fill="#CEBD39"/>
<path fill-rule="evenodd" clip-rule="evenodd" d="M13.448 13.4472C13.6676 13.2276 14.0238 13.2276 14.2435 13.4472L17.1235 16.3272C17.3431 16.5469 17.3431 16.903 17.1235 17.1227C16.9038 17.3424 16.5476 17.3424 16.328 17.1227L13.448 14.2427C13.2283 14.023 13.2283 13.6669 13.448 13.4472Z" fill="#CEBD39"/>
</svg>
