<svg width="24" height="24" viewBox="0 0 24 24" fill="none" xmlns="http://www.w3.org/2000/svg">
<path d="M7.4107 20.4447C7.12825 20.4447 6.85736 20.3325 6.65763 20.1328C6.45791 19.933 6.3457 19.6621 6.3457 19.3797V4.61969C6.3457 4.33723 6.45791 4.06635 6.65763 3.86662C6.85736 3.66689 7.12825 3.55469 7.4107 3.55469H12.7507L17.6407 8.44469V19.3647C17.6407 19.6471 17.5285 19.918 17.3288 20.1178C17.129 20.3175 16.8582 20.4297 16.5757 20.4297L7.4107 20.4447Z" fill="#F2F2F2"/>
<path d="M12.526 4.125L17.026 8.625V19.32C17.026 19.4513 16.9739 19.5772 16.881 19.67C16.7882 19.7628 16.6623 19.815 16.531 19.815H7.41102C7.27973 19.815 7.15383 19.7628 7.061 19.67C6.96817 19.5772 6.91602 19.4513 6.91602 19.32V4.62C6.91602 4.48872 6.96817 4.36281 7.061 4.26998C7.15383 4.17715 7.27973 4.125 7.41102 4.125H12.526ZM12.991 3H7.41102C6.98137 3 6.56931 3.17068 6.2655 3.47449C5.96169 3.7783 5.79102 4.19035 5.79102 4.62V19.38C5.79102 19.8097 5.96169 20.2217 6.2655 20.5255C6.56931 20.8293 6.98137 21 7.41102 21H16.591C17.0207 21 17.4327 20.8293 17.7365 20.5255C18.0403 20.2217 18.211 19.8097 18.211 19.38V8.22L12.991 3Z" fill="#737373"/>
<path fill-rule="evenodd" clip-rule="evenodd" d="M12.668 8.9175V3H11.543V9.48C11.543 9.79066 11.7948 10.0425 12.1055 10.0425H17.5955V8.9175H12.668Z" fill="#737373"/>
<path fill-rule="evenodd" clip-rule="evenodd" d="M12.5407 15.7352C12.5437 15.6183 12.5115 15.5032 12.4484 15.4047C12.3853 15.3062 12.2941 15.2289 12.1866 15.1828C12.0791 15.1367 11.9603 15.1238 11.8454 15.1459C11.7306 15.168 11.625 15.224 11.5423 15.3067C11.4596 15.3895 11.4035 15.4951 11.3814 15.6099C11.3594 15.7248 11.3722 15.8436 11.4183 15.9511C11.4644 16.0586 11.5417 16.1498 11.6402 16.2129C11.7387 16.276 11.8538 16.3082 11.9707 16.3052C12.1196 16.2979 12.2603 16.2356 12.3657 16.1302C12.4711 16.0248 12.5335 15.884 12.5407 15.7352ZM15.2107 15.1502L14.4007 15.0002C14.3545 14.8261 14.2838 14.6595 14.1907 14.5052L14.6707 13.8002C14.6951 13.7707 14.7084 13.7335 14.7084 13.6952C14.7084 13.6569 14.6951 13.6198 14.6707 13.5902L14.1007 13.0202C14.0712 12.9958 14.034 12.9825 13.9957 12.9825C13.9574 12.9825 13.9203 12.9958 13.8907 13.0202L13.1707 13.5002C13.0144 13.4113 12.8483 13.3408 12.6757 13.2902L12.5257 12.4802C12.5133 12.4419 12.4894 12.4083 12.4572 12.3841C12.4249 12.36 12.386 12.3464 12.3457 12.3452H11.5357C11.4974 12.3472 11.4608 12.3614 11.4311 12.3857C11.4014 12.4099 11.3803 12.4431 11.3707 12.4802L11.2207 13.3202C11.0534 13.3585 10.892 13.419 10.7407 13.5002L10.0507 13.0352C10.0227 13.0077 9.98499 12.9923 9.94573 12.9923C9.90646 12.9923 9.86877 13.0077 9.84073 13.0352L9.27073 13.6052C9.24634 13.6348 9.23301 13.6719 9.23301 13.7102C9.23301 13.7485 9.24634 13.7857 9.27073 13.8152L9.73573 14.4902C9.65567 14.6489 9.5904 14.8146 9.54073 14.9852L8.73073 15.1352C8.69234 15.1423 8.65772 15.1628 8.633 15.193C8.60828 15.2232 8.59508 15.2612 8.59573 15.3002V16.1402C8.59554 16.1775 8.60927 16.2136 8.63423 16.2413C8.65919 16.269 8.6936 16.2865 8.73073 16.2902L9.54073 16.4552C9.58203 16.6263 9.65311 16.7888 9.75073 16.9352L9.28573 17.6102C9.25824 17.6383 9.24285 17.676 9.24285 17.7152C9.24285 17.7545 9.25824 17.7922 9.28573 17.8202L9.85573 18.4052C9.88528 18.4296 9.92241 18.4429 9.96073 18.4429C9.99904 18.4429 10.0362 18.4296 10.0657 18.4052L10.7407 18.0002C10.8913 18.0828 11.053 18.1434 11.2207 18.1802L11.3707 19.0202C11.3778 19.0586 11.3983 19.0932 11.4285 19.1179C11.4587 19.1427 11.4967 19.1559 11.5357 19.1552H12.3607C12.4016 19.1565 12.4417 19.1438 12.4744 19.1193C12.5071 19.0948 12.5305 19.0598 12.5407 19.0202L12.6907 18.2102L13.1707 18.0002L13.8457 18.4502C13.8753 18.4746 13.9124 18.4879 13.9507 18.4879C13.989 18.4879 14.0262 18.4746 14.0557 18.4502L14.6257 17.8652C14.6532 17.8372 14.6686 17.7995 14.6686 17.7602C14.6686 17.721 14.6532 17.6833 14.6257 17.6552L14.1607 16.9502C14.2658 16.815 14.347 16.6628 14.4007 16.5002L15.2107 16.3352C15.2479 16.3315 15.2823 16.314 15.3072 16.2863C15.3322 16.2586 15.3459 16.2225 15.3457 16.1852V15.3452C15.3464 15.3062 15.3332 15.2682 15.3085 15.238C15.2837 15.2078 15.2491 15.1873 15.2107 15.1802V15.1502ZM12.0007 17.1452C11.7176 17.1482 11.4401 17.0668 11.2034 16.9113C10.9668 16.7559 10.7819 16.5335 10.6721 16.2725C10.5624 16.0115 10.533 15.7238 10.5875 15.4459C10.642 15.1681 10.778 14.9129 10.9782 14.7127C11.1784 14.5125 11.4336 14.3765 11.7115 14.322C11.9893 14.2674 12.277 14.2969 12.538 14.4066C12.799 14.5163 13.0214 14.7013 13.1768 14.9379C13.3323 15.1746 13.4137 15.4521 13.4107 15.7352C13.4068 16.108 13.257 16.4643 12.9934 16.7279C12.7298 16.9915 12.3735 17.1413 12.0007 17.1452Z" fill="#737373"/>
</svg>
