<svg width="24" height="24" viewBox="0 0 24 24" fill="none" xmlns="http://www.w3.org/2000/svg">
<path d="M5.76025 10.8904H8.49951L7.15186 6.64233L5.76025 10.8904ZM5.89941 4.17407H8.44824L12.2715 14.97H9.8252L9.1294 12.7507H5.15234L4.40527 14.97H2.04688L5.89941 4.17407Z" fill="#609404"/>
<path d="M17.8818 11.0881C17.75 11.1711 17.6157 11.2395 17.479 11.2932C17.3472 11.342 17.1641 11.3884 16.9297 11.4324L16.4609 11.5203C16.0215 11.5984 15.7065 11.6936 15.5161 11.8059C15.1938 11.9963 15.0327 12.2917 15.0327 12.6921C15.0327 13.0486 15.1304 13.3074 15.3257 13.4685C15.5259 13.6248 15.7676 13.7029 16.0508 13.7029C16.5 13.7029 16.9126 13.571 17.2886 13.3074C17.6694 13.0437 17.8672 12.5627 17.8818 11.8645V11.0881ZM16.6147 10.114C17.0005 10.0652 17.2764 10.0042 17.4424 9.93091C17.7402 9.80396 17.8892 9.6062 17.8892 9.33765C17.8892 9.0105 17.7744 8.78589 17.5449 8.66382C17.3203 8.53687 16.9883 8.47339 16.5488 8.47339C16.0557 8.47339 15.7065 8.59546 15.5015 8.8396C15.355 9.02026 15.2573 9.2644 15.2085 9.57202H13.1943C13.2383 8.87378 13.4336 8.30005 13.7803 7.85083C14.332 7.14771 15.2793 6.79614 16.6221 6.79614C17.4961 6.79614 18.2725 6.96948 18.9512 7.31616C19.6299 7.66284 19.9692 8.31714 19.9692 9.27905V12.9412C19.9692 13.1951 19.9741 13.5027 19.9839 13.864C19.9985 14.1375 20.04 14.323 20.1084 14.4207C20.1768 14.5183 20.2793 14.5989 20.416 14.6624V14.97H18.1455C18.082 14.8088 18.0381 14.6575 18.0137 14.5159C17.9893 14.3743 17.9697 14.2131 17.9551 14.0325C17.667 14.345 17.335 14.6111 16.959 14.8308C16.5098 15.0896 16.002 15.219 15.4355 15.219C14.7129 15.219 14.1147 15.0139 13.6411 14.6038C13.1724 14.1887 12.938 13.6028 12.938 12.8459C12.938 11.8645 13.3164 11.1541 14.0732 10.7146C14.4883 10.4753 15.0986 10.3044 15.9043 10.2019L16.6147 10.114Z" fill="#609404"/>
</svg>
