<svg width="24" height="24" viewBox="0 0 24 24" fill="none" xmlns="http://www.w3.org/2000/svg">
<path d="M19.1401 17.73L10.8901 20.73C10.4206 20.8993 9.9031 20.8761 9.45065 20.6653C8.9982 20.4546 8.64749 20.0734 8.47508 19.605C8.3057 19.1354 8.32894 18.618 8.53971 18.1655C8.75047 17.7131 9.13166 17.3624 9.60008 17.19L17.8501 14.19L18.6001 13.92L17.4751 10.8L17.2651 10.23L14.8951 3.70496C14.8173 3.49227 14.6583 3.31911 14.4531 3.2235C14.2478 3.12788 14.0129 3.11762 13.8001 3.19496L4.57508 6.55496C4.36238 6.63272 4.18923 6.79169 4.09361 6.99698C3.998 7.20227 3.98774 7.43711 4.06508 7.64996L6.43508 14.13L6.66008 14.73L8.16008 18.72L8.49008 19.605C8.66249 20.0734 9.0132 20.4546 9.46565 20.6653C9.9181 20.8761 10.4356 20.8993 10.9051 20.73L20.0401 17.4" fill="#DEF4FD"/>
<path fill-rule="evenodd" clip-rule="evenodd" d="M13.6077 2.66628C13.9606 2.53806 14.35 2.55507 14.6903 2.71359C15.0307 2.87211 15.2942 3.15918 15.4231 3.5118L17.7927 10.0355L17.7935 10.0379L18.004 10.6092L19.129 13.7292C19.1796 13.8695 19.1724 14.0243 19.1089 14.1593C19.0454 14.2944 18.9308 14.3987 18.7904 14.4492L18.0421 14.7186L18.0404 14.7192L9.79414 17.7178C9.79385 17.7179 9.79444 17.7177 9.79414 17.7178C9.46554 17.8391 9.19727 18.0856 9.04936 18.4031C8.9268 18.6662 8.89452 18.9606 8.95455 19.2412L9.01772 19.4107C9.13882 19.7397 9.38515 20.0074 9.70294 20.1554C9.87787 20.2369 10.0666 20.2785 10.256 20.2796C10.4054 20.2787 10.555 20.2527 10.6982 20.2011C10.6985 20.201 10.6979 20.2012 10.6982 20.2011L19.8472 16.8715C20.1391 16.7651 20.4619 16.9154 20.5683 17.2073C20.6747 17.4992 20.5244 17.822 20.2325 17.9284L19.3745 18.2412C19.3607 18.2475 19.3466 18.2533 19.3321 18.2586L11.0975 21.2584L11.0957 21.2591C10.8239 21.3571 10.5396 21.4055 10.256 21.4046C9.89902 21.4057 9.54265 21.3288 9.21289 21.1752C8.62578 20.9017 8.17069 20.4071 7.94696 19.7993L7.96015 19.7944L7.9589 19.7911L7.94571 19.7958C7.91873 19.721 7.89551 19.6453 7.87605 19.5689L7.63332 18.9179L7.63279 18.9165L5.90655 14.3232L3.53656 7.84317C3.40834 7.49029 3.42495 7.09984 3.58347 6.75949C3.74199 6.41915 4.02906 6.15559 4.38168 6.02666L13.6077 2.66628ZM8.29635 17.4846C8.57753 17.1127 8.9613 16.8256 9.40554 16.6621L9.40761 16.6613L17.6576 13.6613L17.6593 13.6607L17.8798 13.5813L16.947 10.9944L16.9457 10.9908L16.737 10.4244L16.7361 10.422L14.3665 3.89811C14.3665 3.89796 14.3666 3.89826 14.3665 3.89811C14.3399 3.82556 14.2854 3.76605 14.2153 3.7334C14.1452 3.70072 14.0649 3.69719 13.9921 3.72357C13.9921 3.72359 13.9922 3.72355 13.9921 3.72357L4.76799 7.08326C4.76793 7.08328 4.76806 7.08323 4.76799 7.08326C4.69532 7.10988 4.63597 7.1643 4.60328 7.23448C4.57064 7.30457 4.56708 7.38474 4.59337 7.45745C4.59342 7.45759 4.59332 7.45732 4.59337 7.45745L6.96233 13.9346L8.29635 17.4846Z" fill="#1A79AA"/>
<path fill-rule="evenodd" clip-rule="evenodd" d="M19.7437 15.4979C19.8498 15.7899 19.6991 16.1126 19.4072 16.2188L10.7822 19.3538C10.4902 19.4599 10.1675 19.3092 10.0613 19.0173C9.95521 18.7253 10.1059 18.4026 10.3978 18.2964L19.0228 15.1614C19.3148 15.0553 19.6375 15.206 19.7437 15.4979Z" fill="#1A79AA"/>
<path fill-rule="evenodd" clip-rule="evenodd" d="M5.49691 6.05248C5.69154 5.98168 5.90671 6.08206 5.97751 6.27669L9.86251 16.9567C9.93331 17.1513 9.83293 17.3665 9.6383 17.4373C9.44367 17.5081 9.22849 17.4077 9.15769 17.2131L5.27269 6.53308C5.20189 6.33845 5.30228 6.12328 5.49691 6.05248Z" fill="#2980B9"/>
<path d="M12.1705 9.29851C12.1189 9.36498 12.0634 9.42447 12.004 9.47697C11.9461 9.5261 11.8617 9.58345 11.7509 9.64904L11.5293 9.78021C11.3207 9.90102 11.1785 10.0075 11.1026 10.0997C10.9743 10.2558 10.9471 10.4355 11.021 10.6386C11.0868 10.8195 11.1842 10.9328 11.3131 10.9785C11.4435 11.0208 11.5806 11.0158 11.7243 10.9635C11.9522 10.8805 12.1373 10.7374 12.2793 10.5342C12.4239 10.3301 12.4354 10.0495 12.3139 9.69246L12.1705 9.29851ZM11.3476 9.03823C11.5344 8.94221 11.6631 8.86028 11.7338 8.79246C11.8615 8.67303 11.9005 8.54517 11.8509 8.4089C11.7905 8.24289 11.6908 8.15011 11.5518 8.13055C11.4144 8.10762 11.2342 8.13673 11.0112 8.21789C10.7609 8.30898 10.6063 8.4354 10.5473 8.59716C10.5064 8.71589 10.5019 8.85781 10.534 9.02292L9.5119 9.39492C9.40524 9.03249 9.39839 8.70529 9.49134 8.41331C9.64146 7.95462 10.0572 7.60127 10.7386 7.35328C11.1821 7.19185 11.608 7.13642 12.0165 7.18699C12.4249 7.23755 12.718 7.50689 12.8956 7.995L13.572 9.85327C13.6189 9.98212 13.6782 10.1373 13.7498 10.3189C13.8078 10.4549 13.8631 10.5414 13.9158 10.5783C13.9686 10.6152 14.0355 10.6372 14.1166 10.6442L14.1734 10.8002L13.0212 11.2196C12.9593 11.1495 12.909 11.0809 12.8705 11.0135C12.8319 10.9462 12.7923 10.868 12.7515 10.779C12.663 10.9908 12.5437 11.1872 12.3935 11.3681C12.2133 11.5824 11.9795 11.7418 11.6921 11.8465C11.3254 11.9799 10.984 11.9863 10.6679 11.8657C10.3534 11.7416 10.1263 11.4876 9.98648 11.1036C9.80522 10.6055 9.86603 10.1752 10.1689 9.81238C10.3353 9.61432 10.6135 9.41487 11.0034 9.21404L11.3476 9.03823Z" fill="#34495E"/>
</svg>
