<svg width="24" height="24" viewBox="0 0 24 24" fill="none" xmlns="http://www.w3.org/2000/svg">
<path d="M16.4849 20.1151L18.3899 19.1101L18.9149 16.8601V15.8101L19.1999 13.5601L19.8599 12.7201L21.5549 11.8801H19.8599L21.0299 11.6701L19.2749 10.3651L19.1699 9.48008V7.86008L18.9149 5.64008L18.2099 4.81508L17.0849 4.32008L16.4849 4.26008L7.39492 4.08008L6.08992 4.99508L5.27992 5.65508V6.57008L5.41492 6.31508L5.12992 9.34508L5.27992 10.3951L2.99992 11.8801L2.66992 12.1651L2.99992 11.8801L4.46992 12.9451L4.67992 13.5601L5.54992 15.8401L5.50492 16.8301L5.47492 17.5201L5.50492 16.3201V16.9051L5.83492 18.3451L6.35992 19.0651L7.30492 19.6351L8.05492 20.1151H16.4849Z" fill="#EDFFFD"/>
<path d="M15.8555 19.8002C16.4511 19.8002 17.0378 19.6561 17.5655 19.3802C17.9374 19.1669 18.2436 18.8556 18.4505 18.4802C18.6392 18.1168 18.7515 17.7186 18.7805 17.3102C18.7805 16.8902 18.7805 16.4852 18.7805 16.0952V16.3952C18.7805 15.8252 18.7805 15.3452 18.7805 14.8952C18.7886 14.5586 18.8187 14.2229 18.8705 13.8902C18.9037 13.6506 18.9746 13.4177 19.0805 13.2002C19.1974 13.0345 19.3391 12.8878 19.5005 12.7652C19.6496 12.6098 19.8216 12.4783 20.0105 12.3752C20.1836 12.2844 20.3643 12.2091 20.5505 12.1502C20.6964 12.0884 20.8468 12.0382 21.0005 12.0002C21.1505 12.0002 21.1505 11.9252 21.0005 11.8952C20.8329 11.8742 20.6673 11.8391 20.5055 11.7902C20.3186 11.733 20.1378 11.6576 19.9655 11.5652C19.7963 11.4768 19.6398 11.3658 19.5005 11.2352C19.356 11.0895 19.2346 10.9226 19.1405 10.7402C19.0349 10.5226 18.964 10.2898 18.9305 10.0502C18.8768 9.70264 18.8467 9.35183 18.8405 9.0002C18.8405 8.6102 18.8405 8.1102 18.8405 7.5002V7.8002C18.8405 7.4102 18.8405 7.0052 18.8405 6.5852C18.8115 6.17676 18.6992 5.77859 18.5105 5.4152C18.3029 5.04025 17.9969 4.72908 17.6255 4.5152C17.0974 4.24037 16.5109 4.09633 15.9155 4.0952V3.8252H16.3655C16.5527 3.83998 16.7383 3.87008 16.9205 3.9152C17.1251 3.96528 17.3256 4.03045 17.5205 4.1102C17.6966 4.21909 17.8579 4.35016 18.0005 4.5002C18.2749 4.70546 18.5088 4.95974 18.6905 5.2502C18.8571 5.52407 18.9786 5.82286 19.0505 6.1352C19.1293 6.49017 19.1745 6.85176 19.1855 7.2152C19.1855 7.6052 19.1855 8.7152 19.1855 8.7152C19.181 9.13259 19.2162 9.54946 19.2905 9.9602C19.3454 10.2829 19.4794 10.587 19.6805 10.8452C19.9032 11.1124 20.1859 11.3231 20.5055 11.4602C20.5894 11.511 20.6587 11.5825 20.7068 11.6679C20.7549 11.7533 20.7802 11.8497 20.7802 11.9477C20.7802 12.0457 20.7549 12.1421 20.7068 12.2275C20.6587 12.3129 20.5894 12.3844 20.5055 12.4352C20.1877 12.5684 19.9052 12.7739 19.6805 13.0352C19.4799 13.2937 19.346 13.5977 19.2905 13.9202C19.2162 14.3309 19.181 14.7478 19.1855 15.1652C19.1855 15.1652 19.1105 17.4752 19.0355 17.8052C18.9636 18.1175 18.8421 18.4163 18.6755 18.6902C18.5047 19.0011 18.2755 19.2761 18.0005 19.5002C17.8228 19.6422 17.6258 19.7583 17.4155 19.8452C17.2204 19.9242 17.0199 19.9893 16.8155 20.0402C16.6332 20.0846 16.4476 20.1146 16.2605 20.1302H15.8105L15.8555 19.8002Z" fill="#34495E" stroke="#2F91A3" stroke-width="0.8" stroke-miterlimit="10"/>
<path d="M8.4907 4.19987C7.89516 4.19983 7.30846 4.34393 6.7807 4.61987C6.40883 4.83314 6.10269 5.14447 5.8957 5.51987C5.70701 5.88327 5.59471 6.28144 5.5657 6.68987C5.5657 7.10987 5.5657 7.51487 5.5657 7.90487V7.60487C5.5657 8.17487 5.5657 8.65487 5.5657 9.10487C5.55764 9.44148 5.52757 9.77719 5.4757 10.1099C5.44251 10.3495 5.37163 10.5824 5.2657 10.7999C5.17209 10.9825 5.05063 11.1495 4.9057 11.2949C4.7567 11.4502 4.58469 11.5818 4.3957 11.6849C4.22269 11.7756 4.04198 11.8509 3.8557 11.9099C3.66415 11.9591 3.46819 11.9892 3.2707 11.9999C3.1207 11.9999 3.1207 12.0749 3.2707 12.1049C3.43837 12.1259 3.60395 12.161 3.7657 12.2099C3.9526 12.2671 4.13346 12.3425 4.3057 12.4349C4.49469 12.538 4.6667 12.6695 4.8157 12.8249C4.96027 12.9705 5.08168 13.1375 5.1757 13.3199C5.2814 13.5375 5.35226 13.7703 5.3857 14.0099C5.43749 14.3426 5.46755 14.6783 5.4757 15.0149C5.4757 15.4049 5.4757 15.9049 5.4757 16.5149V16.2149C5.4757 16.6049 5.4757 17.0099 5.4757 17.4299C5.50471 17.8383 5.61701 18.2365 5.8057 18.5999C6.01331 18.9748 6.3193 19.286 6.6907 19.4999C7.21888 19.7747 7.80531 19.9187 8.4007 19.9199V20.2799H7.9507C7.79496 20.2111 7.64455 20.1309 7.5007 20.0399C7.29616 19.9898 7.09561 19.9246 6.9007 19.8449C6.68518 19.7593 6.4831 19.6431 6.3007 19.4999C6.02638 19.2946 5.79243 19.0403 5.6107 18.7499C5.4442 18.476 5.32266 18.1772 5.2507 17.8649C5.17198 17.5099 5.12678 17.1483 5.1157 16.7849C5.1157 16.3949 5.1157 15.2849 5.1157 15.2849C5.12024 14.8675 5.08508 14.4506 5.0107 14.0399C4.95585 13.7172 4.82186 13.4131 4.6207 13.1549C4.39805 12.8877 4.11536 12.6769 3.7957 12.5399C3.71188 12.4891 3.64256 12.4175 3.59445 12.3321C3.54635 12.2467 3.52107 12.1504 3.52107 12.0524C3.52107 11.9544 3.54635 11.858 3.59445 11.7726C3.64256 11.6872 3.71188 11.6157 3.7957 11.5649C4.11355 11.4316 4.396 11.2262 4.6207 10.9649C4.82132 10.7063 4.95526 10.4024 5.0107 10.0799C5.08508 9.66914 5.12024 9.25226 5.1157 8.83487C5.1157 8.83487 5.1907 6.52487 5.2657 6.19487C5.33766 5.88254 5.4592 5.58375 5.6257 5.30987C5.79656 4.999 6.02574 4.72399 6.3007 4.49987C6.47848 4.35789 6.67543 4.24174 6.8857 4.15487C7.08577 4.07524 7.2913 4.01008 7.5007 3.95987C7.68309 3.91551 7.86865 3.88542 8.0557 3.86987H8.5057L8.4907 4.19987Z" fill="#34495E" stroke="#2F91A3" stroke-width="0.8" stroke-miterlimit="10"/>
<path fill-rule="evenodd" clip-rule="evenodd" d="M8.91797 8.11548C8.91797 7.80482 9.16981 7.55298 9.48047 7.55298H15.1055C15.4161 7.55298 15.668 7.80482 15.668 8.11548C15.668 8.42614 15.4161 8.67798 15.1055 8.67798H9.48047C9.16981 8.67798 8.91797 8.42614 8.91797 8.11548Z" fill="#2F91A3"/>
<path fill-rule="evenodd" clip-rule="evenodd" d="M8.91797 11.8655C8.91797 11.5548 9.16981 11.303 9.48047 11.303H15.1055C15.4161 11.303 15.668 11.5548 15.668 11.8655C15.668 12.1761 15.4161 12.428 15.1055 12.428H9.48047C9.16981 12.428 8.91797 12.1761 8.91797 11.8655Z" fill="#2F91A3"/>
<path fill-rule="evenodd" clip-rule="evenodd" d="M8.91797 15.6155C8.91797 15.3048 9.16981 15.053 9.48047 15.053H13.2305C13.5411 15.053 13.793 15.3048 13.793 15.6155C13.793 15.9261 13.5411 16.178 13.2305 16.178H9.48047C9.16981 16.178 8.91797 15.9261 8.91797 15.6155Z" fill="#2F91A3"/>
</svg>
