<svg width="24" height="24" viewBox="0 0 24 24" fill="none" xmlns="http://www.w3.org/2000/svg">
<path d="M7.2168 12.6901C7.25988 11.4606 7.78687 10.298 8.68304 9.45517C9.57921 8.61238 10.772 8.1577 12.0018 8.1901C13.2316 8.1577 14.4244 8.61238 15.3206 9.45517C16.2167 10.298 16.7437 11.4606 16.7868 12.6901H7.2168Z" fill="#FFEEEE"/>
<path d="M12.0003 8.74497C12.9868 8.72103 13.9496 9.04897 14.7164 9.6701C15.4832 10.2912 16.0039 11.165 16.1853 12.135H7.81532C7.99672 11.165 8.51741 10.2912 9.2842 9.6701C10.051 9.04897 11.0138 8.72103 12.0003 8.74497ZM12.0003 7.61997C10.6183 7.58366 9.2783 8.09708 8.27437 9.04758C7.27044 9.99808 6.68457 11.308 6.64532 12.69C6.63385 12.8798 6.63385 13.0701 6.64532 13.26H17.2353C17.2468 13.0701 17.2468 12.8798 17.2353 12.69C17.1962 11.3291 16.627 10.0374 15.649 9.09022C14.671 8.14308 13.3617 7.61549 12.0003 7.61997Z" fill="#BD4949"/>
<path d="M12 9.31494C13.2426 9.31494 14.25 8.30758 14.25 7.06494C14.25 5.8223 13.2426 4.81494 12 4.81494C10.7574 4.81494 9.75 5.8223 9.75 7.06494C9.75 8.30758 10.7574 9.31494 12 9.31494Z" fill="#FFEEEE"/>
<path d="M11.9997 5.37012C12.3349 5.37012 12.6626 5.46953 12.9414 5.65578C13.2201 5.84203 13.4374 6.10675 13.5657 6.41647C13.694 6.72619 13.7275 7.067 13.6621 7.3958C13.5967 7.72459 13.4353 8.02661 13.1982 8.26366C12.9612 8.50071 12.6592 8.66215 12.3304 8.72755C12.0016 8.79295 11.6608 8.75938 11.351 8.63109C11.0413 8.5028 10.7766 8.28555 10.5903 8.00681C10.4041 7.72807 10.3047 7.40036 10.3047 7.06512C10.3047 6.61558 10.4833 6.18445 10.8011 5.86657C11.119 5.5487 11.5501 5.37012 11.9997 5.37012ZM11.9997 4.24512C11.4419 4.24512 10.8967 4.41051 10.433 4.72037C9.96923 5.03024 9.60779 5.47066 9.39435 5.98595C9.18091 6.50124 9.12506 7.06825 9.23387 7.61527C9.34268 8.1623 9.61126 8.66477 10.0056 9.05916C10.4 9.45354 10.9025 9.72212 11.4495 9.83093C11.9966 9.93974 12.5636 9.8839 13.0789 9.67046C13.5941 9.45702 14.0346 9.09557 14.3444 8.63183C14.6543 8.16808 14.8197 7.62286 14.8197 7.06512C14.8197 6.31721 14.5226 5.59993 13.9937 5.07108C13.4649 4.54222 12.7476 4.24512 11.9997 4.24512Z" fill="#BD4949"/>
<path d="M12.4512 19.1852C12.4943 17.9558 13.0212 16.7931 13.9174 15.9503C14.8136 15.1075 16.0064 14.6528 17.2362 14.6852C18.466 14.6528 19.6588 15.1075 20.5549 15.9503C21.4511 16.7931 21.9781 17.9558 22.0212 19.1852H12.4512Z" fill="#C7FA65"/>
<path d="M17.2353 15.2398C18.2218 15.2159 19.1846 15.5438 19.9514 16.165C20.7182 16.7861 21.2389 17.6599 21.4203 18.6298H13.0653C13.2467 17.6599 13.7674 16.7861 14.5342 16.165C15.301 15.5438 16.2638 15.2159 17.2503 15.2398H17.2353ZM17.2503 14.1148C15.8683 14.0785 14.5283 14.592 13.5244 15.5425C12.5204 16.493 11.9346 17.8029 11.8953 19.1848C11.8839 19.3747 11.8839 19.565 11.8953 19.7548H22.5003C22.5117 19.565 22.5117 19.3747 22.5003 19.1848C22.4611 17.8029 21.8752 16.493 20.8713 15.5425C19.8673 14.592 18.5274 14.0785 17.1453 14.1148H17.2503Z" fill="#1A6016"/>
<path d="M17.2363 15.8098C18.479 15.8098 19.4863 14.8025 19.4863 13.5598C19.4863 12.3172 18.479 11.3098 17.2363 11.3098C15.9937 11.3098 14.9863 12.3172 14.9863 13.5598C14.9863 14.8025 15.9937 15.8098 17.2363 15.8098Z" fill="#C7FA65"/>
<path d="M17.236 11.8652C17.5744 11.8624 17.9059 11.961 18.1877 12.1482C18.4696 12.3354 18.689 12.6027 18.8177 12.9157C18.9463 13.2287 18.9784 13.573 18.9096 13.9043C18.8409 14.2357 18.6746 14.5389 18.4321 14.7749C18.1896 15.0109 17.882 15.1689 17.549 15.2286C17.2159 15.2883 16.8725 15.2469 16.5632 15.1098C16.2538 14.9727 15.9926 14.7461 15.8131 14.4593C15.6336 14.1724 15.544 13.8384 15.556 13.5002C15.556 13.0507 15.7346 12.6195 16.0525 12.3017C16.3703 11.9838 16.8015 11.8052 17.251 11.8052L17.236 11.8652ZM17.251 10.6802C16.6926 10.6772 16.146 10.8401 15.6802 11.1482C15.2145 11.4562 14.8507 11.8956 14.635 12.4106C14.4193 12.9256 14.3613 13.4931 14.4684 14.0411C14.5755 14.5891 14.8429 15.093 15.2367 15.4889C15.6304 15.8848 16.1329 16.1549 16.6803 16.2649C17.2278 16.3749 17.7955 16.32 18.3117 16.107C18.8279 15.894 19.2692 15.5325 19.5797 15.0685C19.8902 14.6044 20.056 14.0586 20.056 13.5002C20.056 12.7523 19.7589 12.035 19.2301 11.5062C18.7012 10.9773 17.9839 10.6802 17.236 10.6802H17.251Z" fill="#1A6016"/>
<path d="M1.9668 19.1852C2.00988 17.9558 2.53687 16.7931 3.43304 15.9503C4.32921 15.1075 5.52201 14.6528 6.7518 14.6852C7.98158 14.6528 9.17438 15.1075 10.0706 15.9503C10.9667 16.7931 11.4937 17.9558 11.5368 19.1852H1.9668Z" fill="#BFE1F1"/>
<path d="M6.76586 15.2398C7.75237 15.2159 8.71519 15.5438 9.48198 16.165C10.2488 16.7861 10.7695 17.6599 10.9509 18.6298H2.58087C2.76226 17.6599 3.28296 16.7861 4.04975 16.165C4.81654 15.5438 5.77936 15.2159 6.76586 15.2398ZM6.76586 14.1148C5.38383 14.0785 4.04384 14.592 3.03991 15.5425C2.03598 16.493 1.45012 17.8029 1.41087 19.1848C1.3995 19.3747 1.3995 19.565 1.41087 19.7548H12.0009C12.0123 19.565 12.0123 19.3747 12.0009 19.1848C11.9617 17.824 11.3925 16.5322 10.4145 15.5851C9.43659 14.638 8.12729 14.1104 6.76586 14.1148Z" fill="#2C66BD"/>
<path d="M6.76563 15.8098C8.00827 15.8098 9.01562 14.8025 9.01562 13.5598C9.01562 12.3172 8.00827 11.3098 6.76563 11.3098C5.52298 11.3098 4.51562 12.3172 4.51562 13.5598C4.51562 14.8025 5.52298 15.8098 6.76563 15.8098Z" fill="#BFE1F1"/>
<path d="M6.766 11.8653C7.10375 11.8655 7.43374 11.9666 7.71363 12.1556C7.99352 12.3447 8.21056 12.613 8.3369 12.9262C8.46323 13.2395 8.49311 13.5833 8.4227 13.9136C8.35228 14.244 8.18479 14.5457 7.9417 14.7802C7.69861 15.0147 7.39101 15.1712 7.05836 15.2297C6.72571 15.2882 6.38318 15.2459 6.0747 15.1084C5.76622 14.9708 5.50587 14.7443 5.32704 14.4577C5.14821 14.1712 5.05905 13.8378 5.071 13.5003C5.08656 13.0612 5.27198 12.6453 5.58818 12.3403C5.90439 12.0353 6.32667 11.865 6.766 11.8653ZM6.766 10.7403C6.2051 10.7374 5.65609 10.9019 5.18915 11.2127C4.72221 11.5235 4.35856 11.9664 4.14469 12.485C3.93081 13.0035 3.87643 13.574 3.98849 14.1236C4.10056 14.6732 4.37397 15.1769 4.77379 15.5703C5.17361 15.9637 5.68166 16.229 6.233 16.3321C6.78434 16.4353 7.35392 16.3717 7.86893 16.1495C8.38393 15.9272 8.82097 15.5565 9.12416 15.0846C9.42735 14.6127 9.58293 14.0611 9.571 13.5003C9.55537 12.7654 9.25343 12.0657 8.72949 11.5501C8.20556 11.0346 7.50104 10.744 6.766 10.7403Z" fill="#2C66BD"/>
</svg>
