<svg width="24" height="24" viewBox="0 0 24 24" fill="none" xmlns="http://www.w3.org/2000/svg">
<path d="M8.71469 5.05518H15.2997C15.4747 5.05518 15.6426 5.12471 15.7664 5.24849C15.8902 5.37226 15.9597 5.54013 15.9597 5.71518V8.23518C15.9597 8.41022 15.8902 8.57809 15.7664 8.70187C15.6426 8.82564 15.4747 8.89518 15.2997 8.89518H8.69969C8.52862 8.89518 8.36456 8.82722 8.2436 8.70626C8.12264 8.5853 8.05469 8.42124 8.05469 8.25018V5.71518C8.05469 5.54013 8.12422 5.37226 8.248 5.24849C8.37177 5.12471 8.53964 5.05518 8.71469 5.05518Z" fill="#DEF4FD"/>
<path d="M15.3 5.625C15.3239 5.625 15.3468 5.63448 15.3636 5.65136C15.3805 5.66824 15.39 5.69113 15.39 5.715V8.235C15.39 8.25887 15.3805 8.28176 15.3636 8.29864C15.3468 8.31552 15.3239 8.325 15.3 8.325H8.7C8.67613 8.325 8.65324 8.31552 8.63636 8.29864C8.61948 8.28176 8.61 8.25887 8.61 8.235V5.715C8.61 5.69113 8.61948 5.66824 8.63636 5.65136C8.65324 5.63448 8.67613 5.625 8.7 5.625H15.3ZM15.3 4.5H8.7C8.38037 4.50395 8.07517 4.6337 7.85055 4.86113C7.62592 5.08856 7.49998 5.39534 7.5 5.715V8.235C7.5 8.39456 7.53143 8.55255 7.59249 8.69996C7.65355 8.84737 7.74304 8.98131 7.85587 9.09414C7.96869 9.20696 8.10263 9.29645 8.25004 9.35751C8.39745 9.41857 8.55544 9.45 8.715 9.45H15.3C15.6196 9.44605 15.9248 9.31631 16.1495 9.08888C16.3741 8.86144 16.5 8.55466 16.5 8.235V5.715C16.5 5.39534 16.3741 5.08856 16.1495 4.86113C15.9248 4.6337 15.6196 4.50395 15.3 4.5Z" fill="#357FD3"/>
<path d="M19.7703 15.855H17.7303C17.3658 15.855 17.0703 16.1505 17.0703 16.515V18.285C17.0703 18.6495 17.3658 18.945 17.7303 18.945H19.7703C20.1348 18.945 20.4303 18.6495 20.4303 18.285V16.515C20.4303 16.1505 20.1348 15.855 19.7703 15.855Z" fill="#DEF4FD"/>
<path d="M19.785 16.4099C19.8089 16.4099 19.8318 16.4194 19.8486 16.4363C19.8655 16.4532 19.875 16.476 19.875 16.4999V18.2849C19.875 18.3088 19.8655 18.3317 19.8486 18.3486C19.8318 18.3654 19.8089 18.3749 19.785 18.3749H17.715C17.6911 18.3749 17.6682 18.3654 17.6514 18.3486C17.6345 18.3317 17.625 18.3088 17.625 18.2849V16.4999C17.625 16.476 17.6345 16.4532 17.6514 16.4363C17.6682 16.4194 17.6911 16.4099 17.715 16.4099H19.77H19.785ZM19.77 15.2849H17.715C17.3928 15.2849 17.0837 15.4129 16.8559 15.6408C16.628 15.8686 16.5 16.1777 16.5 16.4999V18.2849C16.5 18.4445 16.5314 18.6025 16.5925 18.7499C16.6535 18.8973 16.743 19.0312 16.8559 19.144C16.9687 19.2569 17.1026 19.3464 17.25 19.4074C17.3975 19.4685 17.5554 19.4999 17.715 19.4999H19.77C19.9296 19.4999 20.0876 19.4685 20.235 19.4074C20.3824 19.3464 20.5163 19.2569 20.6291 19.144C20.742 19.0312 20.8315 18.8973 20.8925 18.7499C20.9536 18.6025 20.985 18.4445 20.985 18.2849V16.4999C20.985 16.1777 20.857 15.8686 20.6291 15.6408C20.4013 15.4129 20.0922 15.2849 19.77 15.2849Z" fill="#357FD3"/>
<path d="M6.27031 15.855H4.23031C3.8658 15.855 3.57031 16.1505 3.57031 16.515V18.285C3.57031 18.6495 3.8658 18.945 4.23031 18.945H6.27031C6.63482 18.945 6.93031 18.6495 6.93031 18.285V16.515C6.93031 16.1505 6.63482 15.855 6.27031 15.855Z" fill="#DEF4FD"/>
<path d="M6.285 16.4099C6.30887 16.4099 6.33176 16.4194 6.34864 16.4363C6.36552 16.4532 6.375 16.476 6.375 16.4999V18.2849C6.375 18.3088 6.36552 18.3317 6.34864 18.3486C6.33176 18.3654 6.30887 18.3749 6.285 18.3749H4.215C4.19113 18.3749 4.16824 18.3654 4.15136 18.3486C4.13448 18.3317 4.125 18.3088 4.125 18.2849V16.4999C4.125 16.476 4.13448 16.4532 4.15136 16.4363C4.16824 16.4194 4.19113 16.4099 4.215 16.4099H6.285ZM6.285 15.2849H4.215C3.89276 15.2849 3.58372 15.4129 3.35587 15.6408C3.12801 15.8686 3 16.1777 3 16.4999V18.2849C3 18.4445 3.03143 18.6025 3.09249 18.7499C3.15355 18.8973 3.24304 19.0312 3.35587 19.144C3.46869 19.2569 3.60263 19.3464 3.75004 19.4074C3.89745 19.4685 4.05544 19.4999 4.215 19.4999H6.285C6.44456 19.4999 6.60255 19.4685 6.74996 19.4074C6.89737 19.3464 7.03131 19.2569 7.14413 19.144C7.25696 19.0312 7.34645 18.8973 7.40751 18.7499C7.46857 18.6025 7.5 18.4445 7.5 18.2849V16.4999C7.5 16.1777 7.37199 15.8686 7.14413 15.6408C6.91628 15.4129 6.60724 15.2849 6.285 15.2849Z" fill="#357FD3"/>
<path d="M13.0203 15.855H10.9803C10.6158 15.855 10.3203 16.1505 10.3203 16.515V18.285C10.3203 18.6495 10.6158 18.945 10.9803 18.945H13.0203C13.3848 18.945 13.6803 18.6495 13.6803 18.285V16.515C13.6803 16.1505 13.3848 15.855 13.0203 15.855Z" fill="#DEF4FD"/>
<path d="M13.0356 16.4099C13.0595 16.4099 13.0824 16.4194 13.0993 16.4363C13.1161 16.4532 13.1256 16.476 13.1256 16.4999V18.2849C13.1256 18.3088 13.1161 18.3317 13.0993 18.3486C13.0824 18.3654 13.0595 18.3749 13.0356 18.3749H10.9806C10.9568 18.3749 10.9339 18.3654 10.917 18.3486C10.9001 18.3317 10.8906 18.3088 10.8906 18.2849V16.4999C10.8906 16.476 10.9001 16.4532 10.917 16.4363C10.9339 16.4194 10.9568 16.4099 10.9806 16.4099H13.0356ZM13.0356 15.2849H10.9806C10.6584 15.2849 10.3493 15.4129 10.1215 15.6408C9.89363 15.8686 9.76563 16.1777 9.76562 16.4999V18.2849C9.76563 18.4445 9.79705 18.6025 9.85811 18.7499C9.91917 18.8973 10.0087 19.0312 10.1215 19.144C10.2343 19.2569 10.3683 19.3464 10.5157 19.4074C10.6631 19.4685 10.8211 19.4999 10.9806 19.4999H13.0356C13.1952 19.4999 13.3532 19.4685 13.5006 19.4074C13.648 19.3464 13.7819 19.2569 13.8948 19.144C14.0076 19.0312 14.0971 18.8973 14.1581 18.7499C14.2192 18.6025 14.2506 18.4445 14.2506 18.2849V16.4999C14.2506 16.1777 14.1226 15.8686 13.8948 15.6408C13.6669 15.4129 13.3579 15.2849 13.0356 15.2849Z" fill="#357FD3"/>
<path fill-rule="evenodd" clip-rule="evenodd" d="M11.9707 8.8877C12.2814 8.8877 12.5332 9.13954 12.5332 9.4502V12.8102C12.5332 13.1209 12.2814 13.3727 11.9707 13.3727C11.66 13.3727 11.4082 13.1209 11.4082 12.8102V9.4502C11.4082 9.13954 11.66 8.8877 11.9707 8.8877Z" fill="#357FD3"/>
<path fill-rule="evenodd" clip-rule="evenodd" d="M11.9707 12.2478C12.2814 12.2478 12.5332 12.4996 12.5332 12.8103V15.2853C12.5332 15.596 12.2814 15.8478 11.9707 15.8478C11.66 15.8478 11.4082 15.596 11.4082 15.2853V12.8103C11.4082 12.4996 11.66 12.2478 11.9707 12.2478Z" fill="#357FD3"/>
<path fill-rule="evenodd" clip-rule="evenodd" d="M4.6875 12.2549C4.6875 11.9442 4.93934 11.6924 5.25 11.6924H18.75C19.0607 11.6924 19.3125 11.9442 19.3125 12.2549V15.2849C19.3125 15.5955 19.0607 15.8474 18.75 15.8474C18.4393 15.8474 18.1875 15.5955 18.1875 15.2849V12.8174H5.8125V15.2849C5.8125 15.5955 5.56066 15.8474 5.25 15.8474C4.93934 15.8474 4.6875 15.5955 4.6875 15.2849V12.2549Z" fill="#357FD3"/>
</svg>
