<svg width="24" height="24" viewBox="0 0 24 24" fill="none" xmlns="http://www.w3.org/2000/svg">
<path d="M20.6707 10.4998C20.6707 11.4298 19.8157 12.2848 18.4357 12.9148C17.8507 13.1848 18.5407 16.7998 17.7907 16.9948C17.0407 17.1898 14.7907 13.9948 13.9957 13.9948C13.3657 13.9948 12.7057 14.0848 12.0157 14.0848C7.2157 14.1598 3.3457 12.5398 3.3457 10.4998C3.3457 8.45982 7.2157 6.94482 12.0007 6.94482C16.7857 6.94482 20.6707 8.56482 20.6707 10.4998Z" fill="#FBFB6E"/>
<path fill-rule="evenodd" clip-rule="evenodd" d="M4.4189 9.48544C4.05511 9.84203 3.9082 10.1829 3.9082 10.4998C3.9082 10.8184 4.05667 11.1671 4.42303 11.5333C4.79212 11.9022 5.35494 12.2582 6.09634 12.5659C7.57705 13.1805 9.66483 13.559 12.0069 13.5224L12.0157 13.5223V13.5223C12.3388 13.5223 12.658 13.5013 12.9899 13.4786L13.0201 13.4766C13.3365 13.455 13.6683 13.4323 13.9957 13.4323C14.2596 13.4323 14.4947 13.5549 14.6545 13.6548C14.8319 13.7658 15.0147 13.9131 15.1917 14.0701C15.5145 14.3562 15.8732 14.7242 16.2153 15.0752C16.2479 15.1087 16.2804 15.142 16.3127 15.1751C16.6949 15.5668 17.0501 15.9254 17.3517 16.175C17.4282 16.2382 17.4955 16.2897 17.5539 16.3304C17.5588 16.3024 17.5636 16.2717 17.5682 16.2379C17.6119 15.9131 17.6154 15.4743 17.6126 14.9862C17.6122 14.9283 17.6118 14.8696 17.6114 14.8104C17.6083 14.3937 17.6051 13.9543 17.6328 13.5956C17.6485 13.3916 17.6763 13.1786 17.7333 12.9938C17.7811 12.8388 17.8962 12.5443 18.2 12.4041L18.2021 12.4031C18.8501 12.1073 19.3407 11.7733 19.6619 11.4335C19.9809 11.0959 20.1082 10.7811 20.1082 10.4998C20.1082 10.2176 19.9685 9.89031 19.5981 9.53263C19.2269 9.17413 18.6606 8.82378 17.9157 8.51675C16.4288 7.90387 14.3371 7.50732 12.0007 7.50732C9.65939 7.50732 7.5713 7.87906 6.08989 8.47873C5.34804 8.77902 4.78648 9.12515 4.4189 9.48544ZM17.7573 16.4448C17.7574 16.4449 17.7558 16.4446 17.7524 16.4435C17.7556 16.4442 17.7573 16.4447 17.7573 16.4448ZM5.66777 7.43592C7.31761 6.76808 9.55701 6.38232 12.0007 6.38232C14.4493 6.38232 16.6926 6.79578 18.3444 7.47665C19.1689 7.81649 19.8729 8.23396 20.3797 8.72343C20.8873 9.21372 21.2332 9.81452 21.2332 10.4998C21.2332 11.1485 20.933 11.7263 20.4795 12.2062C20.0547 12.6558 19.4744 13.0441 18.7972 13.3669C18.7809 13.4355 18.7655 13.5386 18.7544 13.6821C18.7307 13.9896 18.7334 14.3753 18.7364 14.8005C18.7368 14.8595 18.7372 14.9193 18.7376 14.9797C18.7403 15.4535 18.7392 15.9719 18.6831 16.3881C18.6553 16.5942 18.6093 16.8164 18.5212 17.0088C18.4352 17.1967 18.2619 17.4535 17.9322 17.5392C17.6339 17.6168 17.3595 17.5097 17.1896 17.4231C17.0011 17.3271 16.8118 17.1885 16.6345 17.0417C16.2784 16.7471 15.8809 16.3435 15.5075 15.9608C15.4768 15.9293 15.4462 15.898 15.4158 15.8668C15.0652 15.5072 14.7356 15.1692 14.4455 14.9119C14.2881 14.7724 14.1587 14.6716 14.058 14.6086C14.0074 14.577 13.9768 14.563 13.9634 14.5574C13.685 14.5588 13.3966 14.5785 13.0794 14.6001L13.0665 14.601C12.7398 14.6233 12.3855 14.6471 12.0201 14.6473C9.56393 14.6852 7.31838 14.2912 5.66506 13.605C4.83897 13.2621 4.13429 12.8353 3.62775 12.329C3.11848 11.82 2.7832 11.2012 2.7832 10.4998C2.7832 9.79676 3.12005 9.18325 3.63141 8.68202C4.13899 8.1845 4.84399 7.76938 5.66777 7.43592ZM18.8215 13.2908C18.8217 13.2912 18.8201 13.2954 18.8162 13.3023C18.8194 13.2939 18.8214 13.2904 18.8215 13.2908Z" fill="#D4AA16"/>
</svg>
