<svg width="24" height="24" viewBox="0 0 24 24" fill="none" xmlns="http://www.w3.org/2000/svg">
<path d="M4.06461 3.61548H19.6496C19.8485 3.61548 20.0393 3.6945 20.1799 3.83515C20.3206 3.97581 20.3996 4.16657 20.3996 4.36548V19.6505C20.3996 19.8494 20.3206 20.0402 20.1799 20.1808C20.0393 20.3215 19.8485 20.4005 19.6496 20.4005H4.34961C4.1507 20.4005 3.95993 20.3215 3.81928 20.1808C3.67863 20.0402 3.59961 19.8494 3.59961 19.6505V4.06548C3.59958 4.00511 3.61169 3.94534 3.63524 3.88974C3.65879 3.83414 3.69328 3.78385 3.73667 3.74186C3.78006 3.69987 3.83145 3.66705 3.88779 3.64534C3.94413 3.62362 4.00426 3.61347 4.06461 3.61548Z" fill="#E3FF8D"/>
<path d="M3.61523 19.6502V4.06523C3.61523 3.94589 3.66264 3.83143 3.74704 3.74704C3.83143 3.66264 3.94589 3.61523 4.06523 3.61523H19.6502C19.8491 3.61523 20.0399 3.69425 20.1806 3.8349C20.3212 3.97556 20.4002 4.16632 20.4002 4.36523V13.8752" fill="#E3FF8D"/>
<path fill-rule="evenodd" clip-rule="evenodd" d="M4.17773 4.17773H19.6502C19.7 4.17773 19.7477 4.19749 19.7828 4.23265C19.818 4.26782 19.8377 4.31551 19.8377 4.36523V13.8752C19.8377 14.1859 20.0896 14.4377 20.4002 14.4377C20.7109 14.4377 20.9627 14.1859 20.9627 13.8752V4.36523C20.9627 4.01714 20.8245 3.6833 20.5783 3.43716C20.3322 3.19102 19.9983 3.05273 19.6502 3.05273H4.06523C3.7967 3.05273 3.53917 3.15941 3.34929 3.34929C3.15941 3.53917 3.05273 3.7967 3.05273 4.06523V19.6502C3.05273 19.9609 3.30457 20.2127 3.61523 20.2127C3.92589 20.2127 4.17773 19.9609 4.17773 19.6502V4.17773Z" fill="#9CC71C"/>
<path d="M11.6848 17.3399H6.95977C6.84161 17.3362 6.72932 17.2875 6.64573 17.2039C6.56213 17.1204 6.51352 17.0081 6.50977 16.8899V7.10991C6.51352 6.99176 6.56213 6.87946 6.64573 6.79587C6.72932 6.71228 6.84161 6.66367 6.95977 6.65991H17.0398C17.1579 6.66367 17.2702 6.71228 17.3538 6.79587C17.4374 6.87946 17.486 6.99176 17.4898 7.10991V13.7399" fill="#E3FF8D"/>
<path fill-rule="evenodd" clip-rule="evenodd" d="M6.96005 6.09741H17.0579C17.319 6.10571 17.5671 6.21341 17.7518 6.39813C17.9365 6.58284 18.044 6.83096 18.0523 7.09205L18.0528 7.10991L18.0525 13.7399C18.0525 14.0506 17.8007 14.3024 17.49 14.3024C17.1794 14.3024 16.9275 14.0506 16.9275 13.7399V7.22241H7.07255V16.7774H11.685C11.9957 16.7774 12.2475 17.0293 12.2475 17.3399C12.2475 17.6506 11.9957 17.9024 11.685 17.9024H6.94218C6.68109 17.8941 6.43297 17.7864 6.24826 17.6017C6.06355 17.417 5.95613 17.1689 5.94783 16.9078L5.94727 16.8899L5.94755 7.09204C5.95584 6.83095 6.06355 6.58284 6.24826 6.39813C6.43297 6.21342 6.6811 6.10599 6.94219 6.0977L6.96005 6.09741Z" fill="#9CC71C"/>
<path d="M14.1462 9.39014H9.85625C9.60772 9.39014 9.40625 9.59161 9.40625 9.84014V14.1601C9.40625 14.4087 9.60772 14.6101 9.85625 14.6101H14.1462C14.3948 14.6101 14.5962 14.4087 14.5962 14.1601V9.84014C14.5962 9.59161 14.3948 9.39014 14.1462 9.39014Z" fill="#E3FF8D"/>
<path fill-rule="evenodd" clip-rule="evenodd" d="M9.96875 9.95264V14.0476H14.0337V9.95264H9.96875ZM8.84375 9.84014C8.84375 9.28095 9.29706 8.82764 9.85625 8.82764H14.1463C14.7054 8.82764 15.1587 9.28095 15.1587 9.84014V14.1601C15.1587 14.7193 14.7054 15.1726 14.1463 15.1726H9.85625C9.29706 15.1726 8.84375 14.7193 8.84375 14.1601V9.84014Z" fill="#9CC71C"/>
<path d="M3.61523 19.8001H14.5952V16.0051L17.4902 18.2251L20.3852 16.0051V19.8001" fill="#E3FF8D"/>
<path fill-rule="evenodd" clip-rule="evenodd" d="M14.3464 15.5007C14.5384 15.4059 14.7676 15.4285 14.9375 15.5588L17.4902 17.5163L20.0429 15.5588C20.2129 15.4285 20.4421 15.4059 20.6341 15.5007C20.8261 15.5954 20.9477 15.791 20.9477 16.0051V19.8001C20.9477 20.1108 20.6959 20.3626 20.3852 20.3626C20.0746 20.3626 19.8227 20.1108 19.8227 19.8001V17.1453L17.8325 18.6715C17.6306 18.8263 17.3499 18.8263 17.1479 18.6715L15.1577 17.1453V19.8001C15.1577 20.1108 14.9059 20.3626 14.5952 20.3626H3.61523C3.30457 20.3626 3.05273 20.1108 3.05273 19.8001C3.05273 19.4895 3.30457 19.2376 3.61523 19.2376H14.0327V16.0051C14.0327 15.791 14.1543 15.5954 14.3464 15.5007Z" fill="#9CC71C"/>
</svg>
