<svg width="24" height="24" viewBox="0 0 24 24" fill="none" xmlns="http://www.w3.org/2000/svg">
<path d="M4.93555 7.91984V16.0798L12.0005 20.1598L19.0655 16.0798V7.91984L12.0005 3.83984L4.93555 7.91984Z" fill="#FEFABF"/>
<path fill-rule="evenodd" clip-rule="evenodd" d="M12 11.4526C12.3107 11.4526 12.5625 11.7045 12.5625 12.0151V20.4751C12.5625 20.7858 12.3107 21.0376 12 21.0376C11.6893 21.0376 11.4375 20.7858 11.4375 20.4751V12.0151C11.4375 11.7045 11.6893 11.4526 12 11.4526Z" fill="#B9871B"/>
<path fill-rule="evenodd" clip-rule="evenodd" d="M19.3652 7.22241C19.6759 7.22241 19.9277 7.47425 19.9277 7.78491V16.2449C19.9277 16.5556 19.6759 16.8074 19.3652 16.8074C19.0546 16.8074 18.8027 16.5556 18.8027 16.2449V7.78491C18.8027 7.47425 19.0546 7.22241 19.3652 7.22241Z" fill="#B9871B"/>
<path fill-rule="evenodd" clip-rule="evenodd" d="M4.63477 7.22241C4.94543 7.22241 5.19727 7.47425 5.19727 7.78491V16.2449C5.19727 16.5556 4.94543 16.8074 4.63477 16.8074C4.32411 16.8074 4.07227 16.5556 4.07227 16.2449V7.78491C4.07227 7.47425 4.32411 7.22241 4.63477 7.22241Z" fill="#B9871B"/>
<path fill-rule="evenodd" clip-rule="evenodd" d="M19.8227 7.50332C19.9782 7.7723 19.8861 8.11636 19.6172 8.27179L12.2972 12.5018C12.0282 12.6572 11.6841 12.5652 11.5287 12.2962C11.3733 12.0272 11.4653 11.6832 11.7343 11.5277L19.0543 7.29773C19.3233 7.1423 19.6673 7.23434 19.8227 7.50332Z" fill="#B9871B"/>
<path fill-rule="evenodd" clip-rule="evenodd" d="M12.4712 3.24356C12.6266 3.51254 12.5346 3.85659 12.2656 4.01203L4.9456 8.24203C4.67662 8.39746 4.33256 8.30542 4.17713 8.03644C4.02169 7.76746 4.11374 7.4234 4.38272 7.26797L11.7027 3.03797C11.9717 2.88253 12.3157 2.97458 12.4712 3.24356Z" fill="#B9871B"/>
<path fill-rule="evenodd" clip-rule="evenodd" d="M19.8227 15.9635C19.9782 16.2325 19.8861 16.5766 19.6172 16.732L12.2972 20.962C12.0282 21.1174 11.6841 21.0254 11.5287 20.7564C11.3733 20.4874 11.4653 20.1434 11.7343 19.9879L19.0543 15.7579C19.3233 15.6025 19.6673 15.6945 19.8227 15.9635Z" fill="#B9871B"/>
<path fill-rule="evenodd" clip-rule="evenodd" d="M4.17713 7.50332C4.33256 7.23434 4.67662 7.1423 4.9456 7.29773L12.2656 11.5277C12.5346 11.6832 12.6266 12.0272 12.4712 12.2962C12.3157 12.5652 11.9717 12.6572 11.7027 12.5018L4.38272 8.27179C4.11374 8.11636 4.02169 7.7723 4.17713 7.50332Z" fill="#B9871B"/>
<path fill-rule="evenodd" clip-rule="evenodd" d="M11.5287 3.24356C11.6841 2.97458 12.0282 2.88253 12.2972 3.03797L19.6172 7.26797C19.8861 7.4234 19.9782 7.76746 19.8227 8.03644C19.6673 8.30542 19.3233 8.39746 19.0543 8.24203L11.7343 4.01203C11.4653 3.85659 11.3733 3.51254 11.5287 3.24356Z" fill="#B9871B"/>
<path fill-rule="evenodd" clip-rule="evenodd" d="M4.17713 15.9635C4.33256 15.6945 4.67662 15.6025 4.9456 15.7579L12.2656 19.9879C12.5346 20.1434 12.6266 20.4874 12.4712 20.7564C12.3157 21.0254 11.9717 21.1174 11.7027 20.962L4.38272 16.732C4.11374 16.5766 4.02169 16.2325 4.17713 15.9635Z" fill="#B9871B"/>
</svg>
