<svg width="24" height="24" viewBox="0 0 24 24" fill="none" xmlns="http://www.w3.org/2000/svg">
<path d="M3.75 13.5V4.5C3.75 4.10218 3.90804 3.72064 4.18934 3.43934C4.47064 3.15804 4.85218 3 5.25 3H18.75C19.1478 3 19.5294 3.15804 19.8107 3.43934C20.092 3.72064 20.25 4.10218 20.25 4.5V13.5H3.75Z" fill="#F2F2F2"/>
<path fill-rule="evenodd" clip-rule="evenodd" d="M11.4375 12.75V9H12.5625V12.75H11.4375Z" fill="#C1CBD5"/>
<path d="M4.875 9H19.125V12.375H4.875V9ZM3.75 7.875V13.5H20.25V7.92H3.75V7.875Z" fill="#2195E7"/>
<path fill-rule="evenodd" clip-rule="evenodd" d="M11.4375 9V3H12.5625V9H11.4375Z" fill="#2195E7"/>
<path d="M18.75 4.125C18.8495 4.125 18.9448 4.16451 19.0152 4.23484C19.0855 4.30516 19.125 4.40054 19.125 4.5V7.875H4.875V4.5C4.875 4.40054 4.91451 4.30516 4.98484 4.23484C5.05516 4.16451 5.15054 4.125 5.25 4.125H18.75ZM18.75 3H5.25C4.85218 3 4.47064 3.15804 4.18934 3.43934C3.90804 3.72064 3.75 4.10218 3.75 4.5V9H20.25V4.5C20.25 4.10218 20.092 3.72064 19.8107 3.43934C19.5294 3.15804 19.1478 3 18.75 3Z" fill="#2195E7"/>
<path d="M18.75 21H5.25C4.85218 21 4.47064 20.842 4.18934 20.5607C3.90804 20.2794 3.75 19.8978 3.75 19.5V16.5H20.25V19.5C20.25 19.8978 20.092 20.2794 19.8107 20.5607C19.5294 20.842 19.1478 21 18.75 21Z" fill="#F2F2F2"/>
<path fill-rule="evenodd" clip-rule="evenodd" d="M11.4375 20.205V15.75H12.5625V20.205H11.4375Z" fill="#C1CBD5"/>
<path d="M4.875 16.5H19.125V19.5C19.125 19.5995 19.0855 19.6948 19.0152 19.7652C18.9448 19.8355 18.8495 19.875 18.75 19.875H5.25C5.15054 19.875 5.05516 19.8355 4.98484 19.7652C4.91451 19.6948 4.875 19.5995 4.875 19.5V16.5ZM3.75 15.375V19.5C3.75 19.8978 3.90804 20.2794 4.18934 20.5607C4.47064 20.842 4.85218 21 5.25 21H18.75C19.1478 21 19.5294 20.842 19.8107 20.5607C20.092 20.2794 20.25 19.8978 20.25 19.5V15.42H3.75V15.375Z" fill="#2195E7"/>
</svg>
