<svg width="24" height="24" viewBox="0 0 24 24" fill="none" xmlns="http://www.w3.org/2000/svg">
<path d="M5.25 4.5H18.75C19.65 4.5 20.25 5.1 20.25 6V18C20.25 18.9 19.65 19.5 18.75 19.5H5.25C4.35 19.5 3.75 18.9 3.75 18V6C3.75 5.1 4.35 4.5 5.25 4.5Z" fill="#F2F2F2"/>
<path d="M19.5 13.65H12.6V9H11.4V13.65H4.5V14.85H11.4V19.5H12.6V14.85H19.5V13.65Z" fill="#C1CBD5"/>
<path d="M18.75 4.5H5.25C4.35 4.5 3.75 5.1 3.75 6V18C3.75 18.9 4.35 19.5 5.25 19.5H18.75C19.65 19.5 20.25 18.9 20.25 18V6C20.25 5.1 19.65 4.5 18.75 4.5ZM18.75 5.7C18.9 5.7 19.05 5.85 19.05 6V9.15H12.6V5.7H18.75ZM5.25 5.7H11.4V9.3H4.8V6C4.8 5.85 5.1 5.7 5.25 5.7ZM18.75 18.3H5.25C5.1 18.3 4.95 18.15 4.95 18V10.35H19.2V18C19.2 18.15 18.9 18.3 18.75 18.3Z" fill="#2195E7"/>
<path d="M6.15 11.3999C3.15 11.3999 0.75 8.9999 0.75 6.1499C0.75 3.1499 3.15 0.899902 6.15 0.899902C9 0.899902 11.4 3.1499 11.4 6.1499C11.4 8.9999 9 11.3999 6.15 11.3999Z" fill="#F2F2F2" stroke="#34495E" stroke-width="0.5" stroke-miterlimit="10" stroke-linejoin="bevel"/>
<path d="M6.74961 3.2998H5.54961H4.34961V9.29981H5.54961V7.19981H6.74961C7.79961 7.19981 8.69961 6.29981 8.69961 5.24981C8.69961 4.1998 7.79961 3.2998 6.74961 3.2998ZM6.74961 6.14981H5.54961V4.34981H6.89961C7.34961 4.34981 7.79961 4.79981 7.79961 5.24981C7.79961 5.69981 7.34961 6.14981 6.74961 6.14981Z" fill="#34495E"/>
</svg>
