<svg width="24" height="24" viewBox="0 0 24 24" fill="none" xmlns="http://www.w3.org/2000/svg">
<path d="M17.7148 12.9752C18.3311 12.3688 18.8702 11.6887 19.3197 10.9502C19.8626 10.1009 20.2629 9.16863 20.5047 8.19016C21.1648 5.35516 20.5048 3.78015 17.7148 3.04515C14.9248 2.31015 14.5947 3.57016 14.5947 3.57016C13.9023 3.29301 13.1604 3.16067 12.4148 3.18131C11.6693 3.20195 10.9358 3.37512 10.2597 3.69015C10.2597 3.69015 6.52475 2.55015 5.14475 3.48015C3.76475 4.41015 2.14475 5.58016 3.92975 11.2202C4.25794 12.5417 4.76247 13.8131 5.42975 15.0002C6.37475 16.3802 7.03475 16.0952 7.36475 15.7502C7.36475 15.7502 8.66975 14.2502 8.93975 13.9952C9.20975 13.7402 10.4397 14.2502 10.6647 14.2502C11.339 14.6714 11.8394 15.3208 12.0747 16.0802C12.1497 16.7402 11.7897 20.4302 13.0497 20.9552C13.3852 21.1082 13.7527 21.1781 14.1209 21.159C14.4892 21.1399 14.8474 21.0323 15.1653 20.8454C15.4831 20.6585 15.7513 20.3978 15.947 20.0853C16.1428 19.7728 16.2603 19.4177 16.2897 19.0502C16.56 17.8918 16.7702 16.7202 16.9197 15.5402L17.2798 13.5902L17.7148 12.9752Z" fill="#DEF4FD"/>
<path d="M9.80917 3.67485C9.80917 3.67485 6.05917 2.17485 4.01917 4.24485C1.97917 6.31485 4.37917 12.6898 4.37917 12.6898C4.76101 13.7675 5.30749 14.7795 5.99917 15.6898C5.99917 15.6898 6.55417 16.4398 7.42417 15.6898C7.42417 15.6898 8.75917 14.2648 9.16417 13.7248" stroke="#326690" stroke-width="2" stroke-miterlimit="10"/>
<path d="M14.25 3.33022C15.0067 3.03395 15.8157 2.89447 16.6279 2.92026C17.4401 2.94604 18.2386 3.13655 18.975 3.48022C21.195 4.68022 20.85 6.19522 20.79 6.64522C20.73 7.09522 20.16 11.7152 17.31 13.1402" stroke="#326690" stroke-width="2" stroke-miterlimit="10"/>
<path d="M8.50359 8.18999C8.50359 8.18999 10.2286 7.10999 11.1286 7.82999C12.0286 8.54999 11.7286 11.025 11.7136 11.115C11.5068 11.8775 11.2462 12.6244 10.9336 13.35L10.6786 13.8C10.6786 13.8 10.4836 14.145 9.97359 13.935C9.46359 13.725 8.06859 12.795 8.17359 11.445C8.28508 10.3637 8.31016 9.27526 8.24859 8.18999C8.17359 7.78499 8.50359 4.61999 10.2286 3.68999C10.8524 3.31904 11.5542 3.09877 12.2781 3.04669C13.002 2.99461 13.7281 3.11216 14.3986 3.38999C15.2191 3.71798 15.9627 4.21259 16.5823 4.84256C17.2019 5.47253 17.6842 6.22417 17.9986 7.04999L18.1186 7.79999C17.9313 8.68738 17.8907 9.59948 17.9986 10.5C17.9986 10.5 18.3586 12.375 17.7436 12.93C17.7436 12.93 17.0086 12.6 17.3536 13.095C17.3536 13.095 15.3436 9.89999 15.7036 8.47499C15.7036 8.47499 15.7936 7.09499 17.8636 7.48499" stroke="#326690" stroke-width="2" stroke-miterlimit="10"/>
<path d="M8.77539 17.4C10.2754 17.4 11.0254 14.265 11.0254 14.265L12.0154 15.63C12.2659 16.6549 12.352 17.7131 12.2704 18.765C12.4504 20.265 12.6154 21.33 14.4004 21.12C14.96 21.0412 15.475 20.771 15.8579 20.3553C16.2407 19.9396 16.4678 19.4042 16.5004 18.84C16.5208 18.417 16.5965 17.9984 16.7254 17.595C16.7254 17.295 16.8754 16.815 16.8754 16.815C16.8754 16.395 17.3104 13.125 17.3104 13.125C17.3022 13.5015 17.3703 13.8758 17.5107 14.2253C17.651 14.5747 17.8606 14.8922 18.1269 15.1585C18.3932 15.4248 18.7107 15.6344 19.0601 15.7747C19.4096 15.9151 19.7839 15.9832 20.1604 15.975" stroke="#326690" stroke-width="2" stroke-miterlimit="10"/>
<path d="M17.3686 8.27999C17.3686 8.27999 17.2486 8.00999 16.7086 8.17499C16.1686 8.33999 16.4386 8.51999 16.4386 8.51999C16.4386 8.51999 16.6186 8.72999 16.7986 8.71499C16.926 8.70702 17.0481 8.66143 17.1496 8.58399C17.2511 8.50656 17.3273 8.40076 17.3686 8.27999Z" fill="#326690"/>
<path d="M10.7405 8.65497C10.7405 8.65497 10.7405 8.35497 10.1255 8.32497C9.51048 8.29497 9.73548 8.57997 9.73548 8.57997C9.73548 8.57997 9.84048 8.84997 10.0205 8.89497C10.1507 8.93175 10.289 8.92854 10.4174 8.88574C10.5458 8.84294 10.6584 8.76254 10.7405 8.65497Z" fill="#326690"/>
</svg>
