<svg width="24" height="24" viewBox="0 0 24 24" fill="none" xmlns="http://www.w3.org/2000/svg">
<path d="M16.3043 5.32471H5.8493C5.32739 5.32471 4.9043 5.7478 4.9043 6.26971V19.7547C4.9043 20.2766 5.32739 20.6997 5.8493 20.6997H16.3043C16.8262 20.6997 17.2493 20.2766 17.2493 19.7547V6.26971C17.2493 5.7478 16.8262 5.32471 16.3043 5.32471Z" fill="#DEF4FD"/>
<path d="M16.3047 5.89478C16.4041 5.89478 16.4995 5.93428 16.5699 6.00461C16.6402 6.07494 16.6797 6.17032 16.6797 6.26978V19.7698C16.6797 19.8692 16.6402 19.9646 16.5699 20.0349C16.4995 20.1053 16.4041 20.1448 16.3047 20.1448H5.80469C5.70523 20.1448 5.60985 20.1053 5.53952 20.0349C5.4692 19.9646 5.42969 19.8692 5.42969 19.7698V6.26978C5.42969 6.17032 5.4692 6.07494 5.53952 6.00461C5.60985 5.93428 5.70523 5.89478 5.80469 5.89478H16.3047ZM16.3047 4.76978H5.80469C5.40686 4.76978 5.02533 4.92781 4.74403 5.20912C4.46272 5.49042 4.30469 5.87195 4.30469 6.26978V19.7698C4.30469 20.1676 4.46272 20.5491 4.74403 20.8304C5.02533 21.1117 5.40686 21.2698 5.80469 21.2698H16.3047C16.7025 21.2698 17.084 21.1117 17.3653 20.8304C17.6467 20.5491 17.8047 20.1676 17.8047 19.7698V6.26978C17.8047 5.87195 17.6467 5.49042 17.3653 5.20912C17.084 4.92781 16.7025 4.76978 16.3047 4.76978Z" fill="#34495E"/>
<path d="M8.63867 5.6996V4.7696C8.64261 4.52158 8.74391 4.28505 8.9207 4.11106C9.0975 3.93707 9.33562 3.83957 9.58367 3.8396H12.5837C12.8265 3.84728 13.057 3.94819 13.2274 4.12137C13.3978 4.29454 13.4949 4.52669 13.4987 4.7696V5.6996H8.63867Z" fill="#DEF4FD"/>
<path d="M12.5703 4.39478C12.6698 4.39478 12.7652 4.43428 12.8355 4.50461C12.9058 4.57494 12.9453 4.67032 12.9453 4.76978V5.14478H9.19531V4.76978C9.19531 4.67032 9.23482 4.57494 9.30515 4.50461C9.37547 4.43428 9.47086 4.39478 9.57031 4.39478H12.5703ZM12.5703 3.26978H9.57031C9.17249 3.26978 8.79096 3.42781 8.50965 3.70912C8.22835 3.99042 8.07031 4.37195 8.07031 4.76978V6.26978H14.0703V4.76978C14.0703 4.37195 13.9123 3.99042 13.631 3.70912C13.3497 3.42781 12.9681 3.26978 12.5703 3.26978Z" fill="#34495E"/>
<path d="M10.2598 9.94491V8.90991H14.9998V9.94491H10.2598Z" fill="#DEF4FD"/>
<path d="M15.0598 8.90991H10.2598V9.94491H15.0598V8.90991Z" fill="#2195E7"/>
<path d="M10.2598 13.7996V12.7646H14.9998V13.7996H10.2598Z" fill="#DEF4FD"/>
<path d="M15.0598 12.7646H10.2598V13.7996H15.0598V12.7646Z" fill="#2195E7"/>
<path d="M10.2598 17.9996V16.9646H14.9998V17.9996H10.2598Z" fill="#DEF4FD"/>
<path d="M15.0598 16.9048H10.2598V17.9248H15.0598V16.9048Z" fill="#2195E7"/>
<path d="M8.13039 13.0496H7.65039V13.5296H8.13039V13.0496Z" fill="#DEF4FD"/>
<path d="M8.70071 12.48H7.0957V14.085H8.70071V12.48Z" fill="#2195E7"/>
<path d="M8.13039 9.17969H7.65039V9.65969H8.13039V9.17969Z" fill="#DEF4FD"/>
<path d="M8.70071 8.625H7.0957V10.23H8.70071V8.625Z" fill="#2195E7"/>
<path d="M8.13039 17.1746H7.65039V17.6546H8.13039V17.1746Z" fill="#DEF4FD"/>
<path d="M8.70071 16.605H7.0957V18.21H8.70071V16.605Z" fill="#2195E7"/>
<path fill-rule="evenodd" clip-rule="evenodd" d="M20.2955 2.45939C20.7348 2.89873 20.7348 3.61104 20.2955 4.05038L15.7955 8.55038C15.3562 8.98972 14.6438 8.98972 14.2045 8.55038C13.7652 8.11104 13.7652 7.39873 14.2045 6.95939L18.7045 2.45939C19.1438 2.02005 19.8562 2.02005 20.2955 2.45939Z" fill="#D0021B"/>
<path fill-rule="evenodd" clip-rule="evenodd" d="M14.2045 2.45939C14.6438 2.02005 15.3562 2.02005 15.7955 2.45939L20.2955 6.95939C20.7348 7.39873 20.7348 8.11104 20.2955 8.55038C19.8562 8.98972 19.1438 8.98972 18.7045 8.55038L14.2045 4.05038C13.7652 3.61104 13.7652 2.89873 14.2045 2.45939Z" fill="#D0021B"/>
</svg>
