<svg width="24" height="24" viewBox="0 0 24 24" fill="none" xmlns="http://www.w3.org/2000/svg">
<path d="M12.0004 20.355C16.4739 20.355 20.1004 16.7285 20.1004 12.255C20.1004 7.78152 16.4739 4.15503 12.0004 4.15503C7.52688 4.15503 3.90039 7.78152 3.90039 12.255C3.90039 16.7285 7.52688 20.355 12.0004 20.355Z" fill="#E3F3F9"/>
<path fill-rule="evenodd" clip-rule="evenodd" d="M12.0004 4.71753C7.83754 4.71753 4.46289 8.09218 4.46289 12.255C4.46289 16.4179 7.83754 19.7925 12.0004 19.7925C16.1632 19.7925 19.5379 16.4179 19.5379 12.255C19.5379 8.09218 16.1632 4.71753 12.0004 4.71753ZM3.33789 12.255C3.33789 7.47086 7.21622 3.59253 12.0004 3.59253C16.7846 3.59253 20.6629 7.47086 20.6629 12.255C20.6629 17.0392 16.7846 20.9175 12.0004 20.9175C7.21622 20.9175 3.33789 17.0392 3.33789 12.255Z" fill="#BD4949"/>
<path fill-rule="evenodd" clip-rule="evenodd" d="M12 6.10522C12.4142 6.10522 12.75 6.44101 12.75 6.85522V12.2552C12.75 12.6694 12.4142 13.0052 12 13.0052C11.5858 13.0052 11.25 12.6694 11.25 12.2552V6.85522C11.25 6.44101 11.5858 6.10522 12 6.10522Z" fill="#1E50AD"/>
<path fill-rule="evenodd" clip-rule="evenodd" d="M11.25 12.2551C11.25 11.8409 11.5858 11.5051 12 11.5051H16.05C16.4642 11.5051 16.8 11.8409 16.8 12.2551C16.8 12.6693 16.4642 13.0051 16.05 13.0051H12C11.5858 13.0051 11.25 12.6693 11.25 12.2551Z" fill="#1E50AD"/>
</svg>
