<svg width="24" height="24" viewBox="0 0 24 24" fill="none" xmlns="http://www.w3.org/2000/svg">
<path d="M6.74961 5.1001H17.2496C17.6996 5.1001 18.1496 5.5501 18.1496 6.0001V19.5001C18.1496 19.9501 17.6996 20.4001 17.2496 20.4001H6.74961C6.29961 20.4001 5.84961 19.9501 5.84961 19.5001V6.0001C5.84961 5.5501 6.29961 5.1001 6.74961 5.1001Z" fill="#DEF4FD"/>
<path d="M17.25 5.7C17.4 5.7 17.55 5.85 17.55 6V19.5C17.55 19.65 17.4 19.8 17.25 19.8H6.75C6.6 19.8 6.45 19.65 6.45 19.5V6C6.45 5.85 6.6 5.7 6.75 5.7H17.25ZM17.25 4.5H6.75C5.85 4.5 5.25 5.1 5.25 6V19.5C5.25 20.4 5.85 21 6.75 21H17.25C18.15 21 18.75 20.4 18.75 19.5V6C18.75 5.1 18.15 4.5 17.25 4.5Z" fill="#34495E"/>
<path d="M9.59961 5.4001V4.5001C9.59961 4.0501 10.0496 3.6001 10.4996 3.6001H13.4996C13.9496 3.6001 14.3996 4.0501 14.3996 4.5001V5.4001H9.59961Z" fill="#DEF4FD"/>
<path d="M13.5 4.2C13.65 4.2 13.8 4.35 13.8 4.5V4.8H10.2V4.5C10.2 4.35 10.35 4.2 10.5 4.2H13.5ZM13.5 3H10.5C9.6 3 9 3.6 9 4.5V6H15V4.5C15 3.6 14.4 3 13.5 3Z" fill="#34495E"/>
<path d="M11.5508 9.9001V8.8501H16.3508V9.9001H11.5508Z" fill="#2195E7"/>
<path d="M11.5508 13.8V12.75H16.3508V13.8H11.5508Z" fill="#717F8E"/>
<path d="M11.5508 18.0002V16.9502H16.3508V18.0002H11.5508Z" fill="#717F8E"/>
<path d="M8.40039 14.1002V12.4502H10.0504V14.1002H8.40039Z" fill="#717F8E"/>
<path d="M8.40039 18.15V16.5H10.0504V18.15H8.40039Z" fill="#717F8E"/>
<path fill-rule="evenodd" clip-rule="evenodd" d="M11.1326 7.64653C11.3832 7.83025 11.4373 8.18226 11.2536 8.43278L9.6036 10.6828C9.50655 10.8151 9.35653 10.8985 9.19289 10.911C9.02925 10.9235 8.8683 10.8639 8.75225 10.7479L7.85225 9.84788C7.63258 9.62821 7.63258 9.27206 7.85225 9.05239C8.07192 8.83272 8.42808 8.83272 8.64775 9.05239L9.08413 9.48877L10.3464 7.76749C10.5301 7.51698 10.8821 7.46282 11.1326 7.64653Z" fill="#2195E7"/>
<path fill-rule="evenodd" clip-rule="evenodd" d="M21.0455 2.6547C21.4848 3.09404 21.4848 3.80635 21.0455 4.24569L16.5455 8.74569C16.1062 9.18503 15.3938 9.18503 14.9545 8.74569C14.5152 8.30635 14.5152 7.59404 14.9545 7.1547L19.4545 2.6547C19.8938 2.21536 20.6062 2.21536 21.0455 2.6547Z" fill="#D0021B"/>
<path fill-rule="evenodd" clip-rule="evenodd" d="M14.9545 2.6547C15.3938 2.21536 16.1062 2.21536 16.5455 2.6547L21.0455 7.1547C21.4848 7.59404 21.4848 8.30635 21.0455 8.74569C20.6062 9.18503 19.8938 9.18503 19.4545 8.74569L14.9545 4.24569C14.5152 3.80635 14.5152 3.09404 14.9545 2.6547Z" fill="#D0021B"/>
</svg>
