<svg width="24" height="24" viewBox="0 0 24 24" fill="none" xmlns="http://www.w3.org/2000/svg">
<path d="M12.0004 20.4002C16.4739 20.4002 20.1004 16.7737 20.1004 12.3002C20.1004 7.82669 16.4739 4.2002 12.0004 4.2002C7.52688 4.2002 3.90039 7.82669 3.90039 12.3002C3.90039 16.7737 7.52688 20.4002 12.0004 20.4002Z" fill="#E3F3F9"/>
<path fill-rule="evenodd" clip-rule="evenodd" d="M12.0004 4.7627C7.83754 4.7627 4.46289 8.13735 4.46289 12.3002C4.46289 16.463 7.83754 19.8377 12.0004 19.8377C16.1632 19.8377 19.5379 16.463 19.5379 12.3002C19.5379 8.13735 16.1632 4.7627 12.0004 4.7627ZM3.33789 12.3002C3.33789 7.51603 7.21622 3.6377 12.0004 3.6377C16.7846 3.6377 20.6629 7.51603 20.6629 12.3002C20.6629 17.0844 16.7846 20.9627 12.0004 20.9627C7.21622 20.9627 3.33789 17.0844 3.33789 12.3002Z" fill="#BD4949"/>
<path d="M16.05 11.5499H12.75V6.8999C12.75 6.4499 12.45 6.1499 12 6.1499C11.55 6.1499 11.25 6.4499 11.25 6.8999V12.2999C11.25 12.7499 11.55 13.0499 12 13.0499H16.05C16.5 13.0499 16.8 12.7499 16.8 12.2999C16.8 11.8499 16.5 11.5499 16.05 11.5499Z" fill="#1E50AD"/>
<path d="M19.95 5.8498L22.2 3.5998C22.65 3.1498 22.65 2.3998 22.2 1.9498C21.75 1.4998 21 1.4998 20.55 1.9498L18.3 4.1998L16.05 1.9498C15.6 1.4998 14.85 1.4998 14.4 1.9498C13.95 2.3998 13.95 3.1498 14.4 3.5998L16.65 5.8498L14.55 8.0998C14.1 8.54981 14.1 9.29981 14.55 9.74981C14.7 9.89981 15 10.0498 15.3 10.0498C15.6 10.0498 15.9 9.89981 16.05 9.74981L18.3 7.4998L20.55 9.74981C20.7 9.89981 21 10.0498 21.3 10.0498C21.6 10.0498 21.9 9.89981 22.05 9.74981C22.5 9.29981 22.5 8.54981 22.05 8.0998L19.95 5.8498Z" fill="#D0021B"/>
</svg>
