<svg width="24" height="24" viewBox="0 0 24 24" fill="none" xmlns="http://www.w3.org/2000/svg">
<path d="M17.2359 5.06982H6.78094C6.25903 5.06982 5.83594 5.49292 5.83594 6.01482V19.4998C5.83594 20.0217 6.25903 20.4448 6.78094 20.4448H17.2359C17.7578 20.4448 18.1809 20.0217 18.1809 19.4998V6.01482C18.1809 5.49292 17.7578 5.06982 17.2359 5.06982Z" fill="#DEF4FD"/>
<path d="M17.2356 5.625C17.3351 5.625 17.4305 5.66451 17.5008 5.73484C17.5711 5.80516 17.6106 5.90054 17.6106 6V19.5C17.6106 19.5995 17.5711 19.6948 17.5008 19.7652C17.4305 19.8355 17.3351 19.875 17.2356 19.875H6.73562C6.64146 19.8674 6.55361 19.8246 6.48965 19.7551C6.42569 19.6856 6.39032 19.5945 6.39063 19.5V6C6.39063 5.90054 6.43013 5.80516 6.50046 5.73484C6.57079 5.66451 6.66617 5.625 6.76563 5.625H17.2656H17.2356ZM17.2656 4.5H6.76563C6.3678 4.5 5.98627 4.65804 5.70496 4.93934C5.42366 5.22064 5.26563 5.60218 5.26562 6V19.5C5.26563 19.8978 5.42366 20.2794 5.70496 20.5607C5.98627 20.842 6.3678 21 6.76563 21H17.2656C17.6634 21 18.045 20.842 18.3263 20.5607C18.6076 20.2794 18.7656 19.8978 18.7656 19.5V6C18.7656 5.60218 18.6076 5.22064 18.3263 4.93934C18.045 4.65804 17.6634 4.5 17.2656 4.5Z" fill="#34495E"/>
<path d="M9.57031 5.44482V4.49982C9.57418 4.25438 9.6734 4.02007 9.84698 3.84649C10.0206 3.67291 10.2549 3.57369 10.5003 3.56982H13.5003C13.7484 3.56979 13.9865 3.66729 14.1633 3.84128C14.3401 4.01527 14.4414 4.2518 14.4453 4.49982V5.44482H9.57031Z" fill="#DEF4FD"/>
<path d="M13.5 4.125C13.5995 4.125 13.6948 4.16451 13.7652 4.23484C13.8355 4.30516 13.875 4.40054 13.875 4.5V4.875H10.125V4.5C10.125 4.40054 10.1645 4.30516 10.2348 4.23484C10.3052 4.16451 10.4005 4.125 10.5 4.125H13.5ZM13.5 3H10.5C10.1022 3 9.72064 3.15804 9.43934 3.43934C9.15804 3.72064 9 4.10218 9 4.5V6H15V4.5C15 4.10218 14.842 3.72064 14.5607 3.43934C14.2794 3.15804 13.8978 3 13.5 3Z" fill="#34495E"/>
<path d="M11.5957 9.94491V8.90991H16.3957V9.94491H11.5957Z" fill="#2195E7"/>
<path d="M11.5957 13.7999V12.7649H16.3957V13.7999H11.5957Z" fill="#717F8E"/>
<path d="M11.5957 18.0001V16.9651H16.3957V18.0001H11.5957Z" fill="#717F8E"/>
<path d="M8.43164 14.085V12.48H10.0366V14.085H8.43164Z" fill="#717F8E"/>
<path d="M8.43164 18.2251V16.6201H10.0366V18.2251H8.43164Z" fill="#717F8E"/>
<path fill-rule="evenodd" clip-rule="evenodd" d="M11.1622 7.61587C11.4129 7.79929 11.4675 8.15124 11.2841 8.40198L9.64909 10.637C9.55788 10.7616 9.41943 10.8433 9.2662 10.8628C9.11297 10.8824 8.95845 10.838 8.8389 10.7402L7.8489 9.93021C7.60846 9.73349 7.57302 9.3791 7.76974 9.13867C7.96647 8.89823 8.32085 8.86279 8.56129 9.05951L9.09171 9.49349L10.3761 7.73775C10.5595 7.48702 10.9115 7.43245 11.1622 7.61587Z" fill="#2195E7"/>
</svg>
