<svg width="24" height="24" viewBox="0 0 24 24" fill="none" xmlns="http://www.w3.org/2000/svg">
<path d="M18.69 5.11498C17.9375 4.37614 16.9494 3.92507 15.8981 3.84054C14.8469 3.756 13.7994 4.04336 12.9385 4.65245C12.0775 5.26154 11.4579 6.15366 11.1876 7.17307C10.9174 8.19247 11.0138 9.27441 11.46 10.23L4.50005 17.34C4.2627 17.6224 4.13778 17.9824 4.14915 18.3512C4.16052 18.72 4.3074 19.0716 4.56169 19.3389C4.81599 19.6062 5.15987 19.7704 5.52761 19.8001C5.89534 19.8298 6.26113 19.723 6.55505 19.5L7.83005 18.165L11.37 20.235L9.87005 16.365L12.99 17.235L11.49 14.49L13.605 12.39C14.5606 12.8362 15.6425 12.9326 16.662 12.6624C17.6814 12.3922 18.5735 11.7725 19.1826 10.9116C19.7917 10.0506 20.079 9.00309 19.9945 7.95187C19.9099 6.90065 19.4589 5.91252 18.72 5.15998L18.69 5.11498ZM16.5 9.37498C16.2906 9.58565 16.0234 9.72939 15.7322 9.788C15.4409 9.8466 15.1389 9.81742 14.8643 9.70415C14.5897 9.59088 14.3549 9.39863 14.1897 9.15176C14.0244 8.90489 13.9362 8.61453 13.9362 8.31748C13.9362 8.02042 14.0244 7.73006 14.1897 7.48319C14.3549 7.23633 14.5897 7.04407 14.8643 6.9308C15.1389 6.81754 15.4409 6.78835 15.7322 6.84695C16.0234 6.90556 16.2906 7.0493 16.5 7.25998C16.7794 7.54102 16.9362 7.9212 16.9362 8.31748C16.9362 8.71375 16.7794 9.09393 16.5 9.37498Z" fill="#F5F47E"/>
<path fill-rule="evenodd" clip-rule="evenodd" d="M12.6136 4.19325C13.5822 3.50802 14.7606 3.18474 15.9432 3.27985C17.1259 3.37495 18.2375 3.8824 19.0841 4.71359C19.1118 4.74075 19.1366 4.7707 19.1581 4.80296L19.1595 4.8051C19.9681 5.64668 20.4615 6.74233 20.5552 7.90679C20.6503 9.08941 20.327 10.2679 19.6418 11.2364C18.9565 12.205 17.9529 12.9021 16.8061 13.2061C15.7882 13.4759 14.7148 13.4208 13.7346 13.054L12.1864 14.5912L13.4837 16.9652C13.5921 17.1637 13.5711 17.4078 13.4305 17.5849C13.2898 17.7619 13.0568 17.8375 12.839 17.7768L10.8002 17.2083L11.8945 20.0317C11.981 20.2547 11.9169 20.508 11.7349 20.6631C11.5528 20.8183 11.2926 20.8413 11.0861 20.7206L7.92982 18.8749L6.96183 19.8885C6.94118 19.9101 6.91884 19.93 6.89502 19.9481C6.49088 20.2547 5.98793 20.4016 5.48229 20.3608C4.97666 20.3199 4.50382 20.0941 4.15416 19.7266C3.80451 19.3591 3.60256 18.8756 3.58692 18.3685C3.57128 17.8615 3.74305 17.3665 4.0694 16.9781C4.07856 16.9672 4.08812 16.9567 4.09808 16.9465L10.7971 10.1031C10.4293 9.12222 10.3739 8.04782 10.6439 7.02894C10.9479 5.88211 11.645 4.87847 12.6136 4.19325ZM15.8531 4.40123C14.9332 4.32726 14.0167 4.5787 13.2633 5.11165C12.51 5.6446 11.9678 6.42521 11.7314 7.31719C11.4949 8.20917 11.5793 9.15586 11.9697 9.99199C12.0689 10.2044 12.026 10.456 11.862 10.6235L4.9187 17.7164C4.77815 17.8907 4.70447 18.1097 4.71138 18.3339C4.71849 18.5643 4.81029 18.7841 4.96922 18.9512C5.12816 19.1182 5.34308 19.2208 5.57292 19.2394C5.78953 19.2569 6.00507 19.1986 6.18294 19.0752L7.42326 17.7765C7.60323 17.588 7.88905 17.5479 8.11398 17.6794L10.2634 18.9363L9.34556 16.5683C9.26863 16.3698 9.31034 16.1449 9.45333 15.9872C9.59631 15.8294 9.81608 15.766 10.0211 15.8231L11.8573 16.3352L10.9964 14.7597C10.8763 14.5399 10.916 14.2673 11.0937 14.0908L13.2087 11.9908C13.3761 11.8246 13.6293 11.7805 13.843 11.8803C14.6792 12.2707 15.6258 12.3551 16.5178 12.1186C17.4098 11.8822 18.1904 11.34 18.7234 10.5867C19.2563 9.83336 19.5078 8.91678 19.4338 7.99696C19.3598 7.07715 18.9651 6.21253 18.3187 5.55405C18.2954 5.53037 18.2743 5.50467 18.2556 5.47726C17.6023 4.85397 16.7542 4.47369 15.8531 4.40123ZM15.6212 7.3984C15.4392 7.36177 15.2504 7.38001 15.0788 7.45081C14.9071 7.5216 14.7604 7.64176 14.6571 7.79605C14.5539 7.95034 14.4987 8.13182 14.4987 8.31748C14.4987 8.50313 14.5539 8.68461 14.6571 8.8389C14.7604 8.9932 14.9071 9.11335 15.0788 9.18415C15.2504 9.25494 15.4392 9.27318 15.6212 9.23655C15.8032 9.19993 15.9702 9.11008 16.1011 8.97841C16.2757 8.80276 16.3737 8.56515 16.3737 8.31748C16.3737 8.0698 16.2757 7.83219 16.1011 7.65654C15.9702 7.52487 15.8032 7.43503 15.6212 7.3984ZM14.6498 6.4108C15.0274 6.25506 15.4427 6.21493 15.8431 6.29551C16.2435 6.37609 16.611 6.57374 16.899 6.86341C17.2831 7.24985 17.4987 7.77259 17.4987 8.31748C17.4987 8.86236 17.2831 9.3851 16.899 9.77154C16.611 10.0612 16.2435 10.2589 15.8431 10.3394C15.4427 10.42 15.0274 10.3799 14.6498 10.2242C14.2722 10.0684 13.9494 9.80406 13.7222 9.46462C13.495 9.12517 13.3737 8.72592 13.3737 8.31748C13.3737 7.90903 13.495 7.50978 13.7222 7.17034C13.9494 6.8309 14.2722 6.56655 14.6498 6.4108Z" fill="#CAA524"/>
</svg>
