<svg width="24" height="24" viewBox="0 0 24 24" fill="none" xmlns="http://www.w3.org/2000/svg">
<path d="M16.3808 20.1151L18.2858 19.1101L18.8108 16.8601V15.8101L19.0808 13.5601L19.7558 12.7201L21.4508 11.8801H19.7558L20.9108 11.6701L19.1558 10.3651L19.0508 9.48008V7.86008L18.8108 5.64008L18.1058 4.81508L16.9808 4.32008L16.3808 4.26008L7.27578 4.08008L5.97078 4.99508L5.16078 5.65508V6.57008L5.31078 6.31508L5.02578 9.34508L5.16078 10.3951L2.88078 11.8801L2.55078 12.1651L2.88078 11.8801L4.35078 12.9451L4.57578 13.5601L5.44578 15.8401L5.38578 16.8301L5.37078 17.5201L5.38578 16.3201V16.9051L5.71578 18.3451L6.25578 19.0651L7.18578 19.6351L7.95078 20.1151H16.3808Z" fill="#EDFFFD"/>
<path d="M15.7363 19.8002C16.3319 19.8002 16.9186 19.6561 17.4463 19.3802C17.8182 19.1669 18.1243 18.8556 18.3313 18.4802C18.52 18.1168 18.6323 17.7186 18.6613 17.3102C18.6613 16.8902 18.6613 16.4852 18.6613 16.0952V16.3952C18.6613 15.8252 18.6613 15.3452 18.6613 14.8952C18.6694 14.5586 18.6995 14.2229 18.7513 13.8902C18.7845 13.6506 18.8554 13.4177 18.9613 13.2002C19.0549 13.0175 19.1764 12.8505 19.3213 12.7052C19.4703 12.5498 19.6423 12.4183 19.8313 12.3152C20.0043 12.2244 20.185 12.1491 20.3713 12.0902C20.5775 12.0379 20.7887 12.0078 21.0013 12.0002C21.1513 12.0002 21.1513 11.9252 21.0013 11.8952C20.8337 11.8742 20.6681 11.8391 20.5063 11.7902C20.3194 11.733 20.1386 11.6576 19.9663 11.5652C19.7773 11.4621 19.6053 11.3306 19.4563 11.1752C19.3118 11.0295 19.1904 10.8626 19.0963 10.6802C18.9906 10.4626 18.9198 10.2298 18.8863 9.99019C18.8151 9.66377 18.7649 9.33308 18.7363 9.0002C18.7363 8.6102 18.7363 8.1102 18.7363 7.5002V7.8002C18.7363 7.4102 18.7363 7.0052 18.7363 6.5852C18.7073 6.17676 18.595 5.77859 18.4063 5.4152C18.1987 5.04025 17.8927 4.72908 17.5213 4.5152C16.9932 4.24037 16.4067 4.09633 15.8113 4.0952V3.8252H16.2613C16.4485 3.83998 16.6341 3.87008 16.8163 3.9152C17.0209 3.96528 17.2214 4.03045 17.4163 4.1102C17.6293 4.21096 17.8264 4.34235 18.0013 4.5002C18.2757 4.70546 18.5096 4.95974 18.6913 5.2502C18.8578 5.52407 18.9794 5.82286 19.0513 6.1352C19.1301 6.49017 19.1752 6.85176 19.1863 7.2152C19.1863 7.6052 19.1863 8.7152 19.1863 8.7152C19.1818 9.13259 19.2169 9.54946 19.2913 9.9602C19.3462 10.2829 19.4802 10.587 19.6813 10.8452C19.904 11.1124 20.1867 11.3231 20.5063 11.4602C20.5902 11.511 20.6595 11.5825 20.7076 11.6679C20.7557 11.7533 20.781 11.8497 20.781 11.9477C20.781 12.0457 20.7557 12.1421 20.7076 12.2275C20.6595 12.3129 20.5902 12.3844 20.5063 12.4352C20.1885 12.5684 19.906 12.7739 19.6813 13.0352C19.4807 13.2937 19.3468 13.5977 19.2913 13.9202C19.2169 14.3309 19.1818 14.7478 19.1863 15.1652C19.1863 15.1652 19.1113 17.4752 19.0363 17.8052C18.9644 18.1175 18.8428 18.4163 18.6763 18.6902C18.5055 19.0011 18.2763 19.2761 18.0013 19.5002C17.8236 19.6422 17.6266 19.7583 17.4163 19.8452C17.2211 19.9242 17.0206 19.9893 16.8163 20.0402C16.6339 20.0846 16.4484 20.1146 16.2613 20.1302H15.8113L15.7363 19.8002Z" fill="#34495E" stroke="#2F91A3" stroke-width="0.8" stroke-miterlimit="10"/>
<path d="M8.36977 4.19987C7.77422 4.19983 7.18752 4.34393 6.65977 4.61987C6.28789 4.83314 5.98176 5.14447 5.77477 5.51987C5.58607 5.88327 5.47377 6.28144 5.44477 6.68987C5.44477 7.10987 5.44477 7.51487 5.44477 7.90487V7.60487C5.44477 8.17487 5.44477 8.65487 5.44477 9.10487C5.4367 9.44148 5.40664 9.77719 5.35477 10.1099C5.32157 10.3495 5.25069 10.5824 5.14477 10.7999C5.05115 10.9825 4.9297 11.1495 4.78477 11.2949C4.63576 11.4502 4.46375 11.5818 4.27477 11.6849C4.10175 11.7756 3.92104 11.8509 3.73477 11.9099C3.5481 11.9581 3.35722 11.9883 3.16477 11.9999C2.99977 11.9999 2.99977 11.9999 3.16477 11.9999C3.33243 12.0209 3.49802 12.056 3.65977 12.1049C3.84667 12.1621 4.02753 12.2375 4.19977 12.3299C4.38875 12.433 4.56076 12.5645 4.70977 12.7199C4.85433 12.8655 4.97574 13.0325 5.06977 13.2149C5.17546 13.4325 5.24633 13.6653 5.27977 13.9049C5.33155 14.2376 5.36161 14.5733 5.36977 14.9099C5.36977 15.2999 5.36977 15.7999 5.36977 16.4099V16.1099C5.36977 16.4999 5.36977 16.9049 5.36977 17.3249C5.39877 17.7333 5.51107 18.1315 5.69977 18.4949C5.90738 18.8698 6.21337 19.181 6.58477 19.3949C7.11294 19.6697 7.69937 19.8137 8.29477 19.8149V20.1749H7.84477C7.65762 20.1601 7.472 20.13 7.28977 20.0849C7.08522 20.0348 6.88467 19.9696 6.68977 19.8899C6.50317 19.7831 6.33165 19.652 6.17977 19.4999C5.90544 19.2946 5.67149 19.0403 5.48977 18.7499C5.32326 18.476 5.20172 18.1772 5.12977 17.8649C5.05104 17.5099 5.00584 17.1483 4.99477 16.7849C4.99477 16.3949 4.99477 15.2849 4.99477 15.2849C4.9993 14.8675 4.96415 14.4506 4.88977 14.0399C4.84473 13.6962 4.71025 13.3703 4.49977 13.0949C4.27712 12.8277 3.99442 12.6169 3.67477 12.4799C3.59094 12.4291 3.52162 12.3575 3.47352 12.2721C3.42541 12.1867 3.40014 12.0904 3.40014 11.9924C3.40014 11.8944 3.42541 11.798 3.47352 11.7126C3.52162 11.6272 3.59094 11.5557 3.67477 11.5049C3.99261 11.3716 4.27507 11.1662 4.49977 10.9049C4.70038 10.6463 4.83432 10.3424 4.88977 10.0199C4.96415 9.60914 4.9993 9.19226 4.99477 8.77487C4.99477 8.77487 5.06977 6.46487 5.14477 6.13487C5.21672 5.82254 5.33826 5.52375 5.50477 5.24987C5.68177 4.96052 5.91059 4.70627 6.17977 4.49987C6.35754 4.35789 6.55449 4.24174 6.76477 4.15487C6.95996 4.07592 7.16045 4.01076 7.36477 3.95987C7.54715 3.91551 7.73271 3.88542 7.91977 3.86987H8.36977V4.19987Z" fill="#34495E" stroke="#2F91A3" stroke-width="0.8" stroke-miterlimit="10"/>
</svg>
