<svg width="24" height="24" viewBox="0 0 24 24" fill="none" xmlns="http://www.w3.org/2000/svg">
<path d="M10.7543 13.6199H5.8493C5.32739 13.6199 4.9043 14.043 4.9043 14.5649V19.4699C4.9043 19.9918 5.32739 20.4149 5.8493 20.4149H10.7543C11.2762 20.4149 11.6993 19.9918 11.6993 19.4699V14.5649C11.6993 14.043 11.2762 13.6199 10.7543 13.6199Z" fill="#DEF4FD"/>
<path d="M10.754 14.1897C10.8534 14.1897 10.9488 14.2292 11.0192 14.2995C11.0895 14.3699 11.129 14.4652 11.129 14.5647V19.4997C11.129 19.5992 11.0895 19.6945 11.0192 19.7649C10.9488 19.8352 10.8534 19.8747 10.754 19.8747H5.83398C5.73453 19.8747 5.63915 19.8352 5.56882 19.7649C5.49849 19.6945 5.45898 19.5992 5.45898 19.4997V14.5647C5.45898 14.4652 5.49849 14.3699 5.56882 14.2995C5.63915 14.2292 5.73453 14.1897 5.83398 14.1897H10.754ZM10.754 13.0647H5.83398C5.43616 13.0647 5.05463 13.2227 4.77332 13.504C4.49202 13.7853 4.33398 14.1669 4.33398 14.5647V19.4997C4.33398 19.8975 4.49202 20.2791 4.77332 20.5604C5.05463 20.8417 5.43616 20.9997 5.83398 20.9997H10.754C11.1518 20.9997 11.5333 20.8417 11.8146 20.5604C12.096 20.2791 12.254 19.8975 12.254 19.4997V14.5647C12.254 14.1669 12.096 13.7853 11.8146 13.504C11.5333 13.2227 11.1518 13.0647 10.754 13.0647Z" fill="#2195E7"/>
<path d="M10.7543 4.61987H5.8493C5.32739 4.61987 4.9043 5.04296 4.9043 5.56487V10.4699C4.9043 10.9918 5.32739 11.4149 5.8493 11.4149H10.7543C11.2762 11.4149 11.6993 10.9918 11.6993 10.4699V5.56487C11.6993 5.04296 11.2762 4.61987 10.7543 4.61987Z" fill="#DEF4FD"/>
<path d="M10.754 5.1897C10.8534 5.1897 10.9488 5.22921 11.0192 5.29953C11.0895 5.36986 11.129 5.46524 11.129 5.5647V10.4997C11.129 10.5992 11.0895 10.6945 11.0192 10.7649C10.9488 10.8352 10.8534 10.8747 10.754 10.8747H5.83398C5.73453 10.8747 5.63915 10.8352 5.56882 10.7649C5.49849 10.6945 5.45898 10.5992 5.45898 10.4997V5.5647C5.45898 5.46524 5.49849 5.36986 5.56882 5.29953C5.63915 5.22921 5.73453 5.1897 5.83398 5.1897H10.754ZM10.754 4.0647H5.83398C5.43616 4.0647 5.05463 4.22273 4.77332 4.50404C4.49202 4.78534 4.33398 5.16687 4.33398 5.5647V10.4997C4.33398 10.8975 4.49202 11.2791 4.77332 11.5604C5.05463 11.8417 5.43616 11.9997 5.83398 11.9997H10.754C11.1518 11.9997 11.5333 11.8417 11.8146 11.5604C12.096 11.2791 12.254 10.8975 12.254 10.4997V5.5647C12.254 5.16687 12.096 4.78534 11.8146 4.50404C11.5333 4.22273 11.1518 4.0647 10.754 4.0647Z" fill="#2195E7"/>
<path d="M19.7543 13.6199H14.8493C14.3274 13.6199 13.9043 14.043 13.9043 14.5649V19.4699C13.9043 19.9918 14.3274 20.4149 14.8493 20.4149H19.7543C20.2762 20.4149 20.6993 19.9918 20.6993 19.4699V14.5649C20.6993 14.043 20.2762 13.6199 19.7543 13.6199Z" fill="#DEF4FD"/>
<path d="M19.754 14.1897C19.8534 14.1897 19.9488 14.2292 20.0192 14.2995C20.0895 14.3699 20.129 14.4652 20.129 14.5647V19.4997C20.129 19.5992 20.0895 19.6945 20.0192 19.7649C19.9488 19.8352 19.8534 19.8747 19.754 19.8747H14.834C14.7345 19.8747 14.6391 19.8352 14.5688 19.7649C14.4985 19.6945 14.459 19.5992 14.459 19.4997V14.5647C14.459 14.4652 14.4985 14.3699 14.5688 14.2995C14.6391 14.2292 14.7345 14.1897 14.834 14.1897H19.754ZM19.754 13.0647H14.834C14.4362 13.0647 14.0546 13.2227 13.7733 13.504C13.492 13.7853 13.334 14.1669 13.334 14.5647V19.4997C13.334 19.8975 13.492 20.2791 13.7733 20.5604C14.0546 20.8417 14.4362 20.9997 14.834 20.9997H19.754C20.1518 20.9997 20.5333 20.8417 20.8146 20.5604C21.0959 20.2791 21.254 19.8975 21.254 19.4997V14.5647C21.254 14.1669 21.0959 13.7853 20.8146 13.504C20.5333 13.2227 20.1518 13.0647 19.754 13.0647Z" fill="#2195E7"/>
<path d="M19.7543 4.61987H14.8493C14.3274 4.61987 13.9043 5.04296 13.9043 5.56487V10.4699C13.9043 10.9918 14.3274 11.4149 14.8493 11.4149H19.7543C20.2762 11.4149 20.6993 10.9918 20.6993 10.4699V5.56487C20.6993 5.04296 20.2762 4.61987 19.7543 4.61987Z" fill="#FFEEEE"/>
<path d="M19.754 5.1897C19.8534 5.1897 19.9488 5.22921 20.0192 5.29953C20.0895 5.36986 20.129 5.46524 20.129 5.5647V10.4997C20.129 10.5992 20.0895 10.6945 20.0192 10.7649C19.9488 10.8352 19.8534 10.8747 19.754 10.8747H14.834C14.7345 10.8747 14.6391 10.8352 14.5688 10.7649C14.4985 10.6945 14.459 10.5992 14.459 10.4997V5.5647C14.459 5.46524 14.4985 5.36986 14.5688 5.29953C14.6391 5.22921 14.7345 5.1897 14.834 5.1897H19.754ZM19.754 4.0647H14.834C14.4362 4.0647 14.0546 4.22273 13.7733 4.50404C13.492 4.78534 13.334 5.16687 13.334 5.5647V10.4997C13.334 10.8975 13.492 11.2791 13.7733 11.5604C14.0546 11.8417 14.4362 11.9997 14.834 11.9997H19.754C20.1518 11.9997 20.5333 11.8417 20.8146 11.5604C21.0959 11.2791 21.254 10.8975 21.254 10.4997V5.5647C21.254 5.16687 21.0959 4.78534 20.8146 4.50404C20.5333 4.22273 20.1518 4.0647 19.754 4.0647Z" fill="#BD4949"/>
</svg>
