<svg width="24" height="24" viewBox="0 0 24 24" fill="none" xmlns="http://www.w3.org/2000/svg">
<path d="M3.96063 18.6901C3.95323 18.5752 3.95323 18.46 3.96063 18.3451C4.02729 16.2748 4.91003 14.3149 6.41625 12.893C7.92247 11.4711 9.92992 10.7025 12.0006 10.7551C14.0764 10.6986 16.0899 11.4673 17.5998 12.8929C19.1097 14.3185 19.9929 16.2845 20.0556 18.3601C20.063 18.475 20.063 18.5902 20.0556 18.7051L3.96063 18.6901Z" fill="#BFE1F1"/>
<path d="M12 11.3105C13.8905 11.256 15.7284 11.9367 17.1272 13.2096C18.5259 14.4825 19.3765 16.2483 19.5 18.1355H4.5C4.62348 16.2483 5.47408 14.4825 6.87285 13.2096C8.27162 11.9367 10.1095 11.256 12 11.3105ZM12 10.1855C9.77449 10.125 7.61598 10.9504 5.99873 12.4805C4.38148 14.0105 3.43779 16.12 3.375 18.3455C3.38656 18.652 3.41661 18.9576 3.465 19.2605H20.52C20.5684 18.9576 20.5984 18.652 20.61 18.3455C20.5472 16.1227 19.6056 14.0155 17.9916 12.4859C16.3776 10.9563 14.223 10.129 12 10.1855Z" fill="#2C66BD"/>
<path d="M12.0004 13.2601C14.1957 13.2601 15.9754 11.4804 15.9754 9.28506C15.9754 7.08973 14.1957 5.31006 12.0004 5.31006C9.80506 5.31006 8.02539 7.08973 8.02539 9.28506C8.02539 11.4804 9.80506 13.2601 12.0004 13.2601Z" fill="#BFE1F1"/>
<path d="M12 5.86523C12.6728 5.8682 13.3296 6.07041 13.8876 6.44636C14.4456 6.8223 14.8797 7.35512 15.1351 7.97756C15.3905 8.6 15.4558 9.28415 15.3227 9.94366C15.1897 10.6032 14.8642 11.2085 14.3874 11.6832C13.9106 12.1579 13.3039 12.4807 12.6438 12.6109C11.9837 12.741 11.2998 12.6727 10.6785 12.4146C10.0572 12.1564 9.52631 11.72 9.15282 11.1604C8.77934 10.6008 8.58001 9.94304 8.58 9.27023C8.58397 8.3658 8.94604 7.49975 9.58698 6.86162C10.2279 6.22349 11.0956 5.86523 12 5.86523ZM12 4.74023C11.11 4.74023 10.24 5.00415 9.49994 5.49862C8.75991 5.99309 8.18314 6.69589 7.84254 7.51816C7.50195 8.34043 7.41283 9.24523 7.58647 10.1181C7.7601 10.9911 8.18869 11.7929 8.81802 12.4222C9.44736 13.0516 10.2492 13.4801 11.1221 13.6538C11.995 13.8274 12.8998 13.7383 13.7221 13.3977C14.5443 13.0571 15.2471 12.4803 15.7416 11.7403C16.2361 11.0003 16.5 10.1303 16.5 9.24023C16.5 8.04676 16.0259 6.90217 15.182 6.05825C14.3381 5.21434 13.1935 4.74023 12 4.74023Z" fill="#2C66BD"/>
</svg>
