<svg width="24" height="24" viewBox="0 0 24 24" fill="none" xmlns="http://www.w3.org/2000/svg">
<path d="M20.3695 7.48511H3.64453V16.5001H20.3695V7.48511Z" fill="#FEE07B"/>
<path fill-rule="evenodd" clip-rule="evenodd" d="M3.08203 7.48511C3.08203 7.17445 3.33387 6.92261 3.64453 6.92261H20.3695C20.6802 6.92261 20.932 7.17445 20.932 7.48511V16.5001C20.932 16.8108 20.6802 17.0626 20.3695 17.0626H3.64453C3.33387 17.0626 3.08203 16.8108 3.08203 16.5001V7.48511ZM4.20703 8.04761V15.9376H19.807V8.04761H4.20703Z" fill="#DDA91D"/>
<path fill-rule="evenodd" clip-rule="evenodd" d="M16.3652 7.49292C16.6759 7.49292 16.9277 7.74476 16.9277 8.05542V13.3204C16.9277 13.6311 16.6759 13.8829 16.3652 13.8829C16.0546 13.8829 15.8027 13.6311 15.8027 13.3204V8.05542C15.8027 7.74476 16.0546 7.49292 16.3652 7.49292Z" fill="#DDA91D"/>
<path fill-rule="evenodd" clip-rule="evenodd" d="M10.3652 7.49292C10.6759 7.49292 10.9277 7.74476 10.9277 8.05542V13.3204C10.9277 13.6311 10.6759 13.8829 10.3652 13.8829C10.0546 13.8829 9.80273 13.6311 9.80273 13.3204V8.05542C9.80273 7.74476 10.0546 7.49292 10.3652 7.49292Z" fill="#DDA91D"/>
<path fill-rule="evenodd" clip-rule="evenodd" d="M13.3652 7.49292C13.6759 7.49292 13.9277 7.74476 13.9277 8.05542V11.8204C13.9277 12.1311 13.6759 12.3829 13.3652 12.3829C13.0546 12.3829 12.8027 12.1311 12.8027 11.8204V8.05542C12.8027 7.74476 13.0546 7.49292 13.3652 7.49292Z" fill="#DDA91D"/>
<path fill-rule="evenodd" clip-rule="evenodd" d="M7.36523 7.49292C7.67589 7.49292 7.92773 7.74476 7.92773 8.05542V11.8204C7.92773 12.1311 7.67589 12.3829 7.36523 12.3829C7.05457 12.3829 6.80273 12.1311 6.80273 11.8204V8.05542C6.80273 7.74476 7.05457 7.49292 7.36523 7.49292Z" fill="#DDA91D"/>
</svg>
