<svg width="24" height="24" viewBox="0 0 24 24" fill="none" xmlns="http://www.w3.org/2000/svg">
<path d="M5.17609 4.34972H16.5011C16.7249 4.34171 16.9482 4.37815 17.1578 4.45694C17.3675 4.53572 17.5595 4.65528 17.7227 4.80871C17.8859 4.96214 18.0171 5.1464 18.1086 5.35082C18.2002 5.55525 18.2503 5.7758 18.2561 5.99972V7.27471C18.2603 7.50496 18.2176 7.73365 18.1305 7.94682C18.0434 8.16 17.9138 8.3532 17.7495 8.51462C17.5853 8.67604 17.3899 8.80231 17.1753 8.88571C16.9606 8.96912 16.7312 9.00791 16.5011 8.99972H5.17609C4.73053 8.99972 4.30322 8.82272 3.98815 8.50765C3.67309 8.19259 3.49609 7.76528 3.49609 7.31972V5.99972C3.50774 5.5606 3.6894 5.14316 4.0028 4.83536C4.31619 4.52756 4.73684 4.35345 5.17609 4.34972Z" fill="#F2F2F2"/>
<path d="M16.5758 4.905C16.869 4.9049 17.1507 5.0193 17.3609 5.22383C17.571 5.42836 17.693 5.70686 17.7008 6V7.275C17.7008 7.57337 17.5823 7.85952 17.3713 8.07049C17.1603 8.28147 16.8741 8.4 16.5758 8.4H5.17578C4.87741 8.4 4.59126 8.28147 4.38029 8.07049C4.16931 7.85952 4.05078 7.57337 4.05078 7.275V6C4.05078 5.70163 4.16931 5.41548 4.38029 5.2045C4.59126 4.99353 4.87741 4.875 5.17578 4.875H16.5758V4.905ZM16.5758 3.75H5.17578C4.57904 3.75 4.00675 3.98705 3.58479 4.40901C3.16283 4.83097 2.92578 5.40326 2.92578 6V7.275C2.92578 7.87174 3.16283 8.44403 3.58479 8.86599C4.00675 9.28795 4.57904 9.525 5.17578 9.525H16.5758C17.1725 9.525 17.7448 9.28795 18.1668 8.86599C18.5887 8.44403 18.8258 7.87174 18.8258 7.275V6C18.8258 5.40326 18.5887 4.83097 18.1668 4.40901C17.7448 3.98705 17.1725 3.75 16.5758 3.75Z" fill="#AAAAAA"/>
<path fill-rule="evenodd" clip-rule="evenodd" d="M5.28125 6.11206H8.43125V7.23706H5.28125V6.11206Z" fill="#AAAAAA"/>
<path d="M5.17609 10.125H16.5011C16.9506 10.125 17.3818 10.3036 17.6996 10.6215C18.0175 10.9393 18.1961 11.3705 18.1961 11.82V13.095C18.1961 13.3169 18.1522 13.5366 18.0668 13.7414C17.9814 13.9462 17.8563 14.1321 17.6987 14.2883C17.5411 14.4445 17.3542 14.5679 17.1486 14.6514C16.943 14.735 16.723 14.777 16.5011 14.775H5.17609C4.73053 14.775 4.30322 14.598 3.98815 14.2829C3.67309 13.9679 3.49609 13.5406 3.49609 13.095V11.82C3.49608 11.373 3.6726 10.9442 3.98723 10.6267C4.30187 10.3093 4.72916 10.129 5.17609 10.125Z" fill="#F2F2F2"/>
<path d="M16.5758 10.6946C16.8741 10.6946 17.1603 10.8131 17.3713 11.0241C17.5823 11.2351 17.7008 11.5212 17.7008 11.8196V13.0946C17.7008 13.3929 17.5823 13.6791 17.3713 13.8901C17.1603 14.1011 16.8741 14.2196 16.5758 14.2196H5.17578C4.87741 14.2196 4.59126 14.1011 4.38029 13.8901C4.16931 13.6791 4.05078 13.3929 4.05078 13.0946V11.8196C4.05078 11.5212 4.16931 11.2351 4.38029 11.0241C4.59126 10.8131 4.87741 10.6946 5.17578 10.6946H16.5758ZM16.5758 9.56958H5.17578C4.57904 9.56958 4.00675 9.80663 3.58479 10.2286C3.16283 10.6505 2.92578 11.2228 2.92578 11.8196V13.0946C2.92578 13.6913 3.16283 14.2636 3.58479 14.6856C4.00675 15.1075 4.57904 15.3446 5.17578 15.3446H16.5758C17.1725 15.3446 17.7448 15.1075 18.1668 14.6856C18.5887 14.2636 18.8258 13.6913 18.8258 13.0946V11.8196C18.8258 11.2228 18.5887 10.6505 18.1668 10.2286C17.7448 9.80663 17.1725 9.56958 16.5758 9.56958Z" fill="#7B7B97"/>
<path fill-rule="evenodd" clip-rule="evenodd" d="M5.28125 11.8872H8.43125V13.0122H5.28125V11.8872Z" fill="#7B7B97"/>
<path d="M5.17609 15.8999H16.5011C16.9506 15.8999 17.3818 16.0785 17.6996 16.3964C18.0175 16.7142 18.1961 17.1454 18.1961 17.5949V18.8699C18.1961 19.0918 18.1522 19.3115 18.0668 19.5163C17.9814 19.7211 17.8563 19.907 17.6987 20.0632C17.5411 20.2194 17.3542 20.3428 17.1486 20.4264C16.943 20.5099 16.723 20.5519 16.5011 20.5499H5.17609C4.73053 20.5499 4.30322 20.3729 3.98815 20.0578C3.67309 19.7428 3.49609 19.3155 3.49609 18.8699V17.5949C3.49608 17.1479 3.6726 16.7191 3.98723 16.4016C4.30187 16.0842 4.72916 15.9039 5.17609 15.8999Z" fill="#F2F2F2"/>
<path d="M16.5758 16.5C16.8741 16.5 17.1603 16.6185 17.3713 16.8295C17.5823 17.0405 17.7008 17.3266 17.7008 17.625V18.9C17.7008 19.1984 17.5823 19.4845 17.3713 19.6955C17.1603 19.9065 16.8741 20.025 16.5758 20.025H5.17578C4.87741 20.025 4.59126 19.9065 4.38029 19.6955C4.16931 19.4845 4.05078 19.1984 4.05078 18.9V17.625C4.05078 17.3266 4.16931 17.0405 4.38029 16.8295C4.59126 16.6185 4.87741 16.5 5.17578 16.5H16.5758ZM16.5758 15.375H5.17578C4.57904 15.375 4.00675 15.6121 3.58479 16.034C3.16283 16.456 2.92578 17.0283 2.92578 17.625V18.9C2.92578 19.4967 3.16283 20.069 3.58479 20.491C4.00675 20.9129 4.57904 21.15 5.17578 21.15H16.5758C17.1725 21.15 17.7448 20.9129 18.1668 20.491C18.5887 20.069 18.8258 19.4967 18.8258 18.9V17.625C18.8258 17.0283 18.5887 16.456 18.1668 16.034C17.7448 15.6121 17.1725 15.375 16.5758 15.375Z" fill="#AAAAAA"/>
<path fill-rule="evenodd" clip-rule="evenodd" d="M5.28125 17.6624H8.43125V18.7874H5.28125V17.6624Z" fill="#AAAAAA"/>
<path fill-rule="evenodd" clip-rule="evenodd" d="M21.8717 2.08439C22.311 2.52373 22.311 3.23604 21.8717 3.67538L17.3717 8.17538C16.9323 8.61472 16.22 8.61472 15.7807 8.17538C15.3413 7.73604 15.3413 7.02373 15.7807 6.58439L20.2807 2.08439C20.72 1.64505 21.4323 1.64505 21.8717 2.08439Z" fill="#D0021B"/>
<path fill-rule="evenodd" clip-rule="evenodd" d="M15.7807 2.08439C16.22 1.64505 16.9323 1.64505 17.3717 2.08439L21.8717 6.58439C22.311 7.02373 22.311 7.73604 21.8717 8.17538C21.4323 8.61472 20.72 8.61472 20.2807 8.17538L15.7807 3.67538C15.3413 3.23604 15.3413 2.52373 15.7807 2.08439Z" fill="#D0021B"/>
</svg>
