<svg width="24" height="24" viewBox="0 0 24 24" fill="none" xmlns="http://www.w3.org/2000/svg">
<path d="M17.7011 3.90015H6.31609C5.37997 3.90015 4.62109 4.65902 4.62109 5.59515V6.85515C4.62109 7.79127 5.37997 8.55015 6.31609 8.55015H17.7011C18.6372 8.55015 19.3961 7.79127 19.3961 6.85515V5.59515C19.3961 4.65902 18.6372 3.90015 17.7011 3.90015Z" fill="#F2F2F2"/>
<path d="M17.7008 4.49997C17.9991 4.49997 18.2853 4.6185 18.4963 4.82948C18.7073 5.04045 18.8258 5.3266 18.8258 5.62497V6.89997C18.8258 7.19834 18.7073 7.48449 18.4963 7.69547C18.2853 7.90644 17.9991 8.02497 17.7008 8.02497H6.30078C6.00241 8.02497 5.71626 7.90644 5.50529 7.69547C5.29431 7.48449 5.17578 7.19834 5.17578 6.89997V5.59497C5.1836 5.30183 5.30557 5.02333 5.51571 4.8188C5.72584 4.61427 6.00754 4.49987 6.30078 4.49997H17.7008ZM17.7008 3.37497H6.30078C5.70404 3.37497 5.13175 3.61202 4.70979 4.03398C4.28783 4.45594 4.05078 5.02823 4.05078 5.62497V6.89997C4.05078 7.49671 4.28783 8.069 4.70979 8.49096C5.13175 8.91292 5.70404 9.14997 6.30078 9.14997H17.7008C18.2975 9.14997 18.8698 8.91292 19.2918 8.49096C19.7137 8.069 19.9508 7.49671 19.9508 6.89997V5.59497C19.9508 4.99823 19.7137 4.42594 19.2918 4.00398C18.8698 3.58202 18.2975 3.34497 17.7008 3.34497V3.37497Z" fill="#AAAAAA"/>
<path fill-rule="evenodd" clip-rule="evenodd" d="M6.40625 5.66235H9.55625V6.78735H6.40625V5.66235Z" fill="#AAAAAA"/>
<path d="M6.30116 9.67529H17.7012C18.1507 9.67529 18.5818 9.85387 18.8997 10.1717C19.2176 10.4896 19.3962 10.9208 19.3962 11.3703V12.6453C19.3962 12.8672 19.3522 13.0869 19.2669 13.2917C19.1815 13.4965 19.0564 13.6824 18.8988 13.8386C18.7412 13.9948 18.5542 14.1182 18.3487 14.2017C18.1431 14.2853 17.923 14.3273 17.7012 14.3253H6.30116C6.07927 14.3253 5.85958 14.2814 5.65477 14.196C5.44996 14.1106 5.26409 13.9855 5.10789 13.8279C4.95169 13.6703 4.82825 13.4834 4.74471 13.2778C4.66117 13.0722 4.61918 12.8522 4.62116 12.6303V11.3703C4.62114 10.9233 4.79766 10.4945 5.1123 10.177C5.42694 9.85957 5.85422 9.67925 6.30116 9.67529Z" fill="#F2F2F2"/>
<path d="M17.7008 10.2297C17.9991 10.2297 18.2853 10.3483 18.4963 10.5592C18.7073 10.7702 18.8258 11.0564 18.8258 11.3547V12.6297C18.8258 12.9281 18.7073 13.2143 18.4963 13.4252C18.2853 13.6362 17.9991 13.7547 17.7008 13.7547H6.30078C6.00241 13.7547 5.71626 13.6362 5.50529 13.4252C5.29431 13.2143 5.17578 12.9281 5.17578 12.6297V11.3547C5.17578 11.0564 5.29431 10.7702 5.50529 10.5592C5.71626 10.3483 6.00241 10.2297 6.30078 10.2297H17.7008ZM17.7008 9.10474H6.30078C5.70404 9.10474 5.13175 9.34179 4.70979 9.76375C4.28783 10.1857 4.05078 10.758 4.05078 11.3547V12.6297C4.05078 13.2265 4.28783 13.7988 4.70979 14.2207C5.13175 14.6427 5.70404 14.8797 6.30078 14.8797H17.7008C18.2975 14.8797 18.8698 14.6427 19.2918 14.2207C19.7137 13.7988 19.9508 13.2265 19.9508 12.6297V11.3547C19.9508 10.758 19.7137 10.1857 19.2918 9.76375C18.8698 9.34179 18.2975 9.10474 17.7008 9.10474Z" fill="#7B7B97"/>
<path fill-rule="evenodd" clip-rule="evenodd" d="M6.40625 11.4375H9.55625V12.5625H6.40625V11.4375Z" fill="#7B7B97"/>
<path d="M6.30047 15.45H17.7005C18.146 15.45 18.5733 15.627 18.8884 15.9421C19.2035 16.2571 19.3805 16.6845 19.3805 17.13V18.405C19.3824 18.6269 19.3405 18.847 19.2569 19.0525C19.1734 19.2581 19.0499 19.4451 18.8937 19.6027C18.7375 19.7603 18.5517 19.8854 18.3469 19.9707C18.142 20.0561 17.9224 20.1 17.7005 20.1H6.30047C5.85093 20.1 5.4198 19.9214 5.10192 19.6036C4.78405 19.2857 4.60547 18.8546 4.60547 18.405V17.13C4.60546 16.9081 4.64941 16.6884 4.73477 16.4836C4.82014 16.2788 4.94523 16.0929 5.10282 15.9367C5.26042 15.7805 5.44739 15.6571 5.65295 15.5736C5.85851 15.49 6.07859 15.448 6.30047 15.45Z" fill="#F2F2F2"/>
<path d="M17.7008 16.0198C17.9991 16.0198 18.2853 16.1383 18.4963 16.3493C18.7073 16.5603 18.8258 16.8464 18.8258 17.1448V18.4198C18.8258 18.7181 18.7073 19.0043 18.4963 19.2153C18.2853 19.4262 17.9991 19.5448 17.7008 19.5448H6.30078C6.00241 19.5448 5.71626 19.4262 5.50529 19.2153C5.29431 19.0043 5.17578 18.7181 5.17578 18.4198V17.1448C5.17578 16.8464 5.29431 16.5603 5.50529 16.3493C5.71626 16.1383 6.00241 16.0198 6.30078 16.0198H17.7008ZM17.7008 14.8948H6.30078C5.70404 14.8948 5.13175 15.1318 4.70979 15.5538C4.28783 15.9757 4.05078 16.548 4.05078 17.1448V18.4198C4.05078 19.0165 4.28783 19.5888 4.70979 20.0108C5.13175 20.4327 5.70404 20.6698 6.30078 20.6698H17.7008C18.2975 20.6698 18.8698 20.4327 19.2918 20.0108C19.7137 19.5888 19.9508 19.0165 19.9508 18.4198V17.1448C19.9508 16.548 19.7137 15.9757 19.2918 15.5538C18.8698 15.1318 18.2975 14.8948 17.7008 14.8948Z" fill="#AAAAAA"/>
<path fill-rule="evenodd" clip-rule="evenodd" d="M6.40625 17.2126H9.55625V18.3376H6.40625V17.2126Z" fill="#AAAAAA"/>
</svg>
