<svg width="24" height="24" viewBox="0 0 24 24" fill="none" xmlns="http://www.w3.org/2000/svg">
<path d="M3.75 15.1499V6.1499C3.75 5.2499 4.35 4.6499 5.25 4.6499H18.75C19.65 4.6499 20.25 5.2499 20.25 6.1499V15.1499H3.75Z" fill="#F2F2F2"/>
<path fill-rule="evenodd" clip-rule="evenodd" d="M11.4375 14.3999V10.6499H12.5625V14.3999H11.4375Z" fill="#C1CBD5"/>
<path d="M18.75 4.6499H12.6H11.4H5.25C4.35 4.6499 3.75 5.2499 3.75 6.1499V9.4499V10.6499V15.1499H20.25V10.6499V9.5999V6.1499C20.25 5.2499 19.65 4.6499 18.75 4.6499ZM18.75 5.8499C18.9 5.8499 19.05 5.9999 19.05 6.1499V9.4499H12.6V5.8499H18.75ZM4.8 6.1499C4.8 5.9999 4.95 5.8499 5.1 5.8499H11.25V9.5999H4.8V6.1499ZM19.2 13.9499H4.8V10.6499H11.4H12.6H19.2V13.9499Z" fill="#2195E7"/>
<path d="M18.75 21.75H5.25C4.35 21.75 3.75 21.15 3.75 20.25V17.25H20.25V20.25C20.25 21.15 19.65 21.75 18.75 21.75Z" fill="#F2F2F2"/>
<path fill-rule="evenodd" clip-rule="evenodd" d="M11.4375 21V16.5H12.5625V21H11.4375Z" fill="#C1CBD5"/>
<path d="M3.75 20.2502C3.75 21.1502 4.35 21.7502 5.25 21.7502H18.75C19.65 21.7502 20.25 21.1502 20.25 20.2502V16.2002H3.75V20.2502ZM4.8 17.2502H19.05V20.2502C19.05 20.4002 18.9 20.5502 18.75 20.5502H5.25C5.1 20.5502 4.95 20.4002 4.95 20.2502L4.8 17.2502Z" fill="#2195E7"/>
<path d="M7.49961 12.75C4.49961 12.75 2.09961 10.35 2.09961 7.5C2.09961 4.5 4.49961 2.25 7.49961 2.25C10.3496 2.25 12.7496 4.5 12.7496 7.5C12.7496 10.35 10.3496 12.75 7.49961 12.75Z" fill="#F2F2F2"/>
<path fill-rule="evenodd" clip-rule="evenodd" d="M7.49961 2.625C4.69272 2.625 2.47461 4.72083 2.47461 7.5C2.47461 10.1361 4.69982 12.375 7.49961 12.375C10.1425 12.375 12.3746 10.1429 12.3746 7.5C12.3746 4.71407 10.1495 2.625 7.49961 2.625ZM1.72461 7.5C1.72461 4.27917 4.3065 1.875 7.49961 1.875C10.5497 1.875 13.1246 4.28593 13.1246 7.5C13.1246 10.5571 10.5567 13.125 7.49961 13.125C4.2994 13.125 1.72461 10.5639 1.72461 7.5Z" fill="#34495E"/>
<path d="M8.09922 4.6499H6.89922H5.69922V10.6499H6.89922V8.5499H8.09922C9.14922 8.5499 10.0492 7.6499 10.0492 6.5999C10.0492 5.5499 9.14922 4.6499 8.09922 4.6499ZM8.09922 7.4999H6.89922V5.6999H8.24922C8.69922 5.6999 9.14922 6.1499 9.14922 6.5999C9.14922 7.0499 8.69922 7.4999 8.09922 7.4999Z" fill="#34495E"/>
</svg>
