<svg width="24" height="24" viewBox="0 0 24 24" fill="none" xmlns="http://www.w3.org/2000/svg">
<path d="M19.5304 3.91528H9.52539C8.69696 3.91528 8.02539 4.58686 8.02539 5.41528V12.9153C8.02539 13.7437 8.69696 14.4153 9.52539 14.4153H19.5304C20.3588 14.4153 21.0304 13.7437 21.0304 12.9153V5.41528C21.0304 4.58686 20.3588 3.91528 19.5304 3.91528Z" fill="#C8FAFF"/>
<path fill-rule="evenodd" clip-rule="evenodd" d="M13.9883 14.4153V8.41528H15.1133V14.4153H13.9883Z" fill="#5997AB"/>
<path fill-rule="evenodd" clip-rule="evenodd" d="M13.9883 9.16528V3.91528H15.1133V9.16528H13.9883Z" fill="#5997AB"/>
<path d="M19.5004 5.04028C19.5998 5.04028 19.6952 5.07979 19.7656 5.15012C19.8359 5.22044 19.8754 5.31583 19.8754 5.41528V12.9153C19.8754 13.0147 19.8359 13.1101 19.7656 13.1804C19.6952 13.2508 19.5998 13.2903 19.5004 13.2903H9.52539C9.42593 13.2903 9.33055 13.2508 9.26023 13.1804C9.1899 13.1101 9.15039 13.0147 9.15039 12.9153V5.41528C9.15039 5.31583 9.1899 5.22044 9.26023 5.15012C9.33055 5.07979 9.42593 5.04028 9.52539 5.04028H19.5004ZM19.5004 3.91528H9.52539C9.12757 3.91528 8.74604 4.07332 8.46473 4.35462C8.18343 4.63593 8.02539 5.01746 8.02539 5.41528V12.9153C8.02539 13.3131 8.18343 13.6946 8.46473 13.9759C8.74604 14.2572 9.12757 14.4153 9.52539 14.4153H19.5004C19.8982 14.4153 20.2797 14.2572 20.5611 13.9759C20.8424 13.6946 21.0004 13.3131 21.0004 12.9153V5.41528C21.0004 5.01746 20.8424 4.63593 20.5611 4.35462C20.2797 4.07332 19.8982 3.91528 19.5004 3.91528Z" fill="#5997AB"/>
<path fill-rule="evenodd" clip-rule="evenodd" d="M8.77539 8.60278H20.2654V9.72778H8.77539V8.60278Z" fill="#5997AB"/>
<path d="M8.26563 12.8853H4.51562C3.6872 12.8853 3.01562 13.5568 3.01562 14.3853V18.5703C3.01562 19.3987 3.6872 20.0703 4.51562 20.0703H8.26563C9.09405 20.0703 9.76562 19.3987 9.76562 18.5703V14.3853C9.76562 13.5568 9.09405 12.8853 8.26563 12.8853Z" fill="#5997AB"/>
<path fill-rule="evenodd" clip-rule="evenodd" d="M7.7826 15.1165C8.00009 15.3383 7.99656 15.6944 7.77473 15.9119L5.47973 18.1619C5.25789 18.3794 4.90176 18.3759 4.68427 18.154C4.46679 17.9322 4.47031 17.5761 4.69215 17.3586L6.98715 15.1086C7.20898 14.8911 7.56512 14.8946 7.7826 15.1165Z" fill="#C8FAFF"/>
<path fill-rule="evenodd" clip-rule="evenodd" d="M7.38086 14.9478C7.69152 14.9478 7.94336 15.1996 7.94336 15.5103V17.7303C7.94336 18.0409 7.69152 18.2928 7.38086 18.2928C7.0702 18.2928 6.81836 18.0409 6.81836 17.7303V15.5103C6.81836 15.1996 7.0702 14.9478 7.38086 14.9478Z" fill="#C8FAFF"/>
<path fill-rule="evenodd" clip-rule="evenodd" d="M4.56856 15.4352C4.57684 15.1247 4.83531 14.8796 5.14586 14.8879L7.39586 14.9479C7.70641 14.9562 7.95145 15.2146 7.94317 15.5252C7.93488 15.8357 7.67642 16.0808 7.36587 16.0725L5.11587 16.0125C4.80532 16.0042 4.56028 15.7458 4.56856 15.4352Z" fill="#C8FAFF"/>
</svg>
