<svg width="24" height="24" viewBox="0 0 24 24" fill="none" xmlns="http://www.w3.org/2000/svg">
<path d="M19.5 8.625H4.5V18.375H19.5V8.625Z" fill="#F5F47E"/>
<path fill-rule="evenodd" clip-rule="evenodd" d="M3.9375 8.625C3.9375 8.31434 4.18934 8.0625 4.5 8.0625H19.5C19.8107 8.0625 20.0625 8.31434 20.0625 8.625V18.375C20.0625 18.6857 19.8107 18.9375 19.5 18.9375H4.5C4.18934 18.9375 3.9375 18.6857 3.9375 18.375V8.625ZM5.0625 9.1875V17.8125H18.9375V9.1875H5.0625Z" fill="#CAA524"/>
<path d="M12.75 8.625H4.5V5.625H10.785L12.75 7.02V8.625Z" fill="#F5F47E"/>
<path fill-rule="evenodd" clip-rule="evenodd" d="M3.9375 5.625C3.9375 5.31434 4.18934 5.0625 4.5 5.0625H10.785C10.9017 5.0625 11.0155 5.09879 11.1106 5.16633L13.0756 6.56133C13.2242 6.66682 13.3125 6.83777 13.3125 7.02V8.625C13.3125 8.93566 13.0607 9.1875 12.75 9.1875H4.5C4.18934 9.1875 3.9375 8.93566 3.9375 8.625V5.625ZM5.0625 6.1875V8.0625H12.1875V7.3105L10.6056 6.1875H5.0625Z" fill="#CAA524"/>
</svg>
