<svg width="24" height="24" viewBox="0 0 24 24" fill="none" xmlns="http://www.w3.org/2000/svg">
<path d="M18.75 4.5H5.25C4.42157 4.5 3.75 5.17157 3.75 6V18C3.75 18.8284 4.42157 19.5 5.25 19.5H18.75C19.5784 19.5 20.25 18.8284 20.25 18V6C20.25 5.17157 19.5784 4.5 18.75 4.5Z" fill="#F2F2F2"/>
<path d="M19.5 13.695H12.57V9H11.445V13.695H4.5V14.82H11.445V19.5H12.57V14.82H19.5V13.695Z" fill="#C1CBD5"/>
<path d="M18.75 4.5H5.25C4.85218 4.5 4.47064 4.65804 4.18934 4.93934C3.90804 5.22064 3.75 5.60218 3.75 6V18C3.75 18.3978 3.90804 18.7794 4.18934 19.0607C4.47064 19.342 4.85218 19.5 5.25 19.5H18.75C19.1478 19.5 19.5294 19.342 19.8107 19.0607C20.092 18.7794 20.25 18.3978 20.25 18V6C20.25 5.60218 20.092 5.22064 19.8107 4.93934C19.5294 4.65804 19.1478 4.5 18.75 4.5ZM18.75 5.625C18.8495 5.625 18.9448 5.66451 19.0152 5.73484C19.0855 5.80516 19.125 5.90054 19.125 6V9.18H12.57V5.625H18.75ZM5.25 5.625H11.43V9.18H4.875V6C4.875 5.90054 4.91451 5.80516 4.98484 5.73484C5.05516 5.66451 5.15054 5.625 5.25 5.625ZM18.75 18.375H5.25C5.15054 18.375 5.05516 18.3355 4.98484 18.2652C4.91451 18.1948 4.875 18.0995 4.875 18V10.32H19.125V18C19.125 18.0995 19.0855 18.1948 19.0152 18.2652C18.9448 18.3355 18.8495 18.375 18.75 18.375Z" fill="#2195E7"/>
<path d="M18.0005 12C16.8346 12 15.6948 11.6542 14.7254 11.0065C13.756 10.3587 13.0004 9.43805 12.5542 8.36088C12.108 7.28371 11.9913 6.09842 12.2187 4.95491C12.4462 3.81139 13.0076 2.761 13.8321 1.93657C14.6565 1.11214 15.7069 0.550694 16.8504 0.323234C17.9939 0.0957745 19.1792 0.212515 20.2564 0.658694C21.3336 1.10487 22.2542 1.86045 22.902 2.82988C23.5497 3.79931 23.8955 4.93904 23.8955 6.10496C23.8915 7.6672 23.2692 9.16431 22.1645 10.269C21.0598 11.3737 19.5627 11.996 18.0005 12Z" fill="#F2F2F2"/>
<path d="M17.9996 0.374975C19.127 0.374975 20.229 0.709274 21.1664 1.3356C22.1037 1.96192 22.8343 2.85214 23.2657 3.89368C23.6971 4.93522 23.81 6.0813 23.5901 7.18699C23.3702 8.29268 22.8273 9.30832 22.0301 10.1055C21.233 10.9026 20.2173 11.4455 19.1116 11.6655C18.0059 11.8854 16.8599 11.7725 15.8183 11.3411C14.7768 10.9097 13.8866 10.1791 13.2602 9.24172C12.6339 8.30437 12.2996 7.20233 12.2996 6.07498C12.2996 4.56324 12.9001 3.11342 13.9691 2.04447C14.4984 1.51517 15.1268 1.09531 15.8183 0.808861C16.5099 0.52241 17.2511 0.374975 17.9996 0.374975ZM17.9996 -2.51095e-05C16.795 -0.0148979 15.6132 0.328714 14.6043 0.987138C13.5955 1.64556 12.8052 2.58907 12.3339 3.69773C11.8625 4.8064 11.7315 6.03017 11.9573 7.21351C12.1832 8.39684 12.7558 9.4863 13.6023 10.3434C14.4489 11.2005 15.5311 11.7866 16.7116 12.0272C17.892 12.2677 19.1173 12.1519 20.2318 11.6944C21.3462 11.2368 22.2994 10.4583 22.9704 9.45773C23.6413 8.45714 23.9995 7.27967 23.9996 6.07498C24.0095 5.28076 23.8617 4.49247 23.5646 3.75584C23.2675 3.0192 22.8271 2.34889 22.269 1.78377C21.7108 1.21865 21.0461 0.769972 20.3132 0.463765C19.5803 0.157557 18.7939 -8.71652e-05 17.9996 -2.51095e-05Z" fill="#34495E"/>
<path d="M22.4089 5.565L20.0689 3.21C19.9279 3.093 19.7484 3.03284 19.5654 3.04131C19.3824 3.04979 19.2092 3.12628 19.0797 3.2558C18.9501 3.38533 18.8737 3.55855 18.8652 3.74153C18.8567 3.92451 18.9169 4.10406 19.0339 4.245L20.1289 5.34H15.7189L16.8139 4.245C16.9309 4.10406 16.991 3.92451 16.9826 3.74153C16.9741 3.55855 16.8976 3.38533 16.7681 3.2558C16.6385 3.12628 16.4653 3.04979 16.2823 3.04131C16.0994 3.03284 15.9198 3.093 15.7789 3.21L13.4989 5.565C13.4318 5.63189 13.3785 5.71138 13.3422 5.79889C13.3058 5.88641 13.2871 5.98024 13.2871 6.075C13.2871 6.16977 13.3058 6.2636 13.3422 6.35111C13.3785 6.43863 13.4318 6.51811 13.4989 6.585L15.7789 9C15.8442 9.07868 15.9252 9.14285 16.0167 9.18844C16.1082 9.23402 16.2083 9.26001 16.3104 9.26474C16.4125 9.26947 16.5145 9.25284 16.6099 9.2159C16.7052 9.17897 16.7918 9.12255 16.8641 9.05025C16.9364 8.97795 16.9928 8.89136 17.0298 8.79602C17.0667 8.70067 17.0833 8.59867 17.0786 8.49653C17.0739 8.3944 17.0479 8.29437 17.0023 8.20284C16.9567 8.11132 16.8925 8.03031 16.8139 7.965L15.7189 6.87H20.1289L19.0339 7.965C18.9552 8.03031 18.891 8.11132 18.8454 8.20284C18.7999 8.29437 18.7739 8.3944 18.7691 8.49653C18.7644 8.59867 18.781 8.70067 18.818 8.79602C18.8549 8.89136 18.9113 8.97795 18.9836 9.05025C19.0559 9.12255 19.1425 9.17897 19.2379 9.2159C19.3332 9.25284 19.4352 9.26947 19.5373 9.26474C19.6395 9.26001 19.7395 9.23402 19.831 9.18844C19.9226 9.14285 20.0036 9.07868 20.0689 9L22.4089 6.645C22.476 6.57811 22.5293 6.49863 22.5656 6.41111C22.6019 6.3236 22.6206 6.22977 22.6206 6.135C22.6206 6.04024 22.6019 5.94641 22.5656 5.8589C22.5293 5.77138 22.476 5.69189 22.4089 5.625V5.565Z" fill="#34495E"/>
</svg>
