<svg width="24" height="24" viewBox="0 0 24 24" fill="none" xmlns="http://www.w3.org/2000/svg">
<path d="M18.75 4.5H5.25C4.42157 4.5 3.75 5.17157 3.75 6V18C3.75 18.8284 4.42157 19.5 5.25 19.5H18.75C19.5784 19.5 20.25 18.8284 20.25 18V6C20.25 5.17157 19.5784 4.5 18.75 4.5Z" fill="#F2F2F2"/>
<path d="M19.5 13.695H12.57V9H11.445V13.695H4.5V14.82H11.445V19.5H12.57V14.82H19.5V13.695Z" fill="#C1CBD5"/>
<path d="M18.75 4.5H5.25C4.85218 4.5 4.47064 4.65804 4.18934 4.93934C3.90804 5.22064 3.75 5.60218 3.75 6V18C3.75 18.3978 3.90804 18.7794 4.18934 19.0607C4.47064 19.342 4.85218 19.5 5.25 19.5H18.75C19.1478 19.5 19.5294 19.342 19.8107 19.0607C20.092 18.7794 20.25 18.3978 20.25 18V6C20.25 5.60218 20.092 5.22064 19.8107 4.93934C19.5294 4.65804 19.1478 4.5 18.75 4.5ZM18.75 5.625C18.8495 5.625 18.9448 5.66451 19.0152 5.73484C19.0855 5.80516 19.125 5.90054 19.125 6V9.18H12.57V5.625H18.75ZM5.25 5.625H11.43V9.18H4.875V6C4.875 5.90054 4.91451 5.80516 4.98484 5.73484C5.05516 5.66451 5.15054 5.625 5.25 5.625ZM18.75 18.375H5.25C5.15054 18.375 5.05516 18.3355 4.98484 18.2652C4.91451 18.1948 4.875 18.0995 4.875 18V10.32H19.125V18C19.125 18.0995 19.0855 18.1948 19.0152 18.2652C18.9448 18.3355 18.8495 18.375 18.75 18.375Z" fill="#2195E7"/>
<path d="M18.0005 12C16.8346 12 15.6948 11.6542 14.7254 11.0065C13.756 10.3587 13.0004 9.43805 12.5542 8.36088C12.108 7.28371 11.9913 6.09842 12.2187 4.95491C12.4462 3.81139 13.0076 2.761 13.8321 1.93657C14.6565 1.11214 15.7069 0.550694 16.8504 0.323234C17.9939 0.0957745 19.1792 0.212515 20.2564 0.658694C21.3336 1.10487 22.2542 1.86045 22.902 2.82988C23.5497 3.79931 23.8955 4.93904 23.8955 6.10496C23.8915 7.6672 23.2692 9.16431 22.1645 10.269C21.0598 11.3737 19.5627 11.996 18.0005 12Z" fill="#F2F2F2"/>
<path d="M17.9996 0.374975C19.127 0.374975 20.229 0.709274 21.1664 1.3356C22.1037 1.96192 22.8343 2.85214 23.2657 3.89368C23.6971 4.93522 23.81 6.0813 23.5901 7.18699C23.3702 8.29268 22.8273 9.30832 22.0301 10.1055C21.233 10.9026 20.2173 11.4455 19.1116 11.6655C18.0059 11.8854 16.8599 11.7725 15.8183 11.3411C14.7768 10.9097 13.8866 10.1791 13.2602 9.24172C12.6339 8.30437 12.2996 7.20233 12.2996 6.07498C12.2996 4.56324 12.9001 3.11342 13.9691 2.04447C14.4984 1.51517 15.1268 1.09531 15.8183 0.808861C16.5099 0.52241 17.2511 0.374975 17.9996 0.374975ZM17.9996 -2.51095e-05C16.795 -0.0148979 15.6132 0.328714 14.6043 0.987138C13.5955 1.64556 12.8052 2.58907 12.3339 3.69773C11.8625 4.8064 11.7315 6.03017 11.9573 7.21351C12.1832 8.39684 12.7558 9.4863 13.6023 10.3434C14.4489 11.2005 15.5311 11.7866 16.7116 12.0272C17.892 12.2677 19.1173 12.1519 20.2318 11.6944C21.3462 11.2368 22.2994 10.4583 22.9704 9.45773C23.6413 8.45714 23.9995 7.27967 23.9996 6.07498C24.0095 5.28076 23.8617 4.49247 23.5646 3.75584C23.2675 3.0192 22.8271 2.34889 22.269 1.78377C21.7108 1.21865 21.0461 0.769972 20.3132 0.463765C19.5803 0.157557 18.7939 -8.71652e-05 17.9996 -2.51095e-05Z" fill="#34495E"/>
<path d="M17.6545 2.8949C17.5042 3.04658 17.42 3.25142 17.42 3.4649C17.42 3.67838 17.5042 3.88323 17.6545 4.0349L18.8845 5.2649H14.9995C14.7846 5.2649 14.5786 5.35024 14.4267 5.50214C14.2748 5.65405 14.1895 5.86007 14.1895 6.0749C14.1895 6.28973 14.2748 6.49575 14.4267 6.64766C14.5786 6.79956 14.7846 6.8849 14.9995 6.8849H18.8695L17.6395 8.1149C17.5521 8.18663 17.4806 8.27586 17.4298 8.37685C17.379 8.47785 17.3498 8.58836 17.3443 8.70129C17.3388 8.81422 17.3569 8.92706 17.3976 9.03254C17.4383 9.13803 17.5006 9.23383 17.5806 9.31378C17.6605 9.39373 17.7563 9.45605 17.8618 9.49675C17.9673 9.53744 18.0801 9.55559 18.1931 9.55005C18.306 9.5445 18.4165 9.51538 18.5175 9.46454C18.6185 9.41371 18.7077 9.3423 18.7795 9.2549L21.3895 6.6449C21.4657 6.57081 21.5262 6.48219 21.5676 6.38429C21.609 6.28639 21.6303 6.18118 21.6303 6.0749C21.6303 5.96862 21.609 5.86341 21.5676 5.76551C21.5262 5.66761 21.4657 5.57899 21.3895 5.5049L18.7945 2.8949C18.6428 2.74468 18.4379 2.6604 18.2245 2.6604C18.011 2.6604 17.8061 2.74468 17.6545 2.8949Z" fill="#34495E"/>
</svg>
