<svg width="24" height="24" viewBox="0 0 24 24" fill="none" xmlns="http://www.w3.org/2000/svg">
<path d="M9 3.375H4.5C3.67157 3.375 3 4.04657 3 4.875V9.375C3 10.2034 3.67157 10.875 4.5 10.875H9C9.82843 10.875 10.5 10.2034 10.5 9.375V4.875C10.5 4.04657 9.82843 3.375 9 3.375Z" fill="#DEF4FD"/>
<path fill-rule="evenodd" clip-rule="evenodd" d="M6.1875 10.875V6.375H7.3125V10.875H6.1875Z" fill="#C1CBD5"/>
<path fill-rule="evenodd" clip-rule="evenodd" d="M6.1875 7.125V3.375H7.3125V7.125H6.1875Z" fill="#2195E7"/>
<path d="M9 4.5C9.09946 4.5 9.19484 4.53951 9.26517 4.60984C9.33549 4.68016 9.375 4.77554 9.375 4.875V9.375C9.375 9.47446 9.33549 9.56984 9.26517 9.64017C9.19484 9.71049 9.09946 9.75 9 9.75H4.5C4.40054 9.75 4.30516 9.71049 4.23484 9.64017C4.16451 9.56984 4.125 9.47446 4.125 9.375V4.875C4.125 4.77554 4.16451 4.68016 4.23484 4.60984C4.30516 4.53951 4.40054 4.5 4.5 4.5H9ZM9 3.375H4.5C4.10218 3.375 3.72064 3.53304 3.43934 3.81434C3.15804 4.09564 3 4.47718 3 4.875V9.375C3 9.77282 3.15804 10.1544 3.43934 10.4357C3.72064 10.717 4.10218 10.875 4.5 10.875H9C9.39782 10.875 9.77936 10.717 10.0607 10.4357C10.342 10.1544 10.5 9.77282 10.5 9.375V4.875C10.5 4.47718 10.342 4.09564 10.0607 3.81434C9.77936 3.53304 9.39782 3.375 9 3.375Z" fill="#2195E7"/>
<path fill-rule="evenodd" clip-rule="evenodd" d="M3.75 6.5625H9.75V7.6875H3.75V6.5625Z" fill="#2195E7"/>
<path d="M19.5156 13.125H15.0156C14.1872 13.125 13.5156 13.7966 13.5156 14.625V19.125C13.5156 19.9534 14.1872 20.625 15.0156 20.625H19.5156C20.3441 20.625 21.0156 19.9534 21.0156 19.125V14.625C21.0156 13.7966 20.3441 13.125 19.5156 13.125Z" fill="#DEF4FD"/>
<path fill-rule="evenodd" clip-rule="evenodd" d="M16.7031 20.625V16.125H17.8281V20.625H16.7031Z" fill="#C1CBD5"/>
<path fill-rule="evenodd" clip-rule="evenodd" d="M16.7031 16.875V13.125H17.8281V16.875H16.7031Z" fill="#2195E7"/>
<path d="M19.5 14.25C19.5995 14.25 19.6948 14.2895 19.7652 14.3598C19.8355 14.4302 19.875 14.5255 19.875 14.625V19.125C19.875 19.2245 19.8355 19.3198 19.7652 19.3902C19.6948 19.4605 19.5995 19.5 19.5 19.5H15C14.9005 19.5 14.8052 19.4605 14.7348 19.3902C14.6645 19.3198 14.625 19.2245 14.625 19.125V14.625C14.625 14.5255 14.6645 14.4302 14.7348 14.3598C14.8052 14.2895 14.9005 14.25 15 14.25H19.5ZM19.5 13.125H15C14.6022 13.125 14.2206 13.283 13.9393 13.5643C13.658 13.8456 13.5 14.2272 13.5 14.625V19.125C13.5 19.5228 13.658 19.9044 13.9393 20.1857C14.2206 20.467 14.6022 20.625 15 20.625H19.5C19.8978 20.625 20.2794 20.467 20.5607 20.1857C20.842 19.9044 21 19.5228 21 19.125V14.625C21 14.2272 20.842 13.8456 20.5607 13.5643C20.2794 13.283 19.8978 13.125 19.5 13.125Z" fill="#2195E7"/>
<path fill-rule="evenodd" clip-rule="evenodd" d="M14.2656 16.3125H20.2656V17.4375H14.2656V16.3125Z" fill="#2195E7"/>
<path d="M11.3698 17.1302L9.83984 18.6002L9.89984 15.6152L11.3698 17.1302Z" fill="#2980B9"/>
<path fill-rule="evenodd" clip-rule="evenodd" d="M9.69376 15.0916C9.90497 15.0085 10.1455 15.0604 10.3035 15.2233L11.7735 16.7383C11.8778 16.8457 11.9349 16.9902 11.9323 17.1399C11.9296 17.2895 11.8675 17.4319 11.7596 17.5356L10.2296 19.0056C10.0655 19.1633 9.82262 19.2065 9.61421 19.1153C9.4058 19.024 9.27289 18.8162 9.27746 18.5887L9.33746 15.6037C9.34202 15.3768 9.48255 15.1748 9.69376 15.0916ZM10.4351 16.9744L10.4295 17.2534L10.5725 17.116L10.4351 16.9744Z" fill="#354A5F"/>
<path fill-rule="evenodd" clip-rule="evenodd" d="M6.77115 12.0661C7.05791 12.1856 7.19352 12.5149 7.07403 12.8017C6.53572 14.0936 6.73532 15.1923 7.3104 15.851C7.87825 16.5014 8.94132 16.8683 10.4461 16.4257C10.7441 16.338 11.0568 16.5086 11.1444 16.8066C11.2321 17.1047 11.0616 17.4173 10.7635 17.505C8.95329 18.0374 7.39135 17.6543 6.46295 16.5909C5.54178 15.5359 5.37388 13.9571 6.03557 12.369C6.15506 12.0822 6.48439 11.9466 6.77115 12.0661Z" fill="#354A5F"/>
</svg>
