<svg width="24" height="24" viewBox="0 0 24 24" fill="none" xmlns="http://www.w3.org/2000/svg">
<path fill-rule="evenodd" clip-rule="evenodd" d="M4.05078 12C4.05078 11.1716 4.72235 10.5 5.55078 10.5H12.1658C12.9942 10.5 13.6658 11.1716 13.6658 12C13.6658 12.8284 12.9942 13.5 12.1658 13.5H5.55078C4.72235 13.5 4.05078 12.8284 4.05078 12Z" fill="#2F91A3"/>
<path d="M18.4499 12.1052L12.0449 18.3002L12.2699 5.7002L18.4499 12.1052Z" fill="#2F91A3"/>
<path fill-rule="evenodd" clip-rule="evenodd" d="M11.9953 5.00229C12.2776 4.89123 12.599 4.96115 12.8096 5.17945L18.9896 11.5845C19.277 11.8823 19.2688 12.3566 18.9713 12.6443L12.5663 18.8393C12.3482 19.0503 12.0244 19.109 11.746 18.9881C11.4676 18.8671 11.2896 18.5903 11.295 18.2868L11.52 5.68683C11.5255 5.38353 11.713 5.11336 11.9953 5.00229ZM12.9875 7.52404L12.8272 16.5002L17.3901 12.0869L12.9875 7.52404Z" fill="#2F91A3"/>
</svg>
