<svg width="24" height="24" viewBox="0 0 24 24" fill="none" xmlns="http://www.w3.org/2000/svg">
<path d="M16.125 4.46997H5.625C4.79657 4.46997 4.125 5.14154 4.125 5.96997V16.47C4.125 17.2984 4.79657 17.97 5.625 17.97H16.125C16.9534 17.97 17.625 17.2984 17.625 16.47V5.96997C17.625 5.14154 16.9534 4.46997 16.125 4.46997Z" fill="#EDFFFD"/>
<path d="M18.3602 18.0147L15.6602 20.6247L15.7502 15.3147L18.3602 18.0147Z" fill="#2F91A3"/>
<path fill-rule="evenodd" clip-rule="evenodd" d="M15.5437 14.7915C15.7554 14.708 15.9965 14.7602 16.1546 14.9238L18.7646 17.6238C18.9805 17.8471 18.9745 18.2032 18.7511 18.4191L16.0511 21.0291C15.8875 21.1873 15.6448 21.2313 15.4361 21.1407C15.2274 21.0501 15.0939 20.8427 15.0977 20.6152L15.1877 15.3052C15.1916 15.0777 15.3321 14.8749 15.5437 14.7915ZM16.2896 16.682L16.2456 19.2764L17.5648 18.0012L16.2896 16.682Z" fill="#2F91A3"/>
<path fill-rule="evenodd" clip-rule="evenodd" d="M5.82065 3.9375H15.9504C16.5355 3.94247 17.0957 4.17439 17.5131 4.58433C17.9305 4.99427 18.1724 5.55025 18.188 6.13509L18.1883 6.15L18.1881 9.45C18.1881 9.76066 17.9363 10.0125 17.6256 10.0125C17.315 10.0125 17.0631 9.76066 17.0631 9.45V6.15822C17.0537 5.86728 16.9326 5.59105 16.7248 5.38696C16.5159 5.18181 16.2357 5.06554 15.943 5.0625H5.82328C5.53057 5.06554 5.25038 5.18181 5.0415 5.38696C4.8337 5.59104 4.71259 5.86728 4.70315 6.15821V16.3173C4.70634 16.6134 4.82537 16.8964 5.03478 17.1059C5.24421 17.3153 5.52731 17.4343 5.82341 17.4375H15.9456C16.2563 17.4375 16.5081 17.6893 16.5081 18C16.5081 18.3107 16.2563 18.5625 15.9456 18.5625H5.81569C5.22388 18.5573 4.65778 18.3198 4.23929 17.9014C3.8208 17.4829 3.58338 16.9168 3.57817 16.325L3.57812 16.32L3.57815 6.13508C3.59366 5.55024 3.8358 4.99427 4.2532 4.58433C4.6706 4.17439 5.23085 3.94249 5.81587 3.93752L5.82065 3.9375Z" fill="#2F91A3"/>
<path fill-rule="evenodd" clip-rule="evenodd" d="M20.6705 2.5795C21.1098 3.01884 21.1098 3.73116 20.6705 4.1705L16.1705 8.6705C15.7312 9.10984 15.0188 9.10984 14.5795 8.6705C14.1402 8.23116 14.1402 7.51884 14.5795 7.0795L19.0795 2.5795C19.5188 2.14017 20.2312 2.14017 20.6705 2.5795Z" fill="#D0021B"/>
<path fill-rule="evenodd" clip-rule="evenodd" d="M14.5795 2.5795C15.0188 2.14017 15.7312 2.14017 16.1705 2.5795L20.6705 7.0795C21.1098 7.51884 21.1098 8.23116 20.6705 8.6705C20.2312 9.10984 19.5188 9.10984 19.0795 8.6705L14.5795 4.1705C14.1402 3.73116 14.1402 3.01884 14.5795 2.5795Z" fill="#D0021B"/>
</svg>
