<svg width="24" height="24" viewBox="0 0 24 24" fill="none" xmlns="http://www.w3.org/2000/svg">
<path d="M16.3795 20.1301C16.7632 20.1752 17.1515 20.1016 17.4921 19.9192C17.8327 19.7368 18.1092 19.4544 18.2845 19.1101C18.646 18.4162 18.8265 17.6423 18.8095 16.8601V15.8101L19.0945 13.5001L19.7695 12.6601L21.4645 11.8201H19.7545L20.9095 11.6101L19.1545 10.3051L19.0495 9.42008V7.86008L18.8095 5.62508L18.1045 4.81508L16.9795 4.32008H16.3795L7.27445 4.08008L5.99945 4.99508L5.18945 5.67008V6.58508L5.32445 6.33008L5.03945 9.33008L5.17445 10.3801L2.89445 11.8801L2.56445 12.1651L2.89445 11.8801L4.39445 12.9601L4.49945 13.5001L5.36945 15.7801V16.7701V17.4601V16.2601V16.8451L5.69945 18.3451L6.22445 19.0801L7.16945 19.6351L7.91945 20.1301H16.3795Z" fill="#EDFFFD"/>
<path d="M19.9186 12.3902C20.0916 12.2994 20.2723 12.2241 20.4586 12.1652C20.633 12.0933 20.8138 12.0381 20.9986 12.0002C21.1486 12.0002 21.1486 11.9252 20.9986 11.8952C20.8309 11.8742 20.6653 11.8391 20.5036 11.7902C20.3167 11.733 20.1358 11.6576 19.9636 11.5652C19.7746 11.4621 19.6026 11.3306 19.4536 11.1752C19.309 11.0295 19.1876 10.8626 19.0936 10.6802C18.9879 10.4626 18.917 10.2298 18.8836 9.99019C18.8123 9.66377 18.7622 9.33308 18.7336 9.00019C18.7336 8.61019 18.7336 8.11019 18.7336 7.50019V7.80019C18.7336 7.41019 18.7336 7.00519 18.7336 6.58519C18.7046 6.17676 18.5923 5.77859 18.4036 5.41519C18.196 5.04025 17.89 4.72908 17.5186 4.5152C16.9904 4.24037 16.404 4.09633 15.8086 4.0952V3.8252H16.2586C16.4457 3.83998 16.6314 3.87008 16.8136 3.9152C17.0181 3.96528 17.2187 4.03045 17.4136 4.1102C17.6266 4.21096 17.8237 4.34235 17.9986 4.5002C18.2729 4.70546 18.5069 4.95974 18.6886 5.2502C18.8551 5.52407 18.9766 5.82286 19.0486 6.1352C19.1273 6.49017 19.1725 6.85176 19.1836 7.21519C19.1836 7.60519 19.1836 8.71519 19.1836 8.71519C19.1791 9.13258 19.2142 9.54946 19.2886 9.96019C19.3434 10.2829 19.4774 10.587 19.6786 10.8452C19.9012 11.1124 20.1839 11.3231 20.5036 11.4602C20.5874 11.511 20.6567 11.5825 20.7048 11.6679C20.7529 11.7533 20.7782 11.8497 20.7782 11.9477C20.7782 12.0457 20.7529 12.1421 20.7048 12.2275C20.6567 12.3129 20.5874 12.3844 20.5036 12.4352C20.0836 12.6452 19.7386 12.4802 19.9186 12.3902Z" fill="#34495E" stroke="#2F91A3" stroke-width="0.8" stroke-miterlimit="10"/>
<path d="M8.36977 4.19987C7.77422 4.19983 7.18752 4.34393 6.65977 4.61987C6.28789 4.83314 5.98176 5.14447 5.77477 5.51987C5.58607 5.88327 5.47377 6.28144 5.44477 6.68987C5.44477 7.10987 5.44477 7.51487 5.44477 7.90487V7.60487C5.44477 8.17487 5.44477 8.65487 5.44477 9.10487C5.4367 9.44148 5.40664 9.77719 5.35477 10.1099C5.32157 10.3495 5.25069 10.5824 5.14477 10.7999C5.05115 10.9825 4.9297 11.1495 4.78477 11.2949C4.63576 11.4502 4.46375 11.5818 4.27477 11.6849C4.10175 11.7756 3.92104 11.8509 3.73477 11.9099C3.5481 11.9581 3.35722 11.9883 3.16477 11.9999C2.99977 11.9999 2.99977 11.9999 3.16477 11.9999C3.33243 12.0209 3.49802 12.056 3.65977 12.1049C3.84667 12.1621 4.02753 12.2375 4.19977 12.3299C4.38875 12.433 4.56076 12.5645 4.70977 12.7199C4.85433 12.8655 4.97574 13.0325 5.06977 13.2149C5.17546 13.4325 5.24633 13.6653 5.27977 13.9049C5.33155 14.2376 5.36161 14.5733 5.36977 14.9099C5.36977 15.2999 5.36977 15.7999 5.36977 16.4099V16.1099C5.36977 16.4999 5.36977 16.9049 5.36977 17.3249C5.39877 17.7333 5.51107 18.1315 5.69977 18.4949C5.90738 18.8698 6.21337 19.181 6.58477 19.3949C7.11294 19.6697 7.69937 19.8137 8.29477 19.8149V20.1749H7.84477C7.65762 20.1601 7.472 20.13 7.28977 20.0849C7.08522 20.0348 6.88467 19.9696 6.68977 19.8899C6.50317 19.7831 6.33165 19.652 6.17977 19.4999C5.90544 19.2946 5.67149 19.0403 5.48977 18.7499C5.32326 18.476 5.20172 18.1772 5.12977 17.8649C5.05104 17.5099 5.00584 17.1483 4.99477 16.7849C4.99477 16.3949 4.99477 15.2849 4.99477 15.2849C4.9993 14.8675 4.96415 14.4506 4.88977 14.0399C4.84473 13.6962 4.71025 13.3703 4.49977 13.0949C4.27712 12.8277 3.99442 12.6169 3.67477 12.4799C3.59094 12.4291 3.52162 12.3575 3.47352 12.2721C3.42541 12.1867 3.40014 12.0904 3.40014 11.9924C3.40014 11.8944 3.42541 11.798 3.47352 11.7126C3.52162 11.6272 3.59094 11.5557 3.67477 11.5049C3.99261 11.3716 4.27507 11.1662 4.49977 10.9049C4.70038 10.6463 4.83432 10.3424 4.88977 10.0199C4.96415 9.60914 4.9993 9.19226 4.99477 8.77487C4.99477 8.77487 5.06977 6.46487 5.14477 6.13487C5.21672 5.82254 5.33826 5.52375 5.50477 5.24987C5.68177 4.96052 5.91059 4.70627 6.17977 4.49987C6.35754 4.35789 6.55449 4.24174 6.76477 4.15487C6.95996 4.07592 7.16045 4.01076 7.36477 3.95987C7.54715 3.91551 7.73271 3.88542 7.91977 3.86987H8.36977V4.19987Z" fill="#34495E" stroke="#2F91A3" stroke-width="0.8" stroke-miterlimit="10"/>
<path fill-rule="evenodd" clip-rule="evenodd" d="M8.79688 8.11548C8.79688 7.80482 9.04871 7.55298 9.35938 7.55298H14.9844C15.295 7.55298 15.5469 7.80482 15.5469 8.11548C15.5469 8.42614 15.295 8.67798 14.9844 8.67798H9.35938C9.04871 8.67798 8.79688 8.42614 8.79688 8.11548Z" fill="#2F91A3"/>
<path fill-rule="evenodd" clip-rule="evenodd" d="M8.79688 11.8655C8.79688 11.5548 9.04871 11.303 9.35938 11.303H14.9844C15.295 11.303 15.5469 11.5548 15.5469 11.8655C15.5469 12.1761 15.295 12.428 14.9844 12.428H9.35938C9.04871 12.428 8.79688 12.1761 8.79688 11.8655Z" fill="#2F91A3"/>
<path fill-rule="evenodd" clip-rule="evenodd" d="M8.79688 15.6155C8.79688 15.3048 9.04871 15.053 9.35938 15.053H14.9844C15.295 15.053 15.5469 15.3048 15.5469 15.6155C15.5469 15.9261 15.295 16.178 14.9844 16.178H9.35938C9.04871 16.178 8.79688 15.9261 8.79688 15.6155Z" fill="#2F91A3"/>
<path fill-rule="evenodd" clip-rule="evenodd" d="M15.0293 17.8052C15.0293 17.391 15.3651 17.0552 15.7793 17.0552H19.3043C19.7185 17.0552 20.0543 17.391 20.0543 17.8052C20.0543 18.2194 19.7185 18.5552 19.3043 18.5552H15.7793C15.3651 18.5552 15.0293 18.2194 15.0293 17.8052Z" fill="#2F91A3"/>
<path d="M20.399 17.8349L18.209 19.9499L18.284 15.6599L20.399 17.8349Z" fill="#2980B9"/>
<path fill-rule="evenodd" clip-rule="evenodd" d="M18.0079 14.9624C18.2895 14.8509 18.6105 14.9197 18.8217 15.1368L20.9367 17.3118C21.0757 17.4548 21.152 17.6471 21.1489 17.8465C21.1458 18.0458 21.0634 18.2357 20.92 18.3742L18.73 20.4892C18.5118 20.6999 18.1881 20.7584 17.9099 20.6375C17.6317 20.5165 17.4538 20.2399 17.4591 19.9366L17.5341 15.6466C17.5394 15.3438 17.7263 15.0738 18.0079 14.9624ZM19.0024 17.4743L18.9905 18.1523L19.3366 17.818L19.0024 17.4743Z" fill="#2F91A3"/>
</svg>
