<svg width="24" height="24" viewBox="0 0 24 24" fill="none" xmlns="http://www.w3.org/2000/svg">
<path fill-rule="evenodd" clip-rule="evenodd" d="M4.00586 12.9751C4.00586 12.1467 4.67743 11.4751 5.50586 11.4751H12.1209C12.9493 11.4751 13.6209 12.1467 13.6209 12.9751C13.6209 13.8035 12.9493 14.4751 12.1209 14.4751H5.50586C4.67743 14.4751 4.00586 13.8035 4.00586 12.9751Z" fill="#2F91A3"/>
<path d="M18.4206 13.0803L12.0156 19.2753L12.2256 6.67529L18.4206 13.0803Z" fill="#2F91A3"/>
<path fill-rule="evenodd" clip-rule="evenodd" d="M11.9502 5.97772C12.2324 5.86632 12.5538 5.93586 12.7647 6.1539L18.9597 12.5589C19.2477 12.8566 19.2398 13.3314 18.942 13.6194L12.537 19.8144C12.319 20.0253 11.9954 20.0841 11.7171 19.9633C11.4388 19.8426 11.2607 19.5661 11.2657 19.2628L11.4757 6.66282C11.4808 6.35951 11.668 6.08912 11.9502 5.97772ZM12.9453 8.49822L12.7957 17.4774L17.3601 13.0626L12.9453 8.49822Z" fill="#2F91A3"/>
<path fill-rule="evenodd" clip-rule="evenodd" d="M19.2916 3.9296C19.7309 4.36894 19.7309 5.08125 19.2916 5.52059L14.7916 10.0206C14.3522 10.4599 13.6399 10.4599 13.2006 10.0206C12.7613 9.58125 12.7613 8.86894 13.2006 8.4296L17.7006 3.9296C18.1399 3.49026 18.8522 3.49026 19.2916 3.9296Z" fill="#D0021B"/>
<path fill-rule="evenodd" clip-rule="evenodd" d="M13.2006 3.9296C13.6399 3.49026 14.3522 3.49026 14.7916 3.9296L19.2916 8.4296C19.7309 8.86894 19.7309 9.58125 19.2916 10.0206C18.8522 10.4599 18.1399 10.4599 17.7006 10.0206L13.2006 5.52059C12.7613 5.08125 12.7613 4.36894 13.2006 3.9296Z" fill="#D0021B"/>
</svg>
