<svg width="24" height="24" viewBox="0 0 24 24" fill="none" xmlns="http://www.w3.org/2000/svg">
<path d="M5.85008 5.20508H18.1351C18.3101 5.20508 18.478 5.27461 18.6018 5.39839C18.7255 5.52216 18.7951 5.69004 18.7951 5.86508V18.1501C18.7951 18.3211 18.7271 18.4852 18.6062 18.6062C18.4852 18.7271 18.3211 18.7951 18.1501 18.7951H5.86508C5.69004 18.7951 5.52216 18.7255 5.39839 18.6018C5.27461 18.478 5.20508 18.3101 5.20508 18.1351V5.85008C5.20508 5.67901 5.27303 5.51496 5.39399 5.39399C5.51496 5.27303 5.67901 5.20508 5.85008 5.20508Z" fill="#D6FFEA"/>
<path d="M18.1498 5.7749C18.1736 5.7749 18.1965 5.78438 18.2134 5.80126C18.2303 5.81814 18.2398 5.84103 18.2398 5.8649V18.1499C18.2398 18.1738 18.2303 18.1967 18.2134 18.2135C18.1965 18.2304 18.1736 18.2399 18.1498 18.2399H5.84977C5.8259 18.2399 5.803 18.2304 5.78613 18.2135C5.76925 18.1967 5.75977 18.1738 5.75977 18.1499V5.8649C5.75977 5.84103 5.76925 5.81814 5.78613 5.80126C5.803 5.78438 5.8259 5.7749 5.84977 5.7749H18.1498ZM18.1498 4.6499H5.84977C5.52753 4.6499 5.21849 4.77791 4.99063 5.00577C4.76277 5.23362 4.63477 5.54266 4.63477 5.8649V18.1499C4.63477 18.4721 4.76277 18.7812 4.99063 19.009C5.21849 19.2369 5.52753 19.3649 5.84977 19.3649H18.1498C18.472 19.3649 18.781 19.2369 19.0089 19.009C19.2368 18.7812 19.3648 18.4721 19.3648 18.1499V5.8649C19.3648 5.54266 19.2368 5.23362 19.0089 5.00577C18.781 4.77791 18.472 4.6499 18.1498 4.6499Z" fill="#5ACB9A"/>
</svg>
