<svg width="24" height="24" viewBox="0 0 24 24" fill="none" xmlns="http://www.w3.org/2000/svg">
<path d="M12.0004 20.0999C16.4739 20.0999 20.1004 16.4734 20.1004 11.9999C20.1004 7.5264 16.4739 3.8999 12.0004 3.8999C7.52688 3.8999 3.90039 7.5264 3.90039 11.9999C3.90039 16.4734 7.52688 20.0999 12.0004 20.0999Z" fill="#CBE7F6"/>
<path fill-rule="evenodd" clip-rule="evenodd" d="M12.0004 4.4624C7.83754 4.4624 4.46289 7.83706 4.46289 11.9999C4.46289 16.1627 7.83754 19.5374 12.0004 19.5374C16.1632 19.5374 19.5379 16.1627 19.5379 11.9999C19.5379 7.83706 16.1632 4.4624 12.0004 4.4624ZM3.33789 11.9999C3.33789 7.21574 7.21622 3.3374 12.0004 3.3374C16.7846 3.3374 20.6629 7.21574 20.6629 11.9999C20.6629 16.7841 16.7846 20.6624 12.0004 20.6624C7.21622 20.6624 3.33789 16.7841 3.33789 11.9999Z" fill="#2C66BD"/>
<path d="M14.1602 13.7549H10.2109V13.3389C10.3281 13.3311 10.5098 13.3154 10.7559 13.292C11.0059 13.2646 11.1777 13.2373 11.2715 13.21C11.3926 13.1709 11.4844 13.1084 11.5469 13.0225C11.6133 12.9326 11.6465 12.7998 11.6465 12.624V8.51074H10.1875V8.01855H10.5098C10.9316 8.01855 11.3086 7.94043 11.6406 7.78418C11.9766 7.62793 12.2168 7.45996 12.3613 7.28027H12.8477C12.8359 7.53418 12.8242 7.83105 12.8125 8.1709C12.8008 8.51074 12.7949 8.81543 12.7949 9.08496V12.5596C12.7949 12.6963 12.8242 12.8193 12.8828 12.9287C12.9453 13.0342 13.0332 13.1123 13.1465 13.1631C13.248 13.2061 13.4141 13.2451 13.6445 13.2803C13.875 13.3154 14.0469 13.335 14.1602 13.3389V13.7549Z" fill="#2C66BD"/>
<path fill-rule="evenodd" clip-rule="evenodd" d="M11.923 6.92772C12.0298 6.79498 12.191 6.71777 12.3613 6.71777H12.8477C13.0013 6.71777 13.1483 6.78065 13.2545 6.8918C13.3606 7.00295 13.4166 7.15269 13.4096 7.30621C13.398 7.55735 13.3863 7.85195 13.3747 8.19028C13.3631 8.52525 13.3574 8.8233 13.3574 9.08496V12.5596C13.3574 12.6005 13.3637 12.6278 13.3713 12.6472C13.3715 12.6473 13.3718 12.6475 13.3721 12.6476C13.4114 12.6626 13.5186 12.6921 13.7294 12.7242C13.9558 12.7587 14.1007 12.774 14.1795 12.7767C14.4825 12.7871 14.7227 13.0357 14.7227 13.3389V13.7549C14.7227 14.0655 14.4708 14.3174 14.1602 14.3174H10.2109C9.90028 14.3174 9.64844 14.0655 9.64844 13.7549V13.3389C9.64844 13.0427 9.87804 12.7973 10.1735 12.7776C10.2817 12.7704 10.4554 12.7555 10.6985 12.7324C10.9015 12.7101 11.0221 12.6906 11.0819 12.6778C11.0831 12.6635 11.084 12.6458 11.084 12.624V9.07324H10.1875C9.87684 9.07324 9.625 8.8214 9.625 8.51074V8.01855C9.625 7.70789 9.87684 7.45605 10.1875 7.45605H10.5098C10.8612 7.45605 11.1544 7.3913 11.4011 7.27522L11.4034 7.27414L11.4034 7.27415C11.7034 7.13464 11.8557 7.01146 11.923 6.92772ZM12.1026 8.18148C12.1695 8.27404 12.209 8.38779 12.209 8.51074V12.624C12.209 12.8023 12.1846 13.0047 12.0968 13.1924H12.3859C12.28 12.9938 12.2324 12.7786 12.2324 12.5596V9.08496C12.2324 8.80756 12.2384 8.49623 12.2503 8.15151C12.251 8.13265 12.2516 8.11392 12.2523 8.09532C12.2037 8.12504 12.1538 8.15373 12.1026 8.18148Z" fill="#2C66BD"/>
</svg>
