<svg width="24" height="24" viewBox="0 0 24 24" fill="none" xmlns="http://www.w3.org/2000/svg">
<path d="M3.96059 17.1455C3.95324 17.0307 3.95324 16.9154 3.96059 16.8005C4.02338 14.7276 4.90442 12.7639 6.41107 11.3387C7.91772 9.9136 9.92737 9.14304 12.0006 9.19554C14.0764 9.139 16.0899 9.90777 17.5998 11.3333C19.1097 12.7589 19.9928 14.7249 20.0556 16.8005C20.0629 16.9154 20.0629 17.0307 20.0556 17.1455H3.96059Z" fill="#BFE1F1"/>
<path d="M12 9.75016C13.8905 9.69564 15.7284 10.3764 17.1272 11.6493C18.5259 12.9222 19.3765 14.688 19.5 16.5752H4.5C4.62348 14.688 5.47408 12.9222 6.87285 11.6493C8.27162 10.3764 10.1095 9.69564 12 9.75016ZM12 8.62516C10.8968 8.59522 9.7985 8.78296 8.76789 9.17765C7.73727 9.57235 6.79453 10.1663 5.99354 10.9255C5.19256 11.6847 4.54902 12.5943 4.09972 13.6023C3.65042 14.6103 3.40415 15.6969 3.375 16.8002C3.38715 17.1017 3.41721 17.4022 3.465 17.7002H20.52C20.5678 17.4022 20.5978 17.1017 20.61 16.8002C20.5511 14.5747 19.6112 12.4637 17.9968 10.9309C16.3824 9.39803 14.2255 8.56873 12 8.62516Z" fill="#2C66BD"/>
<path d="M12.0004 10.7852C14.1957 10.7852 15.9754 9.00554 15.9754 6.8102C15.9754 4.61487 14.1957 2.83521 12.0004 2.83521C9.80506 2.83521 8.02539 4.61487 8.02539 6.8102C8.02539 9.00554 9.80506 10.7852 12.0004 10.7852Z" fill="#BFE1F1"/>
<path d="M12 3.40503C12.6728 3.40799 13.3296 3.61021 13.8876 3.98615C14.4456 4.3621 14.8797 4.89491 15.1351 5.51735C15.3905 6.13979 15.4558 6.82395 15.3227 7.48346C15.1897 8.14297 14.8642 8.74828 14.3874 9.22298C13.9106 9.69768 13.3039 10.0205 12.6438 10.1507C11.9837 10.2808 11.2998 10.2125 10.6785 9.95438C10.0572 9.69623 9.52631 9.2598 9.15282 8.70018C8.77934 8.14056 8.58001 7.48283 8.58 6.81003C8.58397 5.90559 8.94604 5.03955 9.58698 4.40142C10.2279 3.76328 11.0956 3.40502 12 3.40503ZM12 2.28003C11.11 2.28003 10.24 2.54395 9.49994 3.03842C8.75991 3.53288 8.18314 4.23569 7.84254 5.05795C7.50195 5.88022 7.41283 6.78502 7.58647 7.65794C7.7601 8.53085 8.18869 9.33267 8.81802 9.96201C9.44736 10.5913 10.2492 11.0199 11.1221 11.1936C11.995 11.3672 12.8998 11.2781 13.7221 10.9375C14.5443 10.5969 15.2471 10.0201 15.7416 9.2801C16.2361 8.54007 16.5 7.67005 16.5 6.78003C16.5 5.58656 16.0259 4.44196 15.182 3.59805C14.3381 2.75414 13.1935 2.28003 12 2.28003Z" fill="#2C66BD"/>
<path d="M11.911 21.7202C14.6697 21.7202 16.906 19.4839 16.906 16.7252C16.906 13.9666 14.6697 11.7302 11.911 11.7302C9.15235 11.7302 6.91602 13.9666 6.91602 16.7252C6.91602 19.4839 9.15235 21.7202 11.911 21.7202Z" fill="#BFE1F1"/>
<path fill-rule="evenodd" clip-rule="evenodd" d="M12.6144 16.7403C12.6174 16.5996 12.5782 16.4613 12.5018 16.343C12.4255 16.2248 12.3156 16.1322 12.1862 16.077C12.0568 16.0218 11.9138 16.0065 11.7756 16.0333C11.6375 16.06 11.5105 16.1274 11.411 16.2269C11.3115 16.3264 11.2441 16.4534 11.2174 16.5915C11.1907 16.7297 11.2059 16.8726 11.2611 17.0021C11.3163 17.1315 11.409 17.2414 11.5272 17.3177C11.6454 17.394 11.7837 17.4332 11.9244 17.4303C12.1062 17.4264 12.2795 17.3525 12.4081 17.2239C12.5366 17.0953 12.6106 16.9221 12.6144 16.7403ZM15.8244 16.0353L14.8494 15.8553C14.7936 15.6441 14.7077 15.442 14.5944 15.2553L15.1794 14.4153C15.2061 14.381 15.2207 14.3387 15.2207 14.2953C15.2207 14.2518 15.2061 14.2095 15.1794 14.1753L14.4444 13.5003C14.4078 13.4723 14.363 13.4571 14.3169 13.4571C14.2708 13.4571 14.226 13.4723 14.1894 13.5003L13.3644 14.0853C13.175 13.9771 12.9737 13.8915 12.7644 13.8303L12.5994 12.8103C12.5847 12.7651 12.5568 12.7252 12.5195 12.6959C12.4821 12.6665 12.4368 12.6489 12.3894 12.6453H11.3994C11.3533 12.6475 11.3092 12.6649 11.2739 12.6947C11.2387 12.7245 11.2142 12.7651 11.2044 12.8103L11.0244 13.8153C10.8407 13.8681 10.6643 13.9437 10.4994 14.0403L9.62939 13.5003C9.61267 13.4835 9.5928 13.4702 9.57092 13.4611C9.54904 13.452 9.52558 13.4473 9.50189 13.4473C9.4782 13.4473 9.45474 13.452 9.43286 13.4611C9.41098 13.4702 9.39111 13.4835 9.37439 13.5003L8.68439 14.1903C8.65763 14.2245 8.64309 14.2668 8.64309 14.3103C8.64309 14.3537 8.65763 14.396 8.68439 14.4303L9.23939 15.2403C9.14095 15.4324 9.06061 15.6333 8.99939 15.8403L8.02439 16.0203C7.97803 16.0275 7.93582 16.0512 7.90551 16.087C7.87521 16.1228 7.85883 16.1683 7.85939 16.2153V17.2203C7.85923 17.2655 7.87612 17.3092 7.9067 17.3425C7.93728 17.3759 7.9793 17.3965 8.02439 17.4003L8.99939 17.5953C9.05111 17.7985 9.13736 17.9913 9.25439 18.1653L8.69939 18.9753C8.68261 18.992 8.66929 19.0119 8.66021 19.0337C8.65112 19.0556 8.64645 19.0791 8.64645 19.1028C8.64645 19.1265 8.65112 19.1499 8.66021 19.1718C8.66929 19.1937 8.68261 19.2135 8.69939 19.2303L9.38939 19.9353C9.42601 19.9632 9.47081 19.9784 9.51689 19.9784C9.56297 19.9784 9.60777 19.9632 9.64439 19.9353L10.4994 19.4103C10.6777 19.512 10.8697 19.5877 11.0694 19.6353L11.2494 20.6403C11.2566 20.6866 11.2803 20.7288 11.3161 20.7591C11.3519 20.7894 11.3975 20.8058 11.4444 20.8053H12.4344C12.4824 20.8038 12.5287 20.787 12.5665 20.7573C12.6043 20.7276 12.6316 20.6866 12.6444 20.6403L12.8244 19.6653C13.0194 19.6653 13.2294 19.5303 13.4244 19.4403L14.2344 19.9803C14.2696 20.0048 14.3115 20.0179 14.3544 20.0179C14.3973 20.0179 14.4392 20.0048 14.4744 19.9803L15.1644 19.2753C15.1812 19.2585 15.1945 19.2387 15.2036 19.2168C15.2127 19.1949 15.2173 19.1715 15.2173 19.1478C15.2173 19.1241 15.2127 19.1006 15.2036 19.0787C15.1945 19.0569 15.1812 19.037 15.1644 19.0203L14.6094 18.1803C14.7264 18.0063 14.8127 17.8135 14.8644 17.6103L15.8394 17.4153C15.8845 17.4115 15.9265 17.3909 15.9571 17.3575C15.9877 17.3242 16.0045 17.2805 16.0044 17.2353V16.2303C16.0049 16.1833 15.9886 16.1378 15.9583 16.102C15.928 16.0662 15.8857 16.0425 15.8394 16.0353H15.8244ZM11.9244 18.4353C11.5849 18.4382 11.2523 18.3401 10.9688 18.1533C10.6853 17.9666 10.4638 17.6997 10.3325 17.3866C10.2012 17.0735 10.1661 16.7285 10.2316 16.3954C10.2971 16.0623 10.4603 15.7562 10.7003 15.5162C10.9403 15.2761 11.2464 15.113 11.5795 15.0475C11.9126 14.982 12.2577 15.0171 12.5707 15.1484C12.8838 15.2796 13.1507 15.5011 13.3375 15.7846C13.5242 16.0681 13.6224 16.4008 13.6194 16.7403C13.6155 17.1886 13.4356 17.6175 13.1186 17.9345C12.8016 18.2515 12.3727 18.4313 11.9244 18.4353Z" fill="#34495E"/>
</svg>
