<svg width="24" height="24" viewBox="0 0 24 24" fill="none" xmlns="http://www.w3.org/2000/svg">
<path d="M4.06461 3.615H19.6496C19.8485 3.615 20.0393 3.69401 20.1799 3.83467C20.3206 3.97532 20.3996 4.16608 20.3996 4.365V19.65C20.3996 19.8489 20.3206 20.0397 20.1799 20.1803C20.0393 20.321 19.8485 20.4 19.6496 20.4H4.34961C4.1507 20.4 3.95993 20.321 3.81928 20.1803C3.67863 20.0397 3.59961 19.8489 3.59961 19.65V4.065C3.59958 4.00462 3.61169 3.94485 3.63524 3.88925C3.65879 3.83365 3.69328 3.78336 3.73667 3.74138C3.78006 3.69939 3.83145 3.66656 3.88779 3.64485C3.94413 3.62314 4.00426 3.61298 4.06461 3.615Z" fill="#E3FF8D"/>
<path fill-rule="evenodd" clip-rule="evenodd" d="M4.07211 3.0525H19.6496C19.9977 3.0525 20.3315 3.19078 20.5777 3.43692C20.8238 3.68306 20.9621 4.0169 20.9621 4.365V19.65C20.9621 19.9981 20.8238 20.3319 20.5777 20.5781C20.3315 20.8242 19.9977 20.9625 19.6496 20.9625H4.34961C4.00151 20.9625 3.66767 20.8242 3.42153 20.5781C3.17539 20.3319 3.03711 19.9981 3.03711 19.65L3.03711 4.06531C3.03711 4.0652 3.03711 4.0651 3.03711 4.065C3.03708 3.92925 3.06434 3.79488 3.11728 3.66988C3.17026 3.54479 3.24787 3.43164 3.34549 3.33716C3.44312 3.24269 3.55875 3.16883 3.68552 3.11997C3.80878 3.07247 3.94012 3.04956 4.07211 3.0525ZM4.16211 4.1775H19.6496C19.6993 4.1775 19.747 4.19725 19.7822 4.23241C19.8174 4.26758 19.8371 4.31527 19.8371 4.365V19.65C19.8371 19.6997 19.8174 19.7474 19.7822 19.7826C19.747 19.8177 19.6993 19.8375 19.6496 19.8375H4.34961C4.29988 19.8375 4.25219 19.8177 4.21703 19.7826C4.18186 19.7474 4.16211 19.6997 4.16211 19.65V4.1775Z" fill="#9CC71C"/>
<path d="M17.0391 6.66016H6.94414C6.69561 6.66016 6.49414 6.86163 6.49414 7.11016V16.9052C6.49414 17.1537 6.69561 17.3552 6.94414 17.3552H17.0391C17.2877 17.3552 17.4891 17.1537 17.4891 16.9052V7.11016C17.4891 6.86163 17.2877 6.66016 17.0391 6.66016Z" fill="#E3FF8D"/>
<path fill-rule="evenodd" clip-rule="evenodd" d="M7.05664 7.22266V16.7927H16.9266V7.22266H7.05664ZM5.93164 7.11016C5.93164 6.55097 6.38495 6.09766 6.94414 6.09766H17.0391C17.5983 6.09766 18.0516 6.55097 18.0516 7.11016V16.9052C18.0516 17.4643 17.5983 17.9177 17.0391 17.9177H6.94414C6.38496 17.9177 5.93164 17.4643 5.93164 16.9052V7.11016Z" fill="#9CC71C"/>
<path d="M14.1443 9.38989H9.8543C9.60577 9.38989 9.4043 9.59136 9.4043 9.83989V14.1599C9.4043 14.4084 9.60577 14.6099 9.8543 14.6099H14.1443C14.3928 14.6099 14.5943 14.4084 14.5943 14.1599V9.83989C14.5943 9.59136 14.3928 9.38989 14.1443 9.38989Z" fill="#E3FF8D"/>
<path fill-rule="evenodd" clip-rule="evenodd" d="M9.9668 9.95239V14.0474H14.0318V9.95239H9.9668ZM8.8418 9.83989C8.8418 9.2807 9.29511 8.82739 9.8543 8.82739H14.1443C14.7035 8.82739 15.1568 9.2807 15.1568 9.83989V14.1599C15.1568 14.7191 14.7035 15.1724 14.1443 15.1724H9.8543C9.29511 15.1724 8.8418 14.7191 8.8418 14.1599V9.83989Z" fill="#9CC71C"/>
</svg>
