<svg width="64" height="64" viewBox="0 0 64 64" fill="none" xmlns="http://www.w3.org/2000/svg">
<path d="M46.6999 27.25H38.4199V36.25H46.6999V27.25Z" fill="#F0ECB6"/>
<path d="M46.1999 27.75V35.75H38.9199V27.75H46.1999ZM47.1999 26.75H37.9199V36.75H47.1999V26.75Z" fill="#C18F35"/>
<path d="M54.9987 27.25H46.7188V36.25H54.9987V27.25Z" fill="#F0ECB6"/>
<path d="M54.4987 27.75V35.75H47.2188V27.75H54.4987ZM55.4987 26.75H46.2188V36.75H55.4987V26.75Z" fill="#C18F35"/>
<path d="M39.9199 45.23C38.5499 45.23 38.4199 45.1 38.4199 43.73V36.23H46.6999V45.23H39.9199Z" fill="#C8FFAC"/>
<path d="M46.1999 36.73V44.73H39.9199C39.6177 44.7453 39.3147 44.7184 39.0199 44.65C38.9211 44.354 38.887 44.0403 38.9199 43.73V36.73H46.1999ZM47.1999 35.73H37.9199V43.73C37.9199 45.38 38.2699 45.73 39.9199 45.73H47.1999V35.73Z" fill="#48D601"/>
<path d="M46.7188 45.23V36.23H54.9987V43.73C54.9987 45.1 54.8687 45.23 53.4987 45.23H46.7188Z" fill="#C8FFAC"/>
<path d="M54.4987 36.73V43.73C54.5136 44.0322 54.4867 44.3351 54.4187 44.63C54.1228 44.7288 53.809 44.7629 53.4987 44.73H47.2188V36.73H54.4987ZM55.4987 35.73H46.2188V45.73H53.4987C55.1487 45.73 55.4987 45.38 55.4987 43.73V35.73Z" fill="#48D601"/>
<path d="M38.4199 27.27V19.77C38.4199 18.4 38.5499 18.27 39.9199 18.27H46.6999V27.27H38.4199Z" fill="#D3D4F3"/>
<path d="M46.1999 18.77V26.77H38.9199V19.77C38.9051 19.4678 38.932 19.1649 38.9999 18.87C39.2959 18.7712 39.6096 18.7371 39.9199 18.77H46.1999ZM47.1999 17.77H39.9199C38.2699 17.77 37.9199 18.12 37.9199 19.77V27.77H47.1999V17.77Z" fill="#666BD1"/>
<path d="M46.7188 27.27V18.27H53.4987C54.8687 18.27 54.9987 18.4 54.9987 19.77V27.27H46.7188Z" fill="#D3D4F3"/>
<path d="M53.4987 18.77C53.801 18.7547 54.1039 18.7816 54.3988 18.85C54.4975 19.146 54.5316 19.4597 54.4987 19.77V26.77H47.2188V18.77H53.4987ZM53.4987 17.77H46.2188V27.77H55.4987V19.77C55.4987 18.12 55.1487 17.77 53.4987 17.77Z" fill="#666BD1"/>
<path d="M9 25.4302V13.9302C9 12.5602 9.13 12.4302 10.5 12.4302H16.28V25.4302H9Z" fill="#D3D4F3"/>
<path d="M15.8093 12.9302V24.9302H9.5293V13.9302C9.51432 13.6279 9.54124 13.325 9.6093 13.0302C9.90527 12.9314 10.219 12.8973 10.5293 12.9302H15.8093ZM16.8093 11.9302H10.5293C8.8793 11.9302 8.5293 12.2802 8.5293 13.9302V25.9302H16.8093V11.9302Z" fill="#666BD1"/>
<path d="M16.3184 25.4302V12.4302H22.0984C23.4684 12.4302 23.5984 12.5602 23.5984 13.9302V25.4302H16.3184Z" fill="#D3D4F3"/>
<path d="M22.0984 12.9302C22.4002 12.9115 22.7031 12.9351 22.9984 13.0002C23.0972 13.2961 23.1313 13.6099 23.0984 13.9202V24.9202H16.8184V12.9202H22.0984V12.9302ZM22.0984 11.9202H15.8184V25.9202H24.0984V13.9202C24.0984 12.2702 23.7484 11.9202 22.0984 11.9202Z" fill="#666BD1"/>
<path opacity="0.8" d="M9.05859 18.77H15.7986" stroke="#666BD1" stroke-linejoin="round"/>
<path opacity="0.8" d="M16.0801 18.77H23.5701" stroke="#666BD1" stroke-linejoin="round"/>
<path d="M10.53 51.4502C9.16 51.4502 9 51.3302 9 50.0002V38.4502H16.28V51.4502H10.53Z" fill="#C8FFAC"/>
<path d="M15.8093 39V51H10.5293C10.227 51.0154 9.92411 50.9884 9.6293 50.92C9.53051 50.624 9.49641 50.3103 9.5293 50V39H15.8093ZM16.8093 38H8.5293V50C8.5293 51.65 8.8793 52 10.5293 52H16.8093V38Z" fill="#48D601"/>
<path d="M16.3184 51.4502V38.4502H23.5984V50.0002C23.5984 51.3702 23.4684 51.5002 22.0984 51.5002L16.3184 51.4502Z" fill="#C8FFAC"/>
<path d="M23.0984 39V50C23.1133 50.3023 23.0864 50.6051 23.0184 50.9C22.7224 50.9988 22.4087 51.0329 22.0984 51H16.8184V39H23.0984ZM24.0984 38H15.8184V52H22.0984C23.7484 52 24.0984 51.65 24.0984 50V38Z" fill="#48D601"/>
<path opacity="0.7" d="M16.0801 44.8003H23.5701" stroke="#48D601" stroke-miterlimit="10"/>
<path opacity="0.7" d="M9.05859 44.8003H15.7986" stroke="#48D601" stroke-miterlimit="10"/>
<path d="M23.5984 25.4302H16.3184V38.4302H23.5984V25.4302Z" fill="#F0ECB6"/>
<path d="M23.0984 25.9302V37.9302H16.8184V25.9302H23.0984ZM24.0984 24.9302H15.8184V38.9302H24.0984V24.9302Z" fill="#C18F35"/>
<path opacity="0.8" d="M16.0801 31.78H23.5701" stroke="#C18F35" stroke-linejoin="round"/>
<path d="M16.3093 25.4302H9.0293V38.4302H16.3093V25.4302Z" fill="#F0ECB6"/>
<path d="M15.8093 25.9302V37.9302H9.5293V25.9302H15.8093ZM16.8093 24.9302H8.5293V38.9302H16.8093V24.9302Z" fill="#C18F35"/>
<path opacity="0.8" d="M9.05859 31.78H15.7986" stroke="#C18F35" stroke-linejoin="round"/>
<path d="M37.0091 23.1101L33.8691 24.1201L35.1591 20.3901L37.0091 23.1101Z" fill="#34495E"/>
<path fill-rule="evenodd" clip-rule="evenodd" d="M35.0933 19.8945C35.2807 19.8696 35.4662 19.9526 35.5726 20.109L37.4226 22.829C37.5112 22.9593 37.5332 23.1237 37.482 23.2727C37.4308 23.4217 37.3123 23.5379 37.1623 23.5861L34.0223 24.5961C33.8419 24.6541 33.6443 24.6052 33.5118 24.4698C33.3793 24.3344 33.3347 24.1358 33.3966 23.9567L34.6866 20.2267C34.7484 20.048 34.9058 19.9194 35.0933 19.8945ZM35.3061 21.4952L34.6688 23.3377L36.2199 22.8388L35.3061 21.4952Z" fill="#34495E"/>
<path fill-rule="evenodd" clip-rule="evenodd" d="M24.5291 18.8724C24.6218 18.6123 24.9078 18.4765 25.1679 18.5692L35.0779 22.0992C35.338 22.1918 35.4738 22.4778 35.3811 22.738C35.2885 22.9981 35.0025 23.1338 34.7424 23.0412L24.8324 19.5112C24.5722 19.4185 24.4365 19.1325 24.5291 18.8724Z" fill="#34495E"/>
<path d="M37.0091 40.8701L33.8691 39.8701L35.1591 43.6001L37.0091 40.8701Z" fill="#34495E"/>
<path fill-rule="evenodd" clip-rule="evenodd" d="M33.5113 39.521C33.6434 39.3855 33.8406 39.3363 34.0209 39.3937L37.1609 40.3937C37.3111 40.4416 37.43 40.5575 37.4816 40.7065C37.5332 40.8555 37.5115 41.0201 37.4231 41.1506L35.5731 43.8806C35.4669 44.0373 35.2813 44.1206 35.0937 44.0958C34.9061 44.071 34.7485 43.9424 34.6866 43.7636L33.3966 40.0336C33.3348 39.8548 33.3792 39.6564 33.5113 39.521ZM34.6676 40.6492L35.3054 42.4931L36.2199 41.1435L34.6676 40.6492Z" fill="#34495E"/>
<path fill-rule="evenodd" clip-rule="evenodd" d="M35.3811 41.2525C35.4738 41.5127 35.338 41.7987 35.0779 41.8913L25.1679 45.4213C24.9078 45.514 24.6218 45.3782 24.5291 45.1181C24.4365 44.858 24.5722 44.572 24.8324 44.4793L34.7424 40.9493C35.0025 40.8566 35.2885 40.9924 35.3811 41.2525Z" fill="#34495E"/>
<path d="M37.0697 31.7803L34.4297 33.7603V29.8003L37.0697 31.7803Z" fill="#34495E"/>
<path fill-rule="evenodd" clip-rule="evenodd" d="M34.2061 29.3531C34.3755 29.2684 34.5782 29.2867 34.7297 29.4003L37.3697 31.3803C37.4956 31.4747 37.5697 31.6229 37.5697 31.7803C37.5697 31.9377 37.4956 32.0859 37.3697 32.1803L34.7297 34.1603C34.5782 34.2739 34.3755 34.2922 34.2061 34.2075C34.0367 34.1228 33.9297 33.9497 33.9297 33.7603V29.8003C33.9297 29.6109 34.0367 29.4378 34.2061 29.3531ZM34.9297 30.8003V32.7603L36.2364 31.7803L34.9297 30.8003Z" fill="#34495E"/>
<path fill-rule="evenodd" clip-rule="evenodd" d="M35.39 31.8781C35.3911 32.1542 35.1682 32.379 34.892 32.3801L25.002 32.4201C24.7259 32.4212 24.5011 32.1983 24.5 31.9222C24.4989 31.646 24.7218 31.4212 24.998 31.4201L34.888 31.3801C35.1641 31.379 35.3889 31.602 35.39 31.8781Z" fill="#34495E"/>
</svg>
