<svg width="64" height="64" viewBox="0 0 64 64" fill="none" xmlns="http://www.w3.org/2000/svg">
<path d="M23.0398 38.1099L25.5698 41.4899H20.5098L23.0398 38.1099Z" fill="#528D19"/>
<path fill-rule="evenodd" clip-rule="evenodd" d="M23.0398 37.6099C23.1973 37.6099 23.3456 37.6841 23.4401 37.8102L25.9701 41.1902C26.0835 41.3418 26.1016 41.5444 26.0169 41.7137C25.9321 41.8829 25.7591 41.9899 25.5698 41.9899H20.5098C20.3205 41.9899 20.1474 41.8829 20.0627 41.7137C19.9779 41.5444 19.996 41.3418 20.1095 41.1902L22.6395 37.8102C22.7339 37.6841 22.8822 37.6099 23.0398 37.6099ZM21.5086 40.9899H24.571L23.0398 38.9442L21.5086 40.9899Z" fill="#528D19"/>
<path fill-rule="evenodd" clip-rule="evenodd" d="M23.0391 40.49C23.5913 40.49 24.0391 40.9377 24.0391 41.49V44.47C24.0391 45.0223 23.5913 45.47 23.0391 45.47C22.4868 45.47 22.0391 45.0223 22.0391 44.47V41.49C22.0391 40.9377 22.4868 40.49 23.0391 40.49Z" fill="#528D19"/>
<path d="M40.9792 38.1099L43.4992 41.4899H38.4492L40.9792 38.1099Z" fill="#528D19"/>
<path fill-rule="evenodd" clip-rule="evenodd" d="M40.9797 37.6099C41.1374 37.61 41.2858 37.6846 41.3801 37.811L43.9001 41.191C44.0131 41.3426 44.0309 41.5451 43.9461 41.7141C43.8613 41.8831 43.6884 41.9899 43.4992 41.9899H38.4492C38.2599 41.9899 38.0869 41.8829 38.0021 41.7137C37.9174 41.5444 37.9355 41.3418 38.0489 41.1902L40.5789 37.8102C40.6734 37.684 40.822 37.6097 40.9797 37.6099ZM39.448 40.9899H42.5028L40.9784 38.9453L39.448 40.9899Z" fill="#528D19"/>
<path fill-rule="evenodd" clip-rule="evenodd" d="M40.9707 40.49C41.523 40.49 41.9707 40.9377 41.9707 41.49V44.47C41.9707 45.0223 41.523 45.47 40.9707 45.47C40.4184 45.47 39.9707 45.0223 39.9707 44.47V41.49C39.9707 40.9377 40.4184 40.49 40.9707 40.49Z" fill="#528D19"/>
<path d="M8 34.5C6.63 34.5 6.5 34.37 6.5 33V12.5H57.5V33C57.5 34.37 57.37 34.5 56 34.5H8Z" fill="#F0ECB6"/>
<path d="M57 13V33C57.015 33.3023 56.9881 33.6051 56.92 33.9C56.624 33.9988 56.3103 34.0329 56 34H8C7.69774 34.0154 7.39481 33.9884 7.1 33.92C7.00121 33.624 6.96711 33.3103 7 33V13H57ZM58 12H6V33C6 34.65 6.35 35 8 35H56C57.65 35 58 34.65 58 33V12Z" fill="#3588C1"/>
<path d="M46.3809 12.5V6.5H56.0009C57.3709 6.5 57.5009 6.63 57.5009 8V12.5H46.3809Z" fill="#ADDFF3"/>
<path d="M56.0009 7C56.3031 6.98463 56.6061 7.01156 56.9009 7.08C56.9997 7.37598 57.0338 7.68971 57.0009 8V12H46.8809V7H56.0009ZM56.0009 6H45.8809V13H58.0009V8C58.0009 6.35 57.6509 6 56.0009 6Z" fill="#2980B9"/>
<path d="M6.51953 12.5V8C6.51953 6.63 6.64953 6.5 8.01953 6.5H17.5995V12.5H6.51953Z" fill="#ADDFF3"/>
<path d="M17.1 7V12H7V8C6.98502 7.69775 7.01194 7.39487 7.08 7.1C7.37598 7.00121 7.68971 6.96711 8 7H17.1ZM18.1 6H8C6.37 6 6 6.35 6 8V13H18.1V6Z" fill="#2980B9"/>
<path d="M46.3803 6.5H36.8203V12.5H46.3803V6.5Z" fill="#ADDFF3"/>
<path d="M45.8803 7V12H37.3103V7H45.8703H45.8803ZM46.8703 6H36.3203V13H46.8803V6H46.8703Z" fill="#2980B9"/>
<path d="M36.81 6.5H27.25V12.5H36.81V6.5Z" fill="#ADDFF3"/>
<path d="M36.3198 7V12H27.7498V7H36.3098H36.3198ZM37.3098 6H26.7598V13H37.3198V6H37.3098Z" fill="#2980B9"/>
<path d="M27.2391 6.5H17.6191V12.5H27.2391V6.5Z" fill="#ADDFF3"/>
<path d="M26.7409 7V12H18.1209V7H26.7309H26.7409ZM27.7309 6H17.1309V13H27.7409V6H27.7309Z" fill="#2980B9"/>
<g opacity="0.7">
<path opacity="0.7" d="M17.6094 34V13" stroke="#C18F35" stroke-linejoin="round"/>
<path opacity="0.7" d="M36.8008 34V13" stroke="#C18F35" stroke-linejoin="round"/>
<path opacity="0.7" d="M27.2109 34V13" stroke="#C18F35" stroke-linejoin="round"/>
<path opacity="0.7" d="M46.3906 34V13" stroke="#C18F35" stroke-linejoin="round"/>
<path opacity="0.7" d="M7 19.8499H57.25" stroke="#C18F35" stroke-linejoin="round"/>
<path opacity="0.7" d="M7 27.23H57.25" stroke="#C18F35" stroke-linejoin="round"/>
</g>
<path d="M55.9995 48.5H8.01953C7.1911 48.5 6.51953 49.1716 6.51953 50V56C6.51953 56.8284 7.1911 57.5 8.01953 57.5H55.9995C56.828 57.5 57.4995 56.8284 57.4995 56V50C57.4995 49.1716 56.828 48.5 55.9995 48.5Z" fill="#D3D4F3"/>
<path d="M56 49C56.3023 48.9846 56.6052 49.0116 56.9 49.08C56.9988 49.376 57.0329 49.6897 57 50V56C57.015 56.3023 56.9881 56.6051 56.92 56.9C56.624 56.9988 56.3103 57.0329 56 57H8C7.69774 57.0154 7.39481 56.9884 7.1 56.92C7.00121 56.624 6.96711 56.3103 7 56V50C6.98502 49.6977 7.01194 49.3949 7.08 49.1C7.37598 49.0012 7.68971 48.9671 8 49H56ZM56 48H8C6.35 48 6 48.35 6 50V56C6 57.65 6.35 58 8 58H56C57.65 58 58 57.65 58 56V50C58 48.35 57.65 48 56 48Z" fill="#666BD1"/>
<g opacity="0.7">
<path opacity="0.7" d="M17.5996 57.0598V48.8298" stroke="#666BD1" stroke-linejoin="round"/>
<path opacity="0.7" d="M27.1992 57.0598V48.8298" stroke="#666BD1" stroke-linejoin="round"/>
<path opacity="0.7" d="M36.7988 57.0598V48.8298" stroke="#666BD1" stroke-linejoin="round"/>
<path opacity="0.7" d="M46.4004 57.0598V48.8298" stroke="#666BD1" stroke-linejoin="round"/>
</g>
</svg>
