<svg width="64" height="64" viewBox="0 0 64 64" fill="none" xmlns="http://www.w3.org/2000/svg">
<path d="M21.5605 51.69C20.2205 51.69 20.0705 51.56 20.0605 50.28V14.15C20.0605 12.87 20.2105 12.74 21.5605 12.74H30.5605C31.9005 12.74 32.0406 12.87 32.0606 14.15V50.28C32.0606 51.56 31.9105 51.69 30.5605 51.69H21.5605Z" fill="#F0ECB6"/>
<path d="M21.5605 13.24H30.5605C30.8628 13.2224 31.1661 13.2494 31.4605 13.32C31.5534 13.5897 31.5875 13.8761 31.5605 14.16V50.27C31.5708 50.5424 31.5439 50.8149 31.4805 51.08C31.1848 51.1797 30.8708 51.2138 30.5605 51.18H21.5605C21.2582 51.1976 20.955 51.1706 20.6605 51.1C20.5677 50.8303 20.5336 50.5439 20.5605 50.26V14.16C20.5503 13.8876 20.5772 13.6151 20.6405 13.35C20.9363 13.2503 21.2503 13.2162 21.5605 13.25V13.24ZM21.5605 12.25C19.9505 12.25 19.5605 12.59 19.5605 14.15V50.28C19.5605 51.84 19.9405 52.18 21.5605 52.18H30.5605C32.1705 52.18 32.5606 51.84 32.5606 50.28V14.15C32.5606 12.59 32.1805 12.25 30.5605 12.25H21.5605Z" fill="#C18F35"/>
<g opacity="0.7">
<path opacity="0.7" d="M20.5703 19.9299H31.5403" stroke="#C18F35" stroke-linejoin="round"/>
<path opacity="0.7" d="M20.5703 27.6699H31.5403" stroke="#C18F35" stroke-linejoin="round"/>
<path opacity="0.7" d="M20.5703 35.4199H31.5403" stroke="#C18F35" stroke-linejoin="round"/>
<path opacity="0.7" d="M20.5703 43.1599H31.5403" stroke="#C18F35" stroke-linejoin="round"/>
</g>
<path d="M43.2998 54.6798L42.2698 51.5498L40.0098 54.7898L43.2998 54.6798Z" fill="#34495E"/>
<path fill-rule="evenodd" clip-rule="evenodd" d="M42.3423 51.0551C42.5297 51.0826 42.6855 51.2136 42.7447 51.3935L43.7747 54.5235C43.8239 54.6731 43.7998 54.8371 43.7097 54.9661C43.6195 55.0952 43.4738 55.1743 43.3165 55.1795L40.0265 55.2895C39.8373 55.2959 39.6607 55.1948 39.5704 55.0285C39.48 54.8621 39.4914 54.659 39.5997 54.5038L41.8597 51.2638C41.968 51.1084 42.1549 51.0276 42.3423 51.0551ZM40.9912 54.2567L42.6163 54.2024L42.1075 52.6564L40.9912 54.2567Z" fill="#34495E"/>
<path fill-rule="evenodd" clip-rule="evenodd" d="M33.0919 47.3511C33.2514 47.1257 33.5634 47.0723 33.7888 47.2318L41.8588 52.9418C42.0843 53.1013 42.1377 53.4133 41.9782 53.6387C41.8187 53.8642 41.5067 53.9176 41.2812 53.7581L33.2112 48.0481C32.9858 47.8886 32.9324 47.5766 33.0919 47.3511Z" fill="#34495E"/>
<path d="M43.2998 9.31996L42.2698 12.45L40.0098 9.20996L43.2998 9.31996Z" fill="#34495E"/>
<path fill-rule="evenodd" clip-rule="evenodd" d="M39.5704 8.97131C39.6607 8.80497 39.8373 8.70392 40.0265 8.71024L43.3165 8.82024C43.4738 8.8255 43.6195 8.90457 43.7097 9.03364C43.7998 9.16271 43.8239 9.3267 43.7747 9.47625L42.7447 12.6063C42.6855 12.7862 42.5297 12.9172 42.3423 12.9447C42.1549 12.9722 41.968 12.8914 41.8597 12.736L39.5997 9.49601C39.4914 9.34076 39.48 9.13766 39.5704 8.97131ZM40.9912 9.74306L42.1075 11.3434L42.6163 9.79739L40.9912 9.74306Z" fill="#34495E"/>
<path fill-rule="evenodd" clip-rule="evenodd" d="M41.9782 10.3611C42.1377 10.5866 42.0843 10.8986 41.8588 11.0581L33.7888 16.7681C33.5634 16.9276 33.2514 16.8742 33.0919 16.6487C32.9324 16.4233 32.9858 16.1113 33.2112 15.9518L41.2812 10.2418C41.5067 10.0823 41.8187 10.1357 41.9782 10.3611Z" fill="#34495E"/>
<path d="M45.4408 31.6301L42.8008 29.6501V33.6002L45.4408 31.6301Z" fill="#34495E"/>
<path fill-rule="evenodd" clip-rule="evenodd" d="M42.5772 29.2029C42.7466 29.1182 42.9493 29.1365 43.1008 29.2501L45.7408 31.2302C45.8669 31.3247 45.941 31.4732 45.9408 31.6308C45.9406 31.7884 45.8661 31.9366 45.7398 32.0309L43.0998 34.0009C42.9482 34.114 42.7457 34.1319 42.5766 34.0471C42.4075 33.9623 42.3008 33.7893 42.3008 33.6002V29.6501C42.3008 29.4608 42.4078 29.2876 42.5772 29.2029ZM43.3008 30.6502V32.6032L44.6061 31.6291L43.3008 30.6502Z" fill="#34495E"/>
<path fill-rule="evenodd" clip-rule="evenodd" d="M32.8613 31.4775C32.8627 31.2013 33.0877 30.9786 33.3639 30.98L43.2539 31.03C43.53 31.0314 43.7527 31.2564 43.7513 31.5325C43.7499 31.8086 43.5249 32.0314 43.2488 32.03L33.3588 31.98C33.0827 31.9786 32.8599 31.7536 32.8613 31.4775Z" fill="#34495E"/>
<path d="M45.0409 18.95L41.8809 18L43.2309 21.71L45.0409 18.95Z" fill="#34495E"/>
<path fill-rule="evenodd" clip-rule="evenodd" d="M41.5174 17.6564C41.6473 17.5189 41.8437 17.4665 42.0248 17.5209L45.1848 18.4709C45.3359 18.5164 45.4567 18.6305 45.5107 18.7787C45.5647 18.927 45.5455 19.092 45.459 19.224L43.649 21.984C43.5452 22.1422 43.3611 22.2283 43.1731 22.2064C42.9852 22.1846 42.8257 22.0585 42.761 21.8807L41.411 18.1707C41.3463 17.993 41.3875 17.7939 41.5174 17.6564ZM42.6916 18.7656L43.3597 20.6016L44.2554 19.2357L42.6916 18.7656Z" fill="#34495E"/>
<path fill-rule="evenodd" clip-rule="evenodd" d="M43.4214 19.4412C43.5147 19.7011 43.3795 19.9874 43.1196 20.0806L33.8096 23.4206C33.5497 23.5139 33.2634 23.3788 33.1701 23.1188C33.0769 22.8589 33.212 22.5726 33.4719 22.4794L42.7819 19.1394C43.0419 19.0461 43.3282 19.1812 43.4214 19.4412Z" fill="#34495E"/>
<path d="M45.0409 43.48L41.8809 44.44L43.2309 40.72L45.0409 43.48Z" fill="#34495E"/>
<path fill-rule="evenodd" clip-rule="evenodd" d="M43.1729 40.2233C43.3609 40.2014 43.5452 40.2875 43.649 40.4458L45.459 43.2058C45.5454 43.3375 45.5646 43.5023 45.511 43.6504C45.4573 43.7985 45.3369 43.9126 45.1862 43.9584L42.0262 44.9184C41.845 44.9734 41.6483 44.9214 41.518 44.784C41.3878 44.6466 41.3463 44.4474 41.4109 44.2694L42.7609 40.5494C42.8254 40.3715 42.9849 40.2453 43.1729 40.2233ZM43.3603 41.8291L42.6918 43.671L44.2565 43.1957L43.3603 41.8291Z" fill="#34495E"/>
<path fill-rule="evenodd" clip-rule="evenodd" d="M33.1701 39.3213C33.2634 39.0614 33.5497 38.9262 33.8096 39.0195L43.1196 42.3595C43.3795 42.4527 43.5147 42.739 43.4214 42.999C43.3282 43.2589 43.0419 43.394 42.7819 43.3008L33.4719 39.9608C33.212 39.8675 33.0769 39.5812 33.1701 39.3213Z" fill="#34495E"/>
</svg>
