<svg width="64" height="64" viewBox="0 0 64 64" fill="none" xmlns="http://www.w3.org/2000/svg">
<path d="M26.0008 28.8898C25.7069 28.2388 25.5503 27.5341 25.5408 26.8198C25.522 26.1791 25.6368 25.5415 25.8778 24.9476C26.1189 24.3536 26.4808 23.8163 26.9408 23.3698C27.4429 22.9029 28.0333 22.5412 28.6773 22.3059C29.3213 22.0706 30.0059 21.9665 30.6908 21.9998C31.3284 21.9622 31.9669 22.0554 32.5671 22.2738C33.1673 22.4922 33.7165 22.8312 34.1808 23.2698C34.5802 23.6606 34.8975 24.1273 35.1139 24.6425C35.3303 25.1577 35.4414 25.711 35.4408 26.2698C35.46 27.5941 34.998 28.8803 34.1408 29.8898C33.3933 30.7047 32.5389 31.4145 31.6008 31.9998L35.5108 36.6898C35.7708 35.9365 35.9341 35.3732 36.0008 34.9998C36.0674 34.6265 36.1708 34.0865 36.3108 33.3798H38.8108C38.6513 34.7507 38.3152 36.0952 37.8108 37.3798C37.3174 38.6465 37.0708 39.1565 37.0708 38.9098L40.8808 43.5598H37.5508L35.5508 41.0998C34.9117 41.8309 34.1747 42.4703 33.3608 42.9998C32.1511 43.7153 30.7658 44.079 29.3608 44.0498C27.1208 44.0165 25.4974 43.3965 24.4908 42.1898C23.5168 41.0549 22.9874 39.6053 23.0008 38.1098C22.9408 36.6048 23.4597 35.1341 24.4508 33.9998C25.4613 33.0271 26.5941 32.1901 27.8208 31.5098C27.0907 30.7291 26.4776 29.8465 26.0008 28.8898ZM32.3308 40.8898C33.0343 40.4601 33.6433 39.8919 34.1208 39.2198L29.2708 33.2898C28.2988 33.8871 27.3994 34.5952 26.5908 35.3998C25.9326 36.1358 25.5756 37.0926 25.5908 38.0798C25.5644 38.589 25.6647 39.0967 25.8829 39.5575C26.1011 40.0182 26.4302 40.4176 26.8408 40.7198C27.6024 41.3101 28.5372 41.6334 29.5008 41.6398C30.4934 41.6868 31.4778 41.4398 32.3308 40.9298V40.8898ZM32.1208 28.6898C32.6665 28.1005 32.9792 27.3328 33.0008 26.5298C33.0107 25.9223 32.7849 25.3345 32.3708 24.8898C32.1561 24.659 31.8937 24.4777 31.6019 24.3585C31.31 24.2393 30.9957 24.1852 30.6808 24.1998C30.3564 24.1563 30.0265 24.1837 29.7138 24.2802C29.401 24.3766 29.113 24.5399 28.8696 24.7586C28.6261 24.9773 28.4331 25.2463 28.3038 25.5469C28.1745 25.8476 28.1121 26.1727 28.1208 26.4998C28.1229 27.1042 28.2926 27.6961 28.6108 28.2098C29.0965 28.9616 29.6451 29.6708 30.2508 30.3298C30.9311 29.8707 31.5582 29.3375 32.1208 28.7398V28.6898Z" fill="#34495E"/>
<path d="M17.0191 7.5H8.03906C7.21064 7.5 6.53906 8.17157 6.53906 9V55C6.53906 55.8284 7.21064 56.5 8.03906 56.5H17.0191C17.8475 56.5 18.5191 55.8284 18.5191 55V9C18.5191 8.17157 17.8475 7.5 17.0191 7.5Z" fill="#D3D4F3"/>
<path d="M17 8C17.3023 7.98463 17.6052 8.01156 17.9 8.08C17.9988 8.37598 18.0329 8.68971 18 9V55C18.015 55.3023 17.9881 55.6051 17.92 55.9C17.624 55.9988 17.3103 56.0329 17 56H8C7.69774 56.0154 7.39481 55.9884 7.1 55.92C7.00121 55.624 6.96711 55.3103 7 55V9C6.98502 8.69775 7.01194 8.39487 7.08 8.1C7.37598 8.00121 7.68971 7.96711 8 8H17ZM17 7H8C6.39 7 6 7.35 6 9V55C6 56.65 6.35 57 8 57H17C18.65 57 19 56.65 19 55V9C19 7.35 18.65 7 17 7Z" fill="#666BD1"/>
<path d="M6.53906 15.5V9C6.53906 7.63 6.66906 7.5 8.03906 7.5H17.0391C18.4091 7.5 18.5391 7.63 18.5391 9V15.5H6.53906Z" fill="#ADDFF3"/>
<path d="M17 8C17.3023 7.98463 17.6052 8.01156 17.9 8.08C17.9988 8.37598 18.0329 8.68971 18 9V15H7V9C6.98502 8.69775 7.01194 8.39487 7.08 8.1C7.37598 8.00121 7.68971 7.96711 8 8H17ZM17 7H8C6.39 7 6 7.35 6 9V16H19V9C19 7.35 18.65 7 17 7Z" fill="#2980B9"/>
<g opacity="0.7">
<path opacity="0.7" d="M7.05078 23.74H18.0208" stroke="#666BD1" stroke-linejoin="round"/>
<path opacity="0.7" d="M7.05078 31.49H18.0208" stroke="#666BD1" stroke-linejoin="round"/>
<path opacity="0.7" d="M7.05078 39.23H18.0208" stroke="#666BD1" stroke-linejoin="round"/>
<path opacity="0.7" d="M7.05078 46.97H18.0208" stroke="#666BD1" stroke-linejoin="round"/>
</g>
<path d="M11.2852 18.9001V18.3318C11.5488 18.3201 11.7334 18.3025 11.8389 18.2791C12.0068 18.2419 12.1436 18.1677 12.249 18.0564C12.3213 17.9802 12.376 17.8787 12.4131 17.7517C12.4346 17.6755 12.4453 17.6189 12.4453 17.5818H13.1396V21.8298H12.2842V18.9001H11.2852Z" fill="#34495E"/>
<path d="M11.9092 27.677C11.9092 28.1653 11.9492 28.5393 12.0293 28.7991C12.1094 29.0569 12.2734 29.1858 12.5215 29.1858C12.7695 29.1858 12.9316 29.0569 13.0078 28.7991C13.0859 28.5393 13.125 28.1653 13.125 27.677C13.125 27.1653 13.0859 26.7864 13.0078 26.5403C12.9316 26.2942 12.7695 26.1711 12.5215 26.1711C12.2734 26.1711 12.1094 26.2942 12.0293 26.5403C11.9492 26.7864 11.9092 27.1653 11.9092 27.677ZM12.5215 25.4827C13.0625 25.4827 13.4414 25.6731 13.6582 26.054C13.877 26.4348 13.9863 26.9758 13.9863 27.677C13.9863 28.3782 13.877 28.9182 13.6582 29.2971C13.4414 29.676 13.0625 29.8655 12.5215 29.8655C11.9805 29.8655 11.6006 29.676 11.3818 29.2971C11.165 28.9182 11.0566 28.3782 11.0566 27.677C11.0566 26.9758 11.165 26.4348 11.3818 26.054C11.6006 25.6731 11.9805 25.4827 12.5215 25.4827Z" fill="#34495E"/>
<path d="M11.2852 42.3103V41.7419C11.5488 41.7302 11.7334 41.7126 11.8389 41.6892C12.0068 41.6521 12.1436 41.5779 12.249 41.4666C12.3213 41.3904 12.376 41.2888 12.4131 41.1619C12.4346 41.0857 12.4453 41.0291 12.4453 40.9919H13.1396V45.24H12.2842V42.3103H11.2852Z" fill="#34495E"/>
<path d="M11.9092 35.5369C11.9092 36.0251 11.9492 36.3992 12.0293 36.6589C12.1094 36.9167 12.2734 37.0457 12.5215 37.0457C12.7695 37.0457 12.9316 36.9167 13.0078 36.6589C13.0859 36.3992 13.125 36.0251 13.125 35.5369C13.125 35.0251 13.0859 34.6462 13.0078 34.4001C12.9316 34.1541 12.7695 34.031 12.5215 34.031C12.2734 34.031 12.1094 34.1541 12.0293 34.4001C11.9492 34.6462 11.9092 35.0251 11.9092 35.5369ZM12.5215 33.3425C13.0625 33.3425 13.4414 33.533 13.6582 33.9138C13.877 34.2947 13.9863 34.8357 13.9863 35.5369C13.9863 36.238 13.877 36.7781 13.6582 37.157C13.4414 37.5359 13.0625 37.7253 12.5215 37.7253C11.9805 37.7253 11.6006 37.5359 11.3818 37.157C11.165 36.7781 11.0566 36.238 11.0566 35.5369C11.0566 34.8357 11.165 34.2947 11.3818 33.9138C11.6006 33.533 11.9805 33.3425 12.5215 33.3425Z" fill="#34495E"/>
<path d="M11.9092 51.2471C11.9092 51.7354 11.9492 52.1094 12.0293 52.3691C12.1094 52.627 12.2734 52.7559 12.5215 52.7559C12.7695 52.7559 12.9316 52.627 13.0078 52.3691C13.0859 52.1094 13.125 51.7354 13.125 51.2471C13.125 50.7354 13.0859 50.3564 13.0078 50.1104C12.9316 49.8643 12.7695 49.7412 12.5215 49.7412C12.2734 49.7412 12.1094 49.8643 12.0293 50.1104C11.9492 50.3564 11.9092 50.7354 11.9092 51.2471ZM12.5215 49.0527C13.0625 49.0527 13.4414 49.2432 13.6582 49.624C13.877 50.0049 13.9863 50.5459 13.9863 51.2471C13.9863 51.9482 13.877 52.4883 13.6582 52.8672C13.4414 53.2461 13.0625 53.4355 12.5215 53.4355C11.9805 53.4355 11.6006 53.2461 11.3818 52.8672C11.165 52.4883 11.0566 51.9482 11.0566 51.2471C11.0566 50.5459 11.165 50.0049 11.3818 49.624C11.6006 49.2432 11.9805 49.0527 12.5215 49.0527Z" fill="#34495E"/>
<path d="M55.9507 7.5H46.9707C46.1423 7.5 45.4707 8.17157 45.4707 9V55C45.4707 55.8284 46.1423 56.5 46.9707 56.5H55.9507C56.7791 56.5 57.4507 55.8284 57.4507 55V9C57.4507 8.17157 56.7791 7.5 55.9507 7.5Z" fill="#F0ECB6"/>
<path d="M56 8C56.3023 7.98463 56.6052 8.01156 56.9 8.08C56.9988 8.37598 57.0329 8.68971 57 9V55C57.015 55.3023 56.9881 55.6051 56.92 55.9C56.624 55.9988 56.3103 56.0329 56 56H47C46.6977 56.0154 46.3948 55.9884 46.1 55.92C46.0012 55.624 45.9671 55.3103 46 55V9C45.9586 8.70143 45.9586 8.39858 46 8.1C46.321 7.98924 46.6634 7.955 47 8H56ZM56 7H47C45.35 7 45 7.35 45 9V55C45 56.65 45.35 57 47 57H56C57.65 57 58 56.65 58 55V9C58 7.35 57.65 7 56 7Z" fill="#C18F35"/>
<g opacity="0.7">
<path opacity="0.7" d="M45.9805 23.74H56.9505" stroke="#C18F35" stroke-linejoin="round"/>
<path opacity="0.7" d="M45.9805 31.49H56.9505" stroke="#C18F35" stroke-linejoin="round"/>
<path opacity="0.7" d="M45.9805 39.23H56.9505" stroke="#C18F35" stroke-linejoin="round"/>
<path opacity="0.7" d="M45.9805 46.97H56.9505" stroke="#C18F35" stroke-linejoin="round"/>
</g>
<path d="M50.8408 19.7471C50.8408 20.2353 50.8809 20.6094 50.9609 20.8691C51.041 21.127 51.2051 21.2559 51.4531 21.2559C51.7012 21.2559 51.8633 21.127 51.9395 20.8691C52.0176 20.6094 52.0566 20.2353 52.0566 19.7471C52.0566 19.2354 52.0176 18.8564 51.9395 18.6104C51.8633 18.3643 51.7012 18.2412 51.4531 18.2412C51.2051 18.2412 51.041 18.3643 50.9609 18.6104C50.8809 18.8564 50.8408 19.2354 50.8408 19.7471ZM51.4531 17.5527C51.9941 17.5527 52.373 17.7432 52.5898 18.124C52.8086 18.5049 52.918 19.0459 52.918 19.7471C52.918 20.4482 52.8086 20.9883 52.5898 21.3672C52.373 21.7461 51.9941 21.9355 51.4531 21.9355C50.9121 21.9355 50.5322 21.7461 50.3135 21.3672C50.0967 20.9883 49.9883 20.4482 49.9883 19.7471C49.9883 19.0459 50.0967 18.5049 50.3135 18.124C50.5322 17.7432 50.9121 17.5527 51.4531 17.5527Z" fill="#34495E"/>
<path d="M50.8408 27.677C50.8408 28.1653 50.8809 28.5393 50.9609 28.7991C51.041 29.0569 51.2051 29.1858 51.4531 29.1858C51.7012 29.1858 51.8633 29.0569 51.9395 28.7991C52.0176 28.5393 52.0566 28.1653 52.0566 27.677C52.0566 27.1653 52.0176 26.7864 51.9395 26.5403C51.8633 26.2942 51.7012 26.1711 51.4531 26.1711C51.2051 26.1711 51.041 26.2942 50.9609 26.5403C50.8809 26.7864 50.8408 27.1653 50.8408 27.677ZM51.4531 25.4827C51.9941 25.4827 52.373 25.6731 52.5898 26.054C52.8086 26.4348 52.918 26.9758 52.918 27.677C52.918 28.3782 52.8086 28.9182 52.5898 29.2971C52.373 29.676 51.9941 29.8655 51.4531 29.8655C50.9121 29.8655 50.5322 29.676 50.3135 29.2971C50.0967 28.9182 49.9883 28.3782 49.9883 27.677C49.9883 26.9758 50.0967 26.4348 50.3135 26.054C50.5322 25.6731 50.9121 25.4827 51.4531 25.4827Z" fill="#34495E"/>
<path d="M50.2168 42.3103V41.7419C50.4805 41.7302 50.665 41.7126 50.7705 41.6892C50.9385 41.6521 51.0752 41.5779 51.1807 41.4666C51.2529 41.3904 51.3076 41.2888 51.3447 41.1619C51.3662 41.0857 51.377 41.0291 51.377 40.9919H52.0713V45.24H51.2158V42.3103H50.2168Z" fill="#34495E"/>
<path d="M50.2168 34.6902V34.1218C50.4805 34.1101 50.665 34.0925 50.7705 34.0691C50.9385 34.032 51.0752 33.9578 51.1807 33.8464C51.2529 33.7703 51.3076 33.6687 51.3447 33.5417C51.3662 33.4656 51.377 33.4089 51.377 33.3718H52.0713V37.6199H51.2158V34.6902H50.2168Z" fill="#34495E"/>
<path d="M50.2168 50.4001V49.8318C50.4805 49.8201 50.665 49.8025 50.7705 49.7791C50.9385 49.7419 51.0752 49.6677 51.1807 49.5564C51.2529 49.4802 51.3076 49.3787 51.3447 49.2517C51.3662 49.1755 51.377 49.1189 51.377 49.0818H52.0713V53.3298H51.2158V50.4001H50.2168Z" fill="#34495E"/>
<path d="M45.4707 15.5V9C45.4707 7.63 45.6007 7.5 46.9707 7.5H55.9707C57.3407 7.5 57.4707 7.63 57.4707 9V15.5H45.4707Z" fill="#ADDFF3"/>
<path d="M56 8C56.3023 7.98463 56.6052 8.01156 56.9 8.08C56.9988 8.37598 57.0329 8.68971 57 9V15H46V9C45.9586 8.70143 45.9586 8.39858 46 8.1C46.321 7.98924 46.6634 7.955 47 8H56ZM56 7H47C45.35 7 45 7.35 45 9V16H58V9C58 7.35 57.65 7 56 7Z" fill="#2980B9"/>
</svg>
