<svg width="64" height="64" viewBox="0 0 64 64" fill="none" xmlns="http://www.w3.org/2000/svg">
<path fill-rule="evenodd" clip-rule="evenodd" d="M32 13.8398C33.1046 13.8398 34 14.7353 34 15.8398V48.1598C34 49.2644 33.1046 50.1598 32 50.1598C30.8954 50.1598 30 49.2644 30 48.1598V15.8398C30 14.7353 30.8954 13.8398 32 13.8398Z" fill="#34495E"/>
<path d="M10 56.5C8.63 56.5 8.5 56.37 8.5 55V15.46H20.5V55C20.5 56.37 20.37 56.5 19 56.5H10Z" fill="#D3D4F3"/>
<path d="M20 16V55C20.015 55.3023 19.9881 55.6051 19.92 55.9C19.624 55.9988 19.3103 56.0329 19 56H10C9.69774 56.0154 9.39481 55.9884 9.1 55.92C9.00121 55.624 8.96711 55.3103 9 55V16H20ZM21 15H8V55C8 56.65 8.35 57 10 57H19C20.65 57 21 56.65 21 55V15Z" fill="#666BD1"/>
<path d="M9.00977 23.74H19.9698" stroke="#666BD1" stroke-miterlimit="10"/>
<path d="M9.00977 31.49H19.9698" stroke="#666BD1" stroke-miterlimit="10"/>
<path d="M9.00977 39.23H19.9698" stroke="#666BD1" stroke-miterlimit="10"/>
<path d="M9.00977 46.97H19.9698" stroke="#666BD1" stroke-miterlimit="10"/>
<path d="M13.2363 18.9001V18.3318C13.5 18.3201 13.6846 18.3025 13.79 18.2791C13.958 18.2419 14.0947 18.1677 14.2002 18.0564C14.2725 17.9802 14.3271 17.8787 14.3643 17.7517C14.3857 17.6755 14.3965 17.6189 14.3965 17.5818H15.0908V21.8298H14.2354V18.9001H13.2363Z" fill="#34495E"/>
<path d="M13.8604 27.677C13.8604 28.1653 13.9004 28.5393 13.9805 28.7991C14.0605 29.0569 14.2246 29.1858 14.4727 29.1858C14.7207 29.1858 14.8828 29.0569 14.959 28.7991C15.0371 28.5393 15.0762 28.1653 15.0762 27.677C15.0762 27.1653 15.0371 26.7864 14.959 26.5403C14.8828 26.2942 14.7207 26.1711 14.4727 26.1711C14.2246 26.1711 14.0605 26.2942 13.9805 26.5403C13.9004 26.7864 13.8604 27.1653 13.8604 27.677ZM14.4727 25.4827C15.0137 25.4827 15.3926 25.6731 15.6094 26.054C15.8281 26.4348 15.9375 26.9758 15.9375 27.677C15.9375 28.3782 15.8281 28.9182 15.6094 29.2971C15.3926 29.676 15.0137 29.8655 14.4727 29.8655C13.9316 29.8655 13.5518 29.676 13.333 29.2971C13.1162 28.9182 13.0078 28.3782 13.0078 27.677C13.0078 26.9758 13.1162 26.4348 13.333 26.054C13.5518 25.6731 13.9316 25.4827 14.4727 25.4827Z" fill="#34495E"/>
<path d="M13.2363 42.3103V41.7419C13.5 41.7302 13.6846 41.7126 13.79 41.6892C13.958 41.6521 14.0947 41.5779 14.2002 41.4666C14.2725 41.3904 14.3271 41.2888 14.3643 41.1619C14.3857 41.0857 14.3965 41.0291 14.3965 40.9919H15.0908V45.24H14.2354V42.3103H13.2363Z" fill="#34495E"/>
<path d="M13.8604 35.5369C13.8604 36.0251 13.9004 36.3992 13.9805 36.6589C14.0605 36.9167 14.2246 37.0457 14.4727 37.0457C14.7207 37.0457 14.8828 36.9167 14.959 36.6589C15.0371 36.3992 15.0762 36.0251 15.0762 35.5369C15.0762 35.0251 15.0371 34.6462 14.959 34.4001C14.8828 34.1541 14.7207 34.031 14.4727 34.031C14.2246 34.031 14.0605 34.1541 13.9805 34.4001C13.9004 34.6462 13.8604 35.0251 13.8604 35.5369ZM14.4727 33.3425C15.0137 33.3425 15.3926 33.533 15.6094 33.9138C15.8281 34.2947 15.9375 34.8357 15.9375 35.5369C15.9375 36.238 15.8281 36.7781 15.6094 37.157C15.3926 37.5359 15.0137 37.7253 14.4727 37.7253C13.9316 37.7253 13.5518 37.5359 13.333 37.157C13.1162 36.7781 13.0078 36.238 13.0078 35.5369C13.0078 34.8357 13.1162 34.2947 13.333 33.9138C13.5518 33.533 13.9316 33.3425 14.4727 33.3425Z" fill="#34495E"/>
<path d="M13.8604 51.2471C13.8604 51.7354 13.9004 52.1094 13.9805 52.3691C14.0605 52.627 14.2246 52.7559 14.4727 52.7559C14.7207 52.7559 14.8828 52.627 14.959 52.3691C15.0371 52.1094 15.0762 51.7354 15.0762 51.2471C15.0762 50.7354 15.0371 50.3564 14.959 50.1104C14.8828 49.8643 14.7207 49.7412 14.4727 49.7412C14.2246 49.7412 14.0605 49.8643 13.9805 50.1104C13.9004 50.3564 13.8604 50.7354 13.8604 51.2471ZM14.4727 49.0527C15.0137 49.0527 15.3926 49.2432 15.6094 49.624C15.8281 50.0049 15.9375 50.5459 15.9375 51.2471C15.9375 51.9482 15.8281 52.4883 15.6094 52.8672C15.3926 53.2461 15.0137 53.4355 14.4727 53.4355C13.9316 53.4355 13.5518 53.2461 13.333 52.8672C13.1162 52.4883 13.0078 51.9482 13.0078 51.2471C13.0078 50.5459 13.1162 50.0049 13.333 49.624C13.5518 49.2432 13.9316 49.0527 14.4727 49.0527Z" fill="#34495E"/>
<path d="M8.5 15.5V9C8.5 7.63 8.63 7.5 10 7.5H19C20.37 7.5 20.5 7.63 20.5 9V15.5H8.5Z" fill="#ADDFF3"/>
<path d="M19 8C19.3023 7.98463 19.6052 8.01156 19.9 8.08C19.9991 8.37591 20.0332 8.68971 20 9V15H9V9C8.98502 8.69775 9.01194 8.39487 9.08 8.1C9.37598 8.00121 9.68971 7.96711 10 8H19ZM19 7H10C8.35 7 8 7.35 8 9V16H21V9C21 7.35 20.65 7 19 7Z" fill="#2980B9"/>
<path d="M45 56.5C43.63 56.5 43.5 56.37 43.5 55V15.46H55.5V55C55.5 56.37 55.37 56.5 54 56.5H45Z" fill="#F0ECB6"/>
<path d="M55 16V55C55.015 55.3023 54.9881 55.6051 54.92 55.9C54.624 55.9988 54.3103 56.0329 54 56H45C44.6977 56.0154 44.3948 55.9884 44.1 55.92C44.0012 55.624 43.9671 55.3103 44 55V16H55ZM56 15H43V55C43 56.65 43.35 57 45 57H54C55.65 57 56 56.65 56 55V15Z" fill="#C18F35"/>
<g opacity="0.7">
<path opacity="0.7" d="M44.0293 23.74H54.9893" stroke="#C18F35" stroke-linejoin="round"/>
<path opacity="0.7" d="M44.0293 31.49H54.9893" stroke="#C18F35" stroke-linejoin="round"/>
<path opacity="0.7" d="M44.0293 39.23H54.9893" stroke="#C18F35" stroke-linejoin="round"/>
<path opacity="0.7" d="M44.0293 46.97H54.9893" stroke="#C18F35" stroke-linejoin="round"/>
</g>
<path d="M48.8799 19.7471C48.8799 20.2353 48.9199 20.6094 49 20.8691C49.0801 21.127 49.2441 21.2559 49.4922 21.2559C49.7402 21.2559 49.9023 21.127 49.9785 20.8691C50.0566 20.6094 50.0957 20.2353 50.0957 19.7471C50.0957 19.2354 50.0566 18.8564 49.9785 18.6104C49.9023 18.3643 49.7402 18.2412 49.4922 18.2412C49.2441 18.2412 49.0801 18.3643 49 18.6104C48.9199 18.8564 48.8799 19.2354 48.8799 19.7471ZM49.4922 17.5527C50.0332 17.5527 50.4121 17.7432 50.6289 18.124C50.8477 18.5049 50.957 19.0459 50.957 19.7471C50.957 20.4482 50.8477 20.9883 50.6289 21.3672C50.4121 21.7461 50.0332 21.9355 49.4922 21.9355C48.9512 21.9355 48.5713 21.7461 48.3525 21.3672C48.1357 20.9883 48.0273 20.4482 48.0273 19.7471C48.0273 19.0459 48.1357 18.5049 48.3525 18.124C48.5713 17.7432 48.9512 17.5527 49.4922 17.5527Z" fill="#34495E"/>
<path d="M48.8799 27.677C48.8799 28.1653 48.9199 28.5393 49 28.7991C49.0801 29.0569 49.2441 29.1858 49.4922 29.1858C49.7402 29.1858 49.9023 29.0569 49.9785 28.7991C50.0566 28.5393 50.0957 28.1653 50.0957 27.677C50.0957 27.1653 50.0566 26.7864 49.9785 26.5403C49.9023 26.2942 49.7402 26.1711 49.4922 26.1711C49.2441 26.1711 49.0801 26.2942 49 26.5403C48.9199 26.7864 48.8799 27.1653 48.8799 27.677ZM49.4922 25.4827C50.0332 25.4827 50.4121 25.6731 50.6289 26.054C50.8477 26.4348 50.957 26.9758 50.957 27.677C50.957 28.3782 50.8477 28.9182 50.6289 29.2971C50.4121 29.676 50.0332 29.8655 49.4922 29.8655C48.9512 29.8655 48.5713 29.676 48.3525 29.2971C48.1357 28.9182 48.0273 28.3782 48.0273 27.677C48.0273 26.9758 48.1357 26.4348 48.3525 26.054C48.5713 25.6731 48.9512 25.4827 49.4922 25.4827Z" fill="#34495E"/>
<path d="M48.2559 42.3103V41.7419C48.5195 41.7302 48.7041 41.7126 48.8096 41.6892C48.9775 41.6521 49.1143 41.5779 49.2197 41.4666C49.292 41.3904 49.3467 41.2888 49.3838 41.1619C49.4053 41.0857 49.416 41.0291 49.416 40.9919H50.1104V45.24H49.2549V42.3103H48.2559Z" fill="#34495E"/>
<path d="M48.2559 34.6902V34.1218C48.5195 34.1101 48.7041 34.0925 48.8096 34.0691C48.9775 34.032 49.1143 33.9578 49.2197 33.8464C49.292 33.7703 49.3467 33.6687 49.3838 33.5417C49.4053 33.4656 49.416 33.4089 49.416 33.3718H50.1104V37.6199H49.2549V34.6902H48.2559Z" fill="#34495E"/>
<path d="M48.2559 50.4001V49.8318C48.5195 49.8201 48.7041 49.8025 48.8096 49.7791C48.9775 49.7419 49.1143 49.6677 49.2197 49.5564C49.292 49.4802 49.3467 49.3787 49.3838 49.2517C49.4053 49.1755 49.416 49.1189 49.416 49.0818H50.1104V53.3298H49.2549V50.4001H48.2559Z" fill="#34495E"/>
<path d="M43.5195 15.5V9C43.5195 7.63 43.6495 7.5 45.0195 7.5H54.0195C55.3895 7.5 55.5195 7.63 55.5195 9V15.5H43.5195Z" fill="#ADDFF3"/>
<path d="M54 8C54.3023 7.98463 54.6052 8.01156 54.9 8.08C54.9988 8.37598 55.0329 8.68971 55 9V15H44V9C43.985 8.69775 44.0119 8.39487 44.08 8.1C44.376 8.00121 44.6897 7.96711 45 8H54ZM54 7H45C43.35 7 43 7.35 43 9V16H56V9C56 7.35 55.65 7 54 7Z" fill="#2980B9"/>
</svg>
