<svg width="64" height="64" viewBox="0 0 64 64" fill="none" xmlns="http://www.w3.org/2000/svg">
<path d="M37 56.5C35.63 56.5 35.5 56.37 35.5 55V9C35.5 8.1 35.93 7.5 38 7.5H55C57.07 7.5 57.5 8.1 57.5 9V55C57.5 56.37 57.37 56.5 56 56.5H37Z" fill="#F0ECB6"/>
<path d="M55 8C57 8 57 8.55 57 9V55C57.015 55.3023 56.9881 55.6051 56.92 55.9C56.624 55.9988 56.3103 56.0329 56 56H37C36.6977 56.0154 36.3948 55.9884 36.1 55.92C36.0009 55.6241 35.9668 55.3103 36 55V9C36 8.55 36 8 38 8H55ZM55 7H38C36.35 7 35 7.35 35 9V55C35 56.65 35.35 57 37 57H56C57.65 57 58 56.65 58 55V9C58 7.35 56.65 7 55 7Z" fill="#C18F35"/>
<g opacity="0.7">
<path opacity="0.7" d="M35.9805 23.74H56.9405" stroke="#C18F35" stroke-linejoin="round"/>
<path opacity="0.7" d="M35.9805 31.49H56.9405" stroke="#C18F35" stroke-linejoin="round"/>
<path opacity="0.7" d="M35.9805 39.23H56.9405" stroke="#C18F35" stroke-linejoin="round"/>
<path opacity="0.7" d="M35.9805 46.97H56.9405" stroke="#C18F35" stroke-linejoin="round"/>
</g>
<g opacity="0.7">
<path opacity="0.7" d="M50.041 16V56.11" stroke="#C18F35" stroke-linejoin="round"/>
<path opacity="0.7" d="M43.0703 16V56.11" stroke="#C18F35" stroke-linejoin="round"/>
</g>
<path d="M35.4707 15.5V9C35.4707 7.63 35.6007 7.5 36.9707 7.5H56.0007C57.3707 7.5 57.5007 7.63 57.5007 9V15.5H35.4707Z" fill="#ADDFF3"/>
<path d="M56 8C56.3023 7.98463 56.6052 8.01156 56.9 8.08C56.9988 8.37598 57.0329 8.68971 57 9V15H36V9C35.9586 8.70143 35.9586 8.39858 36 8.1C36.321 7.98924 36.6634 7.955 37 8H56ZM56 7H37C35.35 7 35 7.35 35 9V16H58V9C58 7.35 57.65 7 56 7Z" fill="#2980B9"/>
<path d="M36.7109 25L41.8309 25.08V30.47L36.7109 30.39V25Z" fill="#34495E"/>
<path d="M51.0703 40.48L56.1903 40.56V46L51.0703 45.92V40.48Z" fill="#34495E"/>
<path d="M8 56.5C6.63 56.5 6.5 56.37 6.5 55V10C6.5 7.93 7.1 7.5 8 7.5H17C17.9 7.5 18.5 7.93 18.5 10V55C18.5 56.37 18.37 56.5 17 56.5H8Z" fill="#D3D4F3"/>
<path d="M17 8C17.45 8 18 8 18 10V55C18.015 55.3023 17.9881 55.6051 17.92 55.9C17.624 55.9988 17.3103 56.0329 17 56H8C7.69774 56.0154 7.39481 55.9884 7.1 55.92C7.00121 55.624 6.96711 55.3103 7 55V10C7 8 7.55 8 8 8H17ZM17 7H8C6.35 7 6 8.35 6 10V55C6 56.65 6.35 57 8 57H17C18.65 57 19 56.65 19 55V10C19 8.35 18.65 7 17 7Z" fill="#666BD1"/>
<path d="M6.5 15.5V9C6.5 7.63 6.63 7.5 8 7.5H17C18.37 7.5 18.5 7.63 18.5 9V15.5H6.5Z" fill="#ADDFF3"/>
<path d="M17 8C17.3023 7.98463 17.6052 8.01156 17.9 8.08C17.9991 8.37591 18.0332 8.68971 18 9V15H7V9C6.98502 8.69775 7.01194 8.39487 7.08 8.1C7.37598 8.00121 7.68971 7.96711 8 8H17ZM17 7H8C6.35 7 6 7.35 6 9V16H19V9C19 7.35 18.65 7 17 7Z" fill="#2980B9"/>
<g opacity="0.7">
<path opacity="0.7" d="M7.00977 23.74H17.9698" stroke="#666BD1" stroke-linejoin="round"/>
<path opacity="0.7" d="M7.00977 31.49H17.9698" stroke="#666BD1" stroke-linejoin="round"/>
<path opacity="0.7" d="M7.00977 39.23H17.9698" stroke="#666BD1" stroke-linejoin="round"/>
<path opacity="0.7" d="M7.00977 46.97H17.9698" stroke="#666BD1" stroke-linejoin="round"/>
</g>
<path d="M11.2363 18.9001V18.3318C11.5 18.3201 11.6846 18.3025 11.79 18.2791C11.958 18.2419 12.0947 18.1677 12.2002 18.0564C12.2725 17.9802 12.3271 17.8787 12.3643 17.7517C12.3857 17.6755 12.3965 17.6189 12.3965 17.5818H13.0908V21.8298H12.2354V18.9001H11.2363Z" fill="#34495E"/>
<path d="M11.8604 27.677C11.8604 28.1653 11.9004 28.5393 11.9805 28.7991C12.0605 29.0569 12.2246 29.1858 12.4727 29.1858C12.7207 29.1858 12.8828 29.0569 12.959 28.7991C13.0371 28.5393 13.0762 28.1653 13.0762 27.677C13.0762 27.1653 13.0371 26.7864 12.959 26.5403C12.8828 26.2942 12.7207 26.1711 12.4727 26.1711C12.2246 26.1711 12.0605 26.2942 11.9805 26.5403C11.9004 26.7864 11.8604 27.1653 11.8604 27.677ZM12.4727 25.4827C13.0137 25.4827 13.3926 25.6731 13.6094 26.054C13.8281 26.4348 13.9375 26.9758 13.9375 27.677C13.9375 28.3782 13.8281 28.9182 13.6094 29.2971C13.3926 29.676 13.0137 29.8655 12.4727 29.8655C11.9316 29.8655 11.5518 29.676 11.333 29.2971C11.1162 28.9182 11.0078 28.3782 11.0078 27.677C11.0078 26.9758 11.1162 26.4348 11.333 26.054C11.5518 25.6731 11.9316 25.4827 12.4727 25.4827Z" fill="#34495E"/>
<path d="M11.2363 42.3103V41.7419C11.5 41.7302 11.6846 41.7126 11.79 41.6892C11.958 41.6521 12.0947 41.5779 12.2002 41.4666C12.2725 41.3904 12.3271 41.2888 12.3643 41.1619C12.3857 41.0857 12.3965 41.0291 12.3965 40.9919H13.0908V45.24H12.2354V42.3103H11.2363Z" fill="#34495E"/>
<path d="M11.8604 35.5369C11.8604 36.0251 11.9004 36.3992 11.9805 36.6589C12.0605 36.9167 12.2246 37.0457 12.4727 37.0457C12.7207 37.0457 12.8828 36.9167 12.959 36.6589C13.0371 36.3992 13.0762 36.0251 13.0762 35.5369C13.0762 35.0251 13.0371 34.6462 12.959 34.4001C12.8828 34.1541 12.7207 34.031 12.4727 34.031C12.2246 34.031 12.0605 34.1541 11.9805 34.4001C11.9004 34.6462 11.8604 35.0251 11.8604 35.5369ZM12.4727 33.3425C13.0137 33.3425 13.3926 33.533 13.6094 33.9138C13.8281 34.2947 13.9375 34.8357 13.9375 35.5369C13.9375 36.238 13.8281 36.7781 13.6094 37.157C13.3926 37.5359 13.0137 37.7253 12.4727 37.7253C11.9316 37.7253 11.5518 37.5359 11.333 37.157C11.1162 36.7781 11.0078 36.238 11.0078 35.5369C11.0078 34.8357 11.1162 34.2947 11.333 33.9138C11.5518 33.533 11.9316 33.3425 12.4727 33.3425Z" fill="#34495E"/>
<path d="M11.8604 51.2471C11.8604 51.7354 11.9004 52.1094 11.9805 52.3691C12.0605 52.627 12.2246 52.7559 12.4727 52.7559C12.7207 52.7559 12.8828 52.627 12.959 52.3691C13.0371 52.1094 13.0762 51.7354 13.0762 51.2471C13.0762 50.7354 13.0371 50.3564 12.959 50.1104C12.8828 49.8643 12.7207 49.7412 12.4727 49.7412C12.2246 49.7412 12.0605 49.8643 11.9805 50.1104C11.9004 50.3564 11.8604 50.7354 11.8604 51.2471ZM12.4727 49.0527C13.0137 49.0527 13.3926 49.2432 13.6094 49.624C13.8281 50.0049 13.9375 50.5459 13.9375 51.2471C13.9375 51.9482 13.8281 52.4883 13.6094 52.8672C13.3926 53.2461 13.0137 53.4355 12.4727 53.4355C11.9316 53.4355 11.5518 53.2461 11.333 52.8672C11.1162 52.4883 11.0078 51.9482 11.0078 51.2471C11.0078 50.5459 11.1162 50.0049 11.333 49.624C11.5518 49.2432 11.9316 49.0527 12.4727 49.0527Z" fill="#34495E"/>
<path d="M17.8105 27.49L21.1905 24.96V30.02L17.8105 27.49Z" fill="#528D19"/>
<path fill-rule="evenodd" clip-rule="evenodd" d="M21.4144 24.5129C21.5836 24.5976 21.6905 24.7707 21.6905 24.96V30.02C21.6905 30.2093 21.5836 30.3823 21.4144 30.4671C21.2451 30.5518 21.0425 30.5337 20.8909 30.4202L17.5109 27.8902C17.3848 27.7958 17.3105 27.6475 17.3105 27.49C17.3105 27.3324 17.3848 27.1841 17.5109 27.0897L20.8909 24.5597C21.0425 24.4462 21.2451 24.4281 21.4144 24.5129ZM18.6449 27.49L20.6905 29.0211V25.9588L18.6449 27.49Z" fill="#528D19"/>
<path fill-rule="evenodd" clip-rule="evenodd" d="M20.1895 27.49C20.1895 26.9377 20.6372 26.49 21.1895 26.49H36.1595C36.7117 26.49 37.1595 26.9377 37.1595 27.49C37.1595 28.0423 36.7117 28.49 36.1595 28.49H21.1895C20.6372 28.49 20.1895 28.0423 20.1895 27.49Z" fill="#528D19"/>
<path d="M17.8105 43.01L21.1905 40.48V45.54L17.8105 43.01Z" fill="#528D19"/>
<path fill-rule="evenodd" clip-rule="evenodd" d="M21.4144 40.0329C21.5836 40.1176 21.6905 40.2907 21.6905 40.48V45.54C21.6905 45.7293 21.5836 45.9024 21.4144 45.9871C21.2451 46.0718 21.0425 46.0537 20.8909 45.9403L17.5109 43.4103C17.3848 43.3159 17.3105 43.1675 17.3105 43.01C17.3105 42.8524 17.3848 42.7041 17.5109 42.6097L20.8909 40.0797C21.0425 39.9663 21.2451 39.9481 21.4144 40.0329ZM18.6449 43.01L20.6905 44.5412V41.4788L18.6449 43.01Z" fill="#528D19"/>
<path fill-rule="evenodd" clip-rule="evenodd" d="M20.1895 43.01C20.1895 42.4577 20.6372 42.01 21.1895 42.01H50.0395C50.5917 42.01 51.0395 42.4577 51.0395 43.01C51.0395 43.5623 50.5917 44.01 50.0395 44.01H21.1895C20.6372 44.01 20.1895 43.5623 20.1895 43.01Z" fill="#528D19"/>
<path d="M30.4695 51.6801L27.9395 48.3H32.9995L30.4695 51.6801Z" fill="#2980B9" stroke="#2980B9" stroke-linejoin="round"/>
<path fill-rule="evenodd" clip-rule="evenodd" d="M30.4707 16.3198C31.023 16.3198 31.4707 16.7675 31.4707 17.3198V48.2998C31.4707 48.8521 31.023 49.2998 30.4707 49.2998C29.9184 49.2998 29.4707 48.8521 29.4707 48.2998V17.3198C29.4707 16.7675 29.9184 16.3198 30.4707 16.3198Z" fill="#2980B9"/>
</svg>
