<svg width="64" height="64" viewBox="0 0 64 64" fill="none" xmlns="http://www.w3.org/2000/svg">
<path d="M37 54.5C35.63 54.5 35.5 54.37 35.5 53V16.5H57.5V53C57.5 54.37 57.37 54.5 56 54.5H37Z" fill="#F0ECB6"/>
<path d="M57 17V53C57.015 53.3023 56.9881 53.6051 56.92 53.9C56.624 53.9988 56.3103 54.0329 56 54H37C36.6977 54.0154 36.3948 53.9884 36.1 53.92C36.0009 53.6241 35.9668 53.3103 36 53V17H57ZM58 16H35V53C35 54.65 35.35 55 37 55H56C57.65 55 58 54.65 58 53V16Z" fill="#C18F35"/>
<g opacity="0.7">
<path opacity="0.7" d="M36.0293 23.74H56.9893" stroke="#C18F35" stroke-linejoin="round"/>
<path opacity="0.7" d="M36.0293 31.49H56.9893" stroke="#C18F35" stroke-linejoin="round"/>
<path opacity="0.7" d="M36.0293 39.23H56.9893" stroke="#C18F35" stroke-linejoin="round"/>
<path opacity="0.7" d="M36.0293 46.97H56.9893" stroke="#C18F35" stroke-linejoin="round"/>
</g>
<g opacity="0.7">
<path opacity="0.7" d="M50.0801 17V54.11" stroke="#C18F35" stroke-linejoin="round"/>
<path opacity="0.7" d="M43.1191 17V54.11" stroke="#C18F35" stroke-linejoin="round"/>
</g>
<path d="M35.5195 16.5V10C35.5195 9.1 35.9495 8.5 38.0195 8.5H55.9995C57.3695 8.5 57.4995 8.63 57.4995 10V16.5H35.5195Z" fill="#ADDFF3"/>
<path d="M56 9C56.3023 8.98463 56.6052 9.01156 56.9 9.08C56.9988 9.37598 57.0329 9.68971 57 10V16H36V10C36 9.55 36 9 38 9H56ZM56 8H38C36.35 8 35 8.35 35 10V17H58V10C58 8.35 57.65 8 56 8Z" fill="#2980B9"/>
<path d="M36.7598 25L41.8798 25.08V30.47L36.7598 30.39V25Z" fill="#34495E"/>
<path d="M36.7598 40.48L41.8798 40.56V46L36.7598 45.92V40.48Z" fill="#34495E"/>
<path d="M30.1997 51.6801L27.6797 48.3H32.7297L30.1997 51.6801Z" fill="#34495E"/>
<path fill-rule="evenodd" clip-rule="evenodd" d="M27.2328 48.0758C27.3176 47.9068 27.4906 47.8 27.6797 47.8H32.7297C32.919 47.8 33.0921 47.907 33.1768 48.0762C33.2615 48.2455 33.2434 48.4481 33.13 48.5997L30.6 51.9797C30.5055 52.1059 30.3569 52.1802 30.1992 52.1801C30.0415 52.1799 29.8931 52.1054 29.7988 51.9789L27.2788 48.5989C27.1658 48.4473 27.148 48.2448 27.2328 48.0758ZM28.6761 48.8L30.2005 50.8446L31.7309 48.8H28.6761Z" fill="#34495E"/>
<path fill-rule="evenodd" clip-rule="evenodd" d="M30.1992 16.3198C30.7515 16.3198 31.1992 16.7675 31.1992 17.3198V48.2998C31.1992 48.8521 30.7515 49.2998 30.1992 49.2998C29.6469 49.2998 29.1992 48.8521 29.1992 48.2998V17.3198C29.1992 16.7675 29.6469 16.3198 30.1992 16.3198Z" fill="#34495E"/>
<path d="M10 54.5C8.63 54.5 8.5 54.37 8.5 53V16.5H20.5V53C20.5 54.37 20.37 54.5 19 54.5H10Z" fill="#D3D4F3"/>
<path d="M20 17V53C20.015 53.3023 19.9881 53.6051 19.92 53.9C19.624 53.9988 19.3103 54.0329 19 54H10C9.69774 54.0154 9.39481 53.9884 9.1 53.92C9.00121 53.624 8.96711 53.3103 9 53V17H20ZM21 16H8V53C8 54.65 8.35 55 10 55H19C20.65 55 21 54.65 21 53V16Z" fill="#666BD1"/>
<path d="M8.5 16.5V10C8.5 8.63 8.63 8.5 10 8.5H19C20.37 8.5 20.5 8.63 20.5 10V16.5H8.5Z" fill="#ADDFF3"/>
<path d="M19 9C19.3023 8.98463 19.6052 9.01156 19.9 9.08C19.9991 9.37591 20.0332 9.68971 20 10V16H9V10C8.98502 9.69775 9.01194 9.39487 9.08 9.1C9.37598 9.00121 9.68971 8.96711 10 9H19ZM19 8H10C8.35 8 8 8.35 8 10V17H21V10C21 8.35 20.65 8 19 8Z" fill="#2980B9"/>
<path d="M9 23.74H19.99" stroke="#666BD1" stroke-miterlimit="10"/>
<path d="M9 31.49H19.99" stroke="#666BD1" stroke-miterlimit="10"/>
<path d="M9 39.23H19.99" stroke="#666BD1" stroke-miterlimit="10"/>
<path d="M9 46.98H19.99" stroke="#666BD1" stroke-miterlimit="10"/>
<path d="M17.8105 27.49L21.1905 24.96V30.02L17.8105 27.49Z" fill="#528D19"/>
<path fill-rule="evenodd" clip-rule="evenodd" d="M21.4144 24.5129C21.5836 24.5976 21.6905 24.7707 21.6905 24.96V30.02C21.6905 30.2093 21.5836 30.3823 21.4144 30.4671C21.2451 30.5518 21.0425 30.5337 20.8909 30.4202L17.5109 27.8902C17.3848 27.7958 17.3105 27.6475 17.3105 27.49C17.3105 27.3324 17.3848 27.1841 17.5109 27.0897L20.8909 24.5597C21.0425 24.4462 21.2451 24.4281 21.4144 24.5129ZM18.6449 27.49L20.6905 29.0211V25.9588L18.6449 27.49Z" fill="#528D19"/>
<path fill-rule="evenodd" clip-rule="evenodd" d="M20.1895 27.49C20.1895 26.9377 20.6372 26.49 21.1895 26.49H36.1595C36.7117 26.49 37.1595 26.9377 37.1595 27.49C37.1595 28.0423 36.7117 28.49 36.1595 28.49H21.1895C20.6372 28.49 20.1895 28.0423 20.1895 27.49Z" fill="#528D19"/>
<path d="M17.8105 43.2202L21.1905 40.6902V45.7502L17.8105 43.2202Z" fill="#528D19"/>
<path fill-rule="evenodd" clip-rule="evenodd" d="M21.4144 40.2431C21.5836 40.3278 21.6905 40.5009 21.6905 40.6902V45.7502C21.6905 45.9395 21.5836 46.1126 21.4144 46.1973C21.2451 46.282 21.0425 46.2639 20.8909 46.1505L17.5109 43.6205C17.3848 43.5261 17.3105 43.3777 17.3105 43.2202C17.3105 43.0626 17.3848 42.9143 17.5109 42.8199L20.8909 40.2899C21.0425 40.1765 21.2451 40.1583 21.4144 40.2431ZM18.6449 43.2202L20.6905 44.7514V41.689L18.6449 43.2202Z" fill="#528D19"/>
<path d="M21.1895 43.22H36.1595" stroke="#528D19" stroke-width="2" stroke-linecap="round" stroke-linejoin="round"/>
<path d="M13.8604 20.3669C13.8604 20.8552 13.9004 21.2293 13.9805 21.489C14.0605 21.7468 14.2246 21.8757 14.4727 21.8757C14.7207 21.8757 14.8828 21.7468 14.959 21.489C15.0371 21.2293 15.0762 20.8552 15.0762 20.3669C15.0762 19.8552 15.0371 19.4763 14.959 19.2302C14.8828 18.9841 14.7207 18.8611 14.4727 18.8611C14.2246 18.8611 14.0605 18.9841 13.9805 19.2302C13.9004 19.4763 13.8604 19.8552 13.8604 20.3669ZM14.4727 18.1726C15.0137 18.1726 15.3926 18.363 15.6094 18.7439C15.8281 19.1248 15.9375 19.6658 15.9375 20.3669C15.9375 21.0681 15.8281 21.6082 15.6094 21.9871C15.3926 22.366 15.0137 22.5554 14.4727 22.5554C13.9316 22.5554 13.5518 22.366 13.333 21.9871C13.1162 21.6082 13.0078 21.0681 13.0078 20.3669C13.0078 19.6658 13.1162 19.1248 13.333 18.7439C13.5518 18.363 13.9316 18.1726 14.4727 18.1726Z" fill="#34495E"/>
<path d="M13.2363 27.0903V26.522C13.5 26.5103 13.6846 26.4927 13.79 26.4692C13.958 26.4321 14.0947 26.3579 14.2002 26.2466C14.2725 26.1704 14.3271 26.0688 14.3643 25.9419C14.3857 25.8657 14.3965 25.8091 14.3965 25.772H15.0908V30.02H14.2354V27.0903H13.2363Z" fill="#34495E"/>
<path d="M13.2363 42.3103V41.7419C13.5 41.7302 13.6846 41.7126 13.79 41.6892C13.958 41.6521 14.0947 41.5779 14.2002 41.4666C14.2725 41.3904 14.3271 41.2888 14.3643 41.1619C14.3857 41.0857 14.3965 41.0291 14.3965 40.9919H15.0908V45.24H14.2354V42.3103H13.2363Z" fill="#34495E"/>
<path d="M13.8604 35.2471C13.8604 35.7354 13.9004 36.1094 13.9805 36.3691C14.0605 36.627 14.2246 36.7559 14.4727 36.7559C14.7207 36.7559 14.8828 36.627 14.959 36.3691C15.0371 36.1094 15.0762 35.7354 15.0762 35.2471C15.0762 34.7354 15.0371 34.3564 14.959 34.1104C14.8828 33.8643 14.7207 33.7412 14.4727 33.7412C14.2246 33.7412 14.0605 33.8643 13.9805 34.1104C13.9004 34.3564 13.8604 34.7354 13.8604 35.2471ZM14.4727 33.0527C15.0137 33.0527 15.3926 33.2432 15.6094 33.624C15.8281 34.0049 15.9375 34.5459 15.9375 35.2471C15.9375 35.9482 15.8281 36.4883 15.6094 36.8672C15.3926 37.2461 15.0137 37.4355 14.4727 37.4355C13.9316 37.4355 13.5518 37.2461 13.333 36.8672C13.1162 36.4883 13.0078 35.9482 13.0078 35.2471C13.0078 34.5459 13.1162 34.0049 13.333 33.624C13.5518 33.2432 13.9316 33.0527 14.4727 33.0527Z" fill="#34495E"/>
<path d="M13.8604 50.647C13.8604 51.1353 13.9004 51.5093 13.9805 51.7691C14.0605 52.0269 14.2246 52.1558 14.4727 52.1558C14.7207 52.1558 14.8828 52.0269 14.959 51.7691C15.0371 51.5093 15.0762 51.1353 15.0762 50.647C15.0762 50.1353 15.0371 49.7564 14.959 49.5103C14.8828 49.2642 14.7207 49.1411 14.4727 49.1411C14.2246 49.1411 14.0605 49.2642 13.9805 49.5103C13.9004 49.7564 13.8604 50.1353 13.8604 50.647ZM14.4727 48.4526C15.0137 48.4526 15.3926 48.6431 15.6094 49.0239C15.8281 49.4048 15.9375 49.9458 15.9375 50.647C15.9375 51.3482 15.8281 51.8882 15.6094 52.2671C15.3926 52.646 15.0137 52.8355 14.4727 52.8355C13.9316 52.8355 13.5518 52.646 13.333 52.2671C13.1162 51.8882 13.0078 51.3482 13.0078 50.647C13.0078 49.9458 13.1162 49.4048 13.333 49.0239C13.5518 48.6431 13.9316 48.4526 14.4727 48.4526Z" fill="#34495E"/>
</svg>
