<svg width="64" height="64" viewBox="0 0 64 64" fill="none" xmlns="http://www.w3.org/2000/svg">
<path d="M9.97024 50.7499L6.49023 46.0999H13.4502L9.97024 50.7499Z" fill="#2980B9"/>
<path fill-rule="evenodd" clip-rule="evenodd" d="M6.04314 45.876C6.12788 45.7068 6.30094 45.5999 6.49024 45.5999H13.4502C13.6395 45.5999 13.8126 45.7068 13.8973 45.876C13.9821 46.0453 13.964 46.2479 13.8505 46.3994L10.3705 51.0494C10.2761 51.1756 10.1278 51.2499 9.97024 51.2499C9.81268 51.2499 9.66433 51.1756 9.56993 51.0494L6.08993 46.3994C5.97651 46.2479 5.9584 46.0453 6.04314 45.876ZM7.48895 46.5999L9.97024 49.9154L12.4515 46.5999H7.48895Z" fill="#2980B9"/>
<path fill-rule="evenodd" clip-rule="evenodd" d="M9.9707 14.76C10.523 14.76 10.9707 15.2077 10.9707 15.76V46.74C10.9707 47.2923 10.523 47.74 9.9707 47.74C9.41842 47.74 8.9707 47.2923 8.9707 46.74V15.76C8.9707 15.2077 9.41842 14.76 9.9707 14.76Z" fill="#2980B9"/>
<path d="M18 57.44C16.63 57.44 16.5 57.31 16.5 55.94V15.5H57.5V55.94C57.5 57.31 57.37 57.44 56 57.44H18Z" fill="#CAF0B7"/>
<path d="M57 16V55.94C57.015 56.2422 56.9881 56.5451 56.92 56.84C56.624 56.9388 56.3103 56.9729 56 56.94H18C17.6977 56.9554 17.3948 56.9284 17.1 56.86C17.0012 56.564 16.9671 56.2503 17 55.94V16H57ZM58 15H16V55.94C16 57.59 16.35 57.94 18 57.94H56C57.65 57.94 58 57.59 58 55.94V15Z" fill="#36C13D"/>
<g opacity="0.7">
<path opacity="0.7" d="M24.6992 56.9402V15.9402" stroke="#36C13D" stroke-linejoin="round"/>
<path opacity="0.7" d="M41.0996 56.9402V15.9402" stroke="#36C13D" stroke-linejoin="round"/>
<path opacity="0.7" d="M32.9004 56.9402V15.9402" stroke="#36C13D" stroke-linejoin="round"/>
<path opacity="0.7" d="M49.3008 56.9402V15.9402" stroke="#36C13D" stroke-linejoin="round"/>
<g opacity="0.7">
<path opacity="0.7" d="M17 23.9402H56.97" stroke="#36C13D" stroke-linejoin="round"/>
<path opacity="0.7" d="M17 32.3101H56.97" stroke="#36C13D" stroke-linejoin="round"/>
<path opacity="0.7" d="M17 40.6802H56.97" stroke="#36C13D" stroke-linejoin="round"/>
<path opacity="0.7" d="M17 49.05H56.97" stroke="#36C13D" stroke-linejoin="round"/>
</g>
</g>
<path d="M49.3105 15.49V6.48999H56.0005C57.3705 6.48999 57.5005 6.61999 57.5005 7.98999V15.49H49.3105Z" fill="#ADDFF3"/>
<path d="M56.0005 7C56.3028 6.98463 56.6057 7.01156 56.9005 7.08C56.9996 7.37591 57.0338 7.68971 57.0005 8V15H49.8105V7H56.0005ZM56.0005 6H48.8105V16H58.0005V8C58.0005 6.35 57.6505 6 56.0005 6Z" fill="#2980B9"/>
<path d="M16.5098 15.49V8C16.5098 6.63 16.6398 6.5 18.0098 6.5H24.6998V15.5L16.5098 15.49Z" fill="#ADDFF3"/>
<path d="M24.2 7V15H17V8C16.985 7.69775 17.0119 7.39487 17.08 7.1C17.376 7.00121 17.6897 6.96711 18 7H24.2ZM25.2 6H18C16.35 6 16 6.35 16 8V16H25.2V6Z" fill="#2980B9"/>
<path d="M49.2896 6.48999H41.0996V15.49H49.2896V6.48999Z" fill="#ADDFF3"/>
<path d="M48.7894 7V15H41.5994V7H48.7794H48.7894ZM49.7794 6H40.6094V16H49.7994V6H49.7794Z" fill="#2980B9"/>
<path d="M41.1002 6.48999H32.9102V15.49H41.1002V6.48999Z" fill="#ADDFF3"/>
<path d="M40.5999 7V15H33.4099V7H40.5999ZM41.5999 6H32.4199V16H41.5999V6Z" fill="#2980B9"/>
<path d="M32.8907 6.48999H24.7207V15.49H32.8907V6.48999Z" fill="#ADDFF3"/>
<path d="M32.4007 7V15H25.2207V7H32.4007ZM33.4007 6H24.2207V16H33.4007V6Z" fill="#2980B9"/>
<path d="M29.8906 32.7122H31.7146C31.6586 32.2162 31.5226 31.7762 31.3066 31.3922C31.0906 31.0082 30.8146 30.6882 30.4786 30.4322C30.1506 30.1682 29.7746 29.9682 29.3506 29.8322C28.9346 29.6962 28.4906 29.6282 28.0186 29.6282C27.3626 29.6282 26.7706 29.7442 26.2426 29.9762C25.7226 30.2082 25.2826 30.5282 24.9226 30.9362C24.5626 31.3442 24.2866 31.8242 24.0946 32.3762C23.9026 32.9202 23.8066 33.5122 23.8066 34.1522C23.8066 34.7762 23.9026 35.3602 24.0946 35.9042C24.2866 36.4402 24.5626 36.9082 24.9226 37.3082C25.2826 37.7082 25.7226 38.0242 26.2426 38.2562C26.7706 38.4802 27.3626 38.5922 28.0186 38.5922C28.5466 38.5922 29.0306 38.5122 29.4706 38.3522C29.9106 38.1922 30.2946 37.9602 30.6226 37.6562C30.9506 37.3522 31.2146 36.9842 31.4146 36.5522C31.6146 36.1202 31.7386 35.6362 31.7866 35.1002H29.9626C29.8906 35.6762 29.6906 36.1402 29.3626 36.4922C29.0426 36.8442 28.5946 37.0202 28.0186 37.0202C27.5946 37.0202 27.2346 36.9402 26.9386 36.7802C26.6426 36.6122 26.4026 36.3922 26.2186 36.1202C26.0346 35.8482 25.8986 35.5442 25.8106 35.2082C25.7306 34.8642 25.6906 34.5122 25.6906 34.1522C25.6906 33.7762 25.7306 33.4122 25.8106 33.0602C25.8986 32.7082 26.0346 32.3962 26.2186 32.1242C26.4026 31.8442 26.6426 31.6242 26.9386 31.4642C27.2346 31.2962 27.5946 31.2122 28.0186 31.2122C28.2506 31.2122 28.4706 31.2522 28.6786 31.3322C28.8946 31.4042 29.0866 31.5082 29.2546 31.6442C29.4226 31.7802 29.5626 31.9402 29.6746 32.1242C29.7866 32.3002 29.8586 32.4962 29.8906 32.7122Z" fill="#34495E"/>
<path d="M34.9692 31.4162V38.4002H36.8532V31.4162H39.4212V29.8322H32.4012V31.4162H34.9692Z" fill="#34495E"/>
<path d="M40.4091 29.8322V38.4002H46.9131V36.8162H42.2931V34.7162H46.4451V33.2522H42.2931V31.4162H46.8171V29.8322H40.4091Z" fill="#34495E"/>
</svg>
