<svg width="64" height="64" viewBox="0 0 64 64" fill="none" xmlns="http://www.w3.org/2000/svg">
<path d="M18 57.44C16.63 57.44 16.5 57.31 16.5 55.94V15.5H57.5V55.94C57.5 57.31 57.37 57.44 56 57.44H18Z" fill="#F0ECB6"/>
<path d="M57 16V55.94C57.015 56.2422 56.9881 56.5451 56.92 56.84C56.624 56.9388 56.3103 56.9729 56 56.94H18C17.6977 56.9554 17.3948 56.9284 17.1 56.86C17.0012 56.564 16.9671 56.2503 17 55.94V16H57ZM58 15H16V55.94C16 57.59 16.35 57.94 18 57.94H56C57.65 57.94 58 57.59 58 55.94V15Z" fill="#C18F36"/>
<g opacity="0.7">
<path opacity="0.7" d="M24.6992 56.9402V15.9402" stroke="#C18F36" stroke-linejoin="round"/>
<path opacity="0.7" d="M41.0996 56.9402V15.9402" stroke="#C18F36" stroke-linejoin="round"/>
<path opacity="0.7" d="M32.9004 56.9402V15.9402" stroke="#C18F36" stroke-linejoin="round"/>
<path opacity="0.7" d="M49.3008 56.9402V15.9402" stroke="#C18F36" stroke-linejoin="round"/>
<g opacity="0.7">
<path opacity="0.7" d="M17 23.9402H56.97" stroke="#C18F36" stroke-linejoin="round"/>
<path opacity="0.7" d="M17 32.3101H56.97" stroke="#C18F36" stroke-linejoin="round"/>
<path opacity="0.7" d="M17 40.6802H56.97" stroke="#C18F36" stroke-linejoin="round"/>
<path opacity="0.7" d="M17 49.05H56.97" stroke="#C18F36" stroke-linejoin="round"/>
</g>
</g>
<path d="M49.3105 15.49V6.48999H56.0005C57.3705 6.48999 57.5005 6.61999 57.5005 7.98999V15.49H49.3105Z" fill="#ADDFF3"/>
<path d="M56.0005 7C56.3028 6.98463 56.6057 7.01156 56.9005 7.08C56.9996 7.37591 57.0338 7.68971 57.0005 8V15H49.8105V7H56.0005ZM56.0005 6H48.8105V16H58.0005V8C58.0005 6.35 57.6505 6 56.0005 6Z" fill="#2980B9"/>
<path d="M16.5098 15.49V8C16.5098 6.63 16.6398 6.5 18.0098 6.5H24.6998V15.5L16.5098 15.49Z" fill="#ADDFF3"/>
<path d="M24.2 7V15H17V8C16.985 7.69775 17.0119 7.39487 17.08 7.1C17.376 7.00121 17.6897 6.96711 18 7H24.2ZM25.2 6H18C16.35 6 16 6.35 16 8V16H25.2V6Z" fill="#2980B9"/>
<path d="M49.2896 6.48999H41.0996V15.49H49.2896V6.48999Z" fill="#ADDFF3"/>
<path d="M48.7894 7V15H41.5994V7H48.7794H48.7894ZM49.7794 6H40.6094V16H49.7994V6H49.7794Z" fill="#2980B9"/>
<path d="M41.1002 6.48999H32.9102V15.49H41.1002V6.48999Z" fill="#ADDFF3"/>
<path d="M40.5999 7V15H33.4099V7H40.5999ZM41.5999 6H32.4199V16H41.5999V6Z" fill="#2980B9"/>
<path d="M32.8907 6.48999H24.7207V15.49H32.8907V6.48999Z" fill="#ADDFF3"/>
<path d="M32.4007 7V15H25.2207V7H32.4007ZM33.4007 6H24.2207V16H33.4007V6Z" fill="#2980B9"/>
<path d="M17.5 24.9402H23.7V31.3102H17.5V24.9402Z" fill="#F64D12"/>
<path d="M25.7109 41.72H31.9109V48.09H25.7109V41.72Z" fill="#F64D12"/>
<path d="M33.9395 41.72H40.1395V48.09H33.9395V41.72Z" fill="#F64D12"/>
<path d="M6 29.2198C5.99905 28.558 6.19298 27.9106 6.5576 27.3583C6.92223 26.806 7.4414 26.3732 8.05036 26.1141C8.65932 25.8549 9.33111 25.7808 9.98192 25.901C10.6327 26.0212 11.2337 26.3303 11.71 26.7898L11.84 26.9198L11.89 26.9698L23.45 38.5198C23.5313 38.5637 23.5949 38.6344 23.63 38.7198L25.26 44.5398V44.5998C25.2652 44.6397 25.2652 44.68 25.26 44.7198C25.2659 44.7596 25.2659 44.8001 25.26 44.8398C25.245 44.8759 25.2248 44.9096 25.2 44.9398L25.1 44.9998H24.98H24.86H24.79L18.97 43.3698C18.8846 43.3347 18.8139 43.2711 18.77 43.1898L6.95 31.5798C6.91629 31.545 6.88918 31.5044 6.87 31.4598C6.31297 30.8465 6.00301 30.0484 6 29.2198ZM18.9 42.3798L19.9 40.3798L10 30.4098L8.46 31.9298L18.9 42.3798ZM23.9 42.9298L23.06 43.7698L24.23 44.0998L23.9 42.9298ZM22.9 39.4498L20.64 40.5398L19.6 42.7998L22.17 43.5198L23.66 41.9998L22.9 39.4498ZM22.48 38.7498L12.08 28.3098L10.56 29.8298L20.49 39.7598L22.48 38.7498ZM6.83 29.2498C6.83036 29.6036 6.90434 29.9535 7.04723 30.2772C7.19012 30.6008 7.39881 30.8912 7.66 31.1298L7.88 31.3498L11.5 27.7298L11.28 27.5098C10.9317 27.1286 10.4762 26.8615 9.9733 26.7439C9.47044 26.6262 8.94375 26.6634 8.4624 26.8505C7.98105 27.0376 7.56755 27.366 7.27622 27.7924C6.98489 28.2188 6.82934 28.7234 6.83 29.2398V29.2498Z" fill="#C18F36"/>
<path d="M18.8992 42.3802L19.8992 40.3602V40.3502L9.96922 30.4202L8.44922 31.9402L18.8992 42.3802Z" fill="#F0ECB6"/>
<path d="M12.0708 28.3198L10.5508 29.8398L20.4808 39.7698L20.4908 39.7598L22.5208 38.7598L12.0708 28.3198Z" fill="#F0ECB6"/>
<path d="M6.84961 29.21C6.84997 29.5638 6.92395 29.9137 7.06684 30.2373C7.20973 30.561 7.41841 30.8514 7.67961 31.09L7.89961 31.31L11.5196 27.69L11.2996 27.47C10.9513 27.0887 10.4958 26.8217 9.9929 26.7041C9.49005 26.5864 8.96335 26.6236 8.48201 26.8107C8.00066 26.9978 7.58716 27.3262 7.29583 27.7526C7.00449 28.179 6.84895 28.6836 6.84961 29.2V29.21Z" fill="#F0ECB6"/>
<path d="M22.9396 39.45L20.6896 40.54L19.5996 42.7999L22.1696 43.5199L23.6596 42.0299L22.9396 39.45Z" fill="#F0ECB6"/>
</svg>
