<svg width="64" height="64" viewBox="0 0 64 64" fill="none" xmlns="http://www.w3.org/2000/svg">
<path d="M55.0093 16H19.0293V40.96H55.0093V16Z" fill="#F0ECB6"/>
<path d="M54.5195 16.5V40.5H19.5195V16.5H54.5195ZM55.5195 15.5H18.5195V41.5H55.5195V15.5Z" fill="#C18F35"/>
<path d="M20.5293 56C19.1593 56 19.0293 55.87 19.0293 54.5V41H54.9993V54.5C54.9993 55.87 54.8693 56 53.4993 56H20.5293Z" fill="#D3D4F3"/>
<path d="M54.5195 41.5V54.5C54.5345 54.8023 54.5076 55.1051 54.4395 55.4C54.1435 55.4988 53.8298 55.5329 53.5195 55.5H20.5195C20.2173 55.5154 19.9143 55.4884 19.6195 55.42C19.5207 55.124 19.4866 54.8103 19.5195 54.5V41.5H54.5195ZM55.5195 40.5H18.5195V54.5C18.5195 56.15 18.8695 56.5 20.5195 56.5H53.5195C55.1695 56.5 55.5195 56.15 55.5195 54.5V40.5Z" fill="#666BD1"/>
<path d="M46.8691 16V8H53.4991C54.8691 8 54.9991 8.13 54.9991 9.5V16H46.8691Z" fill="#ADDFF3"/>
<path d="M53.4891 8.5C53.7914 8.48463 54.0943 8.51156 54.3891 8.58C54.4879 8.87598 54.522 9.18971 54.4891 9.5V15.5H47.3691V8.5H53.4991H53.4891ZM53.4991 7.5H46.3691V16.5H55.4991V9.5C55.4991 7.85 55.1491 7.5 53.4991 7.5Z" fill="#2980B9"/>
<path d="M19 16V9.5C19 8.13 19.13 8 20.5 8H27.09V16H19Z" fill="#ADDFF3"/>
<path d="M26.5898 8.5V15.5H19.5098V9.5C19.4948 9.19775 19.5217 8.89487 19.5898 8.6C19.8857 8.50121 20.1995 8.46711 20.5098 8.5H26.5998H26.5898ZM27.5998 7.5H20.5098C18.8598 7.5 18.5098 7.85 18.5098 9.5V16.5H27.5998V7.5Z" fill="#2980B9"/>
<path d="M47.3605 8H40.3105V16H47.3605V8Z" fill="#ADDFF3"/>
<path d="M46.8608 8.5V15.5H40.8008V8.5H46.8008H46.8608ZM47.8008 7.5H39.8008V16.5H47.8508V7.5H47.8008Z" fill="#2980B9"/>
<path d="M40.3102 8H33.7402V16H40.3102V8Z" fill="#ADDFF3"/>
<path d="M39.81 8.5V15.5H34.24V8.5H39.8H39.81ZM40.8 7.5H33.25V16.5H40.82V7.5H40.8Z" fill="#2980B9"/>
<path d="M33.7191 8H26.6191V16H33.7191V8Z" fill="#ADDFF3"/>
<path d="M33.2291 8.5V15.5H27.1191V8.5H33.2191H33.2291ZM34.2191 7.5H26.1191V16.5H34.2291V7.5H34.2191Z" fill="#2980B9"/>
<g opacity="0.7">
<path opacity="0.7" d="M26.6094 40.5V16.5" stroke="#C18F35" stroke-linejoin="round"/>
<path opacity="0.7" d="M40.291 40.5V16.5" stroke="#C18F35" stroke-linejoin="round"/>
<path opacity="0.7" d="M33.7012 40.5V16.5" stroke="#C18F35" stroke-linejoin="round"/>
<path opacity="0.7" d="M47.3711 40.5V16.5" stroke="#C18F35" stroke-linejoin="round"/>
<path opacity="0.7" d="M26.6094 55.62V40.5" stroke="#666BD1" stroke-linejoin="round"/>
<path opacity="0.7" d="M40.291 55.62V40.5" stroke="#666BD1" stroke-linejoin="round"/>
<path opacity="0.7" d="M33.7012 55.62V40.5" stroke="#666BD1" stroke-linejoin="round"/>
<path opacity="0.7" d="M47.3711 55.62V40.5" stroke="#666BD1" stroke-linejoin="round"/>
<path opacity="0.7" d="M19.4902 24.3499H54.4602" stroke="#C18F35" stroke-linejoin="round"/>
<path opacity="0.7" d="M19.5195 48.5H54.4895" stroke="#666BD1" stroke-miterlimit="10"/>
<path opacity="0.7" d="M19.4902 32.73H54.4602" stroke="#C18F35" stroke-linejoin="round"/>
</g>
<path d="M14.8793 38.29H14.3493C14.1234 38.2709 13.8994 38.2341 13.6793 38.18C13.4465 38.1022 13.2193 38.0087 12.9993 37.9C12.7479 37.7968 12.5123 37.6588 12.2993 37.49C11.9691 37.2442 11.6876 36.939 11.4693 36.59C11.2562 36.2609 11.0975 35.8996 10.9993 35.52C10.9093 35.13 10.7793 30.27 10.6993 29.86C10.632 29.4734 10.4706 29.1094 10.2293 28.8C9.95802 28.4814 9.61541 28.2313 9.2293 28.07C9.13011 28.0079 9.04832 27.9217 8.99163 27.8194C8.93493 27.717 8.90519 27.602 8.90519 27.485C8.90519 27.368 8.93493 27.2529 8.99163 27.1506C9.04832 27.0483 9.13011 26.962 9.2293 26.9C9.61559 26.739 9.95828 26.4889 10.2293 26.17C10.4713 25.861 10.6328 25.4968 10.6993 25.11C10.7793 24.7 10.8293 22.2 10.8393 21.73C10.8531 21.2993 10.9067 20.8708 10.9993 20.45C11.0852 20.0728 11.2303 19.7117 11.4293 19.38C11.6481 19.0314 11.9295 18.7263 12.2593 18.48C12.4722 18.3111 12.7078 18.1731 12.9593 18.07C13.1933 17.9757 13.434 17.8988 13.6793 17.84C13.8992 17.7849 14.1233 17.7481 14.3493 17.73H14.8793V18.17C14.165 18.1738 13.4621 18.3486 12.8293 18.68C12.3842 18.9367 12.0176 19.3101 11.7693 19.76C11.5415 20.1943 11.4053 20.6708 11.3693 21.16C11.3693 21.66 11.2293 24.86 11.1693 25.16C11.1269 25.4486 11.0391 25.7287 10.9093 25.99C10.7946 26.2115 10.6461 26.414 10.4693 26.59C10.2875 26.7742 10.0784 26.9294 9.8493 27.05C9.64503 27.1601 9.43073 27.2505 9.2093 27.32C9.01346 27.3807 8.8127 27.4242 8.6093 27.45C8.4193 27.45 8.4193 27.55 8.6093 27.57C8.81272 27.5957 9.01349 27.6392 9.2093 27.7C9.43006 27.7713 9.6442 27.8616 9.8493 27.97C10.0783 28.0907 10.2874 28.2458 10.4693 28.43C10.6466 28.6056 10.7951 28.8081 10.9093 29.03C11.0393 29.2912 11.127 29.5713 11.1693 29.86C11.2696 30.1593 11.3137 30.4746 11.2993 30.79C11.2993 30.79 11.2993 34.39 11.3593 34.89C11.3956 35.3791 11.5317 35.8555 11.7593 36.29C12.0072 36.7401 12.3739 37.1137 12.8193 37.37C13.4514 37.7032 14.1548 37.8782 14.8693 37.88L14.8793 38.29Z" fill="#34495E" stroke="#C18F35" stroke-miterlimit="10"/>
<path d="M14.8793 55.3H14.3493C14.1234 55.2809 13.8994 55.2441 13.6793 55.19C13.4342 55.1303 13.1936 55.0534 12.9593 54.96C12.7079 54.8568 12.4723 54.7188 12.2593 54.55C11.9291 54.3042 11.6476 53.999 11.4293 53.65C11.2252 53.3029 11.0799 52.9245 10.9993 52.53C10.9093 52.14 10.7793 51.28 10.6993 50.87C10.632 50.4834 10.4706 50.1194 10.2293 49.81C9.95802 49.4914 9.61541 49.2413 9.2293 49.08C9.13011 49.018 9.04832 48.9317 8.99163 48.8294C8.93493 48.727 8.90519 48.612 8.90519 48.495C8.90519 48.378 8.93493 48.2629 8.99163 48.1606C9.04832 48.0583 9.13011 47.972 9.2293 47.91C9.61559 47.749 9.95828 47.4989 10.2293 47.18C10.4713 46.871 10.6328 46.5068 10.6993 46.12C10.7793 45.71 10.9093 44.84 10.9993 44.46C11.0852 44.0828 11.2303 43.7217 11.4293 43.39C11.6481 43.0414 11.9295 42.7363 12.2593 42.49C12.4722 42.3211 12.7078 42.1831 12.9593 42.08C13.1933 41.9857 13.434 41.9088 13.6793 41.85C13.8992 41.7949 14.1233 41.7581 14.3493 41.74H14.8793V42.18C14.165 42.1838 13.4621 42.3586 12.8293 42.69C12.3842 42.9467 12.0176 43.3201 11.7693 43.77C11.5415 44.2043 11.4053 44.6808 11.3693 45.17C11.3249 45.5074 11.2581 45.8415 11.1693 46.17C11.1269 46.4586 11.0391 46.7387 10.9093 47C10.7946 47.2216 10.6461 47.424 10.4693 47.6C10.2875 47.7843 10.0784 47.9394 9.8493 48.06C9.64503 48.1701 9.43073 48.2605 9.2093 48.33C9.01346 48.3907 8.8127 48.4342 8.6093 48.46C8.4193 48.46 8.4193 48.56 8.6093 48.58C8.81272 48.6057 9.01349 48.6492 9.2093 48.71C9.43006 48.7813 9.6442 48.8716 9.8493 48.98C10.0783 49.1007 10.2874 49.2558 10.4693 49.44C10.6466 49.6156 10.7951 49.8181 10.9093 50.04C11.0393 50.3012 11.127 50.5813 11.1693 50.87C11.2581 51.1985 11.3249 51.5326 11.3693 51.87C11.4056 52.3591 11.5417 52.8355 11.7693 53.27C12.0172 53.7201 12.3839 54.0937 12.8293 54.35C13.4614 54.6832 14.1648 54.8582 14.8793 54.86V55.3Z" fill="#528D19" stroke="#666BD1" stroke-miterlimit="10"/>
</svg>
