<svg width="64" height="64" viewBox="0 0 64 64" fill="none" xmlns="http://www.w3.org/2000/svg">
<path d="M55.6914 45.4297H47.6914C47.4153 45.4297 47.1914 45.6535 47.1914 45.9297V53.9297C47.1914 54.2058 47.4153 54.4297 47.6914 54.4297H55.6914C55.9676 54.4297 56.1914 54.2058 56.1914 53.9297V45.9297C56.1914 45.6535 55.9676 45.4297 55.6914 45.4297Z" fill="#ADDFF3"/>
<path d="M55.6914 45.9297V53.9297H47.6914V45.9297H55.6914ZM55.6914 44.9297H47.6914C47.4262 44.9297 47.1718 45.035 46.9843 45.2226C46.7968 45.4101 46.6914 45.6645 46.6914 45.9297V53.9297C46.6914 54.1949 46.7968 54.4493 46.9843 54.6368C47.1718 54.8243 47.4262 54.9297 47.6914 54.9297H55.6914C55.9566 54.9297 56.211 54.8243 56.3985 54.6368C56.5861 54.4493 56.6914 54.1949 56.6914 53.9297V45.9297C56.6914 45.6645 56.5861 45.4101 56.3985 45.2226C56.211 45.035 55.9566 44.9297 55.6914 44.9297Z" fill="#2980B9"/>
<path d="M16.3105 45.4297H8.31055C8.03441 45.4297 7.81055 45.6535 7.81055 45.9297V53.9297C7.81055 54.2058 8.03441 54.4297 8.31055 54.4297H16.3105C16.5867 54.4297 16.8105 54.2058 16.8105 53.9297V45.9297C16.8105 45.6535 16.5867 45.4297 16.3105 45.4297Z" fill="#ADDFF3"/>
<path d="M16.3105 45.9297V53.9297H8.31055V45.9297H16.3105ZM16.3105 44.9297H8.31055C8.04533 44.9297 7.79098 45.035 7.60344 45.2226C7.4159 45.4101 7.31055 45.6645 7.31055 45.9297V53.9297C7.31055 54.1949 7.4159 54.4493 7.60344 54.6368C7.79098 54.8243 8.04533 54.9297 8.31055 54.9297H16.3105C16.5758 54.9297 16.8301 54.8243 17.0177 54.6368C17.2052 54.4493 17.3105 54.1949 17.3105 53.9297V45.9297C17.3105 45.6645 17.2052 45.4101 17.0177 45.2226C16.8301 45.035 16.5758 44.9297 16.3105 44.9297Z" fill="#2980B9"/>
<path d="M36.0098 9.56982H28.0098C27.7336 9.56982 27.5098 9.79368 27.5098 10.0698V18.0698C27.5098 18.346 27.7336 18.5698 28.0098 18.5698H36.0098C36.2859 18.5698 36.5098 18.346 36.5098 18.0698V10.0698C36.5098 9.79368 36.2859 9.56982 36.0098 9.56982Z" fill="#ADDFF3"/>
<path d="M36 10.0698V18.0698H28V10.0698H36ZM36 9.06982H28C27.7348 9.06982 27.4804 9.17518 27.2929 9.36272C27.1054 9.55025 27 9.80461 27 10.0698V18.0698C27 18.335 27.1054 18.5894 27.2929 18.7769C27.4804 18.9645 27.7348 19.0698 28 19.0698H36C36.2652 19.0698 36.5196 18.9645 36.7071 18.7769C36.8946 18.5894 37 18.335 37 18.0698V10.0698C37 9.80461 36.8946 9.55025 36.7071 9.36272C36.5196 9.17518 36.2652 9.06982 36 9.06982Z" fill="#2980B9"/>
<path fill-rule="evenodd" clip-rule="evenodd" d="M22.3538 41.7698C22.4918 42.009 22.4097 42.3148 22.1705 42.4527L18.3905 44.6327C18.1513 44.7707 17.8455 44.6886 17.7076 44.4494C17.5696 44.2102 17.6517 43.9044 17.8909 43.7665L21.6709 41.5865C21.9101 41.4485 22.2159 41.5306 22.3538 41.7698Z" fill="#D04465"/>
<path d="M23.9996 40.8198C23.155 41.8239 22.4795 42.9587 21.9996 44.1798L21.6496 42.1798L20.0996 40.8798C21.3943 41.0712 22.7114 41.051 23.9996 40.8198Z" fill="#D04465"/>
<path fill-rule="evenodd" clip-rule="evenodd" d="M41.6275 41.97C41.7655 41.7308 42.0712 41.6487 42.3104 41.7867L46.0904 43.9667C46.3296 44.1046 46.4117 44.4104 46.2738 44.6496C46.1358 44.8888 45.8301 44.9709 45.5908 44.8329L41.8108 42.6529C41.5716 42.515 41.4895 42.2092 41.6275 41.97Z" fill="#D04465"/>
<path d="M40 41C40.8446 42.0041 41.5201 43.1389 42 44.36L42.35 42.36L43.9 41.06C42.6053 41.2514 41.2882 41.2311 40 41Z" fill="#D04465"/>
<path fill-rule="evenodd" clip-rule="evenodd" d="M32.0912 19.5698C32.3674 19.5705 32.5907 19.7948 32.5901 20.071L32.5801 24.431C32.5794 24.7071 32.3551 24.9305 32.0789 24.9298C31.8028 24.9292 31.5794 24.7048 31.5801 24.4287L31.5901 20.0687C31.5907 19.7925 31.8151 19.5692 32.0912 19.5698Z" fill="#D04465"/>
<path d="M32.0797 26.8497C31.6362 25.6141 30.9945 24.459 30.1797 23.4297L32.0797 24.1197L33.9797 23.4297C33.1647 24.4589 32.523 25.614 32.0797 26.8497Z" fill="#D04465"/>
<path d="M32.0801 43.4297C36.2222 43.4297 39.5801 40.0718 39.5801 35.9297C39.5801 31.7876 36.2222 28.4297 32.0801 28.4297C27.9379 28.4297 24.5801 31.7876 24.5801 35.9297C24.5801 40.0718 27.9379 43.4297 32.0801 43.4297Z" fill="#F3C7D7"/>
<path d="M32.0801 28.9297C33.4646 28.9297 34.8179 29.3402 35.9691 30.1094C37.1202 30.8786 38.0174 31.9718 38.5472 33.2509C39.077 34.53 39.2157 35.9375 38.9456 37.2953C38.6755 38.6532 38.0088 39.9005 37.0298 40.8794C36.0509 41.8584 34.8036 42.5251 33.4457 42.7952C32.0878 43.0653 30.6804 42.9267 29.4013 42.3968C28.1222 41.867 27.029 40.9698 26.2598 39.8187C25.4906 38.6675 25.0801 37.3142 25.0801 35.9297C25.0801 34.0732 25.8176 32.2927 27.1303 30.9799C28.4431 29.6672 30.2236 28.9297 32.0801 28.9297ZM32.0801 27.9297C30.4978 27.9297 28.9511 28.3989 27.6355 29.2779C26.3199 30.157 25.2945 31.4064 24.689 32.8682C24.0835 34.33 23.9251 35.9386 24.2338 37.4904C24.5425 39.0423 25.3044 40.4677 26.4232 41.5865C27.542 42.7054 28.9675 43.4673 30.5194 43.776C32.0712 44.0847 33.6797 43.9262 35.1415 43.3207C36.6034 42.7152 37.8528 41.6898 38.7318 40.3742C39.6109 39.0587 40.0801 37.5119 40.0801 35.9297C40.0801 33.808 39.2372 31.7731 37.7369 30.2728C36.2366 28.7725 34.2018 27.9297 32.0801 27.9297Z" fill="#D04465"/>
</svg>
