<svg width="64" height="64" viewBox="0 0 64 64" fill="none" xmlns="http://www.w3.org/2000/svg">
<path d="M12.8138 14.2998C11.4444 14.2998 11.3145 14.1798 11.3145 12.7998V8.7998C11.3145 7.4198 11.4444 7.2998 12.8138 7.2998H17.3116V14.2998H12.8138Z" fill="#D3D4F3"/>
<path d="M16.8116 7.81982V13.8198H12.8135C12.5119 13.835 12.2096 13.8115 11.9139 13.7498C11.8131 13.4508 11.779 13.1334 11.814 12.8198V8.81982C11.7899 8.51746 11.817 8.2132 11.8939 7.91982C11.8939 7.91982 12.0839 7.81982 12.8135 7.81982H16.8116ZM17.8112 6.81982H12.8135C11.1643 6.81982 10.8145 7.16982 10.8145 8.81982V12.8198C10.8145 14.4698 11.1643 14.8198 12.8135 14.8198H17.8112V6.81982Z" fill="#666BD1"/>
<path d="M17.3105 14.2998V7.2998H22.0883C23.4677 7.2998 23.5876 7.4198 23.5876 8.7998V12.7998C23.5876 14.1798 23.4677 14.2998 22.0883 14.2998H17.3105Z" fill="#D3D4F3"/>
<path d="M22.09 7.81982C22.3917 7.80352 22.6941 7.82706 22.9896 7.88982C23.0904 8.1888 23.1245 8.50624 23.0896 8.81982V12.8198C23.1029 13.1216 23.0794 13.4238 23.0196 13.7198C22.7208 13.8207 22.4035 13.8548 22.09 13.8198H17.812V7.81982H22.09ZM22.09 6.81982H16.8125V14.8198H22.09C23.7393 14.8198 24.0891 14.4698 24.0891 12.8198V8.81982C24.0891 7.16982 23.7393 6.81982 22.09 6.81982Z" fill="#666BD1"/>
<path d="M27.8567 14.2998C26.4874 14.2998 26.3574 14.1798 26.3574 12.7998V8.7998C26.3574 7.4198 26.4874 7.2998 27.8567 7.2998H32.3546V14.2998H27.8567Z" fill="#D3D4F3"/>
<path d="M31.8546 7.81982V13.8198H27.8565C27.5549 13.8339 27.2527 13.8104 26.9569 13.7498C26.8629 13.4494 26.829 13.1334 26.857 12.8198V8.81982C26.8407 8.51754 26.8676 8.21449 26.9369 7.91982C27.232 7.81783 27.5463 7.78365 27.8565 7.81982H31.8546ZM32.8541 6.81982H27.8565C26.2073 6.81982 25.8574 7.16982 25.8574 8.81982V12.8198C25.8574 14.4698 26.2073 14.8198 27.8565 14.8198H32.8541V6.81982Z" fill="#666BD1"/>
<path d="M32.3652 14.2998V7.2998H37.143C38.5124 7.2998 38.6423 7.4198 38.6423 8.7998V12.7998C38.6423 14.1798 38.5124 14.2998 37.143 14.2998H32.3652Z" fill="#D3D4F3"/>
<path d="M37.1428 7.81982C37.4411 7.80382 37.7402 7.82736 38.0323 7.88982C38.1263 8.19027 38.1603 8.50627 38.1323 8.81982V12.8198C38.1486 13.1221 38.1217 13.4252 38.0523 13.7198C37.7572 13.8218 37.4429 13.856 37.1328 13.8198H32.8648V7.81982H37.1428ZM37.1428 6.81982H31.8652V14.8198H37.1428C38.792 14.8198 39.1418 14.4698 39.1418 12.8198V8.81982C39.1418 7.16982 38.792 6.81982 37.1428 6.81982Z" fill="#666BD1"/>
<path d="M42.9095 14.2998C41.5301 14.2998 41.4102 14.1798 41.4102 12.7998V8.7998C41.4102 7.4198 41.5301 7.2998 42.9095 7.2998H47.4073V14.2998H42.9095Z" fill="#D3D4F3"/>
<path d="M46.9073 7.81982V13.8198H42.9092C42.6076 13.8361 42.3051 13.8126 42.0096 13.7498C41.9088 13.4508 41.8747 13.1334 41.9097 12.8198V8.81982C41.8963 8.51809 41.9198 8.21586 41.9797 7.91982C42.2785 7.81896 42.5958 7.78483 42.9092 7.81982H46.9073ZM47.9069 6.81982H42.9092C41.26 6.81982 40.9102 7.16982 40.9102 8.81982V12.8198C40.9102 14.4698 41.26 14.8198 42.9092 14.8198H47.9069V6.81982Z" fill="#666BD1"/>
<path d="M47.4082 14.2998V7.2998H52.186C53.5553 7.2998 53.6853 7.4198 53.6853 8.7998V12.7998C53.6853 14.1798 53.5553 14.2998 52.186 14.2998H47.4082Z" fill="#D3D4F3"/>
<path d="M52.1857 7.81982C52.4873 7.80465 52.7897 7.82818 53.0853 7.88982C53.1861 8.1888 53.2202 8.50624 53.1853 8.81982V12.8198C53.2093 13.1222 53.1823 13.4264 53.1053 13.7198C53.1053 13.7198 52.9154 13.8198 52.1857 13.8198H47.9077V7.81982H52.1857ZM52.1857 6.81982H46.9082V14.8198H52.1857C53.835 14.8198 54.1848 14.4698 54.1848 12.8198V8.81982C54.1848 7.16982 53.835 6.81982 52.1857 6.81982Z" fill="#666BD1"/>
<path d="M21.1985 57.44C19.8192 57.44 19.6992 57.31 19.6992 55.94V44.49H44.2877V55.94C44.2877 57.31 44.1577 57.44 42.7884 57.44H21.1985Z" fill="#F0ECB6"/>
<path d="M43.7897 45V55.94C43.8004 56.2417 43.7769 56.5436 43.7197 56.84C43.4194 56.934 43.1035 56.968 42.7901 56.94H21.2002C20.8981 56.9573 20.595 56.9303 20.3007 56.86C20.2004 56.5644 20.1662 56.2503 20.2007 55.94V45H43.7897ZM44.7892 44H19.2012V55.94C19.2012 57.59 19.551 57.94 21.2002 57.94H42.7901C44.4394 57.94 44.7892 57.59 44.7892 55.94V44Z" fill="#C18F36"/>
<g opacity="0.8">
<path opacity="0.8" d="M27.8965 56.9297V44.9297" stroke="#C18F36" stroke-miterlimit="10"/>
<path opacity="0.8" d="M36.1016 56.9297V44.9297" stroke="#C18F36" stroke-miterlimit="10"/>
<path opacity="0.8" d="M20.1895 50.9297H43.7684" stroke="#C18F36" stroke-miterlimit="10"/>
</g>
<path d="M36.1133 44.49V38.49H42.8001C44.1695 38.49 44.2994 38.61 44.2994 39.99V44.49H36.1133Z" fill="#ADDFF3"/>
<path d="M42.7999 39C43.1015 38.9848 43.4039 39.0084 43.6995 39.07C43.8003 39.369 43.8344 39.6864 43.7994 40V44H36.6128V39H42.7999ZM42.7999 38H35.6133V45H44.799V40C44.799 38.35 44.4491 38 42.7999 38Z" fill="#2980B9"/>
<path d="M19.6992 44.49V40C19.6992 38.62 19.8192 38.5 21.1985 38.5H27.8854V44.5L19.6992 44.49Z" fill="#ADDFF3"/>
<path d="M27.3873 39V44H20.2007V40C20.1873 39.6983 20.2108 39.396 20.2707 39.1C20.5695 38.9991 20.8868 38.965 21.2002 39H27.3873ZM28.3869 38H21.2002C19.551 38 19.2012 38.35 19.2012 40V45H28.3869V38Z" fill="#2980B9"/>
<path d="M36.0924 38.49H27.9062V44.49H36.0924V38.49Z" fill="#ADDFF3"/>
<path d="M35.5922 39V44H28.4056V39H35.5822H35.5922ZM36.5817 38H27.416V45H36.6017V38H36.5817Z" fill="#2980B9"/>
<path d="M27.0874 36.38L27.947 32.25L23.3691 34.39L27.0874 36.38Z" fill="#528D19"/>
<path fill-rule="evenodd" clip-rule="evenodd" d="M28.2569 31.8579C28.4053 31.9754 28.4746 32.1666 28.436 32.3519L27.5764 36.4819C27.5443 36.6362 27.4414 36.7663 27.2987 36.833C27.1561 36.8997 26.9903 36.8952 26.8514 36.8209L23.1332 34.8309C22.9663 34.7416 22.8642 34.5657 22.8693 34.3765C22.8744 34.1873 22.9859 34.0171 23.1573 33.937L27.7352 31.797C27.9066 31.7169 28.1085 31.7405 28.2569 31.8579ZM24.4849 34.4202L26.734 35.624L27.254 33.1257L24.4849 34.4202Z" fill="#528D19"/>
<path fill-rule="evenodd" clip-rule="evenodd" d="M18.5282 18.0335C19.0284 17.8 19.6232 18.0163 19.8567 18.5168L26.4436 32.6368C26.6771 33.1372 26.4608 33.7323 25.9606 33.9659C25.4603 34.1994 24.8656 33.9831 24.6321 33.4826L18.0452 19.3626C17.8117 18.8622 18.028 18.2671 18.5282 18.0335Z" fill="#528D19"/>
<path d="M32.3845 36.1998L34.9033 32.8198H29.8457L32.3845 36.1998Z" fill="#528D19"/>
<path fill-rule="evenodd" clip-rule="evenodd" d="M29.3984 32.5964C29.483 32.4269 29.6561 32.3198 29.8455 32.3198H34.9031C35.0921 32.3198 35.265 32.4265 35.3498 32.5956C35.4346 32.7646 35.4168 32.9671 35.3038 33.1187L32.785 36.4987C32.6908 36.625 32.5427 36.6995 32.3852 36.6998C32.2278 36.7001 32.0794 36.6261 31.9848 36.5002L29.4459 33.1202C29.3322 32.9687 29.3137 32.7659 29.3984 32.5964ZM30.8462 33.3198L32.3827 35.3654L33.9071 33.3198H30.8462Z" fill="#528D19"/>
<path fill-rule="evenodd" clip-rule="evenodd" d="M32.3745 17.0198C32.9266 17.0198 33.3741 17.4675 33.3741 18.0198V32.5398C33.3741 33.0921 32.9266 33.5398 32.3745 33.5398C31.8225 33.5398 31.375 33.0921 31.375 32.5398V18.0198C31.375 17.4675 31.8225 17.0198 32.3745 17.0198Z" fill="#528D19"/>
<path d="M38.5005 36.38L37.6309 32.25L42.2187 34.39L38.5005 36.38Z" fill="#528D19"/>
<path fill-rule="evenodd" clip-rule="evenodd" d="M37.3218 31.8584C37.4701 31.7406 37.6722 31.7168 37.8438 31.7968L42.4316 33.9368C42.6032 34.0169 42.7148 34.187 42.72 34.3763C42.7252 34.5656 42.6231 34.7416 42.4562 34.8309L38.7379 36.8209C38.5992 36.8951 38.4337 36.8997 38.2911 36.8332C38.1486 36.7668 38.0456 36.6371 38.0132 36.4831L37.1436 32.3531C37.1045 32.1677 37.1736 31.9762 37.3218 31.8584ZM38.3278 33.1259L38.8539 35.6247L41.1036 34.4207L38.3278 33.1259Z" fill="#528D19"/>
<path fill-rule="evenodd" clip-rule="evenodd" d="M47.0504 18.0335C47.5506 18.2671 47.7669 18.8622 47.5334 19.3626L40.9465 33.4826C40.7131 33.9831 40.1183 34.1994 39.6181 33.9659C39.1178 33.7323 38.9016 33.1372 39.135 32.6368L45.722 18.5168C45.9554 18.0163 46.5502 17.8 47.0504 18.0335Z" fill="#528D19"/>
</svg>
