<svg width="64" height="64" viewBox="0 0 64 64" fill="none" xmlns="http://www.w3.org/2000/svg">
<path d="M41.0008 42.7C39.5309 43.3666 38.2841 44.4427 37.4097 45.7993C36.5353 47.156 36.0703 48.7359 36.0703 50.3499C36.0703 51.964 36.5353 53.5439 37.4097 54.9006C38.2841 56.2572 39.5309 57.3333 41.0008 58C42.4707 57.3333 43.7175 56.2572 44.5919 54.9006C45.4663 53.5439 45.9313 51.964 45.9313 50.3499C45.9313 48.7359 45.4663 47.156 44.5919 45.7993C43.7175 44.4427 42.4707 43.3666 41.0008 42.7Z" fill="#88F625"/>
<path d="M13.1602 58.2698C11.7902 58.2698 11.6602 58.1398 11.6602 56.7698V39.5798H18.6602V56.7698C18.6602 58.1398 18.5302 58.2698 17.1602 58.2698H13.1602Z" fill="#F0ECB6"/>
<path d="M18.1504 40.0798V56.7698C18.1654 57.0721 18.1384 57.375 18.0704 57.6698C17.7744 57.7686 17.4607 57.8027 17.1504 57.7698H13.1504C12.8481 57.7852 12.5452 57.7583 12.2504 57.6898C12.1513 57.3939 12.1172 57.0801 12.1504 56.7698V40.0798H18.1504ZM19.1504 39.0798H11.1504V56.7698C11.1504 58.4198 11.5004 58.7698 13.1504 58.7698H17.1504C18.8004 58.7698 19.1504 58.4198 19.1504 56.7698V39.0798Z" fill="#C18F35"/>
<path opacity="0.8" d="M12.0508 45.9302H18.2908" stroke="#C18F35" stroke-miterlimit="10"/>
<path opacity="0.8" d="M12.0508 51.8499H18.2908" stroke="#C18F35" stroke-miterlimit="10"/>
<path d="M11.6602 11.73V7.22998C11.6602 5.85998 11.7902 5.72998 13.1602 5.72998H17.1602C18.5302 5.72998 18.6602 5.85998 18.6602 7.22998V11.73H11.6602Z" fill="#ADDFF3"/>
<path d="M17.1504 6.22998C17.4527 6.21461 17.7556 6.24154 18.0504 6.30998C18.1495 6.60589 18.1836 6.91969 18.1504 7.22998V11.23H12.1504V7.22998C12.1354 6.92773 12.1623 6.62485 12.2304 6.32998C12.5264 6.23119 12.8401 6.19709 13.1504 6.22998H17.1504ZM17.1504 5.22998H13.1504C11.5004 5.22998 11.1504 5.57998 11.1504 7.22998V12.23H19.1504V7.22998C19.1504 5.57998 18.8004 5.22998 17.1504 5.22998Z" fill="#2980B9"/>
<path d="M13.1602 30.42C11.7902 30.42 11.6602 30.29 11.6602 28.92V11.73H18.6602V28.92C18.6602 30.29 18.5302 30.42 17.1602 30.42H13.1602Z" fill="#D3D4F3"/>
<path d="M18.1504 12.23V28.92C18.1654 29.2222 18.1384 29.5251 18.0704 29.82C17.7744 29.9188 17.4607 29.9529 17.1504 29.92H13.1504C12.8481 29.9354 12.5452 29.9084 12.2504 29.84C12.1513 29.5441 12.1172 29.2303 12.1504 28.92V12.23H18.1504ZM19.1504 11.23H11.1504V28.92C11.1504 30.57 11.5004 30.92 13.1504 30.92H17.1504C18.8004 30.92 19.1504 30.57 19.1504 28.92V11.23Z" fill="#666BD1"/>
<path opacity="0.8" d="M12.0508 18.0798H18.2908" stroke="#666BD1" stroke-linejoin="round"/>
<path opacity="0.8" d="M12.0508 24H18.2908" stroke="#666BD1" stroke-linejoin="round"/>
<path d="M11.6602 39.5798V35.0798C11.6602 33.7098 11.7902 33.5798 13.1602 33.5798H17.1602C18.5302 33.5798 18.6602 33.7098 18.6602 35.0798V39.5798H11.6602Z" fill="#ADDFF3"/>
<path d="M17.1504 34.0798C17.4527 34.0645 17.7556 34.0914 18.0504 34.1598C18.1495 34.4557 18.1836 34.7695 18.1504 35.0798V39.0798H12.1504V35.0798C12.1354 34.7776 12.1623 34.4747 12.2304 34.1798C12.5264 34.081 12.8401 34.0469 13.1504 34.0798H17.1504ZM17.1504 33.0798H13.1504C11.5004 33.0798 11.1504 33.4298 11.1504 35.0798V40.0798H19.1504V35.0798C19.1504 33.4298 18.8004 33.0798 17.1504 33.0798Z" fill="#2980B9"/>
<path d="M22.2505 41.18C22.965 41.1782 23.6684 41.0032 24.3005 40.67C24.7459 40.4137 25.1125 40.0402 25.3605 39.59C25.588 39.1556 25.7242 38.6791 25.7605 38.19C25.8005 37.69 25.8205 37.2033 25.8205 36.73V37.08C25.8205 36.4 25.8205 35.83 25.8205 35.36C25.8311 34.958 25.8678 34.5572 25.9305 34.16C25.9727 33.8713 26.0605 33.5912 26.1905 33.33C26.3046 33.1081 26.4531 32.9056 26.6305 32.73C26.8124 32.5458 27.0215 32.3907 27.2505 32.27C27.4556 32.1616 27.6697 32.0713 27.8905 32C28.0863 31.9392 28.287 31.8957 28.4905 31.87C28.6805 31.87 28.6805 31.77 28.4905 31.75C28.2871 31.7242 28.0863 31.6807 27.8905 31.62C27.669 31.5505 27.4547 31.4601 27.2505 31.35C27.0214 31.2294 26.8123 31.0743 26.6305 30.89C26.4536 30.714 26.3052 30.5116 26.1905 30.29C26.0606 30.0288 25.9729 29.7486 25.9305 29.46C25.8679 29.0628 25.8312 28.662 25.8205 28.26C25.8205 27.7867 25.8205 27.21 25.8205 26.53V26.89C25.8205 26.42 25.8205 25.89 25.7605 25.43C25.7244 24.9409 25.5883 24.4643 25.3605 24.03C25.105 23.5985 24.7391 23.243 24.3005 23C23.6677 22.6687 22.9647 22.4938 22.2505 22.49V22H22.7805C23.0065 22.0181 23.2306 22.0549 23.4505 22.11C23.6958 22.1688 23.9365 22.2457 24.1705 22.34C24.4219 22.4431 24.6576 22.5811 24.8705 22.75C25.2002 22.9963 25.4816 23.3014 25.7005 23.65C25.8994 23.9817 26.0446 24.3429 26.1305 24.72C26.2237 25.1441 26.2773 25.576 26.2905 26.01C26.2905 26.48 26.2905 27.89 26.2905 27.89C26.2827 28.3927 26.3228 28.895 26.4105 29.39C26.477 29.7768 26.6385 30.141 26.8805 30.45C27.1515 30.7689 27.4942 31.019 27.8805 31.18C27.9797 31.242 28.0614 31.3283 28.1181 31.4306C28.1748 31.5329 28.2046 31.648 28.2046 31.765C28.2046 31.882 28.1748 31.9971 28.1181 32.0994C28.0614 32.2017 27.9797 32.288 27.8805 32.35C27.4944 32.5113 27.1517 32.7614 26.8805 33.08C26.6392 33.3894 26.4778 33.7534 26.4105 34.14C26.3228 34.635 26.2827 35.1373 26.2905 35.64C26.2905 35.64 26.2005 38.42 26.1105 38.81C26.0247 39.1872 25.8796 39.5484 25.6805 39.88C25.4622 40.229 25.1807 40.5342 24.8505 40.78C24.6375 40.9488 24.4019 41.0868 24.1505 41.19C23.9161 41.2834 23.6756 41.3603 23.4305 41.42C23.2104 41.4741 22.9863 41.5109 22.7605 41.53H22.2305L22.2505 41.18Z" fill="#34495E" stroke="#528D19" stroke-miterlimit="10"/>
<path d="M35.1797 37.8498C33.8097 37.8498 33.6797 37.7198 33.6797 36.3498V24.8499H40.9997V37.8498H35.1797Z" fill="#F0ECB6"/>
<path d="M40.4597 25.3499V37.3498H35.1797C34.8774 37.3652 34.5745 37.3383 34.2797 37.2698C34.1806 36.9739 34.1465 36.6601 34.1797 36.3498V25.3499H40.4597ZM41.4597 24.3499H33.1797V36.3498C33.1797 37.9998 33.5297 38.3498 35.1797 38.3498H41.4597V24.3499Z" fill="#C18F35"/>
<path d="M40.9492 37.8498V24.8499H48.2292V36.3498C48.2292 37.7198 48.0992 37.8498 46.7292 37.8498H40.9492Z" fill="#D3D4F3"/>
<path d="M47.7292 25.3499V36.3498C47.7442 36.6521 47.7173 36.955 47.6492 37.2498C47.3532 37.3486 47.0395 37.3827 46.7292 37.3498H41.4492V25.3499H47.7292ZM48.7292 24.3499H40.4492V38.3498H46.7292C48.3792 38.3498 48.7292 37.9998 48.7292 36.3498V24.3499Z" fill="#666BD1"/>
<path d="M33.6797 24.8499V20.3499C33.6797 18.9799 33.8097 18.8499 35.1797 18.8499H40.9997V24.8499H33.6797Z" fill="#ADDFF3"/>
<path d="M40.4597 19.3499V24.3499H34.1797V20.3499C34.1647 20.0476 34.1916 19.7447 34.2597 19.4499C34.5557 19.3511 34.8694 19.317 35.1797 19.3499H40.4597ZM41.4597 18.3499H35.1797C33.5297 18.3499 33.1797 18.6999 33.1797 20.3499V25.3499H41.4597V18.3499Z" fill="#2980B9"/>
<path d="M40.9492 24.8499V18.8499H46.7292C48.0992 18.8499 48.2292 18.9799 48.2292 20.3499V24.8499H40.9492Z" fill="#ADDFF3"/>
<path d="M46.7292 19.3499C47.0315 19.3345 47.3344 19.3614 47.6292 19.4299C47.728 19.7258 47.7621 20.0396 47.7292 20.3499V24.3499H41.4492V19.3499H46.7292ZM46.7292 18.3499H40.4492V25.3499H48.7292V20.3499C48.7292 18.6999 48.3792 18.3499 46.7292 18.3499Z" fill="#2980B9"/>
<path opacity="0.8" d="M40.7109 31.2H48.2009" stroke="#666BD1" stroke-linejoin="round"/>
<path opacity="0.8" d="M33.7109 31.2H40.4509" stroke="#C18F35" stroke-linejoin="round"/>
<path d="M37.5602 43.46C38.9249 43.46 40.2589 43.8646 41.3936 44.6228C42.5283 45.381 43.4127 46.4586 43.9349 47.7194C44.4572 48.9803 44.5938 50.3676 44.3276 51.7061C44.0613 53.0446 43.4042 54.274 42.4392 55.239C41.4742 56.204 40.2448 56.8611 38.9063 57.1274C37.5678 57.3936 36.1805 57.257 34.9196 56.7347C33.6588 56.2125 32.5812 55.3281 31.823 54.1934C31.0648 53.0587 30.6602 51.7247 30.6602 50.36C30.6628 48.5308 31.3906 46.7773 32.684 45.4839C33.9775 44.1904 35.731 43.4626 37.5602 43.46ZM37.5602 41.96C35.8988 41.96 34.2747 42.4526 32.8934 43.3756C31.512 44.2986 30.4353 45.6105 29.7996 47.1454C29.1638 48.6803 28.9974 50.3693 29.3216 51.9987C29.6457 53.6282 30.4457 55.1249 31.6205 56.2997C32.7952 57.4744 34.292 58.2744 35.9214 58.5986C37.5508 58.9227 39.2398 58.7563 40.7747 58.1206C42.3096 57.4848 43.6215 56.4081 44.5445 55.0268C45.4675 53.6454 45.9602 52.0213 45.9602 50.36C45.9602 48.1321 45.0752 45.9956 43.4999 44.4203C41.9246 42.845 39.788 41.96 37.5602 41.96Z" fill="#C18F35"/>
<path d="M44.4293 43.46C45.794 43.46 47.128 43.8646 48.2627 44.6228C49.3974 45.381 50.2818 46.4586 50.8041 47.7194C51.3263 48.9803 51.463 50.3676 51.1967 51.7061C50.9305 53.0446 50.2733 54.274 49.3083 55.239C48.3434 56.204 47.1139 56.8611 45.7754 57.1274C44.437 57.3936 43.0496 57.257 41.7888 56.7347C40.528 56.2125 39.4503 55.3281 38.6922 54.1934C37.934 53.0587 37.5293 51.7247 37.5293 50.36C37.5319 48.5308 38.2598 46.7773 39.5532 45.4839C40.8466 44.1904 42.6001 43.4626 44.4293 43.46ZM44.4293 41.96C42.7679 41.96 41.1439 42.4526 39.7625 43.3756C38.3811 44.2986 37.3045 45.6105 36.6687 47.1454C36.0329 48.6803 35.8666 50.3693 36.1907 51.9987C36.5148 53.6282 37.3148 55.1249 38.4896 56.2997C39.6644 57.4744 41.1611 58.2744 42.7905 58.5986C44.42 58.9227 46.1089 58.7563 47.6438 58.1206C49.1787 57.4848 50.4906 56.4081 51.4137 55.0268C52.3367 53.6454 52.8293 52.0213 52.8293 50.36C52.8293 48.1321 51.9443 45.9956 50.369 44.4203C48.7937 42.845 46.6571 41.96 44.4293 41.96Z" fill="#666BD1"/>
</svg>
