<svg width="64" height="64" viewBox="0 0 64 64" fill="none" xmlns="http://www.w3.org/2000/svg">
<path d="M13.1602 58.21C11.7902 58.21 11.6602 58.08 11.6602 56.71V39.52H18.6602V56.71C18.6602 58.08 18.5302 58.21 17.1602 58.21H13.1602Z" fill="#F0ECB6"/>
<path d="M18.1504 40V56.71C18.1654 57.0123 18.1384 57.3151 18.0704 57.61C17.7744 57.7088 17.4607 57.7429 17.1504 57.71H13.1504C12.8481 57.7254 12.5452 57.6984 12.2504 57.63C12.1513 57.3341 12.1172 57.0203 12.1504 56.71V40H18.1504ZM19.1504 39H11.1504V56.71C11.1504 58.36 11.5004 58.71 13.1504 58.71H17.1504C18.8004 58.71 19.1504 58.36 19.1504 56.71V39Z" fill="#C18F35"/>
<path opacity="0.8" d="M12.0508 45.8699H18.2908" stroke="#C18F35" stroke-miterlimit="10"/>
<path opacity="0.8" d="M12.0508 51.79H18.2908" stroke="#C18F35" stroke-miterlimit="10"/>
<path d="M11.6602 11.6702V7.17017C11.6602 5.80017 11.7902 5.67017 13.1602 5.67017H17.1602C18.5302 5.67017 18.6602 5.80017 18.6602 7.17017V11.6702H11.6602Z" fill="#ADDFF3"/>
<path d="M17.1504 6.17017C17.4527 6.1548 17.7556 6.18172 18.0504 6.25017C18.1492 6.54614 18.1833 6.85988 18.1504 7.17017V11.1702H12.1504V7.17017C12.1354 6.86791 12.1623 6.56504 12.2304 6.27017C12.5264 6.17138 12.8401 6.13727 13.1504 6.17017H17.1504ZM17.1504 5.17017H13.1504C11.5004 5.17017 11.1504 5.52017 11.1504 7.17017V12.1702H19.1504V7.17017C19.1504 5.52017 18.8004 5.17017 17.1504 5.17017Z" fill="#2980B9"/>
<path d="M13.1602 30.3602C11.7902 30.3602 11.6602 30.2302 11.6602 28.8602V11.6702H18.6602V28.8602C18.6602 30.2302 18.5302 30.3602 17.1602 30.3602H13.1602Z" fill="#D3D4F3"/>
<path d="M18.1504 12.1702V28.8602C18.1654 29.1624 18.1384 29.4653 18.0704 29.7602C17.7744 29.859 17.4607 29.8931 17.1504 29.8602H13.1504C12.8481 29.8755 12.5452 29.8486 12.2504 29.7802C12.1516 29.4842 12.1175 29.1705 12.1504 28.8602V12.1702H18.1504ZM19.1504 11.1702H11.1504V28.8602C11.1504 30.5102 11.5004 30.8602 13.1504 30.8602H17.1504C18.8004 30.8602 19.1504 30.5102 19.1504 28.8602V11.1702Z" fill="#666BD1"/>
<path opacity="0.8" d="M12.0508 18.02H18.2908" stroke="#666BD1" stroke-linejoin="round"/>
<path opacity="0.8" d="M12.0508 23.9402H18.2908" stroke="#666BD1" stroke-linejoin="round"/>
<path d="M11.6602 39.52V35C11.6602 33.63 11.7902 33.5 13.1602 33.5H17.1602C18.5302 33.5 18.6602 33.63 18.6602 35V39.5L11.6602 39.52Z" fill="#ADDFF3"/>
<path d="M17.1504 34C17.4527 33.9846 17.7556 34.0116 18.0504 34.08C18.1495 34.3759 18.1836 34.6897 18.1504 35V39H12.1504V35C12.1354 34.6977 12.1623 34.3949 12.2304 34.1C12.5264 34.0012 12.8401 33.9671 13.1504 34H17.1504ZM17.1504 33H13.1504C11.5004 33 11.1504 33.35 11.1504 35V40H19.1504V35C19.1504 33.35 18.8004 33 17.1504 33Z" fill="#2980B9"/>
<path d="M22.2507 41.12C22.9652 41.1182 23.6686 40.9432 24.3007 40.61C24.7461 40.3537 25.1128 39.9802 25.3607 39.53C25.5883 39.0956 25.7244 38.6191 25.7607 38.13C25.8007 37.63 25.8207 37.1433 25.8207 36.67V37C25.8207 36.32 25.8207 35.75 25.8207 35.28C25.8553 34.8832 25.9154 34.4891 26.0007 34.1C26.043 33.8113 26.1307 33.5312 26.2607 33.27C26.3749 33.0481 26.5234 32.8456 26.7007 32.67C26.8826 32.4859 27.0917 32.3307 27.3207 32.21C27.5258 32.1016 27.7399 32.0113 27.9607 31.94C28.1565 31.8792 28.3573 31.8357 28.5607 31.81C28.7507 31.81 28.7507 31.71 28.5607 31.69C28.3573 31.6642 28.1565 31.6207 27.9607 31.56C27.7393 31.4906 27.525 31.4001 27.3207 31.29C27.0916 31.1694 26.8825 31.0143 26.7007 30.83C26.5239 30.654 26.3754 30.4516 26.2607 30.23C26.1309 29.9688 26.0431 29.6886 26.0007 29.4C25.9382 29.0028 25.9014 28.602 25.8907 28.2C25.8907 27.7267 25.8907 27.15 25.8907 26.47V26.83C25.8907 26.36 25.8907 25.83 25.8307 25.37C25.7947 24.8809 25.6585 24.4043 25.4307 23.97C25.1619 23.5144 24.7703 23.1436 24.3007 22.9C23.6679 22.5687 22.965 22.3938 22.2507 22.39V22H22.7807C23.0067 22.0181 23.2308 22.0549 23.4507 22.11C23.696 22.1688 23.9367 22.2457 24.1707 22.34C24.4222 22.4431 24.6578 22.5811 24.8707 22.75C25.2005 22.9963 25.4819 23.3014 25.7007 23.65C25.8997 23.9817 26.0448 24.3429 26.1307 24.72C26.22 25.1411 26.2702 25.5696 26.2807 26C26.2807 26.47 26.2807 27.88 26.2807 27.88C26.2729 28.3827 26.3131 28.885 26.4007 29.38C26.4672 29.7668 26.6287 30.131 26.8707 30.44C27.1417 30.7589 27.4844 31.009 27.8707 31.17C27.9699 31.232 28.0517 31.3183 28.1084 31.4206C28.1651 31.5229 28.1948 31.638 28.1948 31.755C28.1948 31.872 28.1651 31.9871 28.1084 32.0894C28.0517 32.1917 27.9699 32.278 27.8707 32.34C27.4846 32.5013 27.142 32.7514 26.8707 33.07C26.6294 33.3794 26.468 33.7434 26.4007 34.13C26.3131 34.625 26.2729 35.1273 26.2807 35.63C26.2807 35.63 26.1907 38.41 26.1007 38.8C26.015 39.1772 25.8698 39.5384 25.6707 39.87C25.4524 40.219 25.1709 40.5242 24.8407 40.77C24.6277 40.9388 24.3921 41.0768 24.1407 41.18C23.9064 41.2734 23.6658 41.3503 23.4207 41.41C23.2006 41.4641 22.9766 41.5009 22.7507 41.52H22.2207L22.2507 41.12Z" fill="#34495E" stroke="#528D19" stroke-miterlimit="10"/>
<path d="M35.1797 37.79C33.8097 37.79 33.6797 37.66 33.6797 36.29V24.79H40.9997V37.79H35.1797Z" fill="#F0ECB6"/>
<path d="M40.4597 25.29V37.29H35.1797C34.8774 37.3054 34.5745 37.2785 34.2797 37.21C34.1806 36.9141 34.1465 36.6003 34.1797 36.29V25.29H40.4597ZM41.4597 24.29H33.1797V36.29C33.1797 37.94 33.5297 38.29 35.1797 38.29H41.4597V24.29Z" fill="#C18F35"/>
<path d="M40.9492 37.79V24.79H48.2292V36.29C48.2292 37.66 48.0992 37.79 46.7292 37.79H40.9492Z" fill="#D3D4F3"/>
<path d="M47.7292 25.29V36.29C47.7442 36.5923 47.7173 36.8952 47.6492 37.19C47.3532 37.2888 47.0395 37.3229 46.7292 37.29H41.4492V25.29H47.7292ZM48.7292 24.29H40.4492V38.29H46.7292C48.3792 38.29 48.7292 37.94 48.7292 36.29V24.29Z" fill="#666BD1"/>
<path d="M33.6797 24.79V20.29C33.6797 18.92 33.8097 18.79 35.1797 18.79H40.9997V24.79H33.6797Z" fill="#ADDFF3"/>
<path d="M40.4597 19.29V24.29H34.1797V20.29C34.1647 19.9878 34.1916 19.6849 34.2597 19.39C34.5557 19.2912 34.8694 19.2571 35.1797 19.29H40.4597ZM41.4597 18.29H35.1797C33.5297 18.29 33.1797 18.64 33.1797 20.29V25.29H41.4597V18.29Z" fill="#2980B9"/>
<path d="M40.9492 24.79V18.79H46.7292C48.0992 18.79 48.2292 18.92 48.2292 20.29V24.79H40.9492Z" fill="#ADDFF3"/>
<path d="M46.7292 19.29C47.0315 19.2747 47.3344 19.3016 47.6292 19.37C47.728 19.666 47.7621 19.9797 47.7292 20.29V24.29H41.4492V19.29H46.7292ZM46.7292 18.29H40.4492V25.29H48.7292V20.29C48.7292 18.64 48.3792 18.29 46.7292 18.29Z" fill="#2980B9"/>
<path opacity="0.8" d="M40.7109 31.1401H48.2009" stroke="#666BD1" stroke-linejoin="round"/>
<path opacity="0.8" d="M33.7109 31.1401H40.4509" stroke="#C18F35" stroke-linejoin="round"/>
<path d="M36.0003 50.4201C36.0044 48.7967 36.4788 47.2093 37.3662 45.8499C38.2535 44.4904 39.5158 43.4172 41.0003 42.7601C39.7212 42.1867 38.3188 41.9425 36.9211 42.0498C35.5234 42.1571 34.1748 42.6125 32.9981 43.3745C31.8215 44.1364 30.8542 45.1808 30.1846 46.4123C29.5149 47.6438 29.1641 49.0233 29.1641 50.4251C29.1641 51.827 29.5149 53.2065 30.1846 54.438C30.8542 55.6695 31.8215 56.7139 32.9981 57.4758C34.1748 58.2378 35.5234 58.6932 36.9211 58.8005C38.3188 58.9078 39.7212 58.6636 41.0003 58.0901C39.5143 57.4324 38.2509 56.3576 37.3635 54.9962C36.476 53.6349 36.0025 52.0453 36.0003 50.4201Z" fill="#88F625"/>
<path d="M37.5602 43.4001C38.9249 43.4001 40.2589 43.8048 41.3936 44.563C42.5283 45.3212 43.4127 46.3988 43.9349 47.6596C44.4572 48.9204 44.5938 50.3078 44.3276 51.6463C44.0613 52.9847 43.4042 54.2142 42.4392 55.1792C41.4742 56.1442 40.2448 56.8013 38.9063 57.0676C37.5678 57.3338 36.1805 57.1972 34.9196 56.6749C33.6588 56.1527 32.5812 55.2683 31.823 54.1336C31.0648 52.9989 30.6602 51.6648 30.6602 50.3001C30.6628 48.471 31.3906 46.7175 32.684 45.424C33.9775 44.1306 35.731 43.4028 37.5602 43.4001ZM37.5602 41.9001C35.8988 41.9001 34.2747 42.3928 32.8934 43.3158C31.512 44.2388 30.4353 45.5507 29.7996 47.0856C29.1638 48.6205 28.9974 50.3095 29.3216 51.9389C29.6457 53.5683 30.4457 55.0651 31.6205 56.2398C32.7952 57.4146 34.292 58.2146 35.9214 58.5387C37.5508 58.8629 39.2398 58.6965 40.7747 58.0607C42.3096 57.425 43.6215 56.3483 44.5445 54.9669C45.4675 53.5856 45.9602 51.9615 45.9602 50.3001C45.9602 48.0723 45.0752 45.9358 43.4999 44.3604C41.9246 42.7851 39.788 41.9001 37.5602 41.9001Z" fill="#C18F35"/>
<path d="M44.4293 43.4001C45.794 43.4001 47.128 43.8048 48.2627 44.563C49.3974 45.3212 50.2818 46.3988 50.8041 47.6596C51.3263 48.9204 51.463 50.3078 51.1967 51.6463C50.9305 52.9847 50.2733 54.2142 49.3083 55.1792C48.3434 56.1442 47.1139 56.8013 45.7754 57.0676C44.437 57.3338 43.0496 57.1972 41.7888 56.6749C40.528 56.1527 39.4503 55.2683 38.6922 54.1336C37.934 52.9989 37.5293 51.6648 37.5293 50.3001C37.5319 48.471 38.2598 46.7175 39.5532 45.424C40.8466 44.1306 42.6001 43.4028 44.4293 43.4001ZM44.4293 41.9001C42.7679 41.9001 41.1439 42.3928 39.7625 43.3158C38.3811 44.2388 37.3045 45.5507 36.6687 47.0856C36.0329 48.6205 35.8666 50.3095 36.1907 51.9389C36.5148 53.5683 37.3148 55.0651 38.4896 56.2398C39.6644 57.4146 41.1611 58.2146 42.7905 58.5387C44.42 58.8629 46.1089 58.6965 47.6438 58.0607C49.1787 57.425 50.4906 56.3483 51.4137 54.9669C52.3367 53.5856 52.8293 51.9615 52.8293 50.3001C52.8293 48.0723 51.9443 45.9358 50.369 44.3604C48.7937 42.7851 46.6571 41.9001 44.4293 41.9001Z" fill="#666BD1"/>
</svg>
