<svg width="64" height="64" viewBox="0 0 64 64" fill="none" xmlns="http://www.w3.org/2000/svg">
<path d="M10.1602 56.5C8.79016 56.5 8.66016 56.37 8.66016 55V15.5H17.6602V55C17.6602 56.37 17.5302 56.5 16.1602 56.5H10.1602Z" fill="#D3D4F3"/>
<path d="M17.1406 16V55C17.1556 55.3023 17.1287 55.6051 17.0606 55.9C16.7647 55.9988 16.4509 56.0329 16.1406 56H10.1406C9.83836 56.0154 9.53544 55.9884 9.24062 55.92C9.14183 55.624 9.10773 55.3103 9.14063 55V16H17.1406ZM18.1406 15H8.14062V55C8.14062 56.65 8.49063 57 10.1406 57H16.1406C17.7906 57 18.1406 56.65 18.1406 55V15Z" fill="#666BD1"/>
<path d="M8.66016 15.5V9C8.66016 7.63 8.79016 7.5 10.1602 7.5H16.1602C17.5302 7.5 17.6602 7.63 17.6602 9V15.5H8.66016Z" fill="#ADDFF3"/>
<path d="M16.1406 8C16.4429 7.98463 16.7458 8.01156 17.0406 8.08C17.1394 8.37598 17.1735 8.68971 17.1406 9V15H9.14063V9C9.12565 8.69775 9.15257 8.39487 9.22063 8.1C9.5166 8.00121 9.83034 7.96711 10.1406 8H16.1406ZM16.1406 7H10.1406C8.49063 7 8.14062 7.35 8.14062 9V16H18.1406V9C18.1406 7.35 17.7906 7 16.1406 7Z" fill="#2980B9"/>
<g opacity="0.7">
<path opacity="0.7" d="M9.16992 23.74H17.1299" stroke="#666BD1" stroke-linejoin="round"/>
<path opacity="0.7" d="M9.16992 31.49H17.1299" stroke="#666BD1" stroke-linejoin="round"/>
<path opacity="0.7" d="M9.16992 39.23H17.1299" stroke="#666BD1" stroke-linejoin="round"/>
<path opacity="0.7" d="M9.16992 46.97H17.1299" stroke="#666BD1" stroke-linejoin="round"/>
</g>
<path d="M47.1797 46.22V18.22H53.3997C54.7697 18.22 54.8997 18.35 54.8997 19.72V44.72C54.8997 46.09 54.7697 46.22 53.3997 46.22H47.1797Z" fill="#D3D4F3"/>
<path d="M53.3997 18.72C53.702 18.7046 54.0049 18.7315 54.2997 18.8C54.3985 19.0959 54.4326 19.4097 54.3997 19.72V44.72C54.4147 45.0222 54.3877 45.3251 54.3197 45.62C54.0237 45.7188 53.71 45.7529 53.3997 45.72H47.6797V18.72H53.3997ZM53.3997 17.72H46.6797V46.72H53.3997C55.0497 46.72 55.3997 46.37 55.3997 44.72V19.72C55.3997 18.07 55.0497 17.72 53.3997 17.72Z" fill="#666BD1"/>
<path d="M26.4199 46.22C25.0499 46.22 24.9199 46.09 24.9199 44.72V24.22H47.1999V46.22H26.4199Z" fill="#F0ECB6"/>
<path d="M46.6999 24.72V45.72H26.4199C26.1177 45.7353 25.8147 45.7084 25.5199 45.64C25.4211 45.344 25.387 45.0303 25.4199 44.72V24.72H46.6999ZM47.6999 23.72H24.4199V44.72C24.4199 46.37 24.7699 46.72 26.4199 46.72H47.6999V23.72Z" fill="#C18F35"/>
<path d="M24.9199 24.22V19.72C24.9199 18.35 25.0499 18.22 26.4199 18.22H47.1999V24.22H24.9199Z" fill="#ADDFF3"/>
<path d="M46.6999 18.72V23.72H25.4199V19.72C25.4049 19.4177 25.4319 19.1148 25.4999 18.82C25.7959 18.7212 26.1096 18.6871 26.4199 18.72H46.6999ZM47.6999 17.72H26.4199C24.7699 17.72 24.4199 18.07 24.4199 19.72V24.72H47.6999V17.72Z" fill="#2980B9"/>
<path d="M32.3809 24.05V18.24" stroke="#2980B9" stroke-miterlimit="10" stroke-linecap="round"/>
<path d="M54.7792 24.22H47.6992" stroke="#666BD1" stroke-miterlimit="10"/>
<path opacity="0.8" d="M54.7792 31.49H47.6992" stroke="#666BD1" stroke-miterlimit="10"/>
<path opacity="0.8" d="M54.7792 38.96H47.6992" stroke="#666BD1" stroke-miterlimit="10"/>
<path d="M40.1309 24.05V18.24" stroke="#2980B9" stroke-miterlimit="10" stroke-linecap="round"/>
<path d="M32.3809 46.05V24.72" stroke="#C18F35" stroke-linejoin="round"/>
<path d="M40.1309 46.05V24.72" stroke="#C18F35" stroke-linejoin="round"/>
<path d="M24.9492 31.5698H47.1992" stroke="#C18F35" stroke-linejoin="round"/>
<path d="M24.9492 38.96H47.1992" stroke="#C18F35" stroke-linejoin="round"/>
<path d="M10.0508 32.8599H16.4208V37.9999H10.0508V32.8599Z" fill="#CC0000"/>
<path d="M33.5898 32.71H38.9998V37.94H33.5998L33.5898 32.71Z" fill="#CC0000"/>
<path d="M33.2101 35.53L29.8301 33V38.06L33.2101 35.53Z" fill="#528D19"/>
<path fill-rule="evenodd" clip-rule="evenodd" d="M29.6063 32.5529C29.7755 32.4682 29.9782 32.4863 30.1297 32.5997L33.5097 35.1297C33.6358 35.2241 33.7101 35.3725 33.7101 35.53C33.7101 35.6875 33.6358 35.8359 33.5097 35.9303L30.1297 38.4603C29.9782 38.5737 29.7755 38.5919 29.6063 38.5071C29.437 38.4224 29.3301 38.2493 29.3301 38.06V33C29.3301 32.8107 29.437 32.6376 29.6063 32.5529ZM30.3301 33.9988V37.0612L32.3757 35.53L30.3301 33.9988Z" fill="#528D19"/>
<path fill-rule="evenodd" clip-rule="evenodd" d="M18.1094 35.53C18.1094 34.9777 18.5571 34.53 19.1094 34.53H29.5494C30.1017 34.53 30.5494 34.9777 30.5494 35.53C30.5494 36.0823 30.1017 36.53 29.5494 36.53H19.1094C18.5571 36.53 18.1094 36.0823 18.1094 35.53Z" fill="#528D19"/>
<path d="M36.6198 7.67017L34.0898 11.0502H39.1498L36.6198 7.67017Z" fill="#528D19"/>
<path fill-rule="evenodd" clip-rule="evenodd" d="M36.6198 7.17017C36.7774 7.17017 36.9257 7.24442 37.0201 7.37054L39.5501 10.7505C39.6636 10.9021 39.6817 11.1047 39.597 11.274C39.5122 11.4433 39.3392 11.5502 39.1498 11.5502H34.0898C33.9005 11.5502 33.7275 11.4433 33.6427 11.274C33.558 11.1047 33.5761 10.9021 33.6896 10.7505L36.2196 7.37055C36.314 7.24442 36.4623 7.17017 36.6198 7.17017ZM36.6198 8.50455L35.0887 10.5502H38.151L36.6198 8.50455Z" fill="#528D19"/>
<path fill-rule="evenodd" clip-rule="evenodd" d="M36.6191 10.3298C37.1714 10.3298 37.6191 10.7775 37.6191 11.3298V30.7698C37.6191 31.3221 37.1714 31.7698 36.6191 31.7698C36.0669 31.7698 35.6191 31.3221 35.6191 30.7698V11.3298C35.6191 10.7775 36.0669 10.3298 36.6191 10.3298Z" fill="#528D19"/>
</svg>
