<svg width="64" height="64" viewBox="0 0 64 64" fill="none" xmlns="http://www.w3.org/2000/svg">
<path d="M10.3809 56.5C9.01086 56.5 8.88086 56.37 8.88086 55V15.5H17.8809V55C17.8809 56.37 17.7509 56.5 16.3809 56.5H10.3809Z" fill="#D3D4F3"/>
<path d="M17.3594 16V55C17.3744 55.3023 17.3474 55.6051 17.2794 55.9C16.9834 55.9988 16.6697 56.0329 16.3594 56H10.3594C10.0571 56.0154 9.75419 55.9884 9.45938 55.92C9.36028 55.6241 9.32617 55.3103 9.35937 55V16H17.3594ZM18.3594 15H8.35938V55C8.35938 56.65 8.70937 57 10.3594 57H16.3594C18.0094 57 18.3594 56.65 18.3594 55V15Z" fill="#666BD1"/>
<path d="M8.88086 15.5V9C8.88086 7.63 9.01086 7.5 10.3809 7.5H16.3809C17.7509 7.5 17.8809 7.63 17.8809 9V15.5H8.88086Z" fill="#ADDFF3"/>
<path d="M16.3594 8C16.6616 7.98463 16.9646 8.01156 17.2594 8.08C17.3585 8.37591 17.3926 8.68971 17.3594 9V15H9.35937V9C9.3444 8.69775 9.37132 8.39487 9.43937 8.1C9.73535 8.00121 10.0491 7.96711 10.3594 8H16.3594ZM16.3594 7H10.3594C8.70937 7 8.35938 7.35 8.35938 9V16H18.3594V9C18.3594 7.35 18.0094 7 16.3594 7Z" fill="#2980B9"/>
<g opacity="0.7">
<path opacity="0.7" d="M9.39062 23.74H17.3506" stroke="#666BD1" stroke-linejoin="round"/>
<path opacity="0.7" d="M9.39062 31.49H17.3506" stroke="#666BD1" stroke-linejoin="round"/>
<path opacity="0.7" d="M9.39062 39.23H17.3506" stroke="#666BD1" stroke-linejoin="round"/>
<path opacity="0.7" d="M9.39062 46.97H17.3506" stroke="#666BD1" stroke-linejoin="round"/>
</g>
<path d="M47.4004 46.22V18.22H53.6204C54.9904 18.22 55.1204 18.35 55.1204 19.72V44.72C55.1204 46.09 54.9904 46.22 53.6204 46.22H47.4004Z" fill="#D3D4F3"/>
<path d="M53.6204 18.72C53.9227 18.7046 54.2256 18.7315 54.5204 18.8C54.6192 19.0959 54.6533 19.4097 54.6204 19.72V44.72C54.6354 45.0222 54.6085 45.3251 54.5404 45.62C54.2444 45.7188 53.9307 45.7529 53.6204 45.72H47.9004V18.72H53.6204ZM53.6204 17.72H46.9004V46.72H53.6204C55.2704 46.72 55.6204 46.37 55.6204 44.72V19.72C55.6204 18.07 55.2704 17.72 53.6204 17.72Z" fill="#666BD1"/>
<path d="M26.6406 46.22C25.2706 46.22 25.1406 46.09 25.1406 44.72V24.22H47.4206V46.22H26.6406Z" fill="#F0ECB6"/>
<path d="M46.9206 24.72V45.72H26.6406C26.3384 45.7353 26.0354 45.7084 25.7406 45.64C25.6418 45.344 25.6077 45.0303 25.6406 44.72V24.72H46.9206ZM47.9206 23.72H24.6406V44.72C24.6406 46.37 24.9906 46.72 26.6406 46.72H47.9206V23.72Z" fill="#C18F35"/>
<path d="M25.1406 24.22V19.72C25.1406 18.35 25.2706 18.22 26.6406 18.22H47.4206V24.22H25.1406Z" fill="#ADDFF3"/>
<path d="M46.9206 18.72V23.72H25.6406V19.72C25.6256 19.4177 25.6526 19.1148 25.7206 18.82C26.0166 18.7212 26.3303 18.6871 26.6406 18.72H46.9206ZM47.9206 17.72H26.6406C24.9906 17.72 24.6406 18.07 24.6406 19.72V24.72H47.9206V17.72Z" fill="#2980B9"/>
<path d="M32.5996 24.05V18.24" stroke="#2980B9" stroke-miterlimit="10" stroke-linecap="round"/>
<path d="M54.9999 24.22H47.9199" stroke="#666BD1" stroke-miterlimit="10"/>
<path opacity="0.8" d="M54.9999 31.49H47.9199" stroke="#666BD1" stroke-miterlimit="10"/>
<path opacity="0.8" d="M54.9999 38.96H47.9199" stroke="#666BD1" stroke-miterlimit="10"/>
<path d="M40.3496 24.05V18.24" stroke="#2980B9" stroke-miterlimit="10" stroke-linecap="round"/>
<path opacity="0.8" d="M32.5996 46.05V24.72" stroke="#C18F35" stroke-linejoin="round"/>
<path opacity="0.8" d="M40.3496 46.05V24.72" stroke="#C18F35" stroke-linejoin="round"/>
<path opacity="0.8" d="M25.1699 31.5698H47.4199" stroke="#C18F35" stroke-linejoin="round"/>
<path opacity="0.8" d="M25.1699 38.96H47.4199" stroke="#C18F35" stroke-linejoin="round"/>
<path d="M10.2695 32.8599H16.6495V37.9999H10.2695V32.8599Z" fill="#CC0000"/>
<path d="M33.8105 32.71H39.2105V37.94H33.8105V32.71Z" fill="#CC0000"/>
<path d="M33.4308 35.53L30.0508 33V38.06L33.4308 35.53Z" fill="#528D19"/>
<path fill-rule="evenodd" clip-rule="evenodd" d="M29.827 32.5529C29.9962 32.4682 30.1989 32.4863 30.3504 32.5997L33.7304 35.1297C33.8565 35.2241 33.9308 35.3725 33.9308 35.53C33.9308 35.6875 33.8565 35.8359 33.7304 35.9303L30.3504 38.4603C30.1989 38.5737 29.9962 38.5919 29.827 38.5071C29.6577 38.4224 29.5508 38.2493 29.5508 38.06V33C29.5508 32.8107 29.6577 32.6376 29.827 32.5529ZM30.5508 33.9988V37.0612L32.5964 35.53L30.5508 33.9988Z" fill="#528D19"/>
<path fill-rule="evenodd" clip-rule="evenodd" d="M18.3301 35.53C18.3301 34.9777 18.7778 34.53 19.3301 34.53H29.7701C30.3224 34.53 30.7701 34.9777 30.7701 35.53C30.7701 36.0823 30.3224 36.53 29.7701 36.53H19.3301C18.7778 36.53 18.3301 36.0823 18.3301 35.53Z" fill="#528D19"/>
<path d="M36.8405 7.67017L34.3105 11.0502H39.3705L36.8405 7.67017Z" fill="#528D19"/>
<path fill-rule="evenodd" clip-rule="evenodd" d="M36.8405 7.17017C36.9981 7.17017 37.1464 7.24442 37.2408 7.37055L39.7708 10.7505C39.8843 10.9021 39.9024 11.1047 39.8177 11.274C39.7329 11.4433 39.5598 11.5502 39.3705 11.5502H34.3105C34.1212 11.5502 33.9482 11.4433 33.8634 11.274C33.7787 11.1047 33.7968 10.9021 33.9103 10.7505L36.4403 7.37055C36.5347 7.24442 36.683 7.17017 36.8405 7.17017ZM35.3094 10.5502H38.3717L36.8405 8.50455L35.3094 10.5502Z" fill="#528D19"/>
<path fill-rule="evenodd" clip-rule="evenodd" d="M36.8398 10.3298C37.3921 10.3298 37.8398 10.7775 37.8398 11.3298V30.7698C37.8398 31.3221 37.3921 31.7698 36.8398 31.7698C36.2876 31.7698 35.8398 31.3221 35.8398 30.7698V11.3298C35.8398 10.7775 36.2876 10.3298 36.8398 10.3298Z" fill="#528D19"/>
</svg>
