<svg width="64" height="64" viewBox="0 0 64 64" fill="none" xmlns="http://www.w3.org/2000/svg">
<path d="M16.7305 57.47C15.3605 57.47 15.2305 57.34 15.2305 55.97V15.53H56.2305V56C56.2305 57.37 56.1005 57.5 54.7305 57.5L16.7305 57.47Z" fill="#F0ECB6"/>
<path d="M55.7207 16V56C55.7356 56.3022 55.7086 56.6051 55.6407 56.9C55.3447 56.9988 55.031 57.0329 54.7207 57H16.7207C16.4184 57.0154 16.1155 56.9884 15.8207 56.92C15.7219 56.624 15.6878 56.3103 15.7207 56V16H55.7207ZM56.7207 15H14.7207V56C14.7207 57.65 15.0707 58 16.7207 58H54.7207C56.3707 58 56.7207 57.65 56.7207 56V15Z" fill="#C18F36"/>
<path d="M55.7395 49.53H48.5195V56.97H55.7395V49.53Z" fill="#88F625"/>
<path d="M47.5403 49.53H40.3203V56.97H47.5403V49.53Z" fill="#88F625"/>
<path d="M39.3391 49.53H32.1191V56.97H39.3391V49.53Z" fill="#88F625"/>
<g opacity="0.8">
<path opacity="0.8" d="M23.4297 56.97V15.97" stroke="#C18F36" stroke-miterlimit="10"/>
<path opacity="0.8" d="M39.8301 56.97V15.97" stroke="#C18F36" stroke-miterlimit="10"/>
<path opacity="0.8" d="M31.6309 56.97V15.97" stroke="#C18F36" stroke-miterlimit="10"/>
<path opacity="0.8" d="M48.0312 56.97V15.97" stroke="#C18F36" stroke-miterlimit="10"/>
<path opacity="0.8" d="M15.7305 23.97H55.7005" stroke="#C18F36" stroke-miterlimit="10"/>
<path opacity="0.8" d="M15.7305 32.3398H55.7005" stroke="#C18F36" stroke-miterlimit="10"/>
<path opacity="0.8" d="M15.7305 40.71H55.7005" stroke="#C18F36" stroke-miterlimit="10"/>
<path opacity="0.8" d="M15.7305 49.0798H55.7005" stroke="#C18F36" stroke-miterlimit="10"/>
</g>
<path d="M48 15.53V6.53003H54.69C56.06 6.53003 56.19 6.66003 56.19 8.03003V15.53H48Z" fill="#ADDFF3"/>
<path d="M54.7293 7C55.0316 6.98463 55.3345 7.01156 55.6293 7.08C55.7281 7.37598 55.7622 7.68971 55.7293 8V15H48.5293V7H54.7193H54.7293ZM54.7193 6H47.5293V16H56.7193V8C56.7193 6.35 56.3693 6 54.7193 6Z" fill="#2980B9"/>
<path d="M15.2305 15.53V8C15.2305 6.63 15.3605 6.5 16.7305 6.5H23.4205V15.5L15.2305 15.53Z" fill="#ADDFF3"/>
<path d="M22.9305 7V15H15.7305V8C15.7156 7.69775 15.7425 7.39489 15.8105 7.1C16.1064 7.00121 16.4202 6.96711 16.7305 7H22.9205H22.9305ZM23.9205 6H16.7305C15.0805 6 14.7305 6.35 14.7305 8V16H23.9205V6Z" fill="#2980B9"/>
<path d="M48.0201 6.53003H39.8301V15.53H48.0201V6.53003Z" fill="#ADDFF3"/>
<path d="M47.5201 7V15H40.3301V7H47.5101H47.5201ZM48.5101 6H39.3301V16H48.5201V6H48.5101Z" fill="#2980B9"/>
<path d="M39.8306 6.53003H31.6406V15.53H39.8306V6.53003Z" fill="#ADDFF3"/>
<path d="M39.3306 7V15H32.1406V7H39.3206H39.3306ZM40.3206 6H31.1406V16H40.3306V6H40.3206Z" fill="#2980B9"/>
<path d="M31.6192 6.53003H23.4492V15.53H31.6192V6.53003Z" fill="#ADDFF3"/>
<path d="M31.12 7V15H23.95V7H31.12ZM32.12 6H23V16H32.18V6H32.12Z" fill="#2980B9"/>
<path d="M7.26962 28.2801C7.2648 27.6143 7.45733 26.962 7.82293 26.4054C8.18852 25.8489 8.71078 25.4132 9.3238 25.1532C9.93681 24.8932 10.6131 24.8207 11.2673 24.9447C11.9215 25.0688 12.5243 25.3838 12.9996 25.8501L13.1296 25.9801L13.1796 26.0302L24.7196 37.5801C24.8009 37.624 24.8645 37.6947 24.8996 37.7801L26.5296 43.6001V43.6601C26.5349 43.7 26.5349 43.7403 26.5296 43.7801C26.5355 43.8199 26.5355 43.8604 26.5296 43.9001C26.5146 43.9362 26.4944 43.9699 26.4696 44.0001L26.3696 44.0601H26.2496H26.1296H25.9996L20.1796 42.4301C20.0942 42.395 20.0235 42.3314 19.9796 42.2501L8.21962 30.6401C8.1859 30.6053 8.1588 30.5647 8.13962 30.5201C7.58258 29.9068 7.27263 29.1087 7.26962 28.2801ZM20.1696 41.4301L21.1696 39.4301L11.2396 29.5001L9.72962 31.0001L20.1696 41.4301ZM25.1696 41.9801L24.3296 42.8201L25.4996 43.1501L25.1696 41.9801ZM24.1696 38.5001L21.9996 39.6001L20.9096 41.8601L23.4796 42.5801L24.9696 41.0901L24.1696 38.5001ZM23.7496 37.8001L13.3496 27.3701L11.8296 28.8901L21.7596 38.8201L23.7496 37.8001ZM8.09962 28.3101C8.09998 28.6639 8.17396 29.0138 8.31685 29.3375C8.45974 29.6611 8.66842 29.9515 8.92962 30.1901L9.14962 30.4101L12.7696 26.7901L12.5496 26.5701C12.2007 26.1882 11.7443 25.921 11.2405 25.8036C10.7367 25.6862 10.2091 25.7242 9.72733 25.9126C9.24555 26.101 8.83214 26.4309 8.54157 26.8589C8.25101 27.2869 8.09693 27.7929 8.09962 28.3101Z" fill="#C18F36"/>
<path d="M20.1705 41.45L21.1705 39.42L21.1805 39.41L11.2505 29.48L9.73047 31L20.1705 41.45Z" fill="#F0ECB6"/>
<path d="M13.3501 27.3801L11.8301 28.9001L21.7601 38.8301L21.7701 38.8201L23.7901 37.8301L13.3501 27.3801Z" fill="#F0ECB6"/>
<path d="M8.11914 28.2698C8.1258 28.6274 8.20758 28.9795 8.35919 29.3034C8.5108 29.6273 8.72883 29.9157 8.99914 30.1498L9.21914 30.3698L12.8391 26.7498L12.6191 26.5298C12.2708 26.1486 11.8153 25.8815 11.3124 25.7639C10.8096 25.6462 10.2829 25.6834 9.80153 25.8705C9.32019 26.0576 8.90669 26.386 8.61536 26.8124C8.32402 27.2388 8.16848 27.7434 8.16914 28.2598L8.11914 28.2698Z" fill="#F0ECB6"/>
<path d="M24.2191 38.52L21.9591 39.6L20.8691 41.86L23.4391 42.58L24.9391 41.09L24.2191 38.52Z" fill="#F0ECB6"/>
</svg>
