<svg width="64" height="64" viewBox="0 0 64 64" fill="none" xmlns="http://www.w3.org/2000/svg">
<path fill-rule="evenodd" clip-rule="evenodd" d="M13.6516 35.9116C13.8274 35.8022 14.0586 35.8561 14.1681 36.0319L19.4381 44.5019C19.5475 44.6778 19.4936 44.909 19.3178 45.0184C19.1419 45.1278 18.9107 45.074 18.8013 44.8981L13.5313 36.4281C13.4218 36.2523 13.4757 36.021 13.6516 35.9116Z" fill="#747474"/>
<path fill-rule="evenodd" clip-rule="evenodd" d="M19.2897 27.6028C19.4649 27.7132 19.5173 27.9448 19.4069 28.12L14.1669 36.43C14.0564 36.6052 13.8248 36.6576 13.6496 36.5472C13.4745 36.4367 13.422 36.2051 13.5325 36.0299L18.7725 27.72C18.8829 27.5448 19.1145 27.4923 19.2897 27.6028Z" fill="#747474"/>
<path fill-rule="evenodd" clip-rule="evenodd" d="M27.3388 44.1073C27.4618 43.9406 27.6965 43.9051 27.8632 44.0281L35.8632 49.928C36.0299 50.051 36.0654 50.2857 35.9425 50.4524C35.8195 50.6191 35.5848 50.6546 35.4181 50.5316L27.4181 44.6317C27.2514 44.5087 27.2159 44.274 27.3388 44.1073Z" fill="#747474"/>
<path fill-rule="evenodd" clip-rule="evenodd" d="M35.9513 38.7099C36.0673 38.8815 36.0223 39.1146 35.8507 39.2306L27.8507 44.6406C27.6792 44.7566 27.446 44.7116 27.33 44.54C27.214 44.3685 27.259 44.1353 27.4306 44.0193L35.4306 38.6093C35.6022 38.4933 35.8353 38.5383 35.9513 38.7099Z" fill="#747474"/>
<path d="M25.7398 41.6501H20.7598C19.9313 41.6501 19.2598 42.3217 19.2598 43.1501V45.8401C19.2598 46.6686 19.9313 47.3401 20.7598 47.3401H25.7398C26.5682 47.3401 27.2398 46.6686 27.2398 45.8401V43.1501C27.2398 42.3217 26.5682 41.6501 25.7398 41.6501Z" fill="#F0ECB6"/>
<path d="M25.75 42.1501C26.0518 42.135 26.3542 42.1585 26.65 42.2201C26.744 42.5206 26.778 42.8366 26.75 43.1501V45.8401C26.7663 46.1424 26.7394 46.4455 26.67 46.7401C26.67 46.7401 26.48 46.8401 25.75 46.8401H20.75C20.4477 46.8574 20.1445 46.8305 19.85 46.7601C19.7533 46.4637 19.7192 46.1504 19.75 45.8401V43.1501C19.7337 42.8479 19.7606 42.5448 19.83 42.2501C19.83 42.2501 20.02 42.1501 20.75 42.1501H25.75ZM25.75 41.1501H20.75C19.1 41.1501 18.75 41.5001 18.75 43.1501V45.8401C18.75 47.4901 19.1 47.8401 20.75 47.8401H25.75C27.4 47.8401 27.75 47.4901 27.75 45.8401V43.1501C27.75 41.5001 27.4 41.1501 25.75 41.1501Z" fill="#C18F35"/>
<path fill-rule="evenodd" clip-rule="evenodd" d="M27.3388 27.6073C27.4618 27.4406 27.6965 27.4051 27.8632 27.5281L35.8632 33.4281C36.0299 33.551 36.0654 33.7858 35.9425 33.9524C35.8195 34.1191 35.5848 34.1546 35.4181 34.0317L27.4181 28.1317C27.2514 28.0087 27.2159 27.774 27.3388 27.6073Z" fill="#747474"/>
<path fill-rule="evenodd" clip-rule="evenodd" d="M35.9513 22.2099C36.0673 22.3815 36.0223 22.6146 35.8507 22.7306L27.8507 28.1406C27.6792 28.2566 27.446 28.2116 27.33 28.04C27.214 27.8685 27.259 27.6353 27.4306 27.5193L35.4306 22.1093C35.6022 21.9933 35.8353 22.0383 35.9513 22.2099Z" fill="#747474"/>
<path d="M25.7398 25.1501H20.7598C19.9313 25.1501 19.2598 25.8217 19.2598 26.6501V29.3401C19.2598 30.1686 19.9313 30.8401 20.7598 30.8401H25.7398C26.5682 30.8401 27.2398 30.1686 27.2398 29.3401V26.6501C27.2398 25.8217 26.5682 25.1501 25.7398 25.1501Z" fill="#F0ECB6"/>
<path d="M25.75 25.6501C26.0518 25.635 26.3542 25.6585 26.65 25.7201C26.744 26.0206 26.778 26.3366 26.75 26.6501V29.3401C26.7663 29.6424 26.7394 29.9455 26.67 30.2401C26.67 30.2401 26.48 30.3401 25.75 30.3401H20.75C20.4477 30.3574 20.1445 30.3305 19.85 30.2601C19.7533 29.9637 19.7192 29.6504 19.75 29.3401V26.6501C19.7337 26.3479 19.7606 26.0448 19.83 25.7501C19.83 25.7501 20.02 25.6501 20.75 25.6501H25.75ZM25.75 24.6501H20.75C19.1 24.6501 18.75 25.0001 18.75 26.6501V29.3401C18.75 30.9901 19.1 31.3401 20.75 31.3401H25.75C27.4 31.3401 27.75 30.9901 27.75 29.3401V26.6501C27.75 25.0001 27.4 24.6501 25.75 24.6501Z" fill="#C18F35"/>
<path d="M6.60938 40.8899C5.22938 40.8899 5.10938 40.7599 5.10938 39.3899V35.2H13.1094V39.3899C13.1094 40.7599 12.9794 40.8899 11.6094 40.8899H6.60938Z" fill="#F0ECB6"/>
<path d="M12.5896 35.7V39.3899C12.6137 39.6923 12.5866 39.9966 12.5096 40.29C12.5096 40.29 12.3196 40.3899 11.5896 40.3899H6.58961C6.28729 40.4089 5.98385 40.3819 5.68961 40.31C5.6015 40.0118 5.57096 39.6995 5.59961 39.3899V35.7H12.5996H12.5896ZM13.5996 34.7H4.59961V39.3899C4.59961 41.0399 4.94961 41.3899 6.59961 41.3899H11.5996C13.2496 41.3899 13.5996 41.0399 13.5996 39.3899V34.7Z" fill="#C18F35"/>
<path d="M5.10938 35.2598V33.0698C5.10938 31.6898 5.22938 31.5698 6.60938 31.5698H11.6094C12.9794 31.5698 13.1094 31.6898 13.1094 33.0698V35.2598H5.10938Z" fill="#ADDFF3"/>
<path d="M11.5898 32.0698C11.8916 32.0547 12.1941 32.0782 12.4898 32.1398C12.5907 32.4388 12.6248 32.7562 12.5898 33.0698V34.7598H5.58984V33.0698C5.57646 32.7681 5.59996 32.4659 5.65984 32.1698C5.95882 32.069 6.27626 32.0348 6.58984 32.0698H11.5898ZM11.5898 31.0698H6.58984C4.93984 31.0698 4.58984 31.4198 4.58984 33.0698V35.7598H13.5898V33.0698C13.5898 31.4198 13.2398 31.0698 11.5898 31.0698Z" fill="#2980B9"/>
<path d="M35.7402 53.47C34.3602 53.47 34.2402 53.35 34.2402 51.97V19.53H58.8902V52C58.8902 53.38 58.7602 53.5 57.3902 53.5L35.7402 53.47Z" fill="#F0ECB6"/>
<path d="M58.3902 20V52C58.4143 52.3024 58.3873 52.6066 58.3102 52.9C58.3102 52.9 58.1202 53 57.3902 53H35.7402C35.4385 53.0152 35.136 52.9916 34.8402 52.93C34.7394 52.631 34.7052 52.3136 34.7402 52V20H58.3902ZM59.3902 19H33.7402V52C33.7402 53.65 34.0902 54 35.7402 54H57.3902C59.0402 54 59.3902 53.65 59.3902 52V19Z" fill="#C18F36"/>
<g opacity="0.8">
<path opacity="0.8" d="M42.4414 52.97V19.97" stroke="#C18F36" stroke-miterlimit="10"/>
<path opacity="0.8" d="M50.6309 52.97V19.97" stroke="#C18F36" stroke-miterlimit="10"/>
<path opacity="0.8" d="M34.7305 27.97H58.3705" stroke="#C18F36" stroke-miterlimit="10"/>
<path opacity="0.8" d="M34.7305 36.3398H58.3705" stroke="#C18F36" stroke-miterlimit="10"/>
<path opacity="0.8" d="M34.7305 44.71H58.3705" stroke="#C18F36" stroke-miterlimit="10"/>
</g>
<path d="M50.6992 19.53V10.53H57.3892C58.7692 10.53 58.8892 10.65 58.8892 12.03V19.53H50.6992Z" fill="#ADDFF3"/>
<path d="M57.3892 11C57.691 10.9837 57.9936 11.0072 58.2892 11.07C58.3747 11.3721 58.4052 11.6871 58.3792 12V19H51.1992V11H57.3892ZM57.3892 10H50.1992V20H59.3892V12C59.3892 10.35 59.0392 10 57.3892 10Z" fill="#2980B9"/>
<path d="M34.2305 19.53V12C34.2305 10.62 34.3605 10.5 35.7305 10.5H42.4305V19.5L34.2305 19.53Z" fill="#ADDFF3"/>
<path d="M41.9305 11V19H34.7305V12C34.7142 11.6977 34.7411 11.3947 34.8105 11.1C35.1057 10.998 35.4202 10.9638 35.7305 11H41.9305ZM42.9305 10H35.7305C34.0805 10 33.7305 10.35 33.7305 12V20H42.9305V10Z" fill="#2980B9"/>
<path d="M50.6192 10.53H42.4492V19.53H50.6192V10.53Z" fill="#ADDFF3"/>
<path d="M50.12 11V19H43V11H50.17H50.12ZM51.17 10H42V20H51.17V10Z" fill="#2980B9"/>
</svg>
