<svg width="64" height="64" viewBox="0 0 64 64" fill="none" xmlns="http://www.w3.org/2000/svg">
<path fill-rule="evenodd" clip-rule="evenodd" d="M37.2156 24.2231C37.3188 24.4027 37.2569 24.6319 37.0773 24.7351L25.0873 31.6251C24.9077 31.7283 24.6785 31.6664 24.5753 31.4868C24.4721 31.3072 24.534 31.078 24.7136 30.9748L36.7036 24.0848C36.8832 23.9816 37.1124 24.0436 37.2156 24.2231Z" fill="#747474"/>
<path fill-rule="evenodd" clip-rule="evenodd" d="M36.5656 24.223C36.6689 24.0435 36.8981 23.9816 37.0776 24.0849L49.0576 30.9749C49.2372 31.0782 49.299 31.3074 49.1958 31.4869C49.0925 31.6665 48.8633 31.7283 48.6837 31.625L36.7037 24.735C36.5242 24.6318 36.4624 24.4026 36.5656 24.223Z" fill="#747474"/>
<path fill-rule="evenodd" clip-rule="evenodd" d="M25.1646 36.9544C25.3113 37.1006 25.3117 37.338 25.1655 37.4847L19.1855 43.4847C19.0393 43.6314 18.8019 43.6318 18.6552 43.4856C18.5085 43.3394 18.5081 43.1019 18.6543 42.9552L24.6343 36.9552C24.7805 36.8086 25.018 36.8082 25.1646 36.9544Z" fill="#747474"/>
<path fill-rule="evenodd" clip-rule="evenodd" d="M24.6354 36.9546C24.782 36.8083 25.0195 36.8085 25.1658 36.955L31.1558 42.955C31.3021 43.1016 31.3019 43.339 31.1553 43.4854C31.0088 43.6317 30.7713 43.6315 30.625 43.4849L24.635 37.4849C24.4887 37.3383 24.4889 37.1009 24.6354 36.9546Z" fill="#747474"/>
<path fill-rule="evenodd" clip-rule="evenodd" d="M49.1427 36.9618C49.2853 37.112 49.2792 37.3493 49.129 37.4919L42.809 43.4919C42.6588 43.6345 42.4214 43.6284 42.2788 43.4782C42.1362 43.328 42.1424 43.0906 42.2926 42.948L48.6126 36.948C48.7628 36.8054 49.0002 36.8116 49.1427 36.9618Z" fill="#747474"/>
<path fill-rule="evenodd" clip-rule="evenodd" d="M48.6044 36.9544C48.7511 36.8082 48.9885 36.8086 49.1347 36.9552L55.1147 42.9552C55.2609 43.1019 55.2605 43.3394 55.1139 43.4856C54.9672 43.6318 54.7297 43.6314 54.5835 43.4847L48.6035 37.4847C48.4573 37.338 48.4577 37.1006 48.6044 36.9544Z" fill="#747474"/>
<path d="M33.3906 23.91C32.0206 23.91 31.8906 23.78 31.8906 22.41V18.22H41.8906V22.41C41.8906 23.78 41.7606 23.91 40.3906 23.91H33.3906Z" fill="#F0ECB6"/>
<path d="M41.3809 18.72V22.41C41.3958 22.7122 41.3689 23.0151 41.3009 23.31C41.0049 23.4088 40.6912 23.4429 40.3809 23.41H33.3809C33.0786 23.4253 32.7757 23.3984 32.4809 23.33C32.3821 23.034 32.348 22.7203 32.3809 22.41V18.72H41.3809ZM42.3809 17.72H31.3809V22.41C31.3809 24.06 31.7309 24.41 33.3809 24.41H40.3809C42.0309 24.41 42.3809 24.06 42.3809 22.41V17.72Z" fill="#C18F35"/>
<path d="M27.3902 31.03H22.4102C21.5817 31.03 20.9102 31.7016 20.9102 32.53V35.22C20.9102 36.0485 21.5817 36.72 22.4102 36.72H27.3902C28.2186 36.72 28.8902 36.0485 28.8902 35.22V32.53C28.8902 31.7016 28.2186 31.03 27.3902 31.03Z" fill="#F0ECB6"/>
<path d="M27.3906 31.53C27.6929 31.5147 27.9958 31.5416 28.2906 31.61C28.3894 31.906 28.4235 32.2197 28.3906 32.53V35.22C28.4056 35.5223 28.3787 35.8252 28.3106 36.12C28.0147 36.2188 27.7009 36.2529 27.3906 36.22H22.3906C22.0884 36.2354 21.7854 36.2085 21.4906 36.14C21.3918 35.8441 21.3577 35.5303 21.3906 35.22V32.53C21.3756 32.2278 21.4026 31.9249 21.4706 31.63C21.7666 31.5312 22.0803 31.4971 22.3906 31.53H27.3906ZM27.3906 30.53H22.3906C20.7406 30.53 20.3906 30.88 20.3906 32.53V35.22C20.3906 36.87 20.7406 37.22 22.3906 37.22H27.3906C29.0406 37.22 29.3906 36.87 29.3906 35.22V32.53C29.3906 30.88 29.0406 30.53 27.3906 30.53Z" fill="#C18F35"/>
<path d="M21.3999 43.72H16.4199C15.5915 43.72 14.9199 44.3915 14.9199 45.22V47.91C14.9199 48.7384 15.5915 49.41 16.4199 49.41H21.3999C22.2283 49.41 22.8999 48.7384 22.8999 47.91V45.22C22.8999 44.3915 22.2283 43.72 21.3999 43.72Z" fill="#F0ECB6"/>
<path d="M21.4102 44.22C21.7124 44.2046 22.0153 44.2315 22.3102 44.3C22.4089 44.5959 22.443 44.9097 22.4102 45.22V47.91C22.4251 48.2122 22.3982 48.5151 22.3302 48.81C22.0342 48.9088 21.7204 48.9429 21.4102 48.91H16.4102C16.1079 48.9253 15.805 48.8984 15.5102 48.83C15.4114 48.534 15.3773 48.2203 15.4102 47.91V45.22C15.3952 44.9177 15.4221 44.6148 15.4902 44.32C15.7861 44.2212 16.0999 44.1871 16.4102 44.22H21.4102ZM21.4102 43.22H16.4102C14.7602 43.22 14.4102 43.57 14.4102 45.22V47.91C14.4102 49.56 14.7602 49.91 16.4102 49.91H21.4102C23.0602 49.91 23.4102 49.56 23.4102 47.91V45.22C23.4102 43.57 23.0602 43.22 21.4102 43.22Z" fill="#C18F35"/>
<path d="M33.3706 43.72H28.3906C27.5622 43.72 26.8906 44.3915 26.8906 45.22V47.91C26.8906 48.7384 27.5622 49.41 28.3906 49.41H33.3706C34.1991 49.41 34.8706 48.7384 34.8706 47.91V45.22C34.8706 44.3915 34.1991 43.72 33.3706 43.72Z" fill="#F0ECB6"/>
<path d="M33.3809 44.22C33.6831 44.2046 33.9861 44.2315 34.2809 44.3C34.3797 44.5959 34.4138 44.9097 34.3809 45.22V47.91C34.3958 48.2122 34.3689 48.5151 34.3009 48.81C34.0049 48.9088 33.6912 48.9429 33.3809 48.91H28.3809C28.0786 48.9253 27.7757 48.8984 27.4809 48.83C27.3821 48.534 27.348 48.2203 27.3809 47.91V45.22C27.3659 44.9177 27.3928 44.6148 27.4609 44.32C27.7568 44.2212 28.0706 44.1871 28.3809 44.22H33.3809ZM33.3809 43.22H28.3809C26.7309 43.22 26.3809 43.57 26.3809 45.22V47.91C26.3809 49.56 26.7309 49.91 28.3809 49.91H33.3809C35.0309 49.91 35.3809 49.56 35.3809 47.91V45.22C35.3809 43.57 35.0309 43.22 33.3809 43.22Z" fill="#C18F35"/>
<path d="M45.3706 43.72H40.3906C39.5622 43.72 38.8906 44.3915 38.8906 45.22V47.91C38.8906 48.7384 39.5622 49.41 40.3906 49.41H45.3706C46.1991 49.41 46.8706 48.7384 46.8706 47.91V45.22C46.8706 44.3915 46.1991 43.72 45.3706 43.72Z" fill="#F0ECB6"/>
<path d="M45.3809 44.22C45.6831 44.2046 45.986 44.2315 46.2809 44.3C46.3796 44.5959 46.4137 44.9097 46.3809 45.22V47.91C46.3958 48.2122 46.3689 48.5151 46.3009 48.81C46.0049 48.9088 45.6911 48.9429 45.3809 48.91H40.3809C40.0786 48.9253 39.7757 48.8984 39.4809 48.83C39.3821 48.534 39.348 48.2203 39.3809 47.91V45.22C39.3659 44.9177 39.3928 44.6148 39.4609 44.32C39.7568 44.2212 40.0706 44.1871 40.3809 44.22H45.3809ZM45.3809 43.22H40.3809C38.7309 43.22 38.3809 43.57 38.3809 45.22V47.91C38.3809 49.56 38.7309 49.91 40.3809 49.91H45.3809C47.0309 49.91 47.3809 49.56 47.3809 47.91V45.22C47.3809 43.57 47.0309 43.22 45.3809 43.22Z" fill="#C18F35"/>
<path d="M57.3394 43.72H52.3594C51.5309 43.72 50.8594 44.3915 50.8594 45.22V47.91C50.8594 48.7384 51.5309 49.41 52.3594 49.41H57.3394C58.1678 49.41 58.8394 48.7384 58.8394 47.91V45.22C58.8394 44.3915 58.1678 43.72 57.3394 43.72Z" fill="#F0ECB6"/>
<path d="M57.3496 44.22C57.6519 44.2046 57.9548 44.2315 58.2496 44.3C58.3484 44.5959 58.3825 44.9097 58.3496 45.22V47.91C58.3646 48.2122 58.3377 48.5151 58.2696 48.81C57.9736 48.9088 57.6599 48.9429 57.3496 48.91H52.3496C52.0473 48.9253 51.7444 48.8984 51.4496 48.83C51.3508 48.534 51.3167 48.2203 51.3496 47.91V45.22C51.3346 44.9177 51.3616 44.6148 51.4296 44.32C51.7256 44.2212 52.0393 44.1871 52.3496 44.22H57.3496ZM57.3496 43.22H52.3496C50.6996 43.22 50.3496 43.57 50.3496 45.22V47.91C50.3496 49.56 50.6996 49.91 52.3496 49.91H57.3496C58.9996 49.91 59.3496 49.56 59.3496 47.91V45.22C59.3496 43.57 58.9996 43.22 57.3496 43.22Z" fill="#C18F35"/>
<path d="M51.3609 30.97H46.3809C45.5524 30.97 44.8809 31.6415 44.8809 32.47V35.16C44.8809 35.9884 45.5524 36.66 46.3809 36.66H51.3609C52.1893 36.66 52.8609 35.9884 52.8609 35.16V32.47C52.8609 31.6415 52.1893 30.97 51.3609 30.97Z" fill="#F0ECB6"/>
<path d="M51.3594 31.47C51.6616 31.4546 51.9646 31.4815 52.2594 31.55C52.3582 31.8459 52.3923 32.1597 52.3594 32.47V35.16C52.3744 35.4622 52.3474 35.7651 52.2794 36.06C51.9834 36.1588 51.6697 36.1929 51.3594 36.16H46.3594C46.0571 36.1753 45.7542 36.1484 45.4594 36.08C45.3606 35.784 45.3265 35.4703 45.3594 35.16V32.47C45.3444 32.1677 45.3713 31.8648 45.4394 31.57C45.7353 31.4712 46.0491 31.4371 46.3594 31.47H51.3594ZM51.3594 30.47H46.3594C44.7094 30.47 44.3594 30.82 44.3594 32.47V35.16C44.3594 36.81 44.7094 37.16 46.3594 37.16H51.3594C53.0094 37.16 53.3594 36.81 53.3594 35.16V32.47C53.3594 30.82 53.0094 30.47 51.3594 30.47Z" fill="#C18F35"/>
<path d="M31.8906 18.2798V16.0898C31.8906 14.7198 32.0206 14.5898 33.3906 14.5898H40.3906C41.7606 14.5898 41.8906 14.7198 41.8906 16.0898V18.2798H31.8906Z" fill="#ADDFF3"/>
<path d="M40.3809 15.0898C40.6831 15.0745 40.986 15.1014 41.2809 15.1698C41.38 15.4658 41.4141 15.7796 41.3809 16.0898V17.7798H32.3809V16.0898C32.3659 15.7876 32.3928 15.4847 32.4609 15.1898C32.7568 15.0911 33.0706 15.057 33.3809 15.0898H40.3809ZM40.3809 14.0898H33.3809C31.7309 14.0898 31.3809 14.4398 31.3809 16.0898V18.7798H42.3809V16.0898C42.3809 14.4398 42.0309 14.0898 40.3809 14.0898Z" fill="#2980B9"/>
<path d="M8.13039 49.4501L4.65039 44.8H11.6104L8.13039 49.4501Z" fill="#2980B9"/>
<path fill-rule="evenodd" clip-rule="evenodd" d="M4.2033 44.5762C4.28804 44.4069 4.4611 44.3 4.65039 44.3H11.6104C11.7997 44.3 11.9727 44.4069 12.0575 44.5762C12.1422 44.7455 12.1241 44.9481 12.0107 45.0996L8.5307 49.7496C8.4363 49.8758 8.28795 49.9501 8.13039 49.9501C7.97283 49.9501 7.82449 49.8758 7.73008 49.7496L4.25008 45.0996C4.13666 44.9481 4.11855 44.7455 4.2033 44.5762ZM5.6491 45.3L8.13039 48.6156L10.6117 45.3H5.6491Z" fill="#2980B9"/>
<path fill-rule="evenodd" clip-rule="evenodd" d="M8.13086 17.46C8.68314 17.46 9.13086 17.9077 9.13086 18.46V45.43C9.13086 45.9823 8.68314 46.43 8.13086 46.43C7.57857 46.43 7.13086 45.9823 7.13086 45.43V18.46C7.13086 17.9077 7.57857 17.46 8.13086 17.46Z" fill="#2980B9"/>
</svg>
