<svg width="64" height="64" viewBox="0 0 64 64" fill="none" xmlns="http://www.w3.org/2000/svg">
<path d="M30.27 41.36C30.9845 41.3581 31.6879 41.1831 32.32 40.8499C32.7654 40.5937 33.1321 40.2201 33.38 39.77C33.6076 39.3355 33.7437 38.859 33.78 38.3699C33.82 37.8699 33.84 37.3833 33.84 36.91V37.2599C33.84 36.5799 33.84 36.01 33.84 35.54C33.8506 35.138 33.8874 34.7371 33.95 34.34C33.9923 34.0513 34.08 33.7711 34.21 33.5099C34.3242 33.288 34.4727 33.0855 34.65 32.91C34.8319 32.7258 35.041 32.5707 35.27 32.45C35.4751 32.3416 35.6892 32.2512 35.91 32.18C36.1058 32.1191 36.3066 32.0756 36.51 32.0499C36.7 32.0499 36.7 31.95 36.51 31.93C36.3066 31.9042 36.1058 31.8607 35.91 31.7999C35.6886 31.7305 35.4743 31.6401 35.27 31.53C35.0409 31.4094 34.8318 31.2542 34.65 31.07C34.4732 30.8939 34.3247 30.6915 34.21 30.4699C34.0802 30.2087 33.9924 29.9286 33.95 29.6399C33.8875 29.2427 33.8507 28.8419 33.84 28.44C33.84 27.9666 33.84 27.3899 33.84 26.7099V27.07C33.84 26.6 33.84 26.07 33.78 25.61C33.744 25.1208 33.6078 24.6443 33.38 24.2099C33.1317 23.7601 32.7651 23.3867 32.32 23.1299C31.6872 22.7986 30.9843 22.6237 30.27 22.62V22.2H30.8C31.026 22.2181 31.2501 22.2549 31.47 22.3099C31.7153 22.3688 31.956 22.4457 32.19 22.54C32.4415 22.643 32.6771 22.7811 32.89 22.95C33.2198 23.1962 33.5012 23.5014 33.72 23.85C33.9271 24.2063 34.0724 24.5951 34.15 25C34.2432 25.4241 34.2968 25.8559 34.31 26.29C34.31 26.76 34.31 28.17 34.31 28.17C34.3022 28.6726 34.3424 29.1749 34.43 29.67C34.4965 30.0567 34.658 30.421 34.9 30.7299C35.171 31.0488 35.5137 31.299 35.9 31.4599C35.9992 31.522 36.081 31.6082 36.1377 31.7106C36.1944 31.8129 36.2241 31.928 36.2241 32.0449C36.2241 32.1619 36.1944 32.277 36.1377 32.3793C36.081 32.4817 35.9992 32.5679 35.9 32.63C35.5139 32.7912 35.1713 33.0413 34.9 33.36C34.6587 33.6693 34.4973 34.0334 34.43 34.4199C34.3424 34.915 34.3022 35.4173 34.31 35.9199C34.31 35.9199 34.22 38.7 34.13 39.09C34.0443 39.4671 33.8991 39.8283 33.7 40.16C33.4817 40.509 33.2002 40.8142 32.87 41.06C32.657 41.2287 32.4214 41.3668 32.17 41.47C31.9357 41.5634 31.6951 41.6402 31.45 41.7C31.2299 41.7541 31.0059 41.7908 30.78 41.81H30.25L30.27 41.36Z" fill="#34495E" stroke="#528D19" stroke-miterlimit="10"/>
<path d="M41.1406 49.8801C39.7706 49.8801 39.6406 49.7501 39.6406 48.3801V19.8801H46.9206V49.8801H41.1406Z" fill="#F0ECB6"/>
<path d="M46.4206 20.3801V49.3801H41.1406C40.8384 49.3955 40.5354 49.3686 40.2406 49.3001C40.1418 49.0042 40.1077 48.6904 40.1406 48.3801V20.3801H46.4206ZM47.4206 19.3801H39.1406V48.3801C39.1406 50.0301 39.4906 50.3801 41.1406 50.3801H47.4206V19.3801Z" fill="#C18F35"/>
<path d="M46.9004 49.8801V19.8801H54.1804V48.3801C54.1804 49.7501 54.0504 49.8801 52.6804 49.8801H46.9004Z" fill="#D3D4F3"/>
<path d="M53.6904 20.3801V48.3801C53.7054 48.6824 53.6784 48.9853 53.6104 49.2801C53.3144 49.3789 53.0007 49.413 52.6904 49.3801H47.4004V20.3801H53.6804H53.6904ZM54.6804 19.3801H46.4004V50.3801H52.6804C54.3304 50.3801 54.6804 50.0301 54.6804 48.3801V19.3801Z" fill="#666BD1"/>
<path d="M39.6406 19.8801V15.3801C39.6406 14.0101 39.7706 13.8801 41.1406 13.8801H46.9206V19.8801H39.6406Z" fill="#ADDFF3"/>
<path d="M46.4206 14.3801V19.3801H40.1406V15.3801C40.1256 15.0779 40.1526 14.775 40.2206 14.4801C40.5166 14.3813 40.8303 14.3472 41.1406 14.3801H46.4206ZM47.4206 13.3801H41.1406C39.4906 13.3801 39.1406 13.7301 39.1406 15.3801V20.3801H47.4206V13.3801Z" fill="#2980B9"/>
<path d="M46.9102 19.8801V13.8801H52.6902C54.0602 13.8801 54.1902 14.0101 54.1902 15.3801V19.8801H46.9102Z" fill="#ADDFF3"/>
<path d="M52.6902 14.3801C52.9924 14.3648 53.2953 14.3917 53.5902 14.4601C53.689 14.7561 53.7231 15.0698 53.6902 15.3801V19.3801H47.4102V14.3801H52.6902ZM52.6902 13.3801H46.4102V20.3801H54.6902V15.3801C54.6902 13.7301 54.3402 13.3801 52.6902 13.3801Z" fill="#2980B9"/>
<path opacity="0.8" d="M46.6699 26.23H54.1599" stroke="#666BD1" stroke-linejoin="round"/>
<path opacity="0.8" d="M39.6699 26.23H46.3999" stroke="#C18F35" stroke-linejoin="round"/>
<path opacity="0.8" d="M46.6699 32.23H54.1599" stroke="#666BD1" stroke-linejoin="round"/>
<path opacity="0.8" d="M39.6699 32.23H46.3999" stroke="#C18F35" stroke-linejoin="round"/>
<path opacity="0.8" d="M46.6699 38.2302H54.1599" stroke="#666BD1" stroke-linejoin="round"/>
<path opacity="0.8" d="M39.6699 38.2302H46.3999" stroke="#C18F35" stroke-linejoin="round"/>
<path opacity="0.8" d="M46.6699 44.23H54.1599" stroke="#666BD1" stroke-linejoin="round"/>
<path opacity="0.8" d="M39.6699 44.23H46.3999" stroke="#C18F35" stroke-linejoin="round"/>
<path d="M11.3398 29.3098C9.96984 29.3098 9.83984 29.1798 9.83984 27.8098V16.3098H17.1198V29.3098H11.3398Z" fill="#D3D4F3"/>
<path d="M16.6198 16.8098V28.8098H11.3398C11.0376 28.8252 10.7347 28.7983 10.4398 28.7298C10.3411 28.4338 10.307 28.1201 10.3398 27.8098V16.8098H16.6198ZM17.6198 15.8098H9.33984V27.8098C9.33984 29.4598 9.68984 29.8098 11.3398 29.8098H17.6198V15.8098Z" fill="#666BD1"/>
<path d="M17.1094 29.3098V16.3098H24.3894V27.8098C24.3894 29.1798 24.2594 29.3098 22.8894 29.3098H17.1094Z" fill="#D3D4F3"/>
<path d="M23.8894 16.8098V27.8098C23.9044 28.1121 23.8774 28.4149 23.8094 28.7098C23.5134 28.8086 23.1997 28.8427 22.8894 28.8098H17.6094V16.8098H23.8894ZM24.8894 15.8098H16.6094V29.8098H22.8894C24.5394 29.8098 24.8894 29.4598 24.8894 27.8098V15.8098Z" fill="#666BD1"/>
<path d="M9.83984 16.3098V11.8098C9.83984 10.4398 9.96984 10.3098 11.3398 10.3098H17.1198V16.3098H9.83984Z" fill="#ADDFF3"/>
<path d="M16.6198 10.8098V15.8098H10.3398V11.8098C10.3249 11.5076 10.3518 11.2047 10.4198 10.9098C10.7158 10.811 11.0296 10.7769 11.3398 10.8098H16.6198ZM17.6198 9.80981H11.3398C9.68984 9.80981 9.33984 10.1598 9.33984 11.8098V16.8098H17.6198V9.80981Z" fill="#2980B9"/>
<path d="M17.1094 16.3098V10.3098H22.8894C24.2594 10.3098 24.3894 10.4398 24.3894 11.8098V16.3098H17.1094Z" fill="#ADDFF3"/>
<path d="M22.8894 10.8098C23.1916 10.7944 23.4946 10.8214 23.7894 10.8898C23.8882 11.1858 23.9223 11.4995 23.8894 11.8098V15.8098H17.6094V10.8098H22.8894ZM22.8894 9.80981H16.6094V16.8098H24.8894V11.8098C24.8894 10.1598 24.5394 9.80981 22.8894 9.80981Z" fill="#2980B9"/>
<path opacity="0.8" d="M16.8691 22.6602H24.3691" stroke="#666BD1" stroke-linejoin="round"/>
<path opacity="0.8" d="M9.86914 22.6602H16.6091" stroke="#666BD1" stroke-linejoin="round"/>
<path d="M11.3398 53.46C9.96984 53.46 9.83984 53.33 9.83984 51.96V40.46H17.1198V53.46H11.3398Z" fill="#F0ECB6"/>
<path d="M16.6198 41V53H11.3398C11.0376 53.0154 10.7347 52.9884 10.4398 52.92C10.3411 52.624 10.307 52.3103 10.3398 52V41H16.6198ZM17.6198 40H9.33984V52C9.33984 53.65 9.68984 54 11.3398 54H17.6198V40Z" fill="#C18F35"/>
<path d="M17.1094 53.46V40.46H24.3894V52C24.3894 53.37 24.2594 53.5 22.8894 53.5L17.1094 53.46Z" fill="#F0ECB6"/>
<path d="M23.8894 41V52C23.9044 52.3023 23.8774 52.6051 23.8094 52.9C23.5134 52.9988 23.1997 53.0329 22.8894 53H17.6094V41H23.8894ZM24.8894 40H16.6094V54H22.8894C24.5394 54 24.8894 53.65 24.8894 52V40Z" fill="#C18F35"/>
<path d="M9.83984 40.46V36C9.83984 34.63 9.96984 34.5 11.3398 34.5H17.1198V40.5L9.83984 40.46Z" fill="#ADDFF3"/>
<path d="M16.6198 35V40H10.3398V36C10.3249 35.6977 10.3518 35.3949 10.4198 35.1C10.7158 35.0012 11.0296 34.9671 11.3398 35H16.6198ZM17.6198 34H11.3398C9.68984 34 9.33984 34.35 9.33984 36V41H17.6198V34Z" fill="#2980B9"/>
<path d="M17.1094 40.46V34.46H22.8894C24.2594 34.46 24.3894 34.59 24.3894 35.96V40.46H17.1094Z" fill="#ADDFF3"/>
<path d="M22.8894 35C23.1916 34.9846 23.4946 35.0116 23.7894 35.08C23.8882 35.376 23.9223 35.6897 23.8894 36V40H17.6094V35H22.8894ZM22.8894 34H16.6094V41H24.8894V36C24.8894 34.35 24.5394 34 22.8894 34Z" fill="#2980B9"/>
<path opacity="0.8" d="M16.8691 46.8098H24.3691" stroke="#C18F35" stroke-linejoin="round"/>
<path opacity="0.8" d="M9.86914 46.8098H16.6091" stroke="#C18F35" stroke-linejoin="round"/>
</svg>
