<svg width="64" height="64" viewBox="0 0 64 64" fill="none" xmlns="http://www.w3.org/2000/svg">
<path d="M12.7891 53.47C11.4191 53.47 11.2891 53.34 11.2891 51.97V19.53H52.2891V52C52.2891 53.37 52.1591 53.5 50.7891 53.5L12.7891 53.47Z" fill="#F0ECB6"/>
<path d="M51.7695 20V52C51.7845 52.3023 51.7576 52.6051 51.6895 52.9C51.3935 52.9988 51.0798 53.0329 50.7695 53H12.7695C12.4673 53.0154 12.1643 52.9884 11.8695 52.92C11.7704 52.6241 11.7363 52.3103 11.7695 52V20H51.7695ZM52.7695 19H10.7695V52C10.7695 53.65 11.1195 54 12.7695 54H50.7695C52.4195 54 52.7695 53.65 52.7695 52V19Z" fill="#C18F36"/>
<g opacity="0.8">
<path opacity="0.8" d="M19.4785 52.97V19.97" stroke="#C18F36" stroke-miterlimit="10"/>
<path opacity="0.8" d="M35.8789 52.97V19.97" stroke="#C18F36" stroke-miterlimit="10"/>
<path opacity="0.8" d="M27.6797 52.97V19.97" stroke="#C18F36" stroke-miterlimit="10"/>
<path opacity="0.8" d="M44.0801 52.97V19.97" stroke="#C18F36" stroke-miterlimit="10"/>
<path opacity="0.8" d="M11.7793 27.97H51.7493" stroke="#C18F36" stroke-miterlimit="10"/>
<path opacity="0.8" d="M11.7793 36.3398H51.7493" stroke="#C18F36" stroke-miterlimit="10"/>
<path opacity="0.8" d="M11.7793 44.71H51.7493" stroke="#C18F36" stroke-miterlimit="10"/>
</g>
<path d="M44.0898 19.53V10.53H50.7798C52.1498 10.53 52.2798 10.66 52.2798 12.03V19.53H44.0898Z" fill="#ADDFF3"/>
<path d="M50.7798 11C51.0821 10.9846 51.385 11.0116 51.6798 11.08C51.7786 11.376 51.8127 11.6897 51.7798 12V19H44.5898V11H50.7798ZM50.7798 10H43.5898V20H52.7798V12C52.7798 10.35 52.4298 10 50.7798 10Z" fill="#2980B9"/>
<path d="M11.2891 19.53V12C11.2891 10.63 11.4191 10.5 12.7891 10.5H19.4791V19.5L11.2891 19.53Z" fill="#ADDFF3"/>
<path d="M18.9991 11V19H11.7891V12C11.7741 11.6977 11.801 11.3949 11.8691 11.1C12.165 11.0012 12.4788 10.9671 12.7891 11H18.9991ZM19.9991 10H12.7891C11.1391 10 10.7891 10.35 10.7891 12V20H19.9991V10Z" fill="#2980B9"/>
<path d="M44.0609 10.53H35.8809V19.53H44.0609V10.53Z" fill="#ADDFF3"/>
<path d="M43.5706 11V19H36.3806V11H43.5606H43.5706ZM44.5606 10H35.3906V20H44.5806V10H44.5606Z" fill="#2980B9"/>
<path d="M35.8794 10.53H27.6895V19.53H35.8794V10.53Z" fill="#ADDFF3"/>
<path d="M35.3792 11V19H28.1892V11H35.3692H35.3792ZM36.3692 10H27.1992V20H36.3892V10H36.3692Z" fill="#2980B9"/>
<path d="M27.67 10.53H19.5V19.53H27.67V10.53Z" fill="#ADDFF3"/>
<path d="M27.18 11V19H20V11H27.17H27.18ZM28.17 10H19V20H28.18V10H28.17Z" fill="#2980B9"/>
<path d="M6.31055 19.76L57.7705 19.77" stroke="#CC0000" stroke-width="1.5" stroke-miterlimit="10" stroke-linecap="round"/>
<path d="M6.31055 36.3298L57.7705 36.3398" stroke="#CC0000" stroke-width="1.5" stroke-miterlimit="10" stroke-linecap="round"/>
<path d="M56.2507 34.7098L58.7807 31.3298H53.7207L56.2507 34.7098Z" fill="#528D19"/>
<path fill-rule="evenodd" clip-rule="evenodd" d="M56.25 21.1902C56.6642 21.1902 57 21.526 57 21.9402V32.1802C57 32.5944 56.6642 32.9302 56.25 32.9302C55.8358 32.9302 55.5 32.5944 55.5 32.1802V21.9402C55.5 21.526 55.8358 21.1902 56.25 21.1902Z" fill="#528D19"/>
<path d="M7.7507 34.7098L10.2807 31.3298H5.2207L7.7507 34.7098Z" fill="#528D19"/>
<path fill-rule="evenodd" clip-rule="evenodd" d="M7.75 21.1902C8.16421 21.1902 8.5 21.526 8.5 21.9402V32.1802C8.5 32.5944 8.16421 32.9302 7.75 32.9302C7.33579 32.9302 7 32.5944 7 32.1802V21.9402C7 21.526 7.33579 21.1902 7.75 21.1902Z" fill="#528D19"/>
</svg>
