<svg width="64" height="64" viewBox="0 0 64 64" fill="none" xmlns="http://www.w3.org/2000/svg">
<path d="M19.7402 57.47C18.3702 57.47 18.2402 57.34 18.2402 55.97V15.53H59.2402V56C59.2402 57.37 59.1102 57.5 57.7402 57.5L19.7402 57.47Z" fill="#F0ECB6"/>
<path d="M58.7207 16V56C58.7357 56.3023 58.7088 56.6051 58.6407 56.9C58.3447 56.9988 58.031 57.0329 57.7207 57H19.7207C19.4184 57.0154 19.1155 56.9884 18.8207 56.92C18.7219 56.624 18.6878 56.3103 18.7207 56V16H58.7207ZM59.7207 15H17.7207V56C17.7207 57.65 18.0707 58 19.7207 58H57.7207C59.3707 58 59.7207 57.65 59.7207 56V15Z" fill="#C18F36"/>
<path d="M25.9407 24.5598H18.7207V31.9998H25.9407V24.5598Z" fill="#FFBD30"/>
<path d="M42.3509 41.1099H35.1309V48.5498H42.3509V41.1099Z" fill="#FFBD30"/>
<path d="M34.1399 41.1099H26.9199V48.5498H34.1399V41.1099Z" fill="#FFBD30"/>
<g opacity="0.8">
<path opacity="0.8" d="M26.4297 56.97V15.97" stroke="#C18F36" stroke-miterlimit="10"/>
<path opacity="0.8" d="M42.8301 56.97V15.97" stroke="#C18F36" stroke-miterlimit="10"/>
<path opacity="0.8" d="M34.6309 56.97V15.97" stroke="#C18F36" stroke-miterlimit="10"/>
<path opacity="0.8" d="M51.0312 56.97V15.97" stroke="#C18F36" stroke-miterlimit="10"/>
<path opacity="0.8" d="M18.7305 23.97H58.7005" stroke="#C18F36" stroke-miterlimit="10"/>
<path opacity="0.8" d="M18.7305 32.3398H58.7005" stroke="#C18F36" stroke-miterlimit="10"/>
<path opacity="0.8" d="M18.7305 40.71H58.7005" stroke="#C18F36" stroke-miterlimit="10"/>
<path opacity="0.8" d="M18.7305 49.0798H58.7005" stroke="#C18F36" stroke-miterlimit="10"/>
</g>
<path d="M51 15.53V6.53003H57.69C59.06 6.53003 59.19 6.66003 59.19 8.03003V15.53H51Z" fill="#ADDFF3"/>
<path d="M57.7291 7C58.0313 6.98463 58.3342 7.01156 58.6291 7.08C58.7278 7.37598 58.7619 7.68971 58.7291 8V15H51.5391V7H57.7291ZM57.7291 6H50.5391V16H59.7291V8C59.7291 6.35 59.3791 6 57.7291 6Z" fill="#2980B9"/>
<path d="M18.2402 15.53V8C18.2402 6.63 18.3702 6.5 19.7402 6.5H26.4302V15.5L18.2402 15.53Z" fill="#ADDFF3"/>
<path d="M25.9302 7V15H18.7402V8C18.7253 7.69775 18.7522 7.39487 18.8202 7.1C19.1162 7.00121 19.4299 6.96711 19.7402 7H25.9302ZM26.9302 6H19.7402C18.0902 6 17.7402 6.35 17.7402 8V16H26.9302V6Z" fill="#2980B9"/>
<path d="M51.0201 6.53003H42.8301V15.53H51.0201V6.53003Z" fill="#ADDFF3"/>
<path d="M50.5198 7V15H43.3298V7H50.5098H50.5198ZM51.5098 6H42.3398V16H51.5298V6H51.5098Z" fill="#2980B9"/>
<path d="M42.8306 6.53003H34.6406V15.53H42.8306V6.53003Z" fill="#ADDFF3"/>
<path d="M42.3304 7V15H35.1404V7H42.3204H42.3304ZM43.3204 6H34.1504V16H43.3404V6H43.3204Z" fill="#2980B9"/>
<path d="M34.6192 6.53003H26.4492V15.53H34.6192V6.53003Z" fill="#ADDFF3"/>
<path d="M34.13 7V15H26.95V7H34.12H34.13ZM35.12 6H26V16H35.18V6H35.12Z" fill="#2980B9"/>
<path d="M14.0696 27.1902H5.66957C5.29826 27.1902 4.94217 27.3377 4.67962 27.6002C4.41707 27.8628 4.26957 28.2189 4.26957 28.5902V35.5902C4.26825 35.7749 4.30349 35.958 4.37325 36.129C4.44302 36.3 4.54593 36.4555 4.67606 36.5866C4.8062 36.7177 4.96098 36.8217 5.13149 36.8927C5.302 36.9637 5.48487 37.0002 5.66957 37.0002H14.0696C14.4409 37.0002 14.797 36.8527 15.0595 36.5901C15.3221 36.3276 15.4696 35.9715 15.4696 35.6002V28.6002C15.4696 28.2289 15.3221 27.8728 15.0595 27.6102C14.797 27.3477 14.4409 27.2002 14.0696 27.2002V27.1902ZM14.0696 35.5902H5.66957V28.5902H14.0696V35.5902Z" fill="url(#paint0_linear)"/>
<path d="M13.3691 27.19V25.79C13.3691 24.8618 13.0004 23.9715 12.344 23.3152C11.6876 22.6588 10.7974 22.29 9.86914 22.29C8.94088 22.29 8.05064 22.6588 7.39427 23.3152C6.73789 23.9715 6.36914 24.8618 6.36914 25.79C6.36914 25.79 6.36914 27.21 6.36914 27.21H7.69914C7.69914 27.21 7.69914 25.8 7.69914 25.79C7.69914 25.2145 7.92777 24.6626 8.33472 24.2556C8.74167 23.8487 9.29362 23.62 9.86914 23.62C10.4447 23.62 10.9966 23.8487 11.4036 24.2556C11.8105 24.6626 12.0391 25.2145 12.0391 25.79V27.19H13.3691Z" fill="#757272"/>
<path d="M14.0699 28.5898H5.66992V35.5898H14.0699V28.5898Z" fill="#FBF1C3"/>
<defs>
<linearGradient id="paint0_linear" x1="5.02957" y1="27.2502" x2="14.7096" y2="36.9302" gradientUnits="userSpaceOnUse">
<stop stop-color="#CEBA59"/>
<stop offset="1" stop-color="#B76451"/>
</linearGradient>
</defs>
</svg>
