<svg width="64" height="64" viewBox="0 0 64 64" fill="none" xmlns="http://www.w3.org/2000/svg">
<path d="M28.3203 41.36C29.0348 41.3581 29.7382 41.1831 30.3703 40.8499C30.8158 40.5937 31.1824 40.2201 31.4303 39.77C31.6579 39.3355 31.794 38.859 31.8303 38.3699C31.8703 37.8699 31.8903 37.3833 31.8903 36.91V37.2599C31.8903 36.5799 31.8903 36.01 31.8903 35.54C31.9009 35.138 31.9377 34.7371 32.0003 34.34C32.0426 34.0513 32.1303 33.7711 32.2603 33.5099C32.3745 33.288 32.523 33.0855 32.7003 32.91C32.8822 32.7258 33.0913 32.5707 33.3203 32.45C33.5254 32.3416 33.7396 32.2512 33.9603 32.18C34.1561 32.1191 34.3569 32.0756 34.5603 32.0499C34.7503 32.0499 34.7503 31.95 34.5603 31.93C34.3569 31.9042 34.1561 31.8607 33.9603 31.7999C33.7389 31.7305 33.5246 31.6401 33.3203 31.53C33.0912 31.4094 32.8821 31.2542 32.7003 31.07C32.5235 30.8939 32.375 30.6915 32.2603 30.4699C32.1305 30.2087 32.0427 29.9286 32.0003 29.6399C31.9378 29.2427 31.901 28.8419 31.8903 28.44C31.8903 27.9666 31.8903 27.3899 31.8903 26.7099V27.07C31.8903 26.6 31.8903 26.07 31.8303 25.61C31.7943 25.1208 31.6581 24.6443 31.4303 24.2099C31.182 23.7601 30.8154 23.3867 30.3703 23.1299C29.7375 22.7986 29.0346 22.6237 28.3203 22.62V22.2H28.8503C29.0763 22.2181 29.3004 22.2549 29.5203 22.3099C29.7657 22.3688 30.0063 22.4457 30.2403 22.54C30.4918 22.643 30.7274 22.7811 30.9403 22.95C31.2701 23.1962 31.5515 23.5014 31.7703 23.85C31.9774 24.2063 32.1228 24.5951 32.2003 25C32.2935 25.4241 32.3471 25.8559 32.3603 26.29C32.3603 26.76 32.3603 28.17 32.3603 28.17C32.3525 28.6726 32.3927 29.1749 32.4803 29.67C32.5677 30.0473 32.7462 30.3976 33.0003 30.69C33.2713 31.0088 33.614 31.259 34.0003 31.42C34.0995 31.482 34.1813 31.5682 34.238 31.6706C34.2947 31.7729 34.3244 31.888 34.3244 32.005C34.3244 32.1219 34.2947 32.237 34.238 32.3393C34.1813 32.4417 34.0995 32.5279 34.0003 32.59C33.6142 32.7512 33.2716 33.0013 33.0003 33.32C32.759 33.6293 32.5976 33.9934 32.5303 34.38C32.4427 34.875 32.4025 35.3773 32.4103 35.88C32.4103 35.88 32.3203 38.66 32.2303 39.0499C32.1446 39.4271 31.9994 39.7883 31.8003 40.1199C31.582 40.469 31.3005 40.7742 30.9703 41.02C30.7573 41.1887 30.5217 41.3268 30.2703 41.43C30.036 41.5234 29.7954 41.6002 29.5503 41.66C29.3302 41.7141 29.1062 41.7508 28.8803 41.77H28.3503L28.3203 41.36Z" fill="#34495E" stroke="#528D19" stroke-miterlimit="10"/>
<path d="M11.3906 53.46C10.0206 53.46 9.89062 53.33 9.89062 51.96V40.46H17.1706V53.46H11.3906Z" fill="#F0ECB6"/>
<path d="M16.6706 41V53H11.3906C11.0884 53.0154 10.7854 52.9884 10.4906 52.92C10.3918 52.624 10.3577 52.3103 10.3906 52V41H16.6706ZM17.6706 40H9.39062V52C9.39062 53.65 9.74063 54 11.3906 54H17.6706V40Z" fill="#C18F35"/>
<path d="M17.1602 53.46V40.46H24.4402V52C24.4402 53.37 24.3102 53.5 22.9402 53.5L17.1602 53.46Z" fill="#F0ECB6"/>
<path d="M23.9402 41V52C23.9551 52.3023 23.9282 52.6051 23.8602 52.9C23.5642 52.9988 23.2504 53.0329 22.9402 53H17.6602V41H23.9402ZM24.9402 40H16.6602V54H22.9402C24.5902 54 24.9402 53.65 24.9402 52V40Z" fill="#C18F35"/>
<path d="M9.89062 40.46V36C9.89062 34.63 10.0206 34.5 11.3906 34.5H17.1706V40.5L9.89062 40.46Z" fill="#ADDFF3"/>
<path d="M16.6706 35V40H10.3906V36C10.3756 35.6977 10.4026 35.3949 10.4706 35.1C10.7666 35.0012 11.0803 34.9671 11.3906 35H16.6706ZM17.6706 34H11.3906C9.74063 34 9.39062 34.35 9.39062 36V41H17.6706V34Z" fill="#2980B9"/>
<path d="M17.1602 40.46V34.46H22.9402C24.3102 34.46 24.4402 34.59 24.4402 35.96V40.46H17.1602Z" fill="#ADDFF3"/>
<path d="M22.9402 35C23.2424 34.9846 23.5453 35.0116 23.8402 35.08C23.9389 35.376 23.973 35.6897 23.9402 36V40H17.6602V35H22.9402ZM22.9402 34H16.6602V41H24.9402V36C24.9402 34.35 24.5902 34 22.9402 34Z" fill="#2980B9"/>
<path opacity="0.8" d="M16.9199 46.8098H24.4099" stroke="#C18F35" stroke-linejoin="round"/>
<path opacity="0.8" d="M9.91992 46.8098H16.6599" stroke="#C18F35" stroke-linejoin="round"/>
<path d="M13.77 42V45.36H13V42H13.77Z" fill="#34495E"/>
<path d="M12.8891 48.47V51.83H12.1191V48.47H12.8891Z" fill="#34495E"/>
<path d="M14.9497 48.47V51.83H14.1797V48.47H14.9497Z" fill="#34495E"/>
<path d="M11.3906 29.3098C10.0206 29.3098 9.89062 29.1798 9.89062 27.8098V16.3098H17.1706V29.3098H11.3906Z" fill="#D3D4F3"/>
<path d="M16.6706 16.8098V28.8098H11.3906C11.0884 28.8252 10.7854 28.7983 10.4906 28.7298C10.3918 28.4338 10.3577 28.1201 10.3906 27.8098V16.8098H16.6706ZM17.6706 15.8098H9.39062V27.8098C9.39062 29.4598 9.74063 29.8098 11.3906 29.8098H17.6706V15.8098Z" fill="#666BD1"/>
<path d="M17.1602 29.3098V16.3098H24.4402V27.8098C24.4402 29.1798 24.3102 29.3098 22.9402 29.3098H17.1602Z" fill="#D3D4F3"/>
<path d="M23.9402 16.8098V27.8098C23.9551 28.1121 23.9282 28.4149 23.8602 28.7098C23.5642 28.8086 23.2504 28.8427 22.9402 28.8098H17.6602V16.8098H23.9402ZM24.9402 15.8098H16.6602V29.8098H22.9402C24.5902 29.8098 24.9402 29.4598 24.9402 27.8098V15.8098Z" fill="#666BD1"/>
<path d="M9.89062 16.3098V11.8098C9.89062 10.4398 10.0206 10.3098 11.3906 10.3098H17.1706V16.3098H9.89062Z" fill="#ADDFF3"/>
<path d="M16.6706 10.8098V15.8098H10.3906V11.8098C10.3756 11.5076 10.4026 11.2047 10.4706 10.9098C10.7666 10.811 11.0803 10.7769 11.3906 10.8098H16.6706ZM17.6706 9.80981H11.3906C9.74063 9.80981 9.39062 10.1598 9.39062 11.8098V16.8098H17.6706V9.80981Z" fill="#2980B9"/>
<path d="M17.1602 16.3098V10.3098H22.9402C24.3102 10.3098 24.4402 10.4398 24.4402 11.8098V16.3098H17.1602Z" fill="#ADDFF3"/>
<path d="M22.9402 10.8098C23.2424 10.7944 23.5453 10.8214 23.8402 10.8898C23.9389 11.1858 23.973 11.4995 23.9402 11.8098V15.8098H17.6602V10.8098H22.9402ZM22.9402 9.80981H16.6602V16.8098H24.9402V11.8098C24.9402 10.1598 24.5902 9.80981 22.9402 9.80981Z" fill="#2980B9"/>
<path opacity="0.8" d="M16.9199 22.6602H24.4099" stroke="#666BD1" stroke-linejoin="round"/>
<path opacity="0.8" d="M9.91992 22.6602H16.6599" stroke="#666BD1" stroke-linejoin="round"/>
<path d="M13.77 17.79V21.15H13V17.79H13.77Z" fill="#34495E"/>
<path d="M12.8891 24.1702V27.5302H12.1191V24.1702H12.8891Z" fill="#34495E"/>
<path d="M14.9497 24.1702V27.5302H14.1797V24.1702H14.9497Z" fill="#34495E"/>
<path d="M40.5391 47.76C39.1691 47.76 39.0391 47.63 39.0391 46.26V41.46H46.3191V47.76H40.5391Z" fill="#F0ECB6"/>
<path d="M45.8191 42V47.3H40.5391C40.2368 47.3152 39.9339 47.2883 39.6391 47.22C39.5403 46.924 39.5062 46.6103 39.5391 46.3V42H45.8191ZM46.8191 41H38.5391V46.3C38.5391 47.95 38.8891 48.3 40.5391 48.3H46.8191V41Z" fill="#C18F35"/>
<path d="M46.3105 47.76V41.46H53.5905V46.26C53.5905 47.63 53.4605 47.76 52.0905 47.76H46.3105Z" fill="#F0ECB6"/>
<path d="M53.0905 42V46.3C53.1055 46.6023 53.0786 46.9051 53.0105 47.2C52.7146 47.2988 52.4008 47.3329 52.0905 47.3H46.8105V42H53.0905ZM54.0905 41H45.8105V48.3H52.0905C53.7405 48.3 54.0905 47.95 54.0905 46.3V41Z" fill="#C18F35"/>
<path d="M46.3191 35.1602H39.0391V41.4602H46.3191V35.1602Z" fill="#D3D4F3"/>
<path d="M45.8191 35.66V41H39.5391V35.7H45.8191V35.66ZM46.8191 34.7H38.5391V42H46.8191V34.7Z" fill="#666BD1"/>
<path d="M53.5905 35.1602H46.3105V41.4602H53.5905V35.1602Z" fill="#D3D4F3"/>
<path d="M53.0905 35.66V41H46.8105V35.7H53.0905V35.66ZM54.0905 34.7H45.8105V42H54.0905V34.7Z" fill="#666BD1"/>
<path d="M46.3191 28.8398H39.0391V35.1398H46.3191V28.8398Z" fill="#F0ECB6"/>
<path d="M45.8191 29.3398V34.6398H39.5391V29.3398H45.8191ZM46.8191 28.3398H38.5391V35.6398H46.8191V28.3398Z" fill="#C18F35"/>
<path d="M53.5905 28.8398H46.3105V35.1398H53.5905V28.8398Z" fill="#F0ECB6"/>
<path d="M53.0905 29.3398V34.6398H46.8105V29.3398H53.0905ZM54.0905 28.3398H45.8105V35.6398H54.0905V28.3398Z" fill="#C18F35"/>
<path d="M46.3191 22.55H39.0391V28.8501H46.3191V22.55Z" fill="#D3D4F3"/>
<path d="M45.8191 23V28.3H39.5391V23H45.8191ZM46.8191 22H38.5391V29.3H46.8191V22Z" fill="#666BD1"/>
<path d="M53.5905 22.55H46.3105V28.8501H53.5905V22.55Z" fill="#D3D4F3"/>
<path d="M53.0905 23V28.3H46.8105V23H53.0905ZM54.0905 22H45.8105V29.3H54.0905V22Z" fill="#666BD1"/>
<path d="M39 22.54V17.74C39 16.37 39.13 16.24 40.5 16.24H46.28V22.54H39Z" fill="#ADDFF3"/>
<path d="M45.8191 16.74V22H39.5391V17.7C39.5241 17.3977 39.551 17.0948 39.6191 16.8C39.915 16.7012 40.2288 16.6671 40.5391 16.7H45.8191V16.74ZM46.8191 15.7H40.5391C38.8891 15.7 38.5391 16.05 38.5391 17.7V23H46.8191V15.7Z" fill="#2980B9"/>
<path d="M46.3105 22.54V16.24H52.0905C53.4605 16.24 53.5905 16.37 53.5905 17.74V22.54H46.3105Z" fill="#ADDFF3"/>
<path d="M52.0905 16.74C52.3928 16.7246 52.6957 16.7515 52.9905 16.82C53.0893 17.1159 53.1234 17.4297 53.0905 17.74V22H46.8105V16.7H52.0905V16.74ZM52.0905 15.7H45.8105V23H54.0905V17.7C54.0905 16.05 53.7405 15.7 52.0905 15.7Z" fill="#2980B9"/>
<path d="M43.0005 24.1199V27.4799H42.2305V24.1199H43.0005Z" fill="#34495E"/>
<path d="M43.0005 30.3298V33.6898H42.2305V30.3298H43.0005Z" fill="#34495E"/>
<path d="M42.1509 43V46.36H41.3809V43H42.1509Z" fill="#34495E"/>
<path d="M44.2095 43V46.36H43.4395V43H44.2095Z" fill="#34495E"/>
<path d="M42.1509 36.78V40.14H41.3809V36.78H42.1509Z" fill="#34495E"/>
<path d="M44.2095 36.78V40.14H43.4395V36.78H44.2095Z" fill="#34495E"/>
</svg>
