<svg width="64" height="64" viewBox="0 0 64 64" fill="none" xmlns="http://www.w3.org/2000/svg">
<path d="M10.5098 18.1802C9.13977 18.1802 9.00977 18.0502 9.00977 16.6802V12.6802C9.00977 11.3102 9.13977 11.1802 10.5098 11.1802H14.9998V18.1802H10.5098Z" fill="#D3D4F3"/>
<path d="M14.5098 11.6902V17.6902H10.5098C10.2075 17.7054 9.9046 17.6785 9.60977 17.6102C9.51098 17.3142 9.47687 17.0005 9.50977 16.6902V12.6902C9.49479 12.3879 9.52171 12.0851 9.58977 11.7902C9.88574 11.6914 10.1995 11.6573 10.5098 11.6902H14.5098ZM15.5098 10.6902H10.5098C8.85977 10.6902 8.50977 11.0402 8.50977 12.6902V16.6902C8.50977 18.3402 8.85977 18.6902 10.5098 18.6902H15.5098V10.6902Z" fill="#666BD1"/>
<path d="M15 18.1802V11.1802H26.2C27.57 11.1802 27.7 11.3102 27.7 12.6802V16.6802C27.7 18.0502 27.57 18.1802 26.2 18.1802H15Z" fill="#D3D4F3"/>
<path d="M26.1998 11.6902C26.502 11.6748 26.8049 11.7017 27.0998 11.7702C27.1986 12.0662 27.2327 12.3799 27.1998 12.6902V16.6902C27.2146 16.9924 27.1877 17.2953 27.1198 17.5902C26.8238 17.689 26.5101 17.7231 26.1998 17.6902H15.5098V11.6902H26.1998ZM26.1998 10.6902H14.5098V18.6902H26.1998C27.8498 18.6902 28.1998 18.3402 28.1998 16.6902V12.6902C28.1998 11.0402 27.8498 10.6902 26.1998 10.6902Z" fill="#666BD1"/>
<path opacity="0.8" d="M21.2793 17.79V11.55" stroke="#666BD1" stroke-linejoin="round"/>
<path d="M28.88 37.6902L25.5 35.1602V40.2202L28.88 37.6902Z" fill="#528D19"/>
<path fill-rule="evenodd" clip-rule="evenodd" d="M25.2762 34.7131C25.4455 34.6283 25.6481 34.6464 25.7996 34.7599L29.1796 37.2899C29.3057 37.3843 29.38 37.5326 29.38 37.6902C29.38 37.8477 29.3057 37.996 29.1796 38.0904L25.7996 40.6204C25.6481 40.7339 25.4455 40.752 25.2762 40.6673C25.1069 40.5825 25 40.4095 25 40.2202V35.1602C25 34.9709 25.1069 34.7978 25.2762 34.7131ZM26 36.159V39.2213L28.0456 37.6902L26 36.159Z" fill="#528D19"/>
<path fill-rule="evenodd" clip-rule="evenodd" d="M17.1094 37.6902C17.1094 37.1379 17.5571 36.6902 18.1094 36.6902H25.2094C25.7617 36.6902 26.2094 37.1379 26.2094 37.6902C26.2094 38.2425 25.7617 38.6902 25.2094 38.6902H18.1094C17.5571 38.6902 17.1094 38.2425 17.1094 37.6902Z" fill="#528D19"/>
<path fill-rule="evenodd" clip-rule="evenodd" d="M17.9707 21.25C18.523 21.25 18.9707 21.6977 18.9707 22.25V37.69C18.9707 38.2423 18.523 38.69 17.9707 38.69C17.4184 38.69 16.9707 38.2423 16.9707 37.69V22.25C16.9707 21.6977 17.4184 21.25 17.9707 21.25Z" fill="#528D19"/>
<path d="M34.6406 52.5698C33.2706 52.5698 33.1406 52.4398 33.1406 51.0698V28.5698H40.4206V52.5698H34.6406Z" fill="#F0ECB6"/>
<path d="M39.9206 29.0698V52.0698H34.6406C34.3384 52.0852 34.0354 52.0583 33.7406 51.9898C33.6418 51.6938 33.6077 51.3801 33.6406 51.0698V29.0698H39.9206ZM40.9206 28.0698H32.6406V51.0698C32.6406 52.7198 32.9906 53.0698 34.6406 53.0698H40.9206V28.0698Z" fill="#C18F35"/>
<path d="M33.1406 28.5698V24.0698C33.1406 22.6998 33.2706 22.5698 34.6406 22.5698H40.4206V28.5698H33.1406Z" fill="#ADDFF3"/>
<path d="M39.9206 23.0698V28.0698H33.6406V24.0698C33.6256 23.7676 33.6526 23.4647 33.7206 23.1698C34.0166 23.071 34.3303 23.0369 34.6406 23.0698H39.9206ZM40.9206 22.0698H34.6406C32.9906 22.0698 32.6406 22.4198 32.6406 24.0698V29.0698H40.9206V22.0698Z" fill="#2980B9"/>
<path opacity="0.8" d="M33.1699 34.9202H39.9099" stroke="#C18F35" stroke-linejoin="round"/>
<path opacity="0.8" d="M33.1699 40.9202H39.9099" stroke="#C18F35" stroke-linejoin="round"/>
<path opacity="0.8" d="M33.1699 46.9202H39.9099" stroke="#C18F35" stroke-linejoin="round"/>
<g opacity="0.6">
<path opacity="0.6" d="M47.7195 28.5698H40.4395V52.5698H47.7195V28.5698Z" fill="#F0ECB6"/>
<path opacity="0.6" d="M47.2195 29.0698V52.0698H40.9395V29.0698H47.2195ZM48.2195 28.0698H39.9395V53.0698H48.2195V28.0698Z" fill="#C18F35"/>
<path opacity="0.6" d="M47.709 52.5698V28.5698H54.999V51.0698C54.999 52.4398 54.869 52.5698 53.499 52.5698H47.709Z" fill="#D3D4F3"/>
<path opacity="0.6" d="M54.489 29.0698V51.0698C54.504 51.3721 54.477 51.675 54.409 51.9698C54.113 52.0686 53.7993 52.1027 53.489 52.0698H48.209V29.0698H54.489ZM55.489 28.0698H47.209V53.0698H53.489C55.139 53.0698 55.489 52.7198 55.489 51.0698V28.0698Z" fill="#666BD1"/>
<path opacity="0.6" d="M47.7195 22.5698H40.4395V28.5698H47.7195V22.5698Z" fill="#ADDFF3"/>
<path opacity="0.6" d="M47.2195 23.0698V28.0698H40.9395V23.0698H47.2195ZM48.2195 22.0698H39.9395V29.0698H48.2195V22.0698Z" fill="#2980B9"/>
<path opacity="0.6" d="M47.709 28.5698V22.5698H53.489C54.859 22.5698 54.989 22.6998 54.989 24.0698V28.5698H47.709Z" fill="#ADDFF3"/>
<path opacity="0.6" d="M53.489 23.0698C53.7913 23.0545 54.0942 23.0814 54.389 23.1498C54.4878 23.4458 54.5219 23.7595 54.489 24.0698V28.0698H48.209V23.0698H53.489ZM53.489 22.0698H47.209V29.0698H55.489V24.0698C55.489 22.4198 55.139 22.0698 53.489 22.0698Z" fill="#2980B9"/>
<path opacity="0.8" d="M47.4688 34.9197H54.9587" stroke="#666BD1" stroke-linejoin="round"/>
<path opacity="0.8" d="M40.4688 34.9197H47.2087" stroke="#C18F35" stroke-linejoin="round"/>
<path opacity="0.8" d="M47.4688 40.9197H54.9587" stroke="#666BD1" stroke-linejoin="round"/>
<path opacity="0.8" d="M40.4688 40.9197H47.2087" stroke="#C18F35" stroke-linejoin="round"/>
<path opacity="0.8" d="M47.4688 46.9197H54.9587" stroke="#666BD1" stroke-linejoin="round"/>
<path opacity="0.8" d="M40.4688 46.9197H47.2087" stroke="#C18F35" stroke-linejoin="round"/>
</g>
</svg>
