<svg width="64" height="64" viewBox="0 0 64 64" fill="none" xmlns="http://www.w3.org/2000/svg">
<g opacity="0.6">
<path opacity="0.6" d="M10.1699 49.8801C8.79992 49.8801 8.66992 49.7501 8.66992 48.3801V19.8801H15.9999V49.8801H10.1699Z" fill="#F0ECB6"/>
<path opacity="0.6" d="M15.4499 20.3801V49.3801H10.1699C9.86766 49.3955 9.56473 49.3686 9.26992 49.3001C9.17113 49.0042 9.13703 48.6904 9.16992 48.3801V20.3801H15.4499ZM16.4499 19.3801H8.16992V48.3801C8.16992 50.0301 8.51992 50.3801 10.1699 50.3801H16.4499V19.3801Z" fill="#C18F35"/>
<path opacity="0.6" d="M15.9395 49.8801V19.8801H23.2194V48.3801C23.2194 49.7501 23.0894 49.8801 21.7194 49.8801H15.9395Z" fill="#F0ECB6"/>
<path opacity="0.6" d="M22.7194 20.3801V48.3801C22.7344 48.6824 22.7075 48.9853 22.6394 49.2801C22.3435 49.3789 22.0297 49.413 21.7194 49.3801H16.4395V20.3801H22.7194ZM23.7194 19.3801H15.4395V50.3801H21.7194C23.3694 50.3801 23.7194 50.0301 23.7194 48.3801V19.3801Z" fill="#C18F35"/>
<path opacity="0.6" d="M8.66992 19.8801V15.3801C8.66992 14.0101 8.79992 13.8801 10.1699 13.8801H15.9999V19.8801H8.66992Z" fill="#ADDFF3"/>
<path opacity="0.6" d="M15.4499 14.3801V19.3801H9.16992V15.3801C9.15494 15.0779 9.18186 14.775 9.24992 14.4801C9.5459 14.3813 9.85963 14.3472 10.1699 14.3801H15.4499ZM16.4499 13.3801H10.1699C8.51992 13.3801 8.16992 13.7301 8.16992 15.3801V20.3801H16.4499V13.3801Z" fill="#2980B9"/>
<path opacity="0.6" d="M15.9395 19.8801V13.8801H21.7194C23.0894 13.8801 23.2194 14.0101 23.2194 15.3801V19.8801H15.9395Z" fill="#ADDFF3"/>
<path opacity="0.6" d="M21.7194 14.3801C22.0217 14.3648 22.3246 14.3917 22.6195 14.4601C22.7182 14.7561 22.7523 15.0698 22.7194 15.3801V19.3801H16.4395V14.3801H21.7194ZM21.7194 13.3801H15.4395V20.3801H23.7194V15.3801C23.7194 13.7301 23.3694 13.3801 21.7194 13.3801Z" fill="#2980B9"/>
<path opacity="0.8" d="M15.6992 26.23H23.1892" stroke="#C18F35" stroke-linejoin="round"/>
<path opacity="0.8" d="M8.69922 26.23H15.4392" stroke="#C18F35" stroke-linejoin="round"/>
<path opacity="0.8" d="M15.6992 32.23H23.1892" stroke="#C18F35" stroke-linejoin="round"/>
<path opacity="0.8" d="M8.69922 32.23H15.4392" stroke="#C18F35" stroke-linejoin="round"/>
<path opacity="0.8" d="M15.6992 38.23H23.1892" stroke="#C18F35" stroke-linejoin="round"/>
<path opacity="0.8" d="M8.69922 38.23H15.4392" stroke="#C18F35" stroke-linejoin="round"/>
<path opacity="0.8" d="M15.6992 44.23H23.1892" stroke="#C18F35" stroke-linejoin="round"/>
<path opacity="0.8" d="M8.69922 44.23H15.4392" stroke="#C18F35" stroke-linejoin="round"/>
</g>
<path d="M42.4492 49.8801C41.0792 49.8801 40.9492 49.7501 40.9492 48.3801V19.8801H48.2292V49.8801H42.4492Z" fill="#F0ECB6"/>
<path d="M47.7292 20.3801V49.3801H42.4492C42.147 49.3955 41.844 49.3686 41.5492 49.3001C41.4504 49.0042 41.4163 48.6904 41.4492 48.3801V20.3801H47.7292ZM48.7292 19.3801H40.4492V48.3801C40.4492 50.0301 40.7992 50.3801 42.4492 50.3801H48.7292V19.3801Z" fill="#C18F35"/>
<path d="M48.2207 49.8801V19.8801H55.5007V48.3801C55.5007 49.7501 55.3707 49.8801 54.0007 49.8801H48.2207Z" fill="#F0ECB6"/>
<path d="M55.0007 20.3801V48.3801C55.0157 48.6824 54.9888 48.9853 54.9207 49.2801C54.6247 49.3789 54.311 49.413 54.0007 49.3801H48.7207V20.3801H55.0007ZM56.0007 19.3801H47.7207V50.3801H54.0007C55.6507 50.3801 56.0007 50.0301 56.0007 48.3801V19.3801Z" fill="#C18F35"/>
<path d="M41 19.8801V15.3801C41 14.0101 41.13 13.8801 42.5 13.8801H48.28V19.8801H41Z" fill="#ADDFF3"/>
<path d="M47.7292 14.3801V19.3801H41.4492V15.3801C41.4342 15.0779 41.4612 14.775 41.5292 14.4801C41.8252 14.3813 42.1389 14.3472 42.4492 14.3801H47.7292ZM48.7292 13.3801H42.4492C40.7992 13.3801 40.4492 13.7301 40.4492 15.3801V20.3801H48.7292V13.3801Z" fill="#2980B9"/>
<path d="M48.2207 19.8801V13.8801H54.0007C55.3707 13.8801 55.5007 14.0101 55.5007 15.3801V19.8801H48.2207Z" fill="#ADDFF3"/>
<path d="M54.0007 14.3801C54.303 14.3648 54.6059 14.3917 54.9007 14.4601C54.9995 14.7561 55.0336 15.0698 55.0007 15.3801V19.3801H48.7207V14.3801H54.0007ZM54.0007 13.3801H47.7207V20.3801H56.0007V15.3801C56.0007 13.7301 55.6507 13.3801 54.0007 13.3801Z" fill="#2980B9"/>
<path opacity="0.8" d="M47.9805 26.23H55.4705" stroke="#C18F35" stroke-linejoin="round"/>
<path opacity="0.8" d="M40.9805 26.23H47.7205" stroke="#C18F35" stroke-linejoin="round"/>
<path opacity="0.8" d="M47.9805 32.23H55.4705" stroke="#C18F35" stroke-linejoin="round"/>
<path opacity="0.8" d="M40.9805 32.23H47.7205" stroke="#C18F35" stroke-linejoin="round"/>
<path opacity="0.8" d="M47.9805 38.23H55.4705" stroke="#C18F35" stroke-linejoin="round"/>
<path opacity="0.8" d="M40.9805 38.23H47.7205" stroke="#C18F35" stroke-linejoin="round"/>
<path opacity="0.8" d="M47.9805 44.23H55.4705" stroke="#C18F35" stroke-linejoin="round"/>
<path opacity="0.8" d="M40.9805 44.23H47.7205" stroke="#C18F35" stroke-linejoin="round"/>
<path d="M37.5499 32L34.1699 29.47V34.53L37.5499 32Z" fill="#528D19"/>
<path fill-rule="evenodd" clip-rule="evenodd" d="M33.9461 29.0229C34.1154 28.9381 34.318 28.9563 34.4695 29.0697L37.8495 31.5997C37.9757 31.6941 38.0499 31.8424 38.0499 32C38.0499 32.1575 37.9757 32.3058 37.8495 32.4003L34.4695 34.9303C34.318 35.0437 34.1154 35.0618 33.9461 34.9771C33.7768 34.8923 33.6699 34.7193 33.6699 34.53V29.47C33.6699 29.2807 33.7768 29.1076 33.9461 29.0229ZM34.6699 30.4688V33.5312L36.7155 32L34.6699 30.4688Z" fill="#528D19"/>
<path fill-rule="evenodd" clip-rule="evenodd" d="M25.4492 32C25.4492 31.4477 25.8969 31 26.4492 31H33.8892C34.4415 31 34.8892 31.4477 34.8892 32C34.8892 32.5523 34.4415 33 33.8892 33H26.4492C25.8969 33 25.4492 32.5523 25.4492 32Z" fill="#528D19"/>
</svg>
