<svg width="64" height="64" viewBox="0 0 64 64" fill="none" xmlns="http://www.w3.org/2000/svg">
<path d="M9.5 17.48C8.13 17.48 8 17.36 8 16V12C8 10.63 8.13 10.5 9.5 10.5H14V17.5L9.5 17.48Z" fill="#D3D4F3"/>
<path d="M13.5 11V17H9.5C9.19774 17.0154 8.89481 16.9884 8.6 16.92C8.50121 16.624 8.46711 16.3103 8.5 16V12C8.48502 11.6977 8.51194 11.3949 8.58 11.1C8.87598 11.0012 9.18971 10.9671 9.5 11H13.5ZM14.5 10H9.5C7.85 10 7.5 10.35 7.5 12V16C7.5 17.65 7.85 18 9.5 18H14.5V10Z" fill="#666BD1"/>
<path d="M14 17.48V10.48H25.19C26.56 10.48 26.69 10.61 26.69 11.98V15.98C26.69 17.35 26.56 17.48 25.19 17.48H14Z" fill="#D3D4F3"/>
<path d="M25.19 11C25.4923 10.9846 25.7952 11.0116 26.09 11.08C26.1888 11.376 26.2229 11.6897 26.19 12V16C26.205 16.3023 26.1781 16.6051 26.11 16.9C25.814 16.9988 25.5003 17.0329 25.19 17H14.5V11H25.19ZM25.19 10H13.5V18H25.19C26.84 18 27.19 17.65 27.19 16V12C27.19 10.35 26.84 10 25.19 10Z" fill="#666BD1"/>
<path opacity="0.8" d="M20.2695 17.0999V10.8599" stroke="#666BD1" stroke-linejoin="round"/>
<path d="M32.8906 53.4998C31.5206 53.4998 31.3906 53.3698 31.3906 51.9998V27.5598H56.0006V51.9998C56.0006 53.3698 55.8706 53.4998 54.5006 53.4998H32.8906Z" fill="#F0ECB6"/>
<path d="M55.4906 28.0598V51.9998C55.5055 52.3021 55.4786 52.6049 55.4106 52.8998C55.1147 52.9986 54.8009 53.0327 54.4906 52.9998H32.8906C32.5884 53.0152 32.2854 52.9882 31.9906 52.9198C31.8918 52.6238 31.8577 52.3101 31.8906 51.9998V28.0598H55.4906ZM56.4906 27.0598H30.8906V51.9998C30.8906 53.6498 31.2406 53.9998 32.8906 53.9998H54.4906C56.1406 53.9998 56.4906 53.6498 56.4906 51.9998V27.0598Z" fill="#C18F36"/>
<g opacity="0.8">
<path opacity="0.8" d="M39.5801 52.99V28" stroke="#C18F36" stroke-miterlimit="10"/>
<path opacity="0.8" d="M47.8008 52.99V28" stroke="#C18F36" stroke-miterlimit="10"/>
<path opacity="0.8" d="M31.8809 33.99H55.4709" stroke="#C18F36" stroke-miterlimit="10"/>
<path opacity="0.8" d="M31.8809 40.3599H55.4709" stroke="#C18F36" stroke-miterlimit="10"/>
<path opacity="0.8" d="M31.8809 46.73H55.4709" stroke="#C18F36" stroke-miterlimit="10"/>
</g>
<path d="M47.8105 27.55V21.55H54.5005C55.8705 21.55 56.0005 21.68 56.0005 23.05V27.55H47.8105Z" fill="#ADDFF3"/>
<path d="M54.5005 22.05C54.8028 22.0347 55.1057 22.0616 55.4005 22.13C55.4993 22.426 55.5334 22.7398 55.5005 23.05V27.05H48.3105V22.05H54.5005ZM54.5005 21.05H47.3105V28.05H56.5005V23.05C56.5005 21.4 56.1505 21.05 54.5005 21.05Z" fill="#2980B9"/>
<path d="M31.3906 27.55V23.05C31.3906 21.68 31.5206 21.55 32.8906 21.55H39.5806V27.55H31.3906Z" fill="#ADDFF3"/>
<path d="M39.0806 22.05V27.05H31.8906V23.05C31.8756 22.7478 31.9026 22.4449 31.9706 22.15C32.2666 22.0513 32.5803 22.0172 32.8906 22.05H39.0806ZM40.0806 21.05H32.8906C31.2406 21.05 30.8906 21.4 30.8906 23.05V28.05H40.0806V21.05Z" fill="#2980B9"/>
<path d="M47.7896 21.55H39.5996V27.55H47.7896V21.55Z" fill="#ADDFF3"/>
<path d="M47.2894 22.05V27.05H40.0994V22.05H47.2794H47.2894ZM48.2794 21.05H39.1094V28.05H48.2994V21.05H48.2794Z" fill="#2980B9"/>
<path d="M27.8702 44L24.4902 41.47V46.53L27.8702 44Z" fill="#528D19"/>
<path fill-rule="evenodd" clip-rule="evenodd" d="M24.2664 41.0229C24.4357 40.9381 24.6383 40.9563 24.7899 41.0697L28.1699 43.5997C28.296 43.6941 28.3702 43.8424 28.3702 44C28.3702 44.1575 28.296 44.3058 28.1699 44.4003L24.7899 46.9302C24.6383 47.0437 24.4357 47.0618 24.2664 46.9771C24.0971 46.8923 23.9902 46.7193 23.9902 46.53V41.47C23.9902 41.2807 24.0971 41.1076 24.2664 41.0229ZM24.9902 42.4688V45.5311L27.0359 44L24.9902 42.4688Z" fill="#528D19"/>
<path fill-rule="evenodd" clip-rule="evenodd" d="M16.0996 44C16.0996 43.4477 16.5473 43 17.0996 43H24.2096C24.7619 43 25.2096 43.4477 25.2096 44C25.2096 44.5523 24.7619 45 24.2096 45H17.0996C16.5473 45 16.0996 44.5523 16.0996 44Z" fill="#528D19"/>
<path fill-rule="evenodd" clip-rule="evenodd" d="M16.9609 20.5598C17.5132 20.5598 17.9609 21.0075 17.9609 21.5598V43.9998C17.9609 44.5521 17.5132 44.9998 16.9609 44.9998C16.4087 44.9998 15.9609 44.5521 15.9609 43.9998V21.5598C15.9609 21.0075 16.4087 20.5598 16.9609 20.5598Z" fill="#528D19"/>
</svg>
