<svg width="64" height="64" viewBox="0 0 64 64" fill="none" xmlns="http://www.w3.org/2000/svg">
<path d="M10.1191 18.5898C8.74914 18.5898 8.61914 18.4598 8.61914 17.0898V13.0898C8.61914 11.7198 8.74914 11.5898 10.1191 11.5898H14.6191V18.5898H10.1191Z" fill="#D3D4F3"/>
<path d="M14.1191 12.1099V18.1099H10.1191C9.81688 18.1252 9.51395 18.0983 9.21914 18.0299C9.12004 17.734 9.08593 17.4202 9.11914 17.1099V13.1099C9.10429 12.8076 9.13121 12.5048 9.19914 12.2099C9.49512 12.1111 9.80885 12.077 10.1191 12.1099H14.1191ZM15.1191 11.1099H10.1191C8.46914 11.1099 8.11914 11.4599 8.11914 13.1099V17.1099C8.11914 18.7599 8.46914 19.1099 10.1191 19.1099H15.1191V11.1099Z" fill="#666BD1"/>
<path d="M14.6309 18.5898V11.5898H25.8109C27.1809 11.5898 27.3109 11.7198 27.3109 13.0898V17.0898C27.3109 18.4598 27.1809 18.5898 25.8109 18.5898H14.6309Z" fill="#D3D4F3"/>
<path d="M25.8109 12.1099C26.1131 12.0945 26.416 12.1214 26.7109 12.1899C26.8096 12.4858 26.8437 12.7996 26.8109 13.1099V17.1099C26.8258 17.4121 26.7989 17.715 26.7309 18.0099C26.4349 18.1087 26.1211 18.1428 25.8109 18.1099H15.1309V12.1099H25.8109ZM25.8109 11.1099H14.1309V19.1099H25.8109C27.4609 19.1099 27.8109 18.7599 27.8109 17.1099V13.1099C27.8109 11.4599 27.4609 11.1099 25.8109 11.1099Z" fill="#666BD1"/>
<path opacity="0.8" d="M20.9004 18.21V11.97" stroke="#666BD1" stroke-linejoin="round"/>
<path d="M28.4894 38.1098L25.1094 35.5798V40.6398L28.4894 38.1098Z" fill="#528D19"/>
<path fill-rule="evenodd" clip-rule="evenodd" d="M24.8856 35.1327C25.0548 35.048 25.2574 35.0661 25.409 35.1796L28.789 37.7096C28.9151 37.804 28.9894 37.9523 28.9894 38.1098C28.9894 38.2674 28.9151 38.4157 28.789 38.5101L25.409 41.0401C25.2574 41.1536 25.0548 41.1717 24.8856 41.0869C24.7163 41.0022 24.6094 40.8291 24.6094 40.6398V35.5798C24.6094 35.3905 24.7163 35.2175 24.8856 35.1327ZM25.6094 36.5787V39.641L27.655 38.1098L25.6094 36.5787Z" fill="#528D19"/>
<path fill-rule="evenodd" clip-rule="evenodd" d="M16.7305 38.1099C16.7305 37.5576 17.1782 37.1099 17.7305 37.1099H24.8305C25.3828 37.1099 25.8305 37.5576 25.8305 38.1099C25.8305 38.6621 25.3828 39.1099 24.8305 39.1099H17.7305C17.1782 39.1099 16.7305 38.6621 16.7305 38.1099Z" fill="#528D19"/>
<path fill-rule="evenodd" clip-rule="evenodd" d="M17.5801 21.6702C18.1324 21.6702 18.5801 22.1179 18.5801 22.6702V38.1102C18.5801 38.6625 18.1324 39.1102 17.5801 39.1102C17.0278 39.1102 16.5801 38.6625 16.5801 38.1102V22.6702C16.5801 22.1179 17.0278 21.6702 17.5801 21.6702Z" fill="#528D19"/>
<path d="M34.2598 52.1602C32.8898 52.1602 32.7598 52.0302 32.7598 50.6602V28.1602H39.9998V52.1602H34.2598Z" fill="#F0ECB6"/>
<path d="M39.5398 28.6602V51.6602H34.2598C33.9575 51.6755 33.6546 51.6486 33.3598 51.5802C33.261 51.2842 33.2269 50.9704 33.2598 50.6602V28.6602H39.5398ZM40.5398 27.6602H32.2598V50.6602C32.2598 52.3102 32.6098 52.6602 34.2598 52.6602H40.5398V27.6602Z" fill="#C18F35"/>
<path d="M32.7598 28.1602V23.6602C32.7598 22.2902 32.8898 22.1602 34.2598 22.1602H39.9998V28.1602H32.7598Z" fill="#ADDFF3"/>
<path d="M39.5398 22.6602V27.6602H33.2598V23.6602C33.2448 23.3579 33.2717 23.055 33.3398 22.7602C33.6357 22.6614 33.9495 22.6273 34.2598 22.6602H39.5398ZM40.5398 21.6602H34.2598C32.6098 21.6602 32.2598 22.0102 32.2598 23.6602V28.6602H40.5398V21.6602Z" fill="#2980B9"/>
<path opacity="0.8" d="M32.7891 34.51H39.5291" stroke="#C18F35" stroke-linejoin="round"/>
<path opacity="0.8" d="M32.7891 40.51H39.5291" stroke="#C18F35" stroke-linejoin="round"/>
<path opacity="0.8" d="M32.7891 46.51H39.5291" stroke="#C18F35" stroke-linejoin="round"/>
<path d="M47.3405 28.1602H40.0605V52.1602H47.3405V28.1602Z" fill="#F0ECB6"/>
<path d="M46.8405 28.6602V51.6602H40.5605V28.6602H46.8405ZM47.8405 27.6602H39.5605V52.6602H47.8405V27.6602Z" fill="#C18F35"/>
<path d="M47.3203 52.1602V28.1602H54.6003V50.6602C54.6003 52.0302 54.4703 52.1602 53.1003 52.1602H47.3203Z" fill="#D3D4F3"/>
<path d="M54.1103 28.6602V50.6602C54.1253 50.9624 54.0984 51.2653 54.0303 51.5602C53.7343 51.6589 53.4206 51.693 53.1103 51.6602H47.8203V28.6602H54.1003H54.1103ZM55.1003 27.6602H46.8203V52.6602H53.1003C54.7503 52.6602 55.1003 52.3102 55.1003 50.6602V27.6602Z" fill="#666BD1"/>
<path d="M47.3405 22.1602H40.0605V28.1602H47.3405V22.1602Z" fill="#ADDFF3"/>
<path d="M46.8405 22.6602V27.6602H40.5605V22.6602H46.8405ZM47.8405 21.6602H39.5605V28.6602H47.8405V21.6602Z" fill="#2980B9"/>
<path d="M47.3203 28.1602V22.1602H53.1003C54.4703 22.1602 54.6003 22.2902 54.6003 23.6602V28.1602H47.3203Z" fill="#ADDFF3"/>
<path d="M53.1101 22.6602C53.4123 22.6448 53.7153 22.6717 54.0101 22.7402C54.1092 23.0361 54.1433 23.3499 54.1101 23.6602V27.6602H47.8201V22.6602H53.1001H53.1101ZM53.1001 21.6602H46.8301V28.6602H55.1101V23.6602C55.1101 22.0102 54.7601 21.6602 53.1101 21.6602H53.1001Z" fill="#2980B9"/>
<path opacity="0.8" d="M47.0898 34.51H54.5798" stroke="#666BD1" stroke-linejoin="round"/>
<path opacity="0.8" d="M40.0898 34.51H46.8198" stroke="#C18F35" stroke-linejoin="round"/>
<path opacity="0.8" d="M47.0898 40.51H54.5798" stroke="#666BD1" stroke-linejoin="round"/>
<path opacity="0.8" d="M40.0898 40.51H46.8198" stroke="#C18F35" stroke-linejoin="round"/>
<path opacity="0.8" d="M47.0898 46.51H54.5798" stroke="#666BD1" stroke-linejoin="round"/>
<path opacity="0.8" d="M40.0898 46.51H46.8198" stroke="#C18F35" stroke-linejoin="round"/>
<path d="M50.8291 44.7502C53.1984 44.7502 55.119 42.8295 55.119 40.4602C55.119 38.0909 53.1984 36.1702 50.8291 36.1702C48.4598 36.1702 46.5391 38.0909 46.5391 40.4602C46.5391 42.8295 48.4598 44.7502 50.8291 44.7502Z" fill="#DEF4FD"/>
<path d="M50.8301 36.9202C51.5302 36.9202 52.2146 37.1278 52.7968 37.5168C53.3789 37.9057 53.8327 38.4586 54.1006 39.1055C54.3685 39.7523 54.4386 40.4641 54.3021 41.1508C54.1655 41.8375 53.8283 42.4682 53.3332 42.9633C52.8382 43.4584 52.2074 43.7956 51.5207 43.9321C50.834 44.0687 50.1222 43.9986 49.4754 43.7307C48.8285 43.4628 48.2757 43.009 47.8867 42.4269C47.4977 41.8447 47.2901 41.1603 47.2901 40.4602C47.2927 39.5221 47.6665 38.6232 48.3298 37.9599C48.9931 37.2966 49.892 36.9228 50.8301 36.9202ZM50.8301 35.4202C49.8412 35.4202 48.8745 35.7134 48.0522 36.2628C47.23 36.8122 46.5891 37.5931 46.2107 38.5068C45.8322 39.4204 45.7332 40.4257 45.9262 41.3956C46.1191 42.3655 46.5953 43.2564 47.2945 43.9557C47.9938 44.655 48.8847 45.1312 49.8546 45.3241C50.8245 45.517 51.8299 45.418 52.7435 45.0396C53.6571 44.6611 54.438 44.0203 54.9874 43.198C55.5368 42.3758 55.8301 41.4091 55.8301 40.4202C55.8301 39.0941 55.3033 37.8223 54.3656 36.8846C53.4279 35.947 52.1562 35.4202 50.8301 35.4202Z" fill="#CC0000"/>
<path d="M47.5508 42.73L54.0608 38" stroke="#CC0000" stroke-width="1.5" stroke-miterlimit="10"/>
</svg>
