<svg width="64" height="64" viewBox="0 0 64 64" fill="none" xmlns="http://www.w3.org/2000/svg">
<path d="M52.8606 22.3198H23.8105C23.2583 22.3198 22.8105 22.7675 22.8105 23.3198V28.3598C22.8105 28.9121 23.2583 29.3598 23.8105 29.3598H52.8606C53.4128 29.3598 53.8606 28.9121 53.8606 28.3598V23.3198C53.8606 22.7675 53.4128 22.3198 52.8606 22.3198Z" fill="#F3C7D7" stroke="#D04465" stroke-miterlimit="10"/>
<path opacity="0.5" d="M34.8906 29.0798V22.8398" stroke="#D04465" stroke-miterlimit="10"/>
<path opacity="0.5" d="M28.8301 29.0798V22.8398" stroke="#D04465" stroke-miterlimit="10"/>
<path opacity="0.5" d="M41.2695 29.0798V22.8398" stroke="#D04465" stroke-miterlimit="10"/>
<path opacity="0.5" d="M47.4004 29.0798V22.8398" stroke="#D04465" stroke-miterlimit="10"/>
<path d="M52.8606 34.6802H23.8105C23.2583 34.6802 22.8105 35.1279 22.8105 35.6802V40.7202C22.8105 41.2725 23.2583 41.7202 23.8105 41.7202H52.8606C53.4128 41.7202 53.8606 41.2725 53.8606 40.7202V35.6802C53.8606 35.1279 53.4128 34.6802 52.8606 34.6802Z" fill="#ADDFF3" stroke="#2980B9" stroke-miterlimit="10"/>
<path opacity="0.5" d="M34.8906 41.4399V35.2" stroke="#2980B9" stroke-miterlimit="10"/>
<path opacity="0.5" d="M28.8301 41.4399V35.2" stroke="#2980B9" stroke-miterlimit="10"/>
<path opacity="0.5" d="M41.2695 41.4399V35.2" stroke="#2980B9" stroke-miterlimit="10"/>
<path opacity="0.5" d="M47.4004 41.4399V35.2" stroke="#2980B9" stroke-miterlimit="10"/>
<path d="M52.8606 47.24H23.8105C23.2583 47.24 22.8105 47.6877 22.8105 48.24V53.28C22.8105 53.8323 23.2583 54.28 23.8105 54.28H52.8606C53.4128 54.28 53.8606 53.8323 53.8606 53.28V48.24C53.8606 47.6877 53.4128 47.24 52.8606 47.24Z" fill="#F0ECB6" stroke="#C18F36" stroke-miterlimit="10"/>
<path opacity="0.5" d="M34.8906 54V47.76" stroke="#C18F36" stroke-miterlimit="10"/>
<path opacity="0.5" d="M28.8301 54V47.76" stroke="#C18F36" stroke-miterlimit="10"/>
<path opacity="0.5" d="M41.2695 54V47.76" stroke="#C18F36" stroke-miterlimit="10"/>
<path opacity="0.5" d="M47.4004 54V47.76" stroke="#C18F36" stroke-miterlimit="10"/>
<path d="M52.8606 9.71997H23.8105C23.2583 9.71997 22.8105 10.1677 22.8105 10.72V15.76C22.8105 16.3123 23.2583 16.76 23.8105 16.76H52.8606C53.4128 16.76 53.8606 16.3123 53.8606 15.76V10.72C53.8606 10.1677 53.4128 9.71997 52.8606 9.71997Z" fill="#D3D4F3" stroke="#666BD1" stroke-miterlimit="10"/>
<path opacity="0.5" d="M34.8906 16.47V10.23" stroke="#666BD1" stroke-miterlimit="10"/>
<path opacity="0.5" d="M28.8301 16.47V10.23" stroke="#666BD1" stroke-miterlimit="10"/>
<path opacity="0.5" d="M41.2695 16.47V10.23" stroke="#666BD1" stroke-miterlimit="10"/>
<path opacity="0.5" d="M47.4004 16.47V10.23" stroke="#666BD1" stroke-miterlimit="10"/>
<path d="M13.6206 53.9899L10.1406 49.3499H17.0906L13.6206 53.9899Z" fill="#646464"/>
<path fill-rule="evenodd" clip-rule="evenodd" d="M9.69341 49.1262C9.77811 48.9569 9.95124 48.8499 10.1406 48.8499H17.0906C17.2799 48.8499 17.4529 48.9567 17.5377 49.1259C17.6224 49.2952 17.6044 49.4977 17.491 49.6493L14.021 54.2893C13.9267 54.4154 13.7785 54.4898 13.621 54.4899C13.4635 54.49 13.3151 54.4159 13.2206 54.2899L9.74063 49.6499C9.627 49.4983 9.60872 49.2956 9.69341 49.1262ZM11.1406 49.8499L13.6201 53.1558L16.0924 49.8499H11.1406Z" fill="#646464"/>
<path fill-rule="evenodd" clip-rule="evenodd" d="M13.6191 9.01001C14.1714 9.01001 14.6191 9.45773 14.6191 10.01V49.98C14.6191 50.5323 14.1714 50.98 13.6191 50.98C13.0669 50.98 12.6191 50.5323 12.6191 49.98V10.01C12.6191 9.45773 13.0669 9.01001 13.6191 9.01001Z" fill="#646464"/>
</svg>
