<svg width="64" height="64" viewBox="0 0 64 64" fill="none" xmlns="http://www.w3.org/2000/svg">
<g opacity="0.6">
<path opacity="0.6" d="M49.4492 46.8801V22.8801H56.7292V45.3801C56.7292 46.7501 56.5992 46.8801 55.2292 46.8801H49.4492Z" fill="#D3D4F3"/>
<path opacity="0.6" d="M56.2292 23.3801V45.3801C56.2441 45.6824 56.2171 45.9852 56.1492 46.2801C55.8532 46.3789 55.5395 46.413 55.2292 46.3801H49.9492V23.3801H56.2292ZM57.2292 22.3801H48.9492V47.3801H55.2292C56.8792 47.3801 57.2292 47.0301 57.2292 45.3801V22.3801Z" fill="#666BD1"/>
<path opacity="0.6" d="M49.4492 22.8801V16.8801H55.2292C56.5992 16.8801 56.7292 17.0101 56.7292 18.3801V22.8801H49.4492Z" fill="#ADDFF3"/>
<path opacity="0.6" d="M55.23 17.3801C55.5323 17.3648 55.8352 17.3917 56.13 17.4601C56.2288 17.7561 56.2629 18.0698 56.23 18.3801V22.3801H49.95V17.3801H55.23ZM55.23 16.3801H49V23.3801H57.28V18.3801C57.28 16.7301 56.93 16.3801 55.28 16.3801H55.23Z" fill="#2980B9"/>
<path opacity="0.8" d="M49.209 29.23H56.709" stroke="#666BD1" stroke-linejoin="round"/>
<path opacity="0.8" d="M49.209 35.23H56.709" stroke="#666BD1" stroke-linejoin="round"/>
<path opacity="0.8" d="M49.209 41.23H56.709" stroke="#666BD1" stroke-linejoin="round"/>
</g>
<path d="M43.6797 46.8801C42.3097 46.8801 42.1797 46.7501 42.1797 45.3801V22.8801H49.4597V46.8801H43.6797Z" fill="#F0ECB6"/>
<path d="M48.9997 23.3801V46.3801H43.6797C43.3774 46.3955 43.0745 46.3686 42.7797 46.3001C42.6809 46.0042 42.6468 45.6904 42.6797 45.3801V23.3801H48.9997ZM49.9997 22.3801H41.6797V45.3801C41.6797 47.0301 42.0297 47.3801 43.6797 47.3801H49.9997V22.3801Z" fill="#C18F35"/>
<path d="M42.1797 22.8801V18.3801C42.1797 17.0101 42.3097 16.8801 43.6797 16.8801H49.4597V22.8801H42.1797Z" fill="#ADDFF3"/>
<path d="M48.9997 17.3801V22.3801H42.6797V18.3801C42.6648 18.0779 42.6918 17.775 42.7597 17.4801C43.0557 17.3813 43.3694 17.3472 43.6797 17.3801H48.9997ZM49.9997 16.3801H43.6797C42.0297 16.3801 41.6797 16.7301 41.6797 18.3801V23.3801H49.9997V16.3801Z" fill="#2980B9"/>
<path opacity="0.8" d="M42.2109 29.23H48.9509" stroke="#C18F35" stroke-linejoin="round"/>
<path opacity="0.8" d="M42.2109 35.23H48.9509" stroke="#C18F35" stroke-linejoin="round"/>
<path opacity="0.8" d="M42.2109 41.23H48.9509" stroke="#C18F35" stroke-linejoin="round"/>
<path d="M34.4494 35.55C34.46 35.148 34.4967 34.7472 34.5594 34.35C34.6016 34.0613 34.6894 33.7812 34.8193 33.52C34.9335 33.2981 35.082 33.0956 35.2593 32.92C35.4413 32.7358 35.6504 32.5807 35.8794 32.46C36.0845 32.3516 36.2986 32.2612 36.5194 32.19C36.7152 32.1292 36.9159 32.0857 37.1193 32.06C37.3093 32.06 37.3093 31.96 37.1193 31.94C36.9159 31.9142 36.7152 31.8707 36.5194 31.81C36.2979 31.7405 36.0836 31.6501 35.8794 31.54C35.6503 31.4194 35.4412 31.2642 35.2593 31.08C35.0825 30.904 34.9341 30.7015 34.8193 30.48C34.6895 30.2187 34.6018 29.9386 34.5594 29.65C34.4968 29.2528 34.4601 28.8519 34.4494 28.45C34.4494 27.98 34.9493 29.22 35.0293 29.63C35.0958 30.0168 35.2573 30.381 35.4994 30.69C35.7704 31.0089 36.1131 31.259 36.4993 31.42C36.5985 31.482 36.6803 31.5683 36.737 31.6706C36.7937 31.7729 36.8235 31.888 36.8235 32.005C36.8235 32.122 36.7937 32.237 36.737 32.3394C36.6803 32.4417 36.5985 32.5279 36.4993 32.59C36.1132 32.7513 35.7706 33.0014 35.4994 33.32C35.2488 33.6235 35.077 33.9841 34.9994 34.37C34.9994 34.78 34.4394 36 34.4494 35.55Z" fill="#34495E" stroke="#528D19" stroke-miterlimit="10"/>
<path fill-rule="evenodd" clip-rule="evenodd" d="M11.9996 17.8C11.5341 17.7998 11.08 17.9439 10.6999 18.2126C10.3301 18.4739 10.0481 18.8405 9.89014 19.2642C9.88815 19.2782 9.88337 19.3114 9.87739 19.3712C9.86673 19.4779 9.85606 19.6234 9.84576 19.8002C9.82525 20.1524 9.80768 20.6021 9.79338 21.0585C9.76472 21.9731 9.75 22.8866 9.75 23.05C9.75 23.4643 9.41421 23.8 9 23.8C8.58579 23.8 8.25 23.4643 8.25 23.05C8.25 22.8635 8.26528 21.932 8.29412 21.0116C8.30857 20.5505 8.32663 20.0852 8.3483 19.713C8.35909 19.5277 8.37117 19.3586 8.38484 19.2219C8.39464 19.1239 8.41304 18.941 8.46289 18.8C8.7215 18.0686 9.2006 17.4354 9.83417 16.9876C10.4676 16.5399 11.2243 16.2997 12 16.3C12.0001 16.3 11.9999 16.3 12 16.3H26C26.9946 16.3 27.9484 16.6951 28.6517 17.3984C29.3549 18.1017 29.75 19.0555 29.75 20.05V44.05C29.75 45.0446 29.3549 45.9984 28.6517 46.7017C27.9484 47.405 26.9946 47.8 26 47.8H12C11.0054 47.8 10.0516 47.405 9.34835 46.7017C8.64509 45.9984 8.25 45.0446 8.25 44.05V29.1901C8.25 28.7758 8.58579 28.4401 9 28.4401C9.41421 28.4401 9.75 28.7758 9.75 29.1901V44.05C9.75 44.6468 9.98705 45.2191 10.409 45.641C10.831 46.063 11.4033 46.3 12 46.3H26C26.5967 46.3 27.169 46.063 27.591 45.641C28.0129 45.2191 28.25 44.6468 28.25 44.05V20.05C28.25 19.4533 28.0129 18.881 27.591 18.4591C27.169 18.0371 26.5967 17.8 26 17.8L11.9996 17.8Z" fill="#666BD1"/>
<path d="M8.98953 26.71L6.76953 29.68H11.2195L8.98953 26.71Z" fill="#666BD1"/>
<path fill-rule="evenodd" clip-rule="evenodd" d="M13.2402 21.9106C13.2859 21.5119 13.3742 21.4582 13.3988 21.4433C13.3997 21.4427 13.4006 21.4422 13.4013 21.4418C13.5058 21.3753 13.7709 21.3 14.4902 21.3H23.4902C23.886 21.3 24.1524 21.322 24.3368 21.3628C24.5127 21.4017 24.5641 21.447 24.5787 21.4616C24.5933 21.4762 24.6386 21.5276 24.6775 21.7035C24.7183 21.8879 24.7402 22.1543 24.7402 22.55V41.55C24.7402 41.9458 24.7183 42.2122 24.6775 42.3966C24.6386 42.5725 24.5933 42.6239 24.5787 42.6385C24.5641 42.6531 24.5127 42.6984 24.3368 42.7373C24.1524 42.7781 23.886 42.8 23.4902 42.8H14.7402C14.3445 42.8 14.078 42.7781 13.8937 42.7373C13.7178 42.6984 13.6664 42.6531 13.6518 42.6385C13.6372 42.6239 13.5919 42.5725 13.553 42.3966C13.5122 42.2122 13.4902 41.9458 13.4902 41.55V29.91C13.4902 29.4958 13.1544 29.16 12.7402 29.16C12.326 29.16 11.9902 29.4958 11.9902 29.91V41.55C11.9902 41.9793 12.012 42.3754 12.0884 42.7207C12.1667 43.0745 12.312 43.42 12.5912 43.6991C12.8703 43.9783 13.2158 44.1236 13.5696 44.2019C13.9149 44.2783 14.311 44.3 14.7402 44.3H23.4902C23.9195 44.3 24.3155 44.2783 24.6608 44.2019C25.0147 44.1236 25.3602 43.9783 25.6393 43.6991C25.9185 43.42 26.0638 43.0745 26.1421 42.7207C26.2185 42.3754 26.2402 41.9793 26.2402 41.55V22.55C26.2402 22.1208 26.2185 21.7247 26.1421 21.3794C26.0638 21.0256 25.9185 20.6801 25.6393 20.401C25.3602 20.1218 25.0147 19.9765 24.6608 19.8982C24.3155 19.8218 23.9195 19.8 23.4902 19.8H14.4902C13.7895 19.8 13.1097 19.8498 12.5967 20.1758C12 20.5551 11.8081 21.171 11.7442 21.7934C11.7415 21.8188 11.7402 21.8444 11.7402 21.8701V25.55C11.7402 25.9643 12.076 26.3 12.4902 26.3C12.9044 26.3 13.2402 25.9643 13.2402 25.55V21.9106Z" fill="#8D8119"/>
<path d="M12.7102 28.72L10.7402 31.1H14.4902L12.7102 28.72Z" fill="#8D8119"/>
</svg>
