<svg width="64" height="64" viewBox="0 0 64 64" fill="none" xmlns="http://www.w3.org/2000/svg">
<path fill-rule="evenodd" clip-rule="evenodd" d="M11.6793 17.0698C11.2138 17.0696 10.7597 17.2137 10.3796 17.4824C10.0098 17.7437 9.72775 18.1103 9.56982 18.5339C9.56784 18.5479 9.56306 18.5812 9.55708 18.641C9.54641 18.7476 9.53575 18.8931 9.52545 19.07C9.50494 19.4222 9.48737 19.8719 9.47307 20.3283C9.44441 21.2429 9.42969 22.1564 9.42969 22.3198C9.42969 22.734 9.0939 23.0698 8.67969 23.0698C8.26547 23.0698 7.92969 22.734 7.92969 22.3198C7.92969 22.1333 7.94496 21.2017 7.97381 20.2813C7.98825 19.8202 8.00631 19.3549 8.02799 18.9828C8.03878 18.7975 8.05085 18.6284 8.06452 18.4917C8.07432 18.3937 8.09273 18.2108 8.14258 18.0698C8.40119 17.3384 8.88029 16.7051 9.51385 16.2574C10.1473 15.8097 10.904 15.5695 11.6797 15.5698C11.6797 15.5698 11.6796 15.5698 11.6797 15.5698H25.6797C26.6742 15.5698 27.6281 15.9649 28.3313 16.6682C29.0346 17.3714 29.4297 18.3253 29.4297 19.3198V43.3198C29.4297 44.3144 29.0346 45.2682 28.3313 45.9715C27.6281 46.6747 26.6742 47.0698 25.6797 47.0698H11.6797C10.6851 47.0698 9.7313 46.6747 9.02804 45.9715C8.32478 45.2682 7.92969 44.3144 7.92969 43.3198V28.4598C7.92969 28.0456 8.26547 27.7098 8.67969 27.7098C9.0939 27.7098 9.42969 28.0456 9.42969 28.4598V43.3198C9.42969 43.9166 9.66674 44.4889 10.0887 44.9108C10.5107 45.3328 11.083 45.5698 11.6797 45.5698H25.6797C26.2764 45.5698 26.8487 45.3328 27.2707 44.9108C27.6926 44.4889 27.9297 43.9166 27.9297 43.3198V19.3198C27.9297 18.7231 27.6926 18.1508 27.2707 17.7288C26.8487 17.3069 26.2764 17.0698 25.6797 17.0698L11.6793 17.0698Z" fill="#666BD1"/>
<path d="M8.67922 25.98L6.44922 28.95H10.8992L8.67922 25.98Z" fill="#666BD1"/>
<path fill-rule="evenodd" clip-rule="evenodd" d="M12.9297 21.1803C12.9754 20.7817 13.0637 20.728 13.0882 20.7131C13.0892 20.7125 13.09 20.712 13.0908 20.7115C13.1953 20.6451 13.4604 20.5698 14.1797 20.5698H23.1797C23.5754 20.5698 23.8419 20.5918 24.0263 20.6326C24.2021 20.6715 24.2535 20.7168 24.2681 20.7314C24.2827 20.746 24.328 20.7974 24.3669 20.9732C24.4077 21.1576 24.4297 21.4241 24.4297 21.8198V40.8198C24.4297 41.2156 24.4077 41.482 24.3669 41.6664C24.328 41.8423 24.2827 41.8936 24.2681 41.9082C24.2535 41.9228 24.2021 41.9682 24.0263 42.0071C23.8419 42.0479 23.5754 42.0698 23.1797 42.0698H14.4197C14.024 42.0698 13.7575 42.0479 13.5731 42.0071C13.3972 41.9682 13.3459 41.9228 13.3313 41.9082C13.3167 41.8936 13.2714 41.8423 13.2324 41.6664C13.1917 41.482 13.1697 41.2156 13.1697 40.8198V29.1798C13.1697 28.7656 12.8339 28.4298 12.4197 28.4298C12.0055 28.4298 11.6697 28.7656 11.6697 29.1798V40.8198C11.6697 41.2491 11.6915 41.6451 11.7679 41.9904C11.8461 42.3442 11.9915 42.6898 12.2706 42.9689C12.5498 43.248 12.8953 43.3934 13.2491 43.4716C13.5944 43.548 13.9904 43.5698 14.4197 43.5698H23.1797C23.609 43.5698 24.005 43.548 24.3503 43.4716C24.7041 43.3934 25.0496 43.248 25.3288 42.9689C25.6079 42.6898 25.7532 42.3442 25.8315 41.9904C25.9079 41.6451 25.9297 41.2491 25.9297 40.8198V21.8198C25.9297 21.3906 25.9079 20.9945 25.8315 20.6492C25.7532 20.2954 25.6079 19.9499 25.3288 19.6707C25.0496 19.3916 24.7041 19.2463 24.3503 19.168C24.005 19.0916 23.609 19.0698 23.1797 19.0698H14.1797C13.479 19.0698 12.7991 19.1195 12.2861 19.4456C11.6895 19.8249 11.4976 20.4408 11.4336 21.0631C11.431 21.0886 11.4297 21.1142 11.4297 21.1398V24.8198C11.4297 25.234 11.7655 25.5698 12.1797 25.5698C12.5939 25.5698 12.9297 25.234 12.9297 24.8198V21.1803Z" fill="#8D8119"/>
<path d="M12.3999 27.99L10.4199 30.37H14.1799L12.3999 27.99Z" fill="#8D8119"/>
<path d="M48.8691 46.9402V22.9402H56.1491V45.4402C56.1491 46.8102 56.0191 46.9402 54.6491 46.9402H48.8691Z" fill="#D3D4F3"/>
<path d="M55.6491 23.4402V45.4402C55.6641 45.7424 55.6372 46.0453 55.5691 46.3402C55.2732 46.439 54.9594 46.4731 54.6491 46.4402H49.3691V23.4402H55.6491ZM56.6491 22.4402H48.3691V47.4402H54.6491C56.2991 47.4402 56.6491 47.0902 56.6491 45.4402V22.4402Z" fill="#666BD1"/>
<path d="M48.8691 22.9402V16.9402H54.6491C56.0191 16.9402 56.1491 17.0702 56.1491 18.4402V22.9402H48.8691Z" fill="#ADDFF3"/>
<path d="M54.6491 17.4402C54.9514 17.4248 55.2543 17.4517 55.5491 17.5202C55.6482 17.8161 55.6823 18.1299 55.6491 18.4402V22.4402H49.3691V17.4402H54.6491ZM54.6491 16.4402H48.3691V23.4402H56.6491V18.4402C56.6491 16.7902 56.2991 16.4402 54.6491 16.4402Z" fill="#2980B9"/>
<path opacity="0.8" d="M48.6309 29.29H56.1209" stroke="#666BD1" stroke-linejoin="round"/>
<path opacity="0.8" d="M48.6309 35.29H56.1209" stroke="#666BD1" stroke-linejoin="round"/>
<path opacity="0.8" d="M48.6309 41.29H56.1209" stroke="#666BD1" stroke-linejoin="round"/>
<path d="M43.0996 46.9402C41.7296 46.9402 41.5996 46.8102 41.5996 45.4402V22.9402H48.8796V46.9402H43.0996Z" fill="#F0ECB6"/>
<path d="M48.3796 23.4402V46.4402H43.0996C42.7973 46.4556 42.4944 46.4286 42.1996 46.3602C42.1008 46.0642 42.0667 45.7505 42.0996 45.4402V23.4402H48.3796ZM49.3796 22.4402H41.0996V45.4402C41.0996 47.0902 41.4496 47.4402 43.0996 47.4402H49.3796V22.4402Z" fill="#C18F35"/>
<path d="M41.5996 22.9402V18.4402C41.5996 17.0702 41.7296 16.9402 43.0996 16.9402H48.8796V22.9402H41.5996Z" fill="#ADDFF3"/>
<path d="M48.3796 17.4402V22.4402H42.0996V18.4402C42.0848 18.1379 42.1117 17.8351 42.1796 17.5402C42.4756 17.4414 42.7893 17.4073 43.0996 17.4402H48.3796ZM49.3796 16.4402H43.0996C41.4496 16.4402 41.0996 16.7902 41.0996 18.4402V23.4402H49.3796V16.4402Z" fill="#2980B9"/>
<path opacity="0.8" d="M41.6309 29.29H48.3709" stroke="#C18F35" stroke-linejoin="round"/>
<path opacity="0.8" d="M41.6309 35.29H48.3709" stroke="#C18F35" stroke-linejoin="round"/>
<path opacity="0.8" d="M41.6309 41.29H48.3709" stroke="#C18F35" stroke-linejoin="round"/>
<path d="M33.8697 35.6098C33.8865 35.204 33.9299 34.7998 33.9997 34.3998C34.042 34.1111 34.1297 33.831 34.2597 33.5698C34.3739 33.3479 34.5224 33.1454 34.6997 32.9698C34.8816 32.7856 35.0907 32.6305 35.3197 32.5098C35.5248 32.4014 35.7389 32.3111 35.9597 32.2398C36.1555 32.179 36.3563 32.1355 36.5597 32.1098C36.7497 32.1098 36.7497 32.0098 36.5597 31.9898C36.3563 31.964 36.1555 31.9205 35.9597 31.8598C35.7383 31.7903 35.524 31.6999 35.3197 31.5898C35.0906 31.4692 34.8815 31.3141 34.6997 31.1298C34.5229 30.9538 34.3744 30.7514 34.2597 30.5298C34.1299 30.2685 34.0421 29.9884 33.9997 29.6998C33.9372 29.3026 33.9004 28.9017 33.8897 28.4998C33.8897 28.0298 34.3897 29.2698 34.4697 29.6798C34.5362 30.0666 34.6977 30.4308 34.9397 30.7398C35.2107 31.0587 35.5534 31.3088 35.9397 31.4698C36.0389 31.5318 36.1207 31.6181 36.1774 31.7204C36.2341 31.8227 36.2638 31.9378 36.2638 32.0548C36.2638 32.1718 36.2341 32.2868 36.1774 32.3892C36.1207 32.4915 36.0389 32.5777 35.9397 32.6398C35.5536 32.8011 35.211 33.0512 34.9397 33.3698C34.6984 33.6792 34.537 34.0432 34.4697 34.4298C34.3697 34.8398 33.8497 36.0798 33.8697 35.6098Z" fill="#34495E" stroke="#528D19" stroke-miterlimit="10"/>
<path d="M52.5107 39.58C54.88 39.58 56.8007 37.6593 56.8007 35.29C56.8007 32.9207 54.88 31 52.5107 31C50.1414 31 48.2207 32.9207 48.2207 35.29C48.2207 37.6593 50.1414 39.58 52.5107 39.58Z" fill="#DEF4FD"/>
<path d="M52.5091 31.75C53.2105 31.7441 53.8978 31.9466 54.4839 32.332C55.07 32.7173 55.5284 33.2681 55.8009 33.9144C56.0735 34.5607 56.1479 35.2734 56.0147 35.962C55.8815 36.6507 55.5467 37.2843 55.0529 37.7824C54.559 38.2804 53.9283 38.6206 53.2408 38.7596C52.5533 38.8987 51.84 38.8303 51.1914 38.5633C50.5428 38.2963 49.9881 37.8426 49.5978 37.2598C49.2075 36.677 48.9991 35.9914 48.9991 35.29C49.0017 34.3519 49.3755 33.4531 50.0388 32.7898C50.7021 32.1264 51.601 31.7526 52.5391 31.75H52.5091ZM52.5391 30.25C51.5502 30.25 50.5835 30.5432 49.7612 31.0927C48.939 31.6421 48.2981 32.423 47.9197 33.3366C47.5412 34.2502 47.4422 35.2555 47.6351 36.2255C47.8281 37.1954 48.3043 38.0863 49.0035 38.7855C49.7028 39.4848 50.5937 39.961 51.5636 40.1539C52.5335 40.3469 53.5389 40.2478 54.4525 39.8694C55.3661 39.491 56.147 38.8501 56.6964 38.0279C57.2458 37.2056 57.5391 36.2389 57.5391 35.25C57.5391 33.9239 57.0123 32.6521 56.0746 31.7145C55.1369 30.7768 53.8652 30.25 52.5391 30.25Z" fill="#CC0000"/>
<path fill-rule="evenodd" clip-rule="evenodd" d="M56.1722 33.4365L49.6622 38.1765L48.7793 36.9639L55.2893 32.2239L56.1722 33.4365Z" fill="#CC0000"/>
</svg>
