<svg width="64" height="64" viewBox="0 0 64 64" fill="none" xmlns="http://www.w3.org/2000/svg">
<path fill-rule="evenodd" clip-rule="evenodd" d="M54.8404 17.6567C55.2231 17.8145 55.4055 18.253 55.2477 18.6359L54.3081 20.9159C54.1503 21.2989 53.7121 21.4813 53.3293 21.3234C52.9466 21.1655 52.7642 20.7271 52.922 20.3442L53.8616 18.0642C54.0194 17.6812 54.4576 17.4988 54.8404 17.6567Z" fill="#D04465"/>
<path fill-rule="evenodd" clip-rule="evenodd" d="M52.7804 22.6662C53.1633 22.8238 53.346 23.2621 53.1885 23.6451L52.0291 26.4651C51.8716 26.8482 51.4335 27.031 51.0506 26.8734C50.6677 26.7158 50.485 26.2776 50.6425 25.8945L51.802 23.0745C51.9595 22.6914 52.3975 22.5086 52.7804 22.6662Z" fill="#D04465"/>
<path fill-rule="evenodd" clip-rule="evenodd" d="M50.5718 28.0363C50.9546 28.1941 51.137 28.6325 50.9793 29.0155L42.0035 50.8055C41.8457 51.1884 41.4075 51.3709 41.0248 51.2131C40.642 51.0553 40.4595 50.6169 40.6173 50.2339L49.5931 28.4439C49.7508 28.061 50.189 27.8784 50.5718 28.0363Z" fill="#D04465"/>
<path fill-rule="evenodd" clip-rule="evenodd" d="M9.16203 17.6556C9.54538 17.4992 9.98292 17.6833 10.1393 18.0668L11.0689 20.3468C11.2252 20.7303 11.0412 21.1681 10.6579 21.3245C10.2745 21.4809 9.83697 21.2969 9.6806 20.9133L8.75103 18.6333C8.59466 18.2498 8.77867 17.812 9.16203 17.6556Z" fill="#D04465"/>
<path fill-rule="evenodd" clip-rule="evenodd" d="M11.2186 22.6662C11.6015 22.5086 12.0395 22.6914 12.197 23.0745L13.3565 25.8945C13.514 26.2776 13.3313 26.7158 12.9484 26.8734C12.5655 27.031 12.1274 26.8482 11.9699 26.4651L10.8105 23.6451C10.653 23.2621 10.8357 22.8238 11.2186 22.6662Z" fill="#D04465"/>
<path fill-rule="evenodd" clip-rule="evenodd" d="M13.4271 28.0363C13.8099 27.8784 14.2481 28.061 14.4058 28.4439L23.3816 50.2339C23.5394 50.6169 23.357 51.0553 22.9742 51.2131C22.5914 51.3709 22.1532 51.1884 21.9954 50.8055L13.0196 29.0155C12.8619 28.6325 13.0443 28.1941 13.4271 28.0363Z" fill="#D04465"/>
<path fill-rule="evenodd" clip-rule="evenodd" d="M19.1423 28.8673C19.5247 28.7085 19.9633 28.89 20.1219 29.2726L21.2914 32.0926C21.4501 32.4752 21.2687 32.914 20.8863 33.0728C20.5038 33.2315 20.0652 33.05 19.9066 32.6674L18.7371 29.8474C18.5785 29.4648 18.7598 29.026 19.1423 28.8673Z" fill="#D04465"/>
<path fill-rule="evenodd" clip-rule="evenodd" d="M21.3629 34.2369C21.7453 34.0782 22.1839 34.2596 22.3426 34.6422L28.8096 50.2322C28.9683 50.6147 28.7869 51.0536 28.4045 51.2124C28.0221 51.3711 27.5835 51.1897 27.4248 50.8071L20.9578 35.2171C20.7991 34.8345 20.9805 34.3957 21.3629 34.2369Z" fill="#D04465"/>
<path fill-rule="evenodd" clip-rule="evenodd" d="M20.4595 8.07777C20.8195 7.87315 21.2771 7.99922 21.4816 8.35936L21.9814 9.23936C22.1859 9.5995 22.0599 10.0573 21.7 10.262C21.34 10.4666 20.8824 10.3405 20.6778 9.98038L20.1781 9.10037C19.9735 8.74023 20.0996 8.2824 20.4595 8.07777Z" fill="#D04465"/>
<path fill-rule="evenodd" clip-rule="evenodd" d="M22.0887 11.4683C22.4704 11.308 22.9098 11.4877 23.07 11.8696L24.9491 16.3496C25.1093 16.7316 24.9297 17.1712 24.5479 17.3314C24.1662 17.4917 23.7268 17.312 23.5666 16.9301L21.6875 12.4501C21.5273 12.0681 21.7069 11.6286 22.0887 11.4683Z" fill="#D04465"/>
<path fill-rule="evenodd" clip-rule="evenodd" d="M45.005 28.8664C45.3879 29.024 45.5706 29.4623 45.4131 29.8453L44.2537 32.6653C44.0962 33.0484 43.6581 33.2312 43.2752 33.0736C42.8923 32.9161 42.7096 32.4778 42.8671 32.0947L44.0266 29.2747C44.1841 28.8916 44.6221 28.7088 45.005 28.8664Z" fill="#D04465"/>
<path fill-rule="evenodd" clip-rule="evenodd" d="M42.7977 34.2371C43.18 34.3961 43.3612 34.835 43.2022 35.2175L36.7253 50.8075C36.5664 51.19 36.1276 51.3712 35.7453 51.2122C35.363 51.0532 35.1819 50.6143 35.3408 50.2318L41.8178 34.6418C41.9767 34.2593 42.4154 34.0781 42.7977 34.2371Z" fill="#D04465"/>
<path fill-rule="evenodd" clip-rule="evenodd" d="M44.3906 8.95286C44.7695 9.11968 44.9416 9.56227 44.7748 9.9414L44.2251 11.1914C44.0583 11.5705 43.6159 11.7427 43.237 11.5758C42.858 11.409 42.686 10.9664 42.8527 10.5873L43.4025 9.3373C43.5692 8.95816 44.0116 8.78604 44.3906 8.95286Z" fill="#D04465"/>
<path fill-rule="evenodd" clip-rule="evenodd" d="M42.7816 12.749C43.163 12.9101 43.3416 13.3501 43.1805 13.7317L41.7412 17.1417C41.5802 17.5232 41.1404 17.7019 40.759 17.5408C40.3776 17.3797 40.199 16.9397 40.36 16.5581L41.7993 13.1481C41.9604 12.7665 42.4002 12.5878 42.7816 12.749Z" fill="#D04465"/>
<path d="M14.4023 63.53V59.53C14.4023 58.6018 14.7709 57.7115 15.427 57.0552C16.0831 56.3988 16.9729 56.03 17.9007 56.03H46.3874C47.3152 56.03 48.205 56.3988 48.8611 57.0552C49.5171 57.7115 49.8857 58.6018 49.8857 59.53V63.53H14.4023Z" fill="#E6E6E6"/>
<path d="M46.3871 56.4897C47.1824 56.4897 47.9451 56.8058 48.5074 57.3684C49.0698 57.931 49.3857 58.6941 49.3857 59.4897V62.9997H14.9019V59.4897C14.9019 58.6941 15.2178 57.931 15.7801 57.3684C16.3425 56.8058 17.1052 56.4897 17.9005 56.4897H46.3871ZM46.3871 55.4897H17.9005C16.8401 55.4897 15.8232 55.9112 15.0734 56.6613C14.3236 57.4115 13.9023 58.4289 13.9023 59.4897V63.9997H50.3852V59.4897C50.3852 58.4289 49.964 57.4115 49.2142 56.6613C48.4644 55.9112 47.4475 55.4897 46.3871 55.4897Z" fill="#818181"/>
<path d="M22.2593 55.8999L20.4102 50.4199C20.4199 50.4048 20.4332 50.3924 20.4489 50.3837C20.4646 50.375 20.4822 50.3702 20.5001 50.3699H43.7892C43.8071 50.3702 43.8247 50.375 43.8404 50.3837C43.8561 50.3924 43.8694 50.4048 43.8792 50.4199L42.03 55.8999H22.2593Z" fill="#E6E6E6"/>
<path d="M43.1995 50.8699L41.6702 55.3999H22.6191L21.0898 50.8699H43.1995ZM43.7892 49.8699H20.5001C20.3411 49.8699 20.1885 49.9331 20.076 50.0456C19.9636 50.1581 19.9004 50.3107 19.9004 50.4699L21.8995 56.3999H42.3899L44.3889 50.4699C44.3889 50.3107 44.3257 50.1581 44.2133 50.0456C44.1008 49.9331 43.9483 49.8699 43.7892 49.8699Z" fill="#818181"/>
<path d="M32.0653 61.06C31.7897 61.062 31.5197 60.9819 31.2897 60.8299C31.0597 60.6779 30.8801 60.4609 30.7737 60.2066C30.6673 59.9522 30.6389 59.6719 30.6922 59.4013C30.7455 59.1307 30.878 58.8821 31.0729 58.6872C31.2679 58.4922 31.5163 58.3596 31.7868 58.3063C32.0572 58.2529 32.3374 58.2813 32.5916 58.3878C32.8459 58.4942 33.0628 58.6739 33.2147 58.904C33.3666 59.1341 33.4467 59.4042 33.4447 59.68C33.4447 60.046 33.2994 60.397 33.0407 60.6558C32.782 60.9146 32.4312 61.06 32.0653 61.06Z" fill="#E6E6E6"/>
<path d="M32.0642 58.7898C32.2401 58.7898 32.4121 58.842 32.5584 58.9398C32.7047 59.0376 32.8187 59.1766 32.8861 59.3392C32.9534 59.5018 32.971 59.6808 32.9367 59.8534C32.9024 60.0261 32.8176 60.1846 32.6932 60.3091C32.5688 60.4336 32.4103 60.5183 32.2378 60.5527C32.0652 60.587 31.8863 60.5694 31.7238 60.502C31.5612 60.4347 31.4223 60.3206 31.3245 60.1742C31.2268 60.0279 31.1746 59.8558 31.1746 59.6798C31.1746 59.5629 31.1976 59.4472 31.2423 59.3392C31.287 59.2312 31.3526 59.1331 31.4352 59.0505C31.5178 58.9678 31.6158 58.9023 31.7238 58.8575C31.8317 58.8128 31.9474 58.7898 32.0642 58.7898ZM32.0642 57.7898C31.6919 57.7957 31.3297 57.9116 31.023 58.1228C30.7163 58.334 30.4788 58.6312 30.3404 58.9771C30.202 59.3229 30.1689 59.7019 30.2451 60.0666C30.3213 60.4312 30.5036 60.7651 30.7689 61.0265C31.0343 61.2878 31.3709 61.4648 31.7365 61.5354C32.1021 61.6059 32.4804 61.5668 32.8239 61.4229C33.1673 61.279 33.4606 61.0368 33.6669 60.7266C33.8732 60.4165 33.9833 60.0523 33.9833 59.6798C33.9833 59.1803 33.7856 58.701 33.4335 58.3469C33.0814 57.9927 32.6035 57.7924 32.1042 57.7898H32.0642Z" fill="#818181"/>
<path d="M21.1602 52.28H28.2768" stroke="#818181" stroke-miterlimit="10"/>
<path d="M21.8184 54.0798H34.6723" stroke="#818181" stroke-miterlimit="10"/>
<path d="M22.0488 23.8701H41.9795V26.8701C41.9795 27.1353 41.8742 27.3897 41.6867 27.5772C41.4993 27.7648 41.2451 27.8701 40.98 27.8701H23.0484C22.7833 27.8701 22.529 27.7648 22.3416 27.5772C22.1541 27.3897 22.0488 27.1353 22.0488 26.8701V23.8701Z" fill="#D3D4F3" stroke="#666BD1" stroke-miterlimit="10"/>
<path d="M32.0543 23.8701H27.0566V27.8701H32.0543V23.8701Z" fill="#D3D4F3" stroke="#666BD1" stroke-miterlimit="10"/>
<path d="M37.0113 23.8701H32.0137V27.8701H37.0113V23.8701Z" fill="#D3D4F3" stroke="#666BD1" stroke-miterlimit="10"/>
<path d="M23.0484 20.1301H40.98C41.2451 20.1301 41.4993 20.2355 41.6867 20.423C41.8742 20.6106 41.9795 20.8649 41.9795 21.1301V24.1301H22.0488V21.1301C22.0488 20.8649 22.1541 20.6106 22.3416 20.423C22.529 20.2355 22.7833 20.1301 23.0484 20.1301Z" fill="#D3D4F3" stroke="#666BD1" stroke-miterlimit="10"/>
<path d="M32.0543 20.1301H27.0566V24.1301H32.0543V20.1301Z" fill="#D3D4F3" stroke="#666BD1" stroke-miterlimit="10"/>
<path d="M37.0113 20.1301H32.0137V24.1301H37.0113V20.1301Z" fill="#D3D4F3" stroke="#666BD1" stroke-miterlimit="10"/>
</svg>
