<svg width="64" height="64" viewBox="0 0 64 64" fill="none" xmlns="http://www.w3.org/2000/svg">
<path d="M10 57.47C8.63 57.47 8.5 57.34 8.5 55.97V15.53H55.5V56C55.5 57.37 55.37 57.5 54 57.5L10 57.47Z" fill="#F0ECB6"/>
<path d="M55 16V56C55.015 56.3023 54.9881 56.6051 54.92 56.9C54.624 56.9988 54.3103 57.0329 54 57H10C9.69774 57.0154 9.39481 56.9884 9.1 56.92C9.0009 56.6241 8.96679 56.3103 9 56V16H55ZM56 15H8V56C8 57.65 8.35 58 10 58H54C55.65 58 56 57.65 56 56V15Z" fill="#C18F36"/>
<path d="M8.5 15.53V8C8.5 6.63 8.63 6.5 10 6.5H54C55.37 6.5 55.5 6.63 55.5 8V15.5L8.5 15.53Z" fill="#ADDFF3"/>
<path d="M54 7C54.3023 6.98463 54.6052 7.01156 54.9 7.08C54.9988 7.37598 55.0329 7.68971 55 8V15H9V8C8.98502 7.69775 9.01194 7.39487 9.08 7.1C9.37598 7.00121 9.68971 6.96711 10 7H54ZM54 6H10C8.35 6 8 6.38 8 8V16H56V8C56 6.35 55.65 6 54 6Z" fill="#2980B9"/>
<g opacity="0.8">
<path opacity="0.8" fill-rule="evenodd" clip-rule="evenodd" d="M23.97 26.47H14V25.47H23.97V26.47Z" fill="#34495E"/>
<path opacity="0.8" fill-rule="evenodd" clip-rule="evenodd" d="M23.97 34.8398H14V33.8398H23.97V34.8398Z" fill="#34495E"/>
<path opacity="0.8" fill-rule="evenodd" clip-rule="evenodd" d="M23.97 43.21H14V42.21H23.97V43.21Z" fill="#34495E"/>
<path opacity="0.8" fill-rule="evenodd" clip-rule="evenodd" d="M23.97 51.5801H14V50.5801H23.97V51.5801Z" fill="#34495E"/>
</g>
<g opacity="0.8">
<path opacity="0.8" fill-rule="evenodd" clip-rule="evenodd" d="M23.97 22.47H14V21.47H23.97V22.47Z" fill="#34495E"/>
<path opacity="0.8" fill-rule="evenodd" clip-rule="evenodd" d="M23.97 30.8398H14V29.8398H23.97V30.8398Z" fill="#34495E"/>
<path opacity="0.8" fill-rule="evenodd" clip-rule="evenodd" d="M23.97 39.21H14V38.21H23.97V39.21Z" fill="#34495E"/>
<path opacity="0.8" fill-rule="evenodd" clip-rule="evenodd" d="M23.97 47.5801H14V46.5801H23.97V47.5801Z" fill="#34495E"/>
</g>
<g opacity="0.8">
<path opacity="0.8" fill-rule="evenodd" clip-rule="evenodd" d="M23.97 11.53H14V10.53H23.97V11.53Z" fill="#34495E"/>
</g>
<g opacity="0.8">
<path opacity="0.8" fill-rule="evenodd" clip-rule="evenodd" d="M36.97 11.53H27V10.53H36.97V11.53Z" fill="#34495E"/>
</g>
<g opacity="0.8">
<path opacity="0.8" fill-rule="evenodd" clip-rule="evenodd" d="M49.97 11.53H40V10.53H49.97V11.53Z" fill="#34495E"/>
</g>
<g opacity="0.8">
<path opacity="0.8" fill-rule="evenodd" clip-rule="evenodd" d="M36.97 26.47H27V25.47H36.97V26.47Z" fill="#34495E"/>
<path opacity="0.8" fill-rule="evenodd" clip-rule="evenodd" d="M36.97 34.8398H27V33.8398H36.97V34.8398Z" fill="#34495E"/>
<path opacity="0.8" fill-rule="evenodd" clip-rule="evenodd" d="M36.97 43.21H27V42.21H36.97V43.21Z" fill="#34495E"/>
<path opacity="0.8" fill-rule="evenodd" clip-rule="evenodd" d="M36.97 51.5801H27V50.5801H36.97V51.5801Z" fill="#34495E"/>
</g>
<g opacity="0.8">
<path opacity="0.8" fill-rule="evenodd" clip-rule="evenodd" d="M36.97 22.47H27V21.47H36.97V22.47Z" fill="#34495E"/>
<path opacity="0.8" fill-rule="evenodd" clip-rule="evenodd" d="M36.97 30.8398H27V29.8398H36.97V30.8398Z" fill="#34495E"/>
<path opacity="0.8" fill-rule="evenodd" clip-rule="evenodd" d="M36.97 39.21H27V38.21H36.97V39.21Z" fill="#34495E"/>
<path opacity="0.8" fill-rule="evenodd" clip-rule="evenodd" d="M36.97 47.5801H27V46.5801H36.97V47.5801Z" fill="#34495E"/>
</g>
<g opacity="0.8">
<path opacity="0.8" fill-rule="evenodd" clip-rule="evenodd" d="M49.97 26.47H40V25.47H49.97V26.47Z" fill="#34495E"/>
<path opacity="0.8" fill-rule="evenodd" clip-rule="evenodd" d="M49.97 34.8398H40V33.8398H49.97V34.8398Z" fill="#34495E"/>
<path opacity="0.8" fill-rule="evenodd" clip-rule="evenodd" d="M49.97 43.21H40V42.21H49.97V43.21Z" fill="#34495E"/>
<path opacity="0.8" fill-rule="evenodd" clip-rule="evenodd" d="M49.97 51.5801H40V50.5801H49.97V51.5801Z" fill="#34495E"/>
</g>
<g opacity="0.8">
<path opacity="0.8" fill-rule="evenodd" clip-rule="evenodd" d="M49.97 22.47H40V21.47H49.97V22.47Z" fill="#34495E"/>
<path opacity="0.8" fill-rule="evenodd" clip-rule="evenodd" d="M49.97 30.8398H40V29.8398H49.97V30.8398Z" fill="#34495E"/>
<path opacity="0.8" fill-rule="evenodd" clip-rule="evenodd" d="M49.97 39.21H40V38.21H49.97V39.21Z" fill="#34495E"/>
<path opacity="0.8" fill-rule="evenodd" clip-rule="evenodd" d="M49.97 47.5801H40V46.5801H49.97V47.5801Z" fill="#34495E"/>
</g>
</svg>
