<svg width="64" height="64" viewBox="0 0 64 64" fill="none" xmlns="http://www.w3.org/2000/svg">
<path d="M55.6914 45.4299H47.6914C47.4153 45.4299 47.1914 45.6538 47.1914 45.9299V53.9299C47.1914 54.2061 47.4153 54.4299 47.6914 54.4299H55.6914C55.9676 54.4299 56.1914 54.2061 56.1914 53.9299V45.9299C56.1914 45.6538 55.9676 45.4299 55.6914 45.4299Z" fill="#F3C7D7"/>
<path d="M55.6914 45.9299V53.9299H47.6914V45.9299H55.6914ZM55.6914 44.9299H47.6914C47.4262 44.9299 47.1718 45.0353 46.9843 45.2228C46.7968 45.4104 46.6914 45.6647 46.6914 45.9299V53.9299C46.6914 54.1951 46.7968 54.4495 46.9843 54.637C47.1718 54.8246 47.4262 54.9299 47.6914 54.9299H55.6914C55.9566 54.9299 56.211 54.8246 56.3985 54.637C56.5861 54.4495 56.6914 54.1951 56.6914 53.9299V45.9299C56.6914 45.6647 56.5861 45.4104 56.3985 45.2228C56.211 45.0353 55.9566 44.9299 55.6914 44.9299Z" fill="#D04465"/>
<path d="M16.3105 45.4299H8.31055C8.03441 45.4299 7.81055 45.6538 7.81055 45.9299V53.9299C7.81055 54.2061 8.03441 54.4299 8.31055 54.4299H16.3105C16.5867 54.4299 16.8105 54.2061 16.8105 53.9299V45.9299C16.8105 45.6538 16.5867 45.4299 16.3105 45.4299Z" fill="#F3C7D7"/>
<path d="M16.3105 45.9299V53.9299H8.31055V45.9299H16.3105ZM16.3105 44.9299H8.31055C8.04533 44.9299 7.79098 45.0353 7.60344 45.2228C7.4159 45.4104 7.31055 45.6647 7.31055 45.9299V53.9299C7.31055 54.1951 7.4159 54.4495 7.60344 54.637C7.79098 54.8246 8.04533 54.9299 8.31055 54.9299H16.3105C16.5758 54.9299 16.8301 54.8246 17.0177 54.637C17.2052 54.4495 17.3105 54.1951 17.3105 53.9299V45.9299C17.3105 45.6647 17.2052 45.4104 17.0177 45.2228C16.8301 45.0353 16.5758 44.9299 16.3105 44.9299Z" fill="#D04465"/>
<path d="M36.0098 9.56982H28.0098C27.7336 9.56982 27.5098 9.79368 27.5098 10.0698V18.0698C27.5098 18.346 27.7336 18.5698 28.0098 18.5698H36.0098C36.2859 18.5698 36.5098 18.346 36.5098 18.0698V10.0698C36.5098 9.79368 36.2859 9.56982 36.0098 9.56982Z" fill="#F3C7D7"/>
<path d="M36 10.0698V18.0698H28V10.0698H36ZM36 9.06982H28C27.7348 9.06982 27.4804 9.17518 27.2929 9.36272C27.1054 9.55025 27 9.80461 27 10.0698V18.0698C27 18.335 27.1054 18.5894 27.2929 18.7769C27.4804 18.9645 27.7348 19.0698 28 19.0698H36C36.2652 19.0698 36.5196 18.9645 36.7071 18.7769C36.8946 18.5894 37 18.335 37 18.0698V10.0698C37 9.80461 36.8946 9.55025 36.7071 9.36272C36.5196 9.17518 36.2652 9.06982 36 9.06982Z" fill="#D04465"/>
<path fill-rule="evenodd" clip-rule="evenodd" d="M24.4437 40.5701C24.5816 40.8093 24.4996 41.1151 24.2603 41.253L20.4803 43.433C20.2411 43.571 19.9354 43.4889 19.7974 43.2497C19.6595 43.0105 19.7415 42.7047 19.9808 42.5668L23.7608 40.3868C24 40.2488 24.3057 40.3309 24.4437 40.5701Z" fill="#2980B9"/>
<path d="M18.1406 44.1998C19.4321 43.9678 20.7527 43.9475 22.0506 44.1398L20.5006 42.8398L20.1506 40.8398C19.6678 42.0617 18.9889 43.1966 18.1406 44.1998Z" fill="#2980B9"/>
<path fill-rule="evenodd" clip-rule="evenodd" d="M39.5276 40.7703C39.6653 40.5309 39.971 40.4485 40.2103 40.5862L44.0003 42.7662C44.2397 42.9039 44.3221 43.2095 44.1844 43.4489C44.0468 43.6883 43.7411 43.7707 43.5017 43.633L39.7117 41.453C39.4724 41.3153 39.3899 41.0097 39.5276 40.7703Z" fill="#2980B9"/>
<path d="M45.8397 44.3997C44.5482 44.1677 43.2276 44.1474 41.9297 44.3397L43.4697 42.9997L43.8197 40.9998C44.3017 42.2364 44.9841 43.3851 45.8397 44.3997Z" fill="#2980B9"/>
<path fill-rule="evenodd" clip-rule="evenodd" d="M32.0801 21.98C32.3562 21.98 32.5801 22.2038 32.5801 22.48V26.85C32.5801 27.1261 32.3562 27.35 32.0801 27.35C31.8039 27.35 31.5801 27.1261 31.5801 26.85V22.48C31.5801 22.2038 31.8039 21.98 32.0801 21.98Z" fill="#2980B9"/>
<path d="M32.0897 20.0698C31.6432 21.3061 30.998 22.4612 30.1797 23.4898L32.0797 22.7998L33.9797 23.4898C33.1683 22.4599 32.5299 21.3048 32.0897 20.0698Z" fill="#2980B9"/>
<path d="M32.0801 43.4297C36.2222 43.4297 39.5801 40.0718 39.5801 35.9297C39.5801 31.7876 36.2222 28.4297 32.0801 28.4297C27.9379 28.4297 24.5801 31.7876 24.5801 35.9297C24.5801 40.0718 27.9379 43.4297 32.0801 43.4297Z" fill="#ADDFF3"/>
<path d="M32.0801 28.9297C33.4646 28.9297 34.8179 29.3402 35.9691 30.1094C37.1202 30.8786 38.0174 31.9718 38.5472 33.2509C39.077 34.53 39.2157 35.9375 38.9456 37.2953C38.6755 38.6532 38.0088 39.9005 37.0298 40.8794C36.0509 41.8584 34.8036 42.5251 33.4457 42.7952C32.0878 43.0653 30.6804 42.9267 29.4013 42.3968C28.1222 41.867 27.029 40.9698 26.2598 39.8187C25.4906 38.6675 25.0801 37.3142 25.0801 35.9297C25.0801 34.0732 25.8176 32.2927 27.1303 30.9799C28.4431 29.6672 30.2236 28.9297 32.0801 28.9297ZM32.0801 27.9297C30.4978 27.9297 28.9511 28.3989 27.6355 29.2779C26.3199 30.157 25.2945 31.4064 24.689 32.8682C24.0835 34.33 23.9251 35.9386 24.2338 37.4904C24.5425 39.0423 25.3044 40.4677 26.4232 41.5865C27.542 42.7054 28.9675 43.4673 30.5194 43.776C32.0712 44.0847 33.6797 43.9262 35.1415 43.3207C36.6034 42.7152 37.8528 41.6898 38.7318 40.3742C39.6109 39.0587 40.0801 37.5119 40.0801 35.9297C40.0801 33.808 39.2372 31.7731 37.7369 30.2728C36.2366 28.7725 34.2018 27.9297 32.0801 27.9297Z" fill="#2980B9"/>
</svg>
