<svg width="64" height="64" viewBox="0 0 64 64" fill="none" xmlns="http://www.w3.org/2000/svg">
<path d="M4.59031 25.2101C4.60051 24.8048 4.63725 24.4006 4.70031 24.0001C4.75617 23.7126 4.85744 23.4358 5.00031 23.1801C5.11447 22.9582 5.26297 22.7557 5.44031 22.5801C5.60394 22.4007 5.79254 22.2458 6.00031 22.1201C6.20541 22.0117 6.41955 21.9214 6.64031 21.8501C6.83612 21.7893 7.03689 21.7458 7.24031 21.7201C7.43031 21.7201 7.43031 21.6201 7.24031 21.6001C7.03691 21.5744 6.83614 21.5309 6.64031 21.4701C6.41888 21.4007 6.20458 21.3103 6.00031 21.2001C5.77125 21.0796 5.56213 20.9244 5.38031 20.7401C5.20347 20.5641 5.05504 20.3617 4.94031 20.1401C4.81048 19.8789 4.72273 19.5988 4.68031 19.3101C4.61777 18.9129 4.58103 18.5121 4.57031 18.1101C4.57031 17.6401 5.07031 18.8801 5.15031 19.2901C5.21679 19.6769 5.37829 20.0412 5.62031 20.3501C5.89133 20.669 6.23401 20.9192 6.62031 21.0801C6.7195 21.1422 6.80128 21.2284 6.85798 21.3307C6.91468 21.4331 6.94442 21.5481 6.94442 21.6651C6.94442 21.7821 6.91468 21.8972 6.85798 21.9995C6.80128 22.1019 6.7195 22.1881 6.62031 22.2501C6.2342 22.4114 5.89159 22.6615 5.62031 22.9801C5.392 23.2799 5.23781 23.6294 5.17031 24.0001C5.09031 24.4401 4.57031 25.6801 4.59031 25.2101Z" fill="#34495E" stroke="#528D19" stroke-miterlimit="10"/>
<path d="M4.59031 49.3598C4.60094 48.9578 4.63769 48.557 4.70031 48.1598C4.75514 47.8688 4.85644 47.5886 5.00031 47.3298C5.11447 47.1079 5.26297 46.9054 5.44031 46.7298C5.60394 46.5504 5.79254 46.3955 6.00031 46.2698C6.20862 46.1609 6.42613 46.0705 6.65031 45.9998C6.84612 45.939 7.04689 45.8955 7.25031 45.8698C7.44031 45.8698 7.44031 45.7698 7.25031 45.7498C7.04691 45.724 6.84614 45.6805 6.65031 45.6198C6.42545 45.5509 6.20777 45.4605 6.00031 45.3498C5.77125 45.2292 5.56213 45.0741 5.38031 44.8898C5.20347 44.7138 5.05504 44.5114 4.94031 44.2898C4.81048 44.0285 4.72273 43.7484 4.68031 43.4598C4.61777 43.0626 4.58103 42.6617 4.57031 42.2598C4.57031 41.7898 5.07031 43.0298 5.15031 43.4398C5.21679 43.8266 5.37829 44.1908 5.62031 44.4998C5.89133 44.8187 6.23401 45.0688 6.62031 45.2298C6.7195 45.2918 6.80128 45.3781 6.85798 45.4804C6.91468 45.5827 6.94442 45.6978 6.94442 45.8148C6.94442 45.9318 6.91468 46.0469 6.85798 46.1492C6.80128 46.2515 6.7195 46.3378 6.62031 46.3998C6.2342 46.5611 5.89159 46.8112 5.62031 47.1298C5.37901 47.4392 5.21759 47.8032 5.15031 48.1898C5.09031 48.5898 4.57031 49.8298 4.59031 49.3598Z" fill="#34495E" stroke="#528D19" stroke-miterlimit="10"/>
<path d="M29.1997 41.36C29.9142 41.3582 30.6176 41.1832 31.2497 40.85C31.6951 40.5937 32.0618 40.2201 32.3097 39.77C32.5373 39.3355 32.6734 38.859 32.7097 38.37C32.7497 37.87 32.7697 37.3833 32.7697 36.91V37.26C32.7697 36.58 32.7697 36.01 32.7697 35.54C32.7803 35.138 32.8171 34.7371 32.8797 34.34C32.9219 34.0513 33.0097 33.7711 33.1397 33.51C33.2538 33.288 33.4023 33.0855 33.5797 32.91C33.7616 32.7258 33.9707 32.5707 34.1997 32.45C34.4048 32.3416 34.6189 32.2512 34.8397 32.18C35.0355 32.1191 35.2363 32.0756 35.4397 32.05C35.6297 32.05 35.6297 31.95 35.4397 31.93C35.2363 31.9042 35.0355 31.8607 34.8397 31.8C34.6183 31.7305 34.404 31.6401 34.1997 31.53C33.9706 31.4094 33.7615 31.2542 33.5797 31.07C33.4028 30.8939 33.2544 30.6915 33.1397 30.47C33.0099 30.2087 32.9221 29.9286 32.8797 29.64C32.8171 29.2427 32.7804 28.8419 32.7697 28.44C32.7697 27.9666 32.7697 27.39 32.7697 26.71V27.07C32.7697 26.6 32.7697 26.07 32.7097 25.61C32.6737 25.1208 32.5375 24.6443 32.3097 24.2099C32.0614 23.7601 31.6948 23.3867 31.2497 23.1299C30.6169 22.7986 29.914 22.6237 29.1997 22.62V22.2H29.7297C29.9557 22.2181 30.1798 22.2549 30.3997 22.3099C30.645 22.3688 30.8857 22.4457 31.1197 22.54C31.3711 22.643 31.6068 22.7811 31.8197 22.95C32.1494 23.1962 32.4308 23.5014 32.6497 23.85C32.8568 24.2063 33.0021 24.5951 33.0797 25C33.1729 25.4241 33.2265 25.8559 33.2397 26.29C33.2397 26.76 33.2397 28.17 33.2397 28.17C33.2319 28.6726 33.2721 29.1749 33.3597 29.67C33.4262 30.0568 33.5877 30.421 33.8297 30.73C34.1007 31.0488 34.4434 31.299 34.8297 31.46C34.9289 31.522 35.0107 31.6082 35.0674 31.7106C35.1241 31.8129 35.1538 31.928 35.1538 32.045C35.1538 32.1619 35.1241 32.277 35.0674 32.3793C35.0107 32.4817 34.9289 32.5679 34.8297 32.63C34.4436 32.7912 34.101 33.0414 33.8297 33.36C33.5884 33.6694 33.427 34.0334 33.3597 34.42C33.2721 34.915 33.2319 35.4173 33.2397 35.92C33.2397 35.92 33.1497 38.7 33.0597 39.09C32.974 39.4672 32.8288 39.8283 32.6297 40.16C32.4114 40.509 32.1299 40.8142 31.7997 41.06C31.5867 41.2287 31.3511 41.3668 31.0997 41.47C30.8654 41.5634 30.6248 41.6402 30.3797 41.7C30.1596 41.7541 29.9355 41.7908 29.7097 41.81H29.1797L29.1997 41.36Z" fill="#34495E" stroke="#528D19" stroke-miterlimit="10"/>
<path d="M12.2695 29.3098C10.8995 29.3098 10.7695 29.1798 10.7695 27.8098V16.3098H18.0495V29.3098H12.2695Z" fill="#D3D4F3"/>
<path d="M17.5495 16.8098V28.8098H12.2695C11.9673 28.8252 11.6643 28.7983 11.3695 28.7298C11.2707 28.4338 11.2366 28.1201 11.2695 27.8098V16.8098H17.5495ZM18.5495 15.8098H10.2695V27.8098C10.2695 29.4598 10.6195 29.8098 12.2695 29.8098H18.5495V15.8098Z" fill="#666BD1"/>
<path d="M18 29.3098V16.3098H25.28V27.8098C25.28 29.1798 25.15 29.3098 23.78 29.3098H18Z" fill="#D3D4F3"/>
<path d="M24.8191 16.8098V27.8098C24.834 28.1121 24.8071 28.4149 24.7391 28.7098C24.4431 28.8086 24.1294 28.8427 23.8191 28.8098H18.5391V16.8098H24.8191ZM25.8191 15.8098H17.5391V29.8098H23.8191C25.4691 29.8098 25.8191 29.4598 25.8191 27.8098V15.8098Z" fill="#666BD1"/>
<path d="M10.7695 16.3098V11.8098C10.7695 10.4398 10.8995 10.3098 12.2695 10.3098H18.0495V16.3098H10.7695Z" fill="#ADDFF3"/>
<path d="M17.5495 10.8098V15.8098H11.2695V11.8098C11.2546 11.5076 11.2815 11.2047 11.3495 10.9098C11.6455 10.811 11.9592 10.7769 12.2695 10.8098H17.5495ZM18.5495 9.80981H12.2695C10.6195 9.80981 10.2695 10.1598 10.2695 11.8098V16.8098H18.5495V9.80981Z" fill="#2980B9"/>
<path d="M18 16.3098V10.3098H23.78C25.15 10.3098 25.28 10.4398 25.28 11.8098V16.3098H18Z" fill="#ADDFF3"/>
<path d="M23.8191 10.8098C24.1213 10.7944 24.4242 10.8214 24.7191 10.8898C24.8179 11.1858 24.852 11.4995 24.8191 11.8098V15.8098H18.5391V10.8098H23.8191ZM23.8191 9.80981H17.5391V16.8098H25.8191V11.8098C25.8191 10.1598 25.4691 9.80981 23.8191 9.80981Z" fill="#2980B9"/>
<path opacity="0.8" d="M17.8008 22.6602H25.2908" stroke="#666BD1" stroke-linejoin="round"/>
<path opacity="0.8" d="M10.8008 22.6602H17.5408" stroke="#666BD1" stroke-linejoin="round"/>
<path d="M12.2695 53.4602C10.8995 53.4602 10.7695 53.3302 10.7695 51.9602V40.4602H18.0495V53.4602H12.2695Z" fill="#F0ECB6"/>
<path d="M17.5495 41V53H12.2695C11.9673 53.0154 11.6643 52.9884 11.3695 52.92C11.2707 52.624 11.2366 52.3103 11.2695 52V41H17.5495ZM18.5495 40H10.2695V52C10.2695 53.65 10.6195 54 12.2695 54H18.5495V40Z" fill="#C18F35"/>
<path d="M18 53.4602V40.4602H25.28V52.0002C25.28 53.3702 25.15 53.5002 23.78 53.5002L18 53.4602Z" fill="#F0ECB6"/>
<path d="M24.8191 41V52C24.834 52.3023 24.8071 52.6051 24.7391 52.9C24.4431 52.9988 24.1294 53.0329 23.8191 53H18.5391V41H24.8191ZM25.8191 40H17.5391V54H23.8191C25.4691 54 25.8191 53.65 25.8191 52V40Z" fill="#C18F35"/>
<path d="M10.7695 40.46V36C10.7695 34.63 10.8995 34.5 12.2695 34.5H18.0495V40.5L10.7695 40.46Z" fill="#ADDFF3"/>
<path d="M17.5495 35V40H11.2695V36C11.2546 35.6977 11.2815 35.3949 11.3495 35.1C11.6455 35.0012 11.9592 34.9671 12.2695 35H17.5495ZM18.5495 34H12.2695C10.6195 34 10.2695 34.35 10.2695 36V41H18.5495V34Z" fill="#2980B9"/>
<path d="M18 40.4602V34.4602H23.78C25.15 34.4602 25.28 34.5902 25.28 35.9602V40.4602H18Z" fill="#ADDFF3"/>
<path d="M23.8191 35C24.1213 34.9846 24.4242 35.0116 24.7191 35.08C24.8179 35.376 24.852 35.6897 24.8191 36V40H18.5391V35H23.8191ZM23.8191 34H17.5391V41H25.8191V36C25.8191 34.35 25.4691 34 23.8191 34Z" fill="#2980B9"/>
<path opacity="0.8" d="M17.8008 46.8098H25.2908" stroke="#C18F35" stroke-linejoin="round"/>
<path opacity="0.8" d="M10.8008 46.8098H17.5408" stroke="#C18F35" stroke-linejoin="round"/>
<path d="M56.6095 35.55C56.6202 35.148 56.6569 34.7472 56.7195 34.35C56.7618 34.0613 56.8495 33.7812 56.9795 33.52C57.0937 33.2981 57.2422 33.0956 57.4195 32.92C57.6014 32.7358 57.8105 32.5807 58.0395 32.46C58.2446 32.3516 58.4588 32.2612 58.6795 32.19C58.8753 32.1291 59.0761 32.0856 59.2795 32.06C59.4695 32.06 59.4695 31.96 59.2795 31.94C59.0761 31.9142 58.8753 31.8707 58.6795 31.81C58.4581 31.7405 58.2438 31.6501 58.0395 31.54C57.8105 31.4194 57.6013 31.2642 57.4195 31.08C57.2427 30.904 57.0942 30.7015 56.9795 30.48C56.8497 30.2187 56.7619 29.9386 56.7195 29.65C56.657 29.2528 56.6202 28.8519 56.6095 28.45C56.6095 27.98 57.1095 29.22 57.1895 29.63C57.256 30.0168 57.4175 30.381 57.6595 30.69C57.9305 31.0089 58.2732 31.259 58.6595 31.42C58.7587 31.482 58.8405 31.5682 58.8972 31.6706C58.9539 31.7729 58.9836 31.888 58.9836 32.005C58.9836 32.122 58.9539 32.237 58.8972 32.3394C58.8405 32.4417 58.7587 32.5279 58.6595 32.59C58.2734 32.7513 57.9308 33.0014 57.6595 33.32C57.4182 33.6294 57.2568 33.9934 57.1895 34.38C57.1095 34.78 56.5995 36 56.6095 35.55Z" fill="#34495E" stroke="#528D19" stroke-miterlimit="10"/>
<path d="M46.4499 21.4001H39.1699V34.4002H46.4499V21.4001Z" fill="#D3D4F3"/>
<path d="M45.9499 21.9001V33.9002H39.6699V21.9001H45.9499ZM46.9499 20.9001H38.6699V34.9002H46.9499V20.9001Z" fill="#666BD1"/>
<path d="M53.7195 21.4001H46.4395V34.4002H53.7195V21.4001Z" fill="#D3D4F3"/>
<path d="M53.2197 21.9001V33.9002H46.9297V21.9001H53.2097H53.2197ZM54.2097 20.9001H45.9297V34.9002H54.2097V20.9001Z" fill="#666BD1"/>
<path d="M39.1699 21.4001V16.9001C39.1699 15.5301 39.2999 15.4001 40.6699 15.4001H46.4499V21.4001H39.1699Z" fill="#ADDFF3"/>
<path d="M45.9499 15.9001V20.9001H39.6699V16.9001C39.6549 16.5979 39.6819 16.295 39.7499 16.0001C40.0459 15.9014 40.3596 15.8673 40.6699 15.9001H45.9499ZM46.9499 14.9001H40.6699C39.0199 14.9001 38.6699 15.2501 38.6699 16.9001V21.9001H46.9999V14.9001H46.9499Z" fill="#2980B9"/>
<path d="M46.4395 21.4001V15.4001H52.2195C53.5895 15.4001 53.7195 15.5301 53.7195 16.9001V21.4001H46.4395Z" fill="#ADDFF3"/>
<path d="M52.2195 15.9001C52.5217 15.8848 52.8246 15.9117 53.1195 15.9801C53.2182 16.2761 53.2524 16.5899 53.2195 16.9001V20.9001H46.9395V15.9001H52.2195ZM52.2195 14.9001H45.9395V21.9001H54.2195V16.9001C54.2195 15.2501 53.8695 14.9001 52.2195 14.9001Z" fill="#2980B9"/>
<path opacity="0.8" d="M46.1992 27.75H53.6892" stroke="#666BD1" stroke-linejoin="round"/>
<path opacity="0.8" d="M39.1992 27.75H45.9292" stroke="#666BD1" stroke-linejoin="round"/>
<path d="M40.6699 47.3801C39.2999 47.3801 39.1699 47.2501 39.1699 45.8801V34.3801H46.4499V47.3801H40.6699Z" fill="#F0ECB6"/>
<path d="M45.9499 34.8801V46.8801H40.6699C40.3677 46.8955 40.0647 46.8686 39.7699 46.8001C39.6711 46.5042 39.637 46.1904 39.6699 45.8801V34.8801H45.9499ZM46.9499 33.8801H38.6699V45.8801C38.6699 47.5301 39.0199 47.8801 40.6699 47.8801H46.9499V33.8801Z" fill="#C18F35"/>
<path d="M46.4395 47.3801V34.3801H53.7195V45.8801C53.7195 47.2501 53.5895 47.3801 52.2195 47.3801H46.4395Z" fill="#F0ECB6"/>
<path d="M53.2197 34.8801V45.8801C53.2347 46.1824 53.2077 46.4853 53.1397 46.7801C52.8437 46.8789 52.53 46.913 52.2197 46.8801H46.9297V34.8801H53.2097H53.2197ZM54.2097 33.8801H45.9297V47.8801H52.2097C53.8597 47.8801 54.2097 47.5301 54.2097 45.8801V33.8801Z" fill="#C18F35"/>
<path opacity="0.8" d="M46.1992 40.73H53.6892" stroke="#C18F35" stroke-linejoin="round"/>
<path opacity="0.8" d="M39.1992 40.73H45.9292" stroke="#C18F35" stroke-linejoin="round"/>
</svg>
