<svg width="64" height="64" viewBox="0 0 64 64" fill="none" xmlns="http://www.w3.org/2000/svg">
<path d="M9 53.3801C7.63 53.3801 7.5 53.2501 7.5 51.8801V40.3801H14.78V53.3801H9Z" fill="#F0ECB6"/>
<path d="M14.23 40.8801V52.8801H9C8.69774 52.8955 8.39481 52.8686 8.1 52.8001C8.00121 52.5041 7.96711 52.1904 8 51.8801V40.8801H14.28H14.23ZM15.28 39.8801H7V51.8801C7 53.5301 7.35 53.8801 9 53.8801H15.28V39.8801Z" fill="#C18F35"/>
<path d="M14.7207 53.3801V40.3801H22.0007V51.8801C22.0007 53.2501 21.8707 53.3801 20.5007 53.3801H14.7207Z" fill="#F0ECB6"/>
<path d="M21.5007 40.8801V51.8801C21.5157 52.1824 21.4888 52.4853 21.4207 52.7801C21.1247 52.8789 20.811 52.913 20.5007 52.8801H15.2207V40.8801H21.5007ZM22.5007 39.8801H14.2207V53.8801H20.5007C22.1507 53.8801 22.5007 53.5301 22.5007 51.8801V39.8801Z" fill="#C18F35"/>
<path d="M7.44922 40.3801V35.8801C7.44922 34.5101 7.57922 34.3801 8.94922 34.3801H14.7292V40.3801H7.44922Z" fill="#ADDFF3"/>
<path d="M14.23 34.8801V39.8801H8V35.8801C7.96047 35.5881 7.96047 35.2921 8 35.0001C8.29598 34.9014 8.60971 34.8673 8.92 34.9001H14.2L14.23 34.8801ZM15.2 33.9001H9C7.35 33.9001 7 34.2501 7 35.9001V40.9001H15.28V33.9001H15.2Z" fill="#2980B9"/>
<path d="M14.7207 40.3801V34.3801H20.5007C21.8707 34.3801 22.0007 34.5101 22.0007 35.8801V40.3801H14.7207Z" fill="#ADDFF3"/>
<path d="M20.5007 34.8801C20.803 34.8648 21.1059 34.8917 21.4007 34.9601C21.4995 35.2561 21.5336 35.5698 21.5007 35.8801V39.8801H15.2207V34.8801H20.5007ZM20.5007 33.8801H14.2207V40.8801H22.5007V35.8801C22.5007 34.2301 22.1507 33.8801 20.5007 33.8801Z" fill="#2980B9"/>
<path opacity="0.8" d="M14.4805 46.73H21.9705" stroke="#C18F35" stroke-linejoin="round"/>
<path opacity="0.8" d="M7.48047 46.73H14.2205" stroke="#C18F35" stroke-linejoin="round"/>
<path d="M43.5293 53.3801C42.1593 53.3801 42.0293 53.2501 42.0293 51.8801V40.3801H49.3093V53.3801H43.5293Z" fill="#F0ECB6"/>
<path d="M48.8093 40.8801V52.8801H43.5293C43.227 52.8955 42.9241 52.8686 42.6293 52.8001C42.5305 52.5041 42.4964 52.1904 42.5293 51.8801V40.8801H48.8093ZM49.8093 39.8801H41.5293V51.8801C41.5293 53.5301 41.8793 53.8801 43.5293 53.8801H49.8093V39.8801Z" fill="#C18F35"/>
<path d="M49.3008 53.3801V40.3801H56.5808V51.8801C56.5808 53.2501 56.4508 53.3801 55.0808 53.3801H49.3008Z" fill="#F0ECB6"/>
<path d="M56.0808 40.8801V51.8801C56.0958 52.1824 56.0688 52.4853 56.0008 52.7801C55.7048 52.8789 55.3911 52.913 55.0808 52.8801H49.8008V40.8801H56.0808ZM57.0808 39.8801H48.8008V53.8801H55.0808C56.7308 53.8801 57.0808 53.5301 57.0808 51.8801V39.8801Z" fill="#C18F35"/>
<path d="M42 40.3801V35.8801C42 34.5101 42.13 34.3801 43.5 34.3801H49.28V40.3801H42Z" fill="#ADDFF3"/>
<path d="M48.8093 34.8801V39.8801H42.5293V35.8801C42.5143 35.5779 42.5412 35.275 42.6093 34.9801C42.9053 34.8813 43.219 34.8472 43.5293 34.8801H48.8093ZM49.8093 33.8801H43.5293C41.8793 33.8801 41.5293 34.2301 41.5293 35.8801V40.8801H49.8093V33.8801Z" fill="#2980B9"/>
<path d="M49.3008 40.3801V34.3801H55.0808C56.4508 34.3801 56.5808 34.5101 56.5808 35.8801V40.3801H49.3008Z" fill="#ADDFF3"/>
<path d="M55.0808 34.8802C55.3916 34.876 55.7014 34.9164 56.0008 35.0002C56.0999 35.2961 56.134 35.6099 56.1008 35.9202V39.9202H49.8008V34.9202H55.0808V34.8802ZM55.0808 33.9202H48.8008V40.9202H57.0808V35.9202C57.0808 34.2702 56.7308 33.9202 55.0808 33.9202Z" fill="#2980B9"/>
<path opacity="0.8" d="M49.0605 46.73H56.5505" stroke="#C18F35" stroke-linejoin="round"/>
<path opacity="0.8" d="M42.0605 46.73H48.8005" stroke="#C18F35" stroke-linejoin="round"/>
<path fill-rule="evenodd" clip-rule="evenodd" d="M26.5 10.6301C25.9033 10.6301 25.331 10.8672 24.909 11.2891C24.4871 11.7111 24.25 12.2834 24.25 12.8801C24.25 13.2943 23.9142 13.6301 23.5 13.6301C23.0858 13.6301 22.75 13.2943 22.75 12.8801C22.75 11.8856 23.1451 10.9317 23.8483 10.2285C24.5516 9.52521 25.5054 9.13013 26.5 9.13013H37.5C38.4946 9.13013 39.4484 9.52521 40.1516 10.2285C40.8549 10.9317 41.25 11.8856 41.25 12.8801V24.8801C41.25 25.8747 40.8549 26.8285 40.1516 27.5318C39.4484 28.235 38.4946 28.6301 37.5 28.6301H26.5C25.5054 28.6301 24.5516 28.235 23.8483 27.5318C23.1451 26.8285 22.75 25.8747 22.75 24.8801V19.0001C22.75 18.5859 23.0858 18.2501 23.5 18.2501C23.9142 18.2501 24.25 18.5859 24.25 19.0001V24.8801C24.25 25.4769 24.4871 26.0492 24.909 26.4711C25.331 26.8931 25.9033 27.1301 26.5 27.1301H37.5C38.0967 27.1301 38.669 26.8931 39.091 26.4711C39.5129 26.0492 39.75 25.4769 39.75 24.8801V12.8801C39.75 12.2834 39.5129 11.7111 39.091 11.2891C38.669 10.8672 38.0967 10.6301 37.5 10.6301H26.5Z" fill="#666BD1"/>
<path d="M23.4995 16.54L21.2695 19.51H25.7295L23.4995 16.54Z" fill="#666BD1"/>
<path fill-rule="evenodd" clip-rule="evenodd" d="M27.8128 14.5335C27.772 14.7179 27.75 14.9844 27.75 15.3801C27.75 15.7943 27.4142 16.1301 27 16.1301C26.5858 16.1301 26.25 15.7943 26.25 15.3801C26.25 14.9509 26.2718 14.5548 26.3482 14.2095C26.4265 13.8557 26.5718 13.5102 26.8509 13.231C27.1301 12.9519 27.4756 12.8066 27.8294 12.7283C28.1747 12.6519 28.5707 12.6301 29 12.6301H35C35.4293 12.6301 35.8253 12.6519 36.1706 12.7283C36.5244 12.8066 36.8699 12.9519 37.1491 13.231C37.4282 13.5102 37.5735 13.8557 37.6518 14.2095C37.7282 14.5548 37.75 14.9509 37.75 15.3801V22.3801C37.75 22.8094 37.7282 23.2054 37.6518 23.5507C37.5735 23.9045 37.4282 24.2501 37.1491 24.5292C36.8699 24.8083 36.5244 24.9537 36.1706 25.0319C35.8253 25.1083 35.4293 25.1301 35 25.1301H29.25C28.8207 25.1301 28.4247 25.1083 28.0794 25.0319C27.7256 24.9537 27.3801 24.8083 27.1009 24.5292C26.8218 24.2501 26.6765 23.9045 26.5982 23.5507C26.5218 23.2054 26.5 22.8094 26.5 22.3801V19.7401C26.5 19.3259 26.8358 18.9901 27.25 18.9901C27.6642 18.9901 28 19.3259 28 19.7401V22.3801C28 22.7759 28.022 23.0423 28.0628 23.2267C28.1017 23.4026 28.147 23.4539 28.1616 23.4685C28.1762 23.4831 28.2275 23.5285 28.4034 23.5674C28.5878 23.6082 28.8543 23.6301 29.25 23.6301H35C35.3957 23.6301 35.6622 23.6082 35.8466 23.5674C36.0225 23.5285 36.0738 23.4831 36.0884 23.4685C36.103 23.4539 36.1483 23.4026 36.1872 23.2267C36.228 23.0423 36.25 22.7759 36.25 22.3801V15.3801C36.25 14.9844 36.228 14.7179 36.1872 14.5335C36.1483 14.3577 36.103 14.3063 36.0884 14.2917C36.0738 14.2771 36.0225 14.2318 35.8466 14.1929C35.6622 14.1521 35.3957 14.1301 35 14.1301H29C28.6043 14.1301 28.3378 14.1521 28.1534 14.1929C27.9775 14.2318 27.9262 14.2771 27.9116 14.2917C27.897 14.3063 27.8517 14.3577 27.8128 14.5335Z" fill="#8D8119"/>
<path d="M27.2202 18.55L25.2402 20.93H29.0002L27.2202 18.55Z" fill="#8D8119"/>
<path d="M40.9093 44.2002L37.5293 41.6702V46.7302L40.9093 44.2002Z" fill="#528D19"/>
<path fill-rule="evenodd" clip-rule="evenodd" d="M37.3055 41.2231C37.4748 41.1383 37.6774 41.1564 37.8289 41.2699L41.2089 43.7999C41.335 43.8943 41.4093 44.0426 41.4093 44.2002C41.4093 44.3577 41.335 44.506 41.2089 44.6005L37.8289 47.1305C37.6774 47.2439 37.4748 47.262 37.3055 47.1773C37.1362 47.0925 37.0293 46.9195 37.0293 46.7302V41.6702C37.0293 41.4809 37.1362 41.3078 37.3055 41.2231ZM38.0293 42.669V45.7314L40.0749 44.2002L38.0293 42.669Z" fill="#528D19"/>
<path fill-rule="evenodd" clip-rule="evenodd" d="M31.1406 44.2C31.1406 43.6477 31.5883 43.2 32.1406 43.2H39.2506C39.8029 43.2 40.2506 43.6477 40.2506 44.2C40.2506 44.7522 39.8029 45.2 39.2506 45.2H32.1406C31.5883 45.2 31.1406 44.7522 31.1406 44.2Z" fill="#528D19"/>
<path d="M23.2305 44.2002L26.6105 41.6702V46.7302L23.2305 44.2002Z" fill="#528D19"/>
<path fill-rule="evenodd" clip-rule="evenodd" d="M26.8343 41.2231C27.0036 41.3078 27.1105 41.4809 27.1105 41.6702V46.7302C27.1105 46.9195 27.0036 47.0925 26.8343 47.1773C26.665 47.262 26.4624 47.2439 26.3109 47.1305L22.9308 44.6005C22.8047 44.506 22.7305 44.3577 22.7305 44.2002C22.7305 44.0426 22.8047 43.8943 22.9308 43.7999L26.3109 41.2699C26.4624 41.1564 26.665 41.1383 26.8343 41.2231ZM24.0649 44.2002L26.1105 45.7314V42.669L24.0649 44.2002Z" fill="#528D19"/>
<path fill-rule="evenodd" clip-rule="evenodd" d="M23.9004 44.2C23.9004 43.6477 24.3481 43.2 24.9004 43.2H32.0004C32.5527 43.2 33.0004 43.6477 33.0004 44.2C33.0004 44.7522 32.5527 45.2 32.0004 45.2H24.9004C24.3481 45.2 23.9004 44.7522 23.9004 44.2Z" fill="#528D19"/>
<path fill-rule="evenodd" clip-rule="evenodd" d="M32 28.77C32.5523 28.77 33 29.2177 33 29.77V44.2C33 44.7523 32.5523 45.2 32 45.2C31.4477 45.2 31 44.7523 31 44.2V29.77C31 29.2177 31.4477 28.77 32 28.77Z" fill="#528D19"/>
</svg>
