<svg width="64" height="64" viewBox="0 0 64 64" fill="none" xmlns="http://www.w3.org/2000/svg">
<path d="M13.1895 50.9399C11.8195 50.9399 11.6895 50.8099 11.6895 49.4399V44.6399H22.9995V50.9399H13.1895Z" fill="#D3D4F3"/>
<path d="M22.4695 45.1399V50.4399H13.1895C12.8872 50.4553 12.5843 50.4283 12.2895 50.3599C12.1907 50.0639 12.1566 49.7502 12.1895 49.4399V45.1399H22.4695ZM23.4695 44.1399H11.1895V49.4399C11.1895 51.0899 11.5395 51.4399 13.1895 51.4399H23.4695V44.1399Z" fill="#666BD1"/>
<path d="M22.9695 38.3101H11.6895V44.6101H22.9695V38.3101Z" fill="#B6EEFF"/>
<path d="M22.4695 38.8101V44.1101H12.1895V38.8101H22.4695ZM23.4695 37.8101H11.1895V45.1101H23.4695V37.8101Z" fill="#0CC5FF"/>
<path d="M22.9695 31.97H11.6895V38.28H22.9695V31.97Z" fill="#C8FFAC"/>
<path d="M22.4695 32.47V37.77H12.1895V32.47H22.4695ZM23.4695 31.47H11.1895V38.77H23.4695V31.47Z" fill="#48D601"/>
<path d="M22.9695 25.6802H11.6895V31.9802H22.9695V25.6802Z" fill="#F0ECB6"/>
<path d="M22.4695 26.1802V31.4802H12.1895V26.1802H22.4695ZM23.4695 25.1802H11.1895V32.4802H23.4695V25.1802Z" fill="#C18F35"/>
<path d="M22.9695 19.3801H11.6895V25.6801H22.9695V19.3801Z" fill="#FFE7E7"/>
<path d="M22.4695 19.8801V25.1801H12.1895V19.8801H22.4695ZM23.4695 18.8801H11.1895V26.1801H23.4695V18.8801Z" fill="#FF3D3D"/>
<path d="M11.6895 19.3598V14.5598C11.6895 13.1898 11.9095 13.1198 12.7595 13.0698H21.8995C22.7495 13.0698 22.9695 13.1898 22.9695 14.5598V19.3598H11.6895Z" fill="#ADDFF3"/>
<path d="M21.8692 13.5601C22.038 13.5645 22.2057 13.588 22.3692 13.6301C22.4665 13.9264 22.5006 14.2398 22.4692 14.5501V18.8501H12.1892V14.5501C12.1714 14.2478 12.1983 13.9445 12.2692 13.6501C12.4346 13.5848 12.6116 13.5542 12.7892 13.5601H21.8692ZM23.4692 12.5601H12.7392C11.4892 12.6301 11.1992 13.0601 11.1992 14.5601V19.8601H23.4692V14.5601C23.4692 13.0801 23.1792 12.6501 21.9292 12.5601H23.4692Z" fill="#2980B9"/>
<path d="M17.5102 20.9302V24.2902H16.7402V20.9302H17.5102Z" fill="#34495E"/>
<path d="M19.3208 20.9302V24.2902H18.5508V20.9302H19.3208Z" fill="#34495E"/>
<path d="M15.6704 20.9302V24.2902H14.9004V20.9302H15.6704Z" fill="#34495E"/>
<path d="M17.5102 27.22V30.58H16.7402V27.22H17.5102Z" fill="#34495E"/>
<path d="M19.3208 27.22V30.58H18.5508V27.22H19.3208Z" fill="#34495E"/>
<path d="M21.0708 27.22V30.58H20.3008V27.22H21.0708Z" fill="#34495E"/>
<path d="M14.0005 27.22V30.58H13.2305V27.22H14.0005Z" fill="#34495E"/>
<path d="M15.6704 27.22V30.58H14.9004V27.22H15.6704Z" fill="#34495E"/>
<path d="M18.6509 39.78V43.14H17.8809V39.78H18.6509Z" fill="#34495E"/>
<path d="M20.4009 39.78V43.14H19.6309V39.78H20.4009Z" fill="#34495E"/>
<path d="M15.2309 39.78V43.14H14.4609V39.78H15.2309Z" fill="#34495E"/>
<path d="M16.8696 39.78V43.14H16.0996V39.78H16.8696Z" fill="#34495E"/>
<path d="M17.5102 33.5898V36.9498H16.7402V33.5898H17.5102Z" fill="#34495E"/>
<path d="M18.6509 46.1101V49.4701H17.8809V46.1101H18.6509Z" fill="#34495E"/>
<path d="M16.8696 46.1101V49.4701H16.0996V46.1101H16.8696Z" fill="#34495E"/>
<path d="M42.5293 50.9399C41.1593 50.9399 41.0293 50.8099 41.0293 49.4399V44.6399H52.3093V50.9399H42.5293Z" fill="#F0ECB6"/>
<path d="M51.8093 45.1399V50.4399H42.5293C42.227 50.4551 41.9241 50.4282 41.6293 50.3599C41.5305 50.0639 41.4964 49.7502 41.5293 49.4399V45.1399H51.8093ZM52.8093 44.1399H40.5293V49.4399C40.5293 51.0899 40.8793 51.4399 42.5293 51.4399H52.8093V44.1399Z" fill="#C18F35"/>
<path d="M52.3093 38.3101H41.0293V44.6101H52.3093V38.3101Z" fill="#B6EEFF"/>
<path d="M51.8093 38.8101V44.1101H41.5293V38.8101H51.8093ZM52.8093 37.8101H40.5293V45.1101H52.8093V37.8101Z" fill="#0CC5FF"/>
<path d="M52.3093 31.97H41.0293V38.28H52.3093V31.97Z" fill="#FFE7E7"/>
<path d="M51.8093 32.47V37.77H41.5293V32.47H51.8093ZM52.8093 31.47H40.5293V38.77H52.8093V31.47Z" fill="#FF3D3D"/>
<path d="M52.3093 25.6802H41.0293V31.9802H52.3093V25.6802Z" fill="#D3D4F3"/>
<path d="M51.8093 26.1802V31.4802H41.5293V26.1802H51.8093ZM52.8093 25.1802H40.5293V32.4802H52.8093V25.1802Z" fill="#666BD1"/>
<path d="M52.3093 19.3801H41.0293V25.6801H52.3093V19.3801Z" fill="#C8FFAC"/>
<path d="M51.8093 19.8801V25.1801H41.5293V19.8801H51.8093ZM52.8093 18.8801H40.5293V26.1801H52.8093V18.8801Z" fill="#48D601"/>
<path d="M41 19.3598V14.5598C41 13.1898 41.22 13.1198 42.07 13.0698H51.21C52.06 13.0698 52.28 13.1898 52.28 14.5598V19.3598H41Z" fill="#ADDFF3"/>
<path d="M51.2093 13.5601C51.3781 13.5645 51.5458 13.588 51.7093 13.6301C51.8066 13.9264 51.8407 14.2398 51.8093 14.5501V18.8501H41.5293V14.5501C41.5114 14.2478 41.5384 13.9445 41.6093 13.6501C41.7747 13.5848 41.9516 13.5542 42.1293 13.5601H51.2093ZM52.8093 12.5601H42.0693C40.8193 12.6301 40.5293 13.0601 40.5293 14.5601V19.8601H52.8093V14.5601C52.8093 13.0801 52.5193 12.6501 51.2693 12.5601H52.8093Z" fill="#2980B9"/>
<path d="M46.8403 33.4399V36.7999H46.0703V33.4399H46.8403Z" fill="#34495E"/>
<path d="M48.6606 33.4399V36.7999H47.8906V33.4399H48.6606Z" fill="#34495E"/>
<path d="M45.0005 33.4399V36.7999H44.2305V33.4399H45.0005Z" fill="#34495E"/>
<path d="M46.8403 46.1101V49.4701H46.0703V46.1101H46.8403Z" fill="#34495E"/>
<path d="M48.6606 46.1101V49.4701H47.8906V46.1101H48.6606Z" fill="#34495E"/>
<path d="M50.4106 46.1101V49.4701H49.6406V46.1101H50.4106Z" fill="#34495E"/>
<path d="M43.3598 46.1101V49.4701H42.5898V46.1101H43.3598Z" fill="#34495E"/>
<path d="M45.0005 46.1101V49.4701H44.2305V46.1101H45.0005Z" fill="#34495E"/>
<path d="M48.0005 39.78V43.14H47.2305V39.78H48.0005Z" fill="#34495E"/>
<path d="M49.73 39.78V43.14H49V39.78H49.73Z" fill="#34495E"/>
<path d="M44.5708 39.78V43.14H43.8008V39.78H44.5708Z" fill="#34495E"/>
<path d="M46.1997 39.78V43.14H45.4297V39.78H46.1997Z" fill="#34495E"/>
<path d="M46.8403 20.8499V24.2099H46.0703V20.8499H46.8403Z" fill="#34495E"/>
<path d="M47.73 27.22V30.58H47V27.22H47.73Z" fill="#34495E"/>
<path d="M46.0005 27.22V30.58H45.2305V27.22H46.0005Z" fill="#34495E"/>
<path d="M37.38 32L34 29.47V34.53L37.38 32Z" fill="#528D19"/>
<path fill-rule="evenodd" clip-rule="evenodd" d="M33.7762 29.0229C33.9455 28.9381 34.1481 28.9563 34.2996 29.0697L37.6796 31.5997C37.8057 31.6941 37.88 31.8424 37.88 32C37.88 32.1575 37.8057 32.3058 37.6796 32.4003L34.2996 34.9302C34.1481 35.0437 33.9455 35.0618 33.7762 34.9771C33.6069 34.8923 33.5 34.7193 33.5 34.53V29.47C33.5 29.2807 33.6069 29.1076 33.7762 29.0229ZM34.5 30.4688V33.5311L36.5456 32L34.5 30.4688Z" fill="#528D19"/>
<path fill-rule="evenodd" clip-rule="evenodd" d="M25.6191 32C25.6191 31.4477 26.0669 31 26.6191 31H33.7191C34.2714 31 34.7191 31.4477 34.7191 32C34.7191 32.5523 34.2714 33 33.7191 33H26.6191C26.0669 33 25.6191 32.5523 25.6191 32Z" fill="#528D19"/>
</svg>
