<svg width="64" height="64" viewBox="0 0 64 64" fill="none" xmlns="http://www.w3.org/2000/svg">
<path d="M18 57.46C16.63 57.46 16.5 57.33 16.5 55.96V15.52H57.5V56C57.5 57.37 57.37 57.5 56 57.5L18 57.46Z" fill="#F0ECB6"/>
<path d="M57 16V56C57.015 56.3023 56.9881 56.6051 56.92 56.9C56.624 56.9988 56.3103 57.0329 56 57H18C17.6977 57.0154 17.3948 56.9884 17.1 56.92C17.0012 56.624 16.9671 56.3103 17 56V16H57ZM58 15H16V56C16 57.65 16.35 58 18 58H56C57.65 58 58 57.65 58 56V15Z" fill="#C18F36"/>
<g opacity="0.8">
<path opacity="0.8" d="M24.6992 56.9502V15.9602" stroke="#C18F36" stroke-miterlimit="10"/>
<path opacity="0.8" d="M41.0996 56.9502V15.9602" stroke="#C18F36" stroke-miterlimit="10"/>
<path opacity="0.8" d="M32.9004 56.9502V15.9602" stroke="#C18F36" stroke-miterlimit="10"/>
<path opacity="0.8" d="M49.3008 56.9502V15.9602" stroke="#C18F36" stroke-miterlimit="10"/>
<path opacity="0.8" d="M17 23.9502H56.97" stroke="#C18F36" stroke-miterlimit="10"/>
<path opacity="0.8" d="M17 32.3201H56.97" stroke="#C18F36" stroke-miterlimit="10"/>
<path opacity="0.8" d="M17 40.6902H56.97" stroke="#C18F36" stroke-miterlimit="10"/>
<path opacity="0.8" d="M17 49.0603H56.97" stroke="#C18F36" stroke-miterlimit="10"/>
</g>
<path d="M49.3105 15.51V6.51001H56.0005C57.3705 6.51001 57.5005 6.64001 57.5005 8.01001V15.51H49.3105Z" fill="#ADDFF3"/>
<path d="M56.0005 7C56.3028 6.98463 56.6057 7.01156 56.9005 7.08C56.9993 7.37598 57.0334 7.68971 57.0005 8V15H49.8105V7H56.0005ZM56.0005 6H48.8105V16H58.0005V8C58.0005 6.35 57.6505 6 56.0005 6Z" fill="#2980B9"/>
<path d="M16.5098 15.51V8C16.5098 6.63 16.6398 6.5 18.0098 6.5H24.6998V15.5L16.5098 15.51Z" fill="#ADDFF3"/>
<path d="M24.2 7V15H17V8C16.985 7.69775 17.0119 7.39487 17.08 7.1C17.376 7.00121 17.6897 6.96711 18 7H24.2ZM25.2 6H18C16.35 6 16 6.35 16 8V16H25.2V6Z" fill="#2980B9"/>
<path d="M49.2896 6.51001H41.0996V15.51H49.2896V6.51001Z" fill="#ADDFF3"/>
<path d="M48.7894 7V15H41.5994V7H48.7794H48.7894ZM49.7794 6H40.6094V16H49.7994V6H49.7794Z" fill="#2980B9"/>
<path d="M41.1002 6.51001H32.9102V15.51H41.1002V6.51001Z" fill="#ADDFF3"/>
<path d="M40.5999 7V15H33.4099V7H40.5999ZM41.5999 6H32.4199V16H41.5999V6Z" fill="#2980B9"/>
<path d="M32.8907 6.51001H24.7207V15.51H32.8907V6.51001Z" fill="#ADDFF3"/>
<path d="M32.4007 7V15H25.2207V7H32.4007ZM33.4007 6H24.2207V16H33.4007V6Z" fill="#2980B9"/>
<path d="M14.9093 53.1001L11.5293 50.5701V55.6301L14.9093 53.1001Z" fill="#528D19"/>
<path fill-rule="evenodd" clip-rule="evenodd" d="M11.3055 50.123C11.4748 50.0382 11.6774 50.0564 11.8289 50.1698L15.2089 52.6998C15.335 52.7942 15.4093 52.9425 15.4093 53.1001C15.4093 53.2576 15.335 53.4059 15.2089 53.5004L11.8289 56.0304C11.6774 56.1438 11.4748 56.1619 11.3055 56.0772C11.1362 55.9924 11.0293 55.8194 11.0293 55.6301V50.5701C11.0293 50.3808 11.1362 50.2077 11.3055 50.123ZM12.0293 51.5689V54.6313L14.0749 53.1001L12.0293 51.5689Z" fill="#528D19"/>
<path fill-rule="evenodd" clip-rule="evenodd" d="M3.14062 53.1001C3.14062 52.5478 3.58834 52.1001 4.14062 52.1001H11.2506C11.8029 52.1001 12.2506 52.5478 12.2506 53.1001C12.2506 53.6524 11.8029 54.1001 11.2506 54.1001H4.14062C3.58834 54.1001 3.14062 53.6524 3.14062 53.1001Z" fill="#528D19"/>
<path d="M14.9093 36.29L11.5293 33.76V38.82L14.9093 36.29Z" fill="#528D19"/>
<path fill-rule="evenodd" clip-rule="evenodd" d="M11.3055 33.3129C11.4748 33.2282 11.6774 33.2463 11.8289 33.3597L15.2089 35.8897C15.335 35.9841 15.4093 36.1325 15.4093 36.29C15.4093 36.4476 15.335 36.5959 15.2089 36.6903L11.8289 39.2203C11.6774 39.3337 11.4748 39.3519 11.3055 39.2671C11.1362 39.1824 11.0293 39.0093 11.0293 38.82V33.76C11.0293 33.5707 11.1362 33.3976 11.3055 33.3129ZM12.0293 34.7588V37.8212L14.0749 36.29L12.0293 34.7588Z" fill="#528D19"/>
<path fill-rule="evenodd" clip-rule="evenodd" d="M3.14062 36.2898C3.14062 35.7375 3.58834 35.2898 4.14062 35.2898H11.2506C11.8029 35.2898 12.2506 35.7375 12.2506 36.2898C12.2506 36.8421 11.8029 37.2898 11.2506 37.2898H4.14062C3.58834 37.2898 3.14062 36.8421 3.14062 36.2898Z" fill="#528D19"/>
<path fill-rule="evenodd" clip-rule="evenodd" d="M4 14.6602C4.55228 14.6602 5 15.1079 5 15.6602V53.1002C5 53.6524 4.55228 54.1002 4 54.1002C3.44772 54.1002 3 53.6524 3 53.1002V15.6602C3 15.1079 3.44772 14.6602 4 14.6602Z" fill="#528D19"/>
<path d="M23.2102 33.77H17.9902V39.21H23.2102V33.77Z" fill="#34495E"/>
<path d="M23.2102 50.5701H17.9902V56.0101H23.2102V50.5701Z" fill="#34495E"/>
</svg>
