<svg width="64" height="64" viewBox="0 0 64 64" fill="none" xmlns="http://www.w3.org/2000/svg">
<g opacity="0.7">
<path opacity="0.7" d="M53.0098 35.5803H46.0098V42.5803H53.0098V35.5803Z" fill="#F0ECB6"/>
<path opacity="0.7" d="M52.5098 36.0803V42.0803H46.5098V36.0803H52.5098ZM53.5098 35.0803H45.5098V43.0803H53.5098V35.0803Z" fill="#C18F35"/>
<path opacity="0.7" d="M19.5098 49.5603C19.1119 49.5603 18.7304 49.4023 18.4491 49.121C18.1678 48.8397 18.0098 48.4581 18.0098 48.0603V42.5603H25.0098V49.5603H19.5098Z" fill="#F0ECB6"/>
<path opacity="0.7" d="M24.5098 43.0603V49.0603H19.5098C19.2445 49.0603 18.9902 48.9549 18.8027 48.7674C18.6151 48.5799 18.5098 48.3255 18.5098 48.0603V43.0603H24.5098ZM25.5098 42.0603H17.5098V48.0603C17.5098 48.5907 17.7205 49.0994 18.0956 49.4745C18.4706 49.8496 18.9793 50.0603 19.5098 50.0603H25.5098V42.0603Z" fill="#C18F35"/>
<path opacity="0.7" d="M32.0391 42.5603H25.0391V49.5603H32.0391V42.5603Z" fill="#F0ECB6"/>
<path opacity="0.7" d="M31.5391 43.0603V49.0603H25.5391V43.0603H31.5391ZM32.5391 42.0603H24.5391V50.0603H32.5391V42.0603Z" fill="#C18F35"/>
<path opacity="0.7" d="M39.0098 42.5603H32.0098V49.5603H39.0098V42.5603Z" fill="#F0ECB6"/>
<path opacity="0.7" d="M38.5098 43.0603V49.0603H32.5098V43.0603H38.5098ZM39.5098 42.0603H31.5098V50.0603H39.5098V42.0603Z" fill="#C18F35"/>
<path opacity="0.7" d="M46.0391 42.5603H39.0391V49.5603H46.0391V42.5603Z" fill="#F0ECB6"/>
<path opacity="0.7" d="M45.5391 43.0603V49.0603H39.5391V43.0603H45.5391ZM46.5391 42.0603H38.5391V50.0603H46.5391V42.0603Z" fill="#C18F35"/>
<path opacity="0.7" d="M46 49.5603V42.5603H53V48.0603C53 48.4581 52.842 48.8397 52.5607 49.121C52.2794 49.4023 51.8978 49.5603 51.5 49.5603H46Z" fill="#F0ECB6"/>
<path opacity="0.7" d="M52.5098 43.0603V48.0603C52.5098 48.3255 52.4044 48.5799 52.2169 48.7674C52.0293 48.9549 51.775 49.0603 51.5098 49.0603H46.5098V43.0603H52.5098ZM53.5098 42.0603H45.5098V50.0603H51.5098C52.0402 50.0603 52.5489 49.8496 52.924 49.4745C53.2991 49.0994 53.5098 48.5907 53.5098 48.0603V42.0603Z" fill="#C18F35"/>
<path opacity="0.7" d="M46 28.4302V21.4302H51.5C51.8978 21.4302 52.2794 21.5882 52.5607 21.8695C52.842 22.1508 53 22.5324 53 22.9302V28.4302H46Z" fill="#F0ECB6"/>
<path opacity="0.7" d="M51.5098 21.9302C51.775 21.9302 52.0293 22.0355 52.2169 22.2231C52.4044 22.4106 52.5098 22.665 52.5098 22.9302V27.9302H46.5098V21.9302H51.5098ZM51.5098 20.9302H45.5098V28.9302H53.5098V22.9302C53.5098 22.3997 53.2991 21.891 52.924 21.516C52.5489 21.1409 52.0402 20.9302 51.5098 20.9302Z" fill="#C18F35"/>
<path opacity="0.7" d="M53.0098 28.5H46.0098V35.5H53.0098V28.5Z" fill="#F0ECB6"/>
<path opacity="0.7" d="M52.5098 29V35H46.5098V29H52.5098ZM53.5098 28H45.5098V36H53.5098V28Z" fill="#C18F35"/>
</g>
<g opacity="0.7">
<path opacity="0.7" d="M17.9902 28.3601H10.9902V35.3601H17.9902V28.3601Z" fill="#D3D4F3"/>
<path opacity="0.7" d="M17.4902 28.8601V34.8601H11.4902V28.8601H17.4902ZM18.4902 27.8601H10.4902V35.8601H18.4902V27.8601Z" fill="#666BD1"/>
<path opacity="0.7" d="M12.4902 42.3601C12.0924 42.3601 11.7109 42.2021 11.4296 41.9208C11.1483 41.6395 10.9902 41.2579 10.9902 40.8601V35.3601H17.9902V42.3601H12.4902Z" fill="#D3D4F3"/>
<path opacity="0.7" d="M17.4902 35.8601V41.8601H12.4902C12.225 41.8601 11.9707 41.7548 11.7831 41.5672C11.5956 41.3797 11.4902 41.1253 11.4902 40.8601V35.8601H17.4902ZM18.4902 34.8601H10.4902V40.8601C10.4902 41.3905 10.7009 41.8992 11.076 42.2743C11.4511 42.6494 11.9598 42.8601 12.4902 42.8601H18.4902V34.8601Z" fill="#666BD1"/>
<path opacity="0.7" d="M17.9902 21.2798H10.9902V28.2798H17.9902V21.2798Z" fill="#D3D4F3"/>
<path opacity="0.7" d="M17.4902 21.7798V27.7798H11.4902V21.7798H17.4902ZM18.4902 20.7798H10.4902V28.7798H18.4902V20.7798Z" fill="#666BD1"/>
<path opacity="0.7" d="M11 21.4399V15.9399C11 15.5421 11.158 15.1606 11.4393 14.8793C11.7206 14.598 12.1022 14.4399 12.5 14.4399H18V21.4399H11Z" fill="#D3D4F3"/>
<path opacity="0.7" d="M17.4902 14.9399V20.9399H11.4902V15.9399C11.4902 15.6747 11.5956 15.4204 11.7831 15.2328C11.9707 15.0453 12.225 14.9399 12.4902 14.9399H17.4902ZM18.4902 13.9399H12.4902C11.9598 13.9399 11.4511 14.1507 11.076 14.5257C10.7009 14.9008 10.4902 15.4095 10.4902 15.9399V21.9399H18.4902V13.9399Z" fill="#666BD1"/>
<path opacity="0.7" d="M24.9609 14.4399H17.9609V21.4399H24.9609V14.4399Z" fill="#D3D4F3"/>
<path opacity="0.7" d="M24.4609 14.9399V20.9399H18.4609V14.9399H24.4609ZM25.4609 13.9399H17.4609V21.9399H25.4609V13.9399Z" fill="#666BD1"/>
<path opacity="0.7" d="M31.9902 14.4399H24.9902V21.4399H31.9902V14.4399Z" fill="#D3D4F3"/>
<path opacity="0.7" d="M31.4902 14.9399V20.9399H25.4902V14.9399H31.4902ZM32.4902 13.9399H24.4902V21.9399H32.4902V13.9399Z" fill="#666BD1"/>
<path opacity="0.7" d="M39.0098 14.4399H32.0098V21.4399H39.0098V14.4399Z" fill="#D3D4F3"/>
<path opacity="0.7" d="M38.5098 14.9399V20.9399H32.5098V14.9399H38.5098ZM39.5098 13.9399H31.5098V21.9399H39.5098V13.9399Z" fill="#666BD1"/>
<path opacity="0.7" d="M39 21.4399V14.4399H44.5C44.8978 14.4399 45.2794 14.598 45.5607 14.8793C45.842 15.1606 46 15.5421 46 15.9399V21.4399H39Z" fill="#D3D4F3"/>
<path opacity="0.7" d="M44.4902 14.9399C44.7555 14.9399 45.0098 15.0453 45.1973 15.2328C45.3849 15.4204 45.4902 15.6747 45.4902 15.9399V20.9399H39.4902V14.9399H44.4902ZM44.4902 13.9399H38.4902V21.9399H46.4902V15.9399C46.4902 15.4095 46.2795 14.9008 45.9045 14.5257C45.5294 14.1507 45.0207 13.9399 44.4902 13.9399Z" fill="#666BD1"/>
</g>
<path d="M25.0098 21.4302H18.0098V28.4302H25.0098V21.4302Z" fill="#ADDFF3"/>
<path d="M24.5098 21.9302V27.9302H18.5098V21.9302H24.5098ZM25.5098 20.9302H17.5098V28.9302H25.5098V20.9302Z" fill="#2980B9"/>
<path d="M32.0391 21.4302H25.0391V28.4302H32.0391V21.4302Z" fill="#ADDFF3"/>
<path d="M31.5391 21.9302V27.9302H25.5391V21.9302H31.5391ZM32.5391 20.9302H24.5391V28.9302H32.5391V20.9302Z" fill="#2980B9"/>
<path d="M46.0391 21.4302H39.0391V28.4302H46.0391V21.4302Z" fill="#ADDFF3"/>
<path d="M45.5391 21.9302V27.9302H39.5391V21.9302H45.5391ZM46.5391 20.9302H38.5391V28.9302H46.5391V20.9302Z" fill="#2980B9"/>
<path d="M46.0391 28.5H39.0391V35.5H46.0391V28.5Z" fill="#ADDFF3"/>
<path d="M45.5391 29V35H39.5391V29H45.5391ZM46.5391 28H38.5391V36H46.5391V28Z" fill="#2980B9"/>
<path d="M25.0098 35.5798H18.0098V42.5798H25.0098V35.5798Z" fill="#ADDFF3"/>
<path d="M24.5098 36.0798V42.0798H18.5098V36.0798H24.5098ZM25.5098 35.0798H17.5098V43.0798H25.5098V35.0798Z" fill="#2980B9"/>
<path d="M32.0391 35.5798H25.0391V42.5798H32.0391V35.5798Z" fill="#ADDFF3"/>
<path d="M31.5391 36.0798V42.0798H25.5391V36.0798H31.5391ZM32.5391 35.0798H24.5391V43.0798H32.5391V35.0798Z" fill="#2980B9"/>
<path d="M39.0098 35.5798H32.0098V42.5798H39.0098V35.5798Z" fill="#ADDFF3"/>
<path d="M38.5098 36.0798V42.0798H32.5098V36.0798H38.5098ZM39.5098 35.0798H31.5098V43.0798H39.5098V35.0798Z" fill="#2980B9"/>
<path d="M46.0391 35.5798H39.0391V42.5798H46.0391V35.5798Z" fill="#ADDFF3"/>
<path d="M45.5391 36.0798V42.0798H39.5391V36.0798H45.5391ZM46.5391 35.0798H38.5391V43.0798H46.5391V35.0798Z" fill="#2980B9"/>
<path d="M39.0098 21.4302H32.0098V28.4302H39.0098V21.4302Z" fill="#ADDFF3"/>
<path d="M38.5098 21.9302V27.9302H32.5098V21.9302H38.5098ZM39.5098 20.9302H31.5098V28.9302H39.5098V20.9302Z" fill="#2980B9"/>
<path d="M25.0098 28.5H18.0098V35.5H25.0098V28.5Z" fill="#ADDFF3"/>
<path d="M24.5098 29V35H18.5098V29H24.5098ZM25.5098 28H17.5098V36H25.5098V28Z" fill="#2980B9"/>
<path d="M32.0391 28.5H25.0391V35.5H32.0391V28.5Z" fill="#ADDFF3"/>
<path d="M31.5391 29V35H25.5391V29H31.5391ZM32.5391 28H24.5391V36H32.5391V28Z" fill="#2980B9"/>
<path d="M39.0098 28.5H32.0098V35.5H39.0098V28.5Z" fill="#ADDFF3"/>
<path d="M38.5098 29V35H32.5098V29H38.5098ZM39.5098 28H31.5098V36H39.5098V28Z" fill="#2980B9"/>
</svg>
