<svg width="64" height="64" viewBox="0 0 64 64" fill="none" xmlns="http://www.w3.org/2000/svg">
<path d="M9.06008 50.7799L5.58008 46.1399H12.5401L9.06008 50.7799Z" fill="#2980B9"/>
<path fill-rule="evenodd" clip-rule="evenodd" d="M5.13287 45.9163C5.21756 45.7469 5.39069 45.6399 5.58008 45.6399H12.5401C12.7295 45.6399 12.9026 45.7469 12.9873 45.9163C13.072 46.0857 13.0537 46.2884 12.9401 46.4399L9.46008 51.0799C9.36565 51.2058 9.21746 51.2799 9.06008 51.2799C8.9027 51.2799 8.75451 51.2058 8.66008 51.0799L5.18008 46.4399C5.06645 46.2884 5.04817 46.0857 5.13287 45.9163ZM6.58008 46.6399L9.06008 49.9466L11.5401 46.6399H6.58008Z" fill="#2980B9"/>
<path fill-rule="evenodd" clip-rule="evenodd" d="M9.06055 14.8C9.61283 14.8 10.0605 15.2478 10.0605 15.8V46.7701C10.0605 47.3223 9.61283 47.7701 9.06055 47.7701C8.50826 47.7701 8.06055 47.3223 8.06055 46.7701V15.8C8.06055 15.2478 8.50826 14.8 9.06055 14.8Z" fill="#2980B9"/>
<path d="M18.4297 57.47C17.0497 57.47 16.9297 57.35 16.9297 55.97V15.53H57.9297V56C57.9297 57.38 57.8097 57.5 56.4297 57.5L18.4297 57.47Z" fill="#F0ECB6"/>
<path d="M57.4102 16V56C57.4235 56.3017 57.4 56.604 57.3402 56.9C57.0412 57.0009 56.7237 57.035 56.4102 57H18.4102C18.1084 57.0152 17.8059 56.9916 17.5102 56.93C17.4093 56.631 17.3752 56.3136 17.4102 56V16H57.4102ZM58.4102 15H16.4102V56C16.4102 57.65 16.7602 58 18.4102 58H56.4102C58.0602 58 58.4102 57.65 58.4102 56V15Z" fill="#C18F36"/>
<g opacity="0.8">
<path opacity="0.8" d="M25.1309 56.97V15.97" stroke="#C18F36" stroke-miterlimit="10"/>
<path opacity="0.8" d="M41.5195 56.97V15.97" stroke="#C18F36" stroke-miterlimit="10"/>
<path opacity="0.8" d="M33.3203 56.97V15.97" stroke="#C18F36" stroke-miterlimit="10"/>
<path opacity="0.8" d="M49.7207 56.97V15.97" stroke="#C18F36" stroke-miterlimit="10"/>
<path opacity="0.8" d="M17.4199 23.97H57.3999" stroke="#C18F36" stroke-miterlimit="10"/>
<path opacity="0.8" d="M17.4199 32.3398H57.3999" stroke="#C18F36" stroke-miterlimit="10"/>
<path opacity="0.8" d="M17.4199 40.71H57.3999" stroke="#C18F36" stroke-miterlimit="10"/>
<path opacity="0.8" d="M17.4199 49.0801H57.3999" stroke="#C18F36" stroke-miterlimit="10"/>
</g>
<path d="M49.7305 15.53V6.53003H56.4205C57.7905 6.53003 57.9205 6.65003 57.9205 8.03003V15.53H49.7305Z" fill="#ADDFF3"/>
<path d="M56.4205 7C56.7222 6.98483 57.0247 7.00835 57.3205 7.07C57.4213 7.36898 57.4555 7.68642 57.4205 8V15H50.2305V7H56.4205ZM56.4205 6H49.2305V16H58.4205V8C58.4205 6.35 58.0705 6 56.4205 6Z" fill="#2980B9"/>
<path d="M16.9199 15.53V8C16.9199 6.62 17.0499 6.5 18.4199 6.5H25.1199V15.5L16.9199 15.53Z" fill="#ADDFF3"/>
<path d="M24.6199 7V15H17.4199V8C17.4036 7.69772 17.4306 7.39466 17.4999 7.1C17.7952 6.998 18.1096 6.96382 18.4199 7H24.6199ZM25.6199 6H18.4199C16.7699 6 16.4199 6.35 16.4199 8V16H25.6199V6Z" fill="#2980B9"/>
<path d="M49.7095 6.53003H41.5195V15.53H49.7095V6.53003Z" fill="#ADDFF3"/>
<path d="M49.21 7V15H42V7H49.19H49.21ZM50.19 6H41V16H50.19V6Z" fill="#2980B9"/>
<path d="M41.5201 6.53003H33.3301V15.53H41.5201V6.53003Z" fill="#ADDFF3"/>
<path d="M41.0001 7V15H33.8301V7H41.0001ZM42.0001 6H32.8301V16H42.0001V6Z" fill="#2980B9"/>
<path d="M33.3106 6.53003H25.1406V15.53H33.3106V6.53003Z" fill="#ADDFF3"/>
<path d="M32.8106 7V15H25.6406V7H32.8106ZM33.8106 6H24.6406V16H33.8106V6Z" fill="#2980B9"/>
</svg>
