<svg width="64" height="64" viewBox="0 0 64 64" fill="none" xmlns="http://www.w3.org/2000/svg">
<path d="M35.4707 50.6902C25.9007 50.6902 19.4707 47.8502 19.4707 45.1902C19.4707 42.5302 25.9007 39.6902 35.4707 39.6902C45.0407 39.6902 51.4707 42.5302 51.4707 45.1902C51.4707 47.8502 45.0007 50.6902 35.4707 50.6902Z" fill="#E6E6E6"/>
<path d="M35.47 40.1902C44.34 40.1902 50.97 42.8302 50.97 45.1902C50.97 47.5502 44.34 50.1902 35.47 50.1902C26.6 50.1902 20 47.5502 20 45.1902C20 42.8302 26.63 40.1902 35.5 40.1902H35.47ZM35.5 39.1902C26.39 39.1902 19 41.8802 19 45.1902C19 48.5002 26.39 51.1902 35.5 51.1902C44.61 51.1902 52 48.5002 52 45.1902C52 41.8802 44.61 39.1902 35.5 39.1902Z" fill="#818181"/>
<path d="M35.4707 46.28C25.9007 46.28 19.4707 43.44 19.4707 40.78C19.4707 38.12 25.9007 35.28 35.4707 35.28C45.0407 35.28 51.4707 38.12 51.4707 40.78C51.4707 43.44 45.0007 46.28 35.4707 46.28Z" fill="#E6E6E6"/>
<path d="M35.47 35.78C44.34 35.78 50.97 38.42 50.97 40.78C50.97 43.14 44.34 45.78 35.47 45.78C26.6 45.78 20 43.14 20 40.78C20 38.42 26.63 35.78 35.5 35.78H35.47ZM35.5 34.78C26.39 34.78 19 37.47 19 40.78C19 44.09 26.39 46.78 35.5 46.78C44.61 46.78 52 44.09 52 40.78C52 37.47 44.61 34.78 35.5 34.78Z" fill="#818181"/>
<path d="M35.4707 42C25.9007 42 19.4707 39.16 19.4707 36.5C19.4707 33.84 25.9007 31 35.4707 31C45.0407 31 51.4707 33.84 51.4707 36.5C51.4707 39.16 45.0007 42 35.4707 42Z" fill="#E6E6E6"/>
<path d="M35.47 31.46C44.34 31.46 50.97 34.1 50.97 36.46C50.97 38.82 44.34 41.46 35.47 41.46C26.6 41.46 20 38.83 20 36.46C20 34.09 26.63 31.46 35.5 31.46H35.47ZM35.5 30.46C26.39 30.46 19 33.15 19 36.46C19 39.77 26.39 42.46 35.5 42.46C44.61 42.46 52 39.77 52 36.46C52 33.15 44.61 30.46 35.5 30.46Z" fill="#818181"/>
<path d="M35.4707 37.52C25.9007 37.52 19.4707 34.68 19.4707 32.02C19.4707 29.36 25.9007 26.52 35.4707 26.52C45.0407 26.52 51.4707 29.36 51.4707 32.02C51.4707 34.68 45.0007 37.52 35.4707 37.52Z" fill="#E6E6E6"/>
<path d="M35.47 27C44.34 27 51 29.66 51 32C51 34.34 44.37 37 35.5 37C26.63 37 20 34.38 20 32C20 29.62 26.63 27 35.5 27H35.47ZM35.5 26C26.36 26 19 28.7 19 32C19 35.3 26.39 38 35.5 38C44.61 38 52 35.33 52 32C52 28.67 44.61 26 35.5 26Z" fill="#818181"/>
<path d="M35.4707 32.6902C25.9007 32.6902 19.4707 29.8502 19.4707 27.1902C19.4707 24.5302 25.9007 21.6902 35.4707 21.6902C45.0407 21.6902 51.4707 24.5302 51.4707 27.1902C51.4707 29.8502 45.0007 32.6902 35.4707 32.6902Z" fill="#E6E6E6"/>
<path d="M35.47 22.1902C44.34 22.1902 50.97 24.8302 50.97 27.1902C50.97 29.5502 44.34 32.1902 35.47 32.1902C26.6 32.1902 20 29.5502 20 27.1902C20 24.8302 26.63 22.1902 35.5 22.1902H35.47ZM35.5 21.1902C26.39 21.1902 19 23.8802 19 27.1902C19 30.5002 26.39 33.1902 35.5 33.1902C44.61 33.1902 52 30.5002 52 27.1902C52 23.8802 44.61 21.1902 35.5 21.1902Z" fill="#818181"/>
<path d="M19.5508 26.6902C20.2808 24.2402 26.2708 21.7802 34.9808 21.6902V26.6902H19.5508Z" fill="#FBE65A"/>
<path d="M34.4707 22.2V26.2H20.3507C21.8107 24.2 27.3507 22.37 34.4707 22.2ZM35.4707 21.2C26.3607 21.2 18.9707 23.89 18.9707 27.2H35.4707V21.2Z" fill="#C4953B"/>
<path fill-rule="evenodd" clip-rule="evenodd" d="M20.8515 16.9121C16.8963 19.1061 13.8403 22.2709 12.7216 26.2052C12.6083 26.6036 12.1935 26.8347 11.7951 26.7214C11.3966 26.6082 11.1655 26.1933 11.2788 25.7949C12.5401 21.3592 15.9441 17.919 20.1239 15.6004C24.3068 13.2802 29.3377 12.04 34.0002 12.04C34.4144 12.04 34.7502 12.3758 34.7502 12.79C34.7502 13.2043 34.4144 13.54 34.0002 13.54C29.5827 13.54 24.8036 14.7199 20.8515 16.9121Z" fill="#2980B9"/>
<path d="M40.4004 12.8098C37.1482 13.9754 34.1082 15.6643 31.4004 17.8098L33.2104 12.8098L31.4004 7.80981C34.1079 9.95578 37.148 11.6447 40.4004 12.8098Z" fill="#2980B9"/>
</svg>
