<svg width="64" height="64" viewBox="0 0 64 64" fill="none" xmlns="http://www.w3.org/2000/svg">
<path d="M22.8496 49C21.4796 49 21.3496 48.88 21.3496 47.5V24H54.1396V47.47C54.1396 48.85 54.0096 48.97 52.6396 48.97L22.8496 49Z" fill="#F3C7D7"/>
<path d="M53.6396 24.53V47.47C53.6559 47.7723 53.629 48.0754 53.5596 48.37C53.5596 48.37 53.3696 48.47 52.6396 48.47H22.8496C22.5645 48.4826 22.2789 48.4591 21.9996 48.4C21.9056 48.0996 21.8716 47.7836 21.8996 47.47V24.53H53.6396ZM54.6396 23.53H20.8496V47.47C20.8496 49.12 21.1996 49.47 22.8496 49.47H52.6396C54.2896 49.47 54.6396 49.12 54.6396 47.47V23.53Z" fill="#D04465"/>
<g opacity="0.5">
<path opacity="0.5" d="M37.75 48.47V24.47" stroke="#D04465" stroke-linejoin="round"/>
<path opacity="0.5" d="M29.5488 48.47V24.47" stroke="#D04465" stroke-linejoin="round"/>
<path opacity="0.5" d="M45.9492 48.47V24.47" stroke="#D04465" stroke-linejoin="round"/>
<path opacity="0.5" d="M21.8496 32.47H53.6196" stroke="#D04465" stroke-linejoin="round"/>
<path opacity="0.5" d="M21.8496 40.8398H53.6196" stroke="#D04465" stroke-linejoin="round"/>
</g>
<path d="M46 24V15H52.69C54.07 15 54.19 15.12 54.19 16.5V24H46Z" fill="#ADDFF3"/>
<path d="M52.6392 15.53C52.941 15.5137 53.2436 15.5373 53.5392 15.6C53.6401 15.899 53.6742 16.2164 53.6392 16.53V23.53H46.4492V15.53H52.6392ZM52.6392 14.53H45.4492V24.53H54.6392V16.53C54.6392 14.88 54.2892 14.53 52.6392 14.53Z" fill="#2980B9"/>
<path d="M21.3496 24V16.5C21.3496 15.12 21.4796 15 22.8496 15H29.5396V24H21.3496Z" fill="#ADDFF3"/>
<path d="M28.9996 15.53V23.53H21.8496V16.53C21.8255 16.2277 21.8526 15.9234 21.9296 15.63C21.9296 15.63 22.1196 15.53 22.8496 15.53H28.9996ZM29.9996 14.53H22.8496C21.1996 14.53 20.8496 14.88 20.8496 16.53V24.53H29.9996V14.53Z" fill="#2980B9"/>
<path d="M45.94 15.03H37.75V24.03H45.94V15.03Z" fill="#ADDFF3"/>
<path d="M45.43 15.53V23.53H38.24V15.53H45.42H45.43ZM46.42 14.53H37.25V24.53H46.44V14.53H46.42Z" fill="#2980B9"/>
<path d="M37.7505 15.03H29.5605V24.03H37.7505V15.03Z" fill="#ADDFF3"/>
<path d="M37.2405 15.53V23.53H30.0505V15.53H37.2305H37.2405ZM38.2305 14.53H29.0605V24.53H38.2505V14.53H38.2305Z" fill="#2980B9"/>
<path d="M12.8294 47.38L9.35938 42.73H16.3094L12.8294 47.38Z" fill="#2980B9"/>
<path fill-rule="evenodd" clip-rule="evenodd" d="M8.91243 42.5058C8.99724 42.3367 9.17021 42.23 9.35938 42.23H16.3094C16.4987 42.23 16.6717 42.3369 16.7565 42.5061C16.8412 42.6754 16.8231 42.878 16.7097 43.0296L13.2297 47.6796C13.1352 47.8058 12.9867 47.8801 12.829 47.88C12.6714 47.8799 12.523 47.8054 12.4287 47.679L8.95865 43.029C8.84552 42.8774 8.82763 42.6749 8.91243 42.5058ZM10.3564 43.23L12.83 46.5447L15.3107 43.23H10.3564Z" fill="#2980B9"/>
<path fill-rule="evenodd" clip-rule="evenodd" d="M12.8301 15.3901C13.3824 15.3901 13.8301 15.8379 13.8301 16.3901V43.3601C13.8301 43.9124 13.3824 44.3601 12.8301 44.3601C12.2778 44.3601 11.8301 43.9124 11.8301 43.3601V16.3901C11.8301 15.8379 12.2778 15.3901 12.8301 15.3901Z" fill="#2980B9"/>
</svg>
