<svg width="64" height="64" viewBox="0 0 64 64" fill="none" xmlns="http://www.w3.org/2000/svg">
<path d="M48.7808 17.26H41.8008C40.9724 17.26 40.3008 17.9316 40.3008 18.76V21.45C40.3008 22.2784 40.9724 22.95 41.8008 22.95H48.7808C49.6092 22.95 50.2808 22.2784 50.2808 21.45V18.76C50.2808 17.9316 49.6092 17.26 48.7808 17.26Z" fill="#F0ECB6"/>
<path d="M48.7891 17.76C49.0913 17.7446 49.3943 17.7716 49.6891 17.84C49.7879 18.136 49.822 18.4497 49.7891 18.76V21.45C49.804 21.7523 49.7771 22.0551 49.7091 22.35C49.4131 22.4488 49.0994 22.4829 48.7891 22.45H41.7891C41.4868 22.4654 41.1839 22.4384 40.8891 22.37C40.7903 22.074 40.7562 21.7603 40.7891 21.45V18.76C40.7741 18.4578 40.801 18.1549 40.8691 17.86C41.165 17.7612 41.4788 17.7271 41.7891 17.76H48.7891ZM48.7891 16.76H41.7891C40.1391 16.76 39.7891 17.11 39.7891 18.76V21.45C39.7891 23.1 40.1391 23.45 41.7891 23.45H48.7891C50.4391 23.45 50.7891 23.1 50.7891 21.45V18.76C50.7891 17.11 50.4391 16.76 48.7891 16.76Z" fill="#C18F35"/>
<path d="M22.1909 10.76H15.2109C14.3825 10.76 13.7109 11.4316 13.7109 12.26V27.95C13.7109 28.7784 14.3825 29.45 15.2109 29.45H22.1909C23.0194 29.45 23.6909 28.7784 23.6909 27.95V12.26C23.6909 11.4316 23.0194 10.76 22.1909 10.76Z" fill="#F0ECB6"/>
<path d="M22.1992 11.26C22.5015 11.2446 22.8044 11.2716 23.0992 11.34C23.198 11.636 23.2321 11.9497 23.1992 12.26V27.95C23.2142 28.2523 23.1873 28.5551 23.1192 28.85C22.8232 28.9488 22.5095 28.9829 22.1992 28.95H15.1992C14.897 28.9654 14.594 28.9384 14.2992 28.87C14.2004 28.574 14.1663 28.2603 14.1992 27.95V12.26C14.1842 11.9578 14.2112 11.6549 14.2792 11.36C14.5752 11.2612 14.8889 11.2271 15.1992 11.26H22.1992ZM22.1992 10.26H15.1992C13.5492 10.26 13.1992 10.61 13.1992 12.26V27.95C13.1992 29.6 13.5492 29.95 15.1992 29.95H22.1992C23.8492 29.95 24.1992 29.6 24.1992 27.95V12.26C24.1992 10.61 23.8492 10.26 22.1992 10.26Z" fill="#C18F35"/>
<path opacity="0.8" fill-rule="evenodd" clip-rule="evenodd" d="M23.3396 17.6702H14.0996V16.6702H23.3396V17.6702Z" fill="#C18F35"/>
<path opacity="0.8" fill-rule="evenodd" clip-rule="evenodd" d="M23.3396 23.9001H14.0996V22.9001H23.3396V23.9001Z" fill="#C18F35"/>
<path d="M28.8703 27.47C29.5815 27.4806 30.2848 27.3194 30.9203 27C31.3786 26.7358 31.7529 26.3476 32.0003 25.88C32.2279 25.4456 32.364 24.9691 32.4003 24.48C32.4003 23.98 32.4703 24.12 32.4903 23.65C32.5009 23.2481 32.5377 22.8472 32.6003 22.45C32.6426 22.1614 32.7303 21.8812 32.8603 21.62C32.9745 21.3981 33.123 21.1956 33.3003 21.02C33.4822 20.8359 33.6913 20.6808 33.9203 20.56C34.1254 20.4517 34.3396 20.3613 34.5603 20.29C34.7561 20.2292 34.9569 20.1857 35.1603 20.16C35.3503 20.16 35.3503 20.06 35.1603 20.04C34.9569 20.0143 34.7561 19.9708 34.5603 19.91C34.3389 19.8406 34.1246 19.7502 33.9203 19.64C33.6912 19.5195 33.4821 19.3643 33.3003 19.18C33.1235 19.004 32.975 18.8016 32.8603 18.58C32.7305 18.3188 32.6427 18.0387 32.6003 17.75C32.5378 17.3528 32.501 16.952 32.4903 16.55C32.4903 16.08 32.4903 16.22 32.4003 15.72C32.3643 15.2309 32.2281 14.7544 32.0003 14.32C31.752 13.8702 31.3854 13.4968 30.9403 13.24C30.3075 12.9087 29.6046 12.7338 28.8903 12.73V12.3H29.4203C29.6463 12.3182 29.8704 12.355 30.0903 12.41C30.3357 12.4689 30.5763 12.5457 30.8103 12.64C31.0618 12.7431 31.2974 12.8812 31.5103 13.05C31.8401 13.2963 32.1215 13.6015 32.3403 13.95C32.5393 14.2818 32.6844 14.6429 32.7703 15.02C32.8635 15.4442 32.9171 15.876 32.9303 16.31C32.9303 16.78 32.9303 16.19 32.9303 16.19C32.9225 16.6927 32.9627 17.195 33.0503 17.69C33.1168 18.0768 33.2783 18.4411 33.5203 18.75C33.7913 19.0689 34.134 19.3191 34.5203 19.48C34.6195 19.5421 34.7013 19.6283 34.758 19.7307C34.8147 19.833 34.8444 19.9481 34.8444 20.065C34.8444 20.182 34.8147 20.2971 34.758 20.3994C34.7013 20.5018 34.6195 20.588 34.5203 20.65C34.1342 20.8113 33.7916 21.0614 33.5203 21.38C33.2565 21.6929 33.0775 22.0682 33.0003 22.47C32.9127 22.9651 32.8725 23.4674 32.8803 23.97C32.8803 23.97 32.7903 24.75 32.7003 25.14C32.6146 25.5172 32.4694 25.8784 32.2703 26.21C32.052 26.559 31.7705 26.8643 31.4403 27.11C31.2273 27.2788 30.9917 27.4169 30.7403 27.52C30.506 27.6135 30.2654 27.6903 30.0203 27.75C29.8002 27.8042 29.5762 27.8409 29.3503 27.86H28.8203L28.8703 27.47Z" fill="#34495E" stroke="#528D19" stroke-miterlimit="10"/>
<path d="M48.7808 41.05H41.8008C40.9724 41.05 40.3008 41.7216 40.3008 42.55V45.2401C40.3008 46.0685 40.9724 46.7401 41.8008 46.7401H48.7808C49.6092 46.7401 50.2808 46.0685 50.2808 45.2401V42.55C50.2808 41.7216 49.6092 41.05 48.7808 41.05Z" fill="#D3D4F3"/>
<path d="M48.7891 41.55C49.0913 41.5347 49.3943 41.5616 49.6891 41.6301C49.7882 41.926 49.8223 42.2398 49.7891 42.5501V45.2401C49.804 45.5423 49.7771 45.8452 49.7091 46.1401C49.4131 46.2388 49.0994 46.2729 48.7891 46.2401H41.7891C41.4868 46.2554 41.1839 46.2285 40.8891 46.1601C40.7903 45.8641 40.7562 45.5503 40.7891 45.2401V42.5501C40.7741 42.2478 40.801 41.9449 40.8691 41.6501C41.165 41.5513 41.4788 41.5172 41.7891 41.55H48.7891ZM48.7891 40.55H41.7891C40.1391 40.55 39.7891 40.9 39.7891 42.5501V45.2401C39.7891 46.8901 40.1391 47.2401 41.7891 47.2401H48.7891C50.4391 47.2401 50.7891 46.8901 50.7891 45.2401V42.5501C50.7891 40.9 50.4391 40.55 48.7891 40.55Z" fill="#666BD1"/>
<path d="M22.2691 34.55H15.2891C14.4606 34.55 13.7891 35.2216 13.7891 36.05V51.7401C13.7891 52.5685 14.4606 53.2401 15.2891 53.2401H22.2691C23.0975 53.2401 23.7691 52.5685 23.7691 51.7401V36.05C23.7691 35.2216 23.0975 34.55 22.2691 34.55Z" fill="#D3D4F3"/>
<path d="M22.2793 35.05C22.5816 35.0347 22.8845 35.0616 23.1793 35.1301C23.2784 35.426 23.3125 35.7398 23.2793 36.05V51.7401C23.2943 52.0423 23.2674 52.3452 23.1993 52.64C22.9033 52.7388 22.5896 52.7729 22.2793 52.7401H15.2793C14.977 52.7554 14.6741 52.7285 14.3793 52.66C14.2805 52.3641 14.2464 52.0503 14.2793 51.7401V36.05C14.2643 35.7478 14.2912 35.4449 14.3593 35.1501C14.6553 35.0513 14.969 35.0172 15.2793 35.05H22.2793ZM22.2793 34.05H15.2793C13.6293 34.05 13.2793 34.4 13.2793 36.05V51.7401C13.2793 53.3901 13.6293 53.7401 15.2793 53.7401H22.2793C23.9293 53.7401 24.2793 53.3901 24.2793 51.7401V36.05C24.2793 34.4 23.9293 34.05 22.2793 34.05Z" fill="#666BD1"/>
<path opacity="0.8" fill-rule="evenodd" clip-rule="evenodd" d="M23.4197 41.47H14.1797V40.47H23.4197V41.47Z" fill="#666BD1"/>
<path opacity="0.8" fill-rule="evenodd" clip-rule="evenodd" d="M23.4197 47.7H14.1797V46.7H23.4197V47.7Z" fill="#666BD1"/>
<path d="M28.8691 51.2599C29.5837 51.2581 30.2871 51.0831 30.9191 50.7499C31.3719 50.4965 31.7458 50.1227 31.9991 49.6699C32.2267 49.2354 32.3628 48.759 32.3991 48.2699C32.3991 47.7699 32.4691 47.9099 32.4891 47.4399C32.4998 47.0379 32.5365 46.6371 32.5991 46.2399C32.6414 45.9512 32.7291 45.671 32.8591 45.4099C32.9733 45.1879 33.1218 44.9854 33.2991 44.8099C33.4811 44.6257 33.6902 44.4706 33.9191 44.3499C34.1242 44.2415 34.3384 44.1511 34.5591 44.0799C34.7549 44.019 34.9557 43.9755 35.1591 43.9499C35.3491 43.9499 35.3491 43.8499 35.1591 43.8299C34.9557 43.8041 34.755 43.7606 34.5591 43.6999C34.3377 43.6304 34.1234 43.54 33.9191 43.4299C33.6901 43.3093 33.481 43.1541 33.2991 42.9699C33.1223 42.7938 32.9739 42.5914 32.8591 42.3699C32.7293 42.1086 32.6416 41.8285 32.5991 41.5399C32.5366 41.1427 32.4999 40.7418 32.4891 40.3399C32.4891 39.8699 32.4891 40.0099 32.3991 39.5099C32.3631 39.0207 32.227 38.5442 31.9991 38.1099C31.7498 37.6463 31.3757 37.2618 30.9191 36.9999C30.2864 36.6685 29.5834 36.4936 28.8691 36.4899V36.0999H29.3991C29.6251 36.118 29.8492 36.1548 30.0691 36.2099C30.3145 36.2687 30.5551 36.3456 30.7891 36.4399C31.0406 36.5429 31.2762 36.681 31.4891 36.8499C31.8189 37.0962 32.1003 37.4013 32.3191 37.7499C32.5181 38.0816 32.6632 38.4427 32.7491 38.8199C32.8424 39.244 32.8959 39.6758 32.9091 40.1099C32.9091 40.5799 32.9091 39.9899 32.9091 39.9899C32.9013 40.4925 32.9415 40.9948 33.0291 41.4899C33.0956 41.8767 33.2571 42.2409 33.4991 42.5499C33.7702 42.8687 34.1128 43.1189 34.4991 43.2799C34.5983 43.3419 34.6801 43.4281 34.7368 43.5305C34.7935 43.6328 34.8232 43.7479 34.8232 43.8649C34.8232 43.9819 34.7935 44.0969 34.7368 44.1992C34.6801 44.3016 34.5983 44.3878 34.4991 44.4499C34.113 44.6112 33.7704 44.8613 33.4991 45.1799C33.2425 45.4948 33.0705 45.8699 32.9991 46.2699C32.9115 46.7649 32.8713 47.2672 32.8791 47.7699C32.8791 47.7699 32.7891 48.5499 32.6991 48.9399C32.6281 49.3107 32.4999 49.6683 32.3191 49.9999C32.1008 50.3489 31.8194 50.6541 31.4891 50.8999C31.2762 51.0687 31.0405 51.2067 30.7891 51.3099C30.5548 51.4033 30.3142 51.4801 30.0691 51.5399C29.849 51.594 29.625 51.6307 29.3991 51.6499H28.8691V51.2599Z" fill="#34495E" stroke="#528D19" stroke-miterlimit="10"/>
<path opacity="0.5" fill-rule="evenodd" clip-rule="evenodd" d="M23.6814 10.3225C24.0501 10.5111 24.1961 10.963 24.0075 11.3318L14.7675 29.3918C14.5788 29.7605 14.1269 29.9065 13.7582 29.7178C13.3894 29.5292 13.2434 29.0773 13.4321 28.7085L22.6721 10.6485C22.8607 10.2798 23.3126 10.1338 23.6814 10.3225Z" fill="#CC0000"/>
<path opacity="0.5" fill-rule="evenodd" clip-rule="evenodd" d="M23.7616 34.2024C24.1303 34.3912 24.2762 34.8431 24.0875 35.2118L14.8475 53.2618C14.6587 53.6305 14.2068 53.7764 13.8381 53.5876C13.4694 53.3989 13.3235 52.947 13.5122 52.5783L22.7522 34.5283C22.941 34.1596 23.3929 34.0137 23.7616 34.2024Z" fill="#CC0000"/>
</svg>
