<svg width="64" height="64" viewBox="0 0 64 64" fill="none" xmlns="http://www.w3.org/2000/svg">
<path d="M25.98 14.1702H22C21.1716 14.1702 20.5 14.8417 20.5 15.6702V18.3602C20.5 19.1886 21.1716 19.8602 22 19.8602H25.98C26.8084 19.8602 27.48 19.1886 27.48 18.3602V15.6702C27.48 14.8417 26.8084 14.1702 25.98 14.1702Z" fill="#F0ECB6"/>
<path d="M26 14.6702C26.3023 14.6548 26.6052 14.6817 26.9 14.7502C26.9988 15.0461 27.0329 15.3599 27 15.6702V18.3602C27.015 18.6624 26.9881 18.9653 26.92 19.2602C26.624 19.359 26.3103 19.3931 26 19.3602H22C21.6977 19.3755 21.3948 19.3486 21.1 19.2802C21.0012 18.9842 20.9671 18.6705 21 18.3602V15.6702C20.985 15.3679 21.0119 15.065 21.08 14.7702C21.376 14.6714 21.6897 14.6373 22 14.6702H26ZM26 13.6702H22C20.35 13.6702 20 14.0202 20 15.6702V18.3602C20 20.0102 20.35 20.3602 22 20.3602H26C27.65 20.3602 28 20.0102 28 18.3602V15.6702C28 14.0202 27.65 13.6702 26 13.6702Z" fill="#C18F35"/>
<path d="M38.98 17.1702H35C34.1716 17.1702 33.5 17.8417 33.5 18.6702V21.3602C33.5 22.1886 34.1716 22.8602 35 22.8602H38.98C39.8084 22.8602 40.48 22.1886 40.48 21.3602V18.6702C40.48 17.8417 39.8084 17.1702 38.98 17.1702Z" fill="#F0ECB6"/>
<path d="M39 17.6702C39.3023 17.6548 39.6052 17.6817 39.9 17.7502C39.9988 18.0461 40.0329 18.3599 40 18.6702V21.3602C40.015 21.6624 39.9881 21.9653 39.92 22.2602C39.624 22.359 39.3103 22.3931 39 22.3602H35C34.6977 22.3755 34.3948 22.3486 34.1 22.2802C34.0012 21.9842 33.9671 21.6705 34 21.3602V18.6702C33.985 18.3679 34.0119 18.065 34.08 17.7702C34.376 17.6714 34.6897 17.6373 35 17.6702H39ZM39 16.6702H35C33.35 16.6702 33 17.0202 33 18.6702V21.3602C33 23.0102 33.35 23.3602 35 23.3602H39C40.65 23.3602 41 23.0102 41 21.3602V18.6702C41 17.0202 40.65 16.6702 39 16.6702Z" fill="#C18F35"/>
<path d="M51.98 20.1401H48C47.1716 20.1401 46.5 20.8117 46.5 21.6401V24.3301C46.5 25.1586 47.1716 25.8301 48 25.8301H51.98C52.8084 25.8301 53.48 25.1586 53.48 24.3301V21.6401C53.48 20.8117 52.8084 20.1401 51.98 20.1401Z" fill="#F0ECB6"/>
<path d="M52 20.6401C52.3023 20.6248 52.6052 20.6517 52.9 20.7201C52.9991 21.016 53.0332 21.3298 53 21.6401V24.3301C53.015 24.6324 52.9881 24.9353 52.92 25.2301C52.624 25.3289 52.3103 25.363 52 25.3301H48C47.6977 25.3455 47.3948 25.3186 47.1 25.2501C47.0012 24.9542 46.9671 24.6404 47 24.3301V21.6401C46.985 21.3379 47.0119 21.035 47.08 20.7401C47.376 20.6413 47.6897 20.6072 48 20.6401H52ZM52 19.6401H48C46.35 19.6401 46 19.9901 46 21.6401V24.3301C46 25.9801 46.35 26.3301 48 26.3301H52C53.65 26.3301 54 25.9801 54 24.3301V21.6401C54 19.9901 53.65 19.6401 52 19.6401Z" fill="#C18F35"/>
<path d="M25.98 26.25H22C21.1716 26.25 20.5 26.9216 20.5 27.75V30.44C20.5 31.2684 21.1716 31.94 22 31.94H25.98C26.8084 31.94 27.48 31.2684 27.48 30.44V27.75C27.48 26.9216 26.8084 26.25 25.98 26.25Z" fill="#F0ECB6"/>
<path d="M26 26.75C26.3023 26.7346 26.6052 26.7616 26.9 26.83C26.9991 27.1259 27.0332 27.4397 27 27.75V30.44C27.015 30.7423 26.9881 31.0451 26.92 31.34C26.624 31.4388 26.3103 31.4729 26 31.44H22C21.6977 31.4554 21.3948 31.4284 21.1 31.36C21.0012 31.064 20.9671 30.7503 21 30.44V27.75C20.985 27.4477 21.0119 27.1449 21.08 26.85C21.376 26.7512 21.6897 26.7171 22 26.75H26ZM26 25.75H22C20.35 25.75 20 26.1 20 27.75V30.44C20 32.09 20.35 32.44 22 32.44H26C27.65 32.44 28 32.09 28 30.44V27.75C28 26.1 27.65 25.75 26 25.75Z" fill="#C18F35"/>
<path d="M38.98 29.25H35C34.1716 29.25 33.5 29.9216 33.5 30.75V33.44C33.5 34.2684 34.1716 34.94 35 34.94H38.98C39.8084 34.94 40.48 34.2684 40.48 33.44V30.75C40.48 29.9216 39.8084 29.25 38.98 29.25Z" fill="#F0ECB6"/>
<path d="M39 29.75C39.3023 29.7346 39.6052 29.7616 39.9 29.83C39.9991 30.1259 40.0332 30.4397 40 30.75V33.44C40.015 33.7423 39.9881 34.0451 39.92 34.34C39.624 34.4388 39.3103 34.4729 39 34.44H35C34.6977 34.4554 34.3948 34.4284 34.1 34.36C34.0012 34.064 33.9671 33.7503 34 33.44V30.75C33.985 30.4477 34.0119 30.1449 34.08 29.85C34.376 29.7512 34.6897 29.7171 35 29.75H39ZM39 28.75H35C33.35 28.75 33 29.1 33 30.75V33.44C33 35.09 33.35 35.44 35 35.44H39C40.65 35.44 41 35.09 41 33.44V30.75C41 29.1 40.65 28.75 39 28.75Z" fill="#C18F35"/>
<path d="M51.98 32.22H48C47.1716 32.22 46.5 32.8915 46.5 33.72V36.41C46.5 37.2384 47.1716 37.91 48 37.91H51.98C52.8084 37.91 53.48 37.2384 53.48 36.41V33.72C53.48 32.8915 52.8084 32.22 51.98 32.22Z" fill="#F0ECB6"/>
<path d="M52 32.72C52.3023 32.7046 52.6052 32.7315 52.9 32.8C52.9988 33.0959 53.0329 33.4097 53 33.72V36.41C53.015 36.7122 52.9881 37.0151 52.92 37.31C52.624 37.4088 52.3103 37.4429 52 37.41H48C47.6977 37.4253 47.3948 37.3984 47.1 37.33C47.0012 37.034 46.9671 36.7203 47 36.41V33.72C46.985 33.4177 47.0119 33.1148 47.08 32.82C47.376 32.7212 47.6897 32.6871 48 32.72H52ZM52 31.72H48C46.35 31.72 46 32.07 46 33.72V36.41C46 38.06 46.35 38.41 48 38.41H52C53.65 38.41 54 38.06 54 36.41V33.72C54 32.07 53.65 31.72 52 31.72Z" fill="#C18F35"/>
<path d="M25.98 38.1702H22C21.1716 38.1702 20.5 38.8417 20.5 39.6702V42.3602C20.5 43.1886 21.1716 43.8602 22 43.8602H25.98C26.8084 43.8602 27.48 43.1886 27.48 42.3602V39.6702C27.48 38.8417 26.8084 38.1702 25.98 38.1702Z" fill="#F0ECB6"/>
<path d="M26 38.6702C26.3023 38.6548 26.6052 38.6817 26.9 38.7502C26.9988 39.0461 27.0329 39.3599 27 39.6702V42.3602C27.015 42.6624 26.9881 42.9653 26.92 43.2602C26.624 43.359 26.3103 43.3931 26 43.3602H22C21.6977 43.3755 21.3948 43.3486 21.1 43.2802C21.0012 42.9842 20.9671 42.6705 21 42.3602V39.6702C20.985 39.3679 21.0119 39.065 21.08 38.7702C21.376 38.6714 21.6897 38.6373 22 38.6702H26ZM26 37.6702H22C20.35 37.6702 20 38.0202 20 39.6702V42.3602C20 44.0102 20.35 44.3602 22 44.3602H26C27.65 44.3602 28 44.0102 28 42.3602V39.6702C28 38.0202 27.65 37.6702 26 37.6702Z" fill="#C18F35"/>
<path d="M38.98 41.1702H35C34.1716 41.1702 33.5 41.8417 33.5 42.6702V45.3602C33.5 46.1886 34.1716 46.8602 35 46.8602H38.98C39.8084 46.8602 40.48 46.1886 40.48 45.3602V42.6702C40.48 41.8417 39.8084 41.1702 38.98 41.1702Z" fill="#F0ECB6"/>
<path d="M39 41.6702C39.3023 41.6548 39.6052 41.6817 39.9 41.7502C39.9988 42.0461 40.0329 42.3599 40 42.6702V45.3602C40.015 45.6624 39.9881 45.9653 39.92 46.2602C39.624 46.359 39.3103 46.3931 39 46.3602H35C34.6977 46.3755 34.3948 46.3486 34.1 46.2802C34.0012 45.9842 33.9671 45.6705 34 45.3602V42.6702C33.985 42.3679 34.0119 42.065 34.08 41.7702C34.376 41.6714 34.6897 41.6373 35 41.6702H39ZM39 40.6702H35C33.35 40.6702 33 41.0202 33 42.6702V45.3602C33 47.0102 33.35 47.3602 35 47.3602H39C40.65 47.3602 41 47.0102 41 45.3602V42.6702C41 41.0202 40.65 40.6702 39 40.6702Z" fill="#C18F35"/>
<path d="M51.98 44.1401H48C47.1716 44.1401 46.5 44.8117 46.5 45.6401V48.3301C46.5 49.1586 47.1716 49.8301 48 49.8301H51.98C52.8084 49.8301 53.48 49.1586 53.48 48.3301V45.6401C53.48 44.8117 52.8084 44.1401 51.98 44.1401Z" fill="#F0ECB6"/>
<path d="M52 44.6401C52.3023 44.6248 52.6052 44.6517 52.9 44.7201C52.9991 45.016 53.0332 45.3298 53 45.6401V48.3301C53.015 48.6324 52.9881 48.9353 52.92 49.2301C52.624 49.3289 52.3103 49.363 52 49.3301H48C47.6977 49.3455 47.3948 49.3186 47.1 49.2501C47.0012 48.9542 46.9671 48.6404 47 48.3301V45.6401C46.985 45.3379 47.0119 45.035 47.08 44.7401C47.376 44.6413 47.6897 44.6072 48 44.6401H52ZM52 43.6401H48C46.35 43.6401 46 43.9901 46 45.6401V48.3301C46 49.9801 46.35 50.3301 48 50.3301H52C53.65 50.3301 54 49.9801 54 48.3301V45.6401C54 43.9901 53.65 43.6401 52 43.6401Z" fill="#C18F35"/>
<path d="M13.4898 49.4899L10.0098 44.8499H16.9698L13.4898 49.4899Z" fill="#2980B9"/>
<path fill-rule="evenodd" clip-rule="evenodd" d="M9.11534 44.4026C9.28474 44.0639 9.631 43.8499 10.0098 43.8499H16.9698C17.3485 43.8499 17.6948 44.0639 17.8642 44.4026C18.0336 44.7414 17.997 45.1468 17.7698 45.4499L14.2898 50.0899C14.1009 50.3417 13.8045 50.4899 13.4898 50.4899C13.175 50.4899 12.8786 50.3417 12.6898 50.0899L9.20977 45.4499C8.98251 45.1468 8.94595 44.7414 9.11534 44.4026ZM12.0098 45.8499L13.4898 47.8232L14.9698 45.8499H12.0098Z" fill="#2980B9"/>
<path fill-rule="evenodd" clip-rule="evenodd" d="M13.4902 13.51C14.0425 13.51 14.4902 13.9577 14.4902 14.51V45.48C14.4902 46.0323 14.0425 46.48 13.4902 46.48C12.9379 46.48 12.4902 46.0323 12.4902 45.48V14.51C12.4902 13.9577 12.9379 13.51 13.4902 13.51Z" fill="#2980B9"/>
</svg>
