<svg width="64" height="64" viewBox="0 0 64 64" fill="none" xmlns="http://www.w3.org/2000/svg">
<path d="M48.9499 27.3098H40.6699V36.3098H48.9499V27.3098Z" fill="#F0ECB6"/>
<path d="M48.4499 27.8098V35.8098H41.1699V27.8098H48.4499ZM49.4499 26.8098H40.1699V36.8098H49.4499V26.8098Z" fill="#C18F35"/>
<path d="M57.2507 27.3098H48.9707V36.3098H57.2507V27.3098Z" fill="#F0ECB6"/>
<path d="M56.7507 27.8098V35.8098H49.4707V27.8098H56.7507ZM57.7507 26.8098H48.4707V36.8098H57.7507V26.8098Z" fill="#C18F35"/>
<path d="M42.1699 45.29C40.7999 45.29 40.6699 45.16 40.6699 43.79V36.29H48.9499V45.29H42.1699Z" fill="#C8FFAC"/>
<path d="M48.4499 36.79V44.79H42.1699C41.8677 44.8054 41.5647 44.7785 41.2699 44.71C41.1708 44.4141 41.1367 44.1003 41.1699 43.79V36.79H48.4499ZM49.4499 35.79H40.1699V43.79C40.1699 45.44 40.5199 45.79 42.1699 45.79H49.4499V35.79Z" fill="#48D601"/>
<path d="M49 45.29V36.29H57.28V43.79C57.28 45.16 57.15 45.29 55.78 45.29H49Z" fill="#C8FFAC"/>
<path d="M56.7507 36.79V43.79C56.7657 44.0923 56.7388 44.3952 56.6707 44.69C56.3747 44.7888 56.061 44.8229 55.7507 44.79H49.4707V36.79H56.7507ZM57.7507 35.79H48.4707V45.79H55.7507C57.4007 45.79 57.7507 45.44 57.7507 43.79V35.79Z" fill="#48D601"/>
<path d="M40.6699 27.3298V19.8298C40.6699 18.4598 40.7999 18.3298 42.1699 18.3298H48.9499V27.3298H40.6699Z" fill="#D3D4F3"/>
<path d="M48.4499 18.8298V26.8298H41.1699V19.8298C41.1549 19.5276 41.1819 19.2247 41.2499 18.9298C41.5459 18.831 41.8596 18.7969 42.1699 18.8298H48.4499ZM49.4499 17.8298H42.1699C40.5199 17.8298 40.1699 18.1798 40.1699 19.8298V27.8298H49.4499V17.8298Z" fill="#666BD1"/>
<path d="M49 27.3298V18.3298H55.78C57.15 18.3298 57.28 18.4598 57.28 19.8298V27.3298H49Z" fill="#D3D4F3"/>
<path d="M55.7507 18.8298C56.053 18.8145 56.3559 18.8414 56.6507 18.9098C56.7498 19.2057 56.7839 19.5195 56.7507 19.8298V26.8298H49.4707V18.8298H55.7507ZM55.7507 17.8298H48.4707V27.8298H57.7507V19.8298C57.7507 18.1798 57.4007 17.8298 55.7507 17.8298Z" fill="#666BD1"/>
<path d="M11.2793 25.49V14C11.2793 12.63 11.4093 12.5 12.7793 12.5H18.5593V25.5L11.2793 25.49Z" fill="#D3D4F3"/>
<path d="M18.0593 13V25H11.7793V14C11.7643 13.6977 11.7912 13.3949 11.8593 13.1C12.1553 13.0012 12.469 12.9671 12.7793 13H18.0593ZM19.0593 12H12.7793C11.1293 12 10.7793 12.35 10.7793 14V26H19.0593V12Z" fill="#666BD1"/>
<path d="M18.5703 25.49V12.49H24.3503C25.7203 12.49 25.8503 12.62 25.8503 13.99V25.49H18.5703Z" fill="#D3D4F3"/>
<path d="M24.3503 13C24.6526 12.9846 24.9555 13.0116 25.2503 13.08C25.3491 13.376 25.3832 13.6897 25.3503 14V25H19.0703V13H24.3503ZM24.3503 12H18.0703V26H26.3503V14C26.3503 12.35 26.0003 12 24.3503 12Z" fill="#666BD1"/>
<path opacity="0.8" d="M11.3105 18.8298H18.0505" stroke="#666BD1" stroke-linejoin="round"/>
<path opacity="0.8" d="M18.3301 18.8298H25.8201" stroke="#666BD1" stroke-linejoin="round"/>
<path d="M12.7793 51.51C11.4093 51.51 11.2793 51.38 11.2793 50.01V38.51H18.5593V51.51H12.7793Z" fill="#C8FFAC"/>
<path d="M18.0593 39V51H12.7793C12.477 51.0154 12.1741 50.9884 11.8793 50.92C11.7805 50.624 11.7464 50.3103 11.7793 50V39H18.0593ZM19.0593 38H10.7793V50C10.7793 51.65 11.1293 52 12.7793 52H19.0593V38Z" fill="#48D601"/>
<path d="M18.5703 51.51V38.51H25.8503V50C25.8503 51.37 25.7203 51.5 24.3503 51.5L18.5703 51.51Z" fill="#C8FFAC"/>
<path d="M25.3503 39V50C25.3653 50.3023 25.3384 50.6051 25.2703 50.9C24.9743 50.9988 24.6606 51.0329 24.3503 51H19.0703V39H25.3503ZM26.3503 38H18.0703V52H24.3503C26.0003 52 26.3503 51.65 26.3503 50V38Z" fill="#48D601"/>
<path opacity="0.7" d="M18.3301 44.8599H25.8201" stroke="#48D601" stroke-miterlimit="10"/>
<path opacity="0.7" d="M11.3105 44.8599H18.0505" stroke="#48D601" stroke-miterlimit="10"/>
<path d="M25.8503 25.49H18.5703V38.49H25.8503V25.49Z" fill="#F0ECB6"/>
<path d="M25.3503 26V38H19.0703V26H25.3503ZM26.3503 25H18.0703V39H26.3503V25Z" fill="#C18F35"/>
<path opacity="0.8" d="M18.3301 31.8398H25.8201" stroke="#C18F35" stroke-linejoin="round"/>
<path d="M18.5593 25.49H11.2793V38.49H18.5593V25.49Z" fill="#F0ECB6"/>
<path d="M18.0593 26V38H11.7793V26H18.0593ZM19.0593 25H10.7793V39H19.0593V25Z" fill="#C18F35"/>
<path opacity="0.8" d="M11.3105 31.8398H18.0505" stroke="#C18F35" stroke-linejoin="round"/>
<path fill-rule="evenodd" clip-rule="evenodd" d="M8.25 19.3398C7.42157 19.3398 6.75 20.0114 6.75 20.8398V42.8298C6.75 43.6583 7.42157 44.3298 8.25 44.3298H29.25C30.0784 44.3298 30.75 43.6583 30.75 42.8298V20.8398C30.75 20.0114 30.0784 19.3398 29.25 19.3398H8.25ZM5.75 20.8398C5.75 19.4591 6.86929 18.3398 8.25 18.3398H29.25C30.6307 18.3398 31.75 19.4591 31.75 20.8398V42.8298C31.75 44.2106 30.6307 45.3298 29.25 45.3298H8.25C6.86929 45.3298 5.75 44.2106 5.75 42.8298V20.8398Z" fill="#34495E"/>
<path d="M39.3197 22.95L36.6797 24.93V20.98L39.3197 22.95Z" fill="#34495E"/>
<path fill-rule="evenodd" clip-rule="evenodd" d="M36.4555 20.533C36.6246 20.4482 36.8271 20.4661 36.9787 20.5793L39.6187 22.5493C39.745 22.6435 39.8195 22.7918 39.8197 22.9494C39.8199 23.107 39.7458 23.2554 39.6197 23.35L36.9797 25.33C36.8282 25.4436 36.6255 25.4619 36.4561 25.3772C36.2867 25.2925 36.1797 25.1194 36.1797 24.93V20.98C36.1797 20.7908 36.2864 20.6178 36.4555 20.533ZM37.1797 21.977V23.93L38.485 22.951L37.1797 21.977Z" fill="#34495E"/>
<path fill-rule="evenodd" clip-rule="evenodd" d="M37.64 23.0467C37.6419 23.3228 37.4195 23.5482 37.1434 23.55L31.2534 23.59C30.9773 23.5919 30.7519 23.3696 30.75 23.0934C30.7481 22.8173 30.9705 22.5919 31.2466 22.5901L37.1366 22.5501C37.4127 22.5482 37.6381 22.7705 37.64 23.0467Z" fill="#34495E"/>
<path d="M39.3197 31.8399L36.6797 33.8199V29.8599L39.3197 31.8399Z" fill="#34495E"/>
<path fill-rule="evenodd" clip-rule="evenodd" d="M36.4561 29.4127C36.6255 29.328 36.8282 29.3462 36.9797 29.4599L39.6197 31.4399C39.7456 31.5343 39.8197 31.6825 39.8197 31.8399C39.8197 31.9972 39.7456 32.1454 39.6197 32.2399L36.9797 34.2199C36.8282 34.3335 36.6255 34.3518 36.4561 34.2671C36.2867 34.1824 36.1797 34.0092 36.1797 33.8199V29.8599C36.1797 29.6705 36.2867 29.4973 36.4561 29.4127ZM37.1797 30.8599V32.8199L38.4863 31.8399L37.1797 30.8599Z" fill="#34495E"/>
<path fill-rule="evenodd" clip-rule="evenodd" d="M37.64 31.9368C37.6419 32.2129 37.4195 32.4383 37.1434 32.4402L31.2534 32.4802C30.9773 32.482 30.7519 32.2597 30.75 31.9836C30.7481 31.7074 30.9705 31.4821 31.2466 31.4802L37.1366 31.4402C37.4127 31.4383 37.6381 31.6607 37.64 31.9368Z" fill="#34495E"/>
<path d="M39.3197 40.6001L36.6797 42.5801V38.6301L39.3197 40.6001Z" fill="#34495E"/>
<path fill-rule="evenodd" clip-rule="evenodd" d="M36.4555 38.1832C36.6246 38.0984 36.8271 38.1163 36.9787 38.2294L39.6187 40.1994C39.745 40.2936 39.8195 40.4419 39.8197 40.5995C39.8199 40.7571 39.7458 40.9056 39.6197 41.0001L36.9797 42.9801C36.8282 43.0938 36.6255 43.112 36.4561 43.0273C36.2867 42.9427 36.1797 42.7695 36.1797 42.5801V38.6301C36.1797 38.441 36.2864 38.268 36.4555 38.1832ZM37.1797 39.6271V41.5801L38.485 40.6011L37.1797 39.6271Z" fill="#34495E"/>
<path fill-rule="evenodd" clip-rule="evenodd" d="M37.64 40.6957C37.6423 40.9718 37.4204 41.1976 37.1442 41.1999L31.2542 41.2499C30.9781 41.2523 30.7524 41.0303 30.75 40.7542C30.7477 40.4781 30.9696 40.2523 31.2458 40.25L37.1358 40.2C37.4119 40.1976 37.6376 40.4196 37.64 40.6957Z" fill="#34495E"/>
</svg>
