<svg width="64" height="64" viewBox="0 0 64 64" fill="none" xmlns="http://www.w3.org/2000/svg">
<path d="M9.72 50.7801L6.25 46.1401H13.2L9.72 50.7801Z" fill="#2980B9"/>
<path fill-rule="evenodd" clip-rule="evenodd" d="M5.80294 45.9162C5.8877 45.747 6.06074 45.6401 6.25 45.6401H13.2C13.3894 45.6401 13.5625 45.7471 13.6472 45.9165C13.7319 46.0859 13.7136 46.2886 13.6 46.4401L10.12 51.0801C10.0255 51.2061 9.87716 51.2802 9.71966 51.2801C9.56216 51.28 9.41392 51.2057 9.31959 51.0796L5.84959 46.4396C5.73624 46.288 5.71819 46.0854 5.80294 45.9162ZM7.24828 46.6401L9.72058 49.946L12.2 46.6401H7.24828Z" fill="#2980B9"/>
<path fill-rule="evenodd" clip-rule="evenodd" d="M9.7207 14.8C10.273 14.8 10.7207 15.2478 10.7207 15.8V46.7701C10.7207 47.3223 10.273 47.7701 9.7207 47.7701C9.16842 47.7701 8.7207 47.3223 8.7207 46.7701V15.8C8.7207 15.2478 9.16842 14.8 9.7207 14.8Z" fill="#2980B9"/>
<path d="M17.7598 57.47C16.3898 57.47 16.2598 57.34 16.2598 55.97V15.53H57.2598V56C57.2598 57.37 57.1298 57.5 55.7598 57.5L17.7598 57.47Z" fill="#F3C7D7"/>
<path d="M56.75 16V56C56.765 56.3023 56.7381 56.6051 56.67 56.9C56.374 56.9988 56.0603 57.0329 55.75 57H17.75C17.4477 57.0154 17.1448 56.9884 16.85 56.92C16.7509 56.6241 16.7168 56.3103 16.75 56V16H56.75ZM57.75 15H15.75V56C15.75 57.65 16.1 58 17.75 58H55.75C57.4 58 57.75 57.65 57.75 56V15Z" fill="#D04465"/>
<g opacity="0.5">
<path opacity="0.5" d="M24.459 56.97V15.97" stroke="#D04465" stroke-linejoin="round"/>
<path opacity="0.5" d="M40.8594 56.97V15.97" stroke="#D04465" stroke-linejoin="round"/>
<path opacity="0.5" d="M32.6602 56.97V15.97" stroke="#D04465" stroke-linejoin="round"/>
<path opacity="0.5" d="M49.0605 56.97V15.97" stroke="#D04465" stroke-linejoin="round"/>
<path opacity="0.5" d="M16.7598 23.97H56.7298" stroke="#D04465" stroke-linejoin="round"/>
<path opacity="0.8" d="M16.7598 32.3398H56.7298" stroke="#D04465" stroke-linejoin="round"/>
<path opacity="0.5" d="M16.7598 40.71H56.7298" stroke="#D04465" stroke-linejoin="round"/>
<path opacity="0.5" d="M16.7598 49.0798H56.7298" stroke="#D04465" stroke-linejoin="round"/>
</g>
<path d="M49.0605 15.53V6.53003H55.7505C57.1205 6.53003 57.2505 6.66003 57.2505 8.03003V15.53H49.0605Z" fill="#ADDFF3"/>
<path d="M55.7605 7C56.0628 6.98463 56.3657 7.01156 56.6605 7.08C56.7593 7.37598 56.7934 7.68971 56.7605 8V15H49.5605V7H55.7505H55.7605ZM55.7505 6H48.5605V16H57.7505V8C57.7505 6.35 57.4005 6 55.7505 6Z" fill="#2980B9"/>
<path d="M16.2598 15.53V8C16.2598 6.63 16.3898 6.5 17.7598 6.5H24.4498V15.5L16.2598 15.53Z" fill="#ADDFF3"/>
<path d="M23.9998 7V15H16.7598V8C16.7449 7.69775 16.7718 7.39489 16.8398 7.1C17.1357 7.00121 17.4495 6.96711 17.7598 7H23.9998ZM24.9998 6H17.7598C16.1098 6 15.7598 6.35 15.7598 8V16H24.9998V6Z" fill="#2980B9"/>
<path d="M49.0494 6.53003H40.8594V15.53H49.0494V6.53003Z" fill="#ADDFF3"/>
<path d="M48.5394 7V15H41.3594V7H48.5394ZM49.5394 6H40.3594V16H49.5494V6H49.5394Z" fill="#2980B9"/>
<path d="M40.8599 6.53003H32.6699V15.53H40.8599V6.53003Z" fill="#ADDFF3"/>
<path d="M40.3599 7V15H33.1699V7H40.3499H40.3599ZM41.3499 6H32.1699V16H41.3599V6H41.3499Z" fill="#2980B9"/>
<path d="M32.6505 6.53003H24.4805V15.53H32.6505V6.53003Z" fill="#ADDFF3"/>
<path d="M32.15 7V15H25V7H32.17H32.15ZM33.17 6H24V16H33.18V6H33.17Z" fill="#2980B9"/>
<path d="M24.7168 26.2122H22.4316V32.55H21.499V26.2122H19.2188V25.4407H24.7168V26.2122Z" fill="#34495E"/>
</svg>
